=== REPORTE Christopher Larkin - MANTIS LORDS ===
---------------------------------------------
>>> PARAMETROS <<<
---------------------------------------------
>>> RESUMEN DE NOTAS <<<
total de notas       : 1166
rango de tessitura  : 30 to 89
duracion en ticks  : 116640
polifonia  : 286 (ticks con notas sobrepuestas)
densidad ritmica  : 4.80 notas por beat
---------------------------------------------
>>> datos adicionales <<<
[
    {
        "track": 0,
        "absoluteTick": 0,
        "noteNumber": 72,
        "velocity": 115
    },
    {
        "track": 0,
        "absoluteTick": 0,
        "noteNumber": 84,
        "velocity": 115
    },
    {
        "track": 1,
        "absoluteTick": 0,
        "noteNumber": 36,
        "velocity": 115
    },
    {
        "track": 1,
        "absoluteTick": 0,
        "noteNumber": 48,
        "velocity": 115
    },
    {
        "track": 0,
        "absoluteTick": 240,
        "noteNumber": 68,
        "velocity": 96
    },
    {
        "track": 1,
        "absoluteTick": 360,
        "noteNumber": 56,
        "velocity": 96
    },
    {
        "track": 0,
        "absoluteTick": 480,
        "noteNumber": 67,
        "velocity": 96
    },
    {
        "track": 1,
        "absoluteTick": 600,
        "noteNumber": 55,
        "velocity": 96
    },
    {
        "track": 0,
        "absoluteTick": 720,
        "noteNumber": 68,
        "velocity": 96
    },
    {
        "track": 1,
        "absoluteTick": 840,
        "noteNumber": 56,
        "velocity": 96
    },
    {
        "track": 0,
        "absoluteTick": 960,
        "noteNumber": 67,
        "velocity": 96
    },
    {
        "track": 1,
        "absoluteTick": 1080,
        "noteNumber": 55,
        "velocity": 96
    },
    {
        "track": 0,
        "absoluteTick": 1200,
        "noteNumber": 65,
        "velocity": 96
    },
    {
        "track": 1,
        "absoluteTick": 1320,
        "noteNumber": 53,
        "velocity": 96
    },
    {
        "track": 0,
        "absoluteTick": 1440,
        "noteNumber": 67,
        "velocity": 96
    },
    {
        "track": 1,
        "absoluteTick": 1560,
        "noteNumber": 55,
        "velocity": 96
    },
    {
        "track": 0,
        "absoluteTick": 1680,
        "noteNumber": 65,
        "velocity": 96
    },
    {
        "track": 1,
        "absoluteTick": 1800,
        "noteNumber": 53,
        "velocity": 96
    },
    {
        "track": 0,
        "absoluteTick": 1920,
        "noteNumber": 63,
        "velocity": 96
    },
    {
        "track": 1,
        "absoluteTick": 2040,
        "noteNumber": 51,
        "velocity": 96
    },
    {
        "track": 0,
        "absoluteTick": 2160,
        "noteNumber": 65,
        "velocity": 96
    },
    {
        "track": 1,
        "absoluteTick": 2160,
        "noteNumber": 36,
        "velocity": 96
    },
    {
        "track": 1,
        "absoluteTick": 2160,
        "noteNumber": 48,
        "velocity": 96
    },
    {
        "track": 0,
        "absoluteTick": 2400,
        "noteNumber": 63,
        "velocity": 96
    },
    {
        "track": 1,
        "absoluteTick": 2400,
        "noteNumber": 36,
        "velocity": 96
    },
    {
        "track": 1,
        "absoluteTick": 2400,
        "noteNumber": 48,
        "velocity": 96
    },
    {
        "track": 0,
        "absoluteTick": 2640,
        "noteNumber": 62,
        "velocity": 96
    },
    {
        "track": 1,
        "absoluteTick": 2640,
        "noteNumber": 36,
        "velocity": 96
    },
    {
        "track": 1,
        "absoluteTick": 2640,
        "noteNumber": 48,
        "velocity": 96
    },
    {
        "track": 0,
        "absoluteTick": 2880,
        "noteNumber": 72,
        "velocity": 115
    },
    {
        "track": 0,
        "absoluteTick": 2880,
        "noteNumber": 84,
        "velocity": 115
    },
    {
        "track": 1,
        "absoluteTick": 2880,
        "noteNumber": 36,
        "velocity": 115
    },
    {
        "track": 1,
        "absoluteTick": 2880,
        "noteNumber": 48,
        "velocity": 115
    },
    {
        "track": 0,
        "absoluteTick": 3120,
        "noteNumber": 68,
        "velocity": 96
    },
    {
        "track": 1,
        "absoluteTick": 3240,
        "noteNumber": 56,
        "velocity": 96
    },
    {
        "track": 0,
        "absoluteTick": 3360,
        "noteNumber": 67,
        "velocity": 96
    },
    {
        "track": 1,
        "absoluteTick": 3480,
        "noteNumber": 55,
        "velocity": 96
    },
    {
        "track": 0,
        "absoluteTick": 3600,
        "noteNumber": 68,
        "velocity": 96
    },
    {
        "track": 1,
        "absoluteTick": 3720,
        "noteNumber": 56,
        "velocity": 96
    },
    {
        "track": 0,
        "absoluteTick": 3840,
        "noteNumber": 67,
        "velocity": 96
    },
    {
        "track": 1,
        "absoluteTick": 3960,
        "noteNumber": 55,
        "velocity": 96
    },
    {
        "track": 0,
        "absoluteTick": 4080,
        "noteNumber": 65,
        "velocity": 96
    },
    {
        "track": 1,
        "absoluteTick": 4200,
        "noteNumber": 53,
        "velocity": 96
    },
    {
        "track": 0,
        "absoluteTick": 4320,
        "noteNumber": 67,
        "velocity": 96
    },
    {
        "track": 1,
        "absoluteTick": 4440,
        "noteNumber": 55,
        "velocity": 96
    },
    {
        "track": 0,
        "absoluteTick": 4560,
        "noteNumber": 65,
        "velocity": 96
    },
    {
        "track": 1,
        "absoluteTick": 4680,
        "noteNumber": 53,
        "velocity": 96
    },
    {
        "track": 0,
        "absoluteTick": 4800,
        "noteNumber": 63,
        "velocity": 96
    },
    {
        "track": 1,
        "absoluteTick": 4920,
        "noteNumber": 51,
        "velocity": 96
    },
    {
        "track": 0,
        "absoluteTick": 5040,
        "noteNumber": 65,
        "velocity": 96
    },
    {
        "track": 1,
        "absoluteTick": 5040,
        "noteNumber": 36,
        "velocity": 96
    },
    {
        "track": 1,
        "absoluteTick": 5040,
        "noteNumber": 48,
        "velocity": 96
    },
    {
        "track": 0,
        "absoluteTick": 5160,
        "noteNumber": 67,
        "velocity": 96
    },
    {
        "track": 0,
        "absoluteTick": 5280,
        "noteNumber": 68,
        "velocity": 96
    },
    {
        "track": 1,
        "absoluteTick": 5280,
        "noteNumber": 36,
        "velocity": 96
    },
    {
        "track": 1,
        "absoluteTick": 5280,
        "noteNumber": 48,
        "velocity": 96
    },
    {
        "track": 0,
        "absoluteTick": 5400,
        "noteNumber": 69,
        "velocity": 96
    },
    {
        "track": 0,
        "absoluteTick": 5520,
        "noteNumber": 70,
        "velocity": 96
    },
    {
        "track": 1,
        "absoluteTick": 5520,
        "noteNumber": 36,
        "velocity": 96
    },
    {
        "track": 1,
        "absoluteTick": 5520,
        "noteNumber": 48,
        "velocity": 96
    },
    {
        "track": 0,
        "absoluteTick": 5640,
        "noteNumber": 71,
        "velocity": 96
    },
    {
        "track": 0,
        "absoluteTick": 5760,
        "noteNumber": 72,
        "velocity": 115
    },
    {
        "track": 0,
        "absoluteTick": 5760,
        "noteNumber": 84,
        "velocity": 115
    },
    {
        "track": 1,
        "absoluteTick": 5760,
        "noteNumber": 36,
        "velocity": 115
    },
    {
        "track": 1,
        "absoluteTick": 5760,
        "noteNumber": 48,
        "velocity": 115
    },
    {
        "track": 0,
        "absoluteTick": 6000,
        "noteNumber": 68,
        "velocity": 96
    },
    {
        "track": 1,
        "absoluteTick": 6120,
        "noteNumber": 56,
        "velocity": 96
    },
    {
        "track": 0,
        "absoluteTick": 6240,
        "noteNumber": 67,
        "velocity": 96
    },
    {
        "track": 1,
        "absoluteTick": 6360,
        "noteNumber": 55,
        "velocity": 96
    },
    {
        "track": 0,
        "absoluteTick": 6480,
        "noteNumber": 68,
        "velocity": 96
    },
    {
        "track": 1,
        "absoluteTick": 6600,
        "noteNumber": 56,
        "velocity": 96
    },
    {
        "track": 0,
        "absoluteTick": 6720,
        "noteNumber": 67,
        "velocity": 96
    },
    {
        "track": 1,
        "absoluteTick": 6840,
        "noteNumber": 55,
        "velocity": 96
    },
    {
        "track": 0,
        "absoluteTick": 6960,
        "noteNumber": 65,
        "velocity": 96
    },
    {
        "track": 1,
        "absoluteTick": 7080,
        "noteNumber": 53,
        "velocity": 96
    },
    {
        "track": 0,
        "absoluteTick": 7200,
        "noteNumber": 67,
        "velocity": 96
    },
    {
        "track": 1,
        "absoluteTick": 7320,
        "noteNumber": 55,
        "velocity": 96
    },
    {
        "track": 0,
        "absoluteTick": 7440,
        "noteNumber": 65,
        "velocity": 96
    },
    {
        "track": 1,
        "absoluteTick": 7560,
        "noteNumber": 53,
        "velocity": 96
    },
    {
        "track": 0,
        "absoluteTick": 7680,
        "noteNumber": 63,
        "velocity": 96
    },
    {
        "track": 1,
        "absoluteTick": 7800,
        "noteNumber": 51,
        "velocity": 96
    },
    {
        "track": 0,
        "absoluteTick": 7920,
        "noteNumber": 65,
        "velocity": 96
    },
    {
        "track": 1,
        "absoluteTick": 8040,
        "noteNumber": 53,
        "velocity": 96
    },
    {
        "track": 0,
        "absoluteTick": 8160,
        "noteNumber": 63,
        "velocity": 96
    },
    {
        "track": 1,
        "absoluteTick": 8280,
        "noteNumber": 51,
        "velocity": 96
    },
    {
        "track": 0,
        "absoluteTick": 8400,
        "noteNumber": 62,
        "velocity": 96
    },
    {
        "track": 1,
        "absoluteTick": 8520,
        "noteNumber": 50,
        "velocity": 96
    },
    {
        "track": 0,
        "absoluteTick": 8640,
        "noteNumber": 75,
        "velocity": 96
    },
    {
        "track": 1,
        "absoluteTick": 8640,
        "noteNumber": 48,
        "velocity": 96
    },
    {
        "track": 0,
        "absoluteTick": 8760,
        "noteNumber": 63,
        "velocity": 96
    },
    {
        "track": 0,
        "absoluteTick": 8880,
        "noteNumber": 74,
        "velocity": 96
    },
    {
        "track": 0,
        "absoluteTick": 9000,
        "noteNumber": 62,
        "velocity": 96
    },
    {
        "track": 0,
        "absoluteTick": 9120,
        "noteNumber": 72,
        "velocity": 96
    },
    {
        "track": 1,
        "absoluteTick": 9120,
        "noteNumber": 48,
        "velocity": 96
    },
    {
        "track": 0,
        "absoluteTick": 9240,
        "noteNumber": 60,
        "velocity": 96
    },
    {
        "track": 0,
        "absoluteTick": 9360,
        "noteNumber": 74,
        "velocity": 96
    },
    {
        "track": 0,
        "absoluteTick": 9480,
        "noteNumber": 62,
        "velocity": 96
    },
    {
        "track": 0,
        "absoluteTick": 9600,
        "noteNumber": 72,
        "velocity": 96
    },
    {
        "track": 1,
        "absoluteTick": 9600,
        "noteNumber": 48,
        "velocity": 96
    },
    {
        "track": 0,
        "absoluteTick": 9720,
        "noteNumber": 60,
        "velocity": 96
    },
    {
        "track": 0,
        "absoluteTick": 9840,
        "noteNumber": 70,
        "velocity": 96
    },
    {
        "track": 0,
        "absoluteTick": 9960,
        "noteNumber": 58,
        "velocity": 96
    },
    {
        "track": 0,
        "absoluteTick": 10080,
        "noteNumber": 72,
        "velocity": 96
    },
    {
        "track": 1,
        "absoluteTick": 10080,
        "noteNumber": 48,
        "velocity": 96
    },
    {
        "track": 0,
        "absoluteTick": 10200,
        "noteNumber": 60,
        "velocity": 96
    },
    {
        "track": 0,
        "absoluteTick": 10320,
        "noteNumber": 70,
        "velocity": 96
    },
    {
        "track": 0,
        "absoluteTick": 10440,
        "noteNumber": 58,
        "velocity": 96
    },
    {
        "track": 0,
        "absoluteTick": 10560,
        "noteNumber": 68,
        "velocity": 96
    },
    {
        "track": 1,
        "absoluteTick": 10560,
        "noteNumber": 48,
        "velocity": 96
    },
    {
        "track": 0,
        "absoluteTick": 10680,
        "noteNumber": 56,
        "velocity": 96
    },
    {
        "track": 0,
        "absoluteTick": 10800,
        "noteNumber": 67,
        "velocity": 96
    },
    {
        "track": 0,
        "absoluteTick": 10920,
        "noteNumber": 55,
        "velocity": 96
    },
    {
        "track": 0,
        "absoluteTick": 11040,
        "noteNumber": 65,
        "velocity": 96
    },
    {
        "track": 1,
        "absoluteTick": 11040,
        "noteNumber": 48,
        "velocity": 96
    },
    {
        "track": 0,
        "absoluteTick": 11160,
        "noteNumber": 53,
        "velocity": 96
    },
    {
        "track": 0,
        "absoluteTick": 11280,
        "noteNumber": 63,
        "velocity": 96
    },
    {
        "track": 0,
        "absoluteTick": 11400,
        "noteNumber": 51,
        "velocity": 96
    },
    {
        "track": 0,
        "absoluteTick": 11520,
        "noteNumber": 62,
        "velocity": 96
    },
    {
        "track": 1,
        "absoluteTick": 11520,
        "noteNumber": 38,
        "velocity": 96
    },
    {
        "track": 1,
        "absoluteTick": 11640,
        "noteNumber": 50,
        "velocity": 96
    },
    {
        "track": 1,
        "absoluteTick": 11760,
        "noteNumber": 38,
        "velocity": 96
    },
    {
        "track": 1,
        "absoluteTick": 11880,
        "noteNumber": 50,
        "velocity": 96
    },
    {
        "track": 1,
        "absoluteTick": 12000,
        "noteNumber": 38,
        "velocity": 96
    },
    {
        "track": 1,
        "absoluteTick": 12120,
        "noteNumber": 50,
        "velocity": 96
    },
    {
        "track": 0,
        "absoluteTick": 12240,
        "noteNumber": 57,
        "velocity": 96
    },
    {
        "track": 0,
        "absoluteTick": 12240,
        "noteNumber": 66,
        "velocity": 96
    },
    {
        "track": 1,
        "absoluteTick": 12240,
        "noteNumber": 38,
        "velocity": 96
    },
    {
        "track": 1,
        "absoluteTick": 12360,
        "noteNumber": 50,
        "velocity": 96
    },
    {
        "track": 1,
        "absoluteTick": 12480,
        "noteNumber": 38,
        "velocity": 96
    },
    {
        "track": 1,
        "absoluteTick": 12600,
        "noteNumber": 50,
        "velocity": 96
    },
    {
        "track": 1,
        "absoluteTick": 12720,
        "noteNumber": 38,
        "velocity": 96
    },
    {
        "track": 1,
        "absoluteTick": 12840,
        "noteNumber": 50,
        "velocity": 96
    },
    {
        "track": 0,
        "absoluteTick": 12960,
        "noteNumber": 59,
        "velocity": 96
    },
    {
        "track": 0,
        "absoluteTick": 12960,
        "noteNumber": 67,
        "velocity": 96
    },
    {
        "track": 1,
        "absoluteTick": 12960,
        "noteNumber": 43,
        "velocity": 96
    },
    {
        "track": 1,
        "absoluteTick": 13080,
        "noteNumber": 55,
        "velocity": 96
    },
    {
        "track": 1,
        "absoluteTick": 13200,
        "noteNumber": 43,
        "velocity": 96
    },
    {
        "track": 1,
        "absoluteTick": 13320,
        "noteNumber": 55,
        "velocity": 96
    },
    {
        "track": 1,
        "absoluteTick": 13440,
        "noteNumber": 43,
        "velocity": 96
    },
    {
        "track": 1,
        "absoluteTick": 13560,
        "noteNumber": 55,
        "velocity": 96
    },
    {
        "track": 0,
        "absoluteTick": 13680,
        "noteNumber": 62,
        "velocity": 96
    },
    {
        "track": 0,
        "absoluteTick": 13680,
        "noteNumber": 71,
        "velocity": 96
    },
    {
        "track": 1,
        "absoluteTick": 13680,
        "noteNumber": 43,
        "velocity": 96
    },
    {
        "track": 1,
        "absoluteTick": 13800,
        "noteNumber": 55,
        "velocity": 96
    },
    {
        "track": 1,
        "absoluteTick": 13920,
        "noteNumber": 43,
        "velocity": 96
    },
    {
        "track": 1,
        "absoluteTick": 14040,
        "noteNumber": 55,
        "velocity": 96
    },
    {
        "track": 1,
        "absoluteTick": 14160,
        "noteNumber": 43,
        "velocity": 96
    },
    {
        "track": 0,
        "absoluteTick": 14400,
        "noteNumber": 63,
        "velocity": 80
    },
    {
        "track": 0,
        "absoluteTick": 14400,
        "noteNumber": 72,
        "velocity": 80
    },
    {
        "track": 1,
        "absoluteTick": 14400,
        "noteNumber": 36,
        "velocity": 80
    },
    {
        "track": 1,
        "absoluteTick": 14400,
        "noteNumber": 48,
        "velocity": 80
    },
    {
        "track": 0,
        "absoluteTick": 14640,
        "noteNumber": 68,
        "velocity": 80
    },
    {
        "track": 0,
        "absoluteTick": 14880,
        "noteNumber": 67,
        "velocity": 80
    },
    {
        "track": 0,
        "absoluteTick": 15120,
        "noteNumber": 68,
        "velocity": 80
    },
    {
        "track": 1,
        "absoluteTick": 15120,
        "noteNumber": 36,
        "velocity": 80
    },
    {
        "track": 1,
        "absoluteTick": 15120,
        "noteNumber": 48,
        "velocity": 80
    },
    {
        "track": 0,
        "absoluteTick": 15600,
        "noteNumber": 67,
        "velocity": 80
    },
    {
        "track": 0,
        "absoluteTick": 15840,
        "noteNumber": 65,
        "velocity": 80
    },
    {
        "track": 1,
        "absoluteTick": 15840,
        "noteNumber": 36,
        "velocity": 80
    },
    {
        "track": 1,
        "absoluteTick": 15840,
        "noteNumber": 48,
        "velocity": 80
    },
    {
        "track": 0,
        "absoluteTick": 16320,
        "noteNumber": 68,
        "velocity": 80
    },
    {
        "track": 1,
        "absoluteTick": 16320,
        "noteNumber": 38,
        "velocity": 80
    },
    {
        "track": 1,
        "absoluteTick": 16320,
        "noteNumber": 50,
        "velocity": 80
    },
    {
        "track": 1,
        "absoluteTick": 16560,
        "noteNumber": 39,
        "velocity": 80
    },
    {
        "track": 1,
        "absoluteTick": 16560,
        "noteNumber": 51,
        "velocity": 80
    },
    {
        "track": 0,
        "absoluteTick": 16800,
        "noteNumber": 67,
        "velocity": 80
    },
    {
        "track": 1,
        "absoluteTick": 16800,
        "noteNumber": 38,
        "velocity": 80
    },
    {
        "track": 1,
        "absoluteTick": 16800,
        "noteNumber": 50,
        "velocity": 80
    },
    {
        "track": 1,
        "absoluteTick": 17040,
        "noteNumber": 43,
        "velocity": 80
    },
    {
        "track": 1,
        "absoluteTick": 17040,
        "noteNumber": 55,
        "velocity": 80
    },
    {
        "track": 0,
        "absoluteTick": 17280,
        "noteNumber": 63,
        "velocity": 80
    },
    {
        "track": 0,
        "absoluteTick": 17280,
        "noteNumber": 72,
        "velocity": 80
    },
    {
        "track": 1,
        "absoluteTick": 17280,
        "noteNumber": 36,
        "velocity": 80
    },
    {
        "track": 1,
        "absoluteTick": 17280,
        "noteNumber": 48,
        "velocity": 80
    },
    {
        "track": 0,
        "absoluteTick": 17520,
        "noteNumber": 67,
        "velocity": 80
    },
    {
        "track": 0,
        "absoluteTick": 17760,
        "noteNumber": 71,
        "velocity": 80
    },
    {
        "track": 0,
        "absoluteTick": 18000,
        "noteNumber": 72,
        "velocity": 80
    },
    {
        "track": 1,
        "absoluteTick": 18000,
        "noteNumber": 36,
        "velocity": 80
    },
    {
        "track": 1,
        "absoluteTick": 18000,
        "noteNumber": 48,
        "velocity": 80
    },
    {
        "track": 0,
        "absoluteTick": 18480,
        "noteNumber": 74,
        "velocity": 80
    },
    {
        "track": 0,
        "absoluteTick": 18720,
        "noteNumber": 75,
        "velocity": 80
    },
    {
        "track": 1,
        "absoluteTick": 18720,
        "noteNumber": 36,
        "velocity": 80
    },
    {
        "track": 1,
        "absoluteTick": 18720,
        "noteNumber": 48,
        "velocity": 80
    },
    {
        "track": 0,
        "absoluteTick": 19200,
        "noteNumber": 74,
        "velocity": 80
    },
    {
        "track": 1,
        "absoluteTick": 19200,
        "noteNumber": 43,
        "velocity": 80
    },
    {
        "track": 1,
        "absoluteTick": 19200,
        "noteNumber": 55,
        "velocity": 80
    },
    {
        "track": 1,
        "absoluteTick": 19440,
        "noteNumber": 36,
        "velocity": 80
    },
    {
        "track": 1,
        "absoluteTick": 19440,
        "noteNumber": 48,
        "velocity": 80
    },
    {
        "track": 0,
        "absoluteTick": 19680,
        "noteNumber": 71,
        "velocity": 80
    },
    {
        "track": 1,
        "absoluteTick": 19680,
        "noteNumber": 38,
        "velocity": 80
    },
    {
        "track": 1,
        "absoluteTick": 19680,
        "noteNumber": 50,
        "velocity": 80
    },
    {
        "track": 1,
        "absoluteTick": 19920,
        "noteNumber": 43,
        "velocity": 80
    },
    {
        "track": 1,
        "absoluteTick": 19920,
        "noteNumber": 55,
        "velocity": 80
    },
    {
        "track": 0,
        "absoluteTick": 20160,
        "noteNumber": 72,
        "velocity": 80
    },
    {
        "track": 1,
        "absoluteTick": 20160,
        "noteNumber": 41,
        "velocity": 80
    },
    {
        "track": 1,
        "absoluteTick": 20160,
        "noteNumber": 53,
        "velocity": 80
    },
    {
        "track": 0,
        "absoluteTick": 20400,
        "noteNumber": 68,
        "velocity": 80
    },
    {
        "track": 1,
        "absoluteTick": 20400,
        "noteNumber": 41,
        "velocity": 80
    },
    {
        "track": 1,
        "absoluteTick": 20400,
        "noteNumber": 53,
        "velocity": 80
    },
    {
        "track": 0,
        "absoluteTick": 20640,
        "noteNumber": 72,
        "velocity": 80
    },
    {
        "track": 1,
        "absoluteTick": 20640,
        "noteNumber": 41,
        "velocity": 80
    },
    {
        "track": 1,
        "absoluteTick": 20640,
        "noteNumber": 53,
        "velocity": 80
    },
    {
        "track": 0,
        "absoluteTick": 20880,
        "noteNumber": 74,
        "velocity": 80
    },
    {
        "track": 1,
        "absoluteTick": 20880,
        "noteNumber": 41,
        "velocity": 80
    },
    {
        "track": 1,
        "absoluteTick": 20880,
        "noteNumber": 53,
        "velocity": 80
    },
    {
        "track": 0,
        "absoluteTick": 21120,
        "noteNumber": 75,
        "velocity": 80
    },
    {
        "track": 1,
        "absoluteTick": 21120,
        "noteNumber": 41,
        "velocity": 80
    },
    {
        "track": 1,
        "absoluteTick": 21120,
        "noteNumber": 53,
        "velocity": 80
    },
    {
        "track": 0,
        "absoluteTick": 21360,
        "noteNumber": 79,
        "velocity": 80
    },
    {
        "track": 1,
        "absoluteTick": 21360,
        "noteNumber": 41,
        "velocity": 80
    },
    {
        "track": 1,
        "absoluteTick": 21360,
        "noteNumber": 53,
        "velocity": 80
    },
    {
        "track": 0,
        "absoluteTick": 21600,
        "noteNumber": 72,
        "velocity": 80
    },
    {
        "track": 1,
        "absoluteTick": 21600,
        "noteNumber": 39,
        "velocity": 80
    },
    {
        "track": 1,
        "absoluteTick": 21600,
        "noteNumber": 51,
        "velocity": 80
    },
    {
        "track": 0,
        "absoluteTick": 21840,
        "noteNumber": 67,
        "velocity": 80
    },
    {
        "track": 1,
        "absoluteTick": 21840,
        "noteNumber": 39,
        "velocity": 80
    },
    {
        "track": 1,
        "absoluteTick": 21840,
        "noteNumber": 51,
        "velocity": 80
    },
    {
        "track": 0,
        "absoluteTick": 22080,
        "noteNumber": 72,
        "velocity": 80
    },
    {
        "track": 1,
        "absoluteTick": 22080,
        "noteNumber": 39,
        "velocity": 80
    },
    {
        "track": 1,
        "absoluteTick": 22080,
        "noteNumber": 51,
        "velocity": 80
    },
    {
        "track": 0,
        "absoluteTick": 22320,
        "noteNumber": 74,
        "velocity": 80
    },
    {
        "track": 1,
        "absoluteTick": 22320,
        "noteNumber": 39,
        "velocity": 80
    },
    {
        "track": 1,
        "absoluteTick": 22320,
        "noteNumber": 51,
        "velocity": 80
    },
    {
        "track": 0,
        "absoluteTick": 22560,
        "noteNumber": 75,
        "velocity": 80
    },
    {
        "track": 1,
        "absoluteTick": 22560,
        "noteNumber": 39,
        "velocity": 80
    },
    {
        "track": 1,
        "absoluteTick": 22560,
        "noteNumber": 51,
        "velocity": 80
    },
    {
        "track": 0,
        "absoluteTick": 22800,
        "noteNumber": 79,
        "velocity": 80
    },
    {
        "track": 1,
        "absoluteTick": 22800,
        "noteNumber": 39,
        "velocity": 80
    },
    {
        "track": 1,
        "absoluteTick": 22800,
        "noteNumber": 51,
        "velocity": 80
    },
    {
        "track": 0,
        "absoluteTick": 23040,
        "noteNumber": 71,
        "velocity": 80
    },
    {
        "track": 1,
        "absoluteTick": 23040,
        "noteNumber": 38,
        "velocity": 80
    },
    {
        "track": 1,
        "absoluteTick": 23040,
        "noteNumber": 50,
        "velocity": 80
    },
    {
        "track": 0,
        "absoluteTick": 23280,
        "noteNumber": 67,
        "velocity": 80
    },
    {
        "track": 1,
        "absoluteTick": 23280,
        "noteNumber": 38,
        "velocity": 80
    },
    {
        "track": 1,
        "absoluteTick": 23280,
        "noteNumber": 50,
        "velocity": 80
    },
    {
        "track": 0,
        "absoluteTick": 23520,
        "noteNumber": 71,
        "velocity": 80
    },
    {
        "track": 1,
        "absoluteTick": 23520,
        "noteNumber": 38,
        "velocity": 80
    },
    {
        "track": 1,
        "absoluteTick": 23520,
        "noteNumber": 50,
        "velocity": 80
    },
    {
        "track": 0,
        "absoluteTick": 23760,
        "noteNumber": 72,
        "velocity": 80
    },
    {
        "track": 1,
        "absoluteTick": 23760,
        "noteNumber": 38,
        "velocity": 80
    },
    {
        "track": 1,
        "absoluteTick": 23760,
        "noteNumber": 50,
        "velocity": 80
    },
    {
        "track": 0,
        "absoluteTick": 24000,
        "noteNumber": 74,
        "velocity": 80
    },
    {
        "track": 1,
        "absoluteTick": 24000,
        "noteNumber": 38,
        "velocity": 80
    },
    {
        "track": 1,
        "absoluteTick": 24000,
        "noteNumber": 50,
        "velocity": 80
    },
    {
        "track": 0,
        "absoluteTick": 24240,
        "noteNumber": 77,
        "velocity": 80
    },
    {
        "track": 1,
        "absoluteTick": 24240,
        "noteNumber": 38,
        "velocity": 80
    },
    {
        "track": 1,
        "absoluteTick": 24240,
        "noteNumber": 50,
        "velocity": 80
    },
    {
        "track": 0,
        "absoluteTick": 24480,
        "noteNumber": 79,
        "velocity": 80
    },
    {
        "track": 1,
        "absoluteTick": 24480,
        "noteNumber": 44,
        "velocity": 80
    },
    {
        "track": 1,
        "absoluteTick": 24480,
        "noteNumber": 56,
        "velocity": 80
    },
    {
        "track": 1,
        "absoluteTick": 24720,
        "noteNumber": 43,
        "velocity": 80
    },
    {
        "track": 1,
        "absoluteTick": 24720,
        "noteNumber": 55,
        "velocity": 80
    },
    {
        "track": 1,
        "absoluteTick": 24960,
        "noteNumber": 41,
        "velocity": 80
    },
    {
        "track": 1,
        "absoluteTick": 24960,
        "noteNumber": 53,
        "velocity": 80
    },
    {
        "track": 0,
        "absoluteTick": 25200,
        "noteNumber": 71,
        "velocity": 80
    },
    {
        "track": 1,
        "absoluteTick": 25200,
        "noteNumber": 43,
        "velocity": 80
    },
    {
        "track": 1,
        "absoluteTick": 25200,
        "noteNumber": 55,
        "velocity": 80
    },
    {
        "track": 1,
        "absoluteTick": 25440,
        "noteNumber": 39,
        "velocity": 80
    },
    {
        "track": 1,
        "absoluteTick": 25440,
        "noteNumber": 51,
        "velocity": 80
    },
    {
        "track": 1,
        "absoluteTick": 25680,
        "noteNumber": 38,
        "velocity": 80
    },
    {
        "track": 1,
        "absoluteTick": 25680,
        "noteNumber": 50,
        "velocity": 80
    },
    {
        "track": 0,
        "absoluteTick": 25920,
        "noteNumber": 63,
        "velocity": 80
    },
    {
        "track": 0,
        "absoluteTick": 25920,
        "noteNumber": 72,
        "velocity": 80
    },
    {
        "track": 1,
        "absoluteTick": 25920,
        "noteNumber": 36,
        "velocity": 80
    },
    {
        "track": 1,
        "absoluteTick": 25920,
        "noteNumber": 48,
        "velocity": 80
    },
    {
        "track": 0,
        "absoluteTick": 26160,
        "noteNumber": 68,
        "velocity": 80
    },
    {
        "track": 0,
        "absoluteTick": 26400,
        "noteNumber": 67,
        "velocity": 80
    },
    {
        "track": 0,
        "absoluteTick": 26640,
        "noteNumber": 68,
        "velocity": 80
    },
    {
        "track": 1,
        "absoluteTick": 26640,
        "noteNumber": 36,
        "velocity": 80
    },
    {
        "track": 1,
        "absoluteTick": 26640,
        "noteNumber": 48,
        "velocity": 80
    },
    {
        "track": 0,
        "absoluteTick": 27120,
        "noteNumber": 67,
        "velocity": 80
    },
    {
        "track": 0,
        "absoluteTick": 27360,
        "noteNumber": 65,
        "velocity": 80
    },
    {
        "track": 1,
        "absoluteTick": 27360,
        "noteNumber": 36,
        "velocity": 80
    },
    {
        "track": 1,
        "absoluteTick": 27360,
        "noteNumber": 48,
        "velocity": 80
    },
    {
        "track": 0,
        "absoluteTick": 27840,
        "noteNumber": 68,
        "velocity": 80
    },
    {
        "track": 1,
        "absoluteTick": 27840,
        "noteNumber": 38,
        "velocity": 80
    },
    {
        "track": 1,
        "absoluteTick": 27840,
        "noteNumber": 50,
        "velocity": 80
    },
    {
        "track": 1,
        "absoluteTick": 28080,
        "noteNumber": 39,
        "velocity": 80
    },
    {
        "track": 1,
        "absoluteTick": 28080,
        "noteNumber": 51,
        "velocity": 80
    },
    {
        "track": 0,
        "absoluteTick": 28320,
        "noteNumber": 67,
        "velocity": 80
    },
    {
        "track": 1,
        "absoluteTick": 28320,
        "noteNumber": 38,
        "velocity": 80
    },
    {
        "track": 1,
        "absoluteTick": 28320,
        "noteNumber": 50,
        "velocity": 80
    },
    {
        "track": 1,
        "absoluteTick": 28560,
        "noteNumber": 43,
        "velocity": 80
    },
    {
        "track": 1,
        "absoluteTick": 28560,
        "noteNumber": 55,
        "velocity": 80
    },
    {
        "track": 0,
        "absoluteTick": 28800,
        "noteNumber": 63,
        "velocity": 80
    },
    {
        "track": 0,
        "absoluteTick": 28800,
        "noteNumber": 72,
        "velocity": 80
    },
    {
        "track": 1,
        "absoluteTick": 28800,
        "noteNumber": 36,
        "velocity": 96
    },
    {
        "track": 1,
        "absoluteTick": 28800,
        "noteNumber": 48,
        "velocity": 96
    },
    {
        "track": 0,
        "absoluteTick": 29040,
        "noteNumber": 67,
        "velocity": 80
    },
    {
        "track": 0,
        "absoluteTick": 29280,
        "noteNumber": 71,
        "velocity": 80
    },
    {
        "track": 1,
        "absoluteTick": 29280,
        "noteNumber": 38,
        "velocity": 96
    },
    {
        "track": 1,
        "absoluteTick": 29280,
        "noteNumber": 50,
        "velocity": 96
    },
    {
        "track": 0,
        "absoluteTick": 29520,
        "noteNumber": 72,
        "velocity": 80
    },
    {
        "track": 1,
        "absoluteTick": 29760,
        "noteNumber": 39,
        "velocity": 96
    },
    {
        "track": 1,
        "absoluteTick": 29760,
        "noteNumber": 51,
        "velocity": 96
    },
    {
        "track": 0,
        "absoluteTick": 30000,
        "noteNumber": 74,
        "velocity": 80
    },
    {
        "track": 0,
        "absoluteTick": 30240,
        "noteNumber": 75,
        "velocity": 96
    },
    {
        "track": 1,
        "absoluteTick": 30240,
        "noteNumber": 39,
        "velocity": 96
    },
    {
        "track": 1,
        "absoluteTick": 30240,
        "noteNumber": 51,
        "velocity": 96
    },
    {
        "track": 0,
        "absoluteTick": 30720,
        "noteNumber": 74,
        "velocity": 96
    },
    {
        "track": 1,
        "absoluteTick": 30720,
        "noteNumber": 41,
        "velocity": 96
    },
    {
        "track": 1,
        "absoluteTick": 30720,
        "noteNumber": 53,
        "velocity": 96
    },
    {
        "track": 0,
        "absoluteTick": 31200,
        "noteNumber": 71,
        "velocity": 96
    },
    {
        "track": 1,
        "absoluteTick": 31200,
        "noteNumber": 43,
        "velocity": 96
    },
    {
        "track": 1,
        "absoluteTick": 31200,
        "noteNumber": 55,
        "velocity": 96
    },
    {
        "track": 0,
        "absoluteTick": 31680,
        "noteNumber": 72,
        "velocity": 96
    },
    {
        "track": 1,
        "absoluteTick": 31680,
        "noteNumber": 41,
        "velocity": 96
    },
    {
        "track": 1,
        "absoluteTick": 31680,
        "noteNumber": 53,
        "velocity": 96
    },
    {
        "track": 0,
        "absoluteTick": 31920,
        "noteNumber": 68,
        "velocity": 80
    },
    {
        "track": 1,
        "absoluteTick": 31920,
        "noteNumber": 41,
        "velocity": 80
    },
    {
        "track": 1,
        "absoluteTick": 31920,
        "noteNumber": 53,
        "velocity": 80
    },
    {
        "track": 0,
        "absoluteTick": 32160,
        "noteNumber": 72,
        "velocity": 80
    },
    {
        "track": 1,
        "absoluteTick": 32160,
        "noteNumber": 41,
        "velocity": 80
    },
    {
        "track": 1,
        "absoluteTick": 32160,
        "noteNumber": 53,
        "velocity": 80
    },
    {
        "track": 0,
        "absoluteTick": 32400,
        "noteNumber": 74,
        "velocity": 80
    },
    {
        "track": 1,
        "absoluteTick": 32400,
        "noteNumber": 41,
        "velocity": 80
    },
    {
        "track": 1,
        "absoluteTick": 32400,
        "noteNumber": 53,
        "velocity": 80
    },
    {
        "track": 0,
        "absoluteTick": 32640,
        "noteNumber": 75,
        "velocity": 80
    },
    {
        "track": 1,
        "absoluteTick": 32640,
        "noteNumber": 41,
        "velocity": 80
    },
    {
        "track": 1,
        "absoluteTick": 32640,
        "noteNumber": 53,
        "velocity": 80
    },
    {
        "track": 0,
        "absoluteTick": 32880,
        "noteNumber": 79,
        "velocity": 80
    },
    {
        "track": 1,
        "absoluteTick": 32880,
        "noteNumber": 41,
        "velocity": 80
    },
    {
        "track": 1,
        "absoluteTick": 32880,
        "noteNumber": 53,
        "velocity": 80
    },
    {
        "track": 0,
        "absoluteTick": 33120,
        "noteNumber": 72,
        "velocity": 96
    },
    {
        "track": 1,
        "absoluteTick": 33120,
        "noteNumber": 39,
        "velocity": 96
    },
    {
        "track": 1,
        "absoluteTick": 33120,
        "noteNumber": 51,
        "velocity": 96
    },
    {
        "track": 0,
        "absoluteTick": 33360,
        "noteNumber": 67,
        "velocity": 80
    },
    {
        "track": 1,
        "absoluteTick": 33360,
        "noteNumber": 39,
        "velocity": 80
    },
    {
        "track": 1,
        "absoluteTick": 33360,
        "noteNumber": 51,
        "velocity": 80
    },
    {
        "track": 0,
        "absoluteTick": 33600,
        "noteNumber": 72,
        "velocity": 80
    },
    {
        "track": 1,
        "absoluteTick": 33600,
        "noteNumber": 39,
        "velocity": 80
    },
    {
        "track": 1,
        "absoluteTick": 33600,
        "noteNumber": 51,
        "velocity": 80
    },
    {
        "track": 0,
        "absoluteTick": 33840,
        "noteNumber": 74,
        "velocity": 80
    },
    {
        "track": 1,
        "absoluteTick": 33840,
        "noteNumber": 39,
        "velocity": 80
    },
    {
        "track": 1,
        "absoluteTick": 33840,
        "noteNumber": 51,
        "velocity": 80
    },
    {
        "track": 0,
        "absoluteTick": 34080,
        "noteNumber": 75,
        "velocity": 80
    },
    {
        "track": 1,
        "absoluteTick": 34080,
        "noteNumber": 39,
        "velocity": 80
    },
    {
        "track": 1,
        "absoluteTick": 34080,
        "noteNumber": 51,
        "velocity": 80
    },
    {
        "track": 0,
        "absoluteTick": 34320,
        "noteNumber": 79,
        "velocity": 80
    },
    {
        "track": 1,
        "absoluteTick": 34320,
        "noteNumber": 39,
        "velocity": 80
    },
    {
        "track": 1,
        "absoluteTick": 34320,
        "noteNumber": 51,
        "velocity": 80
    },
    {
        "track": 0,
        "absoluteTick": 34560,
        "noteNumber": 71,
        "velocity": 96
    },
    {
        "track": 1,
        "absoluteTick": 34560,
        "noteNumber": 38,
        "velocity": 96
    },
    {
        "track": 1,
        "absoluteTick": 34560,
        "noteNumber": 50,
        "velocity": 96
    },
    {
        "track": 0,
        "absoluteTick": 34800,
        "noteNumber": 67,
        "velocity": 80
    },
    {
        "track": 1,
        "absoluteTick": 34800,
        "noteNumber": 38,
        "velocity": 80
    },
    {
        "track": 1,
        "absoluteTick": 34800,
        "noteNumber": 50,
        "velocity": 80
    },
    {
        "track": 0,
        "absoluteTick": 35040,
        "noteNumber": 71,
        "velocity": 80
    },
    {
        "track": 1,
        "absoluteTick": 35040,
        "noteNumber": 38,
        "velocity": 80
    },
    {
        "track": 1,
        "absoluteTick": 35040,
        "noteNumber": 50,
        "velocity": 80
    },
    {
        "track": 0,
        "absoluteTick": 35280,
        "noteNumber": 72,
        "velocity": 80
    },
    {
        "track": 1,
        "absoluteTick": 35280,
        "noteNumber": 38,
        "velocity": 80
    },
    {
        "track": 1,
        "absoluteTick": 35280,
        "noteNumber": 50,
        "velocity": 80
    },
    {
        "track": 0,
        "absoluteTick": 35520,
        "noteNumber": 74,
        "velocity": 80
    },
    {
        "track": 1,
        "absoluteTick": 35520,
        "noteNumber": 38,
        "velocity": 80
    },
    {
        "track": 1,
        "absoluteTick": 35520,
        "noteNumber": 50,
        "velocity": 80
    },
    {
        "track": 0,
        "absoluteTick": 35760,
        "noteNumber": 77,
        "velocity": 80
    },
    {
        "track": 1,
        "absoluteTick": 35760,
        "noteNumber": 38,
        "velocity": 80
    },
    {
        "track": 1,
        "absoluteTick": 35760,
        "noteNumber": 50,
        "velocity": 80
    },
    {
        "track": 0,
        "absoluteTick": 36000,
        "noteNumber": 72,
        "velocity": 96
    },
    {
        "track": 1,
        "absoluteTick": 36000,
        "noteNumber": 36,
        "velocity": 96
    },
    {
        "track": 1,
        "absoluteTick": 36000,
        "noteNumber": 48,
        "velocity": 96
    },
    {
        "track": 0,
        "absoluteTick": 36240,
        "noteNumber": 68,
        "velocity": 80
    },
    {
        "track": 1,
        "absoluteTick": 36240,
        "noteNumber": 36,
        "velocity": 80
    },
    {
        "track": 1,
        "absoluteTick": 36240,
        "noteNumber": 48,
        "velocity": 80
    },
    {
        "track": 0,
        "absoluteTick": 36480,
        "noteNumber": 72,
        "velocity": 80
    },
    {
        "track": 1,
        "absoluteTick": 36480,
        "noteNumber": 36,
        "velocity": 80
    },
    {
        "track": 1,
        "absoluteTick": 36480,
        "noteNumber": 48,
        "velocity": 80
    },
    {
        "track": 0,
        "absoluteTick": 36720,
        "noteNumber": 74,
        "velocity": 80
    },
    {
        "track": 1,
        "absoluteTick": 36720,
        "noteNumber": 36,
        "velocity": 80
    },
    {
        "track": 1,
        "absoluteTick": 36720,
        "noteNumber": 48,
        "velocity": 80
    },
    {
        "track": 0,
        "absoluteTick": 36960,
        "noteNumber": 75,
        "velocity": 80
    },
    {
        "track": 1,
        "absoluteTick": 36960,
        "noteNumber": 36,
        "velocity": 80
    },
    {
        "track": 1,
        "absoluteTick": 36960,
        "noteNumber": 48,
        "velocity": 80
    },
    {
        "track": 0,
        "absoluteTick": 37200,
        "noteNumber": 79,
        "velocity": 80
    },
    {
        "track": 1,
        "absoluteTick": 37200,
        "noteNumber": 36,
        "velocity": 80
    },
    {
        "track": 1,
        "absoluteTick": 37200,
        "noteNumber": 48,
        "velocity": 80
    },
    {
        "track": 0,
        "absoluteTick": 37440,
        "noteNumber": 71,
        "velocity": 96
    },
    {
        "track": 1,
        "absoluteTick": 37440,
        "noteNumber": 35,
        "velocity": 96
    },
    {
        "track": 1,
        "absoluteTick": 37440,
        "noteNumber": 47,
        "velocity": 96
    },
    {
        "track": 0,
        "absoluteTick": 37680,
        "noteNumber": 67,
        "velocity": 80
    },
    {
        "track": 1,
        "absoluteTick": 37680,
        "noteNumber": 35,
        "velocity": 80
    },
    {
        "track": 1,
        "absoluteTick": 37680,
        "noteNumber": 47,
        "velocity": 80
    },
    {
        "track": 0,
        "absoluteTick": 37920,
        "noteNumber": 71,
        "velocity": 80
    },
    {
        "track": 1,
        "absoluteTick": 37920,
        "noteNumber": 35,
        "velocity": 80
    },
    {
        "track": 1,
        "absoluteTick": 37920,
        "noteNumber": 47,
        "velocity": 80
    },
    {
        "track": 0,
        "absoluteTick": 38160,
        "noteNumber": 72,
        "velocity": 80
    },
    {
        "track": 1,
        "absoluteTick": 38160,
        "noteNumber": 35,
        "velocity": 80
    },
    {
        "track": 1,
        "absoluteTick": 38160,
        "noteNumber": 47,
        "velocity": 80
    },
    {
        "track": 0,
        "absoluteTick": 38400,
        "noteNumber": 74,
        "velocity": 80
    },
    {
        "track": 1,
        "absoluteTick": 38400,
        "noteNumber": 35,
        "velocity": 80
    },
    {
        "track": 1,
        "absoluteTick": 38400,
        "noteNumber": 47,
        "velocity": 80
    },
    {
        "track": 0,
        "absoluteTick": 38640,
        "noteNumber": 77,
        "velocity": 80
    },
    {
        "track": 1,
        "absoluteTick": 38640,
        "noteNumber": 35,
        "velocity": 80
    },
    {
        "track": 1,
        "absoluteTick": 38640,
        "noteNumber": 47,
        "velocity": 80
    },
    {
        "track": 0,
        "absoluteTick": 38880,
        "noteNumber": 68,
        "velocity": 96
    },
    {
        "track": 1,
        "absoluteTick": 38880,
        "noteNumber": 44,
        "velocity": 96
    },
    {
        "track": 1,
        "absoluteTick": 38880,
        "noteNumber": 56,
        "velocity": 96
    },
    {
        "track": 0,
        "absoluteTick": 39120,
        "noteNumber": 65,
        "velocity": 80
    },
    {
        "track": 1,
        "absoluteTick": 39120,
        "noteNumber": 44,
        "velocity": 80
    },
    {
        "track": 1,
        "absoluteTick": 39120,
        "noteNumber": 56,
        "velocity": 80
    },
    {
        "track": 0,
        "absoluteTick": 39360,
        "noteNumber": 68,
        "velocity": 80
    },
    {
        "track": 1,
        "absoluteTick": 39360,
        "noteNumber": 44,
        "velocity": 80
    },
    {
        "track": 1,
        "absoluteTick": 39360,
        "noteNumber": 56,
        "velocity": 80
    },
    {
        "track": 0,
        "absoluteTick": 39600,
        "noteNumber": 71,
        "velocity": 80
    },
    {
        "track": 1,
        "absoluteTick": 39600,
        "noteNumber": 44,
        "velocity": 80
    },
    {
        "track": 1,
        "absoluteTick": 39600,
        "noteNumber": 56,
        "velocity": 80
    },
    {
        "track": 0,
        "absoluteTick": 39840,
        "noteNumber": 72,
        "velocity": 80
    },
    {
        "track": 1,
        "absoluteTick": 39840,
        "noteNumber": 44,
        "velocity": 80
    },
    {
        "track": 1,
        "absoluteTick": 39840,
        "noteNumber": 56,
        "velocity": 80
    },
    {
        "track": 0,
        "absoluteTick": 40080,
        "noteNumber": 77,
        "velocity": 80
    },
    {
        "track": 1,
        "absoluteTick": 40080,
        "noteNumber": 44,
        "velocity": 80
    },
    {
        "track": 1,
        "absoluteTick": 40080,
        "noteNumber": 56,
        "velocity": 80
    },
    {
        "track": 0,
        "absoluteTick": 40320,
        "noteNumber": 67,
        "velocity": 96
    },
    {
        "track": 1,
        "absoluteTick": 40320,
        "noteNumber": 43,
        "velocity": 96
    },
    {
        "track": 1,
        "absoluteTick": 40320,
        "noteNumber": 55,
        "velocity": 96
    },
    {
        "track": 0,
        "absoluteTick": 40560,
        "noteNumber": 63,
        "velocity": 80
    },
    {
        "track": 1,
        "absoluteTick": 40560,
        "noteNumber": 43,
        "velocity": 80
    },
    {
        "track": 1,
        "absoluteTick": 40560,
        "noteNumber": 55,
        "velocity": 80
    },
    {
        "track": 0,
        "absoluteTick": 40800,
        "noteNumber": 67,
        "velocity": 80
    },
    {
        "track": 1,
        "absoluteTick": 40800,
        "noteNumber": 43,
        "velocity": 80
    },
    {
        "track": 1,
        "absoluteTick": 40800,
        "noteNumber": 55,
        "velocity": 80
    },
    {
        "track": 0,
        "absoluteTick": 41040,
        "noteNumber": 71,
        "velocity": 80
    },
    {
        "track": 1,
        "absoluteTick": 41040,
        "noteNumber": 43,
        "velocity": 80
    },
    {
        "track": 1,
        "absoluteTick": 41040,
        "noteNumber": 55,
        "velocity": 80
    },
    {
        "track": 0,
        "absoluteTick": 41280,
        "noteNumber": 72,
        "velocity": 80
    },
    {
        "track": 1,
        "absoluteTick": 41280,
        "noteNumber": 43,
        "velocity": 80
    },
    {
        "track": 1,
        "absoluteTick": 41280,
        "noteNumber": 55,
        "velocity": 80
    },
    {
        "track": 0,
        "absoluteTick": 41520,
        "noteNumber": 75,
        "velocity": 80
    },
    {
        "track": 1,
        "absoluteTick": 41520,
        "noteNumber": 43,
        "velocity": 80
    },
    {
        "track": 1,
        "absoluteTick": 41520,
        "noteNumber": 55,
        "velocity": 80
    },
    {
        "track": 0,
        "absoluteTick": 41760,
        "noteNumber": 66,
        "velocity": 96
    },
    {
        "track": 1,
        "absoluteTick": 41760,
        "noteNumber": 42,
        "velocity": 96
    },
    {
        "track": 1,
        "absoluteTick": 41760,
        "noteNumber": 54,
        "velocity": 96
    },
    {
        "track": 0,
        "absoluteTick": 42000,
        "noteNumber": 62,
        "velocity": 80
    },
    {
        "track": 1,
        "absoluteTick": 42000,
        "noteNumber": 42,
        "velocity": 80
    },
    {
        "track": 1,
        "absoluteTick": 42000,
        "noteNumber": 54,
        "velocity": 80
    },
    {
        "track": 0,
        "absoluteTick": 42240,
        "noteNumber": 66,
        "velocity": 80
    },
    {
        "track": 1,
        "absoluteTick": 42240,
        "noteNumber": 42,
        "velocity": 80
    },
    {
        "track": 1,
        "absoluteTick": 42240,
        "noteNumber": 54,
        "velocity": 80
    },
    {
        "track": 0,
        "absoluteTick": 42480,
        "noteNumber": 69,
        "velocity": 80
    },
    {
        "track": 1,
        "absoluteTick": 42480,
        "noteNumber": 42,
        "velocity": 80
    },
    {
        "track": 1,
        "absoluteTick": 42480,
        "noteNumber": 54,
        "velocity": 80
    },
    {
        "track": 0,
        "absoluteTick": 42720,
        "noteNumber": 72,
        "velocity": 80
    },
    {
        "track": 1,
        "absoluteTick": 42720,
        "noteNumber": 42,
        "velocity": 80
    },
    {
        "track": 1,
        "absoluteTick": 42720,
        "noteNumber": 54,
        "velocity": 80
    },
    {
        "track": 0,
        "absoluteTick": 42960,
        "noteNumber": 75,
        "velocity": 80
    },
    {
        "track": 1,
        "absoluteTick": 42960,
        "noteNumber": 42,
        "velocity": 80
    },
    {
        "track": 1,
        "absoluteTick": 42960,
        "noteNumber": 54,
        "velocity": 80
    },
    {
        "track": 0,
        "absoluteTick": 43200,
        "noteNumber": 74,
        "velocity": 96
    },
    {
        "track": 1,
        "absoluteTick": 43200,
        "noteNumber": 42,
        "velocity": 96
    },
    {
        "track": 1,
        "absoluteTick": 43200,
        "noteNumber": 54,
        "velocity": 96
    },
    {
        "track": 0,
        "absoluteTick": 43440,
        "noteNumber": 69,
        "velocity": 80
    },
    {
        "track": 1,
        "absoluteTick": 43440,
        "noteNumber": 42,
        "velocity": 80
    },
    {
        "track": 1,
        "absoluteTick": 43440,
        "noteNumber": 54,
        "velocity": 80
    },
    {
        "track": 0,
        "absoluteTick": 43680,
        "noteNumber": 74,
        "velocity": 80
    },
    {
        "track": 1,
        "absoluteTick": 43680,
        "noteNumber": 42,
        "velocity": 80
    },
    {
        "track": 1,
        "absoluteTick": 43680,
        "noteNumber": 54,
        "velocity": 80
    },
    {
        "track": 0,
        "absoluteTick": 43920,
        "noteNumber": 76,
        "velocity": 80
    },
    {
        "track": 1,
        "absoluteTick": 43920,
        "noteNumber": 42,
        "velocity": 80
    },
    {
        "track": 1,
        "absoluteTick": 43920,
        "noteNumber": 54,
        "velocity": 80
    },
    {
        "track": 0,
        "absoluteTick": 44160,
        "noteNumber": 78,
        "velocity": 80
    },
    {
        "track": 1,
        "absoluteTick": 44160,
        "noteNumber": 42,
        "velocity": 80
    },
    {
        "track": 1,
        "absoluteTick": 44160,
        "noteNumber": 54,
        "velocity": 80
    },
    {
        "track": 0,
        "absoluteTick": 44400,
        "noteNumber": 81,
        "velocity": 80
    },
    {
        "track": 1,
        "absoluteTick": 44400,
        "noteNumber": 42,
        "velocity": 80
    },
    {
        "track": 1,
        "absoluteTick": 44400,
        "noteNumber": 54,
        "velocity": 80
    },
    {
        "track": 0,
        "absoluteTick": 44640,
        "noteNumber": 67,
        "velocity": 80
    },
    {
        "track": 0,
        "absoluteTick": 44640,
        "noteNumber": 79,
        "velocity": 80
    },
    {
        "track": 1,
        "absoluteTick": 44640,
        "noteNumber": 43,
        "velocity": 80
    },
    {
        "track": 1,
        "absoluteTick": 44640,
        "noteNumber": 55,
        "velocity": 80
    },
    {
        "track": 0,
        "absoluteTick": 44880,
        "noteNumber": 67,
        "velocity": 80
    },
    {
        "track": 0,
        "absoluteTick": 44880,
        "noteNumber": 79,
        "velocity": 80
    },
    {
        "track": 1,
        "absoluteTick": 44880,
        "noteNumber": 65,
        "velocity": 80
    },
    {
        "track": 0,
        "absoluteTick": 45120,
        "noteNumber": 79,
        "velocity": 80
    },
    {
        "track": 1,
        "absoluteTick": 45120,
        "noteNumber": 62,
        "velocity": 80
    },
    {
        "track": 0,
        "absoluteTick": 45240,
        "noteNumber": 79,
        "velocity": 80
    },
    {
        "track": 0,
        "absoluteTick": 45360,
        "noteNumber": 80,
        "velocity": 80
    },
    {
        "track": 1,
        "absoluteTick": 45360,
        "noteNumber": 59,
        "velocity": 80
    },
    {
        "track": 0,
        "absoluteTick": 45480,
        "noteNumber": 79,
        "velocity": 80
    },
    {
        "track": 0,
        "absoluteTick": 45600,
        "noteNumber": 79,
        "velocity": 80
    },
    {
        "track": 1,
        "absoluteTick": 45600,
        "noteNumber": 60,
        "velocity": 80
    },
    {
        "track": 0,
        "absoluteTick": 45840,
        "noteNumber": 79,
        "velocity": 80
    },
    {
        "track": 1,
        "absoluteTick": 45840,
        "noteNumber": 59,
        "velocity": 80
    },
    {
        "track": 0,
        "absoluteTick": 45960,
        "noteNumber": 79,
        "velocity": 80
    },
    {
        "track": 0,
        "absoluteTick": 46080,
        "noteNumber": 80,
        "velocity": 80
    },
    {
        "track": 1,
        "absoluteTick": 46080,
        "noteNumber": 55,
        "velocity": 80
    },
    {
        "track": 0,
        "absoluteTick": 46200,
        "noteNumber": 79,
        "velocity": 80
    },
    {
        "track": 0,
        "absoluteTick": 46320,
        "noteNumber": 79,
        "velocity": 80
    },
    {
        "track": 1,
        "absoluteTick": 46320,
        "noteNumber": 56,
        "velocity": 80
    },
    {
        "track": 0,
        "absoluteTick": 46560,
        "noteNumber": 79,
        "velocity": 80
    },
    {
        "track": 1,
        "absoluteTick": 46560,
        "noteNumber": 55,
        "velocity": 80
    },
    {
        "track": 0,
        "absoluteTick": 46680,
        "noteNumber": 79,
        "velocity": 80
    },
    {
        "track": 0,
        "absoluteTick": 46800,
        "noteNumber": 80,
        "velocity": 80
    },
    {
        "track": 1,
        "absoluteTick": 46800,
        "noteNumber": 55,
        "velocity": 80
    },
    {
        "track": 0,
        "absoluteTick": 46920,
        "noteNumber": 79,
        "velocity": 80
    },
    {
        "track": 0,
        "absoluteTick": 47040,
        "noteNumber": 79,
        "velocity": 80
    },
    {
        "track": 1,
        "absoluteTick": 47040,
        "noteNumber": 53,
        "velocity": 80
    },
    {
        "track": 0,
        "absoluteTick": 47280,
        "noteNumber": 79,
        "velocity": 80
    },
    {
        "track": 1,
        "absoluteTick": 47280,
        "noteNumber": 50,
        "velocity": 80
    },
    {
        "track": 0,
        "absoluteTick": 47400,
        "noteNumber": 79,
        "velocity": 80
    },
    {
        "track": 0,
        "absoluteTick": 47520,
        "noteNumber": 80,
        "velocity": 80
    },
    {
        "track": 1,
        "absoluteTick": 47520,
        "noteNumber": 55,
        "velocity": 80
    },
    {
        "track": 0,
        "absoluteTick": 47640,
        "noteNumber": 68,
        "velocity": 80
    },
    {
        "track": 0,
        "absoluteTick": 47760,
        "noteNumber": 71,
        "velocity": 81
    },
    {
        "track": 1,
        "absoluteTick": 47760,
        "noteNumber": 56,
        "velocity": 81
    },
    {
        "track": 0,
        "absoluteTick": 47880,
        "noteNumber": 72,
        "velocity": 82
    },
    {
        "track": 0,
        "absoluteTick": 48000,
        "noteNumber": 71,
        "velocity": 82
    },
    {
        "track": 1,
        "absoluteTick": 48000,
        "noteNumber": 55,
        "velocity": 82
    },
    {
        "track": 0,
        "absoluteTick": 48120,
        "noteNumber": 72,
        "velocity": 83
    },
    {
        "track": 0,
        "absoluteTick": 48240,
        "noteNumber": 74,
        "velocity": 84
    },
    {
        "track": 1,
        "absoluteTick": 48240,
        "noteNumber": 43,
        "velocity": 84
    },
    {
        "track": 0,
        "absoluteTick": 48360,
        "noteNumber": 72,
        "velocity": 84
    },
    {
        "track": 0,
        "absoluteTick": 48480,
        "noteNumber": 74,
        "velocity": 85
    },
    {
        "track": 1,
        "absoluteTick": 48480,
        "noteNumber": 44,
        "velocity": 85
    },
    {
        "track": 0,
        "absoluteTick": 48600,
        "noteNumber": 75,
        "velocity": 86
    },
    {
        "track": 0,
        "absoluteTick": 48720,
        "noteNumber": 74,
        "velocity": 86
    },
    {
        "track": 1,
        "absoluteTick": 48720,
        "noteNumber": 43,
        "velocity": 86
    },
    {
        "track": 0,
        "absoluteTick": 48840,
        "noteNumber": 75,
        "velocity": 87
    },
    {
        "track": 0,
        "absoluteTick": 48960,
        "noteNumber": 77,
        "velocity": 88
    },
    {
        "track": 1,
        "absoluteTick": 48960,
        "noteNumber": 51,
        "velocity": 88
    },
    {
        "track": 0,
        "absoluteTick": 49080,
        "noteNumber": 75,
        "velocity": 88
    },
    {
        "track": 0,
        "absoluteTick": 49200,
        "noteNumber": 77,
        "velocity": 89
    },
    {
        "track": 1,
        "absoluteTick": 49200,
        "noteNumber": 50,
        "velocity": 89
    },
    {
        "track": 0,
        "absoluteTick": 49320,
        "noteNumber": 79,
        "velocity": 90
    },
    {
        "track": 0,
        "absoluteTick": 49440,
        "noteNumber": 77,
        "velocity": 90
    },
    {
        "track": 1,
        "absoluteTick": 49440,
        "noteNumber": 48,
        "velocity": 90
    },
    {
        "track": 0,
        "absoluteTick": 49560,
        "noteNumber": 79,
        "velocity": 91
    },
    {
        "track": 0,
        "absoluteTick": 49680,
        "noteNumber": 80,
        "velocity": 92
    },
    {
        "track": 1,
        "absoluteTick": 49680,
        "noteNumber": 44,
        "velocity": 92
    },
    {
        "track": 0,
        "absoluteTick": 49800,
        "noteNumber": 79,
        "velocity": 92
    },
    {
        "track": 0,
        "absoluteTick": 49920,
        "noteNumber": 80,
        "velocity": 93
    },
    {
        "track": 1,
        "absoluteTick": 49920,
        "noteNumber": 43,
        "velocity": 93
    },
    {
        "track": 0,
        "absoluteTick": 50040,
        "noteNumber": 81,
        "velocity": 94
    },
    {
        "track": 0,
        "absoluteTick": 50160,
        "noteNumber": 82,
        "velocity": 94
    },
    {
        "track": 1,
        "absoluteTick": 50160,
        "noteNumber": 41,
        "velocity": 94
    },
    {
        "track": 0,
        "absoluteTick": 50280,
        "noteNumber": 83,
        "velocity": 95
    },
    {
        "track": 0,
        "absoluteTick": 50400,
        "noteNumber": 84,
        "velocity": 115
    },
    {
        "track": 1,
        "absoluteTick": 50400,
        "noteNumber": 36,
        "velocity": 115
    },
    {
        "track": 1,
        "absoluteTick": 50400,
        "noteNumber": 48,
        "velocity": 115
    },
    {
        "track": 0,
        "absoluteTick": 50640,
        "noteNumber": 80,
        "velocity": 115
    },
    {
        "track": 1,
        "absoluteTick": 50640,
        "noteNumber": 44,
        "velocity": 115
    },
    {
        "track": 1,
        "absoluteTick": 50640,
        "noteNumber": 56,
        "velocity": 115
    },
    {
        "track": 0,
        "absoluteTick": 50880,
        "noteNumber": 79,
        "velocity": 115
    },
    {
        "track": 1,
        "absoluteTick": 50880,
        "noteNumber": 43,
        "velocity": 115
    },
    {
        "track": 1,
        "absoluteTick": 50880,
        "noteNumber": 55,
        "velocity": 115
    },
    {
        "track": 0,
        "absoluteTick": 51120,
        "noteNumber": 80,
        "velocity": 115
    },
    {
        "track": 1,
        "absoluteTick": 51120,
        "noteNumber": 44,
        "velocity": 115
    },
    {
        "track": 1,
        "absoluteTick": 51120,
        "noteNumber": 56,
        "velocity": 115
    },
    {
        "track": 0,
        "absoluteTick": 51600,
        "noteNumber": 79,
        "velocity": 115
    },
    {
        "track": 1,
        "absoluteTick": 51600,
        "noteNumber": 43,
        "velocity": 115
    },
    {
        "track": 1,
        "absoluteTick": 51600,
        "noteNumber": 55,
        "velocity": 115
    },
    {
        "track": 1,
        "absoluteTick": 51840,
        "noteNumber": 36,
        "velocity": 96
    },
    {
        "track": 1,
        "absoluteTick": 51960,
        "noteNumber": 48,
        "velocity": 96
    },
    {
        "track": 1,
        "absoluteTick": 52080,
        "noteNumber": 36,
        "velocity": 96
    },
    {
        "track": 1,
        "absoluteTick": 52200,
        "noteNumber": 48,
        "velocity": 96
    },
    {
        "track": 1,
        "absoluteTick": 52320,
        "noteNumber": 36,
        "velocity": 96
    },
    {
        "track": 1,
        "absoluteTick": 52440,
        "noteNumber": 48,
        "velocity": 96
    },
    {
        "track": 1,
        "absoluteTick": 52560,
        "noteNumber": 36,
        "velocity": 96
    },
    {
        "track": 1,
        "absoluteTick": 52680,
        "noteNumber": 48,
        "velocity": 96
    },
    {
        "track": 1,
        "absoluteTick": 52800,
        "noteNumber": 36,
        "velocity": 96
    },
    {
        "track": 1,
        "absoluteTick": 52920,
        "noteNumber": 48,
        "velocity": 96
    },
    {
        "track": 1,
        "absoluteTick": 53040,
        "noteNumber": 36,
        "velocity": 96
    },
    {
        "track": 1,
        "absoluteTick": 53160,
        "noteNumber": 48,
        "velocity": 96
    },
    {
        "track": 0,
        "absoluteTick": 53280,
        "noteNumber": 84,
        "velocity": 115
    },
    {
        "track": 1,
        "absoluteTick": 53280,
        "noteNumber": 36,
        "velocity": 115
    },
    {
        "track": 1,
        "absoluteTick": 53280,
        "noteNumber": 48,
        "velocity": 115
    },
    {
        "track": 0,
        "absoluteTick": 53520,
        "noteNumber": 80,
        "velocity": 115
    },
    {
        "track": 1,
        "absoluteTick": 53520,
        "noteNumber": 44,
        "velocity": 115
    },
    {
        "track": 1,
        "absoluteTick": 53520,
        "noteNumber": 56,
        "velocity": 115
    },
    {
        "track": 0,
        "absoluteTick": 53760,
        "noteNumber": 79,
        "velocity": 115
    },
    {
        "track": 1,
        "absoluteTick": 53760,
        "noteNumber": 43,
        "velocity": 115
    },
    {
        "track": 1,
        "absoluteTick": 53760,
        "noteNumber": 55,
        "velocity": 115
    },
    {
        "track": 0,
        "absoluteTick": 54000,
        "noteNumber": 80,
        "velocity": 115
    },
    {
        "track": 1,
        "absoluteTick": 54000,
        "noteNumber": 44,
        "velocity": 115
    },
    {
        "track": 1,
        "absoluteTick": 54000,
        "noteNumber": 56,
        "velocity": 115
    },
    {
        "track": 0,
        "absoluteTick": 54480,
        "noteNumber": 78,
        "velocity": 115
    },
    {
        "track": 1,
        "absoluteTick": 54480,
        "noteNumber": 42,
        "velocity": 115
    },
    {
        "track": 1,
        "absoluteTick": 54480,
        "noteNumber": 54,
        "velocity": 115
    },
    {
        "track": 1,
        "absoluteTick": 54720,
        "noteNumber": 36,
        "velocity": 96
    },
    {
        "track": 1,
        "absoluteTick": 54840,
        "noteNumber": 48,
        "velocity": 96
    },
    {
        "track": 1,
        "absoluteTick": 54960,
        "noteNumber": 36,
        "velocity": 96
    },
    {
        "track": 1,
        "absoluteTick": 55080,
        "noteNumber": 48,
        "velocity": 96
    },
    {
        "track": 1,
        "absoluteTick": 55200,
        "noteNumber": 35,
        "velocity": 96
    },
    {
        "track": 1,
        "absoluteTick": 55320,
        "noteNumber": 47,
        "velocity": 96
    },
    {
        "track": 1,
        "absoluteTick": 55440,
        "noteNumber": 35,
        "velocity": 96
    },
    {
        "track": 1,
        "absoluteTick": 55560,
        "noteNumber": 47,
        "velocity": 96
    },
    {
        "track": 1,
        "absoluteTick": 55680,
        "noteNumber": 34,
        "velocity": 96
    },
    {
        "track": 1,
        "absoluteTick": 55800,
        "noteNumber": 46,
        "velocity": 96
    },
    {
        "track": 1,
        "absoluteTick": 55920,
        "noteNumber": 34,
        "velocity": 96
    },
    {
        "track": 1,
        "absoluteTick": 56040,
        "noteNumber": 46,
        "velocity": 96
    },
    {
        "track": 0,
        "absoluteTick": 56160,
        "noteNumber": 81,
        "velocity": 115
    },
    {
        "track": 1,
        "absoluteTick": 56160,
        "noteNumber": 33,
        "velocity": 115
    },
    {
        "track": 1,
        "absoluteTick": 56160,
        "noteNumber": 45,
        "velocity": 115
    },
    {
        "track": 0,
        "absoluteTick": 56400,
        "noteNumber": 77,
        "velocity": 115
    },
    {
        "track": 1,
        "absoluteTick": 56400,
        "noteNumber": 41,
        "velocity": 115
    },
    {
        "track": 1,
        "absoluteTick": 56400,
        "noteNumber": 53,
        "velocity": 115
    },
    {
        "track": 0,
        "absoluteTick": 56640,
        "noteNumber": 76,
        "velocity": 115
    },
    {
        "track": 1,
        "absoluteTick": 56640,
        "noteNumber": 40,
        "velocity": 115
    },
    {
        "track": 1,
        "absoluteTick": 56640,
        "noteNumber": 52,
        "velocity": 115
    },
    {
        "track": 0,
        "absoluteTick": 56880,
        "noteNumber": 77,
        "velocity": 115
    },
    {
        "track": 1,
        "absoluteTick": 56880,
        "noteNumber": 41,
        "velocity": 115
    },
    {
        "track": 1,
        "absoluteTick": 56880,
        "noteNumber": 53,
        "velocity": 115
    },
    {
        "track": 0,
        "absoluteTick": 57360,
        "noteNumber": 80,
        "velocity": 115
    },
    {
        "track": 1,
        "absoluteTick": 57360,
        "noteNumber": 44,
        "velocity": 115
    },
    {
        "track": 1,
        "absoluteTick": 57360,
        "noteNumber": 56,
        "velocity": 115
    },
    {
        "track": 1,
        "absoluteTick": 57600,
        "noteNumber": 33,
        "velocity": 96
    },
    {
        "track": 1,
        "absoluteTick": 57720,
        "noteNumber": 45,
        "velocity": 96
    },
    {
        "track": 1,
        "absoluteTick": 57840,
        "noteNumber": 33,
        "velocity": 96
    },
    {
        "track": 1,
        "absoluteTick": 57960,
        "noteNumber": 45,
        "velocity": 96
    },
    {
        "track": 1,
        "absoluteTick": 58080,
        "noteNumber": 33,
        "velocity": 96
    },
    {
        "track": 1,
        "absoluteTick": 58200,
        "noteNumber": 45,
        "velocity": 96
    },
    {
        "track": 1,
        "absoluteTick": 58320,
        "noteNumber": 33,
        "velocity": 96
    },
    {
        "track": 1,
        "absoluteTick": 58440,
        "noteNumber": 45,
        "velocity": 96
    },
    {
        "track": 1,
        "absoluteTick": 58560,
        "noteNumber": 33,
        "velocity": 96
    },
    {
        "track": 1,
        "absoluteTick": 58680,
        "noteNumber": 45,
        "velocity": 96
    },
    {
        "track": 1,
        "absoluteTick": 58800,
        "noteNumber": 33,
        "velocity": 96
    },
    {
        "track": 1,
        "absoluteTick": 58920,
        "noteNumber": 45,
        "velocity": 96
    },
    {
        "track": 0,
        "absoluteTick": 59040,
        "noteNumber": 81,
        "velocity": 115
    },
    {
        "track": 1,
        "absoluteTick": 59040,
        "noteNumber": 33,
        "velocity": 115
    },
    {
        "track": 1,
        "absoluteTick": 59040,
        "noteNumber": 45,
        "velocity": 115
    },
    {
        "track": 0,
        "absoluteTick": 59280,
        "noteNumber": 77,
        "velocity": 115
    },
    {
        "track": 1,
        "absoluteTick": 59280,
        "noteNumber": 41,
        "velocity": 115
    },
    {
        "track": 1,
        "absoluteTick": 59280,
        "noteNumber": 53,
        "velocity": 115
    },
    {
        "track": 0,
        "absoluteTick": 59520,
        "noteNumber": 76,
        "velocity": 115
    },
    {
        "track": 1,
        "absoluteTick": 59520,
        "noteNumber": 40,
        "velocity": 115
    },
    {
        "track": 1,
        "absoluteTick": 59520,
        "noteNumber": 52,
        "velocity": 115
    },
    {
        "track": 0,
        "absoluteTick": 59760,
        "noteNumber": 77,
        "velocity": 115
    },
    {
        "track": 1,
        "absoluteTick": 59760,
        "noteNumber": 41,
        "velocity": 115
    },
    {
        "track": 1,
        "absoluteTick": 59760,
        "noteNumber": 53,
        "velocity": 115
    },
    {
        "track": 0,
        "absoluteTick": 60240,
        "noteNumber": 82,
        "velocity": 115
    },
    {
        "track": 1,
        "absoluteTick": 60240,
        "noteNumber": 46,
        "velocity": 115
    },
    {
        "track": 1,
        "absoluteTick": 60240,
        "noteNumber": 58,
        "velocity": 115
    },
    {
        "track": 1,
        "absoluteTick": 60480,
        "noteNumber": 45,
        "velocity": 96
    },
    {
        "track": 1,
        "absoluteTick": 60600,
        "noteNumber": 57,
        "velocity": 96
    },
    {
        "track": 1,
        "absoluteTick": 60720,
        "noteNumber": 45,
        "velocity": 96
    },
    {
        "track": 1,
        "absoluteTick": 60840,
        "noteNumber": 57,
        "velocity": 96
    },
    {
        "track": 1,
        "absoluteTick": 60960,
        "noteNumber": 44,
        "velocity": 96
    },
    {
        "track": 1,
        "absoluteTick": 61080,
        "noteNumber": 56,
        "velocity": 96
    },
    {
        "track": 1,
        "absoluteTick": 61200,
        "noteNumber": 44,
        "velocity": 96
    },
    {
        "track": 1,
        "absoluteTick": 61320,
        "noteNumber": 56,
        "velocity": 96
    },
    {
        "track": 1,
        "absoluteTick": 61440,
        "noteNumber": 43,
        "velocity": 96
    },
    {
        "track": 1,
        "absoluteTick": 61560,
        "noteNumber": 55,
        "velocity": 96
    },
    {
        "track": 1,
        "absoluteTick": 61680,
        "noteNumber": 43,
        "velocity": 96
    },
    {
        "track": 1,
        "absoluteTick": 61800,
        "noteNumber": 55,
        "velocity": 96
    },
    {
        "track": 0,
        "absoluteTick": 61920,
        "noteNumber": 61,
        "velocity": 96
    },
    {
        "track": 0,
        "absoluteTick": 61920,
        "noteNumber": 70,
        "velocity": 96
    },
    {
        "track": 1,
        "absoluteTick": 61920,
        "noteNumber": 42,
        "velocity": 96
    },
    {
        "track": 1,
        "absoluteTick": 61920,
        "noteNumber": 54,
        "velocity": 96
    },
    {
        "track": 0,
        "absoluteTick": 62160,
        "noteNumber": 66,
        "velocity": 96
    },
    {
        "track": 0,
        "absoluteTick": 62400,
        "noteNumber": 65,
        "velocity": 96
    },
    {
        "track": 0,
        "absoluteTick": 62640,
        "noteNumber": 66,
        "velocity": 96
    },
    {
        "track": 0,
        "absoluteTick": 63120,
        "noteNumber": 60,
        "velocity": 96
    },
    {
        "track": 0,
        "absoluteTick": 63120,
        "noteNumber": 72,
        "velocity": 96
    },
    {
        "track": 1,
        "absoluteTick": 63360,
        "noteNumber": 42,
        "velocity": 80
    },
    {
        "track": 1,
        "absoluteTick": 63480,
        "noteNumber": 54,
        "velocity": 80
    },
    {
        "track": 0,
        "absoluteTick": 63600,
        "noteNumber": 66,
        "velocity": 96
    },
    {
        "track": 1,
        "absoluteTick": 63600,
        "noteNumber": 42,
        "velocity": 80
    },
    {
        "track": 1,
        "absoluteTick": 63720,
        "noteNumber": 54,
        "velocity": 80
    },
    {
        "track": 0,
        "absoluteTick": 63840,
        "noteNumber": 65,
        "velocity": 96
    },
    {
        "track": 1,
        "absoluteTick": 63840,
        "noteNumber": 42,
        "velocity": 80
    },
    {
        "track": 1,
        "absoluteTick": 63960,
        "noteNumber": 54,
        "velocity": 80
    },
    {
        "track": 0,
        "absoluteTick": 64080,
        "noteNumber": 66,
        "velocity": 96
    },
    {
        "track": 1,
        "absoluteTick": 64080,
        "noteNumber": 42,
        "velocity": 80
    },
    {
        "track": 1,
        "absoluteTick": 64200,
        "noteNumber": 54,
        "velocity": 80
    },
    {
        "track": 1,
        "absoluteTick": 64320,
        "noteNumber": 42,
        "velocity": 80
    },
    {
        "track": 1,
        "absoluteTick": 64440,
        "noteNumber": 54,
        "velocity": 80
    },
    {
        "track": 0,
        "absoluteTick": 64560,
        "noteNumber": 61,
        "velocity": 96
    },
    {
        "track": 0,
        "absoluteTick": 64560,
        "noteNumber": 73,
        "velocity": 96
    },
    {
        "track": 1,
        "absoluteTick": 64560,
        "noteNumber": 42,
        "velocity": 80
    },
    {
        "track": 1,
        "absoluteTick": 64680,
        "noteNumber": 54,
        "velocity": 80
    },
    {
        "track": 0,
        "absoluteTick": 64800,
        "noteNumber": 61,
        "velocity": 96
    },
    {
        "track": 0,
        "absoluteTick": 64800,
        "noteNumber": 70,
        "velocity": 96
    },
    {
        "track": 1,
        "absoluteTick": 64800,
        "noteNumber": 39,
        "velocity": 96
    },
    {
        "track": 1,
        "absoluteTick": 64800,
        "noteNumber": 51,
        "velocity": 96
    },
    {
        "track": 0,
        "absoluteTick": 65040,
        "noteNumber": 66,
        "velocity": 96
    },
    {
        "track": 0,
        "absoluteTick": 65280,
        "noteNumber": 65,
        "velocity": 96
    },
    {
        "track": 0,
        "absoluteTick": 65520,
        "noteNumber": 66,
        "velocity": 96
    },
    {
        "track": 0,
        "absoluteTick": 66000,
        "noteNumber": 63,
        "velocity": 96
    },
    {
        "track": 0,
        "absoluteTick": 66000,
        "noteNumber": 75,
        "velocity": 96
    },
    {
        "track": 1,
        "absoluteTick": 66240,
        "noteNumber": 39,
        "velocity": 80
    },
    {
        "track": 1,
        "absoluteTick": 66360,
        "noteNumber": 51,
        "velocity": 80
    },
    {
        "track": 0,
        "absoluteTick": 66480,
        "noteNumber": 66,
        "velocity": 96
    },
    {
        "track": 1,
        "absoluteTick": 66480,
        "noteNumber": 39,
        "velocity": 80
    },
    {
        "track": 1,
        "absoluteTick": 66600,
        "noteNumber": 51,
        "velocity": 80
    },
    {
        "track": 0,
        "absoluteTick": 66720,
        "noteNumber": 65,
        "velocity": 96
    },
    {
        "track": 1,
        "absoluteTick": 66720,
        "noteNumber": 39,
        "velocity": 80
    },
    {
        "track": 1,
        "absoluteTick": 66840,
        "noteNumber": 51,
        "velocity": 80
    },
    {
        "track": 0,
        "absoluteTick": 66960,
        "noteNumber": 66,
        "velocity": 96
    },
    {
        "track": 1,
        "absoluteTick": 66960,
        "noteNumber": 39,
        "velocity": 80
    },
    {
        "track": 1,
        "absoluteTick": 67080,
        "noteNumber": 51,
        "velocity": 80
    },
    {
        "track": 1,
        "absoluteTick": 67200,
        "noteNumber": 39,
        "velocity": 80
    },
    {
        "track": 1,
        "absoluteTick": 67320,
        "noteNumber": 51,
        "velocity": 80
    },
    {
        "track": 0,
        "absoluteTick": 67440,
        "noteNumber": 65,
        "velocity": 96
    },
    {
        "track": 0,
        "absoluteTick": 67440,
        "noteNumber": 77,
        "velocity": 96
    },
    {
        "track": 1,
        "absoluteTick": 67440,
        "noteNumber": 39,
        "velocity": 80
    },
    {
        "track": 1,
        "absoluteTick": 67560,
        "noteNumber": 51,
        "velocity": 80
    },
    {
        "track": 1,
        "absoluteTick": 67680,
        "noteNumber": 35,
        "velocity": 80
    },
    {
        "track": 1,
        "absoluteTick": 67800,
        "noteNumber": 47,
        "velocity": 80
    },
    {
        "track": 1,
        "absoluteTick": 67920,
        "noteNumber": 35,
        "velocity": 80
    },
    {
        "track": 1,
        "absoluteTick": 68040,
        "noteNumber": 47,
        "velocity": 80
    },
    {
        "track": 1,
        "absoluteTick": 68160,
        "noteNumber": 35,
        "velocity": 80
    },
    {
        "track": 1,
        "absoluteTick": 68280,
        "noteNumber": 47,
        "velocity": 80
    },
    {
        "track": 0,
        "absoluteTick": 68400,
        "noteNumber": 66,
        "velocity": 96
    },
    {
        "track": 0,
        "absoluteTick": 68400,
        "noteNumber": 78,
        "velocity": 96
    },
    {
        "track": 1,
        "absoluteTick": 68400,
        "noteNumber": 35,
        "velocity": 80
    },
    {
        "track": 1,
        "absoluteTick": 68520,
        "noteNumber": 47,
        "velocity": 80
    },
    {
        "track": 1,
        "absoluteTick": 68640,
        "noteNumber": 35,
        "velocity": 80
    },
    {
        "track": 1,
        "absoluteTick": 68760,
        "noteNumber": 47,
        "velocity": 80
    },
    {
        "track": 1,
        "absoluteTick": 68880,
        "noteNumber": 35,
        "velocity": 80
    },
    {
        "track": 1,
        "absoluteTick": 69000,
        "noteNumber": 47,
        "velocity": 80
    },
    {
        "track": 0,
        "absoluteTick": 69120,
        "noteNumber": 68,
        "velocity": 96
    },
    {
        "track": 0,
        "absoluteTick": 69120,
        "noteNumber": 80,
        "velocity": 96
    },
    {
        "track": 1,
        "absoluteTick": 69120,
        "noteNumber": 35,
        "velocity": 80
    },
    {
        "track": 1,
        "absoluteTick": 69240,
        "noteNumber": 47,
        "velocity": 80
    },
    {
        "track": 1,
        "absoluteTick": 69360,
        "noteNumber": 35,
        "velocity": 80
    },
    {
        "track": 1,
        "absoluteTick": 69480,
        "noteNumber": 47,
        "velocity": 80
    },
    {
        "track": 1,
        "absoluteTick": 69600,
        "noteNumber": 35,
        "velocity": 80
    },
    {
        "track": 1,
        "absoluteTick": 69720,
        "noteNumber": 47,
        "velocity": 80
    },
    {
        "track": 0,
        "absoluteTick": 69840,
        "noteNumber": 66,
        "velocity": 96
    },
    {
        "track": 0,
        "absoluteTick": 69840,
        "noteNumber": 78,
        "velocity": 96
    },
    {
        "track": 1,
        "absoluteTick": 69840,
        "noteNumber": 35,
        "velocity": 80
    },
    {
        "track": 1,
        "absoluteTick": 69960,
        "noteNumber": 47,
        "velocity": 80
    },
    {
        "track": 1,
        "absoluteTick": 70080,
        "noteNumber": 35,
        "velocity": 80
    },
    {
        "track": 1,
        "absoluteTick": 70200,
        "noteNumber": 47,
        "velocity": 80
    },
    {
        "track": 1,
        "absoluteTick": 70320,
        "noteNumber": 35,
        "velocity": 80
    },
    {
        "track": 1,
        "absoluteTick": 70440,
        "noteNumber": 47,
        "velocity": 80
    },
    {
        "track": 0,
        "absoluteTick": 70560,
        "noteNumber": 54,
        "velocity": 96
    },
    {
        "track": 0,
        "absoluteTick": 70560,
        "noteNumber": 66,
        "velocity": 96
    },
    {
        "track": 1,
        "absoluteTick": 70560,
        "noteNumber": 43,
        "velocity": 80
    },
    {
        "track": 1,
        "absoluteTick": 70680,
        "noteNumber": 55,
        "velocity": 80
    },
    {
        "track": 1,
        "absoluteTick": 70800,
        "noteNumber": 43,
        "velocity": 80
    },
    {
        "track": 1,
        "absoluteTick": 70920,
        "noteNumber": 55,
        "velocity": 80
    },
    {
        "track": 1,
        "absoluteTick": 71040,
        "noteNumber": 43,
        "velocity": 80
    },
    {
        "track": 1,
        "absoluteTick": 71160,
        "noteNumber": 55,
        "velocity": 80
    },
    {
        "track": 0,
        "absoluteTick": 71280,
        "noteNumber": 55,
        "velocity": 96
    },
    {
        "track": 0,
        "absoluteTick": 71280,
        "noteNumber": 67,
        "velocity": 96
    },
    {
        "track": 1,
        "absoluteTick": 71280,
        "noteNumber": 43,
        "velocity": 80
    },
    {
        "track": 1,
        "absoluteTick": 71400,
        "noteNumber": 55,
        "velocity": 80
    },
    {
        "track": 1,
        "absoluteTick": 71520,
        "noteNumber": 43,
        "velocity": 80
    },
    {
        "track": 1,
        "absoluteTick": 71640,
        "noteNumber": 55,
        "velocity": 80
    },
    {
        "track": 1,
        "absoluteTick": 71760,
        "noteNumber": 43,
        "velocity": 80
    },
    {
        "track": 1,
        "absoluteTick": 71880,
        "noteNumber": 55,
        "velocity": 80
    },
    {
        "track": 0,
        "absoluteTick": 72000,
        "noteNumber": 57,
        "velocity": 96
    },
    {
        "track": 0,
        "absoluteTick": 72000,
        "noteNumber": 69,
        "velocity": 96
    },
    {
        "track": 1,
        "absoluteTick": 72000,
        "noteNumber": 43,
        "velocity": 80
    },
    {
        "track": 1,
        "absoluteTick": 72120,
        "noteNumber": 55,
        "velocity": 80
    },
    {
        "track": 1,
        "absoluteTick": 72240,
        "noteNumber": 43,
        "velocity": 80
    },
    {
        "track": 1,
        "absoluteTick": 72360,
        "noteNumber": 55,
        "velocity": 80
    },
    {
        "track": 1,
        "absoluteTick": 72480,
        "noteNumber": 43,
        "velocity": 80
    },
    {
        "track": 1,
        "absoluteTick": 72600,
        "noteNumber": 55,
        "velocity": 80
    },
    {
        "track": 0,
        "absoluteTick": 72720,
        "noteNumber": 55,
        "velocity": 96
    },
    {
        "track": 0,
        "absoluteTick": 72720,
        "noteNumber": 67,
        "velocity": 96
    },
    {
        "track": 1,
        "absoluteTick": 72720,
        "noteNumber": 43,
        "velocity": 80
    },
    {
        "track": 1,
        "absoluteTick": 72840,
        "noteNumber": 55,
        "velocity": 80
    },
    {
        "track": 1,
        "absoluteTick": 72960,
        "noteNumber": 43,
        "velocity": 80
    },
    {
        "track": 1,
        "absoluteTick": 73080,
        "noteNumber": 55,
        "velocity": 80
    },
    {
        "track": 1,
        "absoluteTick": 73200,
        "noteNumber": 43,
        "velocity": 80
    },
    {
        "track": 1,
        "absoluteTick": 73320,
        "noteNumber": 55,
        "velocity": 80
    },
    {
        "track": 0,
        "absoluteTick": 73440,
        "noteNumber": 65,
        "velocity": 96
    },
    {
        "track": 0,
        "absoluteTick": 73440,
        "noteNumber": 77,
        "velocity": 96
    },
    {
        "track": 1,
        "absoluteTick": 73440,
        "noteNumber": 35,
        "velocity": 80
    },
    {
        "track": 1,
        "absoluteTick": 73560,
        "noteNumber": 47,
        "velocity": 80
    },
    {
        "track": 1,
        "absoluteTick": 73680,
        "noteNumber": 35,
        "velocity": 80
    },
    {
        "track": 1,
        "absoluteTick": 73800,
        "noteNumber": 47,
        "velocity": 80
    },
    {
        "track": 1,
        "absoluteTick": 73920,
        "noteNumber": 35,
        "velocity": 80
    },
    {
        "track": 1,
        "absoluteTick": 74040,
        "noteNumber": 47,
        "velocity": 80
    },
    {
        "track": 0,
        "absoluteTick": 74160,
        "noteNumber": 66,
        "velocity": 96
    },
    {
        "track": 0,
        "absoluteTick": 74160,
        "noteNumber": 78,
        "velocity": 96
    },
    {
        "track": 1,
        "absoluteTick": 74160,
        "noteNumber": 35,
        "velocity": 80
    },
    {
        "track": 1,
        "absoluteTick": 74280,
        "noteNumber": 47,
        "velocity": 80
    },
    {
        "track": 1,
        "absoluteTick": 74400,
        "noteNumber": 35,
        "velocity": 80
    },
    {
        "track": 1,
        "absoluteTick": 74520,
        "noteNumber": 47,
        "velocity": 80
    },
    {
        "track": 1,
        "absoluteTick": 74640,
        "noteNumber": 35,
        "velocity": 80
    },
    {
        "track": 1,
        "absoluteTick": 74760,
        "noteNumber": 47,
        "velocity": 80
    },
    {
        "track": 0,
        "absoluteTick": 74880,
        "noteNumber": 68,
        "velocity": 96
    },
    {
        "track": 0,
        "absoluteTick": 74880,
        "noteNumber": 80,
        "velocity": 96
    },
    {
        "track": 1,
        "absoluteTick": 74880,
        "noteNumber": 35,
        "velocity": 80
    },
    {
        "track": 1,
        "absoluteTick": 75000,
        "noteNumber": 47,
        "velocity": 80
    },
    {
        "track": 1,
        "absoluteTick": 75120,
        "noteNumber": 35,
        "velocity": 80
    },
    {
        "track": 1,
        "absoluteTick": 75240,
        "noteNumber": 47,
        "velocity": 80
    },
    {
        "track": 1,
        "absoluteTick": 75360,
        "noteNumber": 35,
        "velocity": 80
    },
    {
        "track": 1,
        "absoluteTick": 75480,
        "noteNumber": 47,
        "velocity": 80
    },
    {
        "track": 0,
        "absoluteTick": 75600,
        "noteNumber": 66,
        "velocity": 96
    },
    {
        "track": 0,
        "absoluteTick": 75600,
        "noteNumber": 78,
        "velocity": 96
    },
    {
        "track": 1,
        "absoluteTick": 75600,
        "noteNumber": 35,
        "velocity": 80
    },
    {
        "track": 1,
        "absoluteTick": 75720,
        "noteNumber": 47,
        "velocity": 80
    },
    {
        "track": 1,
        "absoluteTick": 75840,
        "noteNumber": 35,
        "velocity": 80
    },
    {
        "track": 1,
        "absoluteTick": 75960,
        "noteNumber": 47,
        "velocity": 80
    },
    {
        "track": 1,
        "absoluteTick": 76080,
        "noteNumber": 35,
        "velocity": 80
    },
    {
        "track": 1,
        "absoluteTick": 76200,
        "noteNumber": 47,
        "velocity": 80
    },
    {
        "track": 1,
        "absoluteTick": 76320,
        "noteNumber": 43,
        "velocity": 80
    },
    {
        "track": 1,
        "absoluteTick": 76440,
        "noteNumber": 55,
        "velocity": 80
    },
    {
        "track": 1,
        "absoluteTick": 76560,
        "noteNumber": 43,
        "velocity": 80
    },
    {
        "track": 1,
        "absoluteTick": 76680,
        "noteNumber": 55,
        "velocity": 80
    },
    {
        "track": 1,
        "absoluteTick": 76800,
        "noteNumber": 43,
        "velocity": 80
    },
    {
        "track": 1,
        "absoluteTick": 76920,
        "noteNumber": 55,
        "velocity": 80
    },
    {
        "track": 0,
        "absoluteTick": 77040,
        "noteNumber": 67,
        "velocity": 96
    },
    {
        "track": 0,
        "absoluteTick": 77040,
        "noteNumber": 79,
        "velocity": 96
    },
    {
        "track": 1,
        "absoluteTick": 77040,
        "noteNumber": 43,
        "velocity": 80
    },
    {
        "track": 1,
        "absoluteTick": 77160,
        "noteNumber": 55,
        "velocity": 80
    },
    {
        "track": 1,
        "absoluteTick": 77280,
        "noteNumber": 43,
        "velocity": 80
    },
    {
        "track": 1,
        "absoluteTick": 77400,
        "noteNumber": 55,
        "velocity": 80
    },
    {
        "track": 1,
        "absoluteTick": 77520,
        "noteNumber": 43,
        "velocity": 80
    },
    {
        "track": 1,
        "absoluteTick": 77640,
        "noteNumber": 55,
        "velocity": 80
    },
    {
        "track": 0,
        "absoluteTick": 77760,
        "noteNumber": 69,
        "velocity": 96
    },
    {
        "track": 0,
        "absoluteTick": 77760,
        "noteNumber": 81,
        "velocity": 96
    },
    {
        "track": 1,
        "absoluteTick": 77760,
        "noteNumber": 43,
        "velocity": 80
    },
    {
        "track": 1,
        "absoluteTick": 77880,
        "noteNumber": 55,
        "velocity": 80
    },
    {
        "track": 1,
        "absoluteTick": 78000,
        "noteNumber": 43,
        "velocity": 80
    },
    {
        "track": 1,
        "absoluteTick": 78120,
        "noteNumber": 55,
        "velocity": 80
    },
    {
        "track": 1,
        "absoluteTick": 78240,
        "noteNumber": 43,
        "velocity": 80
    },
    {
        "track": 1,
        "absoluteTick": 78360,
        "noteNumber": 55,
        "velocity": 80
    },
    {
        "track": 0,
        "absoluteTick": 78480,
        "noteNumber": 70,
        "velocity": 96
    },
    {
        "track": 0,
        "absoluteTick": 78480,
        "noteNumber": 82,
        "velocity": 96
    },
    {
        "track": 1,
        "absoluteTick": 78480,
        "noteNumber": 43,
        "velocity": 80
    },
    {
        "track": 1,
        "absoluteTick": 78600,
        "noteNumber": 55,
        "velocity": 80
    },
    {
        "track": 1,
        "absoluteTick": 78720,
        "noteNumber": 43,
        "velocity": 80
    },
    {
        "track": 1,
        "absoluteTick": 78840,
        "noteNumber": 55,
        "velocity": 80
    },
    {
        "track": 1,
        "absoluteTick": 78960,
        "noteNumber": 43,
        "velocity": 80
    },
    {
        "track": 1,
        "absoluteTick": 79080,
        "noteNumber": 55,
        "velocity": 80
    },
    {
        "track": 1,
        "absoluteTick": 79200,
        "noteNumber": 40,
        "velocity": 96
    },
    {
        "track": 1,
        "absoluteTick": 79200,
        "noteNumber": 52,
        "velocity": 96
    },
    {
        "track": 0,
        "absoluteTick": 79440,
        "noteNumber": 64,
        "velocity": 96
    },
    {
        "track": 0,
        "absoluteTick": 79440,
        "noteNumber": 76,
        "velocity": 96
    },
    {
        "track": 0,
        "absoluteTick": 79680,
        "noteNumber": 63,
        "velocity": 96
    },
    {
        "track": 0,
        "absoluteTick": 79680,
        "noteNumber": 75,
        "velocity": 96
    },
    {
        "track": 0,
        "absoluteTick": 79920,
        "noteNumber": 64,
        "velocity": 96
    },
    {
        "track": 0,
        "absoluteTick": 79920,
        "noteNumber": 76,
        "velocity": 96
    },
    {
        "track": 0,
        "absoluteTick": 80400,
        "noteNumber": 63,
        "velocity": 96
    },
    {
        "track": 0,
        "absoluteTick": 80400,
        "noteNumber": 75,
        "velocity": 96
    },
    {
        "track": 0,
        "absoluteTick": 80640,
        "noteNumber": 59,
        "velocity": 96
    },
    {
        "track": 0,
        "absoluteTick": 80640,
        "noteNumber": 71,
        "velocity": 96
    },
    {
        "track": 1,
        "absoluteTick": 80880,
        "noteNumber": 40,
        "velocity": 96
    },
    {
        "track": 1,
        "absoluteTick": 80880,
        "noteNumber": 52,
        "velocity": 96
    },
    {
        "track": 0,
        "absoluteTick": 81120,
        "noteNumber": 63,
        "velocity": 96
    },
    {
        "track": 0,
        "absoluteTick": 81120,
        "noteNumber": 75,
        "velocity": 96
    },
    {
        "track": 1,
        "absoluteTick": 81360,
        "noteNumber": 40,
        "velocity": 96
    },
    {
        "track": 1,
        "absoluteTick": 81360,
        "noteNumber": 52,
        "velocity": 96
    },
    {
        "track": 0,
        "absoluteTick": 81600,
        "noteNumber": 58,
        "velocity": 96
    },
    {
        "track": 0,
        "absoluteTick": 81600,
        "noteNumber": 70,
        "velocity": 96
    },
    {
        "track": 1,
        "absoluteTick": 81840,
        "noteNumber": 40,
        "velocity": 96
    },
    {
        "track": 1,
        "absoluteTick": 81840,
        "noteNumber": 52,
        "velocity": 96
    },
    {
        "track": 1,
        "absoluteTick": 82080,
        "noteNumber": 40,
        "velocity": 96
    },
    {
        "track": 1,
        "absoluteTick": 82080,
        "noteNumber": 52,
        "velocity": 96
    },
    {
        "track": 0,
        "absoluteTick": 82320,
        "noteNumber": 64,
        "velocity": 96
    },
    {
        "track": 0,
        "absoluteTick": 82320,
        "noteNumber": 76,
        "velocity": 96
    },
    {
        "track": 0,
        "absoluteTick": 82560,
        "noteNumber": 63,
        "velocity": 96
    },
    {
        "track": 0,
        "absoluteTick": 82560,
        "noteNumber": 75,
        "velocity": 96
    },
    {
        "track": 0,
        "absoluteTick": 82800,
        "noteNumber": 64,
        "velocity": 96
    },
    {
        "track": 0,
        "absoluteTick": 82800,
        "noteNumber": 76,
        "velocity": 96
    },
    {
        "track": 0,
        "absoluteTick": 83280,
        "noteNumber": 63,
        "velocity": 96
    },
    {
        "track": 0,
        "absoluteTick": 83280,
        "noteNumber": 75,
        "velocity": 96
    },
    {
        "track": 0,
        "absoluteTick": 83520,
        "noteNumber": 59,
        "velocity": 96
    },
    {
        "track": 0,
        "absoluteTick": 83520,
        "noteNumber": 71,
        "velocity": 96
    },
    {
        "track": 1,
        "absoluteTick": 83760,
        "noteNumber": 40,
        "velocity": 96
    },
    {
        "track": 1,
        "absoluteTick": 83760,
        "noteNumber": 52,
        "velocity": 96
    },
    {
        "track": 0,
        "absoluteTick": 84000,
        "noteNumber": 63,
        "velocity": 96
    },
    {
        "track": 0,
        "absoluteTick": 84000,
        "noteNumber": 75,
        "velocity": 96
    },
    {
        "track": 1,
        "absoluteTick": 84240,
        "noteNumber": 40,
        "velocity": 96
    },
    {
        "track": 1,
        "absoluteTick": 84240,
        "noteNumber": 52,
        "velocity": 96
    },
    {
        "track": 0,
        "absoluteTick": 84480,
        "noteNumber": 61,
        "velocity": 96
    },
    {
        "track": 0,
        "absoluteTick": 84480,
        "noteNumber": 73,
        "velocity": 96
    },
    {
        "track": 1,
        "absoluteTick": 84720,
        "noteNumber": 40,
        "velocity": 96
    },
    {
        "track": 1,
        "absoluteTick": 84720,
        "noteNumber": 52,
        "velocity": 96
    },
    {
        "track": 0,
        "absoluteTick": 84960,
        "noteNumber": 75,
        "velocity": 80
    },
    {
        "track": 0,
        "absoluteTick": 84960,
        "noteNumber": 87,
        "velocity": 80
    },
    {
        "track": 1,
        "absoluteTick": 84960,
        "noteNumber": 42,
        "velocity": 96
    },
    {
        "track": 1,
        "absoluteTick": 84960,
        "noteNumber": 54,
        "velocity": 96
    },
    {
        "track": 0,
        "absoluteTick": 85200,
        "noteNumber": 69,
        "velocity": 96
    },
    {
        "track": 0,
        "absoluteTick": 85200,
        "noteNumber": 81,
        "velocity": 96
    },
    {
        "track": 0,
        "absoluteTick": 85440,
        "noteNumber": 68,
        "velocity": 96
    },
    {
        "track": 0,
        "absoluteTick": 85440,
        "noteNumber": 80,
        "velocity": 96
    },
    {
        "track": 0,
        "absoluteTick": 85680,
        "noteNumber": 69,
        "velocity": 96
    },
    {
        "track": 0,
        "absoluteTick": 85680,
        "noteNumber": 81,
        "velocity": 96
    },
    {
        "track": 0,
        "absoluteTick": 86160,
        "noteNumber": 68,
        "velocity": 96
    },
    {
        "track": 0,
        "absoluteTick": 86160,
        "noteNumber": 80,
        "velocity": 96
    },
    {
        "track": 0,
        "absoluteTick": 86400,
        "noteNumber": 64,
        "velocity": 96
    },
    {
        "track": 0,
        "absoluteTick": 86400,
        "noteNumber": 76,
        "velocity": 96
    },
    {
        "track": 1,
        "absoluteTick": 86640,
        "noteNumber": 42,
        "velocity": 96
    },
    {
        "track": 1,
        "absoluteTick": 86640,
        "noteNumber": 54,
        "velocity": 96
    },
    {
        "track": 0,
        "absoluteTick": 86880,
        "noteNumber": 68,
        "velocity": 96
    },
    {
        "track": 0,
        "absoluteTick": 86880,
        "noteNumber": 80,
        "velocity": 96
    },
    {
        "track": 1,
        "absoluteTick": 87120,
        "noteNumber": 42,
        "velocity": 96
    },
    {
        "track": 1,
        "absoluteTick": 87120,
        "noteNumber": 54,
        "velocity": 96
    },
    {
        "track": 0,
        "absoluteTick": 87360,
        "noteNumber": 63,
        "velocity": 96
    },
    {
        "track": 0,
        "absoluteTick": 87360,
        "noteNumber": 75,
        "velocity": 96
    },
    {
        "track": 1,
        "absoluteTick": 87600,
        "noteNumber": 42,
        "velocity": 96
    },
    {
        "track": 1,
        "absoluteTick": 87600,
        "noteNumber": 54,
        "velocity": 96
    },
    {
        "track": 0,
        "absoluteTick": 87840,
        "noteNumber": 63,
        "velocity": 80
    },
    {
        "track": 0,
        "absoluteTick": 87840,
        "noteNumber": 75,
        "velocity": 80
    },
    {
        "track": 1,
        "absoluteTick": 87840,
        "noteNumber": 30,
        "velocity": 96
    },
    {
        "track": 1,
        "absoluteTick": 87840,
        "noteNumber": 42,
        "velocity": 96
    },
    {
        "track": 0,
        "absoluteTick": 88080,
        "noteNumber": 57,
        "velocity": 96
    },
    {
        "track": 0,
        "absoluteTick": 88080,
        "noteNumber": 69,
        "velocity": 96
    },
    {
        "track": 0,
        "absoluteTick": 88320,
        "noteNumber": 56,
        "velocity": 96
    },
    {
        "track": 0,
        "absoluteTick": 88320,
        "noteNumber": 68,
        "velocity": 96
    },
    {
        "track": 0,
        "absoluteTick": 88560,
        "noteNumber": 57,
        "velocity": 96
    },
    {
        "track": 0,
        "absoluteTick": 88560,
        "noteNumber": 69,
        "velocity": 96
    },
    {
        "track": 0,
        "absoluteTick": 89040,
        "noteNumber": 56,
        "velocity": 96
    },
    {
        "track": 0,
        "absoluteTick": 89040,
        "noteNumber": 68,
        "velocity": 96
    },
    {
        "track": 0,
        "absoluteTick": 89280,
        "noteNumber": 52,
        "velocity": 96
    },
    {
        "track": 0,
        "absoluteTick": 89280,
        "noteNumber": 64,
        "velocity": 96
    },
    {
        "track": 1,
        "absoluteTick": 89520,
        "noteNumber": 30,
        "velocity": 96
    },
    {
        "track": 1,
        "absoluteTick": 89520,
        "noteNumber": 42,
        "velocity": 96
    },
    {
        "track": 0,
        "absoluteTick": 89760,
        "noteNumber": 56,
        "velocity": 96
    },
    {
        "track": 0,
        "absoluteTick": 89760,
        "noteNumber": 68,
        "velocity": 96
    },
    {
        "track": 1,
        "absoluteTick": 90000,
        "noteNumber": 30,
        "velocity": 96
    },
    {
        "track": 1,
        "absoluteTick": 90000,
        "noteNumber": 42,
        "velocity": 96
    },
    {
        "track": 0,
        "absoluteTick": 90240,
        "noteNumber": 51,
        "velocity": 96
    },
    {
        "track": 0,
        "absoluteTick": 90240,
        "noteNumber": 63,
        "velocity": 96
    },
    {
        "track": 1,
        "absoluteTick": 90480,
        "noteNumber": 30,
        "velocity": 96
    },
    {
        "track": 1,
        "absoluteTick": 90480,
        "noteNumber": 42,
        "velocity": 96
    },
    {
        "track": 0,
        "absoluteTick": 90720,
        "noteNumber": 68,
        "velocity": 80
    },
    {
        "track": 0,
        "absoluteTick": 90720,
        "noteNumber": 80,
        "velocity": 80
    },
    {
        "track": 1,
        "absoluteTick": 90720,
        "noteNumber": 32,
        "velocity": 96
    },
    {
        "track": 1,
        "absoluteTick": 90720,
        "noteNumber": 44,
        "velocity": 96
    },
    {
        "track": 0,
        "absoluteTick": 90960,
        "noteNumber": 62,
        "velocity": 96
    },
    {
        "track": 0,
        "absoluteTick": 90960,
        "noteNumber": 74,
        "velocity": 96
    },
    {
        "track": 0,
        "absoluteTick": 91200,
        "noteNumber": 61,
        "velocity": 96
    },
    {
        "track": 0,
        "absoluteTick": 91200,
        "noteNumber": 73,
        "velocity": 96
    },
    {
        "track": 0,
        "absoluteTick": 91440,
        "noteNumber": 62,
        "velocity": 96
    },
    {
        "track": 0,
        "absoluteTick": 91440,
        "noteNumber": 74,
        "velocity": 96
    },
    {
        "track": 1,
        "absoluteTick": 91440,
        "noteNumber": 32,
        "velocity": 96
    },
    {
        "track": 1,
        "absoluteTick": 91440,
        "noteNumber": 44,
        "velocity": 96
    },
    {
        "track": 0,
        "absoluteTick": 91920,
        "noteNumber": 61,
        "velocity": 96
    },
    {
        "track": 0,
        "absoluteTick": 91920,
        "noteNumber": 73,
        "velocity": 96
    },
    {
        "track": 0,
        "absoluteTick": 92160,
        "noteNumber": 56,
        "velocity": 96
    },
    {
        "track": 0,
        "absoluteTick": 92160,
        "noteNumber": 68,
        "velocity": 96
    },
    {
        "track": 1,
        "absoluteTick": 92160,
        "noteNumber": 32,
        "velocity": 96
    },
    {
        "track": 1,
        "absoluteTick": 92160,
        "noteNumber": 44,
        "velocity": 96
    },
    {
        "track": 0,
        "absoluteTick": 92640,
        "noteNumber": 61,
        "velocity": 96
    },
    {
        "track": 0,
        "absoluteTick": 92640,
        "noteNumber": 73,
        "velocity": 96
    },
    {
        "track": 1,
        "absoluteTick": 92880,
        "noteNumber": 32,
        "velocity": 96
    },
    {
        "track": 1,
        "absoluteTick": 92880,
        "noteNumber": 44,
        "velocity": 96
    },
    {
        "track": 0,
        "absoluteTick": 93120,
        "noteNumber": 55,
        "velocity": 96
    },
    {
        "track": 0,
        "absoluteTick": 93120,
        "noteNumber": 67,
        "velocity": 96
    },
    {
        "track": 0,
        "absoluteTick": 93600,
        "noteNumber": 68,
        "velocity": 80
    },
    {
        "track": 0,
        "absoluteTick": 93600,
        "noteNumber": 80,
        "velocity": 80
    },
    {
        "track": 1,
        "absoluteTick": 93600,
        "noteNumber": 32,
        "velocity": 96
    },
    {
        "track": 1,
        "absoluteTick": 93600,
        "noteNumber": 44,
        "velocity": 96
    },
    {
        "track": 0,
        "absoluteTick": 93840,
        "noteNumber": 62,
        "velocity": 96
    },
    {
        "track": 0,
        "absoluteTick": 93840,
        "noteNumber": 74,
        "velocity": 96
    },
    {
        "track": 0,
        "absoluteTick": 94080,
        "noteNumber": 61,
        "velocity": 96
    },
    {
        "track": 0,
        "absoluteTick": 94080,
        "noteNumber": 73,
        "velocity": 96
    },
    {
        "track": 0,
        "absoluteTick": 94320,
        "noteNumber": 62,
        "velocity": 96
    },
    {
        "track": 0,
        "absoluteTick": 94320,
        "noteNumber": 74,
        "velocity": 96
    },
    {
        "track": 1,
        "absoluteTick": 94320,
        "noteNumber": 32,
        "velocity": 96
    },
    {
        "track": 1,
        "absoluteTick": 94320,
        "noteNumber": 44,
        "velocity": 96
    },
    {
        "track": 0,
        "absoluteTick": 94800,
        "noteNumber": 61,
        "velocity": 96
    },
    {
        "track": 0,
        "absoluteTick": 94800,
        "noteNumber": 73,
        "velocity": 96
    },
    {
        "track": 0,
        "absoluteTick": 95040,
        "noteNumber": 56,
        "velocity": 96
    },
    {
        "track": 0,
        "absoluteTick": 95040,
        "noteNumber": 68,
        "velocity": 96
    },
    {
        "track": 1,
        "absoluteTick": 95040,
        "noteNumber": 32,
        "velocity": 96
    },
    {
        "track": 1,
        "absoluteTick": 95040,
        "noteNumber": 44,
        "velocity": 96
    },
    {
        "track": 0,
        "absoluteTick": 95520,
        "noteNumber": 61,
        "velocity": 96
    },
    {
        "track": 0,
        "absoluteTick": 95520,
        "noteNumber": 73,
        "velocity": 96
    },
    {
        "track": 1,
        "absoluteTick": 95760,
        "noteNumber": 32,
        "velocity": 96
    },
    {
        "track": 1,
        "absoluteTick": 95760,
        "noteNumber": 44,
        "velocity": 96
    },
    {
        "track": 0,
        "absoluteTick": 96000,
        "noteNumber": 55,
        "velocity": 96
    },
    {
        "track": 0,
        "absoluteTick": 96000,
        "noteNumber": 67,
        "velocity": 96
    },
    {
        "track": 0,
        "absoluteTick": 96480,
        "noteNumber": 74,
        "velocity": 96
    },
    {
        "track": 0,
        "absoluteTick": 96480,
        "noteNumber": 80,
        "velocity": 96
    },
    {
        "track": 0,
        "absoluteTick": 96480,
        "noteNumber": 84,
        "velocity": 96
    },
    {
        "track": 0,
        "absoluteTick": 96480,
        "noteNumber": 86,
        "velocity": 96
    },
    {
        "track": 1,
        "absoluteTick": 96480,
        "noteNumber": 32,
        "velocity": 96
    },
    {
        "track": 1,
        "absoluteTick": 96480,
        "noteNumber": 44,
        "velocity": 96
    },
    {
        "track": 0,
        "absoluteTick": 97200,
        "noteNumber": 74,
        "velocity": 96
    },
    {
        "track": 0,
        "absoluteTick": 97200,
        "noteNumber": 80,
        "velocity": 96
    },
    {
        "track": 0,
        "absoluteTick": 97200,
        "noteNumber": 84,
        "velocity": 96
    },
    {
        "track": 0,
        "absoluteTick": 97200,
        "noteNumber": 86,
        "velocity": 96
    },
    {
        "track": 1,
        "absoluteTick": 97200,
        "noteNumber": 32,
        "velocity": 96
    },
    {
        "track": 1,
        "absoluteTick": 97200,
        "noteNumber": 44,
        "velocity": 96
    },
    {
        "track": 0,
        "absoluteTick": 97920,
        "noteNumber": 74,
        "velocity": 96
    },
    {
        "track": 0,
        "absoluteTick": 97920,
        "noteNumber": 80,
        "velocity": 96
    },
    {
        "track": 0,
        "absoluteTick": 97920,
        "noteNumber": 84,
        "velocity": 96
    },
    {
        "track": 0,
        "absoluteTick": 97920,
        "noteNumber": 86,
        "velocity": 96
    },
    {
        "track": 1,
        "absoluteTick": 97920,
        "noteNumber": 32,
        "velocity": 96
    },
    {
        "track": 1,
        "absoluteTick": 97920,
        "noteNumber": 44,
        "velocity": 96
    },
    {
        "track": 0,
        "absoluteTick": 98640,
        "noteNumber": 74,
        "velocity": 96
    },
    {
        "track": 0,
        "absoluteTick": 98640,
        "noteNumber": 80,
        "velocity": 96
    },
    {
        "track": 0,
        "absoluteTick": 98640,
        "noteNumber": 84,
        "velocity": 96
    },
    {
        "track": 0,
        "absoluteTick": 98640,
        "noteNumber": 86,
        "velocity": 96
    },
    {
        "track": 1,
        "absoluteTick": 98640,
        "noteNumber": 32,
        "velocity": 96
    },
    {
        "track": 1,
        "absoluteTick": 98640,
        "noteNumber": 44,
        "velocity": 96
    },
    {
        "track": 0,
        "absoluteTick": 99360,
        "noteNumber": 74,
        "velocity": 96
    },
    {
        "track": 0,
        "absoluteTick": 99360,
        "noteNumber": 80,
        "velocity": 96
    },
    {
        "track": 0,
        "absoluteTick": 99360,
        "noteNumber": 84,
        "velocity": 96
    },
    {
        "track": 0,
        "absoluteTick": 99360,
        "noteNumber": 86,
        "velocity": 96
    },
    {
        "track": 1,
        "absoluteTick": 99360,
        "noteNumber": 44,
        "velocity": 80
    },
    {
        "track": 1,
        "absoluteTick": 99600,
        "noteNumber": 43,
        "velocity": 81
    },
    {
        "track": 1,
        "absoluteTick": 99840,
        "noteNumber": 44,
        "velocity": 82
    },
    {
        "track": 0,
        "absoluteTick": 100080,
        "noteNumber": 77,
        "velocity": 100
    },
    {
        "track": 0,
        "absoluteTick": 100080,
        "noteNumber": 80,
        "velocity": 100
    },
    {
        "track": 0,
        "absoluteTick": 100080,
        "noteNumber": 86,
        "velocity": 100
    },
    {
        "track": 0,
        "absoluteTick": 100080,
        "noteNumber": 89,
        "velocity": 100
    },
    {
        "track": 1,
        "absoluteTick": 100080,
        "noteNumber": 47,
        "velocity": 84
    },
    {
        "track": 1,
        "absoluteTick": 100320,
        "noteNumber": 44,
        "velocity": 85
    },
    {
        "track": 1,
        "absoluteTick": 100560,
        "noteNumber": 47,
        "velocity": 86
    },
    {
        "track": 0,
        "absoluteTick": 100800,
        "noteNumber": 77,
        "velocity": 105
    },
    {
        "track": 0,
        "absoluteTick": 100800,
        "noteNumber": 80,
        "velocity": 105
    },
    {
        "track": 0,
        "absoluteTick": 100800,
        "noteNumber": 86,
        "velocity": 105
    },
    {
        "track": 0,
        "absoluteTick": 100800,
        "noteNumber": 89,
        "velocity": 105
    },
    {
        "track": 1,
        "absoluteTick": 100800,
        "noteNumber": 48,
        "velocity": 88
    },
    {
        "track": 1,
        "absoluteTick": 101040,
        "noteNumber": 47,
        "velocity": 89
    },
    {
        "track": 1,
        "absoluteTick": 101280,
        "noteNumber": 48,
        "velocity": 90
    },
    {
        "track": 0,
        "absoluteTick": 101520,
        "noteNumber": 77,
        "velocity": 110
    },
    {
        "track": 0,
        "absoluteTick": 101520,
        "noteNumber": 86,
        "velocity": 110
    },
    {
        "track": 0,
        "absoluteTick": 101520,
        "noteNumber": 89,
        "velocity": 110
    },
    {
        "track": 1,
        "absoluteTick": 101520,
        "noteNumber": 38,
        "velocity": 92
    },
    {
        "track": 1,
        "absoluteTick": 101520,
        "noteNumber": 50,
        "velocity": 92
    },
    {
        "track": 1,
        "absoluteTick": 101760,
        "noteNumber": 43,
        "velocity": 93
    },
    {
        "track": 1,
        "absoluteTick": 101760,
        "noteNumber": 55,
        "velocity": 93
    },
    {
        "track": 1,
        "absoluteTick": 102000,
        "noteNumber": 47,
        "velocity": 94
    },
    {
        "track": 1,
        "absoluteTick": 102000,
        "noteNumber": 59,
        "velocity": 94
    },
    {
        "track": 0,
        "absoluteTick": 102240,
        "noteNumber": 72,
        "velocity": 115
    },
    {
        "track": 0,
        "absoluteTick": 102240,
        "noteNumber": 84,
        "velocity": 115
    },
    {
        "track": 1,
        "absoluteTick": 102240,
        "noteNumber": 36,
        "velocity": 115
    },
    {
        "track": 1,
        "absoluteTick": 102240,
        "noteNumber": 48,
        "velocity": 115
    },
    {
        "track": 0,
        "absoluteTick": 102480,
        "noteNumber": 68,
        "velocity": 96
    },
    {
        "track": 1,
        "absoluteTick": 102600,
        "noteNumber": 56,
        "velocity": 96
    },
    {
        "track": 0,
        "absoluteTick": 102720,
        "noteNumber": 67,
        "velocity": 96
    },
    {
        "track": 1,
        "absoluteTick": 102840,
        "noteNumber": 55,
        "velocity": 96
    },
    {
        "track": 0,
        "absoluteTick": 102960,
        "noteNumber": 68,
        "velocity": 96
    },
    {
        "track": 1,
        "absoluteTick": 103080,
        "noteNumber": 56,
        "velocity": 96
    },
    {
        "track": 0,
        "absoluteTick": 103200,
        "noteNumber": 67,
        "velocity": 96
    },
    {
        "track": 1,
        "absoluteTick": 103320,
        "noteNumber": 55,
        "velocity": 96
    },
    {
        "track": 0,
        "absoluteTick": 103440,
        "noteNumber": 65,
        "velocity": 96
    },
    {
        "track": 1,
        "absoluteTick": 103560,
        "noteNumber": 53,
        "velocity": 96
    },
    {
        "track": 0,
        "absoluteTick": 103680,
        "noteNumber": 67,
        "velocity": 96
    },
    {
        "track": 1,
        "absoluteTick": 103800,
        "noteNumber": 55,
        "velocity": 96
    },
    {
        "track": 0,
        "absoluteTick": 103920,
        "noteNumber": 65,
        "velocity": 96
    },
    {
        "track": 1,
        "absoluteTick": 104040,
        "noteNumber": 53,
        "velocity": 96
    },
    {
        "track": 0,
        "absoluteTick": 104160,
        "noteNumber": 63,
        "velocity": 96
    },
    {
        "track": 1,
        "absoluteTick": 104280,
        "noteNumber": 51,
        "velocity": 96
    },
    {
        "track": 0,
        "absoluteTick": 104400,
        "noteNumber": 65,
        "velocity": 96
    },
    {
        "track": 1,
        "absoluteTick": 104400,
        "noteNumber": 36,
        "velocity": 96
    },
    {
        "track": 1,
        "absoluteTick": 104400,
        "noteNumber": 48,
        "velocity": 96
    },
    {
        "track": 0,
        "absoluteTick": 104640,
        "noteNumber": 63,
        "velocity": 96
    },
    {
        "track": 1,
        "absoluteTick": 104640,
        "noteNumber": 36,
        "velocity": 96
    },
    {
        "track": 1,
        "absoluteTick": 104640,
        "noteNumber": 48,
        "velocity": 96
    },
    {
        "track": 0,
        "absoluteTick": 104880,
        "noteNumber": 62,
        "velocity": 96
    },
    {
        "track": 1,
        "absoluteTick": 104880,
        "noteNumber": 36,
        "velocity": 96
    },
    {
        "track": 1,
        "absoluteTick": 104880,
        "noteNumber": 48,
        "velocity": 96
    },
    {
        "track": 0,
        "absoluteTick": 105120,
        "noteNumber": 72,
        "velocity": 115
    },
    {
        "track": 0,
        "absoluteTick": 105120,
        "noteNumber": 84,
        "velocity": 115
    },
    {
        "track": 1,
        "absoluteTick": 105120,
        "noteNumber": 36,
        "velocity": 115
    },
    {
        "track": 1,
        "absoluteTick": 105120,
        "noteNumber": 48,
        "velocity": 115
    },
    {
        "track": 0,
        "absoluteTick": 105360,
        "noteNumber": 68,
        "velocity": 96
    },
    {
        "track": 1,
        "absoluteTick": 105480,
        "noteNumber": 56,
        "velocity": 96
    },
    {
        "track": 0,
        "absoluteTick": 105600,
        "noteNumber": 67,
        "velocity": 96
    },
    {
        "track": 1,
        "absoluteTick": 105720,
        "noteNumber": 55,
        "velocity": 96
    },
    {
        "track": 0,
        "absoluteTick": 105840,
        "noteNumber": 68,
        "velocity": 96
    },
    {
        "track": 1,
        "absoluteTick": 105960,
        "noteNumber": 56,
        "velocity": 96
    },
    {
        "track": 0,
        "absoluteTick": 106080,
        "noteNumber": 67,
        "velocity": 96
    },
    {
        "track": 1,
        "absoluteTick": 106200,
        "noteNumber": 55,
        "velocity": 96
    },
    {
        "track": 0,
        "absoluteTick": 106320,
        "noteNumber": 65,
        "velocity": 96
    },
    {
        "track": 1,
        "absoluteTick": 106440,
        "noteNumber": 53,
        "velocity": 96
    },
    {
        "track": 0,
        "absoluteTick": 106560,
        "noteNumber": 67,
        "velocity": 96
    },
    {
        "track": 1,
        "absoluteTick": 106680,
        "noteNumber": 55,
        "velocity": 96
    },
    {
        "track": 0,
        "absoluteTick": 106800,
        "noteNumber": 65,
        "velocity": 96
    },
    {
        "track": 1,
        "absoluteTick": 106920,
        "noteNumber": 53,
        "velocity": 96
    },
    {
        "track": 0,
        "absoluteTick": 107040,
        "noteNumber": 63,
        "velocity": 96
    },
    {
        "track": 1,
        "absoluteTick": 107160,
        "noteNumber": 51,
        "velocity": 96
    },
    {
        "track": 0,
        "absoluteTick": 107280,
        "noteNumber": 65,
        "velocity": 96
    },
    {
        "track": 1,
        "absoluteTick": 107280,
        "noteNumber": 36,
        "velocity": 96
    },
    {
        "track": 1,
        "absoluteTick": 107280,
        "noteNumber": 48,
        "velocity": 96
    },
    {
        "track": 0,
        "absoluteTick": 107400,
        "noteNumber": 67,
        "velocity": 96
    },
    {
        "track": 0,
        "absoluteTick": 107520,
        "noteNumber": 68,
        "velocity": 96
    },
    {
        "track": 1,
        "absoluteTick": 107520,
        "noteNumber": 36,
        "velocity": 96
    },
    {
        "track": 1,
        "absoluteTick": 107520,
        "noteNumber": 48,
        "velocity": 96
    },
    {
        "track": 0,
        "absoluteTick": 107640,
        "noteNumber": 69,
        "velocity": 96
    },
    {
        "track": 0,
        "absoluteTick": 107760,
        "noteNumber": 70,
        "velocity": 96
    },
    {
        "track": 1,
        "absoluteTick": 107760,
        "noteNumber": 36,
        "velocity": 96
    },
    {
        "track": 1,
        "absoluteTick": 107760,
        "noteNumber": 48,
        "velocity": 96
    },
    {
        "track": 0,
        "absoluteTick": 107880,
        "noteNumber": 71,
        "velocity": 96
    },
    {
        "track": 0,
        "absoluteTick": 108000,
        "noteNumber": 72,
        "velocity": 115
    },
    {
        "track": 0,
        "absoluteTick": 108000,
        "noteNumber": 84,
        "velocity": 115
    },
    {
        "track": 1,
        "absoluteTick": 108000,
        "noteNumber": 36,
        "velocity": 115
    },
    {
        "track": 1,
        "absoluteTick": 108000,
        "noteNumber": 48,
        "velocity": 115
    },
    {
        "track": 0,
        "absoluteTick": 108240,
        "noteNumber": 68,
        "velocity": 96
    },
    {
        "track": 1,
        "absoluteTick": 108360,
        "noteNumber": 56,
        "velocity": 96
    },
    {
        "track": 0,
        "absoluteTick": 108480,
        "noteNumber": 67,
        "velocity": 96
    },
    {
        "track": 1,
        "absoluteTick": 108600,
        "noteNumber": 55,
        "velocity": 96
    },
    {
        "track": 0,
        "absoluteTick": 108720,
        "noteNumber": 68,
        "velocity": 96
    },
    {
        "track": 1,
        "absoluteTick": 108840,
        "noteNumber": 56,
        "velocity": 96
    },
    {
        "track": 0,
        "absoluteTick": 108960,
        "noteNumber": 67,
        "velocity": 96
    },
    {
        "track": 1,
        "absoluteTick": 109080,
        "noteNumber": 55,
        "velocity": 96
    },
    {
        "track": 0,
        "absoluteTick": 109200,
        "noteNumber": 65,
        "velocity": 96
    },
    {
        "track": 1,
        "absoluteTick": 109320,
        "noteNumber": 53,
        "velocity": 96
    },
    {
        "track": 0,
        "absoluteTick": 109440,
        "noteNumber": 67,
        "velocity": 96
    },
    {
        "track": 1,
        "absoluteTick": 109560,
        "noteNumber": 55,
        "velocity": 96
    },
    {
        "track": 0,
        "absoluteTick": 109680,
        "noteNumber": 65,
        "velocity": 96
    },
    {
        "track": 1,
        "absoluteTick": 109800,
        "noteNumber": 53,
        "velocity": 96
    },
    {
        "track": 0,
        "absoluteTick": 109920,
        "noteNumber": 63,
        "velocity": 96
    },
    {
        "track": 1,
        "absoluteTick": 110040,
        "noteNumber": 51,
        "velocity": 96
    },
    {
        "track": 0,
        "absoluteTick": 110160,
        "noteNumber": 65,
        "velocity": 96
    },
    {
        "track": 1,
        "absoluteTick": 110280,
        "noteNumber": 53,
        "velocity": 96
    },
    {
        "track": 0,
        "absoluteTick": 110400,
        "noteNumber": 63,
        "velocity": 96
    },
    {
        "track": 1,
        "absoluteTick": 110520,
        "noteNumber": 51,
        "velocity": 96
    },
    {
        "track": 0,
        "absoluteTick": 110640,
        "noteNumber": 62,
        "velocity": 96
    },
    {
        "track": 1,
        "absoluteTick": 110760,
        "noteNumber": 50,
        "velocity": 96
    },
    {
        "track": 0,
        "absoluteTick": 110880,
        "noteNumber": 75,
        "velocity": 96
    },
    {
        "track": 1,
        "absoluteTick": 110880,
        "noteNumber": 48,
        "velocity": 96
    },
    {
        "track": 0,
        "absoluteTick": 111000,
        "noteNumber": 63,
        "velocity": 96
    },
    {
        "track": 0,
        "absoluteTick": 111120,
        "noteNumber": 74,
        "velocity": 96
    },
    {
        "track": 0,
        "absoluteTick": 111240,
        "noteNumber": 62,
        "velocity": 96
    },
    {
        "track": 0,
        "absoluteTick": 111360,
        "noteNumber": 72,
        "velocity": 96
    },
    {
        "track": 1,
        "absoluteTick": 111360,
        "noteNumber": 48,
        "velocity": 96
    },
    {
        "track": 0,
        "absoluteTick": 111480,
        "noteNumber": 60,
        "velocity": 96
    },
    {
        "track": 0,
        "absoluteTick": 111600,
        "noteNumber": 74,
        "velocity": 96
    },
    {
        "track": 0,
        "absoluteTick": 111720,
        "noteNumber": 62,
        "velocity": 96
    },
    {
        "track": 0,
        "absoluteTick": 111840,
        "noteNumber": 72,
        "velocity": 96
    },
    {
        "track": 1,
        "absoluteTick": 111840,
        "noteNumber": 48,
        "velocity": 96
    },
    {
        "track": 0,
        "absoluteTick": 111960,
        "noteNumber": 60,
        "velocity": 96
    },
    {
        "track": 0,
        "absoluteTick": 112080,
        "noteNumber": 70,
        "velocity": 96
    },
    {
        "track": 0,
        "absoluteTick": 112200,
        "noteNumber": 58,
        "velocity": 96
    },
    {
        "track": 0,
        "absoluteTick": 112320,
        "noteNumber": 72,
        "velocity": 96
    },
    {
        "track": 1,
        "absoluteTick": 112320,
        "noteNumber": 48,
        "velocity": 96
    },
    {
        "track": 0,
        "absoluteTick": 112440,
        "noteNumber": 60,
        "velocity": 96
    },
    {
        "track": 0,
        "absoluteTick": 112560,
        "noteNumber": 70,
        "velocity": 96
    },
    {
        "track": 0,
        "absoluteTick": 112680,
        "noteNumber": 58,
        "velocity": 96
    },
    {
        "track": 0,
        "absoluteTick": 112800,
        "noteNumber": 68,
        "velocity": 96
    },
    {
        "track": 1,
        "absoluteTick": 112800,
        "noteNumber": 48,
        "velocity": 96
    },
    {
        "track": 0,
        "absoluteTick": 112920,
        "noteNumber": 56,
        "velocity": 96
    },
    {
        "track": 0,
        "absoluteTick": 113040,
        "noteNumber": 67,
        "velocity": 96
    },
    {
        "track": 0,
        "absoluteTick": 113160,
        "noteNumber": 55,
        "velocity": 96
    },
    {
        "track": 0,
        "absoluteTick": 113280,
        "noteNumber": 65,
        "velocity": 96
    },
    {
        "track": 1,
        "absoluteTick": 113280,
        "noteNumber": 48,
        "velocity": 96
    },
    {
        "track": 0,
        "absoluteTick": 113400,
        "noteNumber": 53,
        "velocity": 96
    },
    {
        "track": 0,
        "absoluteTick": 113520,
        "noteNumber": 63,
        "velocity": 96
    },
    {
        "track": 0,
        "absoluteTick": 113640,
        "noteNumber": 51,
        "velocity": 96
    },
    {
        "track": 0,
        "absoluteTick": 113760,
        "noteNumber": 62,
        "velocity": 96
    },
    {
        "track": 1,
        "absoluteTick": 113760,
        "noteNumber": 38,
        "velocity": 96
    },
    {
        "track": 1,
        "absoluteTick": 113880,
        "noteNumber": 50,
        "velocity": 96
    },
    {
        "track": 1,
        "absoluteTick": 114000,
        "noteNumber": 38,
        "velocity": 97
    },
    {
        "track": 1,
        "absoluteTick": 114120,
        "noteNumber": 50,
        "velocity": 98
    },
    {
        "track": 1,
        "absoluteTick": 114240,
        "noteNumber": 38,
        "velocity": 98
    },
    {
        "track": 1,
        "absoluteTick": 114360,
        "noteNumber": 50,
        "velocity": 99
    },
    {
        "track": 0,
        "absoluteTick": 114480,
        "noteNumber": 57,
        "velocity": 100
    },
    {
        "track": 0,
        "absoluteTick": 114480,
        "noteNumber": 66,
        "velocity": 100
    },
    {
        "track": 1,
        "absoluteTick": 114480,
        "noteNumber": 38,
        "velocity": 100
    },
    {
        "track": 1,
        "absoluteTick": 114600,
        "noteNumber": 50,
        "velocity": 100
    },
    {
        "track": 1,
        "absoluteTick": 114720,
        "noteNumber": 38,
        "velocity": 101
    },
    {
        "track": 1,
        "absoluteTick": 114840,
        "noteNumber": 50,
        "velocity": 102
    },
    {
        "track": 1,
        "absoluteTick": 114960,
        "noteNumber": 38,
        "velocity": 102
    },
    {
        "track": 1,
        "absoluteTick": 115080,
        "noteNumber": 50,
        "velocity": 103
    },
    {
        "track": 0,
        "absoluteTick": 115200,
        "noteNumber": 59,
        "velocity": 104
    },
    {
        "track": 0,
        "absoluteTick": 115200,
        "noteNumber": 67,
        "velocity": 104
    },
    {
        "track": 1,
        "absoluteTick": 115200,
        "noteNumber": 43,
        "velocity": 104
    },
    {
        "track": 1,
        "absoluteTick": 115320,
        "noteNumber": 55,
        "velocity": 104
    },
    {
        "track": 1,
        "absoluteTick": 115440,
        "noteNumber": 43,
        "velocity": 105
    },
    {
        "track": 1,
        "absoluteTick": 115560,
        "noteNumber": 55,
        "velocity": 106
    },
    {
        "track": 1,
        "absoluteTick": 115680,
        "noteNumber": 43,
        "velocity": 106
    },
    {
        "track": 1,
        "absoluteTick": 115800,
        "noteNumber": 55,
        "velocity": 107
    },
    {
        "track": 0,
        "absoluteTick": 115920,
        "noteNumber": 62,
        "velocity": 108
    },
    {
        "track": 0,
        "absoluteTick": 115920,
        "noteNumber": 71,
        "velocity": 108
    },
    {
        "track": 1,
        "absoluteTick": 115920,
        "noteNumber": 43,
        "velocity": 108
    },
    {
        "track": 1,
        "absoluteTick": 116040,
        "noteNumber": 55,
        "velocity": 108
    },
    {
        "track": 1,
        "absoluteTick": 116160,
        "noteNumber": 43,
        "velocity": 109
    },
    {
        "track": 1,
        "absoluteTick": 116280,
        "noteNumber": 55,
        "velocity": 110
    },
    {
        "track": 1,
        "absoluteTick": 116400,
        "noteNumber": 43,
        "velocity": 110
    },
    {
        "track": 0,
        "absoluteTick": 116640,
        "noteNumber": 63,
        "velocity": 127
    },
    {
        "track": 0,
        "absoluteTick": 116640,
        "noteNumber": 72,
        "velocity": 127
    },
    {
        "track": 1,
        "absoluteTick": 116640,
        "noteNumber": 36,
        "velocity": 127
    },
    {
        "track": 1,
        "absoluteTick": 116640,
        "noteNumber": 48,
        "velocity": 127
    }
]