=== REPORTE Composed by Christopher Larkin_Arranged by Tanner Fiori (Piano Originals) - Widow ===
---------------------------------------------
>>> PARAMETROS <<<
---------------------------------------------
>>> RESUMEN DE NOTAS <<<
total de notas       : 2316
rango de tessitura  : 28 to 100
duracion en ticks  : 159360
polifonia  : 660 (ticks con notas sobrepuestas)
densidad ritmica  : 6.98 notas por beat
---------------------------------------------
>>> datos adicionales <<<
[
    {
        "track": 0,
        "absoluteTick": 0,
        "noteNumber": 64,
        "velocity": 126
    },
    {
        "track": 0,
        "absoluteTick": 0,
        "noteNumber": 71,
        "velocity": 126
    },
    {
        "track": 0,
        "absoluteTick": 0,
        "noteNumber": 76,
        "velocity": 126
    },
    {
        "track": 1,
        "absoluteTick": 0,
        "noteNumber": 28,
        "velocity": 126
    },
    {
        "track": 1,
        "absoluteTick": 0,
        "noteNumber": 40,
        "velocity": 126
    },
    {
        "track": 0,
        "absoluteTick": 240,
        "noteNumber": 64,
        "velocity": 117
    },
    {
        "track": 0,
        "absoluteTick": 240,
        "noteNumber": 71,
        "velocity": 117
    },
    {
        "track": 0,
        "absoluteTick": 240,
        "noteNumber": 76,
        "velocity": 117
    },
    {
        "track": 1,
        "absoluteTick": 480,
        "noteNumber": 50,
        "velocity": 96
    },
    {
        "track": 1,
        "absoluteTick": 480,
        "noteNumber": 62,
        "velocity": 96
    },
    {
        "track": 1,
        "absoluteTick": 600,
        "noteNumber": 62,
        "velocity": 96
    },
    {
        "track": 1,
        "absoluteTick": 600,
        "noteNumber": 74,
        "velocity": 96
    },
    {
        "track": 1,
        "absoluteTick": 720,
        "noteNumber": 47,
        "velocity": 96
    },
    {
        "track": 1,
        "absoluteTick": 720,
        "noteNumber": 59,
        "velocity": 96
    },
    {
        "track": 1,
        "absoluteTick": 840,
        "noteNumber": 59,
        "velocity": 96
    },
    {
        "track": 1,
        "absoluteTick": 840,
        "noteNumber": 71,
        "velocity": 96
    },
    {
        "track": 1,
        "absoluteTick": 960,
        "noteNumber": 48,
        "velocity": 96
    },
    {
        "track": 1,
        "absoluteTick": 960,
        "noteNumber": 60,
        "velocity": 96
    },
    {
        "track": 1,
        "absoluteTick": 1080,
        "noteNumber": 60,
        "velocity": 96
    },
    {
        "track": 1,
        "absoluteTick": 1080,
        "noteNumber": 72,
        "velocity": 96
    },
    {
        "track": 1,
        "absoluteTick": 1200,
        "noteNumber": 50,
        "velocity": 96
    },
    {
        "track": 1,
        "absoluteTick": 1200,
        "noteNumber": 62,
        "velocity": 96
    },
    {
        "track": 1,
        "absoluteTick": 1320,
        "noteNumber": 62,
        "velocity": 96
    },
    {
        "track": 1,
        "absoluteTick": 1320,
        "noteNumber": 74,
        "velocity": 96
    },
    {
        "track": 1,
        "absoluteTick": 1440,
        "noteNumber": 48,
        "velocity": 96
    },
    {
        "track": 1,
        "absoluteTick": 1440,
        "noteNumber": 60,
        "velocity": 96
    },
    {
        "track": 1,
        "absoluteTick": 1560,
        "noteNumber": 60,
        "velocity": 96
    },
    {
        "track": 1,
        "absoluteTick": 1560,
        "noteNumber": 72,
        "velocity": 96
    },
    {
        "track": 1,
        "absoluteTick": 1680,
        "noteNumber": 47,
        "velocity": 96
    },
    {
        "track": 1,
        "absoluteTick": 1680,
        "noteNumber": 59,
        "velocity": 96
    },
    {
        "track": 1,
        "absoluteTick": 1800,
        "noteNumber": 59,
        "velocity": 96
    },
    {
        "track": 1,
        "absoluteTick": 1800,
        "noteNumber": 71,
        "velocity": 96
    },
    {
        "track": 1,
        "absoluteTick": 1920,
        "noteNumber": 46,
        "velocity": 96
    },
    {
        "track": 1,
        "absoluteTick": 1920,
        "noteNumber": 58,
        "velocity": 96
    },
    {
        "track": 1,
        "absoluteTick": 2040,
        "noteNumber": 58,
        "velocity": 96
    },
    {
        "track": 1,
        "absoluteTick": 2040,
        "noteNumber": 70,
        "velocity": 96
    },
    {
        "track": 1,
        "absoluteTick": 2160,
        "noteNumber": 47,
        "velocity": 96
    },
    {
        "track": 1,
        "absoluteTick": 2160,
        "noteNumber": 59,
        "velocity": 96
    },
    {
        "track": 1,
        "absoluteTick": 2280,
        "noteNumber": 59,
        "velocity": 96
    },
    {
        "track": 1,
        "absoluteTick": 2280,
        "noteNumber": 71,
        "velocity": 96
    },
    {
        "track": 1,
        "absoluteTick": 2400,
        "noteNumber": 46,
        "velocity": 96
    },
    {
        "track": 1,
        "absoluteTick": 2400,
        "noteNumber": 58,
        "velocity": 96
    },
    {
        "track": 1,
        "absoluteTick": 2520,
        "noteNumber": 58,
        "velocity": 96
    },
    {
        "track": 1,
        "absoluteTick": 2520,
        "noteNumber": 70,
        "velocity": 96
    },
    {
        "track": 1,
        "absoluteTick": 2640,
        "noteNumber": 45,
        "velocity": 96
    },
    {
        "track": 1,
        "absoluteTick": 2640,
        "noteNumber": 57,
        "velocity": 96
    },
    {
        "track": 1,
        "absoluteTick": 2760,
        "noteNumber": 57,
        "velocity": 96
    },
    {
        "track": 1,
        "absoluteTick": 2760,
        "noteNumber": 69,
        "velocity": 96
    },
    {
        "track": 1,
        "absoluteTick": 2880,
        "noteNumber": 44,
        "velocity": 96
    },
    {
        "track": 1,
        "absoluteTick": 2880,
        "noteNumber": 56,
        "velocity": 96
    },
    {
        "track": 1,
        "absoluteTick": 3000,
        "noteNumber": 56,
        "velocity": 96
    },
    {
        "track": 1,
        "absoluteTick": 3000,
        "noteNumber": 68,
        "velocity": 96
    },
    {
        "track": 1,
        "absoluteTick": 3120,
        "noteNumber": 45,
        "velocity": 96
    },
    {
        "track": 1,
        "absoluteTick": 3120,
        "noteNumber": 57,
        "velocity": 96
    },
    {
        "track": 1,
        "absoluteTick": 3240,
        "noteNumber": 57,
        "velocity": 96
    },
    {
        "track": 1,
        "absoluteTick": 3240,
        "noteNumber": 69,
        "velocity": 96
    },
    {
        "track": 1,
        "absoluteTick": 3360,
        "noteNumber": 44,
        "velocity": 96
    },
    {
        "track": 1,
        "absoluteTick": 3360,
        "noteNumber": 56,
        "velocity": 96
    },
    {
        "track": 1,
        "absoluteTick": 3480,
        "noteNumber": 56,
        "velocity": 96
    },
    {
        "track": 1,
        "absoluteTick": 3480,
        "noteNumber": 68,
        "velocity": 96
    },
    {
        "track": 1,
        "absoluteTick": 3600,
        "noteNumber": 41,
        "velocity": 96
    },
    {
        "track": 1,
        "absoluteTick": 3600,
        "noteNumber": 53,
        "velocity": 96
    },
    {
        "track": 1,
        "absoluteTick": 3720,
        "noteNumber": 53,
        "velocity": 96
    },
    {
        "track": 1,
        "absoluteTick": 3720,
        "noteNumber": 65,
        "velocity": 96
    },
    {
        "track": 0,
        "absoluteTick": 3840,
        "noteNumber": 64,
        "velocity": 126
    },
    {
        "track": 0,
        "absoluteTick": 3840,
        "noteNumber": 71,
        "velocity": 126
    },
    {
        "track": 0,
        "absoluteTick": 3840,
        "noteNumber": 76,
        "velocity": 126
    },
    {
        "track": 1,
        "absoluteTick": 3840,
        "noteNumber": 28,
        "velocity": 126
    },
    {
        "track": 1,
        "absoluteTick": 3840,
        "noteNumber": 40,
        "velocity": 126
    },
    {
        "track": 0,
        "absoluteTick": 4080,
        "noteNumber": 64,
        "velocity": 117
    },
    {
        "track": 0,
        "absoluteTick": 4080,
        "noteNumber": 71,
        "velocity": 117
    },
    {
        "track": 0,
        "absoluteTick": 4080,
        "noteNumber": 76,
        "velocity": 117
    },
    {
        "track": 1,
        "absoluteTick": 4320,
        "noteNumber": 50,
        "velocity": 96
    },
    {
        "track": 1,
        "absoluteTick": 4320,
        "noteNumber": 62,
        "velocity": 96
    },
    {
        "track": 1,
        "absoluteTick": 4440,
        "noteNumber": 62,
        "velocity": 96
    },
    {
        "track": 1,
        "absoluteTick": 4440,
        "noteNumber": 74,
        "velocity": 96
    },
    {
        "track": 1,
        "absoluteTick": 4560,
        "noteNumber": 47,
        "velocity": 96
    },
    {
        "track": 1,
        "absoluteTick": 4560,
        "noteNumber": 59,
        "velocity": 96
    },
    {
        "track": 1,
        "absoluteTick": 4680,
        "noteNumber": 59,
        "velocity": 96
    },
    {
        "track": 1,
        "absoluteTick": 4680,
        "noteNumber": 71,
        "velocity": 96
    },
    {
        "track": 1,
        "absoluteTick": 4800,
        "noteNumber": 48,
        "velocity": 96
    },
    {
        "track": 1,
        "absoluteTick": 4800,
        "noteNumber": 60,
        "velocity": 96
    },
    {
        "track": 1,
        "absoluteTick": 4920,
        "noteNumber": 60,
        "velocity": 96
    },
    {
        "track": 1,
        "absoluteTick": 4920,
        "noteNumber": 72,
        "velocity": 96
    },
    {
        "track": 1,
        "absoluteTick": 5040,
        "noteNumber": 50,
        "velocity": 96
    },
    {
        "track": 1,
        "absoluteTick": 5040,
        "noteNumber": 62,
        "velocity": 96
    },
    {
        "track": 1,
        "absoluteTick": 5160,
        "noteNumber": 62,
        "velocity": 96
    },
    {
        "track": 1,
        "absoluteTick": 5160,
        "noteNumber": 74,
        "velocity": 96
    },
    {
        "track": 1,
        "absoluteTick": 5280,
        "noteNumber": 48,
        "velocity": 96
    },
    {
        "track": 1,
        "absoluteTick": 5280,
        "noteNumber": 60,
        "velocity": 96
    },
    {
        "track": 1,
        "absoluteTick": 5400,
        "noteNumber": 60,
        "velocity": 96
    },
    {
        "track": 1,
        "absoluteTick": 5400,
        "noteNumber": 72,
        "velocity": 96
    },
    {
        "track": 1,
        "absoluteTick": 5520,
        "noteNumber": 47,
        "velocity": 96
    },
    {
        "track": 1,
        "absoluteTick": 5520,
        "noteNumber": 59,
        "velocity": 96
    },
    {
        "track": 1,
        "absoluteTick": 5640,
        "noteNumber": 59,
        "velocity": 96
    },
    {
        "track": 1,
        "absoluteTick": 5640,
        "noteNumber": 71,
        "velocity": 96
    },
    {
        "track": 1,
        "absoluteTick": 5760,
        "noteNumber": 46,
        "velocity": 96
    },
    {
        "track": 1,
        "absoluteTick": 5760,
        "noteNumber": 58,
        "velocity": 96
    },
    {
        "track": 1,
        "absoluteTick": 5880,
        "noteNumber": 58,
        "velocity": 96
    },
    {
        "track": 1,
        "absoluteTick": 5880,
        "noteNumber": 70,
        "velocity": 96
    },
    {
        "track": 1,
        "absoluteTick": 6000,
        "noteNumber": 47,
        "velocity": 96
    },
    {
        "track": 1,
        "absoluteTick": 6000,
        "noteNumber": 59,
        "velocity": 96
    },
    {
        "track": 1,
        "absoluteTick": 6120,
        "noteNumber": 59,
        "velocity": 96
    },
    {
        "track": 1,
        "absoluteTick": 6120,
        "noteNumber": 71,
        "velocity": 96
    },
    {
        "track": 1,
        "absoluteTick": 6240,
        "noteNumber": 46,
        "velocity": 96
    },
    {
        "track": 1,
        "absoluteTick": 6240,
        "noteNumber": 58,
        "velocity": 96
    },
    {
        "track": 1,
        "absoluteTick": 6360,
        "noteNumber": 58,
        "velocity": 96
    },
    {
        "track": 1,
        "absoluteTick": 6360,
        "noteNumber": 70,
        "velocity": 96
    },
    {
        "track": 1,
        "absoluteTick": 6480,
        "noteNumber": 45,
        "velocity": 96
    },
    {
        "track": 1,
        "absoluteTick": 6480,
        "noteNumber": 57,
        "velocity": 96
    },
    {
        "track": 1,
        "absoluteTick": 6600,
        "noteNumber": 57,
        "velocity": 96
    },
    {
        "track": 1,
        "absoluteTick": 6600,
        "noteNumber": 69,
        "velocity": 96
    },
    {
        "track": 1,
        "absoluteTick": 6720,
        "noteNumber": 44,
        "velocity": 96
    },
    {
        "track": 1,
        "absoluteTick": 6720,
        "noteNumber": 56,
        "velocity": 96
    },
    {
        "track": 1,
        "absoluteTick": 6840,
        "noteNumber": 56,
        "velocity": 96
    },
    {
        "track": 1,
        "absoluteTick": 6840,
        "noteNumber": 68,
        "velocity": 96
    },
    {
        "track": 1,
        "absoluteTick": 6960,
        "noteNumber": 45,
        "velocity": 96
    },
    {
        "track": 1,
        "absoluteTick": 6960,
        "noteNumber": 57,
        "velocity": 96
    },
    {
        "track": 1,
        "absoluteTick": 7080,
        "noteNumber": 57,
        "velocity": 96
    },
    {
        "track": 1,
        "absoluteTick": 7080,
        "noteNumber": 69,
        "velocity": 96
    },
    {
        "track": 1,
        "absoluteTick": 7200,
        "noteNumber": 44,
        "velocity": 96
    },
    {
        "track": 1,
        "absoluteTick": 7200,
        "noteNumber": 56,
        "velocity": 96
    },
    {
        "track": 1,
        "absoluteTick": 7320,
        "noteNumber": 56,
        "velocity": 96
    },
    {
        "track": 1,
        "absoluteTick": 7320,
        "noteNumber": 68,
        "velocity": 96
    },
    {
        "track": 1,
        "absoluteTick": 7440,
        "noteNumber": 41,
        "velocity": 96
    },
    {
        "track": 1,
        "absoluteTick": 7440,
        "noteNumber": 53,
        "velocity": 96
    },
    {
        "track": 1,
        "absoluteTick": 7560,
        "noteNumber": 53,
        "velocity": 96
    },
    {
        "track": 1,
        "absoluteTick": 7560,
        "noteNumber": 65,
        "velocity": 96
    },
    {
        "track": 0,
        "absoluteTick": 7680,
        "noteNumber": 64,
        "velocity": 96
    },
    {
        "track": 0,
        "absoluteTick": 7680,
        "noteNumber": 71,
        "velocity": 96
    },
    {
        "track": 0,
        "absoluteTick": 7680,
        "noteNumber": 76,
        "velocity": 96
    },
    {
        "track": 1,
        "absoluteTick": 7680,
        "noteNumber": 28,
        "velocity": 96
    },
    {
        "track": 1,
        "absoluteTick": 7680,
        "noteNumber": 40,
        "velocity": 96
    },
    {
        "track": 0,
        "absoluteTick": 7920,
        "noteNumber": 64,
        "velocity": 96
    },
    {
        "track": 0,
        "absoluteTick": 7920,
        "noteNumber": 71,
        "velocity": 96
    },
    {
        "track": 0,
        "absoluteTick": 7920,
        "noteNumber": 76,
        "velocity": 96
    },
    {
        "track": 0,
        "absoluteTick": 8160,
        "noteNumber": 74,
        "velocity": 96
    },
    {
        "track": 0,
        "absoluteTick": 8160,
        "noteNumber": 86,
        "velocity": 96
    },
    {
        "track": 1,
        "absoluteTick": 8160,
        "noteNumber": 40,
        "velocity": 96
    },
    {
        "track": 1,
        "absoluteTick": 8280,
        "noteNumber": 47,
        "velocity": 96
    },
    {
        "track": 0,
        "absoluteTick": 8400,
        "noteNumber": 71,
        "velocity": 96
    },
    {
        "track": 0,
        "absoluteTick": 8400,
        "noteNumber": 83,
        "velocity": 96
    },
    {
        "track": 1,
        "absoluteTick": 8400,
        "noteNumber": 52,
        "velocity": 96
    },
    {
        "track": 1,
        "absoluteTick": 8520,
        "noteNumber": 47,
        "velocity": 96
    },
    {
        "track": 0,
        "absoluteTick": 8640,
        "noteNumber": 72,
        "velocity": 96
    },
    {
        "track": 0,
        "absoluteTick": 8640,
        "noteNumber": 79,
        "velocity": 96
    },
    {
        "track": 0,
        "absoluteTick": 8640,
        "noteNumber": 84,
        "velocity": 96
    },
    {
        "track": 1,
        "absoluteTick": 8640,
        "noteNumber": 40,
        "velocity": 96
    },
    {
        "track": 1,
        "absoluteTick": 8760,
        "noteNumber": 47,
        "velocity": 96
    },
    {
        "track": 0,
        "absoluteTick": 8880,
        "noteNumber": 74,
        "velocity": 96
    },
    {
        "track": 0,
        "absoluteTick": 8880,
        "noteNumber": 86,
        "velocity": 96
    },
    {
        "track": 1,
        "absoluteTick": 8880,
        "noteNumber": 53,
        "velocity": 96
    },
    {
        "track": 1,
        "absoluteTick": 9000,
        "noteNumber": 47,
        "velocity": 96
    },
    {
        "track": 0,
        "absoluteTick": 9120,
        "noteNumber": 72,
        "velocity": 96
    },
    {
        "track": 0,
        "absoluteTick": 9120,
        "noteNumber": 84,
        "velocity": 96
    },
    {
        "track": 1,
        "absoluteTick": 9120,
        "noteNumber": 40,
        "velocity": 96
    },
    {
        "track": 1,
        "absoluteTick": 9240,
        "noteNumber": 47,
        "velocity": 96
    },
    {
        "track": 0,
        "absoluteTick": 9360,
        "noteNumber": 71,
        "velocity": 96
    },
    {
        "track": 0,
        "absoluteTick": 9360,
        "noteNumber": 83,
        "velocity": 96
    },
    {
        "track": 1,
        "absoluteTick": 9360,
        "noteNumber": 54,
        "velocity": 96
    },
    {
        "track": 1,
        "absoluteTick": 9480,
        "noteNumber": 47,
        "velocity": 96
    },
    {
        "track": 0,
        "absoluteTick": 9600,
        "noteNumber": 70,
        "velocity": 96
    },
    {
        "track": 0,
        "absoluteTick": 9600,
        "noteNumber": 78,
        "velocity": 96
    },
    {
        "track": 0,
        "absoluteTick": 9600,
        "noteNumber": 82,
        "velocity": 96
    },
    {
        "track": 1,
        "absoluteTick": 9600,
        "noteNumber": 40,
        "velocity": 96
    },
    {
        "track": 1,
        "absoluteTick": 9720,
        "noteNumber": 47,
        "velocity": 96
    },
    {
        "track": 0,
        "absoluteTick": 9840,
        "noteNumber": 71,
        "velocity": 96
    },
    {
        "track": 0,
        "absoluteTick": 9840,
        "noteNumber": 83,
        "velocity": 96
    },
    {
        "track": 1,
        "absoluteTick": 9840,
        "noteNumber": 55,
        "velocity": 96
    },
    {
        "track": 1,
        "absoluteTick": 9960,
        "noteNumber": 47,
        "velocity": 96
    },
    {
        "track": 0,
        "absoluteTick": 10080,
        "noteNumber": 70,
        "velocity": 96
    },
    {
        "track": 0,
        "absoluteTick": 10080,
        "noteNumber": 82,
        "velocity": 96
    },
    {
        "track": 1,
        "absoluteTick": 10080,
        "noteNumber": 40,
        "velocity": 96
    },
    {
        "track": 1,
        "absoluteTick": 10200,
        "noteNumber": 47,
        "velocity": 96
    },
    {
        "track": 0,
        "absoluteTick": 10320,
        "noteNumber": 69,
        "velocity": 96
    },
    {
        "track": 0,
        "absoluteTick": 10320,
        "noteNumber": 81,
        "velocity": 96
    },
    {
        "track": 1,
        "absoluteTick": 10320,
        "noteNumber": 56,
        "velocity": 96
    },
    {
        "track": 1,
        "absoluteTick": 10440,
        "noteNumber": 47,
        "velocity": 96
    },
    {
        "track": 0,
        "absoluteTick": 10560,
        "noteNumber": 68,
        "velocity": 96
    },
    {
        "track": 0,
        "absoluteTick": 10560,
        "noteNumber": 75,
        "velocity": 96
    },
    {
        "track": 0,
        "absoluteTick": 10560,
        "noteNumber": 80,
        "velocity": 96
    },
    {
        "track": 1,
        "absoluteTick": 10560,
        "noteNumber": 40,
        "velocity": 96
    },
    {
        "track": 1,
        "absoluteTick": 10680,
        "noteNumber": 47,
        "velocity": 96
    },
    {
        "track": 0,
        "absoluteTick": 10800,
        "noteNumber": 69,
        "velocity": 96
    },
    {
        "track": 0,
        "absoluteTick": 10800,
        "noteNumber": 81,
        "velocity": 96
    },
    {
        "track": 1,
        "absoluteTick": 10800,
        "noteNumber": 57,
        "velocity": 96
    },
    {
        "track": 1,
        "absoluteTick": 10920,
        "noteNumber": 47,
        "velocity": 96
    },
    {
        "track": 0,
        "absoluteTick": 11040,
        "noteNumber": 68,
        "velocity": 96
    },
    {
        "track": 0,
        "absoluteTick": 11040,
        "noteNumber": 80,
        "velocity": 96
    },
    {
        "track": 1,
        "absoluteTick": 11040,
        "noteNumber": 40,
        "velocity": 96
    },
    {
        "track": 1,
        "absoluteTick": 11160,
        "noteNumber": 47,
        "velocity": 96
    },
    {
        "track": 0,
        "absoluteTick": 11280,
        "noteNumber": 65,
        "velocity": 96
    },
    {
        "track": 0,
        "absoluteTick": 11280,
        "noteNumber": 77,
        "velocity": 96
    },
    {
        "track": 1,
        "absoluteTick": 11280,
        "noteNumber": 58,
        "velocity": 96
    },
    {
        "track": 1,
        "absoluteTick": 11400,
        "noteNumber": 47,
        "velocity": 96
    },
    {
        "track": 0,
        "absoluteTick": 11520,
        "noteNumber": 64,
        "velocity": 96
    },
    {
        "track": 0,
        "absoluteTick": 11520,
        "noteNumber": 76,
        "velocity": 96
    },
    {
        "track": 1,
        "absoluteTick": 11520,
        "noteNumber": 28,
        "velocity": 96
    },
    {
        "track": 1,
        "absoluteTick": 11520,
        "noteNumber": 40,
        "velocity": 96
    },
    {
        "track": 0,
        "absoluteTick": 11760,
        "noteNumber": 65,
        "velocity": 96
    },
    {
        "track": 0,
        "absoluteTick": 12000,
        "noteNumber": 70,
        "velocity": 115
    },
    {
        "track": 0,
        "absoluteTick": 12240,
        "noteNumber": 64,
        "velocity": 96
    },
    {
        "track": 0,
        "absoluteTick": 12480,
        "noteNumber": 65,
        "velocity": 96
    },
    {
        "track": 0,
        "absoluteTick": 12720,
        "noteNumber": 70,
        "velocity": 115
    },
    {
        "track": 0,
        "absoluteTick": 12960,
        "noteNumber": 64,
        "velocity": 96
    },
    {
        "track": 0,
        "absoluteTick": 13200,
        "noteNumber": 65,
        "velocity": 96
    },
    {
        "track": 0,
        "absoluteTick": 13440,
        "noteNumber": 70,
        "velocity": 115
    },
    {
        "track": 0,
        "absoluteTick": 13680,
        "noteNumber": 64,
        "velocity": 96
    },
    {
        "track": 0,
        "absoluteTick": 13920,
        "noteNumber": 65,
        "velocity": 96
    },
    {
        "track": 0,
        "absoluteTick": 14160,
        "noteNumber": 70,
        "velocity": 115
    },
    {
        "track": 0,
        "absoluteTick": 14400,
        "noteNumber": 70,
        "velocity": 96
    },
    {
        "track": 0,
        "absoluteTick": 14400,
        "noteNumber": 82,
        "velocity": 96
    },
    {
        "track": 0,
        "absoluteTick": 14880,
        "noteNumber": 71,
        "velocity": 96
    },
    {
        "track": 0,
        "absoluteTick": 14880,
        "noteNumber": 83,
        "velocity": 96
    },
    {
        "track": 0,
        "absoluteTick": 15360,
        "noteNumber": 76,
        "velocity": 96
    },
    {
        "track": 0,
        "absoluteTick": 15360,
        "noteNumber": 79,
        "velocity": 96
    },
    {
        "track": 0,
        "absoluteTick": 15360,
        "noteNumber": 83,
        "velocity": 96
    },
    {
        "track": 0,
        "absoluteTick": 15360,
        "noteNumber": 88,
        "velocity": 96
    },
    {
        "track": 1,
        "absoluteTick": 15360,
        "noteNumber": 28,
        "velocity": 96
    },
    {
        "track": 1,
        "absoluteTick": 15360,
        "noteNumber": 40,
        "velocity": 96
    },
    {
        "track": 0,
        "absoluteTick": 15840,
        "noteNumber": 52,
        "velocity": 80
    },
    {
        "track": 0,
        "absoluteTick": 15960,
        "noteNumber": 52,
        "velocity": 80
    },
    {
        "track": 0,
        "absoluteTick": 16080,
        "noteNumber": 52,
        "velocity": 80
    },
    {
        "track": 0,
        "absoluteTick": 16200,
        "noteNumber": 52,
        "velocity": 80
    },
    {
        "track": 0,
        "absoluteTick": 16320,
        "noteNumber": 52,
        "velocity": 80
    },
    {
        "track": 0,
        "absoluteTick": 16440,
        "noteNumber": 52,
        "velocity": 80
    },
    {
        "track": 0,
        "absoluteTick": 16560,
        "noteNumber": 52,
        "velocity": 80
    },
    {
        "track": 0,
        "absoluteTick": 16680,
        "noteNumber": 52,
        "velocity": 80
    },
    {
        "track": 0,
        "absoluteTick": 16800,
        "noteNumber": 52,
        "velocity": 80
    },
    {
        "track": 0,
        "absoluteTick": 16920,
        "noteNumber": 52,
        "velocity": 80
    },
    {
        "track": 0,
        "absoluteTick": 17040,
        "noteNumber": 52,
        "velocity": 80
    },
    {
        "track": 0,
        "absoluteTick": 17160,
        "noteNumber": 52,
        "velocity": 80
    },
    {
        "track": 0,
        "absoluteTick": 17280,
        "noteNumber": 52,
        "velocity": 80
    },
    {
        "track": 0,
        "absoluteTick": 17400,
        "noteNumber": 52,
        "velocity": 80
    },
    {
        "track": 0,
        "absoluteTick": 17520,
        "noteNumber": 52,
        "velocity": 80
    },
    {
        "track": 0,
        "absoluteTick": 17640,
        "noteNumber": 52,
        "velocity": 80
    },
    {
        "track": 0,
        "absoluteTick": 17760,
        "noteNumber": 52,
        "velocity": 80
    },
    {
        "track": 0,
        "absoluteTick": 17880,
        "noteNumber": 52,
        "velocity": 80
    },
    {
        "track": 0,
        "absoluteTick": 18000,
        "noteNumber": 52,
        "velocity": 80
    },
    {
        "track": 0,
        "absoluteTick": 18120,
        "noteNumber": 52,
        "velocity": 80
    },
    {
        "track": 0,
        "absoluteTick": 18240,
        "noteNumber": 64,
        "velocity": 80
    },
    {
        "track": 0,
        "absoluteTick": 18360,
        "noteNumber": 64,
        "velocity": 80
    },
    {
        "track": 0,
        "absoluteTick": 18480,
        "noteNumber": 64,
        "velocity": 80
    },
    {
        "track": 0,
        "absoluteTick": 18600,
        "noteNumber": 64,
        "velocity": 80
    },
    {
        "track": 0,
        "absoluteTick": 18720,
        "noteNumber": 64,
        "velocity": 80
    },
    {
        "track": 0,
        "absoluteTick": 18840,
        "noteNumber": 64,
        "velocity": 80
    },
    {
        "track": 0,
        "absoluteTick": 18960,
        "noteNumber": 64,
        "velocity": 80
    },
    {
        "track": 0,
        "absoluteTick": 19080,
        "noteNumber": 64,
        "velocity": 80
    },
    {
        "track": 0,
        "absoluteTick": 19200,
        "noteNumber": 76,
        "velocity": 80
    },
    {
        "track": 0,
        "absoluteTick": 19200,
        "noteNumber": 76,
        "velocity": 80
    },
    {
        "track": 1,
        "absoluteTick": 19200,
        "noteNumber": 40,
        "velocity": 80
    },
    {
        "track": 0,
        "absoluteTick": 19320,
        "noteNumber": 64,
        "velocity": 80
    },
    {
        "track": 1,
        "absoluteTick": 19320,
        "noteNumber": 52,
        "velocity": 80
    },
    {
        "track": 0,
        "absoluteTick": 19440,
        "noteNumber": 67,
        "velocity": 80
    },
    {
        "track": 1,
        "absoluteTick": 19440,
        "noteNumber": 55,
        "velocity": 80
    },
    {
        "track": 0,
        "absoluteTick": 19560,
        "noteNumber": 64,
        "velocity": 80
    },
    {
        "track": 1,
        "absoluteTick": 19560,
        "noteNumber": 59,
        "velocity": 80
    },
    {
        "track": 0,
        "absoluteTick": 19680,
        "noteNumber": 67,
        "velocity": 80
    },
    {
        "track": 1,
        "absoluteTick": 19680,
        "noteNumber": 55,
        "velocity": 80
    },
    {
        "track": 0,
        "absoluteTick": 19800,
        "noteNumber": 64,
        "velocity": 80
    },
    {
        "track": 1,
        "absoluteTick": 19800,
        "noteNumber": 59,
        "velocity": 80
    },
    {
        "track": 0,
        "absoluteTick": 19920,
        "noteNumber": 67,
        "velocity": 80
    },
    {
        "track": 1,
        "absoluteTick": 19920,
        "noteNumber": 55,
        "velocity": 80
    },
    {
        "track": 0,
        "absoluteTick": 20040,
        "noteNumber": 64,
        "velocity": 80
    },
    {
        "track": 1,
        "absoluteTick": 20040,
        "noteNumber": 59,
        "velocity": 80
    },
    {
        "track": 0,
        "absoluteTick": 20160,
        "noteNumber": 74,
        "velocity": 80
    },
    {
        "track": 0,
        "absoluteTick": 20160,
        "noteNumber": 74,
        "velocity": 80
    },
    {
        "track": 1,
        "absoluteTick": 20160,
        "noteNumber": 55,
        "velocity": 80
    },
    {
        "track": 0,
        "absoluteTick": 20280,
        "noteNumber": 64,
        "velocity": 80
    },
    {
        "track": 1,
        "absoluteTick": 20280,
        "noteNumber": 59,
        "velocity": 80
    },
    {
        "track": 0,
        "absoluteTick": 20400,
        "noteNumber": 67,
        "velocity": 80
    },
    {
        "track": 1,
        "absoluteTick": 20400,
        "noteNumber": 55,
        "velocity": 80
    },
    {
        "track": 0,
        "absoluteTick": 20520,
        "noteNumber": 64,
        "velocity": 80
    },
    {
        "track": 1,
        "absoluteTick": 20520,
        "noteNumber": 59,
        "velocity": 80
    },
    {
        "track": 0,
        "absoluteTick": 20640,
        "noteNumber": 71,
        "velocity": 80
    },
    {
        "track": 0,
        "absoluteTick": 20640,
        "noteNumber": 71,
        "velocity": 80
    },
    {
        "track": 1,
        "absoluteTick": 20640,
        "noteNumber": 55,
        "velocity": 80
    },
    {
        "track": 0,
        "absoluteTick": 20760,
        "noteNumber": 64,
        "velocity": 80
    },
    {
        "track": 1,
        "absoluteTick": 20760,
        "noteNumber": 59,
        "velocity": 80
    },
    {
        "track": 0,
        "absoluteTick": 20880,
        "noteNumber": 67,
        "velocity": 80
    },
    {
        "track": 1,
        "absoluteTick": 20880,
        "noteNumber": 55,
        "velocity": 80
    },
    {
        "track": 0,
        "absoluteTick": 21000,
        "noteNumber": 64,
        "velocity": 80
    },
    {
        "track": 1,
        "absoluteTick": 21000,
        "noteNumber": 59,
        "velocity": 80
    },
    {
        "track": 0,
        "absoluteTick": 21120,
        "noteNumber": 72,
        "velocity": 80
    },
    {
        "track": 0,
        "absoluteTick": 21120,
        "noteNumber": 72,
        "velocity": 80
    },
    {
        "track": 1,
        "absoluteTick": 21120,
        "noteNumber": 48,
        "velocity": 80
    },
    {
        "track": 1,
        "absoluteTick": 21120,
        "noteNumber": 48,
        "velocity": 80
    },
    {
        "track": 0,
        "absoluteTick": 21240,
        "noteNumber": 64,
        "velocity": 80
    },
    {
        "track": 1,
        "absoluteTick": 21240,
        "noteNumber": 55,
        "velocity": 80
    },
    {
        "track": 0,
        "absoluteTick": 21360,
        "noteNumber": 67,
        "velocity": 80
    },
    {
        "track": 1,
        "absoluteTick": 21360,
        "noteNumber": 59,
        "velocity": 80
    },
    {
        "track": 0,
        "absoluteTick": 21480,
        "noteNumber": 64,
        "velocity": 80
    },
    {
        "track": 1,
        "absoluteTick": 21480,
        "noteNumber": 55,
        "velocity": 80
    },
    {
        "track": 0,
        "absoluteTick": 21600,
        "noteNumber": 74,
        "velocity": 80
    },
    {
        "track": 0,
        "absoluteTick": 21600,
        "noteNumber": 74,
        "velocity": 80
    },
    {
        "track": 1,
        "absoluteTick": 21600,
        "noteNumber": 59,
        "velocity": 80
    },
    {
        "track": 0,
        "absoluteTick": 21720,
        "noteNumber": 64,
        "velocity": 80
    },
    {
        "track": 1,
        "absoluteTick": 21720,
        "noteNumber": 55,
        "velocity": 80
    },
    {
        "track": 0,
        "absoluteTick": 21840,
        "noteNumber": 67,
        "velocity": 80
    },
    {
        "track": 1,
        "absoluteTick": 21840,
        "noteNumber": 59,
        "velocity": 80
    },
    {
        "track": 0,
        "absoluteTick": 21960,
        "noteNumber": 64,
        "velocity": 80
    },
    {
        "track": 1,
        "absoluteTick": 21960,
        "noteNumber": 55,
        "velocity": 80
    },
    {
        "track": 0,
        "absoluteTick": 22080,
        "noteNumber": 72,
        "velocity": 80
    },
    {
        "track": 0,
        "absoluteTick": 22080,
        "noteNumber": 72,
        "velocity": 80
    },
    {
        "track": 1,
        "absoluteTick": 22080,
        "noteNumber": 59,
        "velocity": 80
    },
    {
        "track": 0,
        "absoluteTick": 22200,
        "noteNumber": 64,
        "velocity": 80
    },
    {
        "track": 1,
        "absoluteTick": 22200,
        "noteNumber": 55,
        "velocity": 80
    },
    {
        "track": 0,
        "absoluteTick": 22320,
        "noteNumber": 67,
        "velocity": 80
    },
    {
        "track": 1,
        "absoluteTick": 22320,
        "noteNumber": 59,
        "velocity": 80
    },
    {
        "track": 0,
        "absoluteTick": 22440,
        "noteNumber": 64,
        "velocity": 80
    },
    {
        "track": 1,
        "absoluteTick": 22440,
        "noteNumber": 55,
        "velocity": 80
    },
    {
        "track": 0,
        "absoluteTick": 22560,
        "noteNumber": 71,
        "velocity": 80
    },
    {
        "track": 0,
        "absoluteTick": 22560,
        "noteNumber": 71,
        "velocity": 80
    },
    {
        "track": 1,
        "absoluteTick": 22560,
        "noteNumber": 59,
        "velocity": 80
    },
    {
        "track": 0,
        "absoluteTick": 22680,
        "noteNumber": 64,
        "velocity": 80
    },
    {
        "track": 1,
        "absoluteTick": 22680,
        "noteNumber": 55,
        "velocity": 80
    },
    {
        "track": 0,
        "absoluteTick": 22800,
        "noteNumber": 67,
        "velocity": 80
    },
    {
        "track": 1,
        "absoluteTick": 22800,
        "noteNumber": 59,
        "velocity": 80
    },
    {
        "track": 0,
        "absoluteTick": 22920,
        "noteNumber": 64,
        "velocity": 80
    },
    {
        "track": 1,
        "absoluteTick": 22920,
        "noteNumber": 55,
        "velocity": 80
    },
    {
        "track": 0,
        "absoluteTick": 23040,
        "noteNumber": 61,
        "velocity": 80
    },
    {
        "track": 0,
        "absoluteTick": 23040,
        "noteNumber": 66,
        "velocity": 80
    },
    {
        "track": 0,
        "absoluteTick": 23040,
        "noteNumber": 70,
        "velocity": 80
    },
    {
        "track": 1,
        "absoluteTick": 23040,
        "noteNumber": 42,
        "velocity": 80
    },
    {
        "track": 1,
        "absoluteTick": 23120,
        "noteNumber": 49,
        "velocity": 80
    },
    {
        "track": 1,
        "absoluteTick": 23200,
        "noteNumber": 58,
        "velocity": 80
    },
    {
        "track": 1,
        "absoluteTick": 23280,
        "noteNumber": 61,
        "velocity": 80
    },
    {
        "track": 1,
        "absoluteTick": 23360,
        "noteNumber": 66,
        "velocity": 80
    },
    {
        "track": 1,
        "absoluteTick": 23440,
        "noteNumber": 70,
        "velocity": 80
    },
    {
        "track": 1,
        "absoluteTick": 23520,
        "noteNumber": 54,
        "velocity": 80
    },
    {
        "track": 1,
        "absoluteTick": 23600,
        "noteNumber": 61,
        "velocity": 80
    },
    {
        "track": 1,
        "absoluteTick": 23680,
        "noteNumber": 70,
        "velocity": 80
    },
    {
        "track": 1,
        "absoluteTick": 23760,
        "noteNumber": 73,
        "velocity": 80
    },
    {
        "track": 1,
        "absoluteTick": 23840,
        "noteNumber": 78,
        "velocity": 80
    },
    {
        "track": 1,
        "absoluteTick": 23920,
        "noteNumber": 82,
        "velocity": 80
    },
    {
        "track": 1,
        "absoluteTick": 24000,
        "noteNumber": 78,
        "velocity": 80
    },
    {
        "track": 1,
        "absoluteTick": 24096,
        "noteNumber": 73,
        "velocity": 80
    },
    {
        "track": 1,
        "absoluteTick": 24192,
        "noteNumber": 70,
        "velocity": 80
    },
    {
        "track": 1,
        "absoluteTick": 24288,
        "noteNumber": 61,
        "velocity": 80
    },
    {
        "track": 1,
        "absoluteTick": 24384,
        "noteNumber": 54,
        "velocity": 80
    },
    {
        "track": 1,
        "absoluteTick": 24480,
        "noteNumber": 70,
        "velocity": 80
    },
    {
        "track": 1,
        "absoluteTick": 24576,
        "noteNumber": 66,
        "velocity": 80
    },
    {
        "track": 1,
        "absoluteTick": 24672,
        "noteNumber": 61,
        "velocity": 80
    },
    {
        "track": 1,
        "absoluteTick": 24768,
        "noteNumber": 58,
        "velocity": 80
    },
    {
        "track": 1,
        "absoluteTick": 24864,
        "noteNumber": 49,
        "velocity": 80
    },
    {
        "track": 1,
        "absoluteTick": 24960,
        "noteNumber": 48,
        "velocity": 80
    },
    {
        "track": 1,
        "absoluteTick": 25056,
        "noteNumber": 52,
        "velocity": 80
    },
    {
        "track": 1,
        "absoluteTick": 25152,
        "noteNumber": 55,
        "velocity": 80
    },
    {
        "track": 1,
        "absoluteTick": 25248,
        "noteNumber": 60,
        "velocity": 80
    },
    {
        "track": 1,
        "absoluteTick": 25344,
        "noteNumber": 64,
        "velocity": 80
    },
    {
        "track": 1,
        "absoluteTick": 25440,
        "noteNumber": 67,
        "velocity": 80
    },
    {
        "track": 1,
        "absoluteTick": 25520,
        "noteNumber": 64,
        "velocity": 80
    },
    {
        "track": 1,
        "absoluteTick": 25600,
        "noteNumber": 60,
        "velocity": 80
    },
    {
        "track": 1,
        "absoluteTick": 25680,
        "noteNumber": 55,
        "velocity": 80
    },
    {
        "track": 1,
        "absoluteTick": 25760,
        "noteNumber": 52,
        "velocity": 80
    },
    {
        "track": 1,
        "absoluteTick": 25840,
        "noteNumber": 48,
        "velocity": 80
    },
    {
        "track": 0,
        "absoluteTick": 25920,
        "noteNumber": 71,
        "velocity": 80
    },
    {
        "track": 0,
        "absoluteTick": 25920,
        "noteNumber": 71,
        "velocity": 80
    },
    {
        "track": 1,
        "absoluteTick": 25920,
        "noteNumber": 43,
        "velocity": 80
    },
    {
        "track": 1,
        "absoluteTick": 25920,
        "noteNumber": 43,
        "velocity": 80
    },
    {
        "track": 0,
        "absoluteTick": 26040,
        "noteNumber": 64,
        "velocity": 80
    },
    {
        "track": 1,
        "absoluteTick": 26040,
        "noteNumber": 48,
        "velocity": 80
    },
    {
        "track": 0,
        "absoluteTick": 26160,
        "noteNumber": 67,
        "velocity": 80
    },
    {
        "track": 1,
        "absoluteTick": 26160,
        "noteNumber": 52,
        "velocity": 80
    },
    {
        "track": 0,
        "absoluteTick": 26280,
        "noteNumber": 64,
        "velocity": 80
    },
    {
        "track": 1,
        "absoluteTick": 26280,
        "noteNumber": 55,
        "velocity": 80
    },
    {
        "track": 0,
        "absoluteTick": 26400,
        "noteNumber": 67,
        "velocity": 80
    },
    {
        "track": 1,
        "absoluteTick": 26400,
        "noteNumber": 52,
        "velocity": 80
    },
    {
        "track": 0,
        "absoluteTick": 26520,
        "noteNumber": 64,
        "velocity": 80
    },
    {
        "track": 1,
        "absoluteTick": 26520,
        "noteNumber": 55,
        "velocity": 80
    },
    {
        "track": 0,
        "absoluteTick": 26640,
        "noteNumber": 67,
        "velocity": 80
    },
    {
        "track": 1,
        "absoluteTick": 26640,
        "noteNumber": 52,
        "velocity": 80
    },
    {
        "track": 0,
        "absoluteTick": 26760,
        "noteNumber": 64,
        "velocity": 80
    },
    {
        "track": 1,
        "absoluteTick": 26760,
        "noteNumber": 55,
        "velocity": 80
    },
    {
        "track": 0,
        "absoluteTick": 26880,
        "noteNumber": 72,
        "velocity": 80
    },
    {
        "track": 0,
        "absoluteTick": 26880,
        "noteNumber": 72,
        "velocity": 80
    },
    {
        "track": 1,
        "absoluteTick": 26880,
        "noteNumber": 45,
        "velocity": 80
    },
    {
        "track": 1,
        "absoluteTick": 26880,
        "noteNumber": 45,
        "velocity": 80
    },
    {
        "track": 0,
        "absoluteTick": 27000,
        "noteNumber": 60,
        "velocity": 80
    },
    {
        "track": 1,
        "absoluteTick": 27000,
        "noteNumber": 52,
        "velocity": 80
    },
    {
        "track": 0,
        "absoluteTick": 27120,
        "noteNumber": 64,
        "velocity": 80
    },
    {
        "track": 1,
        "absoluteTick": 27120,
        "noteNumber": 57,
        "velocity": 80
    },
    {
        "track": 0,
        "absoluteTick": 27240,
        "noteNumber": 60,
        "velocity": 80
    },
    {
        "track": 1,
        "absoluteTick": 27240,
        "noteNumber": 52,
        "velocity": 80
    },
    {
        "track": 0,
        "absoluteTick": 27360,
        "noteNumber": 64,
        "velocity": 80
    },
    {
        "track": 1,
        "absoluteTick": 27360,
        "noteNumber": 57,
        "velocity": 80
    },
    {
        "track": 0,
        "absoluteTick": 27480,
        "noteNumber": 60,
        "velocity": 80
    },
    {
        "track": 1,
        "absoluteTick": 27480,
        "noteNumber": 52,
        "velocity": 80
    },
    {
        "track": 0,
        "absoluteTick": 27600,
        "noteNumber": 64,
        "velocity": 80
    },
    {
        "track": 1,
        "absoluteTick": 27600,
        "noteNumber": 57,
        "velocity": 80
    },
    {
        "track": 0,
        "absoluteTick": 27720,
        "noteNumber": 60,
        "velocity": 80
    },
    {
        "track": 1,
        "absoluteTick": 27720,
        "noteNumber": 52,
        "velocity": 80
    },
    {
        "track": 0,
        "absoluteTick": 27840,
        "noteNumber": 64,
        "velocity": 80
    },
    {
        "track": 0,
        "absoluteTick": 27840,
        "noteNumber": 64,
        "velocity": 80
    },
    {
        "track": 1,
        "absoluteTick": 27840,
        "noteNumber": 55,
        "velocity": 80
    },
    {
        "track": 0,
        "absoluteTick": 27960,
        "noteNumber": 57,
        "velocity": 80
    },
    {
        "track": 1,
        "absoluteTick": 27960,
        "noteNumber": 52,
        "velocity": 80
    },
    {
        "track": 0,
        "absoluteTick": 28080,
        "noteNumber": 60,
        "velocity": 80
    },
    {
        "track": 1,
        "absoluteTick": 28080,
        "noteNumber": 55,
        "velocity": 80
    },
    {
        "track": 0,
        "absoluteTick": 28200,
        "noteNumber": 57,
        "velocity": 80
    },
    {
        "track": 1,
        "absoluteTick": 28200,
        "noteNumber": 52,
        "velocity": 80
    },
    {
        "track": 0,
        "absoluteTick": 28320,
        "noteNumber": 60,
        "velocity": 80
    },
    {
        "track": 1,
        "absoluteTick": 28320,
        "noteNumber": 55,
        "velocity": 80
    },
    {
        "track": 0,
        "absoluteTick": 28440,
        "noteNumber": 57,
        "velocity": 80
    },
    {
        "track": 1,
        "absoluteTick": 28440,
        "noteNumber": 52,
        "velocity": 80
    },
    {
        "track": 0,
        "absoluteTick": 28560,
        "noteNumber": 60,
        "velocity": 80
    },
    {
        "track": 1,
        "absoluteTick": 28560,
        "noteNumber": 55,
        "velocity": 80
    },
    {
        "track": 0,
        "absoluteTick": 28680,
        "noteNumber": 57,
        "velocity": 80
    },
    {
        "track": 1,
        "absoluteTick": 28680,
        "noteNumber": 52,
        "velocity": 80
    },
    {
        "track": 0,
        "absoluteTick": 28800,
        "noteNumber": 71,
        "velocity": 80
    },
    {
        "track": 0,
        "absoluteTick": 28800,
        "noteNumber": 71,
        "velocity": 80
    },
    {
        "track": 1,
        "absoluteTick": 28800,
        "noteNumber": 47,
        "velocity": 80
    },
    {
        "track": 1,
        "absoluteTick": 28800,
        "noteNumber": 47,
        "velocity": 80
    },
    {
        "track": 0,
        "absoluteTick": 28920,
        "noteNumber": 59,
        "velocity": 80
    },
    {
        "track": 1,
        "absoluteTick": 28920,
        "noteNumber": 50,
        "velocity": 80
    },
    {
        "track": 0,
        "absoluteTick": 29040,
        "noteNumber": 62,
        "velocity": 80
    },
    {
        "track": 1,
        "absoluteTick": 29040,
        "noteNumber": 53,
        "velocity": 80
    },
    {
        "track": 0,
        "absoluteTick": 29160,
        "noteNumber": 59,
        "velocity": 80
    },
    {
        "track": 1,
        "absoluteTick": 29160,
        "noteNumber": 50,
        "velocity": 80
    },
    {
        "track": 0,
        "absoluteTick": 29280,
        "noteNumber": 70,
        "velocity": 80
    },
    {
        "track": 0,
        "absoluteTick": 29280,
        "noteNumber": 70,
        "velocity": 80
    },
    {
        "track": 1,
        "absoluteTick": 29280,
        "noteNumber": 53,
        "velocity": 80
    },
    {
        "track": 0,
        "absoluteTick": 29400,
        "noteNumber": 59,
        "velocity": 80
    },
    {
        "track": 1,
        "absoluteTick": 29400,
        "noteNumber": 50,
        "velocity": 80
    },
    {
        "track": 0,
        "absoluteTick": 29520,
        "noteNumber": 62,
        "velocity": 80
    },
    {
        "track": 1,
        "absoluteTick": 29520,
        "noteNumber": 53,
        "velocity": 80
    },
    {
        "track": 0,
        "absoluteTick": 29640,
        "noteNumber": 59,
        "velocity": 80
    },
    {
        "track": 1,
        "absoluteTick": 29640,
        "noteNumber": 50,
        "velocity": 80
    },
    {
        "track": 0,
        "absoluteTick": 29760,
        "noteNumber": 67,
        "velocity": 80
    },
    {
        "track": 0,
        "absoluteTick": 29760,
        "noteNumber": 67,
        "velocity": 80
    },
    {
        "track": 1,
        "absoluteTick": 29760,
        "noteNumber": 53,
        "velocity": 80
    },
    {
        "track": 0,
        "absoluteTick": 29880,
        "noteNumber": 59,
        "velocity": 80
    },
    {
        "track": 1,
        "absoluteTick": 29880,
        "noteNumber": 50,
        "velocity": 80
    },
    {
        "track": 0,
        "absoluteTick": 30000,
        "noteNumber": 62,
        "velocity": 80
    },
    {
        "track": 1,
        "absoluteTick": 30000,
        "noteNumber": 53,
        "velocity": 80
    },
    {
        "track": 0,
        "absoluteTick": 30120,
        "noteNumber": 59,
        "velocity": 80
    },
    {
        "track": 1,
        "absoluteTick": 30120,
        "noteNumber": 50,
        "velocity": 80
    },
    {
        "track": 0,
        "absoluteTick": 30240,
        "noteNumber": 65,
        "velocity": 80
    },
    {
        "track": 0,
        "absoluteTick": 30240,
        "noteNumber": 65,
        "velocity": 80
    },
    {
        "track": 1,
        "absoluteTick": 30240,
        "noteNumber": 53,
        "velocity": 80
    },
    {
        "track": 0,
        "absoluteTick": 30360,
        "noteNumber": 59,
        "velocity": 80
    },
    {
        "track": 1,
        "absoluteTick": 30360,
        "noteNumber": 50,
        "velocity": 80
    },
    {
        "track": 0,
        "absoluteTick": 30480,
        "noteNumber": 62,
        "velocity": 80
    },
    {
        "track": 1,
        "absoluteTick": 30480,
        "noteNumber": 53,
        "velocity": 80
    },
    {
        "track": 0,
        "absoluteTick": 30600,
        "noteNumber": 59,
        "velocity": 80
    },
    {
        "track": 1,
        "absoluteTick": 30600,
        "noteNumber": 50,
        "velocity": 80
    },
    {
        "track": 0,
        "absoluteTick": 30720,
        "noteNumber": 64,
        "velocity": 80
    },
    {
        "track": 1,
        "absoluteTick": 30720,
        "noteNumber": 40,
        "velocity": 96
    },
    {
        "track": 1,
        "absoluteTick": 30720,
        "noteNumber": 47,
        "velocity": 96
    },
    {
        "track": 1,
        "absoluteTick": 30720,
        "noteNumber": 52,
        "velocity": 96
    },
    {
        "track": 0,
        "absoluteTick": 30840,
        "noteNumber": 64,
        "velocity": 80
    },
    {
        "track": 0,
        "absoluteTick": 30960,
        "noteNumber": 64,
        "velocity": 80
    },
    {
        "track": 0,
        "absoluteTick": 31080,
        "noteNumber": 64,
        "velocity": 80
    },
    {
        "track": 0,
        "absoluteTick": 31200,
        "noteNumber": 64,
        "velocity": 80
    },
    {
        "track": 0,
        "absoluteTick": 31320,
        "noteNumber": 64,
        "velocity": 80
    },
    {
        "track": 0,
        "absoluteTick": 31440,
        "noteNumber": 65,
        "velocity": 80
    },
    {
        "track": 1,
        "absoluteTick": 31440,
        "noteNumber": 41,
        "velocity": 96
    },
    {
        "track": 1,
        "absoluteTick": 31440,
        "noteNumber": 48,
        "velocity": 96
    },
    {
        "track": 1,
        "absoluteTick": 31440,
        "noteNumber": 53,
        "velocity": 96
    },
    {
        "track": 0,
        "absoluteTick": 31560,
        "noteNumber": 65,
        "velocity": 80
    },
    {
        "track": 0,
        "absoluteTick": 31680,
        "noteNumber": 64,
        "velocity": 80
    },
    {
        "track": 0,
        "absoluteTick": 31800,
        "noteNumber": 65,
        "velocity": 80
    },
    {
        "track": 0,
        "absoluteTick": 31920,
        "noteNumber": 65,
        "velocity": 80
    },
    {
        "track": 0,
        "absoluteTick": 32040,
        "noteNumber": 64,
        "velocity": 80
    },
    {
        "track": 0,
        "absoluteTick": 32160,
        "noteNumber": 67,
        "velocity": 80
    },
    {
        "track": 1,
        "absoluteTick": 32160,
        "noteNumber": 43,
        "velocity": 96
    },
    {
        "track": 1,
        "absoluteTick": 32160,
        "noteNumber": 50,
        "velocity": 96
    },
    {
        "track": 1,
        "absoluteTick": 32160,
        "noteNumber": 55,
        "velocity": 96
    },
    {
        "track": 0,
        "absoluteTick": 32280,
        "noteNumber": 67,
        "velocity": 80
    },
    {
        "track": 0,
        "absoluteTick": 32400,
        "noteNumber": 64,
        "velocity": 80
    },
    {
        "track": 0,
        "absoluteTick": 32520,
        "noteNumber": 67,
        "velocity": 80
    },
    {
        "track": 0,
        "absoluteTick": 32640,
        "noteNumber": 67,
        "velocity": 80
    },
    {
        "track": 0,
        "absoluteTick": 32760,
        "noteNumber": 64,
        "velocity": 80
    },
    {
        "track": 0,
        "absoluteTick": 32880,
        "noteNumber": 68,
        "velocity": 80
    },
    {
        "track": 1,
        "absoluteTick": 32880,
        "noteNumber": 44,
        "velocity": 96
    },
    {
        "track": 1,
        "absoluteTick": 32880,
        "noteNumber": 51,
        "velocity": 96
    },
    {
        "track": 1,
        "absoluteTick": 32880,
        "noteNumber": 56,
        "velocity": 96
    },
    {
        "track": 0,
        "absoluteTick": 33000,
        "noteNumber": 68,
        "velocity": 80
    },
    {
        "track": 0,
        "absoluteTick": 33120,
        "noteNumber": 64,
        "velocity": 80
    },
    {
        "track": 0,
        "absoluteTick": 33240,
        "noteNumber": 68,
        "velocity": 80
    },
    {
        "track": 0,
        "absoluteTick": 33360,
        "noteNumber": 68,
        "velocity": 80
    },
    {
        "track": 0,
        "absoluteTick": 33480,
        "noteNumber": 64,
        "velocity": 80
    },
    {
        "track": 0,
        "absoluteTick": 33600,
        "noteNumber": 71,
        "velocity": 80
    },
    {
        "track": 1,
        "absoluteTick": 33600,
        "noteNumber": 47,
        "velocity": 96
    },
    {
        "track": 1,
        "absoluteTick": 33600,
        "noteNumber": 52,
        "velocity": 96
    },
    {
        "track": 1,
        "absoluteTick": 33600,
        "noteNumber": 59,
        "velocity": 96
    },
    {
        "track": 0,
        "absoluteTick": 33720,
        "noteNumber": 68,
        "velocity": 80
    },
    {
        "track": 0,
        "absoluteTick": 33840,
        "noteNumber": 65,
        "velocity": 80
    },
    {
        "track": 0,
        "absoluteTick": 33960,
        "noteNumber": 64,
        "velocity": 80
    },
    {
        "track": 0,
        "absoluteTick": 34080,
        "noteNumber": 65,
        "velocity": 80
    },
    {
        "track": 1,
        "absoluteTick": 34080,
        "noteNumber": 47,
        "velocity": 96
    },
    {
        "track": 1,
        "absoluteTick": 34080,
        "noteNumber": 52,
        "velocity": 96
    },
    {
        "track": 1,
        "absoluteTick": 34080,
        "noteNumber": 59,
        "velocity": 96
    },
    {
        "track": 0,
        "absoluteTick": 34176,
        "noteNumber": 68,
        "velocity": 80
    },
    {
        "track": 0,
        "absoluteTick": 34272,
        "noteNumber": 71,
        "velocity": 80
    },
    {
        "track": 0,
        "absoluteTick": 34368,
        "noteNumber": 72,
        "velocity": 80
    },
    {
        "track": 0,
        "absoluteTick": 34464,
        "noteNumber": 75,
        "velocity": 80
    },
    {
        "track": 0,
        "absoluteTick": 34560,
        "noteNumber": 76,
        "velocity": 80
    },
    {
        "track": 0,
        "absoluteTick": 34560,
        "noteNumber": 79,
        "velocity": 80
    },
    {
        "track": 0,
        "absoluteTick": 34560,
        "noteNumber": 88,
        "velocity": 80
    },
    {
        "track": 1,
        "absoluteTick": 34560,
        "noteNumber": 40,
        "velocity": 80
    },
    {
        "track": 1,
        "absoluteTick": 34656,
        "noteNumber": 47,
        "velocity": 80
    },
    {
        "track": 1,
        "absoluteTick": 34752,
        "noteNumber": 52,
        "velocity": 80
    },
    {
        "track": 1,
        "absoluteTick": 34848,
        "noteNumber": 54,
        "velocity": 80
    },
    {
        "track": 1,
        "absoluteTick": 34944,
        "noteNumber": 55,
        "velocity": 80
    },
    {
        "track": 1,
        "absoluteTick": 35040,
        "noteNumber": 59,
        "velocity": 80
    },
    {
        "track": 1,
        "absoluteTick": 35136,
        "noteNumber": 55,
        "velocity": 80
    },
    {
        "track": 1,
        "absoluteTick": 35232,
        "noteNumber": 54,
        "velocity": 80
    },
    {
        "track": 1,
        "absoluteTick": 35328,
        "noteNumber": 52,
        "velocity": 80
    },
    {
        "track": 1,
        "absoluteTick": 35424,
        "noteNumber": 47,
        "velocity": 80
    },
    {
        "track": 0,
        "absoluteTick": 35520,
        "noteNumber": 74,
        "velocity": 80
    },
    {
        "track": 0,
        "absoluteTick": 35520,
        "noteNumber": 86,
        "velocity": 80
    },
    {
        "track": 1,
        "absoluteTick": 35520,
        "noteNumber": 40,
        "velocity": 80
    },
    {
        "track": 1,
        "absoluteTick": 35616,
        "noteNumber": 47,
        "velocity": 80
    },
    {
        "track": 1,
        "absoluteTick": 35712,
        "noteNumber": 52,
        "velocity": 80
    },
    {
        "track": 1,
        "absoluteTick": 35808,
        "noteNumber": 54,
        "velocity": 80
    },
    {
        "track": 1,
        "absoluteTick": 35904,
        "noteNumber": 55,
        "velocity": 80
    },
    {
        "track": 0,
        "absoluteTick": 36000,
        "noteNumber": 71,
        "velocity": 80
    },
    {
        "track": 0,
        "absoluteTick": 36000,
        "noteNumber": 83,
        "velocity": 80
    },
    {
        "track": 1,
        "absoluteTick": 36000,
        "noteNumber": 59,
        "velocity": 80
    },
    {
        "track": 1,
        "absoluteTick": 36096,
        "noteNumber": 55,
        "velocity": 80
    },
    {
        "track": 1,
        "absoluteTick": 36192,
        "noteNumber": 54,
        "velocity": 80
    },
    {
        "track": 1,
        "absoluteTick": 36288,
        "noteNumber": 52,
        "velocity": 80
    },
    {
        "track": 1,
        "absoluteTick": 36384,
        "noteNumber": 47,
        "velocity": 80
    },
    {
        "track": 0,
        "absoluteTick": 36480,
        "noteNumber": 72,
        "velocity": 80
    },
    {
        "track": 0,
        "absoluteTick": 36480,
        "noteNumber": 76,
        "velocity": 80
    },
    {
        "track": 0,
        "absoluteTick": 36480,
        "noteNumber": 84,
        "velocity": 80
    },
    {
        "track": 1,
        "absoluteTick": 36480,
        "noteNumber": 36,
        "velocity": 80
    },
    {
        "track": 1,
        "absoluteTick": 36576,
        "noteNumber": 43,
        "velocity": 80
    },
    {
        "track": 1,
        "absoluteTick": 36672,
        "noteNumber": 48,
        "velocity": 80
    },
    {
        "track": 1,
        "absoluteTick": 36768,
        "noteNumber": 50,
        "velocity": 80
    },
    {
        "track": 1,
        "absoluteTick": 36864,
        "noteNumber": 52,
        "velocity": 80
    },
    {
        "track": 0,
        "absoluteTick": 36960,
        "noteNumber": 74,
        "velocity": 80
    },
    {
        "track": 0,
        "absoluteTick": 36960,
        "noteNumber": 86,
        "velocity": 80
    },
    {
        "track": 1,
        "absoluteTick": 36960,
        "noteNumber": 55,
        "velocity": 80
    },
    {
        "track": 1,
        "absoluteTick": 37056,
        "noteNumber": 52,
        "velocity": 80
    },
    {
        "track": 1,
        "absoluteTick": 37152,
        "noteNumber": 50,
        "velocity": 80
    },
    {
        "track": 1,
        "absoluteTick": 37248,
        "noteNumber": 48,
        "velocity": 80
    },
    {
        "track": 1,
        "absoluteTick": 37344,
        "noteNumber": 43,
        "velocity": 80
    },
    {
        "track": 0,
        "absoluteTick": 37440,
        "noteNumber": 72,
        "velocity": 80
    },
    {
        "track": 0,
        "absoluteTick": 37440,
        "noteNumber": 84,
        "velocity": 80
    },
    {
        "track": 1,
        "absoluteTick": 37440,
        "noteNumber": 40,
        "velocity": 80
    },
    {
        "track": 1,
        "absoluteTick": 37536,
        "noteNumber": 43,
        "velocity": 80
    },
    {
        "track": 1,
        "absoluteTick": 37632,
        "noteNumber": 48,
        "velocity": 80
    },
    {
        "track": 1,
        "absoluteTick": 37728,
        "noteNumber": 50,
        "velocity": 80
    },
    {
        "track": 1,
        "absoluteTick": 37824,
        "noteNumber": 52,
        "velocity": 80
    },
    {
        "track": 0,
        "absoluteTick": 37920,
        "noteNumber": 71,
        "velocity": 80
    },
    {
        "track": 0,
        "absoluteTick": 37920,
        "noteNumber": 83,
        "velocity": 80
    },
    {
        "track": 1,
        "absoluteTick": 37920,
        "noteNumber": 55,
        "velocity": 80
    },
    {
        "track": 1,
        "absoluteTick": 38016,
        "noteNumber": 52,
        "velocity": 80
    },
    {
        "track": 1,
        "absoluteTick": 38112,
        "noteNumber": 50,
        "velocity": 80
    },
    {
        "track": 1,
        "absoluteTick": 38208,
        "noteNumber": 48,
        "velocity": 80
    },
    {
        "track": 1,
        "absoluteTick": 38304,
        "noteNumber": 43,
        "velocity": 80
    },
    {
        "track": 0,
        "absoluteTick": 38400,
        "noteNumber": 70,
        "velocity": 80
    },
    {
        "track": 0,
        "absoluteTick": 38400,
        "noteNumber": 73,
        "velocity": 80
    },
    {
        "track": 0,
        "absoluteTick": 38400,
        "noteNumber": 78,
        "velocity": 80
    },
    {
        "track": 0,
        "absoluteTick": 38400,
        "noteNumber": 82,
        "velocity": 80
    },
    {
        "track": 1,
        "absoluteTick": 38400,
        "noteNumber": 46,
        "velocity": 80
    },
    {
        "track": 1,
        "absoluteTick": 38520,
        "noteNumber": 49,
        "velocity": 80
    },
    {
        "track": 1,
        "absoluteTick": 38640,
        "noteNumber": 54,
        "velocity": 80
    },
    {
        "track": 1,
        "absoluteTick": 38760,
        "noteNumber": 58,
        "velocity": 80
    },
    {
        "track": 1,
        "absoluteTick": 38880,
        "noteNumber": 61,
        "velocity": 80
    },
    {
        "track": 1,
        "absoluteTick": 39000,
        "noteNumber": 66,
        "velocity": 80
    },
    {
        "track": 1,
        "absoluteTick": 39120,
        "noteNumber": 70,
        "velocity": 80
    },
    {
        "track": 1,
        "absoluteTick": 39240,
        "noteNumber": 73,
        "velocity": 80
    },
    {
        "track": 1,
        "absoluteTick": 39360,
        "noteNumber": 49,
        "velocity": 80
    },
    {
        "track": 1,
        "absoluteTick": 39480,
        "noteNumber": 54,
        "velocity": 80
    },
    {
        "track": 1,
        "absoluteTick": 39600,
        "noteNumber": 58,
        "velocity": 80
    },
    {
        "track": 1,
        "absoluteTick": 39720,
        "noteNumber": 61,
        "velocity": 80
    },
    {
        "track": 1,
        "absoluteTick": 39840,
        "noteNumber": 66,
        "velocity": 80
    },
    {
        "track": 1,
        "absoluteTick": 39960,
        "noteNumber": 70,
        "velocity": 80
    },
    {
        "track": 1,
        "absoluteTick": 40080,
        "noteNumber": 73,
        "velocity": 80
    },
    {
        "track": 1,
        "absoluteTick": 40200,
        "noteNumber": 78,
        "velocity": 80
    },
    {
        "track": 1,
        "absoluteTick": 40320,
        "noteNumber": 47,
        "velocity": 80
    },
    {
        "track": 1,
        "absoluteTick": 40440,
        "noteNumber": 50,
        "velocity": 80
    },
    {
        "track": 1,
        "absoluteTick": 40560,
        "noteNumber": 53,
        "velocity": 80
    },
    {
        "track": 1,
        "absoluteTick": 40680,
        "noteNumber": 56,
        "velocity": 80
    },
    {
        "track": 1,
        "absoluteTick": 40800,
        "noteNumber": 59,
        "velocity": 80
    },
    {
        "track": 1,
        "absoluteTick": 40920,
        "noteNumber": 62,
        "velocity": 80
    },
    {
        "track": 1,
        "absoluteTick": 41040,
        "noteNumber": 65,
        "velocity": 80
    },
    {
        "track": 1,
        "absoluteTick": 41160,
        "noteNumber": 68,
        "velocity": 80
    },
    {
        "track": 0,
        "absoluteTick": 41280,
        "noteNumber": 62,
        "velocity": 80
    },
    {
        "track": 0,
        "absoluteTick": 41280,
        "noteNumber": 71,
        "velocity": 80
    },
    {
        "track": 1,
        "absoluteTick": 41280,
        "noteNumber": 47,
        "velocity": 80
    },
    {
        "track": 1,
        "absoluteTick": 41376,
        "noteNumber": 50,
        "velocity": 80
    },
    {
        "track": 1,
        "absoluteTick": 41472,
        "noteNumber": 53,
        "velocity": 80
    },
    {
        "track": 1,
        "absoluteTick": 41568,
        "noteNumber": 56,
        "velocity": 80
    },
    {
        "track": 1,
        "absoluteTick": 41664,
        "noteNumber": 59,
        "velocity": 80
    },
    {
        "track": 1,
        "absoluteTick": 41760,
        "noteNumber": 62,
        "velocity": 80
    },
    {
        "track": 1,
        "absoluteTick": 41856,
        "noteNumber": 59,
        "velocity": 80
    },
    {
        "track": 1,
        "absoluteTick": 41952,
        "noteNumber": 56,
        "velocity": 80
    },
    {
        "track": 1,
        "absoluteTick": 42048,
        "noteNumber": 53,
        "velocity": 80
    },
    {
        "track": 1,
        "absoluteTick": 42144,
        "noteNumber": 50,
        "velocity": 80
    },
    {
        "track": 0,
        "absoluteTick": 42240,
        "noteNumber": 64,
        "velocity": 80
    },
    {
        "track": 0,
        "absoluteTick": 42240,
        "noteNumber": 72,
        "velocity": 80
    },
    {
        "track": 1,
        "absoluteTick": 42240,
        "noteNumber": 42,
        "velocity": 80
    },
    {
        "track": 1,
        "absoluteTick": 42336,
        "noteNumber": 45,
        "velocity": 80
    },
    {
        "track": 1,
        "absoluteTick": 42432,
        "noteNumber": 48,
        "velocity": 80
    },
    {
        "track": 1,
        "absoluteTick": 42528,
        "noteNumber": 51,
        "velocity": 80
    },
    {
        "track": 1,
        "absoluteTick": 42624,
        "noteNumber": 54,
        "velocity": 80
    },
    {
        "track": 1,
        "absoluteTick": 42720,
        "noteNumber": 57,
        "velocity": 80
    },
    {
        "track": 1,
        "absoluteTick": 42816,
        "noteNumber": 54,
        "velocity": 80
    },
    {
        "track": 1,
        "absoluteTick": 42912,
        "noteNumber": 51,
        "velocity": 80
    },
    {
        "track": 1,
        "absoluteTick": 43008,
        "noteNumber": 48,
        "velocity": 80
    },
    {
        "track": 1,
        "absoluteTick": 43104,
        "noteNumber": 45,
        "velocity": 80
    },
    {
        "track": 0,
        "absoluteTick": 43200,
        "noteNumber": 60,
        "velocity": 80
    },
    {
        "track": 0,
        "absoluteTick": 43200,
        "noteNumber": 64,
        "velocity": 80
    },
    {
        "track": 1,
        "absoluteTick": 43200,
        "noteNumber": 42,
        "velocity": 80
    },
    {
        "track": 1,
        "absoluteTick": 43296,
        "noteNumber": 45,
        "velocity": 80
    },
    {
        "track": 1,
        "absoluteTick": 43392,
        "noteNumber": 48,
        "velocity": 80
    },
    {
        "track": 1,
        "absoluteTick": 43488,
        "noteNumber": 51,
        "velocity": 80
    },
    {
        "track": 1,
        "absoluteTick": 43584,
        "noteNumber": 54,
        "velocity": 80
    },
    {
        "track": 1,
        "absoluteTick": 43680,
        "noteNumber": 57,
        "velocity": 80
    },
    {
        "track": 1,
        "absoluteTick": 43776,
        "noteNumber": 54,
        "velocity": 80
    },
    {
        "track": 1,
        "absoluteTick": 43872,
        "noteNumber": 51,
        "velocity": 80
    },
    {
        "track": 1,
        "absoluteTick": 43968,
        "noteNumber": 48,
        "velocity": 80
    },
    {
        "track": 1,
        "absoluteTick": 44064,
        "noteNumber": 45,
        "velocity": 80
    },
    {
        "track": 0,
        "absoluteTick": 44160,
        "noteNumber": 67,
        "velocity": 80
    },
    {
        "track": 0,
        "absoluteTick": 44160,
        "noteNumber": 71,
        "velocity": 80
    },
    {
        "track": 1,
        "absoluteTick": 44160,
        "noteNumber": 40,
        "velocity": 80
    },
    {
        "track": 1,
        "absoluteTick": 44320,
        "noteNumber": 47,
        "velocity": 80
    },
    {
        "track": 1,
        "absoluteTick": 44480,
        "noteNumber": 52,
        "velocity": 80
    },
    {
        "track": 0,
        "absoluteTick": 44640,
        "noteNumber": 66,
        "velocity": 80
    },
    {
        "track": 0,
        "absoluteTick": 44640,
        "noteNumber": 70,
        "velocity": 80
    },
    {
        "track": 1,
        "absoluteTick": 44640,
        "noteNumber": 54,
        "velocity": 80
    },
    {
        "track": 1,
        "absoluteTick": 44800,
        "noteNumber": 56,
        "velocity": 80
    },
    {
        "track": 1,
        "absoluteTick": 44960,
        "noteNumber": 59,
        "velocity": 80
    },
    {
        "track": 0,
        "absoluteTick": 45120,
        "noteNumber": 67,
        "velocity": 80
    },
    {
        "track": 0,
        "absoluteTick": 45120,
        "noteNumber": 71,
        "velocity": 80
    },
    {
        "track": 1,
        "absoluteTick": 45120,
        "noteNumber": 47,
        "velocity": 80
    },
    {
        "track": 1,
        "absoluteTick": 45280,
        "noteNumber": 51,
        "velocity": 80
    },
    {
        "track": 1,
        "absoluteTick": 45440,
        "noteNumber": 54,
        "velocity": 80
    },
    {
        "track": 0,
        "absoluteTick": 45600,
        "noteNumber": 71,
        "velocity": 80
    },
    {
        "track": 0,
        "absoluteTick": 45600,
        "noteNumber": 75,
        "velocity": 80
    },
    {
        "track": 1,
        "absoluteTick": 45600,
        "noteNumber": 59,
        "velocity": 80
    },
    {
        "track": 1,
        "absoluteTick": 45760,
        "noteNumber": 54,
        "velocity": 80
    },
    {
        "track": 1,
        "absoluteTick": 45920,
        "noteNumber": 51,
        "velocity": 80
    },
    {
        "track": 0,
        "absoluteTick": 46080,
        "noteNumber": 64,
        "velocity": 80
    },
    {
        "track": 0,
        "absoluteTick": 46080,
        "noteNumber": 72,
        "velocity": 80
    },
    {
        "track": 0,
        "absoluteTick": 46080,
        "noteNumber": 76,
        "velocity": 80
    },
    {
        "track": 1,
        "absoluteTick": 46080,
        "noteNumber": 45,
        "velocity": 80
    },
    {
        "track": 1,
        "absoluteTick": 46240,
        "noteNumber": 48,
        "velocity": 80
    },
    {
        "track": 1,
        "absoluteTick": 46400,
        "noteNumber": 52,
        "velocity": 81
    },
    {
        "track": 1,
        "absoluteTick": 46560,
        "noteNumber": 57,
        "velocity": 82
    },
    {
        "track": 1,
        "absoluteTick": 46720,
        "noteNumber": 52,
        "velocity": 82
    },
    {
        "track": 1,
        "absoluteTick": 46880,
        "noteNumber": 48,
        "velocity": 83
    },
    {
        "track": 0,
        "absoluteTick": 47040,
        "noteNumber": 60,
        "velocity": 84
    },
    {
        "track": 0,
        "absoluteTick": 47040,
        "noteNumber": 69,
        "velocity": 84
    },
    {
        "track": 0,
        "absoluteTick": 47040,
        "noteNumber": 72,
        "velocity": 84
    },
    {
        "track": 1,
        "absoluteTick": 47040,
        "noteNumber": 45,
        "velocity": 84
    },
    {
        "track": 1,
        "absoluteTick": 47200,
        "noteNumber": 48,
        "velocity": 84
    },
    {
        "track": 1,
        "absoluteTick": 47360,
        "noteNumber": 52,
        "velocity": 85
    },
    {
        "track": 1,
        "absoluteTick": 47520,
        "noteNumber": 57,
        "velocity": 86
    },
    {
        "track": 1,
        "absoluteTick": 47680,
        "noteNumber": 52,
        "velocity": 86
    },
    {
        "track": 1,
        "absoluteTick": 47840,
        "noteNumber": 48,
        "velocity": 87
    },
    {
        "track": 0,
        "absoluteTick": 48000,
        "noteNumber": 63,
        "velocity": 88
    },
    {
        "track": 0,
        "absoluteTick": 48000,
        "noteNumber": 72,
        "velocity": 88
    },
    {
        "track": 0,
        "absoluteTick": 48000,
        "noteNumber": 75,
        "velocity": 88
    },
    {
        "track": 1,
        "absoluteTick": 48000,
        "noteNumber": 47,
        "velocity": 88
    },
    {
        "track": 1,
        "absoluteTick": 48160,
        "noteNumber": 51,
        "velocity": 89
    },
    {
        "track": 1,
        "absoluteTick": 48320,
        "noteNumber": 54,
        "velocity": 89
    },
    {
        "track": 0,
        "absoluteTick": 48480,
        "noteNumber": 61,
        "velocity": 90
    },
    {
        "track": 0,
        "absoluteTick": 48480,
        "noteNumber": 70,
        "velocity": 90
    },
    {
        "track": 0,
        "absoluteTick": 48480,
        "noteNumber": 73,
        "velocity": 90
    },
    {
        "track": 1,
        "absoluteTick": 48480,
        "noteNumber": 57,
        "velocity": 90
    },
    {
        "track": 1,
        "absoluteTick": 48640,
        "noteNumber": 54,
        "velocity": 91
    },
    {
        "track": 1,
        "absoluteTick": 48800,
        "noteNumber": 51,
        "velocity": 91
    },
    {
        "track": 0,
        "absoluteTick": 48960,
        "noteNumber": 63,
        "velocity": 92
    },
    {
        "track": 0,
        "absoluteTick": 48960,
        "noteNumber": 72,
        "velocity": 92
    },
    {
        "track": 0,
        "absoluteTick": 48960,
        "noteNumber": 75,
        "velocity": 92
    },
    {
        "track": 1,
        "absoluteTick": 48960,
        "noteNumber": 47,
        "velocity": 92
    },
    {
        "track": 1,
        "absoluteTick": 49120,
        "noteNumber": 51,
        "velocity": 93
    },
    {
        "track": 1,
        "absoluteTick": 49280,
        "noteNumber": 54,
        "velocity": 93
    },
    {
        "track": 0,
        "absoluteTick": 49440,
        "noteNumber": 66,
        "velocity": 94
    },
    {
        "track": 0,
        "absoluteTick": 49440,
        "noteNumber": 75,
        "velocity": 94
    },
    {
        "track": 0,
        "absoluteTick": 49440,
        "noteNumber": 78,
        "velocity": 94
    },
    {
        "track": 1,
        "absoluteTick": 49440,
        "noteNumber": 57,
        "velocity": 94
    },
    {
        "track": 1,
        "absoluteTick": 49600,
        "noteNumber": 54,
        "velocity": 95
    },
    {
        "track": 1,
        "absoluteTick": 49760,
        "noteNumber": 51,
        "velocity": 96
    },
    {
        "track": 0,
        "absoluteTick": 49920,
        "noteNumber": 67,
        "velocity": 96
    },
    {
        "track": 0,
        "absoluteTick": 49920,
        "noteNumber": 76,
        "velocity": 96
    },
    {
        "track": 0,
        "absoluteTick": 49920,
        "noteNumber": 79,
        "velocity": 96
    },
    {
        "track": 1,
        "absoluteTick": 49920,
        "noteNumber": 43,
        "velocity": 96
    },
    {
        "track": 1,
        "absoluteTick": 50080,
        "noteNumber": 47,
        "velocity": 96
    },
    {
        "track": 1,
        "absoluteTick": 50240,
        "noteNumber": 52,
        "velocity": 96
    },
    {
        "track": 1,
        "absoluteTick": 50400,
        "noteNumber": 55,
        "velocity": 96
    },
    {
        "track": 1,
        "absoluteTick": 50560,
        "noteNumber": 52,
        "velocity": 96
    },
    {
        "track": 1,
        "absoluteTick": 50720,
        "noteNumber": 47,
        "velocity": 96
    },
    {
        "track": 0,
        "absoluteTick": 50880,
        "noteNumber": 64,
        "velocity": 96
    },
    {
        "track": 0,
        "absoluteTick": 50880,
        "noteNumber": 71,
        "velocity": 96
    },
    {
        "track": 0,
        "absoluteTick": 50880,
        "noteNumber": 76,
        "velocity": 96
    },
    {
        "track": 1,
        "absoluteTick": 50880,
        "noteNumber": 43,
        "velocity": 96
    },
    {
        "track": 1,
        "absoluteTick": 51040,
        "noteNumber": 47,
        "velocity": 96
    },
    {
        "track": 1,
        "absoluteTick": 51200,
        "noteNumber": 52,
        "velocity": 96
    },
    {
        "track": 1,
        "absoluteTick": 51360,
        "noteNumber": 55,
        "velocity": 96
    },
    {
        "track": 1,
        "absoluteTick": 51520,
        "noteNumber": 52,
        "velocity": 96
    },
    {
        "track": 1,
        "absoluteTick": 51680,
        "noteNumber": 47,
        "velocity": 96
    },
    {
        "track": 0,
        "absoluteTick": 51840,
        "noteNumber": 69,
        "velocity": 96
    },
    {
        "track": 0,
        "absoluteTick": 51840,
        "noteNumber": 78,
        "velocity": 96
    },
    {
        "track": 0,
        "absoluteTick": 51840,
        "noteNumber": 81,
        "velocity": 96
    },
    {
        "track": 1,
        "absoluteTick": 51840,
        "noteNumber": 42,
        "velocity": 96
    },
    {
        "track": 1,
        "absoluteTick": 52000,
        "noteNumber": 47,
        "velocity": 96
    },
    {
        "track": 1,
        "absoluteTick": 52160,
        "noteNumber": 51,
        "velocity": 96
    },
    {
        "track": 0,
        "absoluteTick": 52320,
        "noteNumber": 67,
        "velocity": 96
    },
    {
        "track": 0,
        "absoluteTick": 52320,
        "noteNumber": 76,
        "velocity": 96
    },
    {
        "track": 0,
        "absoluteTick": 52320,
        "noteNumber": 79,
        "velocity": 96
    },
    {
        "track": 1,
        "absoluteTick": 52320,
        "noteNumber": 54,
        "velocity": 96
    },
    {
        "track": 1,
        "absoluteTick": 52480,
        "noteNumber": 51,
        "velocity": 96
    },
    {
        "track": 1,
        "absoluteTick": 52640,
        "noteNumber": 47,
        "velocity": 96
    },
    {
        "track": 0,
        "absoluteTick": 52800,
        "noteNumber": 69,
        "velocity": 96
    },
    {
        "track": 0,
        "absoluteTick": 52800,
        "noteNumber": 78,
        "velocity": 96
    },
    {
        "track": 0,
        "absoluteTick": 52800,
        "noteNumber": 81,
        "velocity": 96
    },
    {
        "track": 1,
        "absoluteTick": 52800,
        "noteNumber": 42,
        "velocity": 96
    },
    {
        "track": 1,
        "absoluteTick": 52960,
        "noteNumber": 47,
        "velocity": 96
    },
    {
        "track": 1,
        "absoluteTick": 53120,
        "noteNumber": 51,
        "velocity": 96
    },
    {
        "track": 0,
        "absoluteTick": 53280,
        "noteNumber": 66,
        "velocity": 96
    },
    {
        "track": 0,
        "absoluteTick": 53280,
        "noteNumber": 75,
        "velocity": 96
    },
    {
        "track": 0,
        "absoluteTick": 53280,
        "noteNumber": 78,
        "velocity": 96
    },
    {
        "track": 1,
        "absoluteTick": 53280,
        "noteNumber": 54,
        "velocity": 96
    },
    {
        "track": 1,
        "absoluteTick": 53440,
        "noteNumber": 51,
        "velocity": 96
    },
    {
        "track": 1,
        "absoluteTick": 53600,
        "noteNumber": 47,
        "velocity": 96
    },
    {
        "track": 0,
        "absoluteTick": 53760,
        "noteNumber": 71,
        "velocity": 96
    },
    {
        "track": 0,
        "absoluteTick": 53760,
        "noteNumber": 75,
        "velocity": 96
    },
    {
        "track": 0,
        "absoluteTick": 53760,
        "noteNumber": 78,
        "velocity": 96
    },
    {
        "track": 0,
        "absoluteTick": 53760,
        "noteNumber": 83,
        "velocity": 96
    },
    {
        "track": 1,
        "absoluteTick": 53760,
        "noteNumber": 35,
        "velocity": 96
    },
    {
        "track": 1,
        "absoluteTick": 53760,
        "noteNumber": 47,
        "velocity": 96
    },
    {
        "track": 0,
        "absoluteTick": 54240,
        "noteNumber": 83,
        "velocity": 96
    },
    {
        "track": 1,
        "absoluteTick": 54240,
        "noteNumber": 59,
        "velocity": 96
    },
    {
        "track": 0,
        "absoluteTick": 54299,
        "noteNumber": 84,
        "velocity": 96
    },
    {
        "track": 0,
        "absoluteTick": 54359,
        "noteNumber": 83,
        "velocity": 96
    },
    {
        "track": 1,
        "absoluteTick": 54360,
        "noteNumber": 58,
        "velocity": 96
    },
    {
        "track": 0,
        "absoluteTick": 54420,
        "noteNumber": 84,
        "velocity": 96
    },
    {
        "track": 0,
        "absoluteTick": 54479,
        "noteNumber": 83,
        "velocity": 96
    },
    {
        "track": 1,
        "absoluteTick": 54480,
        "noteNumber": 57,
        "velocity": 96
    },
    {
        "track": 0,
        "absoluteTick": 54539,
        "noteNumber": 84,
        "velocity": 96
    },
    {
        "track": 0,
        "absoluteTick": 54600,
        "noteNumber": 83,
        "velocity": 96
    },
    {
        "track": 1,
        "absoluteTick": 54600,
        "noteNumber": 56,
        "velocity": 96
    },
    {
        "track": 0,
        "absoluteTick": 54659,
        "noteNumber": 84,
        "velocity": 96
    },
    {
        "track": 0,
        "absoluteTick": 54719,
        "noteNumber": 83,
        "velocity": 96
    },
    {
        "track": 1,
        "absoluteTick": 54720,
        "noteNumber": 55,
        "velocity": 96
    },
    {
        "track": 0,
        "absoluteTick": 54780,
        "noteNumber": 84,
        "velocity": 96
    },
    {
        "track": 0,
        "absoluteTick": 54839,
        "noteNumber": 83,
        "velocity": 96
    },
    {
        "track": 1,
        "absoluteTick": 54840,
        "noteNumber": 54,
        "velocity": 96
    },
    {
        "track": 0,
        "absoluteTick": 54899,
        "noteNumber": 84,
        "velocity": 96
    },
    {
        "track": 0,
        "absoluteTick": 54960,
        "noteNumber": 83,
        "velocity": 96
    },
    {
        "track": 1,
        "absoluteTick": 54960,
        "noteNumber": 53,
        "velocity": 96
    },
    {
        "track": 0,
        "absoluteTick": 55019,
        "noteNumber": 84,
        "velocity": 96
    },
    {
        "track": 0,
        "absoluteTick": 55079,
        "noteNumber": 83,
        "velocity": 96
    },
    {
        "track": 1,
        "absoluteTick": 55080,
        "noteNumber": 52,
        "velocity": 96
    },
    {
        "track": 0,
        "absoluteTick": 55140,
        "noteNumber": 84,
        "velocity": 96
    },
    {
        "track": 0,
        "absoluteTick": 55199,
        "noteNumber": 83,
        "velocity": 96
    },
    {
        "track": 1,
        "absoluteTick": 55200,
        "noteNumber": 51,
        "velocity": 96
    },
    {
        "track": 0,
        "absoluteTick": 55259,
        "noteNumber": 84,
        "velocity": 96
    },
    {
        "track": 0,
        "absoluteTick": 55320,
        "noteNumber": 83,
        "velocity": 96
    },
    {
        "track": 1,
        "absoluteTick": 55320,
        "noteNumber": 50,
        "velocity": 96
    },
    {
        "track": 0,
        "absoluteTick": 55379,
        "noteNumber": 84,
        "velocity": 96
    },
    {
        "track": 0,
        "absoluteTick": 55439,
        "noteNumber": 83,
        "velocity": 96
    },
    {
        "track": 1,
        "absoluteTick": 55440,
        "noteNumber": 49,
        "velocity": 96
    },
    {
        "track": 0,
        "absoluteTick": 55500,
        "noteNumber": 84,
        "velocity": 96
    },
    {
        "track": 0,
        "absoluteTick": 55559,
        "noteNumber": 83,
        "velocity": 96
    },
    {
        "track": 1,
        "absoluteTick": 55560,
        "noteNumber": 48,
        "velocity": 96
    },
    {
        "track": 0,
        "absoluteTick": 55619,
        "noteNumber": 84,
        "velocity": 96
    },
    {
        "track": 0,
        "absoluteTick": 55680,
        "noteNumber": 83,
        "velocity": 96
    },
    {
        "track": 0,
        "absoluteTick": 55680,
        "noteNumber": 88,
        "velocity": 96
    },
    {
        "track": 1,
        "absoluteTick": 55680,
        "noteNumber": 40,
        "velocity": 96
    },
    {
        "track": 1,
        "absoluteTick": 55680,
        "noteNumber": 47,
        "velocity": 96
    },
    {
        "track": 1,
        "absoluteTick": 55920,
        "noteNumber": 40,
        "velocity": 80
    },
    {
        "track": 1,
        "absoluteTick": 55920,
        "noteNumber": 47,
        "velocity": 80
    },
    {
        "track": 1,
        "absoluteTick": 56160,
        "noteNumber": 38,
        "velocity": 80
    },
    {
        "track": 1,
        "absoluteTick": 56160,
        "noteNumber": 50,
        "velocity": 80
    },
    {
        "track": 1,
        "absoluteTick": 56400,
        "noteNumber": 35,
        "velocity": 80
    },
    {
        "track": 1,
        "absoluteTick": 56400,
        "noteNumber": 47,
        "velocity": 80
    },
    {
        "track": 1,
        "absoluteTick": 56640,
        "noteNumber": 36,
        "velocity": 80
    },
    {
        "track": 1,
        "absoluteTick": 56640,
        "noteNumber": 48,
        "velocity": 80
    },
    {
        "track": 1,
        "absoluteTick": 56880,
        "noteNumber": 38,
        "velocity": 80
    },
    {
        "track": 1,
        "absoluteTick": 56880,
        "noteNumber": 50,
        "velocity": 80
    },
    {
        "track": 1,
        "absoluteTick": 57120,
        "noteNumber": 36,
        "velocity": 80
    },
    {
        "track": 1,
        "absoluteTick": 57120,
        "noteNumber": 48,
        "velocity": 80
    },
    {
        "track": 1,
        "absoluteTick": 57360,
        "noteNumber": 35,
        "velocity": 80
    },
    {
        "track": 1,
        "absoluteTick": 57360,
        "noteNumber": 47,
        "velocity": 80
    },
    {
        "track": 0,
        "absoluteTick": 57600,
        "noteNumber": 64,
        "velocity": 96
    },
    {
        "track": 0,
        "absoluteTick": 57600,
        "noteNumber": 71,
        "velocity": 96
    },
    {
        "track": 0,
        "absoluteTick": 57600,
        "noteNumber": 76,
        "velocity": 96
    },
    {
        "track": 1,
        "absoluteTick": 57600,
        "noteNumber": 40,
        "velocity": 96
    },
    {
        "track": 1,
        "absoluteTick": 57600,
        "noteNumber": 47,
        "velocity": 96
    },
    {
        "track": 1,
        "absoluteTick": 57600,
        "noteNumber": 52,
        "velocity": 96
    },
    {
        "track": 0,
        "absoluteTick": 58320,
        "noteNumber": 64,
        "velocity": 96
    },
    {
        "track": 0,
        "absoluteTick": 58320,
        "noteNumber": 71,
        "velocity": 96
    },
    {
        "track": 0,
        "absoluteTick": 58320,
        "noteNumber": 76,
        "velocity": 96
    },
    {
        "track": 1,
        "absoluteTick": 58320,
        "noteNumber": 40,
        "velocity": 96
    },
    {
        "track": 1,
        "absoluteTick": 58320,
        "noteNumber": 47,
        "velocity": 96
    },
    {
        "track": 1,
        "absoluteTick": 58320,
        "noteNumber": 52,
        "velocity": 96
    },
    {
        "track": 0,
        "absoluteTick": 59040,
        "noteNumber": 64,
        "velocity": 96
    },
    {
        "track": 0,
        "absoluteTick": 59040,
        "noteNumber": 71,
        "velocity": 96
    },
    {
        "track": 0,
        "absoluteTick": 59040,
        "noteNumber": 76,
        "velocity": 96
    },
    {
        "track": 1,
        "absoluteTick": 59040,
        "noteNumber": 40,
        "velocity": 96
    },
    {
        "track": 1,
        "absoluteTick": 59040,
        "noteNumber": 47,
        "velocity": 96
    },
    {
        "track": 1,
        "absoluteTick": 59040,
        "noteNumber": 52,
        "velocity": 96
    },
    {
        "track": 0,
        "absoluteTick": 59760,
        "noteNumber": 64,
        "velocity": 96
    },
    {
        "track": 0,
        "absoluteTick": 59760,
        "noteNumber": 71,
        "velocity": 96
    },
    {
        "track": 0,
        "absoluteTick": 59760,
        "noteNumber": 76,
        "velocity": 96
    },
    {
        "track": 1,
        "absoluteTick": 59760,
        "noteNumber": 40,
        "velocity": 96
    },
    {
        "track": 1,
        "absoluteTick": 59760,
        "noteNumber": 47,
        "velocity": 96
    },
    {
        "track": 1,
        "absoluteTick": 59760,
        "noteNumber": 52,
        "velocity": 96
    },
    {
        "track": 0,
        "absoluteTick": 60480,
        "noteNumber": 69,
        "velocity": 80
    },
    {
        "track": 0,
        "absoluteTick": 60600,
        "noteNumber": 71,
        "velocity": 80
    },
    {
        "track": 0,
        "absoluteTick": 60720,
        "noteNumber": 69,
        "velocity": 80
    },
    {
        "track": 0,
        "absoluteTick": 60840,
        "noteNumber": 67,
        "velocity": 80
    },
    {
        "track": 0,
        "absoluteTick": 60960,
        "noteNumber": 66,
        "velocity": 80
    },
    {
        "track": 0,
        "absoluteTick": 61080,
        "noteNumber": 67,
        "velocity": 80
    },
    {
        "track": 0,
        "absoluteTick": 61200,
        "noteNumber": 66,
        "velocity": 80
    },
    {
        "track": 0,
        "absoluteTick": 61320,
        "noteNumber": 65,
        "velocity": 80
    },
    {
        "track": 0,
        "absoluteTick": 61440,
        "noteNumber": 64,
        "velocity": 96
    },
    {
        "track": 0,
        "absoluteTick": 61440,
        "noteNumber": 71,
        "velocity": 96
    },
    {
        "track": 0,
        "absoluteTick": 61440,
        "noteNumber": 76,
        "velocity": 96
    },
    {
        "track": 1,
        "absoluteTick": 61440,
        "noteNumber": 40,
        "velocity": 96
    },
    {
        "track": 1,
        "absoluteTick": 61440,
        "noteNumber": 47,
        "velocity": 96
    },
    {
        "track": 1,
        "absoluteTick": 61440,
        "noteNumber": 52,
        "velocity": 96
    },
    {
        "track": 0,
        "absoluteTick": 62160,
        "noteNumber": 64,
        "velocity": 96
    },
    {
        "track": 0,
        "absoluteTick": 62160,
        "noteNumber": 71,
        "velocity": 96
    },
    {
        "track": 0,
        "absoluteTick": 62160,
        "noteNumber": 76,
        "velocity": 96
    },
    {
        "track": 1,
        "absoluteTick": 62160,
        "noteNumber": 40,
        "velocity": 96
    },
    {
        "track": 1,
        "absoluteTick": 62160,
        "noteNumber": 47,
        "velocity": 96
    },
    {
        "track": 1,
        "absoluteTick": 62160,
        "noteNumber": 52,
        "velocity": 96
    },
    {
        "track": 0,
        "absoluteTick": 62880,
        "noteNumber": 64,
        "velocity": 96
    },
    {
        "track": 0,
        "absoluteTick": 62880,
        "noteNumber": 71,
        "velocity": 96
    },
    {
        "track": 0,
        "absoluteTick": 62880,
        "noteNumber": 76,
        "velocity": 96
    },
    {
        "track": 1,
        "absoluteTick": 62880,
        "noteNumber": 40,
        "velocity": 96
    },
    {
        "track": 1,
        "absoluteTick": 62880,
        "noteNumber": 47,
        "velocity": 96
    },
    {
        "track": 1,
        "absoluteTick": 62880,
        "noteNumber": 52,
        "velocity": 96
    },
    {
        "track": 0,
        "absoluteTick": 63600,
        "noteNumber": 64,
        "velocity": 96
    },
    {
        "track": 0,
        "absoluteTick": 63600,
        "noteNumber": 71,
        "velocity": 96
    },
    {
        "track": 0,
        "absoluteTick": 63600,
        "noteNumber": 76,
        "velocity": 96
    },
    {
        "track": 1,
        "absoluteTick": 63600,
        "noteNumber": 40,
        "velocity": 96
    },
    {
        "track": 1,
        "absoluteTick": 63600,
        "noteNumber": 47,
        "velocity": 96
    },
    {
        "track": 1,
        "absoluteTick": 63600,
        "noteNumber": 52,
        "velocity": 96
    },
    {
        "track": 0,
        "absoluteTick": 64320,
        "noteNumber": 52,
        "velocity": 80
    },
    {
        "track": 0,
        "absoluteTick": 64440,
        "noteNumber": 54,
        "velocity": 80
    },
    {
        "track": 0,
        "absoluteTick": 64560,
        "noteNumber": 55,
        "velocity": 80
    },
    {
        "track": 0,
        "absoluteTick": 64680,
        "noteNumber": 57,
        "velocity": 80
    },
    {
        "track": 0,
        "absoluteTick": 64800,
        "noteNumber": 55,
        "velocity": 80
    },
    {
        "track": 0,
        "absoluteTick": 64920,
        "noteNumber": 57,
        "velocity": 80
    },
    {
        "track": 0,
        "absoluteTick": 65040,
        "noteNumber": 59,
        "velocity": 80
    },
    {
        "track": 0,
        "absoluteTick": 65160,
        "noteNumber": 60,
        "velocity": 80
    },
    {
        "track": 1,
        "absoluteTick": 65280,
        "noteNumber": 40,
        "velocity": 96
    },
    {
        "track": 1,
        "absoluteTick": 65280,
        "noteNumber": 47,
        "velocity": 96
    },
    {
        "track": 1,
        "absoluteTick": 65280,
        "noteNumber": 52,
        "velocity": 96
    },
    {
        "track": 0,
        "absoluteTick": 65520,
        "noteNumber": 64,
        "velocity": 80
    },
    {
        "track": 0,
        "absoluteTick": 65520,
        "noteNumber": 67,
        "velocity": 80
    },
    {
        "track": 0,
        "absoluteTick": 65640,
        "noteNumber": 65,
        "velocity": 80
    },
    {
        "track": 0,
        "absoluteTick": 65640,
        "noteNumber": 68,
        "velocity": 80
    },
    {
        "track": 0,
        "absoluteTick": 65760,
        "noteNumber": 66,
        "velocity": 80
    },
    {
        "track": 0,
        "absoluteTick": 65760,
        "noteNumber": 69,
        "velocity": 80
    },
    {
        "track": 0,
        "absoluteTick": 65880,
        "noteNumber": 67,
        "velocity": 80
    },
    {
        "track": 0,
        "absoluteTick": 65880,
        "noteNumber": 70,
        "velocity": 80
    },
    {
        "track": 0,
        "absoluteTick": 66000,
        "noteNumber": 68,
        "velocity": 80
    },
    {
        "track": 0,
        "absoluteTick": 66000,
        "noteNumber": 71,
        "velocity": 80
    },
    {
        "track": 1,
        "absoluteTick": 66000,
        "noteNumber": 41,
        "velocity": 96
    },
    {
        "track": 1,
        "absoluteTick": 66000,
        "noteNumber": 53,
        "velocity": 96
    },
    {
        "track": 0,
        "absoluteTick": 66120,
        "noteNumber": 69,
        "velocity": 80
    },
    {
        "track": 0,
        "absoluteTick": 66120,
        "noteNumber": 72,
        "velocity": 80
    },
    {
        "track": 0,
        "absoluteTick": 66240,
        "noteNumber": 70,
        "velocity": 80
    },
    {
        "track": 0,
        "absoluteTick": 66240,
        "noteNumber": 73,
        "velocity": 80
    },
    {
        "track": 0,
        "absoluteTick": 66360,
        "noteNumber": 71,
        "velocity": 80
    },
    {
        "track": 0,
        "absoluteTick": 66360,
        "noteNumber": 74,
        "velocity": 80
    },
    {
        "track": 0,
        "absoluteTick": 66480,
        "noteNumber": 72,
        "velocity": 80
    },
    {
        "track": 0,
        "absoluteTick": 66480,
        "noteNumber": 75,
        "velocity": 80
    },
    {
        "track": 0,
        "absoluteTick": 66600,
        "noteNumber": 73,
        "velocity": 80
    },
    {
        "track": 0,
        "absoluteTick": 66600,
        "noteNumber": 76,
        "velocity": 80
    },
    {
        "track": 0,
        "absoluteTick": 66720,
        "noteNumber": 74,
        "velocity": 80
    },
    {
        "track": 0,
        "absoluteTick": 66720,
        "noteNumber": 77,
        "velocity": 80
    },
    {
        "track": 1,
        "absoluteTick": 66720,
        "noteNumber": 42,
        "velocity": 96
    },
    {
        "track": 1,
        "absoluteTick": 66720,
        "noteNumber": 54,
        "velocity": 96
    },
    {
        "track": 0,
        "absoluteTick": 66840,
        "noteNumber": 75,
        "velocity": 80
    },
    {
        "track": 0,
        "absoluteTick": 66840,
        "noteNumber": 78,
        "velocity": 80
    },
    {
        "track": 0,
        "absoluteTick": 66960,
        "noteNumber": 76,
        "velocity": 80
    },
    {
        "track": 0,
        "absoluteTick": 66960,
        "noteNumber": 79,
        "velocity": 80
    },
    {
        "track": 0,
        "absoluteTick": 67080,
        "noteNumber": 77,
        "velocity": 80
    },
    {
        "track": 0,
        "absoluteTick": 67080,
        "noteNumber": 80,
        "velocity": 80
    },
    {
        "track": 0,
        "absoluteTick": 67200,
        "noteNumber": 78,
        "velocity": 80
    },
    {
        "track": 0,
        "absoluteTick": 67200,
        "noteNumber": 81,
        "velocity": 80
    },
    {
        "track": 0,
        "absoluteTick": 67320,
        "noteNumber": 79,
        "velocity": 80
    },
    {
        "track": 0,
        "absoluteTick": 67320,
        "noteNumber": 82,
        "velocity": 80
    },
    {
        "track": 0,
        "absoluteTick": 67440,
        "noteNumber": 80,
        "velocity": 80
    },
    {
        "track": 0,
        "absoluteTick": 67440,
        "noteNumber": 83,
        "velocity": 80
    },
    {
        "track": 1,
        "absoluteTick": 67440,
        "noteNumber": 43,
        "velocity": 96
    },
    {
        "track": 1,
        "absoluteTick": 67440,
        "noteNumber": 55,
        "velocity": 96
    },
    {
        "track": 0,
        "absoluteTick": 67560,
        "noteNumber": 81,
        "velocity": 80
    },
    {
        "track": 0,
        "absoluteTick": 67560,
        "noteNumber": 84,
        "velocity": 80
    },
    {
        "track": 0,
        "absoluteTick": 67680,
        "noteNumber": 82,
        "velocity": 80
    },
    {
        "track": 0,
        "absoluteTick": 67680,
        "noteNumber": 85,
        "velocity": 80
    },
    {
        "track": 0,
        "absoluteTick": 67800,
        "noteNumber": 83,
        "velocity": 80
    },
    {
        "track": 0,
        "absoluteTick": 67800,
        "noteNumber": 86,
        "velocity": 80
    },
    {
        "track": 0,
        "absoluteTick": 67920,
        "noteNumber": 84,
        "velocity": 80
    },
    {
        "track": 0,
        "absoluteTick": 67920,
        "noteNumber": 87,
        "velocity": 80
    },
    {
        "track": 0,
        "absoluteTick": 68040,
        "noteNumber": 85,
        "velocity": 80
    },
    {
        "track": 0,
        "absoluteTick": 68040,
        "noteNumber": 88,
        "velocity": 80
    },
    {
        "track": 0,
        "absoluteTick": 68160,
        "noteNumber": 86,
        "velocity": 80
    },
    {
        "track": 0,
        "absoluteTick": 68160,
        "noteNumber": 89,
        "velocity": 80
    },
    {
        "track": 0,
        "absoluteTick": 68280,
        "noteNumber": 87,
        "velocity": 80
    },
    {
        "track": 0,
        "absoluteTick": 68280,
        "noteNumber": 90,
        "velocity": 80
    },
    {
        "track": 0,
        "absoluteTick": 68400,
        "noteNumber": 88,
        "velocity": 80
    },
    {
        "track": 0,
        "absoluteTick": 68400,
        "noteNumber": 91,
        "velocity": 80
    },
    {
        "track": 0,
        "absoluteTick": 68520,
        "noteNumber": 87,
        "velocity": 80
    },
    {
        "track": 0,
        "absoluteTick": 68520,
        "noteNumber": 90,
        "velocity": 80
    },
    {
        "track": 0,
        "absoluteTick": 68640,
        "noteNumber": 88,
        "velocity": 80
    },
    {
        "track": 0,
        "absoluteTick": 68640,
        "noteNumber": 91,
        "velocity": 80
    },
    {
        "track": 0,
        "absoluteTick": 68760,
        "noteNumber": 87,
        "velocity": 80
    },
    {
        "track": 0,
        "absoluteTick": 68760,
        "noteNumber": 90,
        "velocity": 80
    },
    {
        "track": 0,
        "absoluteTick": 68880,
        "noteNumber": 88,
        "velocity": 80
    },
    {
        "track": 0,
        "absoluteTick": 68880,
        "noteNumber": 91,
        "velocity": 80
    },
    {
        "track": 0,
        "absoluteTick": 69000,
        "noteNumber": 87,
        "velocity": 80
    },
    {
        "track": 0,
        "absoluteTick": 69000,
        "noteNumber": 90,
        "velocity": 80
    },
    {
        "track": 0,
        "absoluteTick": 69120,
        "noteNumber": 88,
        "velocity": 80
    },
    {
        "track": 0,
        "absoluteTick": 69120,
        "noteNumber": 91,
        "velocity": 80
    },
    {
        "track": 1,
        "absoluteTick": 69120,
        "noteNumber": 46,
        "velocity": 96
    },
    {
        "track": 1,
        "absoluteTick": 69120,
        "noteNumber": 54,
        "velocity": 96
    },
    {
        "track": 1,
        "absoluteTick": 69120,
        "noteNumber": 58,
        "velocity": 96
    },
    {
        "track": 0,
        "absoluteTick": 69240,
        "noteNumber": 87,
        "velocity": 80
    },
    {
        "track": 0,
        "absoluteTick": 69240,
        "noteNumber": 90,
        "velocity": 80
    },
    {
        "track": 0,
        "absoluteTick": 69360,
        "noteNumber": 88,
        "velocity": 80
    },
    {
        "track": 0,
        "absoluteTick": 69360,
        "noteNumber": 91,
        "velocity": 80
    },
    {
        "track": 0,
        "absoluteTick": 69480,
        "noteNumber": 87,
        "velocity": 80
    },
    {
        "track": 0,
        "absoluteTick": 69480,
        "noteNumber": 90,
        "velocity": 80
    },
    {
        "track": 0,
        "absoluteTick": 69600,
        "noteNumber": 88,
        "velocity": 80
    },
    {
        "track": 0,
        "absoluteTick": 69600,
        "noteNumber": 91,
        "velocity": 80
    },
    {
        "track": 0,
        "absoluteTick": 69720,
        "noteNumber": 87,
        "velocity": 80
    },
    {
        "track": 0,
        "absoluteTick": 69720,
        "noteNumber": 90,
        "velocity": 80
    },
    {
        "track": 0,
        "absoluteTick": 69840,
        "noteNumber": 88,
        "velocity": 80
    },
    {
        "track": 0,
        "absoluteTick": 69840,
        "noteNumber": 91,
        "velocity": 80
    },
    {
        "track": 1,
        "absoluteTick": 69840,
        "noteNumber": 47,
        "velocity": 96
    },
    {
        "track": 1,
        "absoluteTick": 69840,
        "noteNumber": 54,
        "velocity": 96
    },
    {
        "track": 1,
        "absoluteTick": 69840,
        "noteNumber": 59,
        "velocity": 96
    },
    {
        "track": 0,
        "absoluteTick": 69960,
        "noteNumber": 87,
        "velocity": 80
    },
    {
        "track": 0,
        "absoluteTick": 69960,
        "noteNumber": 90,
        "velocity": 80
    },
    {
        "track": 0,
        "absoluteTick": 70080,
        "noteNumber": 88,
        "velocity": 80
    },
    {
        "track": 0,
        "absoluteTick": 70080,
        "noteNumber": 91,
        "velocity": 80
    },
    {
        "track": 0,
        "absoluteTick": 70200,
        "noteNumber": 87,
        "velocity": 80
    },
    {
        "track": 0,
        "absoluteTick": 70200,
        "noteNumber": 90,
        "velocity": 80
    },
    {
        "track": 0,
        "absoluteTick": 70320,
        "noteNumber": 88,
        "velocity": 80
    },
    {
        "track": 0,
        "absoluteTick": 70320,
        "noteNumber": 91,
        "velocity": 80
    },
    {
        "track": 0,
        "absoluteTick": 70440,
        "noteNumber": 87,
        "velocity": 80
    },
    {
        "track": 0,
        "absoluteTick": 70440,
        "noteNumber": 90,
        "velocity": 80
    },
    {
        "track": 0,
        "absoluteTick": 70560,
        "noteNumber": 88,
        "velocity": 80
    },
    {
        "track": 0,
        "absoluteTick": 70560,
        "noteNumber": 91,
        "velocity": 80
    },
    {
        "track": 1,
        "absoluteTick": 70560,
        "noteNumber": 48,
        "velocity": 96
    },
    {
        "track": 1,
        "absoluteTick": 70560,
        "noteNumber": 54,
        "velocity": 96
    },
    {
        "track": 1,
        "absoluteTick": 70560,
        "noteNumber": 60,
        "velocity": 96
    },
    {
        "track": 0,
        "absoluteTick": 70680,
        "noteNumber": 87,
        "velocity": 80
    },
    {
        "track": 0,
        "absoluteTick": 70680,
        "noteNumber": 90,
        "velocity": 80
    },
    {
        "track": 0,
        "absoluteTick": 70800,
        "noteNumber": 88,
        "velocity": 80
    },
    {
        "track": 0,
        "absoluteTick": 70800,
        "noteNumber": 91,
        "velocity": 80
    },
    {
        "track": 0,
        "absoluteTick": 70920,
        "noteNumber": 87,
        "velocity": 80
    },
    {
        "track": 0,
        "absoluteTick": 70920,
        "noteNumber": 90,
        "velocity": 80
    },
    {
        "track": 0,
        "absoluteTick": 71040,
        "noteNumber": 88,
        "velocity": 80
    },
    {
        "track": 0,
        "absoluteTick": 71040,
        "noteNumber": 91,
        "velocity": 80
    },
    {
        "track": 0,
        "absoluteTick": 71160,
        "noteNumber": 87,
        "velocity": 80
    },
    {
        "track": 0,
        "absoluteTick": 71160,
        "noteNumber": 90,
        "velocity": 80
    },
    {
        "track": 0,
        "absoluteTick": 71280,
        "noteNumber": 88,
        "velocity": 80
    },
    {
        "track": 0,
        "absoluteTick": 71280,
        "noteNumber": 91,
        "velocity": 80
    },
    {
        "track": 1,
        "absoluteTick": 71280,
        "noteNumber": 51,
        "velocity": 96
    },
    {
        "track": 1,
        "absoluteTick": 71280,
        "noteNumber": 54,
        "velocity": 96
    },
    {
        "track": 1,
        "absoluteTick": 71280,
        "noteNumber": 63,
        "velocity": 96
    },
    {
        "track": 0,
        "absoluteTick": 71400,
        "noteNumber": 87,
        "velocity": 80
    },
    {
        "track": 0,
        "absoluteTick": 71400,
        "noteNumber": 90,
        "velocity": 80
    },
    {
        "track": 0,
        "absoluteTick": 71520,
        "noteNumber": 88,
        "velocity": 80
    },
    {
        "track": 0,
        "absoluteTick": 71520,
        "noteNumber": 91,
        "velocity": 80
    },
    {
        "track": 0,
        "absoluteTick": 71640,
        "noteNumber": 87,
        "velocity": 80
    },
    {
        "track": 0,
        "absoluteTick": 71640,
        "noteNumber": 90,
        "velocity": 80
    },
    {
        "track": 0,
        "absoluteTick": 71760,
        "noteNumber": 88,
        "velocity": 80
    },
    {
        "track": 0,
        "absoluteTick": 71760,
        "noteNumber": 91,
        "velocity": 80
    },
    {
        "track": 0,
        "absoluteTick": 71880,
        "noteNumber": 87,
        "velocity": 80
    },
    {
        "track": 0,
        "absoluteTick": 71880,
        "noteNumber": 90,
        "velocity": 80
    },
    {
        "track": 0,
        "absoluteTick": 72000,
        "noteNumber": 88,
        "velocity": 80
    },
    {
        "track": 0,
        "absoluteTick": 72000,
        "noteNumber": 91,
        "velocity": 80
    },
    {
        "track": 0,
        "absoluteTick": 72120,
        "noteNumber": 87,
        "velocity": 80
    },
    {
        "track": 0,
        "absoluteTick": 72120,
        "noteNumber": 90,
        "velocity": 80
    },
    {
        "track": 0,
        "absoluteTick": 72240,
        "noteNumber": 88,
        "velocity": 80
    },
    {
        "track": 0,
        "absoluteTick": 72240,
        "noteNumber": 91,
        "velocity": 80
    },
    {
        "track": 0,
        "absoluteTick": 72360,
        "noteNumber": 87,
        "velocity": 80
    },
    {
        "track": 0,
        "absoluteTick": 72360,
        "noteNumber": 90,
        "velocity": 80
    },
    {
        "track": 0,
        "absoluteTick": 72480,
        "noteNumber": 88,
        "velocity": 80
    },
    {
        "track": 0,
        "absoluteTick": 72480,
        "noteNumber": 91,
        "velocity": 80
    },
    {
        "track": 0,
        "absoluteTick": 72600,
        "noteNumber": 87,
        "velocity": 80
    },
    {
        "track": 0,
        "absoluteTick": 72600,
        "noteNumber": 90,
        "velocity": 80
    },
    {
        "track": 0,
        "absoluteTick": 72720,
        "noteNumber": 88,
        "velocity": 80
    },
    {
        "track": 0,
        "absoluteTick": 72720,
        "noteNumber": 91,
        "velocity": 80
    },
    {
        "track": 0,
        "absoluteTick": 72840,
        "noteNumber": 87,
        "velocity": 80
    },
    {
        "track": 0,
        "absoluteTick": 72840,
        "noteNumber": 90,
        "velocity": 80
    },
    {
        "track": 0,
        "absoluteTick": 72960,
        "noteNumber": 88,
        "velocity": 80
    },
    {
        "track": 0,
        "absoluteTick": 73080,
        "noteNumber": 89,
        "velocity": 80
    },
    {
        "track": 0,
        "absoluteTick": 73200,
        "noteNumber": 92,
        "velocity": 80
    },
    {
        "track": 0,
        "absoluteTick": 73320,
        "noteNumber": 93,
        "velocity": 80
    },
    {
        "track": 0,
        "absoluteTick": 73440,
        "noteNumber": 95,
        "velocity": 80
    },
    {
        "track": 0,
        "absoluteTick": 73560,
        "noteNumber": 96,
        "velocity": 80
    },
    {
        "track": 0,
        "absoluteTick": 73680,
        "noteNumber": 98,
        "velocity": 80
    },
    {
        "track": 0,
        "absoluteTick": 73800,
        "noteNumber": 100,
        "velocity": 80
    },
    {
        "track": 0,
        "absoluteTick": 73920,
        "noteNumber": 98,
        "velocity": 80
    },
    {
        "track": 0,
        "absoluteTick": 74040,
        "noteNumber": 96,
        "velocity": 80
    },
    {
        "track": 0,
        "absoluteTick": 74160,
        "noteNumber": 95,
        "velocity": 80
    },
    {
        "track": 0,
        "absoluteTick": 74280,
        "noteNumber": 93,
        "velocity": 80
    },
    {
        "track": 0,
        "absoluteTick": 74400,
        "noteNumber": 92,
        "velocity": 80
    },
    {
        "track": 0,
        "absoluteTick": 74520,
        "noteNumber": 89,
        "velocity": 80
    },
    {
        "track": 0,
        "absoluteTick": 74640,
        "noteNumber": 88,
        "velocity": 80
    },
    {
        "track": 0,
        "absoluteTick": 74760,
        "noteNumber": 86,
        "velocity": 80
    },
    {
        "track": 0,
        "absoluteTick": 74880,
        "noteNumber": 84,
        "velocity": 80
    },
    {
        "track": 0,
        "absoluteTick": 75000,
        "noteNumber": 83,
        "velocity": 80
    },
    {
        "track": 0,
        "absoluteTick": 75120,
        "noteNumber": 81,
        "velocity": 80
    },
    {
        "track": 0,
        "absoluteTick": 75240,
        "noteNumber": 80,
        "velocity": 80
    },
    {
        "track": 0,
        "absoluteTick": 75360,
        "noteNumber": 81,
        "velocity": 80
    },
    {
        "track": 0,
        "absoluteTick": 75480,
        "noteNumber": 83,
        "velocity": 80
    },
    {
        "track": 0,
        "absoluteTick": 75600,
        "noteNumber": 84,
        "velocity": 80
    },
    {
        "track": 0,
        "absoluteTick": 75720,
        "noteNumber": 86,
        "velocity": 80
    },
    {
        "track": 0,
        "absoluteTick": 75840,
        "noteNumber": 88,
        "velocity": 80
    },
    {
        "track": 0,
        "absoluteTick": 75960,
        "noteNumber": 86,
        "velocity": 80
    },
    {
        "track": 0,
        "absoluteTick": 76080,
        "noteNumber": 84,
        "velocity": 80
    },
    {
        "track": 0,
        "absoluteTick": 76200,
        "noteNumber": 83,
        "velocity": 80
    },
    {
        "track": 0,
        "absoluteTick": 76320,
        "noteNumber": 81,
        "velocity": 80
    },
    {
        "track": 0,
        "absoluteTick": 76440,
        "noteNumber": 80,
        "velocity": 80
    },
    {
        "track": 0,
        "absoluteTick": 76560,
        "noteNumber": 77,
        "velocity": 80
    },
    {
        "track": 0,
        "absoluteTick": 76680,
        "noteNumber": 76,
        "velocity": 80
    },
    {
        "track": 0,
        "absoluteTick": 76800,
        "noteNumber": 74,
        "velocity": 80
    },
    {
        "track": 0,
        "absoluteTick": 76920,
        "noteNumber": 72,
        "velocity": 80
    },
    {
        "track": 0,
        "absoluteTick": 77040,
        "noteNumber": 71,
        "velocity": 80
    },
    {
        "track": 0,
        "absoluteTick": 77160,
        "noteNumber": 69,
        "velocity": 80
    },
    {
        "track": 0,
        "absoluteTick": 77280,
        "noteNumber": 68,
        "velocity": 80
    },
    {
        "track": 0,
        "absoluteTick": 77400,
        "noteNumber": 69,
        "velocity": 80
    },
    {
        "track": 0,
        "absoluteTick": 77520,
        "noteNumber": 71,
        "velocity": 80
    },
    {
        "track": 0,
        "absoluteTick": 77640,
        "noteNumber": 72,
        "velocity": 80
    },
    {
        "track": 0,
        "absoluteTick": 77760,
        "noteNumber": 74,
        "velocity": 80
    },
    {
        "track": 0,
        "absoluteTick": 77880,
        "noteNumber": 76,
        "velocity": 80
    },
    {
        "track": 0,
        "absoluteTick": 78000,
        "noteNumber": 74,
        "velocity": 80
    },
    {
        "track": 0,
        "absoluteTick": 78120,
        "noteNumber": 72,
        "velocity": 80
    },
    {
        "track": 0,
        "absoluteTick": 78240,
        "noteNumber": 71,
        "velocity": 80
    },
    {
        "track": 0,
        "absoluteTick": 78360,
        "noteNumber": 69,
        "velocity": 80
    },
    {
        "track": 0,
        "absoluteTick": 78480,
        "noteNumber": 68,
        "velocity": 80
    },
    {
        "track": 0,
        "absoluteTick": 78600,
        "noteNumber": 65,
        "velocity": 80
    },
    {
        "track": 0,
        "absoluteTick": 78720,
        "noteNumber": 64,
        "velocity": 126
    },
    {
        "track": 0,
        "absoluteTick": 78720,
        "noteNumber": 71,
        "velocity": 126
    },
    {
        "track": 0,
        "absoluteTick": 78720,
        "noteNumber": 76,
        "velocity": 126
    },
    {
        "track": 1,
        "absoluteTick": 78720,
        "noteNumber": 28,
        "velocity": 126
    },
    {
        "track": 1,
        "absoluteTick": 78720,
        "noteNumber": 40,
        "velocity": 126
    },
    {
        "track": 0,
        "absoluteTick": 78960,
        "noteNumber": 64,
        "velocity": 117
    },
    {
        "track": 0,
        "absoluteTick": 78960,
        "noteNumber": 71,
        "velocity": 117
    },
    {
        "track": 0,
        "absoluteTick": 78960,
        "noteNumber": 76,
        "velocity": 117
    },
    {
        "track": 1,
        "absoluteTick": 79200,
        "noteNumber": 50,
        "velocity": 96
    },
    {
        "track": 1,
        "absoluteTick": 79200,
        "noteNumber": 62,
        "velocity": 96
    },
    {
        "track": 1,
        "absoluteTick": 79320,
        "noteNumber": 62,
        "velocity": 96
    },
    {
        "track": 1,
        "absoluteTick": 79320,
        "noteNumber": 74,
        "velocity": 96
    },
    {
        "track": 1,
        "absoluteTick": 79440,
        "noteNumber": 47,
        "velocity": 96
    },
    {
        "track": 1,
        "absoluteTick": 79440,
        "noteNumber": 59,
        "velocity": 96
    },
    {
        "track": 1,
        "absoluteTick": 79560,
        "noteNumber": 59,
        "velocity": 96
    },
    {
        "track": 1,
        "absoluteTick": 79560,
        "noteNumber": 71,
        "velocity": 96
    },
    {
        "track": 1,
        "absoluteTick": 79680,
        "noteNumber": 48,
        "velocity": 96
    },
    {
        "track": 1,
        "absoluteTick": 79680,
        "noteNumber": 60,
        "velocity": 96
    },
    {
        "track": 1,
        "absoluteTick": 79800,
        "noteNumber": 60,
        "velocity": 96
    },
    {
        "track": 1,
        "absoluteTick": 79800,
        "noteNumber": 72,
        "velocity": 96
    },
    {
        "track": 1,
        "absoluteTick": 79920,
        "noteNumber": 50,
        "velocity": 96
    },
    {
        "track": 1,
        "absoluteTick": 79920,
        "noteNumber": 62,
        "velocity": 96
    },
    {
        "track": 1,
        "absoluteTick": 80040,
        "noteNumber": 62,
        "velocity": 96
    },
    {
        "track": 1,
        "absoluteTick": 80040,
        "noteNumber": 74,
        "velocity": 96
    },
    {
        "track": 1,
        "absoluteTick": 80160,
        "noteNumber": 48,
        "velocity": 96
    },
    {
        "track": 1,
        "absoluteTick": 80160,
        "noteNumber": 60,
        "velocity": 96
    },
    {
        "track": 1,
        "absoluteTick": 80280,
        "noteNumber": 60,
        "velocity": 96
    },
    {
        "track": 1,
        "absoluteTick": 80280,
        "noteNumber": 72,
        "velocity": 96
    },
    {
        "track": 1,
        "absoluteTick": 80400,
        "noteNumber": 47,
        "velocity": 96
    },
    {
        "track": 1,
        "absoluteTick": 80400,
        "noteNumber": 59,
        "velocity": 96
    },
    {
        "track": 1,
        "absoluteTick": 80520,
        "noteNumber": 59,
        "velocity": 96
    },
    {
        "track": 1,
        "absoluteTick": 80520,
        "noteNumber": 71,
        "velocity": 96
    },
    {
        "track": 1,
        "absoluteTick": 80640,
        "noteNumber": 46,
        "velocity": 96
    },
    {
        "track": 1,
        "absoluteTick": 80640,
        "noteNumber": 58,
        "velocity": 96
    },
    {
        "track": 1,
        "absoluteTick": 80760,
        "noteNumber": 58,
        "velocity": 96
    },
    {
        "track": 1,
        "absoluteTick": 80760,
        "noteNumber": 70,
        "velocity": 96
    },
    {
        "track": 1,
        "absoluteTick": 80880,
        "noteNumber": 47,
        "velocity": 96
    },
    {
        "track": 1,
        "absoluteTick": 80880,
        "noteNumber": 59,
        "velocity": 96
    },
    {
        "track": 1,
        "absoluteTick": 81000,
        "noteNumber": 59,
        "velocity": 96
    },
    {
        "track": 1,
        "absoluteTick": 81000,
        "noteNumber": 71,
        "velocity": 96
    },
    {
        "track": 1,
        "absoluteTick": 81120,
        "noteNumber": 46,
        "velocity": 96
    },
    {
        "track": 1,
        "absoluteTick": 81120,
        "noteNumber": 58,
        "velocity": 96
    },
    {
        "track": 1,
        "absoluteTick": 81240,
        "noteNumber": 58,
        "velocity": 96
    },
    {
        "track": 1,
        "absoluteTick": 81240,
        "noteNumber": 70,
        "velocity": 96
    },
    {
        "track": 1,
        "absoluteTick": 81360,
        "noteNumber": 45,
        "velocity": 96
    },
    {
        "track": 1,
        "absoluteTick": 81360,
        "noteNumber": 57,
        "velocity": 96
    },
    {
        "track": 1,
        "absoluteTick": 81480,
        "noteNumber": 57,
        "velocity": 96
    },
    {
        "track": 1,
        "absoluteTick": 81480,
        "noteNumber": 69,
        "velocity": 96
    },
    {
        "track": 1,
        "absoluteTick": 81600,
        "noteNumber": 44,
        "velocity": 96
    },
    {
        "track": 1,
        "absoluteTick": 81600,
        "noteNumber": 56,
        "velocity": 96
    },
    {
        "track": 1,
        "absoluteTick": 81720,
        "noteNumber": 56,
        "velocity": 96
    },
    {
        "track": 1,
        "absoluteTick": 81720,
        "noteNumber": 68,
        "velocity": 96
    },
    {
        "track": 1,
        "absoluteTick": 81840,
        "noteNumber": 45,
        "velocity": 96
    },
    {
        "track": 1,
        "absoluteTick": 81840,
        "noteNumber": 57,
        "velocity": 96
    },
    {
        "track": 1,
        "absoluteTick": 81960,
        "noteNumber": 57,
        "velocity": 96
    },
    {
        "track": 1,
        "absoluteTick": 81960,
        "noteNumber": 69,
        "velocity": 96
    },
    {
        "track": 1,
        "absoluteTick": 82080,
        "noteNumber": 44,
        "velocity": 96
    },
    {
        "track": 1,
        "absoluteTick": 82080,
        "noteNumber": 56,
        "velocity": 96
    },
    {
        "track": 1,
        "absoluteTick": 82200,
        "noteNumber": 56,
        "velocity": 96
    },
    {
        "track": 1,
        "absoluteTick": 82200,
        "noteNumber": 68,
        "velocity": 96
    },
    {
        "track": 1,
        "absoluteTick": 82320,
        "noteNumber": 41,
        "velocity": 96
    },
    {
        "track": 1,
        "absoluteTick": 82320,
        "noteNumber": 53,
        "velocity": 96
    },
    {
        "track": 1,
        "absoluteTick": 82440,
        "noteNumber": 53,
        "velocity": 96
    },
    {
        "track": 1,
        "absoluteTick": 82440,
        "noteNumber": 65,
        "velocity": 96
    },
    {
        "track": 0,
        "absoluteTick": 82560,
        "noteNumber": 64,
        "velocity": 126
    },
    {
        "track": 0,
        "absoluteTick": 82560,
        "noteNumber": 71,
        "velocity": 126
    },
    {
        "track": 0,
        "absoluteTick": 82560,
        "noteNumber": 76,
        "velocity": 126
    },
    {
        "track": 1,
        "absoluteTick": 82560,
        "noteNumber": 28,
        "velocity": 126
    },
    {
        "track": 1,
        "absoluteTick": 82560,
        "noteNumber": 40,
        "velocity": 126
    },
    {
        "track": 0,
        "absoluteTick": 82800,
        "noteNumber": 64,
        "velocity": 117
    },
    {
        "track": 0,
        "absoluteTick": 82800,
        "noteNumber": 71,
        "velocity": 117
    },
    {
        "track": 0,
        "absoluteTick": 82800,
        "noteNumber": 76,
        "velocity": 117
    },
    {
        "track": 1,
        "absoluteTick": 83040,
        "noteNumber": 50,
        "velocity": 96
    },
    {
        "track": 1,
        "absoluteTick": 83040,
        "noteNumber": 62,
        "velocity": 96
    },
    {
        "track": 1,
        "absoluteTick": 83160,
        "noteNumber": 62,
        "velocity": 96
    },
    {
        "track": 1,
        "absoluteTick": 83160,
        "noteNumber": 74,
        "velocity": 96
    },
    {
        "track": 1,
        "absoluteTick": 83280,
        "noteNumber": 47,
        "velocity": 96
    },
    {
        "track": 1,
        "absoluteTick": 83280,
        "noteNumber": 59,
        "velocity": 96
    },
    {
        "track": 1,
        "absoluteTick": 83400,
        "noteNumber": 59,
        "velocity": 96
    },
    {
        "track": 1,
        "absoluteTick": 83400,
        "noteNumber": 71,
        "velocity": 96
    },
    {
        "track": 1,
        "absoluteTick": 83520,
        "noteNumber": 48,
        "velocity": 96
    },
    {
        "track": 1,
        "absoluteTick": 83520,
        "noteNumber": 60,
        "velocity": 96
    },
    {
        "track": 1,
        "absoluteTick": 83640,
        "noteNumber": 60,
        "velocity": 96
    },
    {
        "track": 1,
        "absoluteTick": 83640,
        "noteNumber": 72,
        "velocity": 96
    },
    {
        "track": 1,
        "absoluteTick": 83760,
        "noteNumber": 50,
        "velocity": 96
    },
    {
        "track": 1,
        "absoluteTick": 83760,
        "noteNumber": 62,
        "velocity": 96
    },
    {
        "track": 1,
        "absoluteTick": 83880,
        "noteNumber": 62,
        "velocity": 96
    },
    {
        "track": 1,
        "absoluteTick": 83880,
        "noteNumber": 74,
        "velocity": 96
    },
    {
        "track": 1,
        "absoluteTick": 84000,
        "noteNumber": 48,
        "velocity": 96
    },
    {
        "track": 1,
        "absoluteTick": 84000,
        "noteNumber": 60,
        "velocity": 96
    },
    {
        "track": 1,
        "absoluteTick": 84120,
        "noteNumber": 60,
        "velocity": 96
    },
    {
        "track": 1,
        "absoluteTick": 84120,
        "noteNumber": 72,
        "velocity": 96
    },
    {
        "track": 1,
        "absoluteTick": 84240,
        "noteNumber": 47,
        "velocity": 96
    },
    {
        "track": 1,
        "absoluteTick": 84240,
        "noteNumber": 59,
        "velocity": 96
    },
    {
        "track": 1,
        "absoluteTick": 84360,
        "noteNumber": 59,
        "velocity": 96
    },
    {
        "track": 1,
        "absoluteTick": 84360,
        "noteNumber": 71,
        "velocity": 96
    },
    {
        "track": 1,
        "absoluteTick": 84480,
        "noteNumber": 46,
        "velocity": 96
    },
    {
        "track": 1,
        "absoluteTick": 84480,
        "noteNumber": 58,
        "velocity": 96
    },
    {
        "track": 1,
        "absoluteTick": 84600,
        "noteNumber": 58,
        "velocity": 96
    },
    {
        "track": 1,
        "absoluteTick": 84600,
        "noteNumber": 70,
        "velocity": 96
    },
    {
        "track": 1,
        "absoluteTick": 84720,
        "noteNumber": 47,
        "velocity": 96
    },
    {
        "track": 1,
        "absoluteTick": 84720,
        "noteNumber": 59,
        "velocity": 96
    },
    {
        "track": 1,
        "absoluteTick": 84840,
        "noteNumber": 59,
        "velocity": 96
    },
    {
        "track": 1,
        "absoluteTick": 84840,
        "noteNumber": 71,
        "velocity": 96
    },
    {
        "track": 1,
        "absoluteTick": 84960,
        "noteNumber": 46,
        "velocity": 96
    },
    {
        "track": 1,
        "absoluteTick": 84960,
        "noteNumber": 58,
        "velocity": 96
    },
    {
        "track": 1,
        "absoluteTick": 85080,
        "noteNumber": 58,
        "velocity": 96
    },
    {
        "track": 1,
        "absoluteTick": 85080,
        "noteNumber": 70,
        "velocity": 96
    },
    {
        "track": 1,
        "absoluteTick": 85200,
        "noteNumber": 45,
        "velocity": 96
    },
    {
        "track": 1,
        "absoluteTick": 85200,
        "noteNumber": 57,
        "velocity": 96
    },
    {
        "track": 1,
        "absoluteTick": 85320,
        "noteNumber": 57,
        "velocity": 96
    },
    {
        "track": 1,
        "absoluteTick": 85320,
        "noteNumber": 69,
        "velocity": 96
    },
    {
        "track": 1,
        "absoluteTick": 85440,
        "noteNumber": 44,
        "velocity": 96
    },
    {
        "track": 1,
        "absoluteTick": 85440,
        "noteNumber": 56,
        "velocity": 96
    },
    {
        "track": 1,
        "absoluteTick": 85560,
        "noteNumber": 56,
        "velocity": 96
    },
    {
        "track": 1,
        "absoluteTick": 85560,
        "noteNumber": 68,
        "velocity": 96
    },
    {
        "track": 1,
        "absoluteTick": 85680,
        "noteNumber": 45,
        "velocity": 96
    },
    {
        "track": 1,
        "absoluteTick": 85680,
        "noteNumber": 57,
        "velocity": 96
    },
    {
        "track": 1,
        "absoluteTick": 85800,
        "noteNumber": 57,
        "velocity": 96
    },
    {
        "track": 1,
        "absoluteTick": 85800,
        "noteNumber": 69,
        "velocity": 96
    },
    {
        "track": 1,
        "absoluteTick": 85920,
        "noteNumber": 44,
        "velocity": 96
    },
    {
        "track": 1,
        "absoluteTick": 85920,
        "noteNumber": 56,
        "velocity": 96
    },
    {
        "track": 1,
        "absoluteTick": 86040,
        "noteNumber": 56,
        "velocity": 96
    },
    {
        "track": 1,
        "absoluteTick": 86040,
        "noteNumber": 68,
        "velocity": 96
    },
    {
        "track": 1,
        "absoluteTick": 86160,
        "noteNumber": 41,
        "velocity": 96
    },
    {
        "track": 1,
        "absoluteTick": 86160,
        "noteNumber": 53,
        "velocity": 96
    },
    {
        "track": 1,
        "absoluteTick": 86280,
        "noteNumber": 53,
        "velocity": 96
    },
    {
        "track": 1,
        "absoluteTick": 86280,
        "noteNumber": 65,
        "velocity": 96
    },
    {
        "track": 0,
        "absoluteTick": 86400,
        "noteNumber": 64,
        "velocity": 96
    },
    {
        "track": 0,
        "absoluteTick": 86400,
        "noteNumber": 71,
        "velocity": 96
    },
    {
        "track": 0,
        "absoluteTick": 86400,
        "noteNumber": 76,
        "velocity": 96
    },
    {
        "track": 1,
        "absoluteTick": 86400,
        "noteNumber": 28,
        "velocity": 96
    },
    {
        "track": 1,
        "absoluteTick": 86400,
        "noteNumber": 40,
        "velocity": 96
    },
    {
        "track": 0,
        "absoluteTick": 86640,
        "noteNumber": 64,
        "velocity": 96
    },
    {
        "track": 0,
        "absoluteTick": 86640,
        "noteNumber": 71,
        "velocity": 96
    },
    {
        "track": 0,
        "absoluteTick": 86640,
        "noteNumber": 76,
        "velocity": 96
    },
    {
        "track": 0,
        "absoluteTick": 86880,
        "noteNumber": 74,
        "velocity": 96
    },
    {
        "track": 0,
        "absoluteTick": 86880,
        "noteNumber": 86,
        "velocity": 96
    },
    {
        "track": 1,
        "absoluteTick": 86880,
        "noteNumber": 40,
        "velocity": 96
    },
    {
        "track": 1,
        "absoluteTick": 87000,
        "noteNumber": 47,
        "velocity": 96
    },
    {
        "track": 0,
        "absoluteTick": 87120,
        "noteNumber": 71,
        "velocity": 96
    },
    {
        "track": 0,
        "absoluteTick": 87120,
        "noteNumber": 83,
        "velocity": 96
    },
    {
        "track": 1,
        "absoluteTick": 87120,
        "noteNumber": 52,
        "velocity": 96
    },
    {
        "track": 1,
        "absoluteTick": 87240,
        "noteNumber": 47,
        "velocity": 96
    },
    {
        "track": 0,
        "absoluteTick": 87360,
        "noteNumber": 72,
        "velocity": 96
    },
    {
        "track": 0,
        "absoluteTick": 87360,
        "noteNumber": 79,
        "velocity": 96
    },
    {
        "track": 0,
        "absoluteTick": 87360,
        "noteNumber": 84,
        "velocity": 96
    },
    {
        "track": 1,
        "absoluteTick": 87360,
        "noteNumber": 40,
        "velocity": 96
    },
    {
        "track": 1,
        "absoluteTick": 87480,
        "noteNumber": 47,
        "velocity": 96
    },
    {
        "track": 0,
        "absoluteTick": 87600,
        "noteNumber": 74,
        "velocity": 96
    },
    {
        "track": 0,
        "absoluteTick": 87600,
        "noteNumber": 86,
        "velocity": 96
    },
    {
        "track": 1,
        "absoluteTick": 87600,
        "noteNumber": 53,
        "velocity": 96
    },
    {
        "track": 1,
        "absoluteTick": 87720,
        "noteNumber": 47,
        "velocity": 96
    },
    {
        "track": 0,
        "absoluteTick": 87840,
        "noteNumber": 72,
        "velocity": 96
    },
    {
        "track": 0,
        "absoluteTick": 87840,
        "noteNumber": 84,
        "velocity": 96
    },
    {
        "track": 1,
        "absoluteTick": 87840,
        "noteNumber": 40,
        "velocity": 96
    },
    {
        "track": 1,
        "absoluteTick": 87960,
        "noteNumber": 47,
        "velocity": 96
    },
    {
        "track": 0,
        "absoluteTick": 88080,
        "noteNumber": 71,
        "velocity": 96
    },
    {
        "track": 0,
        "absoluteTick": 88080,
        "noteNumber": 83,
        "velocity": 96
    },
    {
        "track": 1,
        "absoluteTick": 88080,
        "noteNumber": 54,
        "velocity": 96
    },
    {
        "track": 1,
        "absoluteTick": 88200,
        "noteNumber": 47,
        "velocity": 96
    },
    {
        "track": 0,
        "absoluteTick": 88320,
        "noteNumber": 70,
        "velocity": 96
    },
    {
        "track": 0,
        "absoluteTick": 88320,
        "noteNumber": 78,
        "velocity": 96
    },
    {
        "track": 0,
        "absoluteTick": 88320,
        "noteNumber": 82,
        "velocity": 96
    },
    {
        "track": 1,
        "absoluteTick": 88320,
        "noteNumber": 40,
        "velocity": 96
    },
    {
        "track": 1,
        "absoluteTick": 88440,
        "noteNumber": 47,
        "velocity": 96
    },
    {
        "track": 0,
        "absoluteTick": 88560,
        "noteNumber": 71,
        "velocity": 96
    },
    {
        "track": 0,
        "absoluteTick": 88560,
        "noteNumber": 83,
        "velocity": 96
    },
    {
        "track": 1,
        "absoluteTick": 88560,
        "noteNumber": 55,
        "velocity": 96
    },
    {
        "track": 1,
        "absoluteTick": 88680,
        "noteNumber": 47,
        "velocity": 96
    },
    {
        "track": 0,
        "absoluteTick": 88800,
        "noteNumber": 70,
        "velocity": 96
    },
    {
        "track": 0,
        "absoluteTick": 88800,
        "noteNumber": 82,
        "velocity": 96
    },
    {
        "track": 1,
        "absoluteTick": 88800,
        "noteNumber": 40,
        "velocity": 96
    },
    {
        "track": 1,
        "absoluteTick": 88920,
        "noteNumber": 47,
        "velocity": 96
    },
    {
        "track": 0,
        "absoluteTick": 89040,
        "noteNumber": 69,
        "velocity": 96
    },
    {
        "track": 0,
        "absoluteTick": 89040,
        "noteNumber": 81,
        "velocity": 96
    },
    {
        "track": 1,
        "absoluteTick": 89040,
        "noteNumber": 56,
        "velocity": 96
    },
    {
        "track": 1,
        "absoluteTick": 89160,
        "noteNumber": 47,
        "velocity": 96
    },
    {
        "track": 0,
        "absoluteTick": 89280,
        "noteNumber": 68,
        "velocity": 96
    },
    {
        "track": 0,
        "absoluteTick": 89280,
        "noteNumber": 75,
        "velocity": 96
    },
    {
        "track": 0,
        "absoluteTick": 89280,
        "noteNumber": 80,
        "velocity": 96
    },
    {
        "track": 1,
        "absoluteTick": 89280,
        "noteNumber": 40,
        "velocity": 96
    },
    {
        "track": 1,
        "absoluteTick": 89400,
        "noteNumber": 47,
        "velocity": 96
    },
    {
        "track": 0,
        "absoluteTick": 89520,
        "noteNumber": 69,
        "velocity": 96
    },
    {
        "track": 0,
        "absoluteTick": 89520,
        "noteNumber": 81,
        "velocity": 96
    },
    {
        "track": 1,
        "absoluteTick": 89520,
        "noteNumber": 57,
        "velocity": 96
    },
    {
        "track": 1,
        "absoluteTick": 89640,
        "noteNumber": 47,
        "velocity": 96
    },
    {
        "track": 0,
        "absoluteTick": 89760,
        "noteNumber": 68,
        "velocity": 96
    },
    {
        "track": 0,
        "absoluteTick": 89760,
        "noteNumber": 80,
        "velocity": 96
    },
    {
        "track": 1,
        "absoluteTick": 89760,
        "noteNumber": 40,
        "velocity": 96
    },
    {
        "track": 1,
        "absoluteTick": 89880,
        "noteNumber": 47,
        "velocity": 96
    },
    {
        "track": 0,
        "absoluteTick": 90000,
        "noteNumber": 65,
        "velocity": 96
    },
    {
        "track": 0,
        "absoluteTick": 90000,
        "noteNumber": 77,
        "velocity": 96
    },
    {
        "track": 1,
        "absoluteTick": 90000,
        "noteNumber": 58,
        "velocity": 96
    },
    {
        "track": 1,
        "absoluteTick": 90120,
        "noteNumber": 47,
        "velocity": 96
    },
    {
        "track": 0,
        "absoluteTick": 90240,
        "noteNumber": 64,
        "velocity": 96
    },
    {
        "track": 0,
        "absoluteTick": 90240,
        "noteNumber": 76,
        "velocity": 96
    },
    {
        "track": 1,
        "absoluteTick": 90240,
        "noteNumber": 28,
        "velocity": 96
    },
    {
        "track": 1,
        "absoluteTick": 90240,
        "noteNumber": 40,
        "velocity": 96
    },
    {
        "track": 0,
        "absoluteTick": 90480,
        "noteNumber": 65,
        "velocity": 96
    },
    {
        "track": 0,
        "absoluteTick": 90720,
        "noteNumber": 70,
        "velocity": 115
    },
    {
        "track": 0,
        "absoluteTick": 90960,
        "noteNumber": 64,
        "velocity": 96
    },
    {
        "track": 0,
        "absoluteTick": 91200,
        "noteNumber": 65,
        "velocity": 96
    },
    {
        "track": 0,
        "absoluteTick": 91440,
        "noteNumber": 70,
        "velocity": 115
    },
    {
        "track": 0,
        "absoluteTick": 91680,
        "noteNumber": 64,
        "velocity": 96
    },
    {
        "track": 0,
        "absoluteTick": 91920,
        "noteNumber": 65,
        "velocity": 96
    },
    {
        "track": 0,
        "absoluteTick": 92160,
        "noteNumber": 70,
        "velocity": 115
    },
    {
        "track": 0,
        "absoluteTick": 92400,
        "noteNumber": 64,
        "velocity": 96
    },
    {
        "track": 0,
        "absoluteTick": 92640,
        "noteNumber": 65,
        "velocity": 96
    },
    {
        "track": 0,
        "absoluteTick": 92880,
        "noteNumber": 70,
        "velocity": 115
    },
    {
        "track": 0,
        "absoluteTick": 93120,
        "noteNumber": 70,
        "velocity": 96
    },
    {
        "track": 0,
        "absoluteTick": 93120,
        "noteNumber": 82,
        "velocity": 96
    },
    {
        "track": 0,
        "absoluteTick": 93600,
        "noteNumber": 71,
        "velocity": 96
    },
    {
        "track": 0,
        "absoluteTick": 93600,
        "noteNumber": 83,
        "velocity": 96
    },
    {
        "track": 0,
        "absoluteTick": 94080,
        "noteNumber": 77,
        "velocity": 126
    },
    {
        "track": 0,
        "absoluteTick": 94080,
        "noteNumber": 89,
        "velocity": 126
    },
    {
        "track": 1,
        "absoluteTick": 94080,
        "noteNumber": 41,
        "velocity": 126
    },
    {
        "track": 1,
        "absoluteTick": 94080,
        "noteNumber": 53,
        "velocity": 126
    },
    {
        "track": 0,
        "absoluteTick": 94320,
        "noteNumber": 77,
        "velocity": 117
    },
    {
        "track": 0,
        "absoluteTick": 94320,
        "noteNumber": 89,
        "velocity": 117
    },
    {
        "track": 1,
        "absoluteTick": 94320,
        "noteNumber": 41,
        "velocity": 117
    },
    {
        "track": 1,
        "absoluteTick": 94320,
        "noteNumber": 53,
        "velocity": 117
    },
    {
        "track": 1,
        "absoluteTick": 94560,
        "noteNumber": 51,
        "velocity": 96
    },
    {
        "track": 1,
        "absoluteTick": 94560,
        "noteNumber": 63,
        "velocity": 96
    },
    {
        "track": 1,
        "absoluteTick": 94800,
        "noteNumber": 48,
        "velocity": 96
    },
    {
        "track": 1,
        "absoluteTick": 94800,
        "noteNumber": 60,
        "velocity": 96
    },
    {
        "track": 1,
        "absoluteTick": 95040,
        "noteNumber": 49,
        "velocity": 96
    },
    {
        "track": 1,
        "absoluteTick": 95040,
        "noteNumber": 61,
        "velocity": 96
    },
    {
        "track": 1,
        "absoluteTick": 95280,
        "noteNumber": 51,
        "velocity": 96
    },
    {
        "track": 1,
        "absoluteTick": 95280,
        "noteNumber": 63,
        "velocity": 96
    },
    {
        "track": 1,
        "absoluteTick": 95520,
        "noteNumber": 49,
        "velocity": 96
    },
    {
        "track": 1,
        "absoluteTick": 95520,
        "noteNumber": 61,
        "velocity": 96
    },
    {
        "track": 1,
        "absoluteTick": 95760,
        "noteNumber": 48,
        "velocity": 96
    },
    {
        "track": 1,
        "absoluteTick": 95760,
        "noteNumber": 60,
        "velocity": 96
    },
    {
        "track": 0,
        "absoluteTick": 96000,
        "noteNumber": 77,
        "velocity": 126
    },
    {
        "track": 0,
        "absoluteTick": 96000,
        "noteNumber": 89,
        "velocity": 126
    },
    {
        "track": 1,
        "absoluteTick": 96000,
        "noteNumber": 41,
        "velocity": 126
    },
    {
        "track": 1,
        "absoluteTick": 96000,
        "noteNumber": 53,
        "velocity": 126
    },
    {
        "track": 0,
        "absoluteTick": 96240,
        "noteNumber": 77,
        "velocity": 117
    },
    {
        "track": 0,
        "absoluteTick": 96240,
        "noteNumber": 89,
        "velocity": 117
    },
    {
        "track": 1,
        "absoluteTick": 96240,
        "noteNumber": 41,
        "velocity": 117
    },
    {
        "track": 1,
        "absoluteTick": 96240,
        "noteNumber": 53,
        "velocity": 117
    },
    {
        "track": 1,
        "absoluteTick": 96480,
        "noteNumber": 51,
        "velocity": 96
    },
    {
        "track": 1,
        "absoluteTick": 96480,
        "noteNumber": 63,
        "velocity": 96
    },
    {
        "track": 1,
        "absoluteTick": 96720,
        "noteNumber": 48,
        "velocity": 96
    },
    {
        "track": 1,
        "absoluteTick": 96720,
        "noteNumber": 60,
        "velocity": 96
    },
    {
        "track": 1,
        "absoluteTick": 96960,
        "noteNumber": 49,
        "velocity": 96
    },
    {
        "track": 1,
        "absoluteTick": 96960,
        "noteNumber": 61,
        "velocity": 96
    },
    {
        "track": 1,
        "absoluteTick": 97200,
        "noteNumber": 51,
        "velocity": 96
    },
    {
        "track": 1,
        "absoluteTick": 97200,
        "noteNumber": 63,
        "velocity": 96
    },
    {
        "track": 1,
        "absoluteTick": 97440,
        "noteNumber": 49,
        "velocity": 96
    },
    {
        "track": 1,
        "absoluteTick": 97440,
        "noteNumber": 61,
        "velocity": 96
    },
    {
        "track": 1,
        "absoluteTick": 97680,
        "noteNumber": 48,
        "velocity": 96
    },
    {
        "track": 1,
        "absoluteTick": 97680,
        "noteNumber": 60,
        "velocity": 96
    },
    {
        "track": 0,
        "absoluteTick": 97920,
        "noteNumber": 77,
        "velocity": 126
    },
    {
        "track": 0,
        "absoluteTick": 97920,
        "noteNumber": 89,
        "velocity": 126
    },
    {
        "track": 1,
        "absoluteTick": 97920,
        "noteNumber": 41,
        "velocity": 126
    },
    {
        "track": 1,
        "absoluteTick": 97920,
        "noteNumber": 53,
        "velocity": 126
    },
    {
        "track": 0,
        "absoluteTick": 98160,
        "noteNumber": 77,
        "velocity": 117
    },
    {
        "track": 0,
        "absoluteTick": 98160,
        "noteNumber": 89,
        "velocity": 117
    },
    {
        "track": 1,
        "absoluteTick": 98160,
        "noteNumber": 41,
        "velocity": 117
    },
    {
        "track": 1,
        "absoluteTick": 98160,
        "noteNumber": 53,
        "velocity": 117
    },
    {
        "track": 1,
        "absoluteTick": 98400,
        "noteNumber": 51,
        "velocity": 96
    },
    {
        "track": 1,
        "absoluteTick": 98400,
        "noteNumber": 63,
        "velocity": 96
    },
    {
        "track": 1,
        "absoluteTick": 98640,
        "noteNumber": 48,
        "velocity": 96
    },
    {
        "track": 1,
        "absoluteTick": 98640,
        "noteNumber": 60,
        "velocity": 96
    },
    {
        "track": 1,
        "absoluteTick": 98880,
        "noteNumber": 49,
        "velocity": 96
    },
    {
        "track": 1,
        "absoluteTick": 98880,
        "noteNumber": 61,
        "velocity": 96
    },
    {
        "track": 1,
        "absoluteTick": 99120,
        "noteNumber": 51,
        "velocity": 96
    },
    {
        "track": 1,
        "absoluteTick": 99120,
        "noteNumber": 63,
        "velocity": 96
    },
    {
        "track": 1,
        "absoluteTick": 99360,
        "noteNumber": 49,
        "velocity": 96
    },
    {
        "track": 1,
        "absoluteTick": 99360,
        "noteNumber": 61,
        "velocity": 96
    },
    {
        "track": 1,
        "absoluteTick": 99600,
        "noteNumber": 48,
        "velocity": 96
    },
    {
        "track": 1,
        "absoluteTick": 99600,
        "noteNumber": 60,
        "velocity": 96
    },
    {
        "track": 1,
        "absoluteTick": 99840,
        "noteNumber": 47,
        "velocity": 96
    },
    {
        "track": 1,
        "absoluteTick": 99840,
        "noteNumber": 59,
        "velocity": 96
    },
    {
        "track": 1,
        "absoluteTick": 100080,
        "noteNumber": 48,
        "velocity": 96
    },
    {
        "track": 1,
        "absoluteTick": 100080,
        "noteNumber": 60,
        "velocity": 96
    },
    {
        "track": 1,
        "absoluteTick": 100320,
        "noteNumber": 47,
        "velocity": 96
    },
    {
        "track": 1,
        "absoluteTick": 100320,
        "noteNumber": 59,
        "velocity": 96
    },
    {
        "track": 1,
        "absoluteTick": 100560,
        "noteNumber": 46,
        "velocity": 96
    },
    {
        "track": 1,
        "absoluteTick": 100560,
        "noteNumber": 58,
        "velocity": 96
    },
    {
        "track": 1,
        "absoluteTick": 100800,
        "noteNumber": 45,
        "velocity": 96
    },
    {
        "track": 1,
        "absoluteTick": 100800,
        "noteNumber": 57,
        "velocity": 96
    },
    {
        "track": 1,
        "absoluteTick": 101040,
        "noteNumber": 46,
        "velocity": 96
    },
    {
        "track": 1,
        "absoluteTick": 101040,
        "noteNumber": 58,
        "velocity": 96
    },
    {
        "track": 1,
        "absoluteTick": 101280,
        "noteNumber": 45,
        "velocity": 96
    },
    {
        "track": 1,
        "absoluteTick": 101280,
        "noteNumber": 57,
        "velocity": 96
    },
    {
        "track": 1,
        "absoluteTick": 101520,
        "noteNumber": 42,
        "velocity": 96
    },
    {
        "track": 1,
        "absoluteTick": 101520,
        "noteNumber": 54,
        "velocity": 96
    },
    {
        "track": 0,
        "absoluteTick": 101760,
        "noteNumber": 77,
        "velocity": 96
    },
    {
        "track": 0,
        "absoluteTick": 101760,
        "noteNumber": 89,
        "velocity": 96
    },
    {
        "track": 1,
        "absoluteTick": 101760,
        "noteNumber": 41,
        "velocity": 96
    },
    {
        "track": 1,
        "absoluteTick": 101760,
        "noteNumber": 53,
        "velocity": 96
    },
    {
        "track": 0,
        "absoluteTick": 102000,
        "noteNumber": 77,
        "velocity": 96
    },
    {
        "track": 0,
        "absoluteTick": 102000,
        "noteNumber": 89,
        "velocity": 96
    },
    {
        "track": 1,
        "absoluteTick": 102000,
        "noteNumber": 41,
        "velocity": 96
    },
    {
        "track": 1,
        "absoluteTick": 102000,
        "noteNumber": 53,
        "velocity": 96
    },
    {
        "track": 0,
        "absoluteTick": 102240,
        "noteNumber": 75,
        "velocity": 96
    },
    {
        "track": 0,
        "absoluteTick": 102240,
        "noteNumber": 87,
        "velocity": 96
    },
    {
        "track": 1,
        "absoluteTick": 102240,
        "noteNumber": 51,
        "velocity": 96
    },
    {
        "track": 1,
        "absoluteTick": 102240,
        "noteNumber": 63,
        "velocity": 96
    },
    {
        "track": 0,
        "absoluteTick": 102480,
        "noteNumber": 72,
        "velocity": 96
    },
    {
        "track": 0,
        "absoluteTick": 102480,
        "noteNumber": 84,
        "velocity": 96
    },
    {
        "track": 1,
        "absoluteTick": 102480,
        "noteNumber": 48,
        "velocity": 96
    },
    {
        "track": 1,
        "absoluteTick": 102480,
        "noteNumber": 60,
        "velocity": 96
    },
    {
        "track": 0,
        "absoluteTick": 102720,
        "noteNumber": 73,
        "velocity": 96
    },
    {
        "track": 0,
        "absoluteTick": 102720,
        "noteNumber": 85,
        "velocity": 96
    },
    {
        "track": 1,
        "absoluteTick": 102720,
        "noteNumber": 49,
        "velocity": 96
    },
    {
        "track": 1,
        "absoluteTick": 102720,
        "noteNumber": 61,
        "velocity": 96
    },
    {
        "track": 0,
        "absoluteTick": 102960,
        "noteNumber": 75,
        "velocity": 96
    },
    {
        "track": 0,
        "absoluteTick": 102960,
        "noteNumber": 87,
        "velocity": 96
    },
    {
        "track": 1,
        "absoluteTick": 102960,
        "noteNumber": 51,
        "velocity": 96
    },
    {
        "track": 1,
        "absoluteTick": 102960,
        "noteNumber": 63,
        "velocity": 96
    },
    {
        "track": 0,
        "absoluteTick": 103200,
        "noteNumber": 73,
        "velocity": 96
    },
    {
        "track": 0,
        "absoluteTick": 103200,
        "noteNumber": 85,
        "velocity": 96
    },
    {
        "track": 1,
        "absoluteTick": 103200,
        "noteNumber": 49,
        "velocity": 96
    },
    {
        "track": 1,
        "absoluteTick": 103200,
        "noteNumber": 61,
        "velocity": 96
    },
    {
        "track": 0,
        "absoluteTick": 103440,
        "noteNumber": 72,
        "velocity": 96
    },
    {
        "track": 0,
        "absoluteTick": 103440,
        "noteNumber": 84,
        "velocity": 96
    },
    {
        "track": 1,
        "absoluteTick": 103440,
        "noteNumber": 48,
        "velocity": 96
    },
    {
        "track": 1,
        "absoluteTick": 103440,
        "noteNumber": 60,
        "velocity": 96
    },
    {
        "track": 0,
        "absoluteTick": 103680,
        "noteNumber": 77,
        "velocity": 96
    },
    {
        "track": 0,
        "absoluteTick": 103680,
        "noteNumber": 89,
        "velocity": 96
    },
    {
        "track": 1,
        "absoluteTick": 103680,
        "noteNumber": 41,
        "velocity": 96
    },
    {
        "track": 1,
        "absoluteTick": 103680,
        "noteNumber": 53,
        "velocity": 96
    },
    {
        "track": 0,
        "absoluteTick": 103920,
        "noteNumber": 77,
        "velocity": 96
    },
    {
        "track": 0,
        "absoluteTick": 103920,
        "noteNumber": 89,
        "velocity": 96
    },
    {
        "track": 1,
        "absoluteTick": 103920,
        "noteNumber": 41,
        "velocity": 96
    },
    {
        "track": 1,
        "absoluteTick": 103920,
        "noteNumber": 53,
        "velocity": 96
    },
    {
        "track": 0,
        "absoluteTick": 104160,
        "noteNumber": 75,
        "velocity": 96
    },
    {
        "track": 0,
        "absoluteTick": 104160,
        "noteNumber": 87,
        "velocity": 96
    },
    {
        "track": 1,
        "absoluteTick": 104160,
        "noteNumber": 51,
        "velocity": 96
    },
    {
        "track": 1,
        "absoluteTick": 104160,
        "noteNumber": 63,
        "velocity": 96
    },
    {
        "track": 0,
        "absoluteTick": 104400,
        "noteNumber": 72,
        "velocity": 96
    },
    {
        "track": 0,
        "absoluteTick": 104400,
        "noteNumber": 84,
        "velocity": 96
    },
    {
        "track": 1,
        "absoluteTick": 104400,
        "noteNumber": 48,
        "velocity": 96
    },
    {
        "track": 1,
        "absoluteTick": 104400,
        "noteNumber": 60,
        "velocity": 96
    },
    {
        "track": 0,
        "absoluteTick": 104640,
        "noteNumber": 73,
        "velocity": 96
    },
    {
        "track": 0,
        "absoluteTick": 104640,
        "noteNumber": 85,
        "velocity": 96
    },
    {
        "track": 1,
        "absoluteTick": 104640,
        "noteNumber": 49,
        "velocity": 96
    },
    {
        "track": 1,
        "absoluteTick": 104640,
        "noteNumber": 61,
        "velocity": 96
    },
    {
        "track": 0,
        "absoluteTick": 104880,
        "noteNumber": 75,
        "velocity": 96
    },
    {
        "track": 0,
        "absoluteTick": 104880,
        "noteNumber": 87,
        "velocity": 96
    },
    {
        "track": 1,
        "absoluteTick": 104880,
        "noteNumber": 51,
        "velocity": 96
    },
    {
        "track": 1,
        "absoluteTick": 104880,
        "noteNumber": 63,
        "velocity": 96
    },
    {
        "track": 0,
        "absoluteTick": 105120,
        "noteNumber": 73,
        "velocity": 96
    },
    {
        "track": 0,
        "absoluteTick": 105120,
        "noteNumber": 85,
        "velocity": 96
    },
    {
        "track": 1,
        "absoluteTick": 105120,
        "noteNumber": 49,
        "velocity": 96
    },
    {
        "track": 1,
        "absoluteTick": 105120,
        "noteNumber": 61,
        "velocity": 96
    },
    {
        "track": 0,
        "absoluteTick": 105360,
        "noteNumber": 72,
        "velocity": 96
    },
    {
        "track": 0,
        "absoluteTick": 105360,
        "noteNumber": 84,
        "velocity": 96
    },
    {
        "track": 1,
        "absoluteTick": 105360,
        "noteNumber": 48,
        "velocity": 96
    },
    {
        "track": 1,
        "absoluteTick": 105360,
        "noteNumber": 60,
        "velocity": 96
    },
    {
        "track": 0,
        "absoluteTick": 105600,
        "noteNumber": 77,
        "velocity": 112
    },
    {
        "track": 0,
        "absoluteTick": 105600,
        "noteNumber": 89,
        "velocity": 112
    },
    {
        "track": 1,
        "absoluteTick": 105600,
        "noteNumber": 41,
        "velocity": 112
    },
    {
        "track": 1,
        "absoluteTick": 105600,
        "noteNumber": 53,
        "velocity": 112
    },
    {
        "track": 0,
        "absoluteTick": 105840,
        "noteNumber": 77,
        "velocity": 112
    },
    {
        "track": 0,
        "absoluteTick": 105840,
        "noteNumber": 89,
        "velocity": 112
    },
    {
        "track": 1,
        "absoluteTick": 106080,
        "noteNumber": 51,
        "velocity": 112
    },
    {
        "track": 1,
        "absoluteTick": 106080,
        "noteNumber": 63,
        "velocity": 112
    },
    {
        "track": 1,
        "absoluteTick": 106200,
        "noteNumber": 75,
        "velocity": 112
    },
    {
        "track": 1,
        "absoluteTick": 106200,
        "noteNumber": 87,
        "velocity": 112
    },
    {
        "track": 1,
        "absoluteTick": 106320,
        "noteNumber": 48,
        "velocity": 112
    },
    {
        "track": 1,
        "absoluteTick": 106320,
        "noteNumber": 60,
        "velocity": 112
    },
    {
        "track": 1,
        "absoluteTick": 106440,
        "noteNumber": 72,
        "velocity": 112
    },
    {
        "track": 1,
        "absoluteTick": 106440,
        "noteNumber": 84,
        "velocity": 112
    },
    {
        "track": 1,
        "absoluteTick": 106560,
        "noteNumber": 49,
        "velocity": 112
    },
    {
        "track": 1,
        "absoluteTick": 106560,
        "noteNumber": 61,
        "velocity": 112
    },
    {
        "track": 1,
        "absoluteTick": 106680,
        "noteNumber": 73,
        "velocity": 112
    },
    {
        "track": 1,
        "absoluteTick": 106680,
        "noteNumber": 85,
        "velocity": 112
    },
    {
        "track": 1,
        "absoluteTick": 106800,
        "noteNumber": 51,
        "velocity": 112
    },
    {
        "track": 1,
        "absoluteTick": 106800,
        "noteNumber": 63,
        "velocity": 112
    },
    {
        "track": 1,
        "absoluteTick": 106920,
        "noteNumber": 75,
        "velocity": 112
    },
    {
        "track": 1,
        "absoluteTick": 106920,
        "noteNumber": 87,
        "velocity": 112
    },
    {
        "track": 1,
        "absoluteTick": 107040,
        "noteNumber": 49,
        "velocity": 112
    },
    {
        "track": 1,
        "absoluteTick": 107040,
        "noteNumber": 61,
        "velocity": 112
    },
    {
        "track": 1,
        "absoluteTick": 107160,
        "noteNumber": 73,
        "velocity": 112
    },
    {
        "track": 1,
        "absoluteTick": 107160,
        "noteNumber": 85,
        "velocity": 112
    },
    {
        "track": 1,
        "absoluteTick": 107280,
        "noteNumber": 48,
        "velocity": 112
    },
    {
        "track": 1,
        "absoluteTick": 107280,
        "noteNumber": 60,
        "velocity": 112
    },
    {
        "track": 1,
        "absoluteTick": 107400,
        "noteNumber": 72,
        "velocity": 112
    },
    {
        "track": 1,
        "absoluteTick": 107400,
        "noteNumber": 84,
        "velocity": 112
    },
    {
        "track": 1,
        "absoluteTick": 107520,
        "noteNumber": 47,
        "velocity": 112
    },
    {
        "track": 1,
        "absoluteTick": 107520,
        "noteNumber": 59,
        "velocity": 112
    },
    {
        "track": 1,
        "absoluteTick": 107640,
        "noteNumber": 71,
        "velocity": 112
    },
    {
        "track": 1,
        "absoluteTick": 107640,
        "noteNumber": 83,
        "velocity": 112
    },
    {
        "track": 1,
        "absoluteTick": 107760,
        "noteNumber": 48,
        "velocity": 112
    },
    {
        "track": 1,
        "absoluteTick": 107760,
        "noteNumber": 60,
        "velocity": 112
    },
    {
        "track": 1,
        "absoluteTick": 107880,
        "noteNumber": 72,
        "velocity": 112
    },
    {
        "track": 1,
        "absoluteTick": 107880,
        "noteNumber": 84,
        "velocity": 112
    },
    {
        "track": 1,
        "absoluteTick": 108000,
        "noteNumber": 47,
        "velocity": 112
    },
    {
        "track": 1,
        "absoluteTick": 108000,
        "noteNumber": 59,
        "velocity": 112
    },
    {
        "track": 1,
        "absoluteTick": 108120,
        "noteNumber": 71,
        "velocity": 112
    },
    {
        "track": 1,
        "absoluteTick": 108120,
        "noteNumber": 83,
        "velocity": 112
    },
    {
        "track": 1,
        "absoluteTick": 108240,
        "noteNumber": 46,
        "velocity": 112
    },
    {
        "track": 1,
        "absoluteTick": 108240,
        "noteNumber": 58,
        "velocity": 112
    },
    {
        "track": 1,
        "absoluteTick": 108360,
        "noteNumber": 70,
        "velocity": 112
    },
    {
        "track": 1,
        "absoluteTick": 108360,
        "noteNumber": 82,
        "velocity": 112
    },
    {
        "track": 1,
        "absoluteTick": 108480,
        "noteNumber": 45,
        "velocity": 112
    },
    {
        "track": 1,
        "absoluteTick": 108480,
        "noteNumber": 57,
        "velocity": 112
    },
    {
        "track": 1,
        "absoluteTick": 108600,
        "noteNumber": 69,
        "velocity": 112
    },
    {
        "track": 1,
        "absoluteTick": 108600,
        "noteNumber": 81,
        "velocity": 112
    },
    {
        "track": 1,
        "absoluteTick": 108720,
        "noteNumber": 46,
        "velocity": 112
    },
    {
        "track": 1,
        "absoluteTick": 108720,
        "noteNumber": 58,
        "velocity": 112
    },
    {
        "track": 1,
        "absoluteTick": 108840,
        "noteNumber": 70,
        "velocity": 112
    },
    {
        "track": 1,
        "absoluteTick": 108840,
        "noteNumber": 82,
        "velocity": 112
    },
    {
        "track": 1,
        "absoluteTick": 108960,
        "noteNumber": 45,
        "velocity": 112
    },
    {
        "track": 1,
        "absoluteTick": 108960,
        "noteNumber": 57,
        "velocity": 112
    },
    {
        "track": 1,
        "absoluteTick": 109080,
        "noteNumber": 69,
        "velocity": 112
    },
    {
        "track": 1,
        "absoluteTick": 109080,
        "noteNumber": 81,
        "velocity": 112
    },
    {
        "track": 1,
        "absoluteTick": 109200,
        "noteNumber": 42,
        "velocity": 112
    },
    {
        "track": 1,
        "absoluteTick": 109200,
        "noteNumber": 54,
        "velocity": 112
    },
    {
        "track": 1,
        "absoluteTick": 109320,
        "noteNumber": 66,
        "velocity": 112
    },
    {
        "track": 1,
        "absoluteTick": 109320,
        "noteNumber": 78,
        "velocity": 112
    },
    {
        "track": 0,
        "absoluteTick": 109440,
        "noteNumber": 65,
        "velocity": 80
    },
    {
        "track": 0,
        "absoluteTick": 109440,
        "noteNumber": 68,
        "velocity": 80
    },
    {
        "track": 0,
        "absoluteTick": 109440,
        "noteNumber": 72,
        "velocity": 80
    },
    {
        "track": 0,
        "absoluteTick": 109440,
        "noteNumber": 77,
        "velocity": 80
    },
    {
        "track": 1,
        "absoluteTick": 109440,
        "noteNumber": 41,
        "velocity": 80
    },
    {
        "track": 1,
        "absoluteTick": 109536,
        "noteNumber": 48,
        "velocity": 80
    },
    {
        "track": 1,
        "absoluteTick": 109632,
        "noteNumber": 53,
        "velocity": 80
    },
    {
        "track": 1,
        "absoluteTick": 109728,
        "noteNumber": 56,
        "velocity": 80
    },
    {
        "track": 1,
        "absoluteTick": 109824,
        "noteNumber": 60,
        "velocity": 80
    },
    {
        "track": 1,
        "absoluteTick": 109920,
        "noteNumber": 65,
        "velocity": 80
    },
    {
        "track": 1,
        "absoluteTick": 110016,
        "noteNumber": 60,
        "velocity": 80
    },
    {
        "track": 1,
        "absoluteTick": 110112,
        "noteNumber": 56,
        "velocity": 80
    },
    {
        "track": 1,
        "absoluteTick": 110208,
        "noteNumber": 53,
        "velocity": 80
    },
    {
        "track": 1,
        "absoluteTick": 110304,
        "noteNumber": 48,
        "velocity": 80
    },
    {
        "track": 0,
        "absoluteTick": 110400,
        "noteNumber": 75,
        "velocity": 80
    },
    {
        "track": 1,
        "absoluteTick": 110400,
        "noteNumber": 41,
        "velocity": 80
    },
    {
        "track": 1,
        "absoluteTick": 110496,
        "noteNumber": 48,
        "velocity": 80
    },
    {
        "track": 1,
        "absoluteTick": 110592,
        "noteNumber": 53,
        "velocity": 80
    },
    {
        "track": 1,
        "absoluteTick": 110688,
        "noteNumber": 56,
        "velocity": 80
    },
    {
        "track": 1,
        "absoluteTick": 110784,
        "noteNumber": 60,
        "velocity": 80
    },
    {
        "track": 0,
        "absoluteTick": 110880,
        "noteNumber": 72,
        "velocity": 80
    },
    {
        "track": 1,
        "absoluteTick": 110880,
        "noteNumber": 65,
        "velocity": 80
    },
    {
        "track": 1,
        "absoluteTick": 110976,
        "noteNumber": 60,
        "velocity": 80
    },
    {
        "track": 1,
        "absoluteTick": 111072,
        "noteNumber": 56,
        "velocity": 80
    },
    {
        "track": 1,
        "absoluteTick": 111168,
        "noteNumber": 53,
        "velocity": 80
    },
    {
        "track": 1,
        "absoluteTick": 111264,
        "noteNumber": 48,
        "velocity": 80
    },
    {
        "track": 0,
        "absoluteTick": 111360,
        "noteNumber": 73,
        "velocity": 80
    },
    {
        "track": 1,
        "absoluteTick": 111360,
        "noteNumber": 37,
        "velocity": 80
    },
    {
        "track": 1,
        "absoluteTick": 111456,
        "noteNumber": 44,
        "velocity": 80
    },
    {
        "track": 1,
        "absoluteTick": 111552,
        "noteNumber": 49,
        "velocity": 80
    },
    {
        "track": 1,
        "absoluteTick": 111648,
        "noteNumber": 53,
        "velocity": 80
    },
    {
        "track": 1,
        "absoluteTick": 111744,
        "noteNumber": 56,
        "velocity": 80
    },
    {
        "track": 0,
        "absoluteTick": 111840,
        "noteNumber": 75,
        "velocity": 80
    },
    {
        "track": 1,
        "absoluteTick": 111840,
        "noteNumber": 65,
        "velocity": 80
    },
    {
        "track": 1,
        "absoluteTick": 111936,
        "noteNumber": 60,
        "velocity": 80
    },
    {
        "track": 1,
        "absoluteTick": 112032,
        "noteNumber": 56,
        "velocity": 80
    },
    {
        "track": 1,
        "absoluteTick": 112128,
        "noteNumber": 53,
        "velocity": 80
    },
    {
        "track": 1,
        "absoluteTick": 112224,
        "noteNumber": 48,
        "velocity": 80
    },
    {
        "track": 0,
        "absoluteTick": 112320,
        "noteNumber": 73,
        "velocity": 80
    },
    {
        "track": 1,
        "absoluteTick": 112320,
        "noteNumber": 41,
        "velocity": 80
    },
    {
        "track": 1,
        "absoluteTick": 112416,
        "noteNumber": 48,
        "velocity": 80
    },
    {
        "track": 1,
        "absoluteTick": 112512,
        "noteNumber": 53,
        "velocity": 80
    },
    {
        "track": 1,
        "absoluteTick": 112608,
        "noteNumber": 56,
        "velocity": 80
    },
    {
        "track": 1,
        "absoluteTick": 112704,
        "noteNumber": 60,
        "velocity": 80
    },
    {
        "track": 0,
        "absoluteTick": 112800,
        "noteNumber": 72,
        "velocity": 80
    },
    {
        "track": 1,
        "absoluteTick": 112800,
        "noteNumber": 65,
        "velocity": 80
    },
    {
        "track": 1,
        "absoluteTick": 112896,
        "noteNumber": 60,
        "velocity": 80
    },
    {
        "track": 1,
        "absoluteTick": 112992,
        "noteNumber": 56,
        "velocity": 80
    },
    {
        "track": 1,
        "absoluteTick": 113088,
        "noteNumber": 53,
        "velocity": 80
    },
    {
        "track": 1,
        "absoluteTick": 113184,
        "noteNumber": 48,
        "velocity": 80
    },
    {
        "track": 0,
        "absoluteTick": 113280,
        "noteNumber": 62,
        "velocity": 80
    },
    {
        "track": 0,
        "absoluteTick": 113280,
        "noteNumber": 67,
        "velocity": 80
    },
    {
        "track": 0,
        "absoluteTick": 113280,
        "noteNumber": 71,
        "velocity": 80
    },
    {
        "track": 1,
        "absoluteTick": 113280,
        "noteNumber": 43,
        "velocity": 80
    },
    {
        "track": 1,
        "absoluteTick": 113360,
        "noteNumber": 50,
        "velocity": 80
    },
    {
        "track": 1,
        "absoluteTick": 113440,
        "noteNumber": 59,
        "velocity": 80
    },
    {
        "track": 1,
        "absoluteTick": 113520,
        "noteNumber": 62,
        "velocity": 80
    },
    {
        "track": 1,
        "absoluteTick": 113600,
        "noteNumber": 67,
        "velocity": 80
    },
    {
        "track": 1,
        "absoluteTick": 113680,
        "noteNumber": 71,
        "velocity": 80
    },
    {
        "track": 1,
        "absoluteTick": 113760,
        "noteNumber": 55,
        "velocity": 80
    },
    {
        "track": 1,
        "absoluteTick": 113840,
        "noteNumber": 62,
        "velocity": 80
    },
    {
        "track": 1,
        "absoluteTick": 113920,
        "noteNumber": 71,
        "velocity": 80
    },
    {
        "track": 1,
        "absoluteTick": 114000,
        "noteNumber": 74,
        "velocity": 80
    },
    {
        "track": 1,
        "absoluteTick": 114080,
        "noteNumber": 79,
        "velocity": 80
    },
    {
        "track": 1,
        "absoluteTick": 114160,
        "noteNumber": 83,
        "velocity": 80
    },
    {
        "track": 1,
        "absoluteTick": 114240,
        "noteNumber": 79,
        "velocity": 80
    },
    {
        "track": 1,
        "absoluteTick": 114336,
        "noteNumber": 74,
        "velocity": 80
    },
    {
        "track": 1,
        "absoluteTick": 114432,
        "noteNumber": 71,
        "velocity": 80
    },
    {
        "track": 1,
        "absoluteTick": 114528,
        "noteNumber": 62,
        "velocity": 80
    },
    {
        "track": 1,
        "absoluteTick": 114624,
        "noteNumber": 55,
        "velocity": 80
    },
    {
        "track": 1,
        "absoluteTick": 114720,
        "noteNumber": 71,
        "velocity": 80
    },
    {
        "track": 1,
        "absoluteTick": 114816,
        "noteNumber": 67,
        "velocity": 80
    },
    {
        "track": 1,
        "absoluteTick": 114912,
        "noteNumber": 62,
        "velocity": 80
    },
    {
        "track": 1,
        "absoluteTick": 115008,
        "noteNumber": 59,
        "velocity": 80
    },
    {
        "track": 1,
        "absoluteTick": 115104,
        "noteNumber": 50,
        "velocity": 80
    },
    {
        "track": 1,
        "absoluteTick": 115200,
        "noteNumber": 44,
        "velocity": 80
    },
    {
        "track": 1,
        "absoluteTick": 115320,
        "noteNumber": 53,
        "velocity": 80
    },
    {
        "track": 1,
        "absoluteTick": 115320,
        "noteNumber": 56,
        "velocity": 80
    },
    {
        "track": 1,
        "absoluteTick": 115440,
        "noteNumber": 44,
        "velocity": 80
    },
    {
        "track": 1,
        "absoluteTick": 115560,
        "noteNumber": 53,
        "velocity": 80
    },
    {
        "track": 1,
        "absoluteTick": 115560,
        "noteNumber": 56,
        "velocity": 80
    },
    {
        "track": 1,
        "absoluteTick": 115680,
        "noteNumber": 44,
        "velocity": 80
    },
    {
        "track": 1,
        "absoluteTick": 115800,
        "noteNumber": 56,
        "velocity": 80
    },
    {
        "track": 1,
        "absoluteTick": 115800,
        "noteNumber": 53,
        "velocity": 80
    },
    {
        "track": 1,
        "absoluteTick": 115920,
        "noteNumber": 44,
        "velocity": 80
    },
    {
        "track": 1,
        "absoluteTick": 116040,
        "noteNumber": 53,
        "velocity": 80
    },
    {
        "track": 1,
        "absoluteTick": 116040,
        "noteNumber": 56,
        "velocity": 80
    },
    {
        "track": 0,
        "absoluteTick": 116160,
        "noteNumber": 72,
        "velocity": 80
    },
    {
        "track": 0,
        "absoluteTick": 116160,
        "noteNumber": 84,
        "velocity": 80
    },
    {
        "track": 1,
        "absoluteTick": 116160,
        "noteNumber": 44,
        "velocity": 80
    },
    {
        "track": 1,
        "absoluteTick": 116280,
        "noteNumber": 53,
        "velocity": 80
    },
    {
        "track": 1,
        "absoluteTick": 116280,
        "noteNumber": 56,
        "velocity": 80
    },
    {
        "track": 1,
        "absoluteTick": 116400,
        "noteNumber": 44,
        "velocity": 80
    },
    {
        "track": 1,
        "absoluteTick": 116520,
        "noteNumber": 53,
        "velocity": 80
    },
    {
        "track": 1,
        "absoluteTick": 116520,
        "noteNumber": 56,
        "velocity": 80
    },
    {
        "track": 1,
        "absoluteTick": 116640,
        "noteNumber": 44,
        "velocity": 80
    },
    {
        "track": 1,
        "absoluteTick": 116760,
        "noteNumber": 53,
        "velocity": 80
    },
    {
        "track": 1,
        "absoluteTick": 116760,
        "noteNumber": 56,
        "velocity": 80
    },
    {
        "track": 1,
        "absoluteTick": 116880,
        "noteNumber": 44,
        "velocity": 80
    },
    {
        "track": 1,
        "absoluteTick": 117000,
        "noteNumber": 53,
        "velocity": 80
    },
    {
        "track": 1,
        "absoluteTick": 117000,
        "noteNumber": 56,
        "velocity": 80
    },
    {
        "track": 0,
        "absoluteTick": 117120,
        "noteNumber": 73,
        "velocity": 80
    },
    {
        "track": 0,
        "absoluteTick": 117120,
        "noteNumber": 85,
        "velocity": 80
    },
    {
        "track": 1,
        "absoluteTick": 117120,
        "noteNumber": 46,
        "velocity": 80
    },
    {
        "track": 1,
        "absoluteTick": 117240,
        "noteNumber": 49,
        "velocity": 80
    },
    {
        "track": 1,
        "absoluteTick": 117240,
        "noteNumber": 56,
        "velocity": 80
    },
    {
        "track": 1,
        "absoluteTick": 117240,
        "noteNumber": 53,
        "velocity": 80
    },
    {
        "track": 1,
        "absoluteTick": 117360,
        "noteNumber": 46,
        "velocity": 80
    },
    {
        "track": 1,
        "absoluteTick": 117480,
        "noteNumber": 56,
        "velocity": 80
    },
    {
        "track": 1,
        "absoluteTick": 117480,
        "noteNumber": 53,
        "velocity": 80
    },
    {
        "track": 1,
        "absoluteTick": 117480,
        "noteNumber": 49,
        "velocity": 80
    },
    {
        "track": 1,
        "absoluteTick": 117600,
        "noteNumber": 46,
        "velocity": 80
    },
    {
        "track": 1,
        "absoluteTick": 117720,
        "noteNumber": 49,
        "velocity": 80
    },
    {
        "track": 1,
        "absoluteTick": 117720,
        "noteNumber": 56,
        "velocity": 80
    },
    {
        "track": 1,
        "absoluteTick": 117720,
        "noteNumber": 53,
        "velocity": 80
    },
    {
        "track": 1,
        "absoluteTick": 117840,
        "noteNumber": 46,
        "velocity": 80
    },
    {
        "track": 1,
        "absoluteTick": 117960,
        "noteNumber": 53,
        "velocity": 80
    },
    {
        "track": 1,
        "absoluteTick": 117960,
        "noteNumber": 56,
        "velocity": 80
    },
    {
        "track": 1,
        "absoluteTick": 117960,
        "noteNumber": 49,
        "velocity": 80
    },
    {
        "track": 0,
        "absoluteTick": 118080,
        "noteNumber": 65,
        "velocity": 80
    },
    {
        "track": 0,
        "absoluteTick": 118080,
        "noteNumber": 77,
        "velocity": 80
    },
    {
        "track": 1,
        "absoluteTick": 118080,
        "noteNumber": 46,
        "velocity": 80
    },
    {
        "track": 1,
        "absoluteTick": 118200,
        "noteNumber": 49,
        "velocity": 80
    },
    {
        "track": 1,
        "absoluteTick": 118200,
        "noteNumber": 53,
        "velocity": 80
    },
    {
        "track": 1,
        "absoluteTick": 118200,
        "noteNumber": 56,
        "velocity": 80
    },
    {
        "track": 1,
        "absoluteTick": 118320,
        "noteNumber": 46,
        "velocity": 80
    },
    {
        "track": 1,
        "absoluteTick": 118440,
        "noteNumber": 56,
        "velocity": 80
    },
    {
        "track": 1,
        "absoluteTick": 118440,
        "noteNumber": 49,
        "velocity": 80
    },
    {
        "track": 1,
        "absoluteTick": 118440,
        "noteNumber": 53,
        "velocity": 80
    },
    {
        "track": 1,
        "absoluteTick": 118560,
        "noteNumber": 46,
        "velocity": 80
    },
    {
        "track": 1,
        "absoluteTick": 118680,
        "noteNumber": 49,
        "velocity": 80
    },
    {
        "track": 1,
        "absoluteTick": 118680,
        "noteNumber": 56,
        "velocity": 80
    },
    {
        "track": 1,
        "absoluteTick": 118680,
        "noteNumber": 53,
        "velocity": 80
    },
    {
        "track": 1,
        "absoluteTick": 118800,
        "noteNumber": 46,
        "velocity": 80
    },
    {
        "track": 1,
        "absoluteTick": 118920,
        "noteNumber": 53,
        "velocity": 80
    },
    {
        "track": 1,
        "absoluteTick": 118920,
        "noteNumber": 49,
        "velocity": 80
    },
    {
        "track": 1,
        "absoluteTick": 118920,
        "noteNumber": 56,
        "velocity": 80
    },
    {
        "track": 0,
        "absoluteTick": 119040,
        "noteNumber": 72,
        "velocity": 80
    },
    {
        "track": 0,
        "absoluteTick": 119040,
        "noteNumber": 84,
        "velocity": 80
    },
    {
        "track": 1,
        "absoluteTick": 119040,
        "noteNumber": 47,
        "velocity": 80
    },
    {
        "track": 1,
        "absoluteTick": 119160,
        "noteNumber": 51,
        "velocity": 80
    },
    {
        "track": 1,
        "absoluteTick": 119160,
        "noteNumber": 59,
        "velocity": 80
    },
    {
        "track": 1,
        "absoluteTick": 119160,
        "noteNumber": 54,
        "velocity": 80
    },
    {
        "track": 1,
        "absoluteTick": 119280,
        "noteNumber": 47,
        "velocity": 80
    },
    {
        "track": 1,
        "absoluteTick": 119400,
        "noteNumber": 59,
        "velocity": 80
    },
    {
        "track": 1,
        "absoluteTick": 119400,
        "noteNumber": 54,
        "velocity": 80
    },
    {
        "track": 1,
        "absoluteTick": 119400,
        "noteNumber": 51,
        "velocity": 80
    },
    {
        "track": 0,
        "absoluteTick": 119520,
        "noteNumber": 71,
        "velocity": 80
    },
    {
        "track": 0,
        "absoluteTick": 119520,
        "noteNumber": 83,
        "velocity": 80
    },
    {
        "track": 1,
        "absoluteTick": 119520,
        "noteNumber": 47,
        "velocity": 80
    },
    {
        "track": 1,
        "absoluteTick": 119640,
        "noteNumber": 51,
        "velocity": 80
    },
    {
        "track": 1,
        "absoluteTick": 119640,
        "noteNumber": 59,
        "velocity": 80
    },
    {
        "track": 1,
        "absoluteTick": 119640,
        "noteNumber": 54,
        "velocity": 80
    },
    {
        "track": 1,
        "absoluteTick": 119760,
        "noteNumber": 47,
        "velocity": 80
    },
    {
        "track": 1,
        "absoluteTick": 119880,
        "noteNumber": 54,
        "velocity": 80
    },
    {
        "track": 1,
        "absoluteTick": 119880,
        "noteNumber": 59,
        "velocity": 80
    },
    {
        "track": 1,
        "absoluteTick": 119880,
        "noteNumber": 51,
        "velocity": 80
    },
    {
        "track": 0,
        "absoluteTick": 120000,
        "noteNumber": 68,
        "velocity": 80
    },
    {
        "track": 0,
        "absoluteTick": 120000,
        "noteNumber": 80,
        "velocity": 80
    },
    {
        "track": 1,
        "absoluteTick": 120000,
        "noteNumber": 47,
        "velocity": 80
    },
    {
        "track": 1,
        "absoluteTick": 120120,
        "noteNumber": 51,
        "velocity": 80
    },
    {
        "track": 1,
        "absoluteTick": 120120,
        "noteNumber": 54,
        "velocity": 80
    },
    {
        "track": 1,
        "absoluteTick": 120120,
        "noteNumber": 59,
        "velocity": 80
    },
    {
        "track": 1,
        "absoluteTick": 120240,
        "noteNumber": 47,
        "velocity": 80
    },
    {
        "track": 1,
        "absoluteTick": 120360,
        "noteNumber": 59,
        "velocity": 80
    },
    {
        "track": 1,
        "absoluteTick": 120360,
        "noteNumber": 51,
        "velocity": 80
    },
    {
        "track": 1,
        "absoluteTick": 120360,
        "noteNumber": 54,
        "velocity": 80
    },
    {
        "track": 0,
        "absoluteTick": 120480,
        "noteNumber": 66,
        "velocity": 80
    },
    {
        "track": 0,
        "absoluteTick": 120480,
        "noteNumber": 78,
        "velocity": 80
    },
    {
        "track": 1,
        "absoluteTick": 120480,
        "noteNumber": 47,
        "velocity": 80
    },
    {
        "track": 1,
        "absoluteTick": 120600,
        "noteNumber": 51,
        "velocity": 80
    },
    {
        "track": 1,
        "absoluteTick": 120600,
        "noteNumber": 59,
        "velocity": 80
    },
    {
        "track": 1,
        "absoluteTick": 120600,
        "noteNumber": 54,
        "velocity": 80
    },
    {
        "track": 1,
        "absoluteTick": 120720,
        "noteNumber": 47,
        "velocity": 80
    },
    {
        "track": 1,
        "absoluteTick": 120840,
        "noteNumber": 54,
        "velocity": 80
    },
    {
        "track": 1,
        "absoluteTick": 120840,
        "noteNumber": 51,
        "velocity": 80
    },
    {
        "track": 1,
        "absoluteTick": 120840,
        "noteNumber": 59,
        "velocity": 80
    },
    {
        "track": 0,
        "absoluteTick": 120960,
        "noteNumber": 65,
        "velocity": 80
    },
    {
        "track": 0,
        "absoluteTick": 120960,
        "noteNumber": 77,
        "velocity": 80
    },
    {
        "track": 1,
        "absoluteTick": 120960,
        "noteNumber": 41,
        "velocity": 80
    },
    {
        "track": 1,
        "absoluteTick": 120960,
        "noteNumber": 53,
        "velocity": 80
    },
    {
        "track": 0,
        "absoluteTick": 121200,
        "noteNumber": 60,
        "velocity": 81
    },
    {
        "track": 1,
        "absoluteTick": 121200,
        "noteNumber": 41,
        "velocity": 81
    },
    {
        "track": 1,
        "absoluteTick": 121200,
        "noteNumber": 53,
        "velocity": 81
    },
    {
        "track": 0,
        "absoluteTick": 121320,
        "noteNumber": 60,
        "velocity": 81
    },
    {
        "track": 0,
        "absoluteTick": 121440,
        "noteNumber": 60,
        "velocity": 82
    },
    {
        "track": 1,
        "absoluteTick": 121440,
        "noteNumber": 41,
        "velocity": 82
    },
    {
        "track": 1,
        "absoluteTick": 121440,
        "noteNumber": 53,
        "velocity": 82
    },
    {
        "track": 0,
        "absoluteTick": 121680,
        "noteNumber": 59,
        "velocity": 83
    },
    {
        "track": 0,
        "absoluteTick": 121680,
        "noteNumber": 71,
        "velocity": 83
    },
    {
        "track": 1,
        "absoluteTick": 121680,
        "noteNumber": 41,
        "velocity": 83
    },
    {
        "track": 1,
        "absoluteTick": 121680,
        "noteNumber": 53,
        "velocity": 83
    },
    {
        "track": 0,
        "absoluteTick": 121920,
        "noteNumber": 59,
        "velocity": 84
    },
    {
        "track": 1,
        "absoluteTick": 121920,
        "noteNumber": 41,
        "velocity": 84
    },
    {
        "track": 1,
        "absoluteTick": 121920,
        "noteNumber": 53,
        "velocity": 84
    },
    {
        "track": 0,
        "absoluteTick": 122040,
        "noteNumber": 59,
        "velocity": 84
    },
    {
        "track": 0,
        "absoluteTick": 122160,
        "noteNumber": 59,
        "velocity": 85
    },
    {
        "track": 1,
        "absoluteTick": 122160,
        "noteNumber": 41,
        "velocity": 85
    },
    {
        "track": 1,
        "absoluteTick": 122160,
        "noteNumber": 53,
        "velocity": 85
    },
    {
        "track": 0,
        "absoluteTick": 122400,
        "noteNumber": 60,
        "velocity": 86
    },
    {
        "track": 0,
        "absoluteTick": 122400,
        "noteNumber": 72,
        "velocity": 86
    },
    {
        "track": 1,
        "absoluteTick": 122400,
        "noteNumber": 41,
        "velocity": 86
    },
    {
        "track": 1,
        "absoluteTick": 122400,
        "noteNumber": 53,
        "velocity": 86
    },
    {
        "track": 0,
        "absoluteTick": 122640,
        "noteNumber": 60,
        "velocity": 87
    },
    {
        "track": 1,
        "absoluteTick": 122640,
        "noteNumber": 41,
        "velocity": 87
    },
    {
        "track": 1,
        "absoluteTick": 122640,
        "noteNumber": 53,
        "velocity": 87
    },
    {
        "track": 0,
        "absoluteTick": 122760,
        "noteNumber": 60,
        "velocity": 87
    },
    {
        "track": 0,
        "absoluteTick": 122880,
        "noteNumber": 60,
        "velocity": 88
    },
    {
        "track": 1,
        "absoluteTick": 122880,
        "noteNumber": 41,
        "velocity": 88
    },
    {
        "track": 1,
        "absoluteTick": 122880,
        "noteNumber": 53,
        "velocity": 88
    },
    {
        "track": 0,
        "absoluteTick": 123120,
        "noteNumber": 61,
        "velocity": 89
    },
    {
        "track": 0,
        "absoluteTick": 123120,
        "noteNumber": 73,
        "velocity": 89
    },
    {
        "track": 1,
        "absoluteTick": 123120,
        "noteNumber": 41,
        "velocity": 89
    },
    {
        "track": 1,
        "absoluteTick": 123120,
        "noteNumber": 53,
        "velocity": 89
    },
    {
        "track": 0,
        "absoluteTick": 123360,
        "noteNumber": 61,
        "velocity": 90
    },
    {
        "track": 1,
        "absoluteTick": 123360,
        "noteNumber": 41,
        "velocity": 90
    },
    {
        "track": 1,
        "absoluteTick": 123360,
        "noteNumber": 53,
        "velocity": 90
    },
    {
        "track": 0,
        "absoluteTick": 123480,
        "noteNumber": 61,
        "velocity": 90
    },
    {
        "track": 0,
        "absoluteTick": 123600,
        "noteNumber": 61,
        "velocity": 91
    },
    {
        "track": 1,
        "absoluteTick": 123600,
        "noteNumber": 41,
        "velocity": 91
    },
    {
        "track": 1,
        "absoluteTick": 123600,
        "noteNumber": 53,
        "velocity": 91
    },
    {
        "track": 0,
        "absoluteTick": 123840,
        "noteNumber": 63,
        "velocity": 92
    },
    {
        "track": 0,
        "absoluteTick": 123840,
        "noteNumber": 75,
        "velocity": 92
    },
    {
        "track": 1,
        "absoluteTick": 123840,
        "noteNumber": 41,
        "velocity": 92
    },
    {
        "track": 1,
        "absoluteTick": 123840,
        "noteNumber": 53,
        "velocity": 92
    },
    {
        "track": 0,
        "absoluteTick": 124080,
        "noteNumber": 63,
        "velocity": 93
    },
    {
        "track": 1,
        "absoluteTick": 124080,
        "noteNumber": 41,
        "velocity": 93
    },
    {
        "track": 1,
        "absoluteTick": 124080,
        "noteNumber": 53,
        "velocity": 93
    },
    {
        "track": 0,
        "absoluteTick": 124200,
        "noteNumber": 63,
        "velocity": 93
    },
    {
        "track": 0,
        "absoluteTick": 124320,
        "noteNumber": 63,
        "velocity": 94
    },
    {
        "track": 1,
        "absoluteTick": 124320,
        "noteNumber": 41,
        "velocity": 94
    },
    {
        "track": 1,
        "absoluteTick": 124320,
        "noteNumber": 53,
        "velocity": 94
    },
    {
        "track": 1,
        "absoluteTick": 124560,
        "noteNumber": 41,
        "velocity": 95
    },
    {
        "track": 1,
        "absoluteTick": 124560,
        "noteNumber": 53,
        "velocity": 95
    },
    {
        "track": 0,
        "absoluteTick": 124800,
        "noteNumber": 65,
        "velocity": 96
    },
    {
        "track": 0,
        "absoluteTick": 124800,
        "noteNumber": 77,
        "velocity": 96
    },
    {
        "track": 1,
        "absoluteTick": 124800,
        "noteNumber": 41,
        "velocity": 96
    },
    {
        "track": 1,
        "absoluteTick": 124920,
        "noteNumber": 44,
        "velocity": 96
    },
    {
        "track": 1,
        "absoluteTick": 124920,
        "noteNumber": 53,
        "velocity": 96
    },
    {
        "track": 1,
        "absoluteTick": 124920,
        "noteNumber": 48,
        "velocity": 96
    },
    {
        "track": 1,
        "absoluteTick": 125040,
        "noteNumber": 41,
        "velocity": 96
    },
    {
        "track": 1,
        "absoluteTick": 125160,
        "noteNumber": 53,
        "velocity": 96
    },
    {
        "track": 1,
        "absoluteTick": 125160,
        "noteNumber": 48,
        "velocity": 96
    },
    {
        "track": 1,
        "absoluteTick": 125160,
        "noteNumber": 44,
        "velocity": 96
    },
    {
        "track": 0,
        "absoluteTick": 125280,
        "noteNumber": 68,
        "velocity": 96
    },
    {
        "track": 0,
        "absoluteTick": 125280,
        "noteNumber": 80,
        "velocity": 96
    },
    {
        "track": 1,
        "absoluteTick": 125280,
        "noteNumber": 41,
        "velocity": 96
    },
    {
        "track": 1,
        "absoluteTick": 125400,
        "noteNumber": 44,
        "velocity": 96
    },
    {
        "track": 1,
        "absoluteTick": 125400,
        "noteNumber": 53,
        "velocity": 96
    },
    {
        "track": 1,
        "absoluteTick": 125400,
        "noteNumber": 48,
        "velocity": 96
    },
    {
        "track": 1,
        "absoluteTick": 125520,
        "noteNumber": 41,
        "velocity": 96
    },
    {
        "track": 1,
        "absoluteTick": 125640,
        "noteNumber": 48,
        "velocity": 96
    },
    {
        "track": 1,
        "absoluteTick": 125640,
        "noteNumber": 53,
        "velocity": 96
    },
    {
        "track": 1,
        "absoluteTick": 125640,
        "noteNumber": 44,
        "velocity": 96
    },
    {
        "track": 0,
        "absoluteTick": 125760,
        "noteNumber": 72,
        "velocity": 96
    },
    {
        "track": 0,
        "absoluteTick": 125760,
        "noteNumber": 84,
        "velocity": 96
    },
    {
        "track": 1,
        "absoluteTick": 125760,
        "noteNumber": 41,
        "velocity": 96
    },
    {
        "track": 1,
        "absoluteTick": 125880,
        "noteNumber": 44,
        "velocity": 96
    },
    {
        "track": 1,
        "absoluteTick": 125880,
        "noteNumber": 48,
        "velocity": 96
    },
    {
        "track": 1,
        "absoluteTick": 125880,
        "noteNumber": 53,
        "velocity": 96
    },
    {
        "track": 1,
        "absoluteTick": 126000,
        "noteNumber": 41,
        "velocity": 96
    },
    {
        "track": 1,
        "absoluteTick": 126120,
        "noteNumber": 53,
        "velocity": 96
    },
    {
        "track": 1,
        "absoluteTick": 126120,
        "noteNumber": 44,
        "velocity": 96
    },
    {
        "track": 1,
        "absoluteTick": 126120,
        "noteNumber": 48,
        "velocity": 96
    },
    {
        "track": 0,
        "absoluteTick": 126240,
        "noteNumber": 73,
        "velocity": 96
    },
    {
        "track": 0,
        "absoluteTick": 126240,
        "noteNumber": 85,
        "velocity": 96
    },
    {
        "track": 1,
        "absoluteTick": 126240,
        "noteNumber": 41,
        "velocity": 96
    },
    {
        "track": 1,
        "absoluteTick": 126360,
        "noteNumber": 44,
        "velocity": 96
    },
    {
        "track": 1,
        "absoluteTick": 126360,
        "noteNumber": 53,
        "velocity": 96
    },
    {
        "track": 1,
        "absoluteTick": 126360,
        "noteNumber": 48,
        "velocity": 96
    },
    {
        "track": 1,
        "absoluteTick": 126480,
        "noteNumber": 41,
        "velocity": 96
    },
    {
        "track": 1,
        "absoluteTick": 126600,
        "noteNumber": 48,
        "velocity": 96
    },
    {
        "track": 1,
        "absoluteTick": 126600,
        "noteNumber": 44,
        "velocity": 96
    },
    {
        "track": 1,
        "absoluteTick": 126600,
        "noteNumber": 53,
        "velocity": 96
    },
    {
        "track": 0,
        "absoluteTick": 126720,
        "noteNumber": 67,
        "velocity": 96
    },
    {
        "track": 0,
        "absoluteTick": 126720,
        "noteNumber": 79,
        "velocity": 96
    },
    {
        "track": 1,
        "absoluteTick": 126720,
        "noteNumber": 49,
        "velocity": 96
    },
    {
        "track": 1,
        "absoluteTick": 126840,
        "noteNumber": 53,
        "velocity": 96
    },
    {
        "track": 1,
        "absoluteTick": 126840,
        "noteNumber": 61,
        "velocity": 96
    },
    {
        "track": 1,
        "absoluteTick": 126840,
        "noteNumber": 56,
        "velocity": 96
    },
    {
        "track": 1,
        "absoluteTick": 126960,
        "noteNumber": 49,
        "velocity": 96
    },
    {
        "track": 1,
        "absoluteTick": 127080,
        "noteNumber": 61,
        "velocity": 96
    },
    {
        "track": 1,
        "absoluteTick": 127080,
        "noteNumber": 56,
        "velocity": 96
    },
    {
        "track": 1,
        "absoluteTick": 127080,
        "noteNumber": 53,
        "velocity": 96
    },
    {
        "track": 0,
        "absoluteTick": 127200,
        "noteNumber": 68,
        "velocity": 96
    },
    {
        "track": 0,
        "absoluteTick": 127200,
        "noteNumber": 80,
        "velocity": 96
    },
    {
        "track": 1,
        "absoluteTick": 127200,
        "noteNumber": 49,
        "velocity": 96
    },
    {
        "track": 1,
        "absoluteTick": 127320,
        "noteNumber": 53,
        "velocity": 96
    },
    {
        "track": 1,
        "absoluteTick": 127320,
        "noteNumber": 61,
        "velocity": 96
    },
    {
        "track": 1,
        "absoluteTick": 127320,
        "noteNumber": 56,
        "velocity": 96
    },
    {
        "track": 1,
        "absoluteTick": 127440,
        "noteNumber": 49,
        "velocity": 96
    },
    {
        "track": 1,
        "absoluteTick": 127560,
        "noteNumber": 56,
        "velocity": 96
    },
    {
        "track": 1,
        "absoluteTick": 127560,
        "noteNumber": 61,
        "velocity": 96
    },
    {
        "track": 1,
        "absoluteTick": 127560,
        "noteNumber": 53,
        "velocity": 96
    },
    {
        "track": 0,
        "absoluteTick": 127680,
        "noteNumber": 70,
        "velocity": 96
    },
    {
        "track": 0,
        "absoluteTick": 127680,
        "noteNumber": 82,
        "velocity": 96
    },
    {
        "track": 1,
        "absoluteTick": 127680,
        "noteNumber": 49,
        "velocity": 96
    },
    {
        "track": 1,
        "absoluteTick": 127800,
        "noteNumber": 53,
        "velocity": 96
    },
    {
        "track": 1,
        "absoluteTick": 127800,
        "noteNumber": 56,
        "velocity": 96
    },
    {
        "track": 1,
        "absoluteTick": 127800,
        "noteNumber": 61,
        "velocity": 96
    },
    {
        "track": 1,
        "absoluteTick": 127920,
        "noteNumber": 49,
        "velocity": 96
    },
    {
        "track": 1,
        "absoluteTick": 128040,
        "noteNumber": 61,
        "velocity": 96
    },
    {
        "track": 1,
        "absoluteTick": 128040,
        "noteNumber": 53,
        "velocity": 96
    },
    {
        "track": 1,
        "absoluteTick": 128040,
        "noteNumber": 56,
        "velocity": 96
    },
    {
        "track": 0,
        "absoluteTick": 128160,
        "noteNumber": 72,
        "velocity": 96
    },
    {
        "track": 0,
        "absoluteTick": 128160,
        "noteNumber": 84,
        "velocity": 96
    },
    {
        "track": 1,
        "absoluteTick": 128160,
        "noteNumber": 49,
        "velocity": 96
    },
    {
        "track": 1,
        "absoluteTick": 128280,
        "noteNumber": 53,
        "velocity": 96
    },
    {
        "track": 1,
        "absoluteTick": 128280,
        "noteNumber": 61,
        "velocity": 96
    },
    {
        "track": 1,
        "absoluteTick": 128280,
        "noteNumber": 56,
        "velocity": 96
    },
    {
        "track": 1,
        "absoluteTick": 128400,
        "noteNumber": 49,
        "velocity": 96
    },
    {
        "track": 1,
        "absoluteTick": 128520,
        "noteNumber": 56,
        "velocity": 96
    },
    {
        "track": 1,
        "absoluteTick": 128520,
        "noteNumber": 53,
        "velocity": 96
    },
    {
        "track": 1,
        "absoluteTick": 128520,
        "noteNumber": 61,
        "velocity": 96
    },
    {
        "track": 0,
        "absoluteTick": 128640,
        "noteNumber": 65,
        "velocity": 96
    },
    {
        "track": 0,
        "absoluteTick": 128640,
        "noteNumber": 77,
        "velocity": 96
    },
    {
        "track": 1,
        "absoluteTick": 128640,
        "noteNumber": 50,
        "velocity": 96
    },
    {
        "track": 1,
        "absoluteTick": 128760,
        "noteNumber": 55,
        "velocity": 96
    },
    {
        "track": 1,
        "absoluteTick": 128760,
        "noteNumber": 59,
        "velocity": 96
    },
    {
        "track": 1,
        "absoluteTick": 128880,
        "noteNumber": 50,
        "velocity": 96
    },
    {
        "track": 1,
        "absoluteTick": 129000,
        "noteNumber": 55,
        "velocity": 96
    },
    {
        "track": 1,
        "absoluteTick": 129000,
        "noteNumber": 59,
        "velocity": 96
    },
    {
        "track": 0,
        "absoluteTick": 129120,
        "noteNumber": 67,
        "velocity": 96
    },
    {
        "track": 0,
        "absoluteTick": 129120,
        "noteNumber": 79,
        "velocity": 96
    },
    {
        "track": 1,
        "absoluteTick": 129120,
        "noteNumber": 50,
        "velocity": 96
    },
    {
        "track": 1,
        "absoluteTick": 129240,
        "noteNumber": 59,
        "velocity": 96
    },
    {
        "track": 1,
        "absoluteTick": 129240,
        "noteNumber": 55,
        "velocity": 96
    },
    {
        "track": 1,
        "absoluteTick": 129360,
        "noteNumber": 50,
        "velocity": 96
    },
    {
        "track": 1,
        "absoluteTick": 129480,
        "noteNumber": 55,
        "velocity": 96
    },
    {
        "track": 1,
        "absoluteTick": 129480,
        "noteNumber": 59,
        "velocity": 96
    },
    {
        "track": 0,
        "absoluteTick": 129600,
        "noteNumber": 68,
        "velocity": 96
    },
    {
        "track": 0,
        "absoluteTick": 129600,
        "noteNumber": 80,
        "velocity": 96
    },
    {
        "track": 1,
        "absoluteTick": 129600,
        "noteNumber": 50,
        "velocity": 96
    },
    {
        "track": 1,
        "absoluteTick": 129720,
        "noteNumber": 55,
        "velocity": 96
    },
    {
        "track": 1,
        "absoluteTick": 129720,
        "noteNumber": 59,
        "velocity": 96
    },
    {
        "track": 1,
        "absoluteTick": 129840,
        "noteNumber": 50,
        "velocity": 96
    },
    {
        "track": 1,
        "absoluteTick": 129960,
        "noteNumber": 55,
        "velocity": 96
    },
    {
        "track": 1,
        "absoluteTick": 129960,
        "noteNumber": 59,
        "velocity": 96
    },
    {
        "track": 0,
        "absoluteTick": 130080,
        "noteNumber": 70,
        "velocity": 96
    },
    {
        "track": 0,
        "absoluteTick": 130080,
        "noteNumber": 82,
        "velocity": 96
    },
    {
        "track": 1,
        "absoluteTick": 130080,
        "noteNumber": 50,
        "velocity": 96
    },
    {
        "track": 1,
        "absoluteTick": 130200,
        "noteNumber": 55,
        "velocity": 96
    },
    {
        "track": 1,
        "absoluteTick": 130200,
        "noteNumber": 59,
        "velocity": 96
    },
    {
        "track": 1,
        "absoluteTick": 130320,
        "noteNumber": 50,
        "velocity": 96
    },
    {
        "track": 1,
        "absoluteTick": 130440,
        "noteNumber": 55,
        "velocity": 96
    },
    {
        "track": 1,
        "absoluteTick": 130440,
        "noteNumber": 59,
        "velocity": 96
    },
    {
        "track": 0,
        "absoluteTick": 130560,
        "noteNumber": 65,
        "velocity": 96
    },
    {
        "track": 0,
        "absoluteTick": 130560,
        "noteNumber": 77,
        "velocity": 96
    },
    {
        "track": 1,
        "absoluteTick": 130560,
        "noteNumber": 49,
        "velocity": 96
    },
    {
        "track": 1,
        "absoluteTick": 130680,
        "noteNumber": 53,
        "velocity": 96
    },
    {
        "track": 1,
        "absoluteTick": 130680,
        "noteNumber": 61,
        "velocity": 96
    },
    {
        "track": 1,
        "absoluteTick": 130680,
        "noteNumber": 56,
        "velocity": 96
    },
    {
        "track": 1,
        "absoluteTick": 130800,
        "noteNumber": 49,
        "velocity": 96
    },
    {
        "track": 1,
        "absoluteTick": 130920,
        "noteNumber": 61,
        "velocity": 96
    },
    {
        "track": 1,
        "absoluteTick": 130920,
        "noteNumber": 56,
        "velocity": 96
    },
    {
        "track": 1,
        "absoluteTick": 130920,
        "noteNumber": 53,
        "velocity": 96
    },
    {
        "track": 0,
        "absoluteTick": 131040,
        "noteNumber": 67,
        "velocity": 96
    },
    {
        "track": 0,
        "absoluteTick": 131040,
        "noteNumber": 79,
        "velocity": 96
    },
    {
        "track": 1,
        "absoluteTick": 131040,
        "noteNumber": 49,
        "velocity": 96
    },
    {
        "track": 1,
        "absoluteTick": 131160,
        "noteNumber": 53,
        "velocity": 96
    },
    {
        "track": 1,
        "absoluteTick": 131160,
        "noteNumber": 61,
        "velocity": 96
    },
    {
        "track": 1,
        "absoluteTick": 131160,
        "noteNumber": 56,
        "velocity": 96
    },
    {
        "track": 1,
        "absoluteTick": 131280,
        "noteNumber": 49,
        "velocity": 96
    },
    {
        "track": 1,
        "absoluteTick": 131400,
        "noteNumber": 56,
        "velocity": 96
    },
    {
        "track": 1,
        "absoluteTick": 131400,
        "noteNumber": 61,
        "velocity": 96
    },
    {
        "track": 1,
        "absoluteTick": 131400,
        "noteNumber": 53,
        "velocity": 96
    },
    {
        "track": 0,
        "absoluteTick": 131520,
        "noteNumber": 68,
        "velocity": 96
    },
    {
        "track": 0,
        "absoluteTick": 131520,
        "noteNumber": 80,
        "velocity": 96
    },
    {
        "track": 1,
        "absoluteTick": 131520,
        "noteNumber": 49,
        "velocity": 96
    },
    {
        "track": 1,
        "absoluteTick": 131640,
        "noteNumber": 53,
        "velocity": 96
    },
    {
        "track": 1,
        "absoluteTick": 131640,
        "noteNumber": 56,
        "velocity": 96
    },
    {
        "track": 1,
        "absoluteTick": 131640,
        "noteNumber": 61,
        "velocity": 96
    },
    {
        "track": 1,
        "absoluteTick": 131760,
        "noteNumber": 49,
        "velocity": 96
    },
    {
        "track": 1,
        "absoluteTick": 131880,
        "noteNumber": 61,
        "velocity": 96
    },
    {
        "track": 1,
        "absoluteTick": 131880,
        "noteNumber": 53,
        "velocity": 96
    },
    {
        "track": 1,
        "absoluteTick": 131880,
        "noteNumber": 56,
        "velocity": 96
    },
    {
        "track": 0,
        "absoluteTick": 132000,
        "noteNumber": 65,
        "velocity": 96
    },
    {
        "track": 0,
        "absoluteTick": 132000,
        "noteNumber": 77,
        "velocity": 96
    },
    {
        "track": 1,
        "absoluteTick": 132000,
        "noteNumber": 49,
        "velocity": 96
    },
    {
        "track": 1,
        "absoluteTick": 132120,
        "noteNumber": 53,
        "velocity": 96
    },
    {
        "track": 1,
        "absoluteTick": 132120,
        "noteNumber": 61,
        "velocity": 96
    },
    {
        "track": 1,
        "absoluteTick": 132120,
        "noteNumber": 56,
        "velocity": 96
    },
    {
        "track": 1,
        "absoluteTick": 132240,
        "noteNumber": 49,
        "velocity": 96
    },
    {
        "track": 1,
        "absoluteTick": 132360,
        "noteNumber": 56,
        "velocity": 96
    },
    {
        "track": 1,
        "absoluteTick": 132360,
        "noteNumber": 53,
        "velocity": 96
    },
    {
        "track": 1,
        "absoluteTick": 132360,
        "noteNumber": 61,
        "velocity": 96
    },
    {
        "track": 1,
        "absoluteTick": 132480,
        "noteNumber": 41,
        "velocity": 96
    },
    {
        "track": 1,
        "absoluteTick": 132600,
        "noteNumber": 44,
        "velocity": 96
    },
    {
        "track": 1,
        "absoluteTick": 132600,
        "noteNumber": 53,
        "velocity": 96
    },
    {
        "track": 1,
        "absoluteTick": 132600,
        "noteNumber": 48,
        "velocity": 96
    },
    {
        "track": 1,
        "absoluteTick": 132720,
        "noteNumber": 41,
        "velocity": 96
    },
    {
        "track": 1,
        "absoluteTick": 132840,
        "noteNumber": 53,
        "velocity": 96
    },
    {
        "track": 1,
        "absoluteTick": 132840,
        "noteNumber": 48,
        "velocity": 96
    },
    {
        "track": 1,
        "absoluteTick": 132840,
        "noteNumber": 44,
        "velocity": 96
    },
    {
        "track": 0,
        "absoluteTick": 132960,
        "noteNumber": 63,
        "velocity": 96
    },
    {
        "track": 0,
        "absoluteTick": 132960,
        "noteNumber": 75,
        "velocity": 96
    },
    {
        "track": 1,
        "absoluteTick": 132960,
        "noteNumber": 41,
        "velocity": 96
    },
    {
        "track": 1,
        "absoluteTick": 133080,
        "noteNumber": 44,
        "velocity": 96
    },
    {
        "track": 1,
        "absoluteTick": 133080,
        "noteNumber": 53,
        "velocity": 96
    },
    {
        "track": 1,
        "absoluteTick": 133080,
        "noteNumber": 48,
        "velocity": 96
    },
    {
        "track": 1,
        "absoluteTick": 133200,
        "noteNumber": 41,
        "velocity": 97
    },
    {
        "track": 1,
        "absoluteTick": 133320,
        "noteNumber": 48,
        "velocity": 97
    },
    {
        "track": 1,
        "absoluteTick": 133320,
        "noteNumber": 53,
        "velocity": 97
    },
    {
        "track": 1,
        "absoluteTick": 133320,
        "noteNumber": 44,
        "velocity": 97
    },
    {
        "track": 0,
        "absoluteTick": 133440,
        "noteNumber": 65,
        "velocity": 97
    },
    {
        "track": 0,
        "absoluteTick": 133440,
        "noteNumber": 77,
        "velocity": 97
    },
    {
        "track": 1,
        "absoluteTick": 133440,
        "noteNumber": 41,
        "velocity": 97
    },
    {
        "track": 1,
        "absoluteTick": 133560,
        "noteNumber": 44,
        "velocity": 97
    },
    {
        "track": 1,
        "absoluteTick": 133560,
        "noteNumber": 48,
        "velocity": 97
    },
    {
        "track": 1,
        "absoluteTick": 133560,
        "noteNumber": 53,
        "velocity": 97
    },
    {
        "track": 1,
        "absoluteTick": 133680,
        "noteNumber": 41,
        "velocity": 97
    },
    {
        "track": 1,
        "absoluteTick": 133800,
        "noteNumber": 53,
        "velocity": 97
    },
    {
        "track": 1,
        "absoluteTick": 133800,
        "noteNumber": 44,
        "velocity": 97
    },
    {
        "track": 1,
        "absoluteTick": 133800,
        "noteNumber": 48,
        "velocity": 97
    },
    {
        "track": 0,
        "absoluteTick": 133920,
        "noteNumber": 67,
        "velocity": 98
    },
    {
        "track": 0,
        "absoluteTick": 133920,
        "noteNumber": 79,
        "velocity": 98
    },
    {
        "track": 1,
        "absoluteTick": 133920,
        "noteNumber": 41,
        "velocity": 98
    },
    {
        "track": 1,
        "absoluteTick": 134040,
        "noteNumber": 44,
        "velocity": 98
    },
    {
        "track": 1,
        "absoluteTick": 134040,
        "noteNumber": 53,
        "velocity": 98
    },
    {
        "track": 1,
        "absoluteTick": 134040,
        "noteNumber": 48,
        "velocity": 98
    },
    {
        "track": 1,
        "absoluteTick": 134160,
        "noteNumber": 41,
        "velocity": 98
    },
    {
        "track": 1,
        "absoluteTick": 134280,
        "noteNumber": 48,
        "velocity": 98
    },
    {
        "track": 1,
        "absoluteTick": 134280,
        "noteNumber": 44,
        "velocity": 98
    },
    {
        "track": 1,
        "absoluteTick": 134280,
        "noteNumber": 53,
        "velocity": 98
    },
    {
        "track": 0,
        "absoluteTick": 134400,
        "noteNumber": 68,
        "velocity": 98
    },
    {
        "track": 0,
        "absoluteTick": 134400,
        "noteNumber": 80,
        "velocity": 98
    },
    {
        "track": 1,
        "absoluteTick": 134400,
        "noteNumber": 49,
        "velocity": 98
    },
    {
        "track": 1,
        "absoluteTick": 134520,
        "noteNumber": 53,
        "velocity": 98
    },
    {
        "track": 1,
        "absoluteTick": 134520,
        "noteNumber": 61,
        "velocity": 98
    },
    {
        "track": 1,
        "absoluteTick": 134520,
        "noteNumber": 56,
        "velocity": 98
    },
    {
        "track": 1,
        "absoluteTick": 134640,
        "noteNumber": 49,
        "velocity": 99
    },
    {
        "track": 1,
        "absoluteTick": 134760,
        "noteNumber": 61,
        "velocity": 99
    },
    {
        "track": 1,
        "absoluteTick": 134760,
        "noteNumber": 56,
        "velocity": 99
    },
    {
        "track": 1,
        "absoluteTick": 134760,
        "noteNumber": 53,
        "velocity": 99
    },
    {
        "track": 0,
        "absoluteTick": 134880,
        "noteNumber": 67,
        "velocity": 99
    },
    {
        "track": 0,
        "absoluteTick": 134880,
        "noteNumber": 79,
        "velocity": 99
    },
    {
        "track": 1,
        "absoluteTick": 134880,
        "noteNumber": 49,
        "velocity": 99
    },
    {
        "track": 1,
        "absoluteTick": 135000,
        "noteNumber": 53,
        "velocity": 99
    },
    {
        "track": 1,
        "absoluteTick": 135000,
        "noteNumber": 61,
        "velocity": 99
    },
    {
        "track": 1,
        "absoluteTick": 135000,
        "noteNumber": 56,
        "velocity": 99
    },
    {
        "track": 1,
        "absoluteTick": 135120,
        "noteNumber": 49,
        "velocity": 99
    },
    {
        "track": 1,
        "absoluteTick": 135240,
        "noteNumber": 56,
        "velocity": 99
    },
    {
        "track": 1,
        "absoluteTick": 135240,
        "noteNumber": 61,
        "velocity": 99
    },
    {
        "track": 1,
        "absoluteTick": 135240,
        "noteNumber": 53,
        "velocity": 99
    },
    {
        "track": 0,
        "absoluteTick": 135360,
        "noteNumber": 68,
        "velocity": 100
    },
    {
        "track": 0,
        "absoluteTick": 135360,
        "noteNumber": 80,
        "velocity": 100
    },
    {
        "track": 1,
        "absoluteTick": 135360,
        "noteNumber": 49,
        "velocity": 100
    },
    {
        "track": 1,
        "absoluteTick": 135480,
        "noteNumber": 53,
        "velocity": 100
    },
    {
        "track": 1,
        "absoluteTick": 135480,
        "noteNumber": 56,
        "velocity": 100
    },
    {
        "track": 1,
        "absoluteTick": 135480,
        "noteNumber": 61,
        "velocity": 100
    },
    {
        "track": 1,
        "absoluteTick": 135600,
        "noteNumber": 49,
        "velocity": 100
    },
    {
        "track": 1,
        "absoluteTick": 135720,
        "noteNumber": 61,
        "velocity": 100
    },
    {
        "track": 1,
        "absoluteTick": 135720,
        "noteNumber": 53,
        "velocity": 100
    },
    {
        "track": 1,
        "absoluteTick": 135720,
        "noteNumber": 56,
        "velocity": 100
    },
    {
        "track": 0,
        "absoluteTick": 135840,
        "noteNumber": 72,
        "velocity": 100
    },
    {
        "track": 0,
        "absoluteTick": 135840,
        "noteNumber": 84,
        "velocity": 100
    },
    {
        "track": 1,
        "absoluteTick": 135840,
        "noteNumber": 49,
        "velocity": 100
    },
    {
        "track": 1,
        "absoluteTick": 135960,
        "noteNumber": 53,
        "velocity": 100
    },
    {
        "track": 1,
        "absoluteTick": 135960,
        "noteNumber": 61,
        "velocity": 100
    },
    {
        "track": 1,
        "absoluteTick": 135960,
        "noteNumber": 56,
        "velocity": 100
    },
    {
        "track": 1,
        "absoluteTick": 136080,
        "noteNumber": 49,
        "velocity": 101
    },
    {
        "track": 1,
        "absoluteTick": 136200,
        "noteNumber": 56,
        "velocity": 101
    },
    {
        "track": 1,
        "absoluteTick": 136200,
        "noteNumber": 53,
        "velocity": 101
    },
    {
        "track": 1,
        "absoluteTick": 136200,
        "noteNumber": 61,
        "velocity": 101
    },
    {
        "track": 0,
        "absoluteTick": 136320,
        "noteNumber": 73,
        "velocity": 101
    },
    {
        "track": 0,
        "absoluteTick": 136320,
        "noteNumber": 85,
        "velocity": 101
    },
    {
        "track": 1,
        "absoluteTick": 136320,
        "noteNumber": 46,
        "velocity": 101
    },
    {
        "track": 1,
        "absoluteTick": 136440,
        "noteNumber": 49,
        "velocity": 101
    },
    {
        "track": 1,
        "absoluteTick": 136440,
        "noteNumber": 58,
        "velocity": 101
    },
    {
        "track": 1,
        "absoluteTick": 136440,
        "noteNumber": 53,
        "velocity": 101
    },
    {
        "track": 1,
        "absoluteTick": 136560,
        "noteNumber": 46,
        "velocity": 101
    },
    {
        "track": 1,
        "absoluteTick": 136680,
        "noteNumber": 58,
        "velocity": 101
    },
    {
        "track": 1,
        "absoluteTick": 136680,
        "noteNumber": 53,
        "velocity": 101
    },
    {
        "track": 1,
        "absoluteTick": 136680,
        "noteNumber": 49,
        "velocity": 101
    },
    {
        "track": 1,
        "absoluteTick": 136800,
        "noteNumber": 46,
        "velocity": 102
    },
    {
        "track": 1,
        "absoluteTick": 136920,
        "noteNumber": 49,
        "velocity": 102
    },
    {
        "track": 1,
        "absoluteTick": 136920,
        "noteNumber": 58,
        "velocity": 102
    },
    {
        "track": 1,
        "absoluteTick": 136920,
        "noteNumber": 53,
        "velocity": 102
    },
    {
        "track": 1,
        "absoluteTick": 137040,
        "noteNumber": 46,
        "velocity": 102
    },
    {
        "track": 1,
        "absoluteTick": 137160,
        "noteNumber": 53,
        "velocity": 102
    },
    {
        "track": 1,
        "absoluteTick": 137160,
        "noteNumber": 58,
        "velocity": 102
    },
    {
        "track": 1,
        "absoluteTick": 137160,
        "noteNumber": 49,
        "velocity": 102
    },
    {
        "track": 0,
        "absoluteTick": 137280,
        "noteNumber": 70,
        "velocity": 102
    },
    {
        "track": 0,
        "absoluteTick": 137280,
        "noteNumber": 82,
        "velocity": 102
    },
    {
        "track": 1,
        "absoluteTick": 137280,
        "noteNumber": 46,
        "velocity": 102
    },
    {
        "track": 1,
        "absoluteTick": 137400,
        "noteNumber": 49,
        "velocity": 102
    },
    {
        "track": 1,
        "absoluteTick": 137400,
        "noteNumber": 53,
        "velocity": 102
    },
    {
        "track": 1,
        "absoluteTick": 137400,
        "noteNumber": 58,
        "velocity": 102
    },
    {
        "track": 1,
        "absoluteTick": 137520,
        "noteNumber": 46,
        "velocity": 103
    },
    {
        "track": 1,
        "absoluteTick": 137640,
        "noteNumber": 58,
        "velocity": 103
    },
    {
        "track": 1,
        "absoluteTick": 137640,
        "noteNumber": 49,
        "velocity": 103
    },
    {
        "track": 1,
        "absoluteTick": 137640,
        "noteNumber": 53,
        "velocity": 103
    },
    {
        "track": 1,
        "absoluteTick": 137760,
        "noteNumber": 46,
        "velocity": 103
    },
    {
        "track": 1,
        "absoluteTick": 137880,
        "noteNumber": 49,
        "velocity": 103
    },
    {
        "track": 1,
        "absoluteTick": 137880,
        "noteNumber": 58,
        "velocity": 103
    },
    {
        "track": 1,
        "absoluteTick": 137880,
        "noteNumber": 53,
        "velocity": 103
    },
    {
        "track": 1,
        "absoluteTick": 138000,
        "noteNumber": 46,
        "velocity": 103
    },
    {
        "track": 1,
        "absoluteTick": 138120,
        "noteNumber": 53,
        "velocity": 103
    },
    {
        "track": 1,
        "absoluteTick": 138120,
        "noteNumber": 49,
        "velocity": 103
    },
    {
        "track": 1,
        "absoluteTick": 138120,
        "noteNumber": 58,
        "velocity": 103
    },
    {
        "track": 0,
        "absoluteTick": 138240,
        "noteNumber": 72,
        "velocity": 104
    },
    {
        "track": 0,
        "absoluteTick": 138240,
        "noteNumber": 84,
        "velocity": 104
    },
    {
        "track": 1,
        "absoluteTick": 138240,
        "noteNumber": 48,
        "velocity": 104
    },
    {
        "track": 1,
        "absoluteTick": 138360,
        "noteNumber": 52,
        "velocity": 104
    },
    {
        "track": 1,
        "absoluteTick": 138360,
        "noteNumber": 60,
        "velocity": 104
    },
    {
        "track": 1,
        "absoluteTick": 138360,
        "noteNumber": 55,
        "velocity": 104
    },
    {
        "track": 1,
        "absoluteTick": 138480,
        "noteNumber": 48,
        "velocity": 104
    },
    {
        "track": 1,
        "absoluteTick": 138600,
        "noteNumber": 60,
        "velocity": 104
    },
    {
        "track": 1,
        "absoluteTick": 138600,
        "noteNumber": 55,
        "velocity": 104
    },
    {
        "track": 1,
        "absoluteTick": 138600,
        "noteNumber": 52,
        "velocity": 104
    },
    {
        "track": 0,
        "absoluteTick": 138720,
        "noteNumber": 70,
        "velocity": 104
    },
    {
        "track": 0,
        "absoluteTick": 138720,
        "noteNumber": 82,
        "velocity": 104
    },
    {
        "track": 1,
        "absoluteTick": 138720,
        "noteNumber": 48,
        "velocity": 104
    },
    {
        "track": 1,
        "absoluteTick": 138840,
        "noteNumber": 52,
        "velocity": 104
    },
    {
        "track": 1,
        "absoluteTick": 138840,
        "noteNumber": 60,
        "velocity": 104
    },
    {
        "track": 1,
        "absoluteTick": 138840,
        "noteNumber": 55,
        "velocity": 104
    },
    {
        "track": 1,
        "absoluteTick": 138960,
        "noteNumber": 48,
        "velocity": 105
    },
    {
        "track": 1,
        "absoluteTick": 139080,
        "noteNumber": 55,
        "velocity": 105
    },
    {
        "track": 1,
        "absoluteTick": 139080,
        "noteNumber": 60,
        "velocity": 105
    },
    {
        "track": 1,
        "absoluteTick": 139080,
        "noteNumber": 52,
        "velocity": 105
    },
    {
        "track": 0,
        "absoluteTick": 139200,
        "noteNumber": 72,
        "velocity": 105
    },
    {
        "track": 0,
        "absoluteTick": 139200,
        "noteNumber": 84,
        "velocity": 105
    },
    {
        "track": 1,
        "absoluteTick": 139200,
        "noteNumber": 48,
        "velocity": 105
    },
    {
        "track": 1,
        "absoluteTick": 139320,
        "noteNumber": 52,
        "velocity": 105
    },
    {
        "track": 1,
        "absoluteTick": 139320,
        "noteNumber": 55,
        "velocity": 105
    },
    {
        "track": 1,
        "absoluteTick": 139320,
        "noteNumber": 60,
        "velocity": 105
    },
    {
        "track": 1,
        "absoluteTick": 139440,
        "noteNumber": 48,
        "velocity": 105
    },
    {
        "track": 1,
        "absoluteTick": 139560,
        "noteNumber": 60,
        "velocity": 105
    },
    {
        "track": 1,
        "absoluteTick": 139560,
        "noteNumber": 52,
        "velocity": 105
    },
    {
        "track": 1,
        "absoluteTick": 139560,
        "noteNumber": 55,
        "velocity": 105
    },
    {
        "track": 0,
        "absoluteTick": 139680,
        "noteNumber": 76,
        "velocity": 106
    },
    {
        "track": 0,
        "absoluteTick": 139680,
        "noteNumber": 88,
        "velocity": 106
    },
    {
        "track": 1,
        "absoluteTick": 139680,
        "noteNumber": 48,
        "velocity": 106
    },
    {
        "track": 1,
        "absoluteTick": 139800,
        "noteNumber": 52,
        "velocity": 106
    },
    {
        "track": 1,
        "absoluteTick": 139800,
        "noteNumber": 60,
        "velocity": 106
    },
    {
        "track": 1,
        "absoluteTick": 139800,
        "noteNumber": 55,
        "velocity": 106
    },
    {
        "track": 1,
        "absoluteTick": 139920,
        "noteNumber": 48,
        "velocity": 106
    },
    {
        "track": 1,
        "absoluteTick": 140040,
        "noteNumber": 55,
        "velocity": 106
    },
    {
        "track": 1,
        "absoluteTick": 140040,
        "noteNumber": 52,
        "velocity": 106
    },
    {
        "track": 1,
        "absoluteTick": 140040,
        "noteNumber": 60,
        "velocity": 106
    },
    {
        "track": 0,
        "absoluteTick": 140160,
        "noteNumber": 77,
        "velocity": 106
    },
    {
        "track": 0,
        "absoluteTick": 140160,
        "noteNumber": 89,
        "velocity": 106
    },
    {
        "track": 1,
        "absoluteTick": 140160,
        "noteNumber": 44,
        "velocity": 106
    },
    {
        "track": 1,
        "absoluteTick": 140280,
        "noteNumber": 48,
        "velocity": 106
    },
    {
        "track": 1,
        "absoluteTick": 140280,
        "noteNumber": 56,
        "velocity": 106
    },
    {
        "track": 1,
        "absoluteTick": 140280,
        "noteNumber": 53,
        "velocity": 106
    },
    {
        "track": 1,
        "absoluteTick": 140400,
        "noteNumber": 44,
        "velocity": 107
    },
    {
        "track": 1,
        "absoluteTick": 140520,
        "noteNumber": 56,
        "velocity": 107
    },
    {
        "track": 1,
        "absoluteTick": 140520,
        "noteNumber": 53,
        "velocity": 107
    },
    {
        "track": 1,
        "absoluteTick": 140520,
        "noteNumber": 48,
        "velocity": 107
    },
    {
        "track": 1,
        "absoluteTick": 140640,
        "noteNumber": 44,
        "velocity": 107
    },
    {
        "track": 1,
        "absoluteTick": 140760,
        "noteNumber": 48,
        "velocity": 107
    },
    {
        "track": 1,
        "absoluteTick": 140760,
        "noteNumber": 56,
        "velocity": 107
    },
    {
        "track": 1,
        "absoluteTick": 140760,
        "noteNumber": 53,
        "velocity": 107
    },
    {
        "track": 1,
        "absoluteTick": 140880,
        "noteNumber": 44,
        "velocity": 107
    },
    {
        "track": 1,
        "absoluteTick": 141000,
        "noteNumber": 53,
        "velocity": 107
    },
    {
        "track": 1,
        "absoluteTick": 141000,
        "noteNumber": 56,
        "velocity": 107
    },
    {
        "track": 1,
        "absoluteTick": 141000,
        "noteNumber": 48,
        "velocity": 107
    },
    {
        "track": 0,
        "absoluteTick": 141120,
        "noteNumber": 73,
        "velocity": 108
    },
    {
        "track": 0,
        "absoluteTick": 141120,
        "noteNumber": 85,
        "velocity": 108
    },
    {
        "track": 1,
        "absoluteTick": 141120,
        "noteNumber": 44,
        "velocity": 108
    },
    {
        "track": 1,
        "absoluteTick": 141240,
        "noteNumber": 48,
        "velocity": 108
    },
    {
        "track": 1,
        "absoluteTick": 141240,
        "noteNumber": 53,
        "velocity": 108
    },
    {
        "track": 1,
        "absoluteTick": 141240,
        "noteNumber": 56,
        "velocity": 108
    },
    {
        "track": 1,
        "absoluteTick": 141360,
        "noteNumber": 44,
        "velocity": 108
    },
    {
        "track": 1,
        "absoluteTick": 141480,
        "noteNumber": 56,
        "velocity": 108
    },
    {
        "track": 1,
        "absoluteTick": 141480,
        "noteNumber": 48,
        "velocity": 108
    },
    {
        "track": 1,
        "absoluteTick": 141480,
        "noteNumber": 53,
        "velocity": 108
    },
    {
        "track": 1,
        "absoluteTick": 141600,
        "noteNumber": 44,
        "velocity": 108
    },
    {
        "track": 1,
        "absoluteTick": 141720,
        "noteNumber": 48,
        "velocity": 108
    },
    {
        "track": 1,
        "absoluteTick": 141720,
        "noteNumber": 56,
        "velocity": 108
    },
    {
        "track": 1,
        "absoluteTick": 141720,
        "noteNumber": 53,
        "velocity": 108
    },
    {
        "track": 1,
        "absoluteTick": 141840,
        "noteNumber": 44,
        "velocity": 109
    },
    {
        "track": 1,
        "absoluteTick": 141960,
        "noteNumber": 53,
        "velocity": 109
    },
    {
        "track": 1,
        "absoluteTick": 141960,
        "noteNumber": 48,
        "velocity": 109
    },
    {
        "track": 1,
        "absoluteTick": 141960,
        "noteNumber": 56,
        "velocity": 109
    },
    {
        "track": 0,
        "absoluteTick": 142080,
        "noteNumber": 76,
        "velocity": 109
    },
    {
        "track": 0,
        "absoluteTick": 142080,
        "noteNumber": 88,
        "velocity": 109
    },
    {
        "track": 1,
        "absoluteTick": 142080,
        "noteNumber": 43,
        "velocity": 109
    },
    {
        "track": 1,
        "absoluteTick": 142200,
        "noteNumber": 48,
        "velocity": 109
    },
    {
        "track": 1,
        "absoluteTick": 142200,
        "noteNumber": 55,
        "velocity": 109
    },
    {
        "track": 1,
        "absoluteTick": 142200,
        "noteNumber": 52,
        "velocity": 109
    },
    {
        "track": 1,
        "absoluteTick": 142320,
        "noteNumber": 43,
        "velocity": 109
    },
    {
        "track": 1,
        "absoluteTick": 142440,
        "noteNumber": 55,
        "velocity": 109
    },
    {
        "track": 1,
        "absoluteTick": 142440,
        "noteNumber": 52,
        "velocity": 109
    },
    {
        "track": 1,
        "absoluteTick": 142440,
        "noteNumber": 48,
        "velocity": 109
    },
    {
        "track": 0,
        "absoluteTick": 142560,
        "noteNumber": 74,
        "velocity": 110
    },
    {
        "track": 0,
        "absoluteTick": 142560,
        "noteNumber": 86,
        "velocity": 110
    },
    {
        "track": 1,
        "absoluteTick": 142560,
        "noteNumber": 43,
        "velocity": 110
    },
    {
        "track": 1,
        "absoluteTick": 142680,
        "noteNumber": 48,
        "velocity": 110
    },
    {
        "track": 1,
        "absoluteTick": 142680,
        "noteNumber": 55,
        "velocity": 110
    },
    {
        "track": 1,
        "absoluteTick": 142680,
        "noteNumber": 52,
        "velocity": 110
    },
    {
        "track": 1,
        "absoluteTick": 142800,
        "noteNumber": 43,
        "velocity": 110
    },
    {
        "track": 1,
        "absoluteTick": 142920,
        "noteNumber": 52,
        "velocity": 110
    },
    {
        "track": 1,
        "absoluteTick": 142920,
        "noteNumber": 55,
        "velocity": 110
    },
    {
        "track": 1,
        "absoluteTick": 142920,
        "noteNumber": 48,
        "velocity": 110
    },
    {
        "track": 0,
        "absoluteTick": 143040,
        "noteNumber": 76,
        "velocity": 110
    },
    {
        "track": 0,
        "absoluteTick": 143040,
        "noteNumber": 88,
        "velocity": 110
    },
    {
        "track": 1,
        "absoluteTick": 143040,
        "noteNumber": 43,
        "velocity": 110
    },
    {
        "track": 1,
        "absoluteTick": 143160,
        "noteNumber": 48,
        "velocity": 110
    },
    {
        "track": 1,
        "absoluteTick": 143160,
        "noteNumber": 52,
        "velocity": 110
    },
    {
        "track": 1,
        "absoluteTick": 143160,
        "noteNumber": 55,
        "velocity": 110
    },
    {
        "track": 1,
        "absoluteTick": 143280,
        "noteNumber": 43,
        "velocity": 111
    },
    {
        "track": 1,
        "absoluteTick": 143400,
        "noteNumber": 55,
        "velocity": 111
    },
    {
        "track": 1,
        "absoluteTick": 143400,
        "noteNumber": 48,
        "velocity": 111
    },
    {
        "track": 1,
        "absoluteTick": 143400,
        "noteNumber": 52,
        "velocity": 111
    },
    {
        "track": 0,
        "absoluteTick": 143520,
        "noteNumber": 72,
        "velocity": 111
    },
    {
        "track": 0,
        "absoluteTick": 143520,
        "noteNumber": 84,
        "velocity": 111
    },
    {
        "track": 1,
        "absoluteTick": 143520,
        "noteNumber": 43,
        "velocity": 111
    },
    {
        "track": 1,
        "absoluteTick": 143640,
        "noteNumber": 48,
        "velocity": 111
    },
    {
        "track": 1,
        "absoluteTick": 143640,
        "noteNumber": 55,
        "velocity": 111
    },
    {
        "track": 1,
        "absoluteTick": 143640,
        "noteNumber": 52,
        "velocity": 111
    },
    {
        "track": 1,
        "absoluteTick": 143760,
        "noteNumber": 43,
        "velocity": 111
    },
    {
        "track": 1,
        "absoluteTick": 143880,
        "noteNumber": 52,
        "velocity": 111
    },
    {
        "track": 1,
        "absoluteTick": 143880,
        "noteNumber": 48,
        "velocity": 111
    },
    {
        "track": 1,
        "absoluteTick": 143880,
        "noteNumber": 55,
        "velocity": 111
    },
    {
        "track": 0,
        "absoluteTick": 144000,
        "noteNumber": 77,
        "velocity": 112
    },
    {
        "track": 0,
        "absoluteTick": 144000,
        "noteNumber": 79,
        "velocity": 112
    },
    {
        "track": 1,
        "absoluteTick": 144000,
        "noteNumber": 48,
        "velocity": 112
    },
    {
        "track": 0,
        "absoluteTick": 144120,
        "noteNumber": 84,
        "velocity": 112
    },
    {
        "track": 0,
        "absoluteTick": 144120,
        "noteNumber": 89,
        "velocity": 112
    },
    {
        "track": 1,
        "absoluteTick": 144120,
        "noteNumber": 53,
        "velocity": 112
    },
    {
        "track": 1,
        "absoluteTick": 144120,
        "noteNumber": 55,
        "velocity": 112
    },
    {
        "track": 0,
        "absoluteTick": 144240,
        "noteNumber": 77,
        "velocity": 112
    },
    {
        "track": 0,
        "absoluteTick": 144240,
        "noteNumber": 79,
        "velocity": 112
    },
    {
        "track": 1,
        "absoluteTick": 144240,
        "noteNumber": 48,
        "velocity": 112
    },
    {
        "track": 0,
        "absoluteTick": 144360,
        "noteNumber": 84,
        "velocity": 112
    },
    {
        "track": 0,
        "absoluteTick": 144360,
        "noteNumber": 89,
        "velocity": 112
    },
    {
        "track": 1,
        "absoluteTick": 144360,
        "noteNumber": 53,
        "velocity": 112
    },
    {
        "track": 1,
        "absoluteTick": 144360,
        "noteNumber": 55,
        "velocity": 112
    },
    {
        "track": 0,
        "absoluteTick": 144480,
        "noteNumber": 77,
        "velocity": 112
    },
    {
        "track": 0,
        "absoluteTick": 144480,
        "noteNumber": 79,
        "velocity": 112
    },
    {
        "track": 1,
        "absoluteTick": 144480,
        "noteNumber": 48,
        "velocity": 112
    },
    {
        "track": 0,
        "absoluteTick": 144600,
        "noteNumber": 84,
        "velocity": 112
    },
    {
        "track": 0,
        "absoluteTick": 144600,
        "noteNumber": 89,
        "velocity": 112
    },
    {
        "track": 1,
        "absoluteTick": 144600,
        "noteNumber": 55,
        "velocity": 112
    },
    {
        "track": 1,
        "absoluteTick": 144600,
        "noteNumber": 53,
        "velocity": 112
    },
    {
        "track": 0,
        "absoluteTick": 144720,
        "noteNumber": 77,
        "velocity": 112
    },
    {
        "track": 0,
        "absoluteTick": 144720,
        "noteNumber": 79,
        "velocity": 112
    },
    {
        "track": 1,
        "absoluteTick": 144720,
        "noteNumber": 48,
        "velocity": 112
    },
    {
        "track": 0,
        "absoluteTick": 144840,
        "noteNumber": 84,
        "velocity": 112
    },
    {
        "track": 0,
        "absoluteTick": 144840,
        "noteNumber": 89,
        "velocity": 112
    },
    {
        "track": 1,
        "absoluteTick": 144840,
        "noteNumber": 53,
        "velocity": 112
    },
    {
        "track": 1,
        "absoluteTick": 144840,
        "noteNumber": 55,
        "velocity": 112
    },
    {
        "track": 0,
        "absoluteTick": 144960,
        "noteNumber": 77,
        "velocity": 112
    },
    {
        "track": 0,
        "absoluteTick": 144960,
        "noteNumber": 79,
        "velocity": 112
    },
    {
        "track": 1,
        "absoluteTick": 144960,
        "noteNumber": 48,
        "velocity": 112
    },
    {
        "track": 0,
        "absoluteTick": 145080,
        "noteNumber": 84,
        "velocity": 112
    },
    {
        "track": 0,
        "absoluteTick": 145080,
        "noteNumber": 89,
        "velocity": 112
    },
    {
        "track": 1,
        "absoluteTick": 145080,
        "noteNumber": 53,
        "velocity": 112
    },
    {
        "track": 1,
        "absoluteTick": 145080,
        "noteNumber": 55,
        "velocity": 112
    },
    {
        "track": 0,
        "absoluteTick": 145200,
        "noteNumber": 77,
        "velocity": 112
    },
    {
        "track": 0,
        "absoluteTick": 145200,
        "noteNumber": 79,
        "velocity": 112
    },
    {
        "track": 1,
        "absoluteTick": 145200,
        "noteNumber": 48,
        "velocity": 112
    },
    {
        "track": 0,
        "absoluteTick": 145320,
        "noteNumber": 84,
        "velocity": 112
    },
    {
        "track": 0,
        "absoluteTick": 145320,
        "noteNumber": 89,
        "velocity": 112
    },
    {
        "track": 1,
        "absoluteTick": 145320,
        "noteNumber": 53,
        "velocity": 112
    },
    {
        "track": 1,
        "absoluteTick": 145320,
        "noteNumber": 55,
        "velocity": 112
    },
    {
        "track": 0,
        "absoluteTick": 145440,
        "noteNumber": 77,
        "velocity": 112
    },
    {
        "track": 0,
        "absoluteTick": 145440,
        "noteNumber": 79,
        "velocity": 112
    },
    {
        "track": 1,
        "absoluteTick": 145440,
        "noteNumber": 48,
        "velocity": 112
    },
    {
        "track": 0,
        "absoluteTick": 145560,
        "noteNumber": 84,
        "velocity": 112
    },
    {
        "track": 0,
        "absoluteTick": 145560,
        "noteNumber": 89,
        "velocity": 112
    },
    {
        "track": 1,
        "absoluteTick": 145560,
        "noteNumber": 53,
        "velocity": 112
    },
    {
        "track": 1,
        "absoluteTick": 145560,
        "noteNumber": 55,
        "velocity": 112
    },
    {
        "track": 0,
        "absoluteTick": 145680,
        "noteNumber": 77,
        "velocity": 112
    },
    {
        "track": 0,
        "absoluteTick": 145680,
        "noteNumber": 79,
        "velocity": 112
    },
    {
        "track": 1,
        "absoluteTick": 145680,
        "noteNumber": 48,
        "velocity": 112
    },
    {
        "track": 0,
        "absoluteTick": 145800,
        "noteNumber": 84,
        "velocity": 112
    },
    {
        "track": 0,
        "absoluteTick": 145800,
        "noteNumber": 89,
        "velocity": 112
    },
    {
        "track": 1,
        "absoluteTick": 145800,
        "noteNumber": 53,
        "velocity": 112
    },
    {
        "track": 1,
        "absoluteTick": 145800,
        "noteNumber": 55,
        "velocity": 112
    },
    {
        "track": 0,
        "absoluteTick": 145920,
        "noteNumber": 77,
        "velocity": 112
    },
    {
        "track": 0,
        "absoluteTick": 145920,
        "noteNumber": 79,
        "velocity": 112
    },
    {
        "track": 1,
        "absoluteTick": 145920,
        "noteNumber": 48,
        "velocity": 112
    },
    {
        "track": 0,
        "absoluteTick": 146040,
        "noteNumber": 84,
        "velocity": 112
    },
    {
        "track": 0,
        "absoluteTick": 146040,
        "noteNumber": 89,
        "velocity": 112
    },
    {
        "track": 1,
        "absoluteTick": 146040,
        "noteNumber": 53,
        "velocity": 112
    },
    {
        "track": 1,
        "absoluteTick": 146040,
        "noteNumber": 55,
        "velocity": 112
    },
    {
        "track": 0,
        "absoluteTick": 146160,
        "noteNumber": 77,
        "velocity": 112
    },
    {
        "track": 0,
        "absoluteTick": 146160,
        "noteNumber": 79,
        "velocity": 112
    },
    {
        "track": 1,
        "absoluteTick": 146160,
        "noteNumber": 48,
        "velocity": 112
    },
    {
        "track": 0,
        "absoluteTick": 146280,
        "noteNumber": 84,
        "velocity": 112
    },
    {
        "track": 0,
        "absoluteTick": 146280,
        "noteNumber": 89,
        "velocity": 112
    },
    {
        "track": 1,
        "absoluteTick": 146280,
        "noteNumber": 53,
        "velocity": 112
    },
    {
        "track": 1,
        "absoluteTick": 146280,
        "noteNumber": 55,
        "velocity": 112
    },
    {
        "track": 0,
        "absoluteTick": 146400,
        "noteNumber": 77,
        "velocity": 112
    },
    {
        "track": 0,
        "absoluteTick": 146400,
        "noteNumber": 79,
        "velocity": 112
    },
    {
        "track": 1,
        "absoluteTick": 146400,
        "noteNumber": 48,
        "velocity": 112
    },
    {
        "track": 0,
        "absoluteTick": 146520,
        "noteNumber": 84,
        "velocity": 112
    },
    {
        "track": 0,
        "absoluteTick": 146520,
        "noteNumber": 89,
        "velocity": 112
    },
    {
        "track": 1,
        "absoluteTick": 146520,
        "noteNumber": 55,
        "velocity": 112
    },
    {
        "track": 1,
        "absoluteTick": 146520,
        "noteNumber": 53,
        "velocity": 112
    },
    {
        "track": 0,
        "absoluteTick": 146640,
        "noteNumber": 77,
        "velocity": 112
    },
    {
        "track": 0,
        "absoluteTick": 146640,
        "noteNumber": 79,
        "velocity": 112
    },
    {
        "track": 1,
        "absoluteTick": 146640,
        "noteNumber": 48,
        "velocity": 112
    },
    {
        "track": 0,
        "absoluteTick": 146760,
        "noteNumber": 84,
        "velocity": 112
    },
    {
        "track": 0,
        "absoluteTick": 146760,
        "noteNumber": 89,
        "velocity": 112
    },
    {
        "track": 1,
        "absoluteTick": 146760,
        "noteNumber": 53,
        "velocity": 112
    },
    {
        "track": 1,
        "absoluteTick": 146760,
        "noteNumber": 55,
        "velocity": 112
    },
    {
        "track": 0,
        "absoluteTick": 146880,
        "noteNumber": 79,
        "velocity": 112
    },
    {
        "track": 0,
        "absoluteTick": 146880,
        "noteNumber": 91,
        "velocity": 112
    },
    {
        "track": 1,
        "absoluteTick": 146880,
        "noteNumber": 48,
        "velocity": 112
    },
    {
        "track": 1,
        "absoluteTick": 147000,
        "noteNumber": 53,
        "velocity": 112
    },
    {
        "track": 1,
        "absoluteTick": 147000,
        "noteNumber": 55,
        "velocity": 112
    },
    {
        "track": 1,
        "absoluteTick": 147120,
        "noteNumber": 48,
        "velocity": 112
    },
    {
        "track": 1,
        "absoluteTick": 147240,
        "noteNumber": 53,
        "velocity": 112
    },
    {
        "track": 1,
        "absoluteTick": 147240,
        "noteNumber": 55,
        "velocity": 112
    },
    {
        "track": 1,
        "absoluteTick": 147360,
        "noteNumber": 48,
        "velocity": 112
    },
    {
        "track": 1,
        "absoluteTick": 147480,
        "noteNumber": 53,
        "velocity": 112
    },
    {
        "track": 1,
        "absoluteTick": 147480,
        "noteNumber": 55,
        "velocity": 112
    },
    {
        "track": 1,
        "absoluteTick": 147600,
        "noteNumber": 48,
        "velocity": 112
    },
    {
        "track": 1,
        "absoluteTick": 147720,
        "noteNumber": 53,
        "velocity": 112
    },
    {
        "track": 1,
        "absoluteTick": 147720,
        "noteNumber": 55,
        "velocity": 112
    },
    {
        "track": 0,
        "absoluteTick": 147840,
        "noteNumber": 84,
        "velocity": 112
    },
    {
        "track": 1,
        "absoluteTick": 147840,
        "noteNumber": 48,
        "velocity": 112
    },
    {
        "track": 1,
        "absoluteTick": 147840,
        "noteNumber": 52,
        "velocity": 112
    },
    {
        "track": 1,
        "absoluteTick": 147840,
        "noteNumber": 55,
        "velocity": 112
    },
    {
        "track": 1,
        "absoluteTick": 147840,
        "noteNumber": 60,
        "velocity": 112
    },
    {
        "track": 0,
        "absoluteTick": 147947,
        "noteNumber": 89,
        "velocity": 112
    },
    {
        "track": 0,
        "absoluteTick": 148053,
        "noteNumber": 91,
        "velocity": 112
    },
    {
        "track": 0,
        "absoluteTick": 148160,
        "noteNumber": 96,
        "velocity": 112
    },
    {
        "track": 0,
        "absoluteTick": 148267,
        "noteNumber": 91,
        "velocity": 112
    },
    {
        "track": 0,
        "absoluteTick": 148373,
        "noteNumber": 89,
        "velocity": 112
    },
    {
        "track": 0,
        "absoluteTick": 148480,
        "noteNumber": 84,
        "velocity": 112
    },
    {
        "track": 0,
        "absoluteTick": 148587,
        "noteNumber": 88,
        "velocity": 112
    },
    {
        "track": 0,
        "absoluteTick": 148693,
        "noteNumber": 84,
        "velocity": 112
    },
    {
        "track": 0,
        "absoluteTick": 148800,
        "noteNumber": 79,
        "velocity": 112
    },
    {
        "track": 0,
        "absoluteTick": 148907,
        "noteNumber": 84,
        "velocity": 112
    },
    {
        "track": 0,
        "absoluteTick": 149013,
        "noteNumber": 88,
        "velocity": 112
    },
    {
        "track": 0,
        "absoluteTick": 149120,
        "noteNumber": 91,
        "velocity": 112
    },
    {
        "track": 0,
        "absoluteTick": 149227,
        "noteNumber": 88,
        "velocity": 112
    },
    {
        "track": 0,
        "absoluteTick": 149333,
        "noteNumber": 84,
        "velocity": 112
    },
    {
        "track": 0,
        "absoluteTick": 149440,
        "noteNumber": 79,
        "velocity": 112
    },
    {
        "track": 0,
        "absoluteTick": 149547,
        "noteNumber": 79,
        "velocity": 112
    },
    {
        "track": 0,
        "absoluteTick": 149653,
        "noteNumber": 77,
        "velocity": 112
    },
    {
        "track": 0,
        "absoluteTick": 149760,
        "noteNumber": 72,
        "velocity": 112
    },
    {
        "track": 0,
        "absoluteTick": 149867,
        "noteNumber": 77,
        "velocity": 112
    },
    {
        "track": 0,
        "absoluteTick": 149973,
        "noteNumber": 79,
        "velocity": 111
    },
    {
        "track": 0,
        "absoluteTick": 150080,
        "noteNumber": 84,
        "velocity": 110
    },
    {
        "track": 0,
        "absoluteTick": 150187,
        "noteNumber": 79,
        "velocity": 109
    },
    {
        "track": 0,
        "absoluteTick": 150293,
        "noteNumber": 77,
        "velocity": 108
    },
    {
        "track": 0,
        "absoluteTick": 150400,
        "noteNumber": 72,
        "velocity": 107
    },
    {
        "track": 0,
        "absoluteTick": 150507,
        "noteNumber": 76,
        "velocity": 106
    },
    {
        "track": 0,
        "absoluteTick": 150613,
        "noteNumber": 72,
        "velocity": 105
    },
    {
        "track": 0,
        "absoluteTick": 150720,
        "noteNumber": 67,
        "velocity": 104
    },
    {
        "track": 0,
        "absoluteTick": 150827,
        "noteNumber": 72,
        "velocity": 103
    },
    {
        "track": 0,
        "absoluteTick": 150933,
        "noteNumber": 76,
        "velocity": 102
    },
    {
        "track": 0,
        "absoluteTick": 151040,
        "noteNumber": 79,
        "velocity": 101
    },
    {
        "track": 0,
        "absoluteTick": 151147,
        "noteNumber": 76,
        "velocity": 100
    },
    {
        "track": 0,
        "absoluteTick": 151253,
        "noteNumber": 72,
        "velocity": 99
    },
    {
        "track": 0,
        "absoluteTick": 151360,
        "noteNumber": 67,
        "velocity": 98
    },
    {
        "track": 0,
        "absoluteTick": 151467,
        "noteNumber": 67,
        "velocity": 97
    },
    {
        "track": 0,
        "absoluteTick": 151573,
        "noteNumber": 65,
        "velocity": 96
    },
    {
        "track": 0,
        "absoluteTick": 151680,
        "noteNumber": 65,
        "velocity": 96
    },
    {
        "track": 0,
        "absoluteTick": 151680,
        "noteNumber": 77,
        "velocity": 96
    },
    {
        "track": 1,
        "absoluteTick": 151680,
        "noteNumber": 41,
        "velocity": 96
    },
    {
        "track": 1,
        "absoluteTick": 151680,
        "noteNumber": 53,
        "velocity": 96
    },
    {
        "track": 0,
        "absoluteTick": 151920,
        "noteNumber": 65,
        "velocity": 96
    },
    {
        "track": 0,
        "absoluteTick": 151920,
        "noteNumber": 77,
        "velocity": 96
    },
    {
        "track": 1,
        "absoluteTick": 151920,
        "noteNumber": 41,
        "velocity": 96
    },
    {
        "track": 1,
        "absoluteTick": 151920,
        "noteNumber": 53,
        "velocity": 96
    },
    {
        "track": 1,
        "absoluteTick": 152160,
        "noteNumber": 51,
        "velocity": 96
    },
    {
        "track": 1,
        "absoluteTick": 152160,
        "noteNumber": 63,
        "velocity": 96
    },
    {
        "track": 1,
        "absoluteTick": 152400,
        "noteNumber": 48,
        "velocity": 96
    },
    {
        "track": 1,
        "absoluteTick": 152400,
        "noteNumber": 60,
        "velocity": 96
    },
    {
        "track": 1,
        "absoluteTick": 152640,
        "noteNumber": 49,
        "velocity": 96
    },
    {
        "track": 1,
        "absoluteTick": 152640,
        "noteNumber": 61,
        "velocity": 96
    },
    {
        "track": 1,
        "absoluteTick": 152880,
        "noteNumber": 51,
        "velocity": 96
    },
    {
        "track": 1,
        "absoluteTick": 152880,
        "noteNumber": 63,
        "velocity": 96
    },
    {
        "track": 1,
        "absoluteTick": 153120,
        "noteNumber": 49,
        "velocity": 96
    },
    {
        "track": 1,
        "absoluteTick": 153120,
        "noteNumber": 61,
        "velocity": 96
    },
    {
        "track": 1,
        "absoluteTick": 153360,
        "noteNumber": 48,
        "velocity": 96
    },
    {
        "track": 1,
        "absoluteTick": 153360,
        "noteNumber": 60,
        "velocity": 96
    },
    {
        "track": 0,
        "absoluteTick": 153600,
        "noteNumber": 77,
        "velocity": 96
    },
    {
        "track": 0,
        "absoluteTick": 153600,
        "noteNumber": 89,
        "velocity": 96
    },
    {
        "track": 1,
        "absoluteTick": 153600,
        "noteNumber": 41,
        "velocity": 96
    },
    {
        "track": 1,
        "absoluteTick": 153600,
        "noteNumber": 53,
        "velocity": 96
    },
    {
        "track": 0,
        "absoluteTick": 153840,
        "noteNumber": 77,
        "velocity": 96
    },
    {
        "track": 0,
        "absoluteTick": 153840,
        "noteNumber": 89,
        "velocity": 96
    },
    {
        "track": 1,
        "absoluteTick": 153840,
        "noteNumber": 41,
        "velocity": 96
    },
    {
        "track": 1,
        "absoluteTick": 153840,
        "noteNumber": 53,
        "velocity": 96
    },
    {
        "track": 1,
        "absoluteTick": 154080,
        "noteNumber": 51,
        "velocity": 96
    },
    {
        "track": 1,
        "absoluteTick": 154080,
        "noteNumber": 63,
        "velocity": 96
    },
    {
        "track": 1,
        "absoluteTick": 154320,
        "noteNumber": 48,
        "velocity": 96
    },
    {
        "track": 1,
        "absoluteTick": 154320,
        "noteNumber": 60,
        "velocity": 96
    },
    {
        "track": 1,
        "absoluteTick": 154560,
        "noteNumber": 49,
        "velocity": 96
    },
    {
        "track": 1,
        "absoluteTick": 154560,
        "noteNumber": 61,
        "velocity": 96
    },
    {
        "track": 1,
        "absoluteTick": 154800,
        "noteNumber": 51,
        "velocity": 96
    },
    {
        "track": 1,
        "absoluteTick": 154800,
        "noteNumber": 63,
        "velocity": 96
    },
    {
        "track": 1,
        "absoluteTick": 155040,
        "noteNumber": 49,
        "velocity": 96
    },
    {
        "track": 1,
        "absoluteTick": 155040,
        "noteNumber": 61,
        "velocity": 96
    },
    {
        "track": 1,
        "absoluteTick": 155280,
        "noteNumber": 48,
        "velocity": 96
    },
    {
        "track": 1,
        "absoluteTick": 155280,
        "noteNumber": 60,
        "velocity": 96
    },
    {
        "track": 0,
        "absoluteTick": 155520,
        "noteNumber": 77,
        "velocity": 112
    },
    {
        "track": 0,
        "absoluteTick": 155520,
        "noteNumber": 89,
        "velocity": 112
    },
    {
        "track": 1,
        "absoluteTick": 155520,
        "noteNumber": 41,
        "velocity": 112
    },
    {
        "track": 1,
        "absoluteTick": 155520,
        "noteNumber": 53,
        "velocity": 112
    },
    {
        "track": 0,
        "absoluteTick": 155760,
        "noteNumber": 77,
        "velocity": 112
    },
    {
        "track": 0,
        "absoluteTick": 155760,
        "noteNumber": 89,
        "velocity": 112
    },
    {
        "track": 1,
        "absoluteTick": 155760,
        "noteNumber": 41,
        "velocity": 112
    },
    {
        "track": 1,
        "absoluteTick": 155760,
        "noteNumber": 53,
        "velocity": 112
    },
    {
        "track": 0,
        "absoluteTick": 156000,
        "noteNumber": 75,
        "velocity": 112
    },
    {
        "track": 0,
        "absoluteTick": 156000,
        "noteNumber": 87,
        "velocity": 112
    },
    {
        "track": 1,
        "absoluteTick": 156000,
        "noteNumber": 39,
        "velocity": 112
    },
    {
        "track": 1,
        "absoluteTick": 156000,
        "noteNumber": 51,
        "velocity": 112
    },
    {
        "track": 0,
        "absoluteTick": 156240,
        "noteNumber": 72,
        "velocity": 112
    },
    {
        "track": 0,
        "absoluteTick": 156240,
        "noteNumber": 84,
        "velocity": 112
    },
    {
        "track": 1,
        "absoluteTick": 156240,
        "noteNumber": 36,
        "velocity": 112
    },
    {
        "track": 1,
        "absoluteTick": 156240,
        "noteNumber": 48,
        "velocity": 112
    },
    {
        "track": 0,
        "absoluteTick": 156480,
        "noteNumber": 73,
        "velocity": 112
    },
    {
        "track": 0,
        "absoluteTick": 156480,
        "noteNumber": 85,
        "velocity": 112
    },
    {
        "track": 1,
        "absoluteTick": 156480,
        "noteNumber": 37,
        "velocity": 112
    },
    {
        "track": 1,
        "absoluteTick": 156480,
        "noteNumber": 49,
        "velocity": 112
    },
    {
        "track": 0,
        "absoluteTick": 156720,
        "noteNumber": 75,
        "velocity": 112
    },
    {
        "track": 0,
        "absoluteTick": 156720,
        "noteNumber": 87,
        "velocity": 112
    },
    {
        "track": 1,
        "absoluteTick": 156720,
        "noteNumber": 39,
        "velocity": 112
    },
    {
        "track": 1,
        "absoluteTick": 156720,
        "noteNumber": 51,
        "velocity": 112
    },
    {
        "track": 0,
        "absoluteTick": 156960,
        "noteNumber": 73,
        "velocity": 112
    },
    {
        "track": 0,
        "absoluteTick": 156960,
        "noteNumber": 85,
        "velocity": 112
    },
    {
        "track": 1,
        "absoluteTick": 156960,
        "noteNumber": 37,
        "velocity": 112
    },
    {
        "track": 1,
        "absoluteTick": 156960,
        "noteNumber": 49,
        "velocity": 112
    },
    {
        "track": 0,
        "absoluteTick": 157200,
        "noteNumber": 72,
        "velocity": 112
    },
    {
        "track": 0,
        "absoluteTick": 157200,
        "noteNumber": 84,
        "velocity": 112
    },
    {
        "track": 1,
        "absoluteTick": 157200,
        "noteNumber": 36,
        "velocity": 112
    },
    {
        "track": 1,
        "absoluteTick": 157200,
        "noteNumber": 48,
        "velocity": 112
    },
    {
        "track": 0,
        "absoluteTick": 157440,
        "noteNumber": 71,
        "velocity": 112
    },
    {
        "track": 0,
        "absoluteTick": 157440,
        "noteNumber": 83,
        "velocity": 112
    },
    {
        "track": 1,
        "absoluteTick": 157440,
        "noteNumber": 35,
        "velocity": 112
    },
    {
        "track": 1,
        "absoluteTick": 157440,
        "noteNumber": 47,
        "velocity": 112
    },
    {
        "track": 0,
        "absoluteTick": 157680,
        "noteNumber": 72,
        "velocity": 112
    },
    {
        "track": 0,
        "absoluteTick": 157680,
        "noteNumber": 84,
        "velocity": 112
    },
    {
        "track": 1,
        "absoluteTick": 157680,
        "noteNumber": 36,
        "velocity": 112
    },
    {
        "track": 1,
        "absoluteTick": 157680,
        "noteNumber": 48,
        "velocity": 112
    },
    {
        "track": 0,
        "absoluteTick": 157920,
        "noteNumber": 71,
        "velocity": 112
    },
    {
        "track": 0,
        "absoluteTick": 157920,
        "noteNumber": 83,
        "velocity": 112
    },
    {
        "track": 1,
        "absoluteTick": 157920,
        "noteNumber": 35,
        "velocity": 112
    },
    {
        "track": 1,
        "absoluteTick": 157920,
        "noteNumber": 47,
        "velocity": 112
    },
    {
        "track": 0,
        "absoluteTick": 158160,
        "noteNumber": 70,
        "velocity": 112
    },
    {
        "track": 0,
        "absoluteTick": 158160,
        "noteNumber": 82,
        "velocity": 112
    },
    {
        "track": 1,
        "absoluteTick": 158160,
        "noteNumber": 34,
        "velocity": 112
    },
    {
        "track": 1,
        "absoluteTick": 158160,
        "noteNumber": 46,
        "velocity": 112
    },
    {
        "track": 0,
        "absoluteTick": 158400,
        "noteNumber": 69,
        "velocity": 112
    },
    {
        "track": 0,
        "absoluteTick": 158400,
        "noteNumber": 81,
        "velocity": 112
    },
    {
        "track": 1,
        "absoluteTick": 158400,
        "noteNumber": 33,
        "velocity": 112
    },
    {
        "track": 1,
        "absoluteTick": 158400,
        "noteNumber": 45,
        "velocity": 112
    },
    {
        "track": 0,
        "absoluteTick": 158640,
        "noteNumber": 70,
        "velocity": 112
    },
    {
        "track": 0,
        "absoluteTick": 158640,
        "noteNumber": 82,
        "velocity": 112
    },
    {
        "track": 1,
        "absoluteTick": 158640,
        "noteNumber": 34,
        "velocity": 112
    },
    {
        "track": 1,
        "absoluteTick": 158640,
        "noteNumber": 46,
        "velocity": 112
    },
    {
        "track": 0,
        "absoluteTick": 158880,
        "noteNumber": 69,
        "velocity": 112
    },
    {
        "track": 0,
        "absoluteTick": 158880,
        "noteNumber": 81,
        "velocity": 112
    },
    {
        "track": 1,
        "absoluteTick": 158880,
        "noteNumber": 33,
        "velocity": 112
    },
    {
        "track": 1,
        "absoluteTick": 158880,
        "noteNumber": 45,
        "velocity": 112
    },
    {
        "track": 0,
        "absoluteTick": 159120,
        "noteNumber": 66,
        "velocity": 112
    },
    {
        "track": 0,
        "absoluteTick": 159120,
        "noteNumber": 78,
        "velocity": 112
    },
    {
        "track": 1,
        "absoluteTick": 159120,
        "noteNumber": 30,
        "velocity": 112
    },
    {
        "track": 1,
        "absoluteTick": 159120,
        "noteNumber": 42,
        "velocity": 112
    },
    {
        "track": 0,
        "absoluteTick": 159360,
        "noteNumber": 65,
        "velocity": 127
    },
    {
        "track": 0,
        "absoluteTick": 159360,
        "noteNumber": 77,
        "velocity": 127
    },
    {
        "track": 1,
        "absoluteTick": 159360,
        "noteNumber": 29,
        "velocity": 127
    },
    {
        "track": 1,
        "absoluteTick": 159360,
        "noteNumber": 41,
        "velocity": 127
    }
]