=== REPORTE Composed by Christopher Larkin_Arranged by Nicole Benner - Lace ===
---------------------------------------------
>>> PARAMETROS <<<
---------------------------------------------
>>> RESUMEN DE NOTAS <<<
total de notas       : 3357
rango de tessitura  : 30 to 91
duracion en ticks  : 194400
polifonia  : 961 (ticks con notas sobrepuestas)
densidad ritmica  : 8.29 notas por beat
---------------------------------------------
>>> datos adicionales <<<
[
    {
        "track": 0,
        "absoluteTick": 0,
        "noteNumber": 79,
        "velocity": 120
    },
    {
        "track": 1,
        "absoluteTick": 0,
        "noteNumber": 74,
        "velocity": 120
    },
    {
        "track": 2,
        "absoluteTick": 0,
        "noteNumber": 55,
        "velocity": 80
    },
    {
        "track": 3,
        "absoluteTick": 0,
        "noteNumber": 43,
        "velocity": 80
    },
    {
        "track": 4,
        "absoluteTick": 0,
        "noteNumber": 43,
        "velocity": 80
    },
    {
        "track": 2,
        "absoluteTick": 240,
        "noteNumber": 55,
        "velocity": 80
    },
    {
        "track": 3,
        "absoluteTick": 240,
        "noteNumber": 43,
        "velocity": 80
    },
    {
        "track": 0,
        "absoluteTick": 480,
        "noteNumber": 79,
        "velocity": 120
    },
    {
        "track": 1,
        "absoluteTick": 480,
        "noteNumber": 74,
        "velocity": 120
    },
    {
        "track": 2,
        "absoluteTick": 720,
        "noteNumber": 55,
        "velocity": 80
    },
    {
        "track": 3,
        "absoluteTick": 720,
        "noteNumber": 43,
        "velocity": 80
    },
    {
        "track": 4,
        "absoluteTick": 720,
        "noteNumber": 43,
        "velocity": 80
    },
    {
        "track": 0,
        "absoluteTick": 960,
        "noteNumber": 79,
        "velocity": 120
    },
    {
        "track": 1,
        "absoluteTick": 960,
        "noteNumber": 74,
        "velocity": 120
    },
    {
        "track": 2,
        "absoluteTick": 1200,
        "noteNumber": 55,
        "velocity": 80
    },
    {
        "track": 3,
        "absoluteTick": 1200,
        "noteNumber": 43,
        "velocity": 80
    },
    {
        "track": 4,
        "absoluteTick": 1200,
        "noteNumber": 43,
        "velocity": 80
    },
    {
        "track": 0,
        "absoluteTick": 1440,
        "noteNumber": 79,
        "velocity": 120
    },
    {
        "track": 1,
        "absoluteTick": 1440,
        "noteNumber": 74,
        "velocity": 120
    },
    {
        "track": 2,
        "absoluteTick": 1440,
        "noteNumber": 55,
        "velocity": 80
    },
    {
        "track": 2,
        "absoluteTick": 1680,
        "noteNumber": 55,
        "velocity": 80
    },
    {
        "track": 3,
        "absoluteTick": 1680,
        "noteNumber": 43,
        "velocity": 80
    },
    {
        "track": 4,
        "absoluteTick": 1680,
        "noteNumber": 43,
        "velocity": 80
    },
    {
        "track": 0,
        "absoluteTick": 1920,
        "noteNumber": 79,
        "velocity": 120
    },
    {
        "track": 1,
        "absoluteTick": 1920,
        "noteNumber": 74,
        "velocity": 120
    },
    {
        "track": 2,
        "absoluteTick": 1920,
        "noteNumber": 55,
        "velocity": 80
    },
    {
        "track": 2,
        "absoluteTick": 2160,
        "noteNumber": 55,
        "velocity": 80
    },
    {
        "track": 0,
        "absoluteTick": 2400,
        "noteNumber": 79,
        "velocity": 120
    },
    {
        "track": 1,
        "absoluteTick": 2400,
        "noteNumber": 74,
        "velocity": 120
    },
    {
        "track": 2,
        "absoluteTick": 2400,
        "noteNumber": 57,
        "velocity": 80
    },
    {
        "track": 3,
        "absoluteTick": 2400,
        "noteNumber": 46,
        "velocity": 80
    },
    {
        "track": 4,
        "absoluteTick": 2400,
        "noteNumber": 46,
        "velocity": 80
    },
    {
        "track": 2,
        "absoluteTick": 2640,
        "noteNumber": 57,
        "velocity": 80
    },
    {
        "track": 3,
        "absoluteTick": 2640,
        "noteNumber": 46,
        "velocity": 80
    },
    {
        "track": 0,
        "absoluteTick": 2880,
        "noteNumber": 79,
        "velocity": 120
    },
    {
        "track": 1,
        "absoluteTick": 2880,
        "noteNumber": 74,
        "velocity": 120
    },
    {
        "track": 2,
        "absoluteTick": 3120,
        "noteNumber": 57,
        "velocity": 80
    },
    {
        "track": 3,
        "absoluteTick": 3120,
        "noteNumber": 46,
        "velocity": 80
    },
    {
        "track": 4,
        "absoluteTick": 3120,
        "noteNumber": 46,
        "velocity": 80
    },
    {
        "track": 0,
        "absoluteTick": 3360,
        "noteNumber": 79,
        "velocity": 120
    },
    {
        "track": 1,
        "absoluteTick": 3360,
        "noteNumber": 74,
        "velocity": 120
    },
    {
        "track": 2,
        "absoluteTick": 3360,
        "noteNumber": 57,
        "velocity": 80
    },
    {
        "track": 2,
        "absoluteTick": 3600,
        "noteNumber": 57,
        "velocity": 80
    },
    {
        "track": 3,
        "absoluteTick": 3600,
        "noteNumber": 46,
        "velocity": 80
    },
    {
        "track": 4,
        "absoluteTick": 3600,
        "noteNumber": 46,
        "velocity": 80
    },
    {
        "track": 0,
        "absoluteTick": 3840,
        "noteNumber": 79,
        "velocity": 120
    },
    {
        "track": 1,
        "absoluteTick": 3840,
        "noteNumber": 74,
        "velocity": 120
    },
    {
        "track": 2,
        "absoluteTick": 3840,
        "noteNumber": 57,
        "velocity": 80
    },
    {
        "track": 2,
        "absoluteTick": 4080,
        "noteNumber": 57,
        "velocity": 80
    },
    {
        "track": 3,
        "absoluteTick": 4080,
        "noteNumber": 46,
        "velocity": 80
    },
    {
        "track": 4,
        "absoluteTick": 4080,
        "noteNumber": 46,
        "velocity": 80
    },
    {
        "track": 0,
        "absoluteTick": 4320,
        "noteNumber": 79,
        "velocity": 120
    },
    {
        "track": 1,
        "absoluteTick": 4320,
        "noteNumber": 74,
        "velocity": 120
    },
    {
        "track": 2,
        "absoluteTick": 4320,
        "noteNumber": 57,
        "velocity": 80
    },
    {
        "track": 2,
        "absoluteTick": 4560,
        "noteNumber": 57,
        "velocity": 80
    },
    {
        "track": 0,
        "absoluteTick": 4800,
        "noteNumber": 79,
        "velocity": 120
    },
    {
        "track": 1,
        "absoluteTick": 4800,
        "noteNumber": 74,
        "velocity": 120
    },
    {
        "track": 2,
        "absoluteTick": 4800,
        "noteNumber": 57,
        "velocity": 80
    },
    {
        "track": 3,
        "absoluteTick": 4800,
        "noteNumber": 42,
        "velocity": 80
    },
    {
        "track": 4,
        "absoluteTick": 4800,
        "noteNumber": 42,
        "velocity": 80
    },
    {
        "track": 2,
        "absoluteTick": 5040,
        "noteNumber": 57,
        "velocity": 80
    },
    {
        "track": 3,
        "absoluteTick": 5040,
        "noteNumber": 42,
        "velocity": 80
    },
    {
        "track": 0,
        "absoluteTick": 5280,
        "noteNumber": 79,
        "velocity": 120
    },
    {
        "track": 1,
        "absoluteTick": 5280,
        "noteNumber": 74,
        "velocity": 120
    },
    {
        "track": 2,
        "absoluteTick": 5520,
        "noteNumber": 57,
        "velocity": 80
    },
    {
        "track": 3,
        "absoluteTick": 5520,
        "noteNumber": 42,
        "velocity": 80
    },
    {
        "track": 4,
        "absoluteTick": 5520,
        "noteNumber": 42,
        "velocity": 80
    },
    {
        "track": 0,
        "absoluteTick": 5760,
        "noteNumber": 79,
        "velocity": 120
    },
    {
        "track": 1,
        "absoluteTick": 5760,
        "noteNumber": 74,
        "velocity": 120
    },
    {
        "track": 2,
        "absoluteTick": 5760,
        "noteNumber": 57,
        "velocity": 80
    },
    {
        "track": 2,
        "absoluteTick": 6000,
        "noteNumber": 58,
        "velocity": 80
    },
    {
        "track": 3,
        "absoluteTick": 6000,
        "noteNumber": 42,
        "velocity": 80
    },
    {
        "track": 4,
        "absoluteTick": 6000,
        "noteNumber": 42,
        "velocity": 80
    },
    {
        "track": 0,
        "absoluteTick": 6240,
        "noteNumber": 79,
        "velocity": 120
    },
    {
        "track": 1,
        "absoluteTick": 6240,
        "noteNumber": 75,
        "velocity": 120
    },
    {
        "track": 2,
        "absoluteTick": 6240,
        "noteNumber": 58,
        "velocity": 80
    },
    {
        "track": 2,
        "absoluteTick": 6480,
        "noteNumber": 58,
        "velocity": 80
    },
    {
        "track": 3,
        "absoluteTick": 6480,
        "noteNumber": 42,
        "velocity": 80
    },
    {
        "track": 4,
        "absoluteTick": 6480,
        "noteNumber": 42,
        "velocity": 80
    },
    {
        "track": 0,
        "absoluteTick": 6720,
        "noteNumber": 79,
        "velocity": 120
    },
    {
        "track": 1,
        "absoluteTick": 6720,
        "noteNumber": 75,
        "velocity": 120
    },
    {
        "track": 2,
        "absoluteTick": 6720,
        "noteNumber": 58,
        "velocity": 80
    },
    {
        "track": 2,
        "absoluteTick": 6960,
        "noteNumber": 58,
        "velocity": 80
    },
    {
        "track": 0,
        "absoluteTick": 7200,
        "noteNumber": 79,
        "velocity": 120
    },
    {
        "track": 1,
        "absoluteTick": 7200,
        "noteNumber": 75,
        "velocity": 120
    },
    {
        "track": 2,
        "absoluteTick": 7200,
        "noteNumber": 58,
        "velocity": 80
    },
    {
        "track": 3,
        "absoluteTick": 7200,
        "noteNumber": 39,
        "velocity": 80
    },
    {
        "track": 4,
        "absoluteTick": 7200,
        "noteNumber": 39,
        "velocity": 80
    },
    {
        "track": 2,
        "absoluteTick": 7440,
        "noteNumber": 58,
        "velocity": 80
    },
    {
        "track": 3,
        "absoluteTick": 7440,
        "noteNumber": 39,
        "velocity": 80
    },
    {
        "track": 0,
        "absoluteTick": 7680,
        "noteNumber": 79,
        "velocity": 120
    },
    {
        "track": 1,
        "absoluteTick": 7680,
        "noteNumber": 75,
        "velocity": 120
    },
    {
        "track": 2,
        "absoluteTick": 7920,
        "noteNumber": 57,
        "velocity": 80
    },
    {
        "track": 3,
        "absoluteTick": 7920,
        "noteNumber": 39,
        "velocity": 80
    },
    {
        "track": 4,
        "absoluteTick": 7920,
        "noteNumber": 39,
        "velocity": 80
    },
    {
        "track": 0,
        "absoluteTick": 8160,
        "noteNumber": 79,
        "velocity": 120
    },
    {
        "track": 1,
        "absoluteTick": 8160,
        "noteNumber": 75,
        "velocity": 120
    },
    {
        "track": 2,
        "absoluteTick": 8160,
        "noteNumber": 57,
        "velocity": 80
    },
    {
        "track": 2,
        "absoluteTick": 8400,
        "noteNumber": 57,
        "velocity": 80
    },
    {
        "track": 3,
        "absoluteTick": 8400,
        "noteNumber": 42,
        "velocity": 80
    },
    {
        "track": 4,
        "absoluteTick": 8400,
        "noteNumber": 42,
        "velocity": 80
    },
    {
        "track": 0,
        "absoluteTick": 8640,
        "noteNumber": 79,
        "velocity": 120
    },
    {
        "track": 1,
        "absoluteTick": 8640,
        "noteNumber": 74,
        "velocity": 120
    },
    {
        "track": 2,
        "absoluteTick": 8640,
        "noteNumber": 57,
        "velocity": 80
    },
    {
        "track": 2,
        "absoluteTick": 8880,
        "noteNumber": 57,
        "velocity": 80
    },
    {
        "track": 3,
        "absoluteTick": 8880,
        "noteNumber": 42,
        "velocity": 80
    },
    {
        "track": 4,
        "absoluteTick": 8880,
        "noteNumber": 42,
        "velocity": 80
    },
    {
        "track": 0,
        "absoluteTick": 9120,
        "noteNumber": 79,
        "velocity": 120
    },
    {
        "track": 1,
        "absoluteTick": 9120,
        "noteNumber": 74,
        "velocity": 120
    },
    {
        "track": 2,
        "absoluteTick": 9120,
        "noteNumber": 57,
        "velocity": 80
    },
    {
        "track": 2,
        "absoluteTick": 9360,
        "noteNumber": 57,
        "velocity": 80
    },
    {
        "track": 0,
        "absoluteTick": 9600,
        "noteNumber": 79,
        "velocity": 80
    },
    {
        "track": 1,
        "absoluteTick": 9600,
        "noteNumber": 62,
        "velocity": 80
    },
    {
        "track": 2,
        "absoluteTick": 9600,
        "noteNumber": 55,
        "velocity": 80
    },
    {
        "track": 3,
        "absoluteTick": 9600,
        "noteNumber": 43,
        "velocity": 80
    },
    {
        "track": 4,
        "absoluteTick": 9600,
        "noteNumber": 43,
        "velocity": 80
    },
    {
        "track": 0,
        "absoluteTick": 9840,
        "noteNumber": 74,
        "velocity": 80
    },
    {
        "track": 1,
        "absoluteTick": 9840,
        "noteNumber": 62,
        "velocity": 80
    },
    {
        "track": 2,
        "absoluteTick": 9840,
        "noteNumber": 55,
        "velocity": 80
    },
    {
        "track": 0,
        "absoluteTick": 10080,
        "noteNumber": 79,
        "velocity": 80
    },
    {
        "track": 1,
        "absoluteTick": 10080,
        "noteNumber": 62,
        "velocity": 80
    },
    {
        "track": 2,
        "absoluteTick": 10080,
        "noteNumber": 55,
        "velocity": 80
    },
    {
        "track": 0,
        "absoluteTick": 10320,
        "noteNumber": 81,
        "velocity": 80
    },
    {
        "track": 1,
        "absoluteTick": 10320,
        "noteNumber": 62,
        "velocity": 80
    },
    {
        "track": 2,
        "absoluteTick": 10320,
        "noteNumber": 55,
        "velocity": 80
    },
    {
        "track": 3,
        "absoluteTick": 10320,
        "noteNumber": 43,
        "velocity": 80
    },
    {
        "track": 4,
        "absoluteTick": 10320,
        "noteNumber": 43,
        "velocity": 80
    },
    {
        "track": 1,
        "absoluteTick": 10560,
        "noteNumber": 62,
        "velocity": 80
    },
    {
        "track": 2,
        "absoluteTick": 10560,
        "noteNumber": 55,
        "velocity": 80
    },
    {
        "track": 0,
        "absoluteTick": 10800,
        "noteNumber": 79,
        "velocity": 80
    },
    {
        "track": 1,
        "absoluteTick": 10800,
        "noteNumber": 62,
        "velocity": 80
    },
    {
        "track": 2,
        "absoluteTick": 10800,
        "noteNumber": 55,
        "velocity": 80
    },
    {
        "track": 3,
        "absoluteTick": 10800,
        "noteNumber": 43,
        "velocity": 80
    },
    {
        "track": 4,
        "absoluteTick": 10800,
        "noteNumber": 43,
        "velocity": 80
    },
    {
        "track": 0,
        "absoluteTick": 11040,
        "noteNumber": 81,
        "velocity": 80
    },
    {
        "track": 1,
        "absoluteTick": 11040,
        "noteNumber": 62,
        "velocity": 80
    },
    {
        "track": 2,
        "absoluteTick": 11040,
        "noteNumber": 55,
        "velocity": 80
    },
    {
        "track": 0,
        "absoluteTick": 11280,
        "noteNumber": 82,
        "velocity": 80
    },
    {
        "track": 1,
        "absoluteTick": 11280,
        "noteNumber": 62,
        "velocity": 80
    },
    {
        "track": 2,
        "absoluteTick": 11280,
        "noteNumber": 55,
        "velocity": 80
    },
    {
        "track": 3,
        "absoluteTick": 11280,
        "noteNumber": 43,
        "velocity": 80
    },
    {
        "track": 4,
        "absoluteTick": 11280,
        "noteNumber": 43,
        "velocity": 80
    },
    {
        "track": 1,
        "absoluteTick": 11520,
        "noteNumber": 62,
        "velocity": 80
    },
    {
        "track": 2,
        "absoluteTick": 11520,
        "noteNumber": 55,
        "velocity": 80
    },
    {
        "track": 0,
        "absoluteTick": 11760,
        "noteNumber": 84,
        "velocity": 80
    },
    {
        "track": 1,
        "absoluteTick": 11760,
        "noteNumber": 62,
        "velocity": 80
    },
    {
        "track": 2,
        "absoluteTick": 11760,
        "noteNumber": 55,
        "velocity": 80
    },
    {
        "track": 0,
        "absoluteTick": 12000,
        "noteNumber": 79,
        "velocity": 80
    },
    {
        "track": 1,
        "absoluteTick": 12000,
        "noteNumber": 62,
        "velocity": 80
    },
    {
        "track": 2,
        "absoluteTick": 12000,
        "noteNumber": 57,
        "velocity": 80
    },
    {
        "track": 3,
        "absoluteTick": 12000,
        "noteNumber": 46,
        "velocity": 80
    },
    {
        "track": 4,
        "absoluteTick": 12000,
        "noteNumber": 46,
        "velocity": 80
    },
    {
        "track": 0,
        "absoluteTick": 12240,
        "noteNumber": 74,
        "velocity": 80
    },
    {
        "track": 1,
        "absoluteTick": 12240,
        "noteNumber": 62,
        "velocity": 80
    },
    {
        "track": 2,
        "absoluteTick": 12240,
        "noteNumber": 57,
        "velocity": 80
    },
    {
        "track": 0,
        "absoluteTick": 12480,
        "noteNumber": 79,
        "velocity": 80
    },
    {
        "track": 1,
        "absoluteTick": 12480,
        "noteNumber": 62,
        "velocity": 80
    },
    {
        "track": 2,
        "absoluteTick": 12480,
        "noteNumber": 57,
        "velocity": 80
    },
    {
        "track": 0,
        "absoluteTick": 12720,
        "noteNumber": 81,
        "velocity": 80
    },
    {
        "track": 1,
        "absoluteTick": 12720,
        "noteNumber": 62,
        "velocity": 80
    },
    {
        "track": 2,
        "absoluteTick": 12720,
        "noteNumber": 57,
        "velocity": 80
    },
    {
        "track": 3,
        "absoluteTick": 12720,
        "noteNumber": 46,
        "velocity": 80
    },
    {
        "track": 4,
        "absoluteTick": 12720,
        "noteNumber": 46,
        "velocity": 80
    },
    {
        "track": 1,
        "absoluteTick": 12960,
        "noteNumber": 62,
        "velocity": 80
    },
    {
        "track": 2,
        "absoluteTick": 12960,
        "noteNumber": 57,
        "velocity": 80
    },
    {
        "track": 0,
        "absoluteTick": 13200,
        "noteNumber": 79,
        "velocity": 80
    },
    {
        "track": 1,
        "absoluteTick": 13200,
        "noteNumber": 62,
        "velocity": 80
    },
    {
        "track": 2,
        "absoluteTick": 13200,
        "noteNumber": 57,
        "velocity": 80
    },
    {
        "track": 3,
        "absoluteTick": 13200,
        "noteNumber": 46,
        "velocity": 80
    },
    {
        "track": 4,
        "absoluteTick": 13200,
        "noteNumber": 46,
        "velocity": 80
    },
    {
        "track": 0,
        "absoluteTick": 13440,
        "noteNumber": 81,
        "velocity": 80
    },
    {
        "track": 1,
        "absoluteTick": 13440,
        "noteNumber": 62,
        "velocity": 80
    },
    {
        "track": 2,
        "absoluteTick": 13440,
        "noteNumber": 57,
        "velocity": 80
    },
    {
        "track": 0,
        "absoluteTick": 13680,
        "noteNumber": 82,
        "velocity": 80
    },
    {
        "track": 1,
        "absoluteTick": 13680,
        "noteNumber": 62,
        "velocity": 80
    },
    {
        "track": 2,
        "absoluteTick": 13680,
        "noteNumber": 57,
        "velocity": 80
    },
    {
        "track": 3,
        "absoluteTick": 13680,
        "noteNumber": 46,
        "velocity": 80
    },
    {
        "track": 4,
        "absoluteTick": 13680,
        "noteNumber": 46,
        "velocity": 80
    },
    {
        "track": 1,
        "absoluteTick": 13920,
        "noteNumber": 62,
        "velocity": 80
    },
    {
        "track": 2,
        "absoluteTick": 13920,
        "noteNumber": 57,
        "velocity": 80
    },
    {
        "track": 0,
        "absoluteTick": 14160,
        "noteNumber": 86,
        "velocity": 80
    },
    {
        "track": 1,
        "absoluteTick": 14160,
        "noteNumber": 62,
        "velocity": 80
    },
    {
        "track": 2,
        "absoluteTick": 14160,
        "noteNumber": 57,
        "velocity": 80
    },
    {
        "track": 0,
        "absoluteTick": 14400,
        "noteNumber": 79,
        "velocity": 80
    },
    {
        "track": 1,
        "absoluteTick": 14400,
        "noteNumber": 62,
        "velocity": 80
    },
    {
        "track": 2,
        "absoluteTick": 14400,
        "noteNumber": 57,
        "velocity": 80
    },
    {
        "track": 3,
        "absoluteTick": 14400,
        "noteNumber": 42,
        "velocity": 80
    },
    {
        "track": 4,
        "absoluteTick": 14400,
        "noteNumber": 42,
        "velocity": 80
    },
    {
        "track": 0,
        "absoluteTick": 14640,
        "noteNumber": 74,
        "velocity": 80
    },
    {
        "track": 1,
        "absoluteTick": 14640,
        "noteNumber": 62,
        "velocity": 80
    },
    {
        "track": 2,
        "absoluteTick": 14640,
        "noteNumber": 57,
        "velocity": 80
    },
    {
        "track": 0,
        "absoluteTick": 14880,
        "noteNumber": 79,
        "velocity": 80
    },
    {
        "track": 1,
        "absoluteTick": 14880,
        "noteNumber": 62,
        "velocity": 80
    },
    {
        "track": 2,
        "absoluteTick": 14880,
        "noteNumber": 57,
        "velocity": 80
    },
    {
        "track": 0,
        "absoluteTick": 15120,
        "noteNumber": 81,
        "velocity": 80
    },
    {
        "track": 1,
        "absoluteTick": 15120,
        "noteNumber": 62,
        "velocity": 80
    },
    {
        "track": 2,
        "absoluteTick": 15120,
        "noteNumber": 57,
        "velocity": 80
    },
    {
        "track": 3,
        "absoluteTick": 15120,
        "noteNumber": 42,
        "velocity": 80
    },
    {
        "track": 4,
        "absoluteTick": 15120,
        "noteNumber": 42,
        "velocity": 80
    },
    {
        "track": 1,
        "absoluteTick": 15360,
        "noteNumber": 62,
        "velocity": 80
    },
    {
        "track": 2,
        "absoluteTick": 15360,
        "noteNumber": 57,
        "velocity": 80
    },
    {
        "track": 0,
        "absoluteTick": 15600,
        "noteNumber": 79,
        "velocity": 80
    },
    {
        "track": 1,
        "absoluteTick": 15600,
        "noteNumber": 62,
        "velocity": 80
    },
    {
        "track": 2,
        "absoluteTick": 15600,
        "noteNumber": 58,
        "velocity": 80
    },
    {
        "track": 3,
        "absoluteTick": 15600,
        "noteNumber": 42,
        "velocity": 80
    },
    {
        "track": 4,
        "absoluteTick": 15600,
        "noteNumber": 42,
        "velocity": 80
    },
    {
        "track": 0,
        "absoluteTick": 15840,
        "noteNumber": 81,
        "velocity": 80
    },
    {
        "track": 1,
        "absoluteTick": 15840,
        "noteNumber": 62,
        "velocity": 80
    },
    {
        "track": 2,
        "absoluteTick": 15840,
        "noteNumber": 58,
        "velocity": 80
    },
    {
        "track": 0,
        "absoluteTick": 16080,
        "noteNumber": 82,
        "velocity": 80
    },
    {
        "track": 1,
        "absoluteTick": 16080,
        "noteNumber": 63,
        "velocity": 80
    },
    {
        "track": 2,
        "absoluteTick": 16080,
        "noteNumber": 58,
        "velocity": 80
    },
    {
        "track": 3,
        "absoluteTick": 16080,
        "noteNumber": 42,
        "velocity": 80
    },
    {
        "track": 4,
        "absoluteTick": 16080,
        "noteNumber": 42,
        "velocity": 80
    },
    {
        "track": 1,
        "absoluteTick": 16320,
        "noteNumber": 63,
        "velocity": 80
    },
    {
        "track": 2,
        "absoluteTick": 16320,
        "noteNumber": 58,
        "velocity": 80
    },
    {
        "track": 0,
        "absoluteTick": 16560,
        "noteNumber": 87,
        "velocity": 80
    },
    {
        "track": 1,
        "absoluteTick": 16560,
        "noteNumber": 63,
        "velocity": 80
    },
    {
        "track": 2,
        "absoluteTick": 16560,
        "noteNumber": 58,
        "velocity": 80
    },
    {
        "track": 0,
        "absoluteTick": 16800,
        "noteNumber": 79,
        "velocity": 80
    },
    {
        "track": 1,
        "absoluteTick": 16800,
        "noteNumber": 63,
        "velocity": 80
    },
    {
        "track": 2,
        "absoluteTick": 16800,
        "noteNumber": 58,
        "velocity": 80
    },
    {
        "track": 3,
        "absoluteTick": 16800,
        "noteNumber": 39,
        "velocity": 80
    },
    {
        "track": 4,
        "absoluteTick": 16800,
        "noteNumber": 39,
        "velocity": 80
    },
    {
        "track": 0,
        "absoluteTick": 17040,
        "noteNumber": 74,
        "velocity": 80
    },
    {
        "track": 1,
        "absoluteTick": 17040,
        "noteNumber": 63,
        "velocity": 80
    },
    {
        "track": 2,
        "absoluteTick": 17040,
        "noteNumber": 58,
        "velocity": 80
    },
    {
        "track": 0,
        "absoluteTick": 17280,
        "noteNumber": 79,
        "velocity": 80
    },
    {
        "track": 1,
        "absoluteTick": 17280,
        "noteNumber": 63,
        "velocity": 80
    },
    {
        "track": 2,
        "absoluteTick": 17280,
        "noteNumber": 58,
        "velocity": 80
    },
    {
        "track": 0,
        "absoluteTick": 17520,
        "noteNumber": 81,
        "velocity": 80
    },
    {
        "track": 1,
        "absoluteTick": 17520,
        "noteNumber": 63,
        "velocity": 80
    },
    {
        "track": 2,
        "absoluteTick": 17520,
        "noteNumber": 57,
        "velocity": 80
    },
    {
        "track": 3,
        "absoluteTick": 17520,
        "noteNumber": 38,
        "velocity": 80
    },
    {
        "track": 4,
        "absoluteTick": 17520,
        "noteNumber": 38,
        "velocity": 80
    },
    {
        "track": 1,
        "absoluteTick": 17760,
        "noteNumber": 63,
        "velocity": 80
    },
    {
        "track": 2,
        "absoluteTick": 17760,
        "noteNumber": 57,
        "velocity": 80
    },
    {
        "track": 0,
        "absoluteTick": 18000,
        "noteNumber": 79,
        "velocity": 80
    },
    {
        "track": 1,
        "absoluteTick": 18000,
        "noteNumber": 62,
        "velocity": 80
    },
    {
        "track": 2,
        "absoluteTick": 18000,
        "noteNumber": 57,
        "velocity": 80
    },
    {
        "track": 3,
        "absoluteTick": 18000,
        "noteNumber": 41,
        "velocity": 80
    },
    {
        "track": 4,
        "absoluteTick": 18000,
        "noteNumber": 41,
        "velocity": 80
    },
    {
        "track": 0,
        "absoluteTick": 18240,
        "noteNumber": 81,
        "velocity": 80
    },
    {
        "track": 1,
        "absoluteTick": 18240,
        "noteNumber": 62,
        "velocity": 80
    },
    {
        "track": 2,
        "absoluteTick": 18240,
        "noteNumber": 57,
        "velocity": 80
    },
    {
        "track": 0,
        "absoluteTick": 18480,
        "noteNumber": 82,
        "velocity": 80
    },
    {
        "track": 1,
        "absoluteTick": 18480,
        "noteNumber": 62,
        "velocity": 80
    },
    {
        "track": 2,
        "absoluteTick": 18480,
        "noteNumber": 57,
        "velocity": 80
    },
    {
        "track": 3,
        "absoluteTick": 18480,
        "noteNumber": 42,
        "velocity": 80
    },
    {
        "track": 4,
        "absoluteTick": 18480,
        "noteNumber": 42,
        "velocity": 80
    },
    {
        "track": 1,
        "absoluteTick": 18720,
        "noteNumber": 62,
        "velocity": 80
    },
    {
        "track": 2,
        "absoluteTick": 18720,
        "noteNumber": 57,
        "velocity": 80
    },
    {
        "track": 0,
        "absoluteTick": 18960,
        "noteNumber": 86,
        "velocity": 80
    },
    {
        "track": 1,
        "absoluteTick": 18960,
        "noteNumber": 62,
        "velocity": 80
    },
    {
        "track": 2,
        "absoluteTick": 18960,
        "noteNumber": 57,
        "velocity": 80
    },
    {
        "track": 0,
        "absoluteTick": 19200,
        "noteNumber": 79,
        "velocity": 120
    },
    {
        "track": 1,
        "absoluteTick": 19200,
        "noteNumber": 74,
        "velocity": 120
    },
    {
        "track": 0,
        "absoluteTick": 19440,
        "noteNumber": 79,
        "velocity": 120
    },
    {
        "track": 1,
        "absoluteTick": 19440,
        "noteNumber": 74,
        "velocity": 120
    },
    {
        "track": 1,
        "absoluteTick": 19680,
        "noteNumber": 63,
        "velocity": 80
    },
    {
        "track": 2,
        "absoluteTick": 19680,
        "noteNumber": 63,
        "velocity": 80
    },
    {
        "track": 3,
        "absoluteTick": 19680,
        "noteNumber": 43,
        "velocity": 120
    },
    {
        "track": 4,
        "absoluteTick": 19680,
        "noteNumber": 43,
        "velocity": 120
    },
    {
        "track": 1,
        "absoluteTick": 19800,
        "noteNumber": 63,
        "velocity": 80
    },
    {
        "track": 2,
        "absoluteTick": 19800,
        "noteNumber": 63,
        "velocity": 80
    },
    {
        "track": 1,
        "absoluteTick": 19920,
        "noteNumber": 62,
        "velocity": 80
    },
    {
        "track": 2,
        "absoluteTick": 19920,
        "noteNumber": 62,
        "velocity": 80
    },
    {
        "track": 3,
        "absoluteTick": 19920,
        "noteNumber": 43,
        "velocity": 120
    },
    {
        "track": 4,
        "absoluteTick": 19920,
        "noteNumber": 43,
        "velocity": 120
    },
    {
        "track": 1,
        "absoluteTick": 20160,
        "noteNumber": 58,
        "velocity": 80
    },
    {
        "track": 2,
        "absoluteTick": 20160,
        "noteNumber": 58,
        "velocity": 80
    },
    {
        "track": 1,
        "absoluteTick": 20400,
        "noteNumber": 57,
        "velocity": 80
    },
    {
        "track": 2,
        "absoluteTick": 20400,
        "noteNumber": 57,
        "velocity": 80
    },
    {
        "track": 0,
        "absoluteTick": 20640,
        "noteNumber": 79,
        "velocity": 120
    },
    {
        "track": 1,
        "absoluteTick": 20640,
        "noteNumber": 75,
        "velocity": 120
    },
    {
        "track": 0,
        "absoluteTick": 20880,
        "noteNumber": 79,
        "velocity": 120
    },
    {
        "track": 1,
        "absoluteTick": 20880,
        "noteNumber": 75,
        "velocity": 120
    },
    {
        "track": 1,
        "absoluteTick": 21120,
        "noteNumber": 65,
        "velocity": 80
    },
    {
        "track": 2,
        "absoluteTick": 21120,
        "noteNumber": 65,
        "velocity": 80
    },
    {
        "track": 3,
        "absoluteTick": 21120,
        "noteNumber": 39,
        "velocity": 120
    },
    {
        "track": 4,
        "absoluteTick": 21120,
        "noteNumber": 39,
        "velocity": 120
    },
    {
        "track": 1,
        "absoluteTick": 21240,
        "noteNumber": 65,
        "velocity": 80
    },
    {
        "track": 2,
        "absoluteTick": 21240,
        "noteNumber": 65,
        "velocity": 80
    },
    {
        "track": 1,
        "absoluteTick": 21360,
        "noteNumber": 63,
        "velocity": 80
    },
    {
        "track": 2,
        "absoluteTick": 21360,
        "noteNumber": 63,
        "velocity": 80
    },
    {
        "track": 3,
        "absoluteTick": 21360,
        "noteNumber": 39,
        "velocity": 120
    },
    {
        "track": 4,
        "absoluteTick": 21360,
        "noteNumber": 39,
        "velocity": 120
    },
    {
        "track": 1,
        "absoluteTick": 21600,
        "noteNumber": 58,
        "velocity": 80
    },
    {
        "track": 2,
        "absoluteTick": 21600,
        "noteNumber": 58,
        "velocity": 80
    },
    {
        "track": 1,
        "absoluteTick": 21840,
        "noteNumber": 57,
        "velocity": 80
    },
    {
        "track": 2,
        "absoluteTick": 21840,
        "noteNumber": 57,
        "velocity": 80
    },
    {
        "track": 0,
        "absoluteTick": 22080,
        "noteNumber": 79,
        "velocity": 120
    },
    {
        "track": 1,
        "absoluteTick": 22080,
        "noteNumber": 72,
        "velocity": 120
    },
    {
        "track": 0,
        "absoluteTick": 22320,
        "noteNumber": 79,
        "velocity": 120
    },
    {
        "track": 1,
        "absoluteTick": 22320,
        "noteNumber": 72,
        "velocity": 120
    },
    {
        "track": 1,
        "absoluteTick": 22560,
        "noteNumber": 65,
        "velocity": 80
    },
    {
        "track": 2,
        "absoluteTick": 22560,
        "noteNumber": 65,
        "velocity": 80
    },
    {
        "track": 3,
        "absoluteTick": 22560,
        "noteNumber": 36,
        "velocity": 120
    },
    {
        "track": 4,
        "absoluteTick": 22560,
        "noteNumber": 36,
        "velocity": 120
    },
    {
        "track": 1,
        "absoluteTick": 22680,
        "noteNumber": 65,
        "velocity": 80
    },
    {
        "track": 2,
        "absoluteTick": 22680,
        "noteNumber": 65,
        "velocity": 80
    },
    {
        "track": 1,
        "absoluteTick": 22800,
        "noteNumber": 63,
        "velocity": 80
    },
    {
        "track": 2,
        "absoluteTick": 22800,
        "noteNumber": 63,
        "velocity": 80
    },
    {
        "track": 3,
        "absoluteTick": 22800,
        "noteNumber": 36,
        "velocity": 120
    },
    {
        "track": 4,
        "absoluteTick": 22800,
        "noteNumber": 36,
        "velocity": 120
    },
    {
        "track": 1,
        "absoluteTick": 23040,
        "noteNumber": 60,
        "velocity": 80
    },
    {
        "track": 2,
        "absoluteTick": 23040,
        "noteNumber": 60,
        "velocity": 80
    },
    {
        "track": 1,
        "absoluteTick": 23280,
        "noteNumber": 55,
        "velocity": 80
    },
    {
        "track": 2,
        "absoluteTick": 23280,
        "noteNumber": 55,
        "velocity": 80
    },
    {
        "track": 0,
        "absoluteTick": 23520,
        "noteNumber": 79,
        "velocity": 80
    },
    {
        "track": 1,
        "absoluteTick": 23520,
        "noteNumber": 67,
        "velocity": 80
    },
    {
        "track": 2,
        "absoluteTick": 23520,
        "noteNumber": 51,
        "velocity": 80
    },
    {
        "track": 3,
        "absoluteTick": 23520,
        "noteNumber": 39,
        "velocity": 80
    },
    {
        "track": 0,
        "absoluteTick": 23640,
        "noteNumber": 79,
        "velocity": 81
    },
    {
        "track": 1,
        "absoluteTick": 23640,
        "noteNumber": 67,
        "velocity": 81
    },
    {
        "track": 2,
        "absoluteTick": 23640,
        "noteNumber": 51,
        "velocity": 81
    },
    {
        "track": 3,
        "absoluteTick": 23640,
        "noteNumber": 39,
        "velocity": 81
    },
    {
        "track": 0,
        "absoluteTick": 23760,
        "noteNumber": 79,
        "velocity": 82
    },
    {
        "track": 1,
        "absoluteTick": 23760,
        "noteNumber": 67,
        "velocity": 82
    },
    {
        "track": 2,
        "absoluteTick": 23760,
        "noteNumber": 51,
        "velocity": 82
    },
    {
        "track": 3,
        "absoluteTick": 23760,
        "noteNumber": 39,
        "velocity": 82
    },
    {
        "track": 0,
        "absoluteTick": 23880,
        "noteNumber": 79,
        "velocity": 84
    },
    {
        "track": 1,
        "absoluteTick": 23880,
        "noteNumber": 67,
        "velocity": 84
    },
    {
        "track": 2,
        "absoluteTick": 23880,
        "noteNumber": 51,
        "velocity": 84
    },
    {
        "track": 3,
        "absoluteTick": 23880,
        "noteNumber": 39,
        "velocity": 84
    },
    {
        "track": 0,
        "absoluteTick": 24000,
        "noteNumber": 78,
        "velocity": 85
    },
    {
        "track": 1,
        "absoluteTick": 24000,
        "noteNumber": 66,
        "velocity": 85
    },
    {
        "track": 2,
        "absoluteTick": 24000,
        "noteNumber": 54,
        "velocity": 85
    },
    {
        "track": 3,
        "absoluteTick": 24000,
        "noteNumber": 42,
        "velocity": 85
    },
    {
        "track": 0,
        "absoluteTick": 24120,
        "noteNumber": 78,
        "velocity": 86
    },
    {
        "track": 1,
        "absoluteTick": 24120,
        "noteNumber": 66,
        "velocity": 86
    },
    {
        "track": 2,
        "absoluteTick": 24120,
        "noteNumber": 54,
        "velocity": 86
    },
    {
        "track": 3,
        "absoluteTick": 24120,
        "noteNumber": 42,
        "velocity": 86
    },
    {
        "track": 0,
        "absoluteTick": 24240,
        "noteNumber": 79,
        "velocity": 88
    },
    {
        "track": 1,
        "absoluteTick": 24240,
        "noteNumber": 67,
        "velocity": 88
    },
    {
        "track": 2,
        "absoluteTick": 24240,
        "noteNumber": 55,
        "velocity": 88
    },
    {
        "track": 3,
        "absoluteTick": 24240,
        "noteNumber": 43,
        "velocity": 88
    },
    {
        "track": 0,
        "absoluteTick": 24360,
        "noteNumber": 79,
        "velocity": 89
    },
    {
        "track": 1,
        "absoluteTick": 24360,
        "noteNumber": 67,
        "velocity": 89
    },
    {
        "track": 2,
        "absoluteTick": 24360,
        "noteNumber": 55,
        "velocity": 89
    },
    {
        "track": 3,
        "absoluteTick": 24360,
        "noteNumber": 43,
        "velocity": 89
    },
    {
        "track": 0,
        "absoluteTick": 24480,
        "noteNumber": 81,
        "velocity": 90
    },
    {
        "track": 1,
        "absoluteTick": 24480,
        "noteNumber": 69,
        "velocity": 90
    },
    {
        "track": 2,
        "absoluteTick": 24480,
        "noteNumber": 57,
        "velocity": 90
    },
    {
        "track": 3,
        "absoluteTick": 24480,
        "noteNumber": 45,
        "velocity": 90
    },
    {
        "track": 0,
        "absoluteTick": 24600,
        "noteNumber": 81,
        "velocity": 92
    },
    {
        "track": 1,
        "absoluteTick": 24600,
        "noteNumber": 69,
        "velocity": 92
    },
    {
        "track": 2,
        "absoluteTick": 24600,
        "noteNumber": 57,
        "velocity": 92
    },
    {
        "track": 3,
        "absoluteTick": 24600,
        "noteNumber": 45,
        "velocity": 92
    },
    {
        "track": 0,
        "absoluteTick": 24720,
        "noteNumber": 86,
        "velocity": 93
    },
    {
        "track": 1,
        "absoluteTick": 24720,
        "noteNumber": 74,
        "velocity": 93
    },
    {
        "track": 2,
        "absoluteTick": 24720,
        "noteNumber": 62,
        "velocity": 93
    },
    {
        "track": 3,
        "absoluteTick": 24720,
        "noteNumber": 50,
        "velocity": 93
    },
    {
        "track": 0,
        "absoluteTick": 24840,
        "noteNumber": 86,
        "velocity": 94
    },
    {
        "track": 1,
        "absoluteTick": 24840,
        "noteNumber": 74,
        "velocity": 94
    },
    {
        "track": 2,
        "absoluteTick": 24840,
        "noteNumber": 62,
        "velocity": 94
    },
    {
        "track": 3,
        "absoluteTick": 24840,
        "noteNumber": 50,
        "velocity": 94
    },
    {
        "track": 0,
        "absoluteTick": 24960,
        "noteNumber": 79,
        "velocity": 127
    },
    {
        "track": 1,
        "absoluteTick": 24960,
        "noteNumber": 74,
        "velocity": 127
    },
    {
        "track": 0,
        "absoluteTick": 25200,
        "noteNumber": 79,
        "velocity": 127
    },
    {
        "track": 1,
        "absoluteTick": 25200,
        "noteNumber": 74,
        "velocity": 127
    },
    {
        "track": 0,
        "absoluteTick": 25440,
        "noteNumber": 75,
        "velocity": 96
    },
    {
        "track": 1,
        "absoluteTick": 25440,
        "noteNumber": 63,
        "velocity": 96
    },
    {
        "track": 2,
        "absoluteTick": 25440,
        "noteNumber": 63,
        "velocity": 96
    },
    {
        "track": 3,
        "absoluteTick": 25440,
        "noteNumber": 43,
        "velocity": 127
    },
    {
        "track": 4,
        "absoluteTick": 25440,
        "noteNumber": 43,
        "velocity": 127
    },
    {
        "track": 0,
        "absoluteTick": 25560,
        "noteNumber": 75,
        "velocity": 96
    },
    {
        "track": 1,
        "absoluteTick": 25560,
        "noteNumber": 63,
        "velocity": 96
    },
    {
        "track": 2,
        "absoluteTick": 25560,
        "noteNumber": 63,
        "velocity": 96
    },
    {
        "track": 3,
        "absoluteTick": 25560,
        "noteNumber": 43,
        "velocity": 96
    },
    {
        "track": 0,
        "absoluteTick": 25680,
        "noteNumber": 74,
        "velocity": 96
    },
    {
        "track": 1,
        "absoluteTick": 25680,
        "noteNumber": 62,
        "velocity": 96
    },
    {
        "track": 2,
        "absoluteTick": 25680,
        "noteNumber": 62,
        "velocity": 96
    },
    {
        "track": 3,
        "absoluteTick": 25680,
        "noteNumber": 43,
        "velocity": 127
    },
    {
        "track": 4,
        "absoluteTick": 25680,
        "noteNumber": 43,
        "velocity": 127
    },
    {
        "track": 0,
        "absoluteTick": 25920,
        "noteNumber": 70,
        "velocity": 96
    },
    {
        "track": 1,
        "absoluteTick": 25920,
        "noteNumber": 58,
        "velocity": 96
    },
    {
        "track": 2,
        "absoluteTick": 25920,
        "noteNumber": 58,
        "velocity": 96
    },
    {
        "track": 0,
        "absoluteTick": 26160,
        "noteNumber": 69,
        "velocity": 96
    },
    {
        "track": 1,
        "absoluteTick": 26160,
        "noteNumber": 57,
        "velocity": 96
    },
    {
        "track": 2,
        "absoluteTick": 26160,
        "noteNumber": 57,
        "velocity": 96
    },
    {
        "track": 0,
        "absoluteTick": 26400,
        "noteNumber": 79,
        "velocity": 127
    },
    {
        "track": 1,
        "absoluteTick": 26400,
        "noteNumber": 75,
        "velocity": 127
    },
    {
        "track": 0,
        "absoluteTick": 26640,
        "noteNumber": 79,
        "velocity": 127
    },
    {
        "track": 1,
        "absoluteTick": 26640,
        "noteNumber": 75,
        "velocity": 127
    },
    {
        "track": 0,
        "absoluteTick": 26880,
        "noteNumber": 77,
        "velocity": 96
    },
    {
        "track": 1,
        "absoluteTick": 26880,
        "noteNumber": 65,
        "velocity": 96
    },
    {
        "track": 2,
        "absoluteTick": 26880,
        "noteNumber": 65,
        "velocity": 96
    },
    {
        "track": 3,
        "absoluteTick": 26880,
        "noteNumber": 39,
        "velocity": 127
    },
    {
        "track": 4,
        "absoluteTick": 26880,
        "noteNumber": 39,
        "velocity": 127
    },
    {
        "track": 0,
        "absoluteTick": 27000,
        "noteNumber": 77,
        "velocity": 96
    },
    {
        "track": 1,
        "absoluteTick": 27000,
        "noteNumber": 65,
        "velocity": 96
    },
    {
        "track": 2,
        "absoluteTick": 27000,
        "noteNumber": 65,
        "velocity": 96
    },
    {
        "track": 3,
        "absoluteTick": 27000,
        "noteNumber": 39,
        "velocity": 96
    },
    {
        "track": 0,
        "absoluteTick": 27120,
        "noteNumber": 75,
        "velocity": 96
    },
    {
        "track": 1,
        "absoluteTick": 27120,
        "noteNumber": 63,
        "velocity": 96
    },
    {
        "track": 2,
        "absoluteTick": 27120,
        "noteNumber": 63,
        "velocity": 96
    },
    {
        "track": 3,
        "absoluteTick": 27120,
        "noteNumber": 39,
        "velocity": 127
    },
    {
        "track": 4,
        "absoluteTick": 27120,
        "noteNumber": 39,
        "velocity": 127
    },
    {
        "track": 0,
        "absoluteTick": 27360,
        "noteNumber": 70,
        "velocity": 96
    },
    {
        "track": 1,
        "absoluteTick": 27360,
        "noteNumber": 58,
        "velocity": 96
    },
    {
        "track": 2,
        "absoluteTick": 27360,
        "noteNumber": 58,
        "velocity": 96
    },
    {
        "track": 0,
        "absoluteTick": 27600,
        "noteNumber": 69,
        "velocity": 96
    },
    {
        "track": 1,
        "absoluteTick": 27600,
        "noteNumber": 57,
        "velocity": 96
    },
    {
        "track": 2,
        "absoluteTick": 27600,
        "noteNumber": 57,
        "velocity": 96
    },
    {
        "track": 0,
        "absoluteTick": 27840,
        "noteNumber": 79,
        "velocity": 127
    },
    {
        "track": 1,
        "absoluteTick": 27840,
        "noteNumber": 72,
        "velocity": 127
    },
    {
        "track": 0,
        "absoluteTick": 28080,
        "noteNumber": 79,
        "velocity": 127
    },
    {
        "track": 1,
        "absoluteTick": 28080,
        "noteNumber": 72,
        "velocity": 127
    },
    {
        "track": 0,
        "absoluteTick": 28320,
        "noteNumber": 77,
        "velocity": 96
    },
    {
        "track": 1,
        "absoluteTick": 28320,
        "noteNumber": 65,
        "velocity": 96
    },
    {
        "track": 2,
        "absoluteTick": 28320,
        "noteNumber": 65,
        "velocity": 96
    },
    {
        "track": 3,
        "absoluteTick": 28320,
        "noteNumber": 36,
        "velocity": 127
    },
    {
        "track": 4,
        "absoluteTick": 28320,
        "noteNumber": 36,
        "velocity": 127
    },
    {
        "track": 0,
        "absoluteTick": 28440,
        "noteNumber": 77,
        "velocity": 96
    },
    {
        "track": 1,
        "absoluteTick": 28440,
        "noteNumber": 65,
        "velocity": 96
    },
    {
        "track": 2,
        "absoluteTick": 28440,
        "noteNumber": 65,
        "velocity": 96
    },
    {
        "track": 3,
        "absoluteTick": 28440,
        "noteNumber": 36,
        "velocity": 96
    },
    {
        "track": 0,
        "absoluteTick": 28560,
        "noteNumber": 75,
        "velocity": 96
    },
    {
        "track": 1,
        "absoluteTick": 28560,
        "noteNumber": 63,
        "velocity": 96
    },
    {
        "track": 2,
        "absoluteTick": 28560,
        "noteNumber": 63,
        "velocity": 96
    },
    {
        "track": 3,
        "absoluteTick": 28560,
        "noteNumber": 36,
        "velocity": 127
    },
    {
        "track": 4,
        "absoluteTick": 28560,
        "noteNumber": 36,
        "velocity": 127
    },
    {
        "track": 0,
        "absoluteTick": 28800,
        "noteNumber": 72,
        "velocity": 96
    },
    {
        "track": 1,
        "absoluteTick": 28800,
        "noteNumber": 60,
        "velocity": 96
    },
    {
        "track": 2,
        "absoluteTick": 28800,
        "noteNumber": 60,
        "velocity": 96
    },
    {
        "track": 0,
        "absoluteTick": 29040,
        "noteNumber": 67,
        "velocity": 96
    },
    {
        "track": 1,
        "absoluteTick": 29040,
        "noteNumber": 55,
        "velocity": 96
    },
    {
        "track": 2,
        "absoluteTick": 29040,
        "noteNumber": 55,
        "velocity": 96
    },
    {
        "track": 0,
        "absoluteTick": 29280,
        "noteNumber": 67,
        "velocity": 80
    },
    {
        "track": 1,
        "absoluteTick": 29280,
        "noteNumber": 58,
        "velocity": 64
    },
    {
        "track": 2,
        "absoluteTick": 29280,
        "noteNumber": 55,
        "velocity": 64
    },
    {
        "track": 3,
        "absoluteTick": 29280,
        "noteNumber": 43,
        "velocity": 64
    },
    {
        "track": 4,
        "absoluteTick": 29280,
        "noteNumber": 43,
        "velocity": 64
    },
    {
        "track": 0,
        "absoluteTick": 29400,
        "noteNumber": 67,
        "velocity": 80
    },
    {
        "track": 1,
        "absoluteTick": 29400,
        "noteNumber": 58,
        "velocity": 64
    },
    {
        "track": 2,
        "absoluteTick": 29400,
        "noteNumber": 55,
        "velocity": 64
    },
    {
        "track": 0,
        "absoluteTick": 29520,
        "noteNumber": 67,
        "velocity": 81
    },
    {
        "track": 1,
        "absoluteTick": 29520,
        "noteNumber": 58,
        "velocity": 65
    },
    {
        "track": 2,
        "absoluteTick": 29520,
        "noteNumber": 55,
        "velocity": 65
    },
    {
        "track": 3,
        "absoluteTick": 29520,
        "noteNumber": 43,
        "velocity": 65
    },
    {
        "track": 4,
        "absoluteTick": 29520,
        "noteNumber": 43,
        "velocity": 65
    },
    {
        "track": 0,
        "absoluteTick": 29640,
        "noteNumber": 67,
        "velocity": 82
    },
    {
        "track": 1,
        "absoluteTick": 29640,
        "noteNumber": 58,
        "velocity": 66
    },
    {
        "track": 2,
        "absoluteTick": 29640,
        "noteNumber": 55,
        "velocity": 66
    },
    {
        "track": 0,
        "absoluteTick": 29760,
        "noteNumber": 66,
        "velocity": 82
    },
    {
        "track": 1,
        "absoluteTick": 29760,
        "noteNumber": 58,
        "velocity": 66
    },
    {
        "track": 2,
        "absoluteTick": 29760,
        "noteNumber": 55,
        "velocity": 66
    },
    {
        "track": 3,
        "absoluteTick": 29760,
        "noteNumber": 43,
        "velocity": 66
    },
    {
        "track": 4,
        "absoluteTick": 29760,
        "noteNumber": 43,
        "velocity": 66
    },
    {
        "track": 0,
        "absoluteTick": 29880,
        "noteNumber": 66,
        "velocity": 83
    },
    {
        "track": 1,
        "absoluteTick": 29880,
        "noteNumber": 58,
        "velocity": 67
    },
    {
        "track": 2,
        "absoluteTick": 29880,
        "noteNumber": 55,
        "velocity": 67
    },
    {
        "track": 0,
        "absoluteTick": 30000,
        "noteNumber": 67,
        "velocity": 84
    },
    {
        "track": 1,
        "absoluteTick": 30000,
        "noteNumber": 58,
        "velocity": 68
    },
    {
        "track": 2,
        "absoluteTick": 30000,
        "noteNumber": 55,
        "velocity": 68
    },
    {
        "track": 3,
        "absoluteTick": 30000,
        "noteNumber": 43,
        "velocity": 68
    },
    {
        "track": 4,
        "absoluteTick": 30000,
        "noteNumber": 43,
        "velocity": 68
    },
    {
        "track": 0,
        "absoluteTick": 30120,
        "noteNumber": 67,
        "velocity": 84
    },
    {
        "track": 1,
        "absoluteTick": 30120,
        "noteNumber": 58,
        "velocity": 68
    },
    {
        "track": 2,
        "absoluteTick": 30120,
        "noteNumber": 55,
        "velocity": 68
    },
    {
        "track": 0,
        "absoluteTick": 30240,
        "noteNumber": 69,
        "velocity": 85
    },
    {
        "track": 1,
        "absoluteTick": 30240,
        "noteNumber": 58,
        "velocity": 69
    },
    {
        "track": 2,
        "absoluteTick": 30240,
        "noteNumber": 55,
        "velocity": 69
    },
    {
        "track": 3,
        "absoluteTick": 30240,
        "noteNumber": 43,
        "velocity": 69
    },
    {
        "track": 4,
        "absoluteTick": 30240,
        "noteNumber": 43,
        "velocity": 69
    },
    {
        "track": 0,
        "absoluteTick": 30360,
        "noteNumber": 69,
        "velocity": 86
    },
    {
        "track": 1,
        "absoluteTick": 30360,
        "noteNumber": 58,
        "velocity": 70
    },
    {
        "track": 2,
        "absoluteTick": 30360,
        "noteNumber": 55,
        "velocity": 70
    },
    {
        "track": 0,
        "absoluteTick": 30480,
        "noteNumber": 62,
        "velocity": 86
    },
    {
        "track": 1,
        "absoluteTick": 30480,
        "noteNumber": 58,
        "velocity": 70
    },
    {
        "track": 2,
        "absoluteTick": 30480,
        "noteNumber": 55,
        "velocity": 70
    },
    {
        "track": 3,
        "absoluteTick": 30480,
        "noteNumber": 43,
        "velocity": 70
    },
    {
        "track": 4,
        "absoluteTick": 30480,
        "noteNumber": 43,
        "velocity": 70
    },
    {
        "track": 0,
        "absoluteTick": 30600,
        "noteNumber": 62,
        "velocity": 87
    },
    {
        "track": 1,
        "absoluteTick": 30600,
        "noteNumber": 58,
        "velocity": 71
    },
    {
        "track": 2,
        "absoluteTick": 30600,
        "noteNumber": 55,
        "velocity": 71
    },
    {
        "track": 0,
        "absoluteTick": 30720,
        "noteNumber": 69,
        "velocity": 88
    },
    {
        "track": 1,
        "absoluteTick": 30720,
        "noteNumber": 57,
        "velocity": 72
    },
    {
        "track": 2,
        "absoluteTick": 30720,
        "noteNumber": 54,
        "velocity": 72
    },
    {
        "track": 3,
        "absoluteTick": 30720,
        "noteNumber": 42,
        "velocity": 72
    },
    {
        "track": 4,
        "absoluteTick": 30720,
        "noteNumber": 42,
        "velocity": 72
    },
    {
        "track": 0,
        "absoluteTick": 30840,
        "noteNumber": 69,
        "velocity": 88
    },
    {
        "track": 1,
        "absoluteTick": 30840,
        "noteNumber": 57,
        "velocity": 72
    },
    {
        "track": 2,
        "absoluteTick": 30840,
        "noteNumber": 54,
        "velocity": 72
    },
    {
        "track": 0,
        "absoluteTick": 30960,
        "noteNumber": 69,
        "velocity": 89
    },
    {
        "track": 1,
        "absoluteTick": 30960,
        "noteNumber": 57,
        "velocity": 73
    },
    {
        "track": 2,
        "absoluteTick": 30960,
        "noteNumber": 54,
        "velocity": 73
    },
    {
        "track": 3,
        "absoluteTick": 30960,
        "noteNumber": 42,
        "velocity": 73
    },
    {
        "track": 4,
        "absoluteTick": 30960,
        "noteNumber": 42,
        "velocity": 73
    },
    {
        "track": 0,
        "absoluteTick": 31080,
        "noteNumber": 69,
        "velocity": 90
    },
    {
        "track": 1,
        "absoluteTick": 31080,
        "noteNumber": 57,
        "velocity": 74
    },
    {
        "track": 2,
        "absoluteTick": 31080,
        "noteNumber": 54,
        "velocity": 74
    },
    {
        "track": 0,
        "absoluteTick": 31200,
        "noteNumber": 67,
        "velocity": 90
    },
    {
        "track": 1,
        "absoluteTick": 31200,
        "noteNumber": 57,
        "velocity": 74
    },
    {
        "track": 2,
        "absoluteTick": 31200,
        "noteNumber": 54,
        "velocity": 74
    },
    {
        "track": 3,
        "absoluteTick": 31200,
        "noteNumber": 42,
        "velocity": 74
    },
    {
        "track": 4,
        "absoluteTick": 31200,
        "noteNumber": 42,
        "velocity": 74
    },
    {
        "track": 0,
        "absoluteTick": 31320,
        "noteNumber": 67,
        "velocity": 91
    },
    {
        "track": 1,
        "absoluteTick": 31320,
        "noteNumber": 57,
        "velocity": 75
    },
    {
        "track": 2,
        "absoluteTick": 31320,
        "noteNumber": 54,
        "velocity": 75
    },
    {
        "track": 0,
        "absoluteTick": 31440,
        "noteNumber": 69,
        "velocity": 92
    },
    {
        "track": 1,
        "absoluteTick": 31440,
        "noteNumber": 57,
        "velocity": 76
    },
    {
        "track": 2,
        "absoluteTick": 31440,
        "noteNumber": 54,
        "velocity": 76
    },
    {
        "track": 3,
        "absoluteTick": 31440,
        "noteNumber": 42,
        "velocity": 76
    },
    {
        "track": 4,
        "absoluteTick": 31440,
        "noteNumber": 42,
        "velocity": 76
    },
    {
        "track": 0,
        "absoluteTick": 31560,
        "noteNumber": 69,
        "velocity": 92
    },
    {
        "track": 1,
        "absoluteTick": 31560,
        "noteNumber": 57,
        "velocity": 76
    },
    {
        "track": 2,
        "absoluteTick": 31560,
        "noteNumber": 54,
        "velocity": 76
    },
    {
        "track": 0,
        "absoluteTick": 31680,
        "noteNumber": 70,
        "velocity": 93
    },
    {
        "track": 1,
        "absoluteTick": 31680,
        "noteNumber": 57,
        "velocity": 77
    },
    {
        "track": 2,
        "absoluteTick": 31680,
        "noteNumber": 54,
        "velocity": 77
    },
    {
        "track": 3,
        "absoluteTick": 31680,
        "noteNumber": 42,
        "velocity": 77
    },
    {
        "track": 4,
        "absoluteTick": 31680,
        "noteNumber": 42,
        "velocity": 77
    },
    {
        "track": 0,
        "absoluteTick": 31800,
        "noteNumber": 70,
        "velocity": 94
    },
    {
        "track": 1,
        "absoluteTick": 31800,
        "noteNumber": 57,
        "velocity": 78
    },
    {
        "track": 2,
        "absoluteTick": 31800,
        "noteNumber": 54,
        "velocity": 78
    },
    {
        "track": 0,
        "absoluteTick": 31920,
        "noteNumber": 74,
        "velocity": 94
    },
    {
        "track": 1,
        "absoluteTick": 31920,
        "noteNumber": 57,
        "velocity": 78
    },
    {
        "track": 2,
        "absoluteTick": 31920,
        "noteNumber": 54,
        "velocity": 78
    },
    {
        "track": 3,
        "absoluteTick": 31920,
        "noteNumber": 42,
        "velocity": 78
    },
    {
        "track": 4,
        "absoluteTick": 31920,
        "noteNumber": 42,
        "velocity": 78
    },
    {
        "track": 0,
        "absoluteTick": 32040,
        "noteNumber": 74,
        "velocity": 95
    },
    {
        "track": 1,
        "absoluteTick": 32040,
        "noteNumber": 57,
        "velocity": 79
    },
    {
        "track": 2,
        "absoluteTick": 32040,
        "noteNumber": 54,
        "velocity": 79
    },
    {
        "track": 0,
        "absoluteTick": 32160,
        "noteNumber": 79,
        "velocity": 96
    },
    {
        "track": 1,
        "absoluteTick": 32160,
        "noteNumber": 55,
        "velocity": 80
    },
    {
        "track": 2,
        "absoluteTick": 32160,
        "noteNumber": 55,
        "velocity": 80
    },
    {
        "track": 3,
        "absoluteTick": 32160,
        "noteNumber": 43,
        "velocity": 80
    },
    {
        "track": 4,
        "absoluteTick": 32160,
        "noteNumber": 31,
        "velocity": 80
    },
    {
        "track": 1,
        "absoluteTick": 32400,
        "noteNumber": 67,
        "velocity": 80
    },
    {
        "track": 1,
        "absoluteTick": 32520,
        "noteNumber": 67,
        "velocity": 80
    },
    {
        "track": 1,
        "absoluteTick": 32640,
        "noteNumber": 67,
        "velocity": 80
    },
    {
        "track": 2,
        "absoluteTick": 32640,
        "noteNumber": 55,
        "velocity": 80
    },
    {
        "track": 3,
        "absoluteTick": 32880,
        "noteNumber": 43,
        "velocity": 80
    },
    {
        "track": 4,
        "absoluteTick": 32880,
        "noteNumber": 31,
        "velocity": 80
    },
    {
        "track": 1,
        "absoluteTick": 33120,
        "noteNumber": 67,
        "velocity": 80
    },
    {
        "track": 2,
        "absoluteTick": 33120,
        "noteNumber": 55,
        "velocity": 80
    },
    {
        "track": 3,
        "absoluteTick": 33360,
        "noteNumber": 43,
        "velocity": 80
    },
    {
        "track": 4,
        "absoluteTick": 33360,
        "noteNumber": 31,
        "velocity": 80
    },
    {
        "track": 1,
        "absoluteTick": 33600,
        "noteNumber": 67,
        "velocity": 80
    },
    {
        "track": 2,
        "absoluteTick": 33600,
        "noteNumber": 55,
        "velocity": 80
    },
    {
        "track": 3,
        "absoluteTick": 33840,
        "noteNumber": 43,
        "velocity": 80
    },
    {
        "track": 4,
        "absoluteTick": 33840,
        "noteNumber": 31,
        "velocity": 80
    },
    {
        "track": 1,
        "absoluteTick": 34080,
        "noteNumber": 67,
        "velocity": 80
    },
    {
        "track": 2,
        "absoluteTick": 34080,
        "noteNumber": 55,
        "velocity": 80
    },
    {
        "track": 1,
        "absoluteTick": 34320,
        "noteNumber": 67,
        "velocity": 80
    },
    {
        "track": 2,
        "absoluteTick": 34320,
        "noteNumber": 55,
        "velocity": 80
    },
    {
        "track": 0,
        "absoluteTick": 34560,
        "noteNumber": 67,
        "velocity": 96
    },
    {
        "track": 3,
        "absoluteTick": 34560,
        "noteNumber": 46,
        "velocity": 80
    },
    {
        "track": 4,
        "absoluteTick": 34560,
        "noteNumber": 34,
        "velocity": 80
    },
    {
        "track": 0,
        "absoluteTick": 34800,
        "noteNumber": 67,
        "velocity": 96
    },
    {
        "track": 1,
        "absoluteTick": 34800,
        "noteNumber": 67,
        "velocity": 80
    },
    {
        "track": 2,
        "absoluteTick": 34800,
        "noteNumber": 55,
        "velocity": 80
    },
    {
        "track": 0,
        "absoluteTick": 34920,
        "noteNumber": 67,
        "velocity": 96
    },
    {
        "track": 1,
        "absoluteTick": 34920,
        "noteNumber": 67,
        "velocity": 80
    },
    {
        "track": 0,
        "absoluteTick": 35040,
        "noteNumber": 70,
        "velocity": 96
    },
    {
        "track": 1,
        "absoluteTick": 35040,
        "noteNumber": 67,
        "velocity": 80
    },
    {
        "track": 2,
        "absoluteTick": 35040,
        "noteNumber": 55,
        "velocity": 80
    },
    {
        "track": 3,
        "absoluteTick": 35280,
        "noteNumber": 46,
        "velocity": 80
    },
    {
        "track": 4,
        "absoluteTick": 35280,
        "noteNumber": 34,
        "velocity": 80
    },
    {
        "track": 0,
        "absoluteTick": 35520,
        "noteNumber": 72,
        "velocity": 96
    },
    {
        "track": 1,
        "absoluteTick": 35520,
        "noteNumber": 67,
        "velocity": 80
    },
    {
        "track": 2,
        "absoluteTick": 35520,
        "noteNumber": 55,
        "velocity": 80
    },
    {
        "track": 3,
        "absoluteTick": 35760,
        "noteNumber": 46,
        "velocity": 80
    },
    {
        "track": 4,
        "absoluteTick": 35760,
        "noteNumber": 34,
        "velocity": 80
    },
    {
        "track": 0,
        "absoluteTick": 36000,
        "noteNumber": 74,
        "velocity": 96
    },
    {
        "track": 1,
        "absoluteTick": 36000,
        "noteNumber": 67,
        "velocity": 80
    },
    {
        "track": 2,
        "absoluteTick": 36000,
        "noteNumber": 55,
        "velocity": 80
    },
    {
        "track": 0,
        "absoluteTick": 36120,
        "noteNumber": 74,
        "velocity": 96
    },
    {
        "track": 0,
        "absoluteTick": 36240,
        "noteNumber": 74,
        "velocity": 96
    },
    {
        "track": 3,
        "absoluteTick": 36240,
        "noteNumber": 46,
        "velocity": 80
    },
    {
        "track": 4,
        "absoluteTick": 36240,
        "noteNumber": 34,
        "velocity": 80
    },
    {
        "track": 1,
        "absoluteTick": 36480,
        "noteNumber": 67,
        "velocity": 80
    },
    {
        "track": 2,
        "absoluteTick": 36480,
        "noteNumber": 55,
        "velocity": 80
    },
    {
        "track": 1,
        "absoluteTick": 36720,
        "noteNumber": 67,
        "velocity": 80
    },
    {
        "track": 2,
        "absoluteTick": 36720,
        "noteNumber": 55,
        "velocity": 80
    },
    {
        "track": 3,
        "absoluteTick": 36960,
        "noteNumber": 42,
        "velocity": 80
    },
    {
        "track": 4,
        "absoluteTick": 36960,
        "noteNumber": 30,
        "velocity": 80
    },
    {
        "track": 1,
        "absoluteTick": 37200,
        "noteNumber": 67,
        "velocity": 80
    },
    {
        "track": 2,
        "absoluteTick": 37200,
        "noteNumber": 55,
        "velocity": 80
    },
    {
        "track": 1,
        "absoluteTick": 37320,
        "noteNumber": 67,
        "velocity": 80
    },
    {
        "track": 1,
        "absoluteTick": 37440,
        "noteNumber": 67,
        "velocity": 80
    },
    {
        "track": 2,
        "absoluteTick": 37440,
        "noteNumber": 55,
        "velocity": 80
    },
    {
        "track": 3,
        "absoluteTick": 37680,
        "noteNumber": 42,
        "velocity": 80
    },
    {
        "track": 4,
        "absoluteTick": 37680,
        "noteNumber": 30,
        "velocity": 80
    },
    {
        "track": 1,
        "absoluteTick": 37920,
        "noteNumber": 67,
        "velocity": 80
    },
    {
        "track": 2,
        "absoluteTick": 37920,
        "noteNumber": 55,
        "velocity": 80
    },
    {
        "track": 3,
        "absoluteTick": 38160,
        "noteNumber": 42,
        "velocity": 80
    },
    {
        "track": 4,
        "absoluteTick": 38160,
        "noteNumber": 30,
        "velocity": 80
    },
    {
        "track": 1,
        "absoluteTick": 38400,
        "noteNumber": 67,
        "velocity": 80
    },
    {
        "track": 2,
        "absoluteTick": 38400,
        "noteNumber": 55,
        "velocity": 80
    },
    {
        "track": 3,
        "absoluteTick": 38640,
        "noteNumber": 42,
        "velocity": 80
    },
    {
        "track": 4,
        "absoluteTick": 38640,
        "noteNumber": 30,
        "velocity": 80
    },
    {
        "track": 1,
        "absoluteTick": 38880,
        "noteNumber": 67,
        "velocity": 80
    },
    {
        "track": 2,
        "absoluteTick": 38880,
        "noteNumber": 55,
        "velocity": 80
    },
    {
        "track": 1,
        "absoluteTick": 39120,
        "noteNumber": 67,
        "velocity": 80
    },
    {
        "track": 2,
        "absoluteTick": 39120,
        "noteNumber": 55,
        "velocity": 80
    },
    {
        "track": 0,
        "absoluteTick": 39360,
        "noteNumber": 67,
        "velocity": 96
    },
    {
        "track": 3,
        "absoluteTick": 39360,
        "noteNumber": 39,
        "velocity": 80
    },
    {
        "track": 4,
        "absoluteTick": 39360,
        "noteNumber": 31,
        "velocity": 80
    },
    {
        "track": 0,
        "absoluteTick": 39600,
        "noteNumber": 67,
        "velocity": 96
    },
    {
        "track": 1,
        "absoluteTick": 39600,
        "noteNumber": 67,
        "velocity": 80
    },
    {
        "track": 2,
        "absoluteTick": 39600,
        "noteNumber": 55,
        "velocity": 80
    },
    {
        "track": 0,
        "absoluteTick": 39720,
        "noteNumber": 67,
        "velocity": 96
    },
    {
        "track": 1,
        "absoluteTick": 39720,
        "noteNumber": 67,
        "velocity": 80
    },
    {
        "track": 0,
        "absoluteTick": 39840,
        "noteNumber": 70,
        "velocity": 96
    },
    {
        "track": 1,
        "absoluteTick": 39840,
        "noteNumber": 67,
        "velocity": 80
    },
    {
        "track": 2,
        "absoluteTick": 39840,
        "noteNumber": 55,
        "velocity": 80
    },
    {
        "track": 3,
        "absoluteTick": 40080,
        "noteNumber": 39,
        "velocity": 80
    },
    {
        "track": 4,
        "absoluteTick": 40080,
        "noteNumber": 31,
        "velocity": 80
    },
    {
        "track": 0,
        "absoluteTick": 40320,
        "noteNumber": 72,
        "velocity": 96
    },
    {
        "track": 1,
        "absoluteTick": 40320,
        "noteNumber": 67,
        "velocity": 80
    },
    {
        "track": 2,
        "absoluteTick": 40320,
        "noteNumber": 55,
        "velocity": 80
    },
    {
        "track": 3,
        "absoluteTick": 40560,
        "noteNumber": 39,
        "velocity": 80
    },
    {
        "track": 4,
        "absoluteTick": 40560,
        "noteNumber": 31,
        "velocity": 80
    },
    {
        "track": 0,
        "absoluteTick": 40800,
        "noteNumber": 74,
        "velocity": 96
    },
    {
        "track": 1,
        "absoluteTick": 40800,
        "noteNumber": 67,
        "velocity": 80
    },
    {
        "track": 2,
        "absoluteTick": 40800,
        "noteNumber": 55,
        "velocity": 80
    },
    {
        "track": 0,
        "absoluteTick": 40920,
        "noteNumber": 75,
        "velocity": 96
    },
    {
        "track": 0,
        "absoluteTick": 41040,
        "noteNumber": 74,
        "velocity": 96
    },
    {
        "track": 3,
        "absoluteTick": 41040,
        "noteNumber": 42,
        "velocity": 80
    },
    {
        "track": 4,
        "absoluteTick": 41040,
        "noteNumber": 30,
        "velocity": 80
    },
    {
        "track": 0,
        "absoluteTick": 41160,
        "noteNumber": 75,
        "velocity": 96
    },
    {
        "track": 0,
        "absoluteTick": 41280,
        "noteNumber": 74,
        "velocity": 96
    },
    {
        "track": 1,
        "absoluteTick": 41280,
        "noteNumber": 67,
        "velocity": 80
    },
    {
        "track": 2,
        "absoluteTick": 41280,
        "noteNumber": 55,
        "velocity": 80
    },
    {
        "track": 0,
        "absoluteTick": 41400,
        "noteNumber": 75,
        "velocity": 96
    },
    {
        "track": 0,
        "absoluteTick": 41520,
        "noteNumber": 74,
        "velocity": 96
    },
    {
        "track": 1,
        "absoluteTick": 41520,
        "noteNumber": 67,
        "velocity": 80
    },
    {
        "track": 2,
        "absoluteTick": 41520,
        "noteNumber": 55,
        "velocity": 80
    },
    {
        "track": 0,
        "absoluteTick": 41640,
        "noteNumber": 75,
        "velocity": 96
    },
    {
        "track": 0,
        "absoluteTick": 41760,
        "noteNumber": 74,
        "velocity": 96
    },
    {
        "track": 3,
        "absoluteTick": 41760,
        "noteNumber": 43,
        "velocity": 80
    },
    {
        "track": 4,
        "absoluteTick": 41760,
        "noteNumber": 31,
        "velocity": 80
    },
    {
        "track": 0,
        "absoluteTick": 42000,
        "noteNumber": 79,
        "velocity": 96
    },
    {
        "track": 1,
        "absoluteTick": 42000,
        "noteNumber": 67,
        "velocity": 80
    },
    {
        "track": 2,
        "absoluteTick": 42000,
        "noteNumber": 55,
        "velocity": 80
    },
    {
        "track": 1,
        "absoluteTick": 42120,
        "noteNumber": 67,
        "velocity": 80
    },
    {
        "track": 0,
        "absoluteTick": 42240,
        "noteNumber": 82,
        "velocity": 96
    },
    {
        "track": 1,
        "absoluteTick": 42240,
        "noteNumber": 67,
        "velocity": 80
    },
    {
        "track": 2,
        "absoluteTick": 42240,
        "noteNumber": 55,
        "velocity": 80
    },
    {
        "track": 3,
        "absoluteTick": 42480,
        "noteNumber": 43,
        "velocity": 80
    },
    {
        "track": 4,
        "absoluteTick": 42480,
        "noteNumber": 31,
        "velocity": 80
    },
    {
        "track": 0,
        "absoluteTick": 42720,
        "noteNumber": 79,
        "velocity": 96
    },
    {
        "track": 1,
        "absoluteTick": 42720,
        "noteNumber": 67,
        "velocity": 80
    },
    {
        "track": 2,
        "absoluteTick": 42720,
        "noteNumber": 55,
        "velocity": 80
    },
    {
        "track": 0,
        "absoluteTick": 42960,
        "noteNumber": 81,
        "velocity": 96
    },
    {
        "track": 3,
        "absoluteTick": 42960,
        "noteNumber": 43,
        "velocity": 80
    },
    {
        "track": 4,
        "absoluteTick": 42960,
        "noteNumber": 31,
        "velocity": 80
    },
    {
        "track": 1,
        "absoluteTick": 43200,
        "noteNumber": 67,
        "velocity": 80
    },
    {
        "track": 2,
        "absoluteTick": 43200,
        "noteNumber": 55,
        "velocity": 80
    },
    {
        "track": 0,
        "absoluteTick": 43440,
        "noteNumber": 74,
        "velocity": 96
    },
    {
        "track": 3,
        "absoluteTick": 43440,
        "noteNumber": 43,
        "velocity": 80
    },
    {
        "track": 4,
        "absoluteTick": 43440,
        "noteNumber": 31,
        "velocity": 80
    },
    {
        "track": 0,
        "absoluteTick": 43680,
        "noteNumber": 79,
        "velocity": 96
    },
    {
        "track": 1,
        "absoluteTick": 43680,
        "noteNumber": 67,
        "velocity": 80
    },
    {
        "track": 2,
        "absoluteTick": 43680,
        "noteNumber": 55,
        "velocity": 80
    },
    {
        "track": 0,
        "absoluteTick": 43800,
        "noteNumber": 79,
        "velocity": 96
    },
    {
        "track": 0,
        "absoluteTick": 43920,
        "noteNumber": 79,
        "velocity": 96
    },
    {
        "track": 1,
        "absoluteTick": 43920,
        "noteNumber": 67,
        "velocity": 80
    },
    {
        "track": 2,
        "absoluteTick": 43920,
        "noteNumber": 55,
        "velocity": 80
    },
    {
        "track": 0,
        "absoluteTick": 44160,
        "noteNumber": 79,
        "velocity": 96
    },
    {
        "track": 3,
        "absoluteTick": 44160,
        "noteNumber": 46,
        "velocity": 80
    },
    {
        "track": 4,
        "absoluteTick": 44160,
        "noteNumber": 34,
        "velocity": 80
    },
    {
        "track": 0,
        "absoluteTick": 44400,
        "noteNumber": 79,
        "velocity": 96
    },
    {
        "track": 1,
        "absoluteTick": 44400,
        "noteNumber": 67,
        "velocity": 80
    },
    {
        "track": 2,
        "absoluteTick": 44400,
        "noteNumber": 55,
        "velocity": 80
    },
    {
        "track": 1,
        "absoluteTick": 44520,
        "noteNumber": 67,
        "velocity": 80
    },
    {
        "track": 0,
        "absoluteTick": 44640,
        "noteNumber": 82,
        "velocity": 96
    },
    {
        "track": 1,
        "absoluteTick": 44640,
        "noteNumber": 67,
        "velocity": 80
    },
    {
        "track": 2,
        "absoluteTick": 44640,
        "noteNumber": 55,
        "velocity": 80
    },
    {
        "track": 3,
        "absoluteTick": 44880,
        "noteNumber": 46,
        "velocity": 80
    },
    {
        "track": 4,
        "absoluteTick": 44880,
        "noteNumber": 34,
        "velocity": 80
    },
    {
        "track": 0,
        "absoluteTick": 45120,
        "noteNumber": 72,
        "velocity": 96
    },
    {
        "track": 1,
        "absoluteTick": 45120,
        "noteNumber": 67,
        "velocity": 80
    },
    {
        "track": 2,
        "absoluteTick": 45120,
        "noteNumber": 55,
        "velocity": 80
    },
    {
        "track": 3,
        "absoluteTick": 45360,
        "noteNumber": 46,
        "velocity": 80
    },
    {
        "track": 4,
        "absoluteTick": 45360,
        "noteNumber": 34,
        "velocity": 80
    },
    {
        "track": 0,
        "absoluteTick": 45600,
        "noteNumber": 74,
        "velocity": 96
    },
    {
        "track": 1,
        "absoluteTick": 45600,
        "noteNumber": 67,
        "velocity": 80
    },
    {
        "track": 2,
        "absoluteTick": 45600,
        "noteNumber": 55,
        "velocity": 80
    },
    {
        "track": 0,
        "absoluteTick": 45720,
        "noteNumber": 74,
        "velocity": 96
    },
    {
        "track": 0,
        "absoluteTick": 45840,
        "noteNumber": 74,
        "velocity": 96
    },
    {
        "track": 3,
        "absoluteTick": 45840,
        "noteNumber": 46,
        "velocity": 80
    },
    {
        "track": 4,
        "absoluteTick": 45840,
        "noteNumber": 34,
        "velocity": 80
    },
    {
        "track": 1,
        "absoluteTick": 46080,
        "noteNumber": 67,
        "velocity": 80
    },
    {
        "track": 2,
        "absoluteTick": 46080,
        "noteNumber": 55,
        "velocity": 80
    },
    {
        "track": 1,
        "absoluteTick": 46320,
        "noteNumber": 67,
        "velocity": 80
    },
    {
        "track": 2,
        "absoluteTick": 46320,
        "noteNumber": 55,
        "velocity": 80
    },
    {
        "track": 3,
        "absoluteTick": 46560,
        "noteNumber": 42,
        "velocity": 80
    },
    {
        "track": 4,
        "absoluteTick": 46560,
        "noteNumber": 30,
        "velocity": 80
    },
    {
        "track": 0,
        "absoluteTick": 46800,
        "noteNumber": 79,
        "velocity": 96
    },
    {
        "track": 1,
        "absoluteTick": 46800,
        "noteNumber": 67,
        "velocity": 80
    },
    {
        "track": 2,
        "absoluteTick": 46800,
        "noteNumber": 55,
        "velocity": 80
    },
    {
        "track": 1,
        "absoluteTick": 46920,
        "noteNumber": 67,
        "velocity": 80
    },
    {
        "track": 0,
        "absoluteTick": 47040,
        "noteNumber": 82,
        "velocity": 96
    },
    {
        "track": 1,
        "absoluteTick": 47040,
        "noteNumber": 67,
        "velocity": 80
    },
    {
        "track": 2,
        "absoluteTick": 47040,
        "noteNumber": 55,
        "velocity": 80
    },
    {
        "track": 3,
        "absoluteTick": 47280,
        "noteNumber": 42,
        "velocity": 80
    },
    {
        "track": 4,
        "absoluteTick": 47280,
        "noteNumber": 30,
        "velocity": 80
    },
    {
        "track": 0,
        "absoluteTick": 47520,
        "noteNumber": 79,
        "velocity": 96
    },
    {
        "track": 1,
        "absoluteTick": 47520,
        "noteNumber": 67,
        "velocity": 80
    },
    {
        "track": 2,
        "absoluteTick": 47520,
        "noteNumber": 55,
        "velocity": 80
    },
    {
        "track": 0,
        "absoluteTick": 47760,
        "noteNumber": 81,
        "velocity": 96
    },
    {
        "track": 3,
        "absoluteTick": 47760,
        "noteNumber": 42,
        "velocity": 80
    },
    {
        "track": 4,
        "absoluteTick": 47760,
        "noteNumber": 30,
        "velocity": 80
    },
    {
        "track": 1,
        "absoluteTick": 48000,
        "noteNumber": 67,
        "velocity": 80
    },
    {
        "track": 2,
        "absoluteTick": 48000,
        "noteNumber": 55,
        "velocity": 80
    },
    {
        "track": 0,
        "absoluteTick": 48240,
        "noteNumber": 74,
        "velocity": 96
    },
    {
        "track": 3,
        "absoluteTick": 48240,
        "noteNumber": 42,
        "velocity": 80
    },
    {
        "track": 4,
        "absoluteTick": 48240,
        "noteNumber": 30,
        "velocity": 80
    },
    {
        "track": 0,
        "absoluteTick": 48480,
        "noteNumber": 79,
        "velocity": 96
    },
    {
        "track": 1,
        "absoluteTick": 48480,
        "noteNumber": 67,
        "velocity": 80
    },
    {
        "track": 2,
        "absoluteTick": 48480,
        "noteNumber": 55,
        "velocity": 80
    },
    {
        "track": 0,
        "absoluteTick": 48600,
        "noteNumber": 79,
        "velocity": 96
    },
    {
        "track": 0,
        "absoluteTick": 48720,
        "noteNumber": 79,
        "velocity": 96
    },
    {
        "track": 1,
        "absoluteTick": 48720,
        "noteNumber": 67,
        "velocity": 80
    },
    {
        "track": 2,
        "absoluteTick": 48720,
        "noteNumber": 55,
        "velocity": 80
    },
    {
        "track": 0,
        "absoluteTick": 48960,
        "noteNumber": 79,
        "velocity": 96
    },
    {
        "track": 3,
        "absoluteTick": 48960,
        "noteNumber": 39,
        "velocity": 80
    },
    {
        "track": 4,
        "absoluteTick": 48960,
        "noteNumber": 31,
        "velocity": 80
    },
    {
        "track": 0,
        "absoluteTick": 49200,
        "noteNumber": 67,
        "velocity": 96
    },
    {
        "track": 1,
        "absoluteTick": 49200,
        "noteNumber": 67,
        "velocity": 80
    },
    {
        "track": 2,
        "absoluteTick": 49200,
        "noteNumber": 55,
        "velocity": 80
    },
    {
        "track": 1,
        "absoluteTick": 49320,
        "noteNumber": 67,
        "velocity": 80
    },
    {
        "track": 0,
        "absoluteTick": 49440,
        "noteNumber": 70,
        "velocity": 96
    },
    {
        "track": 1,
        "absoluteTick": 49440,
        "noteNumber": 67,
        "velocity": 80
    },
    {
        "track": 2,
        "absoluteTick": 49440,
        "noteNumber": 55,
        "velocity": 80
    },
    {
        "track": 3,
        "absoluteTick": 49680,
        "noteNumber": 39,
        "velocity": 80
    },
    {
        "track": 4,
        "absoluteTick": 49680,
        "noteNumber": 31,
        "velocity": 80
    },
    {
        "track": 0,
        "absoluteTick": 49920,
        "noteNumber": 72,
        "velocity": 96
    },
    {
        "track": 1,
        "absoluteTick": 49920,
        "noteNumber": 67,
        "velocity": 80
    },
    {
        "track": 2,
        "absoluteTick": 49920,
        "noteNumber": 55,
        "velocity": 80
    },
    {
        "track": 3,
        "absoluteTick": 50160,
        "noteNumber": 39,
        "velocity": 80
    },
    {
        "track": 4,
        "absoluteTick": 50160,
        "noteNumber": 31,
        "velocity": 80
    },
    {
        "track": 0,
        "absoluteTick": 50400,
        "noteNumber": 74,
        "velocity": 96
    },
    {
        "track": 1,
        "absoluteTick": 50400,
        "noteNumber": 67,
        "velocity": 80
    },
    {
        "track": 2,
        "absoluteTick": 50400,
        "noteNumber": 55,
        "velocity": 80
    },
    {
        "track": 0,
        "absoluteTick": 50520,
        "noteNumber": 75,
        "velocity": 96
    },
    {
        "track": 0,
        "absoluteTick": 50640,
        "noteNumber": 74,
        "velocity": 96
    },
    {
        "track": 3,
        "absoluteTick": 50640,
        "noteNumber": 42,
        "velocity": 80
    },
    {
        "track": 4,
        "absoluteTick": 50640,
        "noteNumber": 30,
        "velocity": 80
    },
    {
        "track": 0,
        "absoluteTick": 50760,
        "noteNumber": 75,
        "velocity": 96
    },
    {
        "track": 0,
        "absoluteTick": 50880,
        "noteNumber": 74,
        "velocity": 96
    },
    {
        "track": 1,
        "absoluteTick": 50880,
        "noteNumber": 67,
        "velocity": 80
    },
    {
        "track": 2,
        "absoluteTick": 50880,
        "noteNumber": 55,
        "velocity": 80
    },
    {
        "track": 0,
        "absoluteTick": 51000,
        "noteNumber": 75,
        "velocity": 96
    },
    {
        "track": 0,
        "absoluteTick": 51120,
        "noteNumber": 74,
        "velocity": 96
    },
    {
        "track": 1,
        "absoluteTick": 51120,
        "noteNumber": 67,
        "velocity": 80
    },
    {
        "track": 2,
        "absoluteTick": 51120,
        "noteNumber": 55,
        "velocity": 80
    },
    {
        "track": 0,
        "absoluteTick": 51240,
        "noteNumber": 75,
        "velocity": 96
    },
    {
        "track": 0,
        "absoluteTick": 51360,
        "noteNumber": 74,
        "velocity": 80
    },
    {
        "track": 3,
        "absoluteTick": 51360,
        "noteNumber": 58,
        "velocity": 96
    },
    {
        "track": 4,
        "absoluteTick": 51360,
        "noteNumber": 43,
        "velocity": 80
    },
    {
        "track": 0,
        "absoluteTick": 51600,
        "noteNumber": 67,
        "velocity": 80
    },
    {
        "track": 2,
        "absoluteTick": 51600,
        "noteNumber": 55,
        "velocity": 80
    },
    {
        "track": 0,
        "absoluteTick": 51840,
        "noteNumber": 70,
        "velocity": 80
    },
    {
        "track": 2,
        "absoluteTick": 51840,
        "noteNumber": 55,
        "velocity": 80
    },
    {
        "track": 0,
        "absoluteTick": 52080,
        "noteNumber": 67,
        "velocity": 80
    },
    {
        "track": 3,
        "absoluteTick": 52080,
        "noteNumber": 62,
        "velocity": 96
    },
    {
        "track": 4,
        "absoluteTick": 52080,
        "noteNumber": 43,
        "velocity": 80
    },
    {
        "track": 0,
        "absoluteTick": 52320,
        "noteNumber": 70,
        "velocity": 80
    },
    {
        "track": 2,
        "absoluteTick": 52320,
        "noteNumber": 55,
        "velocity": 80
    },
    {
        "track": 0,
        "absoluteTick": 52560,
        "noteNumber": 67,
        "velocity": 80
    },
    {
        "track": 4,
        "absoluteTick": 52560,
        "noteNumber": 43,
        "velocity": 80
    },
    {
        "track": 0,
        "absoluteTick": 52800,
        "noteNumber": 70,
        "velocity": 80
    },
    {
        "track": 2,
        "absoluteTick": 52800,
        "noteNumber": 55,
        "velocity": 80
    },
    {
        "track": 0,
        "absoluteTick": 53040,
        "noteNumber": 67,
        "velocity": 80
    },
    {
        "track": 4,
        "absoluteTick": 53040,
        "noteNumber": 43,
        "velocity": 80
    },
    {
        "track": 0,
        "absoluteTick": 53280,
        "noteNumber": 70,
        "velocity": 80
    },
    {
        "track": 2,
        "absoluteTick": 53280,
        "noteNumber": 55,
        "velocity": 80
    },
    {
        "track": 0,
        "absoluteTick": 53520,
        "noteNumber": 67,
        "velocity": 80
    },
    {
        "track": 2,
        "absoluteTick": 53520,
        "noteNumber": 55,
        "velocity": 80
    },
    {
        "track": 0,
        "absoluteTick": 53760,
        "noteNumber": 70,
        "velocity": 80
    },
    {
        "track": 4,
        "absoluteTick": 53760,
        "noteNumber": 46,
        "velocity": 80
    },
    {
        "track": 0,
        "absoluteTick": 54000,
        "noteNumber": 66,
        "velocity": 80
    },
    {
        "track": 2,
        "absoluteTick": 54000,
        "noteNumber": 54,
        "velocity": 80
    },
    {
        "track": 0,
        "absoluteTick": 54240,
        "noteNumber": 70,
        "velocity": 80
    },
    {
        "track": 2,
        "absoluteTick": 54240,
        "noteNumber": 54,
        "velocity": 80
    },
    {
        "track": 0,
        "absoluteTick": 54480,
        "noteNumber": 66,
        "velocity": 80
    },
    {
        "track": 4,
        "absoluteTick": 54480,
        "noteNumber": 46,
        "velocity": 80
    },
    {
        "track": 0,
        "absoluteTick": 54720,
        "noteNumber": 70,
        "velocity": 80
    },
    {
        "track": 2,
        "absoluteTick": 54720,
        "noteNumber": 54,
        "velocity": 80
    },
    {
        "track": 0,
        "absoluteTick": 54960,
        "noteNumber": 66,
        "velocity": 80
    },
    {
        "track": 4,
        "absoluteTick": 54960,
        "noteNumber": 46,
        "velocity": 80
    },
    {
        "track": 0,
        "absoluteTick": 55200,
        "noteNumber": 70,
        "velocity": 80
    },
    {
        "track": 2,
        "absoluteTick": 55200,
        "noteNumber": 54,
        "velocity": 80
    },
    {
        "track": 0,
        "absoluteTick": 55320,
        "noteNumber": 70,
        "velocity": 80
    },
    {
        "track": 0,
        "absoluteTick": 55440,
        "noteNumber": 66,
        "velocity": 80
    },
    {
        "track": 4,
        "absoluteTick": 55440,
        "noteNumber": 46,
        "velocity": 80
    },
    {
        "track": 0,
        "absoluteTick": 55680,
        "noteNumber": 70,
        "velocity": 80
    },
    {
        "track": 2,
        "absoluteTick": 55680,
        "noteNumber": 54,
        "velocity": 80
    },
    {
        "track": 3,
        "absoluteTick": 55680,
        "noteNumber": 60,
        "velocity": 96
    },
    {
        "track": 0,
        "absoluteTick": 55800,
        "noteNumber": 70,
        "velocity": 80
    },
    {
        "track": 0,
        "absoluteTick": 55920,
        "noteNumber": 66,
        "velocity": 80
    },
    {
        "track": 2,
        "absoluteTick": 55920,
        "noteNumber": 54,
        "velocity": 80
    },
    {
        "track": 3,
        "absoluteTick": 55920,
        "noteNumber": 62,
        "velocity": 96
    },
    {
        "track": 0,
        "absoluteTick": 56160,
        "noteNumber": 70,
        "velocity": 80
    },
    {
        "track": 3,
        "absoluteTick": 56160,
        "noteNumber": 63,
        "velocity": 96
    },
    {
        "track": 4,
        "absoluteTick": 56160,
        "noteNumber": 39,
        "velocity": 80
    },
    {
        "track": 0,
        "absoluteTick": 56400,
        "noteNumber": 67,
        "velocity": 80
    },
    {
        "track": 2,
        "absoluteTick": 56400,
        "noteNumber": 55,
        "velocity": 80
    },
    {
        "track": 0,
        "absoluteTick": 56640,
        "noteNumber": 70,
        "velocity": 80
    },
    {
        "track": 2,
        "absoluteTick": 56640,
        "noteNumber": 55,
        "velocity": 80
    },
    {
        "track": 3,
        "absoluteTick": 56640,
        "noteNumber": 60,
        "velocity": 96
    },
    {
        "track": 0,
        "absoluteTick": 56880,
        "noteNumber": 67,
        "velocity": 80
    },
    {
        "track": 3,
        "absoluteTick": 56880,
        "noteNumber": 58,
        "velocity": 96
    },
    {
        "track": 4,
        "absoluteTick": 56880,
        "noteNumber": 39,
        "velocity": 80
    },
    {
        "track": 0,
        "absoluteTick": 57120,
        "noteNumber": 70,
        "velocity": 80
    },
    {
        "track": 2,
        "absoluteTick": 57120,
        "noteNumber": 55,
        "velocity": 80
    },
    {
        "track": 0,
        "absoluteTick": 57360,
        "noteNumber": 67,
        "velocity": 80
    },
    {
        "track": 3,
        "absoluteTick": 57360,
        "noteNumber": 57,
        "velocity": 96
    },
    {
        "track": 4,
        "absoluteTick": 57360,
        "noteNumber": 39,
        "velocity": 80
    },
    {
        "track": 0,
        "absoluteTick": 57600,
        "noteNumber": 70,
        "velocity": 80
    },
    {
        "track": 2,
        "absoluteTick": 57600,
        "noteNumber": 55,
        "velocity": 80
    },
    {
        "track": 0,
        "absoluteTick": 57840,
        "noteNumber": 67,
        "velocity": 80
    },
    {
        "track": 3,
        "absoluteTick": 57840,
        "noteNumber": 62,
        "velocity": 96
    },
    {
        "track": 4,
        "absoluteTick": 57840,
        "noteNumber": 39,
        "velocity": 80
    },
    {
        "track": 0,
        "absoluteTick": 58080,
        "noteNumber": 70,
        "velocity": 80
    },
    {
        "track": 2,
        "absoluteTick": 58080,
        "noteNumber": 55,
        "velocity": 80
    },
    {
        "track": 0,
        "absoluteTick": 58320,
        "noteNumber": 67,
        "velocity": 80
    },
    {
        "track": 2,
        "absoluteTick": 58320,
        "noteNumber": 55,
        "velocity": 80
    },
    {
        "track": 0,
        "absoluteTick": 58560,
        "noteNumber": 70,
        "velocity": 80
    },
    {
        "track": 3,
        "absoluteTick": 58560,
        "noteNumber": 55,
        "velocity": 96
    },
    {
        "track": 4,
        "absoluteTick": 58560,
        "noteNumber": 41,
        "velocity": 80
    },
    {
        "track": 0,
        "absoluteTick": 58800,
        "noteNumber": 69,
        "velocity": 80
    },
    {
        "track": 2,
        "absoluteTick": 58800,
        "noteNumber": 55,
        "velocity": 80
    },
    {
        "track": 0,
        "absoluteTick": 59040,
        "noteNumber": 70,
        "velocity": 80
    },
    {
        "track": 2,
        "absoluteTick": 59040,
        "noteNumber": 55,
        "velocity": 80
    },
    {
        "track": 0,
        "absoluteTick": 59280,
        "noteNumber": 69,
        "velocity": 80
    },
    {
        "track": 4,
        "absoluteTick": 59280,
        "noteNumber": 41,
        "velocity": 80
    },
    {
        "track": 0,
        "absoluteTick": 59520,
        "noteNumber": 70,
        "velocity": 80
    },
    {
        "track": 2,
        "absoluteTick": 59520,
        "noteNumber": 55,
        "velocity": 80
    },
    {
        "track": 0,
        "absoluteTick": 59640,
        "noteNumber": 70,
        "velocity": 80
    },
    {
        "track": 0,
        "absoluteTick": 59760,
        "noteNumber": 69,
        "velocity": 80
    },
    {
        "track": 4,
        "absoluteTick": 59760,
        "noteNumber": 41,
        "velocity": 80
    },
    {
        "track": 0,
        "absoluteTick": 60000,
        "noteNumber": 70,
        "velocity": 80
    },
    {
        "track": 2,
        "absoluteTick": 60000,
        "noteNumber": 55,
        "velocity": 80
    },
    {
        "track": 0,
        "absoluteTick": 60120,
        "noteNumber": 70,
        "velocity": 80
    },
    {
        "track": 0,
        "absoluteTick": 60240,
        "noteNumber": 69,
        "velocity": 80
    },
    {
        "track": 4,
        "absoluteTick": 60240,
        "noteNumber": 41,
        "velocity": 80
    },
    {
        "track": 0,
        "absoluteTick": 60480,
        "noteNumber": 70,
        "velocity": 80
    },
    {
        "track": 2,
        "absoluteTick": 60480,
        "noteNumber": 55,
        "velocity": 80
    },
    {
        "track": 3,
        "absoluteTick": 60480,
        "noteNumber": 57,
        "velocity": 96
    },
    {
        "track": 0,
        "absoluteTick": 60600,
        "noteNumber": 70,
        "velocity": 80
    },
    {
        "track": 0,
        "absoluteTick": 60720,
        "noteNumber": 69,
        "velocity": 80
    },
    {
        "track": 2,
        "absoluteTick": 60720,
        "noteNumber": 55,
        "velocity": 80
    },
    {
        "track": 3,
        "absoluteTick": 60720,
        "noteNumber": 58,
        "velocity": 96
    },
    {
        "track": 0,
        "absoluteTick": 60960,
        "noteNumber": 70,
        "velocity": 80
    },
    {
        "track": 1,
        "absoluteTick": 60960,
        "noteNumber": 63,
        "velocity": 80
    },
    {
        "track": 3,
        "absoluteTick": 60960,
        "noteNumber": 60,
        "velocity": 96
    },
    {
        "track": 4,
        "absoluteTick": 60960,
        "noteNumber": 36,
        "velocity": 80
    },
    {
        "track": 0,
        "absoluteTick": 61080,
        "noteNumber": 70,
        "velocity": 80
    },
    {
        "track": 1,
        "absoluteTick": 61080,
        "noteNumber": 63,
        "velocity": 80
    },
    {
        "track": 0,
        "absoluteTick": 61200,
        "noteNumber": 67,
        "velocity": 80
    },
    {
        "track": 1,
        "absoluteTick": 61200,
        "noteNumber": 60,
        "velocity": 80
    },
    {
        "track": 2,
        "absoluteTick": 61200,
        "noteNumber": 55,
        "velocity": 80
    },
    {
        "track": 0,
        "absoluteTick": 61320,
        "noteNumber": 67,
        "velocity": 80
    },
    {
        "track": 1,
        "absoluteTick": 61320,
        "noteNumber": 60,
        "velocity": 80
    },
    {
        "track": 0,
        "absoluteTick": 61440,
        "noteNumber": 70,
        "velocity": 80
    },
    {
        "track": 1,
        "absoluteTick": 61440,
        "noteNumber": 63,
        "velocity": 80
    },
    {
        "track": 2,
        "absoluteTick": 61440,
        "noteNumber": 55,
        "velocity": 80
    },
    {
        "track": 3,
        "absoluteTick": 61440,
        "noteNumber": 58,
        "velocity": 96
    },
    {
        "track": 0,
        "absoluteTick": 61560,
        "noteNumber": 70,
        "velocity": 80
    },
    {
        "track": 1,
        "absoluteTick": 61560,
        "noteNumber": 63,
        "velocity": 80
    },
    {
        "track": 0,
        "absoluteTick": 61680,
        "noteNumber": 67,
        "velocity": 80
    },
    {
        "track": 1,
        "absoluteTick": 61680,
        "noteNumber": 60,
        "velocity": 80
    },
    {
        "track": 3,
        "absoluteTick": 61680,
        "noteNumber": 57,
        "velocity": 96
    },
    {
        "track": 4,
        "absoluteTick": 61680,
        "noteNumber": 36,
        "velocity": 80
    },
    {
        "track": 0,
        "absoluteTick": 61800,
        "noteNumber": 67,
        "velocity": 80
    },
    {
        "track": 1,
        "absoluteTick": 61800,
        "noteNumber": 60,
        "velocity": 80
    },
    {
        "track": 0,
        "absoluteTick": 61920,
        "noteNumber": 70,
        "velocity": 80
    },
    {
        "track": 1,
        "absoluteTick": 61920,
        "noteNumber": 63,
        "velocity": 80
    },
    {
        "track": 2,
        "absoluteTick": 61920,
        "noteNumber": 55,
        "velocity": 80
    },
    {
        "track": 0,
        "absoluteTick": 62040,
        "noteNumber": 70,
        "velocity": 80
    },
    {
        "track": 1,
        "absoluteTick": 62040,
        "noteNumber": 63,
        "velocity": 80
    },
    {
        "track": 0,
        "absoluteTick": 62160,
        "noteNumber": 67,
        "velocity": 80
    },
    {
        "track": 1,
        "absoluteTick": 62160,
        "noteNumber": 60,
        "velocity": 80
    },
    {
        "track": 3,
        "absoluteTick": 62160,
        "noteNumber": 55,
        "velocity": 96
    },
    {
        "track": 4,
        "absoluteTick": 62160,
        "noteNumber": 36,
        "velocity": 80
    },
    {
        "track": 0,
        "absoluteTick": 62280,
        "noteNumber": 67,
        "velocity": 80
    },
    {
        "track": 1,
        "absoluteTick": 62280,
        "noteNumber": 60,
        "velocity": 80
    },
    {
        "track": 0,
        "absoluteTick": 62400,
        "noteNumber": 70,
        "velocity": 80
    },
    {
        "track": 1,
        "absoluteTick": 62400,
        "noteNumber": 63,
        "velocity": 80
    },
    {
        "track": 2,
        "absoluteTick": 62400,
        "noteNumber": 55,
        "velocity": 80
    },
    {
        "track": 0,
        "absoluteTick": 62520,
        "noteNumber": 70,
        "velocity": 80
    },
    {
        "track": 1,
        "absoluteTick": 62520,
        "noteNumber": 63,
        "velocity": 80
    },
    {
        "track": 0,
        "absoluteTick": 62640,
        "noteNumber": 67,
        "velocity": 80
    },
    {
        "track": 1,
        "absoluteTick": 62640,
        "noteNumber": 60,
        "velocity": 80
    },
    {
        "track": 3,
        "absoluteTick": 62640,
        "noteNumber": 58,
        "velocity": 96
    },
    {
        "track": 4,
        "absoluteTick": 62640,
        "noteNumber": 36,
        "velocity": 80
    },
    {
        "track": 0,
        "absoluteTick": 62760,
        "noteNumber": 67,
        "velocity": 80
    },
    {
        "track": 1,
        "absoluteTick": 62760,
        "noteNumber": 60,
        "velocity": 80
    },
    {
        "track": 0,
        "absoluteTick": 62880,
        "noteNumber": 70,
        "velocity": 80
    },
    {
        "track": 1,
        "absoluteTick": 62880,
        "noteNumber": 63,
        "velocity": 80
    },
    {
        "track": 2,
        "absoluteTick": 62880,
        "noteNumber": 55,
        "velocity": 80
    },
    {
        "track": 0,
        "absoluteTick": 63000,
        "noteNumber": 70,
        "velocity": 80
    },
    {
        "track": 1,
        "absoluteTick": 63000,
        "noteNumber": 63,
        "velocity": 80
    },
    {
        "track": 0,
        "absoluteTick": 63120,
        "noteNumber": 67,
        "velocity": 80
    },
    {
        "track": 1,
        "absoluteTick": 63120,
        "noteNumber": 60,
        "velocity": 80
    },
    {
        "track": 2,
        "absoluteTick": 63120,
        "noteNumber": 55,
        "velocity": 80
    },
    {
        "track": 0,
        "absoluteTick": 63240,
        "noteNumber": 67,
        "velocity": 80
    },
    {
        "track": 1,
        "absoluteTick": 63240,
        "noteNumber": 60,
        "velocity": 80
    },
    {
        "track": 0,
        "absoluteTick": 63360,
        "noteNumber": 69,
        "velocity": 80
    },
    {
        "track": 1,
        "absoluteTick": 63360,
        "noteNumber": 62,
        "velocity": 80
    },
    {
        "track": 3,
        "absoluteTick": 63360,
        "noteNumber": 50,
        "velocity": 96
    },
    {
        "track": 4,
        "absoluteTick": 63360,
        "noteNumber": 38,
        "velocity": 80
    },
    {
        "track": 0,
        "absoluteTick": 63480,
        "noteNumber": 69,
        "velocity": 80
    },
    {
        "track": 1,
        "absoluteTick": 63480,
        "noteNumber": 62,
        "velocity": 80
    },
    {
        "track": 0,
        "absoluteTick": 63600,
        "noteNumber": 66,
        "velocity": 80
    },
    {
        "track": 1,
        "absoluteTick": 63600,
        "noteNumber": 57,
        "velocity": 80
    },
    {
        "track": 2,
        "absoluteTick": 63600,
        "noteNumber": 54,
        "velocity": 80
    },
    {
        "track": 0,
        "absoluteTick": 63720,
        "noteNumber": 66,
        "velocity": 80
    },
    {
        "track": 1,
        "absoluteTick": 63720,
        "noteNumber": 57,
        "velocity": 80
    },
    {
        "track": 0,
        "absoluteTick": 63840,
        "noteNumber": 69,
        "velocity": 80
    },
    {
        "track": 1,
        "absoluteTick": 63840,
        "noteNumber": 62,
        "velocity": 80
    },
    {
        "track": 2,
        "absoluteTick": 63840,
        "noteNumber": 54,
        "velocity": 80
    },
    {
        "track": 0,
        "absoluteTick": 63960,
        "noteNumber": 69,
        "velocity": 80
    },
    {
        "track": 1,
        "absoluteTick": 63960,
        "noteNumber": 62,
        "velocity": 80
    },
    {
        "track": 0,
        "absoluteTick": 64080,
        "noteNumber": 66,
        "velocity": 80
    },
    {
        "track": 1,
        "absoluteTick": 64080,
        "noteNumber": 57,
        "velocity": 80
    },
    {
        "track": 4,
        "absoluteTick": 64080,
        "noteNumber": 38,
        "velocity": 80
    },
    {
        "track": 0,
        "absoluteTick": 64200,
        "noteNumber": 66,
        "velocity": 80
    },
    {
        "track": 1,
        "absoluteTick": 64200,
        "noteNumber": 57,
        "velocity": 80
    },
    {
        "track": 0,
        "absoluteTick": 64320,
        "noteNumber": 69,
        "velocity": 80
    },
    {
        "track": 1,
        "absoluteTick": 64320,
        "noteNumber": 62,
        "velocity": 80
    },
    {
        "track": 2,
        "absoluteTick": 64320,
        "noteNumber": 54,
        "velocity": 80
    },
    {
        "track": 0,
        "absoluteTick": 64440,
        "noteNumber": 69,
        "velocity": 80
    },
    {
        "track": 1,
        "absoluteTick": 64440,
        "noteNumber": 62,
        "velocity": 80
    },
    {
        "track": 0,
        "absoluteTick": 64560,
        "noteNumber": 66,
        "velocity": 80
    },
    {
        "track": 1,
        "absoluteTick": 64560,
        "noteNumber": 57,
        "velocity": 80
    },
    {
        "track": 3,
        "absoluteTick": 64560,
        "noteNumber": 57,
        "velocity": 96
    },
    {
        "track": 4,
        "absoluteTick": 64560,
        "noteNumber": 38,
        "velocity": 80
    },
    {
        "track": 0,
        "absoluteTick": 64680,
        "noteNumber": 66,
        "velocity": 80
    },
    {
        "track": 1,
        "absoluteTick": 64680,
        "noteNumber": 57,
        "velocity": 80
    },
    {
        "track": 0,
        "absoluteTick": 64800,
        "noteNumber": 69,
        "velocity": 80
    },
    {
        "track": 1,
        "absoluteTick": 64800,
        "noteNumber": 62,
        "velocity": 80
    },
    {
        "track": 2,
        "absoluteTick": 64800,
        "noteNumber": 54,
        "velocity": 80
    },
    {
        "track": 0,
        "absoluteTick": 64920,
        "noteNumber": 69,
        "velocity": 80
    },
    {
        "track": 1,
        "absoluteTick": 64920,
        "noteNumber": 62,
        "velocity": 80
    },
    {
        "track": 0,
        "absoluteTick": 65040,
        "noteNumber": 66,
        "velocity": 80
    },
    {
        "track": 1,
        "absoluteTick": 65040,
        "noteNumber": 57,
        "velocity": 80
    },
    {
        "track": 4,
        "absoluteTick": 65040,
        "noteNumber": 38,
        "velocity": 80
    },
    {
        "track": 0,
        "absoluteTick": 65160,
        "noteNumber": 66,
        "velocity": 80
    },
    {
        "track": 1,
        "absoluteTick": 65160,
        "noteNumber": 57,
        "velocity": 80
    },
    {
        "track": 0,
        "absoluteTick": 65280,
        "noteNumber": 69,
        "velocity": 80
    },
    {
        "track": 1,
        "absoluteTick": 65280,
        "noteNumber": 62,
        "velocity": 80
    },
    {
        "track": 2,
        "absoluteTick": 65280,
        "noteNumber": 54,
        "velocity": 80
    },
    {
        "track": 0,
        "absoluteTick": 65400,
        "noteNumber": 69,
        "velocity": 80
    },
    {
        "track": 1,
        "absoluteTick": 65400,
        "noteNumber": 62,
        "velocity": 80
    },
    {
        "track": 0,
        "absoluteTick": 65520,
        "noteNumber": 66,
        "velocity": 80
    },
    {
        "track": 1,
        "absoluteTick": 65520,
        "noteNumber": 57,
        "velocity": 80
    },
    {
        "track": 2,
        "absoluteTick": 65520,
        "noteNumber": 54,
        "velocity": 80
    },
    {
        "track": 0,
        "absoluteTick": 65640,
        "noteNumber": 66,
        "velocity": 80
    },
    {
        "track": 1,
        "absoluteTick": 65640,
        "noteNumber": 57,
        "velocity": 80
    },
    {
        "track": 0,
        "absoluteTick": 65760,
        "noteNumber": 69,
        "velocity": 80
    },
    {
        "track": 1,
        "absoluteTick": 65760,
        "noteNumber": 60,
        "velocity": 80
    },
    {
        "track": 3,
        "absoluteTick": 65760,
        "noteNumber": 58,
        "velocity": 96
    },
    {
        "track": 4,
        "absoluteTick": 65760,
        "noteNumber": 41,
        "velocity": 80
    },
    {
        "track": 0,
        "absoluteTick": 65880,
        "noteNumber": 69,
        "velocity": 80
    },
    {
        "track": 1,
        "absoluteTick": 65880,
        "noteNumber": 60,
        "velocity": 80
    },
    {
        "track": 0,
        "absoluteTick": 66000,
        "noteNumber": 65,
        "velocity": 80
    },
    {
        "track": 1,
        "absoluteTick": 66000,
        "noteNumber": 57,
        "velocity": 80
    },
    {
        "track": 2,
        "absoluteTick": 66000,
        "noteNumber": 60,
        "velocity": 80
    },
    {
        "track": 0,
        "absoluteTick": 66120,
        "noteNumber": 65,
        "velocity": 80
    },
    {
        "track": 1,
        "absoluteTick": 66120,
        "noteNumber": 57,
        "velocity": 80
    },
    {
        "track": 0,
        "absoluteTick": 66240,
        "noteNumber": 69,
        "velocity": 80
    },
    {
        "track": 1,
        "absoluteTick": 66240,
        "noteNumber": 60,
        "velocity": 80
    },
    {
        "track": 2,
        "absoluteTick": 66240,
        "noteNumber": 60,
        "velocity": 80
    },
    {
        "track": 3,
        "absoluteTick": 66240,
        "noteNumber": 60,
        "velocity": 96
    },
    {
        "track": 0,
        "absoluteTick": 66360,
        "noteNumber": 69,
        "velocity": 80
    },
    {
        "track": 1,
        "absoluteTick": 66360,
        "noteNumber": 60,
        "velocity": 80
    },
    {
        "track": 0,
        "absoluteTick": 66480,
        "noteNumber": 65,
        "velocity": 80
    },
    {
        "track": 1,
        "absoluteTick": 66480,
        "noteNumber": 57,
        "velocity": 80
    },
    {
        "track": 3,
        "absoluteTick": 66480,
        "noteNumber": 58,
        "velocity": 96
    },
    {
        "track": 4,
        "absoluteTick": 66480,
        "noteNumber": 41,
        "velocity": 80
    },
    {
        "track": 0,
        "absoluteTick": 66600,
        "noteNumber": 65,
        "velocity": 80
    },
    {
        "track": 1,
        "absoluteTick": 66600,
        "noteNumber": 57,
        "velocity": 80
    },
    {
        "track": 0,
        "absoluteTick": 66720,
        "noteNumber": 69,
        "velocity": 80
    },
    {
        "track": 1,
        "absoluteTick": 66720,
        "noteNumber": 60,
        "velocity": 80
    },
    {
        "track": 2,
        "absoluteTick": 66720,
        "noteNumber": 60,
        "velocity": 80
    },
    {
        "track": 0,
        "absoluteTick": 66840,
        "noteNumber": 69,
        "velocity": 80
    },
    {
        "track": 1,
        "absoluteTick": 66840,
        "noteNumber": 60,
        "velocity": 80
    },
    {
        "track": 0,
        "absoluteTick": 66960,
        "noteNumber": 65,
        "velocity": 80
    },
    {
        "track": 1,
        "absoluteTick": 66960,
        "noteNumber": 57,
        "velocity": 80
    },
    {
        "track": 3,
        "absoluteTick": 66960,
        "noteNumber": 57,
        "velocity": 96
    },
    {
        "track": 4,
        "absoluteTick": 66960,
        "noteNumber": 41,
        "velocity": 80
    },
    {
        "track": 0,
        "absoluteTick": 67080,
        "noteNumber": 65,
        "velocity": 80
    },
    {
        "track": 1,
        "absoluteTick": 67080,
        "noteNumber": 57,
        "velocity": 80
    },
    {
        "track": 0,
        "absoluteTick": 67200,
        "noteNumber": 69,
        "velocity": 80
    },
    {
        "track": 1,
        "absoluteTick": 67200,
        "noteNumber": 60,
        "velocity": 80
    },
    {
        "track": 2,
        "absoluteTick": 67200,
        "noteNumber": 60,
        "velocity": 80
    },
    {
        "track": 0,
        "absoluteTick": 67320,
        "noteNumber": 69,
        "velocity": 80
    },
    {
        "track": 1,
        "absoluteTick": 67320,
        "noteNumber": 60,
        "velocity": 80
    },
    {
        "track": 0,
        "absoluteTick": 67440,
        "noteNumber": 65,
        "velocity": 80
    },
    {
        "track": 1,
        "absoluteTick": 67440,
        "noteNumber": 57,
        "velocity": 80
    },
    {
        "track": 3,
        "absoluteTick": 67440,
        "noteNumber": 55,
        "velocity": 96
    },
    {
        "track": 4,
        "absoluteTick": 67440,
        "noteNumber": 41,
        "velocity": 80
    },
    {
        "track": 0,
        "absoluteTick": 67560,
        "noteNumber": 65,
        "velocity": 80
    },
    {
        "track": 1,
        "absoluteTick": 67560,
        "noteNumber": 57,
        "velocity": 80
    },
    {
        "track": 0,
        "absoluteTick": 67680,
        "noteNumber": 69,
        "velocity": 80
    },
    {
        "track": 1,
        "absoluteTick": 67680,
        "noteNumber": 60,
        "velocity": 80
    },
    {
        "track": 2,
        "absoluteTick": 67680,
        "noteNumber": 60,
        "velocity": 80
    },
    {
        "track": 3,
        "absoluteTick": 67680,
        "noteNumber": 58,
        "velocity": 96
    },
    {
        "track": 0,
        "absoluteTick": 67800,
        "noteNumber": 69,
        "velocity": 80
    },
    {
        "track": 1,
        "absoluteTick": 67800,
        "noteNumber": 60,
        "velocity": 80
    },
    {
        "track": 0,
        "absoluteTick": 67920,
        "noteNumber": 65,
        "velocity": 80
    },
    {
        "track": 1,
        "absoluteTick": 67920,
        "noteNumber": 57,
        "velocity": 80
    },
    {
        "track": 2,
        "absoluteTick": 67920,
        "noteNumber": 60,
        "velocity": 80
    },
    {
        "track": 3,
        "absoluteTick": 67920,
        "noteNumber": 57,
        "velocity": 96
    },
    {
        "track": 0,
        "absoluteTick": 68040,
        "noteNumber": 65,
        "velocity": 80
    },
    {
        "track": 1,
        "absoluteTick": 68040,
        "noteNumber": 57,
        "velocity": 80
    },
    {
        "track": 0,
        "absoluteTick": 68160,
        "noteNumber": 70,
        "velocity": 80
    },
    {
        "track": 1,
        "absoluteTick": 68160,
        "noteNumber": 63,
        "velocity": 80
    },
    {
        "track": 3,
        "absoluteTick": 68160,
        "noteNumber": 55,
        "velocity": 96
    },
    {
        "track": 4,
        "absoluteTick": 68160,
        "noteNumber": 36,
        "velocity": 80
    },
    {
        "track": 0,
        "absoluteTick": 68280,
        "noteNumber": 70,
        "velocity": 80
    },
    {
        "track": 1,
        "absoluteTick": 68280,
        "noteNumber": 63,
        "velocity": 80
    },
    {
        "track": 0,
        "absoluteTick": 68400,
        "noteNumber": 67,
        "velocity": 80
    },
    {
        "track": 1,
        "absoluteTick": 68400,
        "noteNumber": 60,
        "velocity": 80
    },
    {
        "track": 2,
        "absoluteTick": 68400,
        "noteNumber": 63,
        "velocity": 80
    },
    {
        "track": 0,
        "absoluteTick": 68520,
        "noteNumber": 67,
        "velocity": 80
    },
    {
        "track": 1,
        "absoluteTick": 68520,
        "noteNumber": 60,
        "velocity": 80
    },
    {
        "track": 0,
        "absoluteTick": 68640,
        "noteNumber": 70,
        "velocity": 80
    },
    {
        "track": 1,
        "absoluteTick": 68640,
        "noteNumber": 63,
        "velocity": 80
    },
    {
        "track": 2,
        "absoluteTick": 68640,
        "noteNumber": 63,
        "velocity": 80
    },
    {
        "track": 0,
        "absoluteTick": 68760,
        "noteNumber": 70,
        "velocity": 80
    },
    {
        "track": 1,
        "absoluteTick": 68760,
        "noteNumber": 63,
        "velocity": 80
    },
    {
        "track": 0,
        "absoluteTick": 68880,
        "noteNumber": 67,
        "velocity": 80
    },
    {
        "track": 1,
        "absoluteTick": 68880,
        "noteNumber": 60,
        "velocity": 80
    },
    {
        "track": 4,
        "absoluteTick": 68880,
        "noteNumber": 36,
        "velocity": 112
    },
    {
        "track": 0,
        "absoluteTick": 69000,
        "noteNumber": 67,
        "velocity": 80
    },
    {
        "track": 1,
        "absoluteTick": 69000,
        "noteNumber": 60,
        "velocity": 80
    },
    {
        "track": 0,
        "absoluteTick": 69120,
        "noteNumber": 70,
        "velocity": 80
    },
    {
        "track": 1,
        "absoluteTick": 69120,
        "noteNumber": 63,
        "velocity": 80
    },
    {
        "track": 2,
        "absoluteTick": 69120,
        "noteNumber": 63,
        "velocity": 80
    },
    {
        "track": 4,
        "absoluteTick": 69120,
        "noteNumber": 50,
        "velocity": 127
    },
    {
        "track": 0,
        "absoluteTick": 69240,
        "noteNumber": 70,
        "velocity": 80
    },
    {
        "track": 1,
        "absoluteTick": 69240,
        "noteNumber": 63,
        "velocity": 80
    },
    {
        "track": 4,
        "absoluteTick": 69240,
        "noteNumber": 50,
        "velocity": 127
    },
    {
        "track": 0,
        "absoluteTick": 69360,
        "noteNumber": 67,
        "velocity": 80
    },
    {
        "track": 1,
        "absoluteTick": 69360,
        "noteNumber": 60,
        "velocity": 80
    },
    {
        "track": 4,
        "absoluteTick": 69360,
        "noteNumber": 49,
        "velocity": 127
    },
    {
        "track": 0,
        "absoluteTick": 69480,
        "noteNumber": 67,
        "velocity": 80
    },
    {
        "track": 1,
        "absoluteTick": 69480,
        "noteNumber": 60,
        "velocity": 80
    },
    {
        "track": 4,
        "absoluteTick": 69480,
        "noteNumber": 49,
        "velocity": 127
    },
    {
        "track": 0,
        "absoluteTick": 69600,
        "noteNumber": 70,
        "velocity": 80
    },
    {
        "track": 1,
        "absoluteTick": 69600,
        "noteNumber": 63,
        "velocity": 80
    },
    {
        "track": 2,
        "absoluteTick": 69600,
        "noteNumber": 63,
        "velocity": 80
    },
    {
        "track": 4,
        "absoluteTick": 69600,
        "noteNumber": 48,
        "velocity": 127
    },
    {
        "track": 0,
        "absoluteTick": 69720,
        "noteNumber": 70,
        "velocity": 80
    },
    {
        "track": 1,
        "absoluteTick": 69720,
        "noteNumber": 63,
        "velocity": 80
    },
    {
        "track": 4,
        "absoluteTick": 69720,
        "noteNumber": 48,
        "velocity": 127
    },
    {
        "track": 0,
        "absoluteTick": 69840,
        "noteNumber": 67,
        "velocity": 80
    },
    {
        "track": 1,
        "absoluteTick": 69840,
        "noteNumber": 60,
        "velocity": 80
    },
    {
        "track": 4,
        "absoluteTick": 69840,
        "noteNumber": 47,
        "velocity": 127
    },
    {
        "track": 0,
        "absoluteTick": 69960,
        "noteNumber": 67,
        "velocity": 80
    },
    {
        "track": 1,
        "absoluteTick": 69960,
        "noteNumber": 60,
        "velocity": 80
    },
    {
        "track": 4,
        "absoluteTick": 69960,
        "noteNumber": 47,
        "velocity": 127
    },
    {
        "track": 0,
        "absoluteTick": 70080,
        "noteNumber": 78,
        "velocity": 96
    },
    {
        "track": 1,
        "absoluteTick": 70080,
        "noteNumber": 66,
        "velocity": 96
    },
    {
        "track": 2,
        "absoluteTick": 70080,
        "noteNumber": 63,
        "velocity": 80
    },
    {
        "track": 4,
        "absoluteTick": 70080,
        "noteNumber": 46,
        "velocity": 127
    },
    {
        "track": 0,
        "absoluteTick": 70200,
        "noteNumber": 79,
        "velocity": 96
    },
    {
        "track": 1,
        "absoluteTick": 70200,
        "noteNumber": 67,
        "velocity": 96
    },
    {
        "track": 4,
        "absoluteTick": 70200,
        "noteNumber": 46,
        "velocity": 127
    },
    {
        "track": 0,
        "absoluteTick": 70320,
        "noteNumber": 80,
        "velocity": 96
    },
    {
        "track": 1,
        "absoluteTick": 70320,
        "noteNumber": 68,
        "velocity": 96
    },
    {
        "track": 2,
        "absoluteTick": 70320,
        "noteNumber": 63,
        "velocity": 80
    },
    {
        "track": 4,
        "absoluteTick": 70320,
        "noteNumber": 45,
        "velocity": 127
    },
    {
        "track": 0,
        "absoluteTick": 70440,
        "noteNumber": 81,
        "velocity": 96
    },
    {
        "track": 1,
        "absoluteTick": 70440,
        "noteNumber": 69,
        "velocity": 96
    },
    {
        "track": 4,
        "absoluteTick": 70440,
        "noteNumber": 45,
        "velocity": 127
    },
    {
        "track": 0,
        "absoluteTick": 70560,
        "noteNumber": 82,
        "velocity": 96
    },
    {
        "track": 1,
        "absoluteTick": 70560,
        "noteNumber": 70,
        "velocity": 96
    },
    {
        "track": 2,
        "absoluteTick": 70560,
        "noteNumber": 58,
        "velocity": 120
    },
    {
        "track": 3,
        "absoluteTick": 70560,
        "noteNumber": 43,
        "velocity": 80
    },
    {
        "track": 4,
        "absoluteTick": 70560,
        "noteNumber": 31,
        "velocity": 80
    },
    {
        "track": 2,
        "absoluteTick": 70800,
        "noteNumber": 58,
        "velocity": 80
    },
    {
        "track": 3,
        "absoluteTick": 70800,
        "noteNumber": 43,
        "velocity": 80
    },
    {
        "track": 2,
        "absoluteTick": 71040,
        "noteNumber": 58,
        "velocity": 80
    },
    {
        "track": 3,
        "absoluteTick": 71040,
        "noteNumber": 43,
        "velocity": 80
    },
    {
        "track": 0,
        "absoluteTick": 71280,
        "noteNumber": 86,
        "velocity": 96
    },
    {
        "track": 1,
        "absoluteTick": 71280,
        "noteNumber": 74,
        "velocity": 96
    },
    {
        "track": 2,
        "absoluteTick": 71280,
        "noteNumber": 58,
        "velocity": 80
    },
    {
        "track": 3,
        "absoluteTick": 71280,
        "noteNumber": 43,
        "velocity": 80
    },
    {
        "track": 4,
        "absoluteTick": 71280,
        "noteNumber": 31,
        "velocity": 80
    },
    {
        "track": 2,
        "absoluteTick": 71520,
        "noteNumber": 58,
        "velocity": 80
    },
    {
        "track": 3,
        "absoluteTick": 71520,
        "noteNumber": 43,
        "velocity": 80
    },
    {
        "track": 2,
        "absoluteTick": 71760,
        "noteNumber": 58,
        "velocity": 80
    },
    {
        "track": 3,
        "absoluteTick": 71760,
        "noteNumber": 43,
        "velocity": 80
    },
    {
        "track": 4,
        "absoluteTick": 71760,
        "noteNumber": 31,
        "velocity": 80
    },
    {
        "track": 2,
        "absoluteTick": 72000,
        "noteNumber": 58,
        "velocity": 80
    },
    {
        "track": 3,
        "absoluteTick": 72000,
        "noteNumber": 43,
        "velocity": 80
    },
    {
        "track": 2,
        "absoluteTick": 72240,
        "noteNumber": 58,
        "velocity": 80
    },
    {
        "track": 3,
        "absoluteTick": 72240,
        "noteNumber": 43,
        "velocity": 80
    },
    {
        "track": 4,
        "absoluteTick": 72240,
        "noteNumber": 31,
        "velocity": 80
    },
    {
        "track": 2,
        "absoluteTick": 72480,
        "noteNumber": 58,
        "velocity": 80
    },
    {
        "track": 3,
        "absoluteTick": 72480,
        "noteNumber": 43,
        "velocity": 80
    },
    {
        "track": 2,
        "absoluteTick": 72720,
        "noteNumber": 58,
        "velocity": 80
    },
    {
        "track": 3,
        "absoluteTick": 72720,
        "noteNumber": 43,
        "velocity": 80
    },
    {
        "track": 2,
        "absoluteTick": 72960,
        "noteNumber": 58,
        "velocity": 120
    },
    {
        "track": 3,
        "absoluteTick": 72960,
        "noteNumber": 45,
        "velocity": 80
    },
    {
        "track": 4,
        "absoluteTick": 72960,
        "noteNumber": 33,
        "velocity": 80
    },
    {
        "track": 2,
        "absoluteTick": 73200,
        "noteNumber": 58,
        "velocity": 80
    },
    {
        "track": 3,
        "absoluteTick": 73200,
        "noteNumber": 45,
        "velocity": 80
    },
    {
        "track": 2,
        "absoluteTick": 73440,
        "noteNumber": 58,
        "velocity": 80
    },
    {
        "track": 3,
        "absoluteTick": 73440,
        "noteNumber": 45,
        "velocity": 80
    },
    {
        "track": 2,
        "absoluteTick": 73680,
        "noteNumber": 58,
        "velocity": 80
    },
    {
        "track": 3,
        "absoluteTick": 73680,
        "noteNumber": 45,
        "velocity": 80
    },
    {
        "track": 4,
        "absoluteTick": 73680,
        "noteNumber": 33,
        "velocity": 80
    },
    {
        "track": 2,
        "absoluteTick": 73920,
        "noteNumber": 58,
        "velocity": 80
    },
    {
        "track": 3,
        "absoluteTick": 73920,
        "noteNumber": 45,
        "velocity": 80
    },
    {
        "track": 2,
        "absoluteTick": 74160,
        "noteNumber": 58,
        "velocity": 80
    },
    {
        "track": 3,
        "absoluteTick": 74160,
        "noteNumber": 45,
        "velocity": 80
    },
    {
        "track": 4,
        "absoluteTick": 74160,
        "noteNumber": 33,
        "velocity": 80
    },
    {
        "track": 2,
        "absoluteTick": 74400,
        "noteNumber": 58,
        "velocity": 80
    },
    {
        "track": 3,
        "absoluteTick": 74400,
        "noteNumber": 45,
        "velocity": 80
    },
    {
        "track": 2,
        "absoluteTick": 74640,
        "noteNumber": 58,
        "velocity": 80
    },
    {
        "track": 3,
        "absoluteTick": 74640,
        "noteNumber": 45,
        "velocity": 80
    },
    {
        "track": 4,
        "absoluteTick": 74640,
        "noteNumber": 33,
        "velocity": 80
    },
    {
        "track": 0,
        "absoluteTick": 74880,
        "noteNumber": 84,
        "velocity": 96
    },
    {
        "track": 1,
        "absoluteTick": 74880,
        "noteNumber": 72,
        "velocity": 96
    },
    {
        "track": 2,
        "absoluteTick": 74880,
        "noteNumber": 58,
        "velocity": 80
    },
    {
        "track": 3,
        "absoluteTick": 74880,
        "noteNumber": 45,
        "velocity": 80
    },
    {
        "track": 0,
        "absoluteTick": 75120,
        "noteNumber": 86,
        "velocity": 96
    },
    {
        "track": 1,
        "absoluteTick": 75120,
        "noteNumber": 74,
        "velocity": 96
    },
    {
        "track": 2,
        "absoluteTick": 75120,
        "noteNumber": 58,
        "velocity": 80
    },
    {
        "track": 3,
        "absoluteTick": 75120,
        "noteNumber": 45,
        "velocity": 80
    },
    {
        "track": 0,
        "absoluteTick": 75360,
        "noteNumber": 87,
        "velocity": 96
    },
    {
        "track": 1,
        "absoluteTick": 75360,
        "noteNumber": 75,
        "velocity": 96
    },
    {
        "track": 2,
        "absoluteTick": 75360,
        "noteNumber": 58,
        "velocity": 120
    },
    {
        "track": 3,
        "absoluteTick": 75360,
        "noteNumber": 39,
        "velocity": 80
    },
    {
        "track": 4,
        "absoluteTick": 75360,
        "noteNumber": 39,
        "velocity": 80
    },
    {
        "track": 2,
        "absoluteTick": 75600,
        "noteNumber": 58,
        "velocity": 80
    },
    {
        "track": 3,
        "absoluteTick": 75600,
        "noteNumber": 39,
        "velocity": 80
    },
    {
        "track": 0,
        "absoluteTick": 75840,
        "noteNumber": 84,
        "velocity": 96
    },
    {
        "track": 1,
        "absoluteTick": 75840,
        "noteNumber": 72,
        "velocity": 96
    },
    {
        "track": 2,
        "absoluteTick": 75840,
        "noteNumber": 58,
        "velocity": 80
    },
    {
        "track": 3,
        "absoluteTick": 75840,
        "noteNumber": 39,
        "velocity": 80
    },
    {
        "track": 0,
        "absoluteTick": 76080,
        "noteNumber": 82,
        "velocity": 96
    },
    {
        "track": 1,
        "absoluteTick": 76080,
        "noteNumber": 70,
        "velocity": 96
    },
    {
        "track": 2,
        "absoluteTick": 76080,
        "noteNumber": 58,
        "velocity": 80
    },
    {
        "track": 3,
        "absoluteTick": 76080,
        "noteNumber": 39,
        "velocity": 80
    },
    {
        "track": 4,
        "absoluteTick": 76080,
        "noteNumber": 39,
        "velocity": 80
    },
    {
        "track": 2,
        "absoluteTick": 76320,
        "noteNumber": 58,
        "velocity": 80
    },
    {
        "track": 3,
        "absoluteTick": 76320,
        "noteNumber": 39,
        "velocity": 80
    },
    {
        "track": 0,
        "absoluteTick": 76560,
        "noteNumber": 81,
        "velocity": 96
    },
    {
        "track": 1,
        "absoluteTick": 76560,
        "noteNumber": 69,
        "velocity": 96
    },
    {
        "track": 2,
        "absoluteTick": 76560,
        "noteNumber": 58,
        "velocity": 80
    },
    {
        "track": 3,
        "absoluteTick": 76560,
        "noteNumber": 39,
        "velocity": 80
    },
    {
        "track": 4,
        "absoluteTick": 76560,
        "noteNumber": 39,
        "velocity": 80
    },
    {
        "track": 2,
        "absoluteTick": 76800,
        "noteNumber": 58,
        "velocity": 80
    },
    {
        "track": 3,
        "absoluteTick": 76800,
        "noteNumber": 39,
        "velocity": 80
    },
    {
        "track": 0,
        "absoluteTick": 77040,
        "noteNumber": 86,
        "velocity": 96
    },
    {
        "track": 1,
        "absoluteTick": 77040,
        "noteNumber": 74,
        "velocity": 96
    },
    {
        "track": 2,
        "absoluteTick": 77040,
        "noteNumber": 58,
        "velocity": 80
    },
    {
        "track": 3,
        "absoluteTick": 77040,
        "noteNumber": 39,
        "velocity": 80
    },
    {
        "track": 4,
        "absoluteTick": 77040,
        "noteNumber": 39,
        "velocity": 80
    },
    {
        "track": 2,
        "absoluteTick": 77280,
        "noteNumber": 58,
        "velocity": 80
    },
    {
        "track": 3,
        "absoluteTick": 77280,
        "noteNumber": 39,
        "velocity": 80
    },
    {
        "track": 2,
        "absoluteTick": 77520,
        "noteNumber": 58,
        "velocity": 80
    },
    {
        "track": 3,
        "absoluteTick": 77520,
        "noteNumber": 39,
        "velocity": 80
    },
    {
        "track": 0,
        "absoluteTick": 77760,
        "noteNumber": 79,
        "velocity": 96
    },
    {
        "track": 1,
        "absoluteTick": 77760,
        "noteNumber": 67,
        "velocity": 96
    },
    {
        "track": 2,
        "absoluteTick": 77760,
        "noteNumber": 58,
        "velocity": 120
    },
    {
        "track": 3,
        "absoluteTick": 77760,
        "noteNumber": 38,
        "velocity": 80
    },
    {
        "track": 4,
        "absoluteTick": 77760,
        "noteNumber": 38,
        "velocity": 80
    },
    {
        "track": 2,
        "absoluteTick": 78000,
        "noteNumber": 58,
        "velocity": 80
    },
    {
        "track": 3,
        "absoluteTick": 78000,
        "noteNumber": 38,
        "velocity": 80
    },
    {
        "track": 2,
        "absoluteTick": 78240,
        "noteNumber": 58,
        "velocity": 80
    },
    {
        "track": 3,
        "absoluteTick": 78240,
        "noteNumber": 38,
        "velocity": 80
    },
    {
        "track": 2,
        "absoluteTick": 78480,
        "noteNumber": 58,
        "velocity": 80
    },
    {
        "track": 3,
        "absoluteTick": 78480,
        "noteNumber": 38,
        "velocity": 80
    },
    {
        "track": 4,
        "absoluteTick": 78480,
        "noteNumber": 38,
        "velocity": 80
    },
    {
        "track": 2,
        "absoluteTick": 78720,
        "noteNumber": 58,
        "velocity": 80
    },
    {
        "track": 3,
        "absoluteTick": 78720,
        "noteNumber": 38,
        "velocity": 80
    },
    {
        "track": 2,
        "absoluteTick": 78960,
        "noteNumber": 58,
        "velocity": 80
    },
    {
        "track": 3,
        "absoluteTick": 78960,
        "noteNumber": 38,
        "velocity": 80
    },
    {
        "track": 4,
        "absoluteTick": 78960,
        "noteNumber": 38,
        "velocity": 80
    },
    {
        "track": 2,
        "absoluteTick": 79200,
        "noteNumber": 58,
        "velocity": 80
    },
    {
        "track": 3,
        "absoluteTick": 79200,
        "noteNumber": 38,
        "velocity": 80
    },
    {
        "track": 2,
        "absoluteTick": 79440,
        "noteNumber": 58,
        "velocity": 80
    },
    {
        "track": 3,
        "absoluteTick": 79440,
        "noteNumber": 38,
        "velocity": 80
    },
    {
        "track": 4,
        "absoluteTick": 79440,
        "noteNumber": 38,
        "velocity": 80
    },
    {
        "track": 0,
        "absoluteTick": 79680,
        "noteNumber": 81,
        "velocity": 96
    },
    {
        "track": 1,
        "absoluteTick": 79680,
        "noteNumber": 69,
        "velocity": 96
    },
    {
        "track": 2,
        "absoluteTick": 79680,
        "noteNumber": 58,
        "velocity": 80
    },
    {
        "track": 3,
        "absoluteTick": 79680,
        "noteNumber": 38,
        "velocity": 80
    },
    {
        "track": 0,
        "absoluteTick": 79920,
        "noteNumber": 82,
        "velocity": 96
    },
    {
        "track": 1,
        "absoluteTick": 79920,
        "noteNumber": 70,
        "velocity": 96
    },
    {
        "track": 2,
        "absoluteTick": 79920,
        "noteNumber": 58,
        "velocity": 80
    },
    {
        "track": 3,
        "absoluteTick": 79920,
        "noteNumber": 38,
        "velocity": 80
    },
    {
        "track": 0,
        "absoluteTick": 80160,
        "noteNumber": 84,
        "velocity": 96
    },
    {
        "track": 1,
        "absoluteTick": 80160,
        "noteNumber": 72,
        "velocity": 96
    },
    {
        "track": 2,
        "absoluteTick": 80160,
        "noteNumber": 58,
        "velocity": 120
    },
    {
        "track": 3,
        "absoluteTick": 80160,
        "noteNumber": 48,
        "velocity": 80
    },
    {
        "track": 4,
        "absoluteTick": 80160,
        "noteNumber": 36,
        "velocity": 80
    },
    {
        "track": 2,
        "absoluteTick": 80400,
        "noteNumber": 58,
        "velocity": 80
    },
    {
        "track": 3,
        "absoluteTick": 80400,
        "noteNumber": 48,
        "velocity": 80
    },
    {
        "track": 0,
        "absoluteTick": 80640,
        "noteNumber": 82,
        "velocity": 96
    },
    {
        "track": 1,
        "absoluteTick": 80640,
        "noteNumber": 70,
        "velocity": 96
    },
    {
        "track": 2,
        "absoluteTick": 80640,
        "noteNumber": 58,
        "velocity": 80
    },
    {
        "track": 3,
        "absoluteTick": 80640,
        "noteNumber": 48,
        "velocity": 80
    },
    {
        "track": 0,
        "absoluteTick": 80880,
        "noteNumber": 81,
        "velocity": 96
    },
    {
        "track": 1,
        "absoluteTick": 80880,
        "noteNumber": 69,
        "velocity": 96
    },
    {
        "track": 2,
        "absoluteTick": 80880,
        "noteNumber": 58,
        "velocity": 80
    },
    {
        "track": 3,
        "absoluteTick": 80880,
        "noteNumber": 48,
        "velocity": 80
    },
    {
        "track": 4,
        "absoluteTick": 80880,
        "noteNumber": 36,
        "velocity": 80
    },
    {
        "track": 2,
        "absoluteTick": 81120,
        "noteNumber": 58,
        "velocity": 80
    },
    {
        "track": 3,
        "absoluteTick": 81120,
        "noteNumber": 48,
        "velocity": 80
    },
    {
        "track": 0,
        "absoluteTick": 81360,
        "noteNumber": 79,
        "velocity": 96
    },
    {
        "track": 1,
        "absoluteTick": 81360,
        "noteNumber": 67,
        "velocity": 96
    },
    {
        "track": 2,
        "absoluteTick": 81360,
        "noteNumber": 58,
        "velocity": 80
    },
    {
        "track": 3,
        "absoluteTick": 81360,
        "noteNumber": 48,
        "velocity": 80
    },
    {
        "track": 4,
        "absoluteTick": 81360,
        "noteNumber": 36,
        "velocity": 80
    },
    {
        "track": 2,
        "absoluteTick": 81600,
        "noteNumber": 58,
        "velocity": 80
    },
    {
        "track": 3,
        "absoluteTick": 81600,
        "noteNumber": 48,
        "velocity": 80
    },
    {
        "track": 0,
        "absoluteTick": 81840,
        "noteNumber": 82,
        "velocity": 96
    },
    {
        "track": 1,
        "absoluteTick": 81840,
        "noteNumber": 70,
        "velocity": 96
    },
    {
        "track": 2,
        "absoluteTick": 81840,
        "noteNumber": 58,
        "velocity": 80
    },
    {
        "track": 3,
        "absoluteTick": 81840,
        "noteNumber": 48,
        "velocity": 80
    },
    {
        "track": 4,
        "absoluteTick": 81840,
        "noteNumber": 36,
        "velocity": 80
    },
    {
        "track": 2,
        "absoluteTick": 82080,
        "noteNumber": 58,
        "velocity": 80
    },
    {
        "track": 3,
        "absoluteTick": 82080,
        "noteNumber": 48,
        "velocity": 80
    },
    {
        "track": 2,
        "absoluteTick": 82320,
        "noteNumber": 58,
        "velocity": 80
    },
    {
        "track": 3,
        "absoluteTick": 82320,
        "noteNumber": 48,
        "velocity": 80
    },
    {
        "track": 2,
        "absoluteTick": 82560,
        "noteNumber": 58,
        "velocity": 120
    },
    {
        "track": 3,
        "absoluteTick": 82560,
        "noteNumber": 50,
        "velocity": 120
    },
    {
        "track": 4,
        "absoluteTick": 82560,
        "noteNumber": 38,
        "velocity": 80
    },
    {
        "track": 2,
        "absoluteTick": 82800,
        "noteNumber": 58,
        "velocity": 80
    },
    {
        "track": 3,
        "absoluteTick": 82800,
        "noteNumber": 50,
        "velocity": 80
    },
    {
        "track": 2,
        "absoluteTick": 83040,
        "noteNumber": 58,
        "velocity": 80
    },
    {
        "track": 3,
        "absoluteTick": 83040,
        "noteNumber": 50,
        "velocity": 80
    },
    {
        "track": 2,
        "absoluteTick": 83280,
        "noteNumber": 58,
        "velocity": 80
    },
    {
        "track": 3,
        "absoluteTick": 83280,
        "noteNumber": 50,
        "velocity": 80
    },
    {
        "track": 4,
        "absoluteTick": 83280,
        "noteNumber": 38,
        "velocity": 80
    },
    {
        "track": 2,
        "absoluteTick": 83520,
        "noteNumber": 58,
        "velocity": 80
    },
    {
        "track": 3,
        "absoluteTick": 83520,
        "noteNumber": 50,
        "velocity": 80
    },
    {
        "track": 2,
        "absoluteTick": 83760,
        "noteNumber": 57,
        "velocity": 80
    },
    {
        "track": 3,
        "absoluteTick": 83760,
        "noteNumber": 48,
        "velocity": 80
    },
    {
        "track": 4,
        "absoluteTick": 83760,
        "noteNumber": 38,
        "velocity": 80
    },
    {
        "track": 0,
        "absoluteTick": 84000,
        "noteNumber": 81,
        "velocity": 96
    },
    {
        "track": 1,
        "absoluteTick": 84000,
        "noteNumber": 69,
        "velocity": 96
    },
    {
        "track": 2,
        "absoluteTick": 84000,
        "noteNumber": 57,
        "velocity": 80
    },
    {
        "track": 3,
        "absoluteTick": 84000,
        "noteNumber": 48,
        "velocity": 80
    },
    {
        "track": 2,
        "absoluteTick": 84240,
        "noteNumber": 57,
        "velocity": 80
    },
    {
        "track": 3,
        "absoluteTick": 84240,
        "noteNumber": 48,
        "velocity": 80
    },
    {
        "track": 4,
        "absoluteTick": 84240,
        "noteNumber": 38,
        "velocity": 80
    },
    {
        "track": 2,
        "absoluteTick": 84480,
        "noteNumber": 57,
        "velocity": 80
    },
    {
        "track": 3,
        "absoluteTick": 84480,
        "noteNumber": 48,
        "velocity": 80
    },
    {
        "track": 2,
        "absoluteTick": 84720,
        "noteNumber": 57,
        "velocity": 80
    },
    {
        "track": 3,
        "absoluteTick": 84720,
        "noteNumber": 48,
        "velocity": 80
    },
    {
        "track": 0,
        "absoluteTick": 84960,
        "noteNumber": 81,
        "velocity": 96
    },
    {
        "track": 1,
        "absoluteTick": 84960,
        "noteNumber": 69,
        "velocity": 96
    },
    {
        "track": 2,
        "absoluteTick": 84960,
        "noteNumber": 58,
        "velocity": 120
    },
    {
        "track": 3,
        "absoluteTick": 84960,
        "noteNumber": 39,
        "velocity": 80
    },
    {
        "track": 4,
        "absoluteTick": 84960,
        "noteNumber": 39,
        "velocity": 80
    },
    {
        "track": 2,
        "absoluteTick": 85200,
        "noteNumber": 58,
        "velocity": 80
    },
    {
        "track": 3,
        "absoluteTick": 85200,
        "noteNumber": 39,
        "velocity": 80
    },
    {
        "track": 0,
        "absoluteTick": 85440,
        "noteNumber": 82,
        "velocity": 96
    },
    {
        "track": 1,
        "absoluteTick": 85440,
        "noteNumber": 70,
        "velocity": 96
    },
    {
        "track": 2,
        "absoluteTick": 85440,
        "noteNumber": 58,
        "velocity": 80
    },
    {
        "track": 3,
        "absoluteTick": 85440,
        "noteNumber": 39,
        "velocity": 80
    },
    {
        "track": 0,
        "absoluteTick": 85680,
        "noteNumber": 81,
        "velocity": 96
    },
    {
        "track": 1,
        "absoluteTick": 85680,
        "noteNumber": 69,
        "velocity": 96
    },
    {
        "track": 2,
        "absoluteTick": 85680,
        "noteNumber": 58,
        "velocity": 80
    },
    {
        "track": 3,
        "absoluteTick": 85680,
        "noteNumber": 39,
        "velocity": 80
    },
    {
        "track": 4,
        "absoluteTick": 85680,
        "noteNumber": 39,
        "velocity": 80
    },
    {
        "track": 2,
        "absoluteTick": 85920,
        "noteNumber": 58,
        "velocity": 80
    },
    {
        "track": 3,
        "absoluteTick": 85920,
        "noteNumber": 39,
        "velocity": 80
    },
    {
        "track": 0,
        "absoluteTick": 86160,
        "noteNumber": 79,
        "velocity": 96
    },
    {
        "track": 1,
        "absoluteTick": 86160,
        "noteNumber": 67,
        "velocity": 96
    },
    {
        "track": 2,
        "absoluteTick": 86160,
        "noteNumber": 58,
        "velocity": 80
    },
    {
        "track": 3,
        "absoluteTick": 86160,
        "noteNumber": 39,
        "velocity": 80
    },
    {
        "track": 4,
        "absoluteTick": 86160,
        "noteNumber": 39,
        "velocity": 80
    },
    {
        "track": 2,
        "absoluteTick": 86400,
        "noteNumber": 58,
        "velocity": 80
    },
    {
        "track": 3,
        "absoluteTick": 86400,
        "noteNumber": 39,
        "velocity": 80
    },
    {
        "track": 0,
        "absoluteTick": 86640,
        "noteNumber": 81,
        "velocity": 96
    },
    {
        "track": 1,
        "absoluteTick": 86640,
        "noteNumber": 69,
        "velocity": 96
    },
    {
        "track": 2,
        "absoluteTick": 86640,
        "noteNumber": 58,
        "velocity": 80
    },
    {
        "track": 3,
        "absoluteTick": 86640,
        "noteNumber": 39,
        "velocity": 80
    },
    {
        "track": 4,
        "absoluteTick": 86640,
        "noteNumber": 39,
        "velocity": 80
    },
    {
        "track": 0,
        "absoluteTick": 86880,
        "noteNumber": 82,
        "velocity": 96
    },
    {
        "track": 1,
        "absoluteTick": 86880,
        "noteNumber": 70,
        "velocity": 96
    },
    {
        "track": 2,
        "absoluteTick": 86880,
        "noteNumber": 58,
        "velocity": 80
    },
    {
        "track": 3,
        "absoluteTick": 86880,
        "noteNumber": 39,
        "velocity": 80
    },
    {
        "track": 0,
        "absoluteTick": 87120,
        "noteNumber": 81,
        "velocity": 96
    },
    {
        "track": 1,
        "absoluteTick": 87120,
        "noteNumber": 69,
        "velocity": 96
    },
    {
        "track": 2,
        "absoluteTick": 87120,
        "noteNumber": 58,
        "velocity": 80
    },
    {
        "track": 3,
        "absoluteTick": 87120,
        "noteNumber": 39,
        "velocity": 80
    },
    {
        "track": 0,
        "absoluteTick": 87360,
        "noteNumber": 79,
        "velocity": 96
    },
    {
        "track": 1,
        "absoluteTick": 87360,
        "noteNumber": 67,
        "velocity": 96
    },
    {
        "track": 2,
        "absoluteTick": 87360,
        "noteNumber": 58,
        "velocity": 80
    },
    {
        "track": 3,
        "absoluteTick": 87360,
        "noteNumber": 41,
        "velocity": 80
    },
    {
        "track": 4,
        "absoluteTick": 87360,
        "noteNumber": 41,
        "velocity": 80
    },
    {
        "track": 2,
        "absoluteTick": 87600,
        "noteNumber": 58,
        "velocity": 80
    },
    {
        "track": 3,
        "absoluteTick": 87600,
        "noteNumber": 41,
        "velocity": 80
    },
    {
        "track": 2,
        "absoluteTick": 87840,
        "noteNumber": 58,
        "velocity": 80
    },
    {
        "track": 3,
        "absoluteTick": 87840,
        "noteNumber": 41,
        "velocity": 80
    },
    {
        "track": 2,
        "absoluteTick": 88080,
        "noteNumber": 58,
        "velocity": 80
    },
    {
        "track": 3,
        "absoluteTick": 88080,
        "noteNumber": 41,
        "velocity": 80
    },
    {
        "track": 4,
        "absoluteTick": 88080,
        "noteNumber": 41,
        "velocity": 80
    },
    {
        "track": 0,
        "absoluteTick": 88320,
        "noteNumber": 78,
        "velocity": 96
    },
    {
        "track": 1,
        "absoluteTick": 88320,
        "noteNumber": 66,
        "velocity": 96
    },
    {
        "track": 2,
        "absoluteTick": 88320,
        "noteNumber": 57,
        "velocity": 80
    },
    {
        "track": 3,
        "absoluteTick": 88320,
        "noteNumber": 42,
        "velocity": 80
    },
    {
        "track": 2,
        "absoluteTick": 88560,
        "noteNumber": 57,
        "velocity": 80
    },
    {
        "track": 3,
        "absoluteTick": 88560,
        "noteNumber": 42,
        "velocity": 80
    },
    {
        "track": 4,
        "absoluteTick": 88560,
        "noteNumber": 41,
        "velocity": 80
    },
    {
        "track": 2,
        "absoluteTick": 88800,
        "noteNumber": 60,
        "velocity": 80
    },
    {
        "track": 3,
        "absoluteTick": 88800,
        "noteNumber": 42,
        "velocity": 80
    },
    {
        "track": 2,
        "absoluteTick": 89040,
        "noteNumber": 60,
        "velocity": 80
    },
    {
        "track": 3,
        "absoluteTick": 89040,
        "noteNumber": 42,
        "velocity": 80
    },
    {
        "track": 4,
        "absoluteTick": 89040,
        "noteNumber": 42,
        "velocity": 80
    },
    {
        "track": 2,
        "absoluteTick": 89280,
        "noteNumber": 62,
        "velocity": 80
    },
    {
        "track": 3,
        "absoluteTick": 89280,
        "noteNumber": 42,
        "velocity": 80
    },
    {
        "track": 2,
        "absoluteTick": 89520,
        "noteNumber": 62,
        "velocity": 80
    },
    {
        "track": 3,
        "absoluteTick": 89520,
        "noteNumber": 42,
        "velocity": 80
    },
    {
        "track": 0,
        "absoluteTick": 89760,
        "noteNumber": 79,
        "velocity": 96
    },
    {
        "track": 1,
        "absoluteTick": 89760,
        "noteNumber": 67,
        "velocity": 96
    },
    {
        "track": 1,
        "absoluteTick": 89760,
        "noteNumber": 70,
        "velocity": 96
    },
    {
        "track": 3,
        "absoluteTick": 89760,
        "noteNumber": 46,
        "velocity": 96
    },
    {
        "track": 4,
        "absoluteTick": 89760,
        "noteNumber": 46,
        "velocity": 96
    },
    {
        "track": 3,
        "absoluteTick": 90000,
        "noteNumber": 43,
        "velocity": 96
    },
    {
        "track": 3,
        "absoluteTick": 90240,
        "noteNumber": 46,
        "velocity": 96
    },
    {
        "track": 4,
        "absoluteTick": 90240,
        "noteNumber": 43,
        "velocity": 96
    },
    {
        "track": 3,
        "absoluteTick": 90360,
        "noteNumber": 46,
        "velocity": 96
    },
    {
        "track": 4,
        "absoluteTick": 90360,
        "noteNumber": 43,
        "velocity": 96
    },
    {
        "track": 3,
        "absoluteTick": 90480,
        "noteNumber": 46,
        "velocity": 96
    },
    {
        "track": 4,
        "absoluteTick": 90480,
        "noteNumber": 43,
        "velocity": 96
    },
    {
        "track": 3,
        "absoluteTick": 90720,
        "noteNumber": 43,
        "velocity": 96
    },
    {
        "track": 3,
        "absoluteTick": 90960,
        "noteNumber": 46,
        "velocity": 96
    },
    {
        "track": 4,
        "absoluteTick": 90960,
        "noteNumber": 43,
        "velocity": 96
    },
    {
        "track": 3,
        "absoluteTick": 91080,
        "noteNumber": 46,
        "velocity": 96
    },
    {
        "track": 4,
        "absoluteTick": 91080,
        "noteNumber": 43,
        "velocity": 96
    },
    {
        "track": 3,
        "absoluteTick": 91200,
        "noteNumber": 46,
        "velocity": 96
    },
    {
        "track": 4,
        "absoluteTick": 91200,
        "noteNumber": 43,
        "velocity": 96
    },
    {
        "track": 3,
        "absoluteTick": 91440,
        "noteNumber": 43,
        "velocity": 96
    },
    {
        "track": 3,
        "absoluteTick": 91680,
        "noteNumber": 46,
        "velocity": 96
    },
    {
        "track": 4,
        "absoluteTick": 91680,
        "noteNumber": 39,
        "velocity": 96
    },
    {
        "track": 3,
        "absoluteTick": 91800,
        "noteNumber": 46,
        "velocity": 96
    },
    {
        "track": 3,
        "absoluteTick": 91920,
        "noteNumber": 46,
        "velocity": 96
    },
    {
        "track": 3,
        "absoluteTick": 92160,
        "noteNumber": 45,
        "velocity": 96
    },
    {
        "track": 4,
        "absoluteTick": 92160,
        "noteNumber": 38,
        "velocity": 96
    },
    {
        "track": 3,
        "absoluteTick": 92280,
        "noteNumber": 45,
        "velocity": 96
    },
    {
        "track": 3,
        "absoluteTick": 92400,
        "noteNumber": 45,
        "velocity": 96
    },
    {
        "track": 2,
        "absoluteTick": 92640,
        "noteNumber": 62,
        "velocity": 96
    },
    {
        "track": 3,
        "absoluteTick": 92640,
        "noteNumber": 46,
        "velocity": 96
    },
    {
        "track": 4,
        "absoluteTick": 92640,
        "noteNumber": 43,
        "velocity": 96
    },
    {
        "track": 2,
        "absoluteTick": 92880,
        "noteNumber": 55,
        "velocity": 96
    },
    {
        "track": 3,
        "absoluteTick": 92880,
        "noteNumber": 43,
        "velocity": 96
    },
    {
        "track": 2,
        "absoluteTick": 93120,
        "noteNumber": 62,
        "velocity": 96
    },
    {
        "track": 3,
        "absoluteTick": 93120,
        "noteNumber": 46,
        "velocity": 96
    },
    {
        "track": 4,
        "absoluteTick": 93120,
        "noteNumber": 43,
        "velocity": 96
    },
    {
        "track": 2,
        "absoluteTick": 93240,
        "noteNumber": 62,
        "velocity": 96
    },
    {
        "track": 3,
        "absoluteTick": 93240,
        "noteNumber": 46,
        "velocity": 96
    },
    {
        "track": 4,
        "absoluteTick": 93240,
        "noteNumber": 43,
        "velocity": 96
    },
    {
        "track": 2,
        "absoluteTick": 93360,
        "noteNumber": 62,
        "velocity": 96
    },
    {
        "track": 3,
        "absoluteTick": 93360,
        "noteNumber": 46,
        "velocity": 96
    },
    {
        "track": 4,
        "absoluteTick": 93360,
        "noteNumber": 43,
        "velocity": 96
    },
    {
        "track": 2,
        "absoluteTick": 93600,
        "noteNumber": 55,
        "velocity": 96
    },
    {
        "track": 3,
        "absoluteTick": 93600,
        "noteNumber": 43,
        "velocity": 96
    },
    {
        "track": 2,
        "absoluteTick": 93840,
        "noteNumber": 62,
        "velocity": 96
    },
    {
        "track": 3,
        "absoluteTick": 93840,
        "noteNumber": 46,
        "velocity": 96
    },
    {
        "track": 4,
        "absoluteTick": 93840,
        "noteNumber": 43,
        "velocity": 96
    },
    {
        "track": 2,
        "absoluteTick": 93960,
        "noteNumber": 62,
        "velocity": 96
    },
    {
        "track": 3,
        "absoluteTick": 93960,
        "noteNumber": 46,
        "velocity": 96
    },
    {
        "track": 4,
        "absoluteTick": 93960,
        "noteNumber": 43,
        "velocity": 96
    },
    {
        "track": 2,
        "absoluteTick": 94080,
        "noteNumber": 62,
        "velocity": 96
    },
    {
        "track": 3,
        "absoluteTick": 94080,
        "noteNumber": 46,
        "velocity": 96
    },
    {
        "track": 4,
        "absoluteTick": 94080,
        "noteNumber": 43,
        "velocity": 96
    },
    {
        "track": 2,
        "absoluteTick": 94320,
        "noteNumber": 55,
        "velocity": 96
    },
    {
        "track": 3,
        "absoluteTick": 94320,
        "noteNumber": 43,
        "velocity": 96
    },
    {
        "track": 2,
        "absoluteTick": 94560,
        "noteNumber": 58,
        "velocity": 96
    },
    {
        "track": 3,
        "absoluteTick": 94560,
        "noteNumber": 46,
        "velocity": 96
    },
    {
        "track": 4,
        "absoluteTick": 94560,
        "noteNumber": 39,
        "velocity": 96
    },
    {
        "track": 2,
        "absoluteTick": 94680,
        "noteNumber": 58,
        "velocity": 96
    },
    {
        "track": 3,
        "absoluteTick": 94680,
        "noteNumber": 46,
        "velocity": 96
    },
    {
        "track": 2,
        "absoluteTick": 94800,
        "noteNumber": 58,
        "velocity": 96
    },
    {
        "track": 3,
        "absoluteTick": 94800,
        "noteNumber": 46,
        "velocity": 96
    },
    {
        "track": 2,
        "absoluteTick": 95040,
        "noteNumber": 57,
        "velocity": 96
    },
    {
        "track": 3,
        "absoluteTick": 95040,
        "noteNumber": 45,
        "velocity": 96
    },
    {
        "track": 4,
        "absoluteTick": 95040,
        "noteNumber": 38,
        "velocity": 96
    },
    {
        "track": 2,
        "absoluteTick": 95160,
        "noteNumber": 57,
        "velocity": 96
    },
    {
        "track": 3,
        "absoluteTick": 95160,
        "noteNumber": 45,
        "velocity": 96
    },
    {
        "track": 2,
        "absoluteTick": 95280,
        "noteNumber": 57,
        "velocity": 96
    },
    {
        "track": 3,
        "absoluteTick": 95280,
        "noteNumber": 45,
        "velocity": 96
    },
    {
        "track": 1,
        "absoluteTick": 95520,
        "noteNumber": 67,
        "velocity": 96
    },
    {
        "track": 2,
        "absoluteTick": 95520,
        "noteNumber": 62,
        "velocity": 96
    },
    {
        "track": 3,
        "absoluteTick": 95520,
        "noteNumber": 46,
        "velocity": 96
    },
    {
        "track": 4,
        "absoluteTick": 95520,
        "noteNumber": 43,
        "velocity": 96
    },
    {
        "track": 1,
        "absoluteTick": 95760,
        "noteNumber": 62,
        "velocity": 96
    },
    {
        "track": 2,
        "absoluteTick": 95760,
        "noteNumber": 55,
        "velocity": 96
    },
    {
        "track": 3,
        "absoluteTick": 95760,
        "noteNumber": 43,
        "velocity": 96
    },
    {
        "track": 1,
        "absoluteTick": 96000,
        "noteNumber": 67,
        "velocity": 96
    },
    {
        "track": 2,
        "absoluteTick": 96000,
        "noteNumber": 62,
        "velocity": 96
    },
    {
        "track": 3,
        "absoluteTick": 96000,
        "noteNumber": 46,
        "velocity": 96
    },
    {
        "track": 4,
        "absoluteTick": 96000,
        "noteNumber": 43,
        "velocity": 96
    },
    {
        "track": 1,
        "absoluteTick": 96120,
        "noteNumber": 67,
        "velocity": 96
    },
    {
        "track": 2,
        "absoluteTick": 96120,
        "noteNumber": 62,
        "velocity": 96
    },
    {
        "track": 3,
        "absoluteTick": 96120,
        "noteNumber": 46,
        "velocity": 96
    },
    {
        "track": 4,
        "absoluteTick": 96120,
        "noteNumber": 43,
        "velocity": 96
    },
    {
        "track": 1,
        "absoluteTick": 96240,
        "noteNumber": 67,
        "velocity": 96
    },
    {
        "track": 2,
        "absoluteTick": 96240,
        "noteNumber": 62,
        "velocity": 96
    },
    {
        "track": 3,
        "absoluteTick": 96240,
        "noteNumber": 46,
        "velocity": 96
    },
    {
        "track": 4,
        "absoluteTick": 96240,
        "noteNumber": 43,
        "velocity": 96
    },
    {
        "track": 1,
        "absoluteTick": 96480,
        "noteNumber": 62,
        "velocity": 96
    },
    {
        "track": 2,
        "absoluteTick": 96480,
        "noteNumber": 55,
        "velocity": 96
    },
    {
        "track": 3,
        "absoluteTick": 96480,
        "noteNumber": 43,
        "velocity": 96
    },
    {
        "track": 1,
        "absoluteTick": 96720,
        "noteNumber": 67,
        "velocity": 96
    },
    {
        "track": 2,
        "absoluteTick": 96720,
        "noteNumber": 62,
        "velocity": 96
    },
    {
        "track": 3,
        "absoluteTick": 96720,
        "noteNumber": 46,
        "velocity": 96
    },
    {
        "track": 4,
        "absoluteTick": 96720,
        "noteNumber": 43,
        "velocity": 96
    },
    {
        "track": 1,
        "absoluteTick": 96840,
        "noteNumber": 67,
        "velocity": 96
    },
    {
        "track": 2,
        "absoluteTick": 96840,
        "noteNumber": 62,
        "velocity": 96
    },
    {
        "track": 3,
        "absoluteTick": 96840,
        "noteNumber": 46,
        "velocity": 96
    },
    {
        "track": 4,
        "absoluteTick": 96840,
        "noteNumber": 43,
        "velocity": 96
    },
    {
        "track": 1,
        "absoluteTick": 96960,
        "noteNumber": 67,
        "velocity": 96
    },
    {
        "track": 2,
        "absoluteTick": 96960,
        "noteNumber": 62,
        "velocity": 96
    },
    {
        "track": 3,
        "absoluteTick": 96960,
        "noteNumber": 46,
        "velocity": 96
    },
    {
        "track": 4,
        "absoluteTick": 96960,
        "noteNumber": 43,
        "velocity": 96
    },
    {
        "track": 1,
        "absoluteTick": 97200,
        "noteNumber": 62,
        "velocity": 96
    },
    {
        "track": 2,
        "absoluteTick": 97200,
        "noteNumber": 55,
        "velocity": 96
    },
    {
        "track": 3,
        "absoluteTick": 97200,
        "noteNumber": 43,
        "velocity": 96
    },
    {
        "track": 0,
        "absoluteTick": 97440,
        "noteNumber": 74,
        "velocity": 96
    },
    {
        "track": 1,
        "absoluteTick": 97440,
        "noteNumber": 63,
        "velocity": 96
    },
    {
        "track": 2,
        "absoluteTick": 97440,
        "noteNumber": 58,
        "velocity": 96
    },
    {
        "track": 3,
        "absoluteTick": 97440,
        "noteNumber": 46,
        "velocity": 96
    },
    {
        "track": 4,
        "absoluteTick": 97440,
        "noteNumber": 39,
        "velocity": 96
    },
    {
        "track": 0,
        "absoluteTick": 97560,
        "noteNumber": 75,
        "velocity": 96
    },
    {
        "track": 1,
        "absoluteTick": 97560,
        "noteNumber": 63,
        "velocity": 96
    },
    {
        "track": 2,
        "absoluteTick": 97560,
        "noteNumber": 58,
        "velocity": 96
    },
    {
        "track": 3,
        "absoluteTick": 97560,
        "noteNumber": 46,
        "velocity": 96
    },
    {
        "track": 0,
        "absoluteTick": 97680,
        "noteNumber": 74,
        "velocity": 96
    },
    {
        "track": 1,
        "absoluteTick": 97680,
        "noteNumber": 63,
        "velocity": 96
    },
    {
        "track": 2,
        "absoluteTick": 97680,
        "noteNumber": 58,
        "velocity": 96
    },
    {
        "track": 3,
        "absoluteTick": 97680,
        "noteNumber": 46,
        "velocity": 96
    },
    {
        "track": 0,
        "absoluteTick": 97800,
        "noteNumber": 72,
        "velocity": 96
    },
    {
        "track": 0,
        "absoluteTick": 97920,
        "noteNumber": 74,
        "velocity": 96
    },
    {
        "track": 1,
        "absoluteTick": 97920,
        "noteNumber": 62,
        "velocity": 96
    },
    {
        "track": 2,
        "absoluteTick": 97920,
        "noteNumber": 57,
        "velocity": 96
    },
    {
        "track": 3,
        "absoluteTick": 97920,
        "noteNumber": 45,
        "velocity": 96
    },
    {
        "track": 4,
        "absoluteTick": 97920,
        "noteNumber": 38,
        "velocity": 96
    },
    {
        "track": 0,
        "absoluteTick": 98040,
        "noteNumber": 72,
        "velocity": 96
    },
    {
        "track": 1,
        "absoluteTick": 98040,
        "noteNumber": 62,
        "velocity": 96
    },
    {
        "track": 2,
        "absoluteTick": 98040,
        "noteNumber": 57,
        "velocity": 96
    },
    {
        "track": 3,
        "absoluteTick": 98040,
        "noteNumber": 45,
        "velocity": 96
    },
    {
        "track": 0,
        "absoluteTick": 98160,
        "noteNumber": 70,
        "velocity": 96
    },
    {
        "track": 1,
        "absoluteTick": 98160,
        "noteNumber": 62,
        "velocity": 96
    },
    {
        "track": 2,
        "absoluteTick": 98160,
        "noteNumber": 57,
        "velocity": 96
    },
    {
        "track": 3,
        "absoluteTick": 98160,
        "noteNumber": 45,
        "velocity": 96
    },
    {
        "track": 0,
        "absoluteTick": 98280,
        "noteNumber": 69,
        "velocity": 96
    },
    {
        "track": 0,
        "absoluteTick": 98400,
        "noteNumber": 70,
        "velocity": 127
    },
    {
        "track": 1,
        "absoluteTick": 98400,
        "noteNumber": 67,
        "velocity": 96
    },
    {
        "track": 2,
        "absoluteTick": 98400,
        "noteNumber": 62,
        "velocity": 96
    },
    {
        "track": 3,
        "absoluteTick": 98400,
        "noteNumber": 46,
        "velocity": 96
    },
    {
        "track": 4,
        "absoluteTick": 98400,
        "noteNumber": 43,
        "velocity": 96
    },
    {
        "track": 1,
        "absoluteTick": 98640,
        "noteNumber": 62,
        "velocity": 96
    },
    {
        "track": 2,
        "absoluteTick": 98640,
        "noteNumber": 55,
        "velocity": 96
    },
    {
        "track": 3,
        "absoluteTick": 98640,
        "noteNumber": 43,
        "velocity": 96
    },
    {
        "track": 0,
        "absoluteTick": 98880,
        "noteNumber": 72,
        "velocity": 96
    },
    {
        "track": 1,
        "absoluteTick": 98880,
        "noteNumber": 67,
        "velocity": 96
    },
    {
        "track": 2,
        "absoluteTick": 98880,
        "noteNumber": 62,
        "velocity": 96
    },
    {
        "track": 3,
        "absoluteTick": 98880,
        "noteNumber": 46,
        "velocity": 96
    },
    {
        "track": 4,
        "absoluteTick": 98880,
        "noteNumber": 43,
        "velocity": 96
    },
    {
        "track": 1,
        "absoluteTick": 99000,
        "noteNumber": 67,
        "velocity": 96
    },
    {
        "track": 2,
        "absoluteTick": 99000,
        "noteNumber": 62,
        "velocity": 96
    },
    {
        "track": 3,
        "absoluteTick": 99000,
        "noteNumber": 46,
        "velocity": 96
    },
    {
        "track": 4,
        "absoluteTick": 99000,
        "noteNumber": 43,
        "velocity": 96
    },
    {
        "track": 0,
        "absoluteTick": 99120,
        "noteNumber": 73,
        "velocity": 127
    },
    {
        "track": 1,
        "absoluteTick": 99120,
        "noteNumber": 67,
        "velocity": 96
    },
    {
        "track": 2,
        "absoluteTick": 99120,
        "noteNumber": 62,
        "velocity": 96
    },
    {
        "track": 3,
        "absoluteTick": 99120,
        "noteNumber": 46,
        "velocity": 96
    },
    {
        "track": 4,
        "absoluteTick": 99120,
        "noteNumber": 43,
        "velocity": 96
    },
    {
        "track": 1,
        "absoluteTick": 99360,
        "noteNumber": 62,
        "velocity": 96
    },
    {
        "track": 2,
        "absoluteTick": 99360,
        "noteNumber": 55,
        "velocity": 96
    },
    {
        "track": 3,
        "absoluteTick": 99360,
        "noteNumber": 43,
        "velocity": 96
    },
    {
        "track": 0,
        "absoluteTick": 99600,
        "noteNumber": 74,
        "velocity": 96
    },
    {
        "track": 1,
        "absoluteTick": 99600,
        "noteNumber": 67,
        "velocity": 96
    },
    {
        "track": 2,
        "absoluteTick": 99600,
        "noteNumber": 62,
        "velocity": 96
    },
    {
        "track": 3,
        "absoluteTick": 99600,
        "noteNumber": 46,
        "velocity": 96
    },
    {
        "track": 4,
        "absoluteTick": 99600,
        "noteNumber": 43,
        "velocity": 96
    },
    {
        "track": 1,
        "absoluteTick": 99720,
        "noteNumber": 67,
        "velocity": 96
    },
    {
        "track": 2,
        "absoluteTick": 99720,
        "noteNumber": 62,
        "velocity": 96
    },
    {
        "track": 3,
        "absoluteTick": 99720,
        "noteNumber": 46,
        "velocity": 96
    },
    {
        "track": 4,
        "absoluteTick": 99720,
        "noteNumber": 43,
        "velocity": 96
    },
    {
        "track": 0,
        "absoluteTick": 99840,
        "noteNumber": 79,
        "velocity": 127
    },
    {
        "track": 1,
        "absoluteTick": 99840,
        "noteNumber": 67,
        "velocity": 96
    },
    {
        "track": 2,
        "absoluteTick": 99840,
        "noteNumber": 62,
        "velocity": 96
    },
    {
        "track": 3,
        "absoluteTick": 99840,
        "noteNumber": 46,
        "velocity": 96
    },
    {
        "track": 4,
        "absoluteTick": 99840,
        "noteNumber": 43,
        "velocity": 96
    },
    {
        "track": 1,
        "absoluteTick": 100080,
        "noteNumber": 62,
        "velocity": 96
    },
    {
        "track": 2,
        "absoluteTick": 100080,
        "noteNumber": 55,
        "velocity": 96
    },
    {
        "track": 3,
        "absoluteTick": 100080,
        "noteNumber": 43,
        "velocity": 96
    },
    {
        "track": 0,
        "absoluteTick": 100320,
        "noteNumber": 81,
        "velocity": 96
    },
    {
        "track": 1,
        "absoluteTick": 100320,
        "noteNumber": 63,
        "velocity": 96
    },
    {
        "track": 2,
        "absoluteTick": 100320,
        "noteNumber": 58,
        "velocity": 96
    },
    {
        "track": 3,
        "absoluteTick": 100320,
        "noteNumber": 46,
        "velocity": 96
    },
    {
        "track": 4,
        "absoluteTick": 100320,
        "noteNumber": 39,
        "velocity": 96
    },
    {
        "track": 1,
        "absoluteTick": 100440,
        "noteNumber": 63,
        "velocity": 96
    },
    {
        "track": 2,
        "absoluteTick": 100440,
        "noteNumber": 58,
        "velocity": 96
    },
    {
        "track": 3,
        "absoluteTick": 100440,
        "noteNumber": 46,
        "velocity": 96
    },
    {
        "track": 0,
        "absoluteTick": 100560,
        "noteNumber": 82,
        "velocity": 127
    },
    {
        "track": 1,
        "absoluteTick": 100560,
        "noteNumber": 63,
        "velocity": 96
    },
    {
        "track": 2,
        "absoluteTick": 100560,
        "noteNumber": 58,
        "velocity": 96
    },
    {
        "track": 3,
        "absoluteTick": 100560,
        "noteNumber": 46,
        "velocity": 96
    },
    {
        "track": 1,
        "absoluteTick": 100800,
        "noteNumber": 62,
        "velocity": 96
    },
    {
        "track": 2,
        "absoluteTick": 100800,
        "noteNumber": 57,
        "velocity": 96
    },
    {
        "track": 3,
        "absoluteTick": 100800,
        "noteNumber": 45,
        "velocity": 96
    },
    {
        "track": 4,
        "absoluteTick": 100800,
        "noteNumber": 38,
        "velocity": 96
    },
    {
        "track": 1,
        "absoluteTick": 100920,
        "noteNumber": 62,
        "velocity": 96
    },
    {
        "track": 2,
        "absoluteTick": 100920,
        "noteNumber": 57,
        "velocity": 96
    },
    {
        "track": 3,
        "absoluteTick": 100920,
        "noteNumber": 45,
        "velocity": 96
    },
    {
        "track": 0,
        "absoluteTick": 101040,
        "noteNumber": 85,
        "velocity": 96
    },
    {
        "track": 1,
        "absoluteTick": 101040,
        "noteNumber": 62,
        "velocity": 96
    },
    {
        "track": 2,
        "absoluteTick": 101040,
        "noteNumber": 57,
        "velocity": 96
    },
    {
        "track": 3,
        "absoluteTick": 101040,
        "noteNumber": 45,
        "velocity": 96
    },
    {
        "track": 0,
        "absoluteTick": 101280,
        "noteNumber": 86,
        "velocity": 96
    },
    {
        "track": 1,
        "absoluteTick": 101280,
        "noteNumber": 67,
        "velocity": 96
    },
    {
        "track": 2,
        "absoluteTick": 101280,
        "noteNumber": 62,
        "velocity": 96
    },
    {
        "track": 3,
        "absoluteTick": 101280,
        "noteNumber": 46,
        "velocity": 96
    },
    {
        "track": 4,
        "absoluteTick": 101280,
        "noteNumber": 43,
        "velocity": 96
    },
    {
        "track": 0,
        "absoluteTick": 101520,
        "noteNumber": 74,
        "velocity": 96
    },
    {
        "track": 1,
        "absoluteTick": 101520,
        "noteNumber": 62,
        "velocity": 96
    },
    {
        "track": 2,
        "absoluteTick": 101520,
        "noteNumber": 55,
        "velocity": 96
    },
    {
        "track": 3,
        "absoluteTick": 101520,
        "noteNumber": 43,
        "velocity": 96
    },
    {
        "track": 0,
        "absoluteTick": 101760,
        "noteNumber": 86,
        "velocity": 96
    },
    {
        "track": 1,
        "absoluteTick": 101760,
        "noteNumber": 67,
        "velocity": 96
    },
    {
        "track": 2,
        "absoluteTick": 101760,
        "noteNumber": 62,
        "velocity": 96
    },
    {
        "track": 3,
        "absoluteTick": 101760,
        "noteNumber": 46,
        "velocity": 96
    },
    {
        "track": 4,
        "absoluteTick": 101760,
        "noteNumber": 43,
        "velocity": 96
    },
    {
        "track": 0,
        "absoluteTick": 101880,
        "noteNumber": 86,
        "velocity": 96
    },
    {
        "track": 1,
        "absoluteTick": 101880,
        "noteNumber": 67,
        "velocity": 96
    },
    {
        "track": 2,
        "absoluteTick": 101880,
        "noteNumber": 62,
        "velocity": 96
    },
    {
        "track": 3,
        "absoluteTick": 101880,
        "noteNumber": 46,
        "velocity": 96
    },
    {
        "track": 4,
        "absoluteTick": 101880,
        "noteNumber": 43,
        "velocity": 96
    },
    {
        "track": 0,
        "absoluteTick": 102000,
        "noteNumber": 86,
        "velocity": 96
    },
    {
        "track": 1,
        "absoluteTick": 102000,
        "noteNumber": 67,
        "velocity": 96
    },
    {
        "track": 2,
        "absoluteTick": 102000,
        "noteNumber": 62,
        "velocity": 96
    },
    {
        "track": 3,
        "absoluteTick": 102000,
        "noteNumber": 46,
        "velocity": 96
    },
    {
        "track": 4,
        "absoluteTick": 102000,
        "noteNumber": 43,
        "velocity": 96
    },
    {
        "track": 0,
        "absoluteTick": 102240,
        "noteNumber": 74,
        "velocity": 96
    },
    {
        "track": 1,
        "absoluteTick": 102240,
        "noteNumber": 62,
        "velocity": 96
    },
    {
        "track": 2,
        "absoluteTick": 102240,
        "noteNumber": 55,
        "velocity": 96
    },
    {
        "track": 3,
        "absoluteTick": 102240,
        "noteNumber": 43,
        "velocity": 96
    },
    {
        "track": 0,
        "absoluteTick": 102480,
        "noteNumber": 86,
        "velocity": 96
    },
    {
        "track": 1,
        "absoluteTick": 102480,
        "noteNumber": 67,
        "velocity": 96
    },
    {
        "track": 2,
        "absoluteTick": 102480,
        "noteNumber": 62,
        "velocity": 96
    },
    {
        "track": 3,
        "absoluteTick": 102480,
        "noteNumber": 46,
        "velocity": 96
    },
    {
        "track": 4,
        "absoluteTick": 102480,
        "noteNumber": 43,
        "velocity": 96
    },
    {
        "track": 0,
        "absoluteTick": 102600,
        "noteNumber": 86,
        "velocity": 96
    },
    {
        "track": 1,
        "absoluteTick": 102600,
        "noteNumber": 67,
        "velocity": 96
    },
    {
        "track": 2,
        "absoluteTick": 102600,
        "noteNumber": 62,
        "velocity": 96
    },
    {
        "track": 3,
        "absoluteTick": 102600,
        "noteNumber": 46,
        "velocity": 96
    },
    {
        "track": 4,
        "absoluteTick": 102600,
        "noteNumber": 43,
        "velocity": 96
    },
    {
        "track": 0,
        "absoluteTick": 102720,
        "noteNumber": 86,
        "velocity": 96
    },
    {
        "track": 1,
        "absoluteTick": 102720,
        "noteNumber": 67,
        "velocity": 96
    },
    {
        "track": 2,
        "absoluteTick": 102720,
        "noteNumber": 62,
        "velocity": 96
    },
    {
        "track": 3,
        "absoluteTick": 102720,
        "noteNumber": 46,
        "velocity": 96
    },
    {
        "track": 4,
        "absoluteTick": 102720,
        "noteNumber": 43,
        "velocity": 96
    },
    {
        "track": 0,
        "absoluteTick": 102960,
        "noteNumber": 74,
        "velocity": 96
    },
    {
        "track": 1,
        "absoluteTick": 102960,
        "noteNumber": 62,
        "velocity": 96
    },
    {
        "track": 2,
        "absoluteTick": 102960,
        "noteNumber": 55,
        "velocity": 96
    },
    {
        "track": 3,
        "absoluteTick": 102960,
        "noteNumber": 43,
        "velocity": 96
    },
    {
        "track": 0,
        "absoluteTick": 103200,
        "noteNumber": 75,
        "velocity": 96
    },
    {
        "track": 1,
        "absoluteTick": 103200,
        "noteNumber": 63,
        "velocity": 96
    },
    {
        "track": 2,
        "absoluteTick": 103200,
        "noteNumber": 58,
        "velocity": 96
    },
    {
        "track": 3,
        "absoluteTick": 103200,
        "noteNumber": 46,
        "velocity": 96
    },
    {
        "track": 4,
        "absoluteTick": 103200,
        "noteNumber": 39,
        "velocity": 96
    },
    {
        "track": 0,
        "absoluteTick": 103320,
        "noteNumber": 75,
        "velocity": 96
    },
    {
        "track": 1,
        "absoluteTick": 103320,
        "noteNumber": 63,
        "velocity": 96
    },
    {
        "track": 2,
        "absoluteTick": 103320,
        "noteNumber": 58,
        "velocity": 96
    },
    {
        "track": 3,
        "absoluteTick": 103320,
        "noteNumber": 46,
        "velocity": 96
    },
    {
        "track": 0,
        "absoluteTick": 103440,
        "noteNumber": 75,
        "velocity": 96
    },
    {
        "track": 1,
        "absoluteTick": 103440,
        "noteNumber": 63,
        "velocity": 96
    },
    {
        "track": 2,
        "absoluteTick": 103440,
        "noteNumber": 58,
        "velocity": 96
    },
    {
        "track": 3,
        "absoluteTick": 103440,
        "noteNumber": 46,
        "velocity": 96
    },
    {
        "track": 0,
        "absoluteTick": 103680,
        "noteNumber": 74,
        "velocity": 96
    },
    {
        "track": 1,
        "absoluteTick": 103680,
        "noteNumber": 62,
        "velocity": 96
    },
    {
        "track": 2,
        "absoluteTick": 103680,
        "noteNumber": 57,
        "velocity": 96
    },
    {
        "track": 3,
        "absoluteTick": 103680,
        "noteNumber": 45,
        "velocity": 96
    },
    {
        "track": 4,
        "absoluteTick": 103680,
        "noteNumber": 38,
        "velocity": 96
    },
    {
        "track": 0,
        "absoluteTick": 103800,
        "noteNumber": 74,
        "velocity": 96
    },
    {
        "track": 1,
        "absoluteTick": 103800,
        "noteNumber": 62,
        "velocity": 96
    },
    {
        "track": 2,
        "absoluteTick": 103800,
        "noteNumber": 57,
        "velocity": 96
    },
    {
        "track": 3,
        "absoluteTick": 103800,
        "noteNumber": 45,
        "velocity": 96
    },
    {
        "track": 0,
        "absoluteTick": 103920,
        "noteNumber": 74,
        "velocity": 96
    },
    {
        "track": 1,
        "absoluteTick": 103920,
        "noteNumber": 62,
        "velocity": 96
    },
    {
        "track": 2,
        "absoluteTick": 103920,
        "noteNumber": 57,
        "velocity": 96
    },
    {
        "track": 3,
        "absoluteTick": 103920,
        "noteNumber": 45,
        "velocity": 96
    },
    {
        "track": 0,
        "absoluteTick": 104160,
        "noteNumber": 73,
        "velocity": 96
    },
    {
        "track": 1,
        "absoluteTick": 104160,
        "noteNumber": 67,
        "velocity": 96
    },
    {
        "track": 2,
        "absoluteTick": 104160,
        "noteNumber": 51,
        "velocity": 96
    },
    {
        "track": 3,
        "absoluteTick": 104160,
        "noteNumber": 43,
        "velocity": 96
    },
    {
        "track": 4,
        "absoluteTick": 104160,
        "noteNumber": 49,
        "velocity": 96
    },
    {
        "track": 3,
        "absoluteTick": 104280,
        "noteNumber": 45,
        "velocity": 96
    },
    {
        "track": 0,
        "absoluteTick": 104400,
        "noteNumber": 73,
        "velocity": 96
    },
    {
        "track": 1,
        "absoluteTick": 104400,
        "noteNumber": 67,
        "velocity": 96
    },
    {
        "track": 2,
        "absoluteTick": 104400,
        "noteNumber": 51,
        "velocity": 96
    },
    {
        "track": 3,
        "absoluteTick": 104400,
        "noteNumber": 43,
        "velocity": 96
    },
    {
        "track": 4,
        "absoluteTick": 104400,
        "noteNumber": 49,
        "velocity": 96
    },
    {
        "track": 3,
        "absoluteTick": 104520,
        "noteNumber": 45,
        "velocity": 96
    },
    {
        "track": 0,
        "absoluteTick": 104640,
        "noteNumber": 73,
        "velocity": 96
    },
    {
        "track": 1,
        "absoluteTick": 104640,
        "noteNumber": 67,
        "velocity": 96
    },
    {
        "track": 2,
        "absoluteTick": 104640,
        "noteNumber": 51,
        "velocity": 96
    },
    {
        "track": 3,
        "absoluteTick": 104640,
        "noteNumber": 45,
        "velocity": 96
    },
    {
        "track": 4,
        "absoluteTick": 104640,
        "noteNumber": 49,
        "velocity": 96
    },
    {
        "track": 0,
        "absoluteTick": 104760,
        "noteNumber": 73,
        "velocity": 96
    },
    {
        "track": 1,
        "absoluteTick": 104760,
        "noteNumber": 67,
        "velocity": 96
    },
    {
        "track": 2,
        "absoluteTick": 104760,
        "noteNumber": 51,
        "velocity": 96
    },
    {
        "track": 3,
        "absoluteTick": 104760,
        "noteNumber": 46,
        "velocity": 96
    },
    {
        "track": 0,
        "absoluteTick": 104880,
        "noteNumber": 73,
        "velocity": 96
    },
    {
        "track": 1,
        "absoluteTick": 104880,
        "noteNumber": 67,
        "velocity": 96
    },
    {
        "track": 2,
        "absoluteTick": 104880,
        "noteNumber": 51,
        "velocity": 96
    },
    {
        "track": 3,
        "absoluteTick": 104880,
        "noteNumber": 45,
        "velocity": 96
    },
    {
        "track": 3,
        "absoluteTick": 105000,
        "noteNumber": 46,
        "velocity": 96
    },
    {
        "track": 0,
        "absoluteTick": 105120,
        "noteNumber": 73,
        "velocity": 96
    },
    {
        "track": 1,
        "absoluteTick": 105120,
        "noteNumber": 67,
        "velocity": 96
    },
    {
        "track": 2,
        "absoluteTick": 105120,
        "noteNumber": 51,
        "velocity": 96
    },
    {
        "track": 3,
        "absoluteTick": 105120,
        "noteNumber": 49,
        "velocity": 96
    },
    {
        "track": 4,
        "absoluteTick": 105120,
        "noteNumber": 49,
        "velocity": 96
    },
    {
        "track": 3,
        "absoluteTick": 105240,
        "noteNumber": 50,
        "velocity": 96
    },
    {
        "track": 0,
        "absoluteTick": 105360,
        "noteNumber": 73,
        "velocity": 96
    },
    {
        "track": 1,
        "absoluteTick": 105360,
        "noteNumber": 67,
        "velocity": 96
    },
    {
        "track": 2,
        "absoluteTick": 105360,
        "noteNumber": 51,
        "velocity": 96
    },
    {
        "track": 3,
        "absoluteTick": 105360,
        "noteNumber": 49,
        "velocity": 96
    },
    {
        "track": 4,
        "absoluteTick": 105360,
        "noteNumber": 49,
        "velocity": 96
    },
    {
        "track": 0,
        "absoluteTick": 105480,
        "noteNumber": 73,
        "velocity": 96
    },
    {
        "track": 1,
        "absoluteTick": 105480,
        "noteNumber": 67,
        "velocity": 96
    },
    {
        "track": 2,
        "absoluteTick": 105480,
        "noteNumber": 51,
        "velocity": 96
    },
    {
        "track": 3,
        "absoluteTick": 105480,
        "noteNumber": 51,
        "velocity": 96
    },
    {
        "track": 0,
        "absoluteTick": 105600,
        "noteNumber": 73,
        "velocity": 96
    },
    {
        "track": 1,
        "absoluteTick": 105600,
        "noteNumber": 67,
        "velocity": 96
    },
    {
        "track": 2,
        "absoluteTick": 105600,
        "noteNumber": 51,
        "velocity": 96
    },
    {
        "track": 3,
        "absoluteTick": 105600,
        "noteNumber": 49,
        "velocity": 96
    },
    {
        "track": 3,
        "absoluteTick": 105720,
        "noteNumber": 51,
        "velocity": 96
    },
    {
        "track": 0,
        "absoluteTick": 105840,
        "noteNumber": 73,
        "velocity": 96
    },
    {
        "track": 1,
        "absoluteTick": 105840,
        "noteNumber": 67,
        "velocity": 96
    },
    {
        "track": 2,
        "absoluteTick": 105840,
        "noteNumber": 51,
        "velocity": 96
    },
    {
        "track": 3,
        "absoluteTick": 105840,
        "noteNumber": 49,
        "velocity": 96
    },
    {
        "track": 4,
        "absoluteTick": 105840,
        "noteNumber": 49,
        "velocity": 96
    },
    {
        "track": 3,
        "absoluteTick": 105960,
        "noteNumber": 51,
        "velocity": 96
    },
    {
        "track": 0,
        "absoluteTick": 106080,
        "noteNumber": 73,
        "velocity": 96
    },
    {
        "track": 1,
        "absoluteTick": 106080,
        "noteNumber": 67,
        "velocity": 96
    },
    {
        "track": 2,
        "absoluteTick": 106080,
        "noteNumber": 51,
        "velocity": 96
    },
    {
        "track": 3,
        "absoluteTick": 106080,
        "noteNumber": 51,
        "velocity": 96
    },
    {
        "track": 4,
        "absoluteTick": 106080,
        "noteNumber": 49,
        "velocity": 96
    },
    {
        "track": 3,
        "absoluteTick": 106200,
        "noteNumber": 53,
        "velocity": 96
    },
    {
        "track": 0,
        "absoluteTick": 106320,
        "noteNumber": 73,
        "velocity": 96
    },
    {
        "track": 1,
        "absoluteTick": 106320,
        "noteNumber": 67,
        "velocity": 96
    },
    {
        "track": 2,
        "absoluteTick": 106320,
        "noteNumber": 51,
        "velocity": 96
    },
    {
        "track": 3,
        "absoluteTick": 106320,
        "noteNumber": 51,
        "velocity": 96
    },
    {
        "track": 3,
        "absoluteTick": 106440,
        "noteNumber": 53,
        "velocity": 96
    },
    {
        "track": 0,
        "absoluteTick": 106560,
        "noteNumber": 73,
        "velocity": 96
    },
    {
        "track": 1,
        "absoluteTick": 106560,
        "noteNumber": 67,
        "velocity": 96
    },
    {
        "track": 2,
        "absoluteTick": 106560,
        "noteNumber": 51,
        "velocity": 96
    },
    {
        "track": 3,
        "absoluteTick": 106560,
        "noteNumber": 55,
        "velocity": 96
    },
    {
        "track": 4,
        "absoluteTick": 106560,
        "noteNumber": 49,
        "velocity": 96
    },
    {
        "track": 0,
        "absoluteTick": 106680,
        "noteNumber": 73,
        "velocity": 96
    },
    {
        "track": 1,
        "absoluteTick": 106680,
        "noteNumber": 67,
        "velocity": 96
    },
    {
        "track": 2,
        "absoluteTick": 106680,
        "noteNumber": 51,
        "velocity": 96
    },
    {
        "track": 3,
        "absoluteTick": 106680,
        "noteNumber": 57,
        "velocity": 96
    },
    {
        "track": 0,
        "absoluteTick": 106800,
        "noteNumber": 73,
        "velocity": 96
    },
    {
        "track": 1,
        "absoluteTick": 106800,
        "noteNumber": 67,
        "velocity": 96
    },
    {
        "track": 2,
        "absoluteTick": 106800,
        "noteNumber": 51,
        "velocity": 96
    },
    {
        "track": 3,
        "absoluteTick": 106800,
        "noteNumber": 55,
        "velocity": 96
    },
    {
        "track": 0,
        "absoluteTick": 106920,
        "noteNumber": 73,
        "velocity": 96
    },
    {
        "track": 1,
        "absoluteTick": 106920,
        "noteNumber": 67,
        "velocity": 96
    },
    {
        "track": 2,
        "absoluteTick": 106920,
        "noteNumber": 51,
        "velocity": 96
    },
    {
        "track": 3,
        "absoluteTick": 106920,
        "noteNumber": 57,
        "velocity": 96
    },
    {
        "track": 0,
        "absoluteTick": 107040,
        "noteNumber": 74,
        "velocity": 80
    },
    {
        "track": 1,
        "absoluteTick": 107040,
        "noteNumber": 67,
        "velocity": 96
    },
    {
        "track": 2,
        "absoluteTick": 107040,
        "noteNumber": 55,
        "velocity": 80
    },
    {
        "track": 3,
        "absoluteTick": 107040,
        "noteNumber": 55,
        "velocity": 80
    },
    {
        "track": 4,
        "absoluteTick": 107040,
        "noteNumber": 43,
        "velocity": 96
    },
    {
        "track": 0,
        "absoluteTick": 107280,
        "noteNumber": 55,
        "velocity": 80
    },
    {
        "track": 2,
        "absoluteTick": 107280,
        "noteNumber": 55,
        "velocity": 80
    },
    {
        "track": 3,
        "absoluteTick": 107280,
        "noteNumber": 43,
        "velocity": 80
    },
    {
        "track": 0,
        "absoluteTick": 107520,
        "noteNumber": 55,
        "velocity": 80
    },
    {
        "track": 2,
        "absoluteTick": 107520,
        "noteNumber": 55,
        "velocity": 80
    },
    {
        "track": 0,
        "absoluteTick": 107640,
        "noteNumber": 55,
        "velocity": 80
    },
    {
        "track": 0,
        "absoluteTick": 107760,
        "noteNumber": 55,
        "velocity": 80
    },
    {
        "track": 2,
        "absoluteTick": 107760,
        "noteNumber": 55,
        "velocity": 80
    },
    {
        "track": 3,
        "absoluteTick": 107760,
        "noteNumber": 43,
        "velocity": 80
    },
    {
        "track": 4,
        "absoluteTick": 107760,
        "noteNumber": 43,
        "velocity": 96
    },
    {
        "track": 0,
        "absoluteTick": 108000,
        "noteNumber": 55,
        "velocity": 80
    },
    {
        "track": 2,
        "absoluteTick": 108000,
        "noteNumber": 55,
        "velocity": 80
    },
    {
        "track": 0,
        "absoluteTick": 108240,
        "noteNumber": 55,
        "velocity": 80
    },
    {
        "track": 2,
        "absoluteTick": 108240,
        "noteNumber": 55,
        "velocity": 80
    },
    {
        "track": 3,
        "absoluteTick": 108240,
        "noteNumber": 43,
        "velocity": 80
    },
    {
        "track": 4,
        "absoluteTick": 108240,
        "noteNumber": 43,
        "velocity": 96
    },
    {
        "track": 0,
        "absoluteTick": 108360,
        "noteNumber": 55,
        "velocity": 80
    },
    {
        "track": 0,
        "absoluteTick": 108480,
        "noteNumber": 55,
        "velocity": 80
    },
    {
        "track": 2,
        "absoluteTick": 108480,
        "noteNumber": 55,
        "velocity": 80
    },
    {
        "track": 0,
        "absoluteTick": 108600,
        "noteNumber": 55,
        "velocity": 80
    },
    {
        "track": 0,
        "absoluteTick": 108720,
        "noteNumber": 57,
        "velocity": 80
    },
    {
        "track": 2,
        "absoluteTick": 108720,
        "noteNumber": 55,
        "velocity": 80
    },
    {
        "track": 3,
        "absoluteTick": 108720,
        "noteNumber": 43,
        "velocity": 80
    },
    {
        "track": 4,
        "absoluteTick": 108720,
        "noteNumber": 43,
        "velocity": 96
    },
    {
        "track": 0,
        "absoluteTick": 108840,
        "noteNumber": 57,
        "velocity": 80
    },
    {
        "track": 0,
        "absoluteTick": 108960,
        "noteNumber": 58,
        "velocity": 80
    },
    {
        "track": 2,
        "absoluteTick": 108960,
        "noteNumber": 55,
        "velocity": 80
    },
    {
        "track": 0,
        "absoluteTick": 109080,
        "noteNumber": 58,
        "velocity": 80
    },
    {
        "track": 0,
        "absoluteTick": 109200,
        "noteNumber": 60,
        "velocity": 80
    },
    {
        "track": 2,
        "absoluteTick": 109200,
        "noteNumber": 55,
        "velocity": 80
    },
    {
        "track": 0,
        "absoluteTick": 109320,
        "noteNumber": 60,
        "velocity": 80
    },
    {
        "track": 0,
        "absoluteTick": 109440,
        "noteNumber": 62,
        "velocity": 80
    },
    {
        "track": 2,
        "absoluteTick": 109440,
        "noteNumber": 57,
        "velocity": 80
    },
    {
        "track": 3,
        "absoluteTick": 109440,
        "noteNumber": 46,
        "velocity": 80
    },
    {
        "track": 4,
        "absoluteTick": 109440,
        "noteNumber": 46,
        "velocity": 96
    },
    {
        "track": 0,
        "absoluteTick": 109560,
        "noteNumber": 62,
        "velocity": 80
    },
    {
        "track": 0,
        "absoluteTick": 109680,
        "noteNumber": 63,
        "velocity": 80
    },
    {
        "track": 2,
        "absoluteTick": 109680,
        "noteNumber": 57,
        "velocity": 80
    },
    {
        "track": 3,
        "absoluteTick": 109680,
        "noteNumber": 46,
        "velocity": 80
    },
    {
        "track": 0,
        "absoluteTick": 109800,
        "noteNumber": 63,
        "velocity": 80
    },
    {
        "track": 0,
        "absoluteTick": 109920,
        "noteNumber": 62,
        "velocity": 80
    },
    {
        "track": 2,
        "absoluteTick": 109920,
        "noteNumber": 57,
        "velocity": 80
    },
    {
        "track": 0,
        "absoluteTick": 110040,
        "noteNumber": 62,
        "velocity": 80
    },
    {
        "track": 0,
        "absoluteTick": 110160,
        "noteNumber": 60,
        "velocity": 80
    },
    {
        "track": 2,
        "absoluteTick": 110160,
        "noteNumber": 57,
        "velocity": 80
    },
    {
        "track": 3,
        "absoluteTick": 110160,
        "noteNumber": 46,
        "velocity": 80
    },
    {
        "track": 4,
        "absoluteTick": 110160,
        "noteNumber": 46,
        "velocity": 96
    },
    {
        "track": 0,
        "absoluteTick": 110280,
        "noteNumber": 60,
        "velocity": 80
    },
    {
        "track": 0,
        "absoluteTick": 110400,
        "noteNumber": 58,
        "velocity": 80
    },
    {
        "track": 2,
        "absoluteTick": 110400,
        "noteNumber": 57,
        "velocity": 80
    },
    {
        "track": 0,
        "absoluteTick": 110520,
        "noteNumber": 58,
        "velocity": 80
    },
    {
        "track": 0,
        "absoluteTick": 110640,
        "noteNumber": 63,
        "velocity": 80
    },
    {
        "track": 2,
        "absoluteTick": 110640,
        "noteNumber": 57,
        "velocity": 80
    },
    {
        "track": 3,
        "absoluteTick": 110640,
        "noteNumber": 46,
        "velocity": 80
    },
    {
        "track": 4,
        "absoluteTick": 110640,
        "noteNumber": 46,
        "velocity": 96
    },
    {
        "track": 0,
        "absoluteTick": 110760,
        "noteNumber": 63,
        "velocity": 80
    },
    {
        "track": 0,
        "absoluteTick": 110880,
        "noteNumber": 62,
        "velocity": 80
    },
    {
        "track": 2,
        "absoluteTick": 110880,
        "noteNumber": 57,
        "velocity": 80
    },
    {
        "track": 0,
        "absoluteTick": 111000,
        "noteNumber": 62,
        "velocity": 80
    },
    {
        "track": 0,
        "absoluteTick": 111120,
        "noteNumber": 63,
        "velocity": 80
    },
    {
        "track": 2,
        "absoluteTick": 111120,
        "noteNumber": 57,
        "velocity": 80
    },
    {
        "track": 3,
        "absoluteTick": 111120,
        "noteNumber": 46,
        "velocity": 80
    },
    {
        "track": 4,
        "absoluteTick": 111120,
        "noteNumber": 46,
        "velocity": 96
    },
    {
        "track": 0,
        "absoluteTick": 111240,
        "noteNumber": 63,
        "velocity": 80
    },
    {
        "track": 0,
        "absoluteTick": 111360,
        "noteNumber": 66,
        "velocity": 80
    },
    {
        "track": 2,
        "absoluteTick": 111360,
        "noteNumber": 57,
        "velocity": 80
    },
    {
        "track": 0,
        "absoluteTick": 111480,
        "noteNumber": 66,
        "velocity": 80
    },
    {
        "track": 0,
        "absoluteTick": 111600,
        "noteNumber": 67,
        "velocity": 80
    },
    {
        "track": 2,
        "absoluteTick": 111600,
        "noteNumber": 57,
        "velocity": 80
    },
    {
        "track": 0,
        "absoluteTick": 111720,
        "noteNumber": 67,
        "velocity": 80
    },
    {
        "track": 0,
        "absoluteTick": 111840,
        "noteNumber": 69,
        "velocity": 80
    },
    {
        "track": 2,
        "absoluteTick": 111840,
        "noteNumber": 57,
        "velocity": 80
    },
    {
        "track": 3,
        "absoluteTick": 111840,
        "noteNumber": 42,
        "velocity": 80
    },
    {
        "track": 4,
        "absoluteTick": 111840,
        "noteNumber": 42,
        "velocity": 96
    },
    {
        "track": 0,
        "absoluteTick": 112080,
        "noteNumber": 69,
        "velocity": 80
    },
    {
        "track": 2,
        "absoluteTick": 112080,
        "noteNumber": 57,
        "velocity": 80
    },
    {
        "track": 3,
        "absoluteTick": 112080,
        "noteNumber": 42,
        "velocity": 80
    },
    {
        "track": 0,
        "absoluteTick": 112320,
        "noteNumber": 69,
        "velocity": 80
    },
    {
        "track": 2,
        "absoluteTick": 112320,
        "noteNumber": 57,
        "velocity": 80
    },
    {
        "track": 0,
        "absoluteTick": 112440,
        "noteNumber": 69,
        "velocity": 80
    },
    {
        "track": 0,
        "absoluteTick": 112560,
        "noteNumber": 69,
        "velocity": 80
    },
    {
        "track": 2,
        "absoluteTick": 112560,
        "noteNumber": 57,
        "velocity": 80
    },
    {
        "track": 3,
        "absoluteTick": 112560,
        "noteNumber": 42,
        "velocity": 80
    },
    {
        "track": 4,
        "absoluteTick": 112560,
        "noteNumber": 42,
        "velocity": 96
    },
    {
        "track": 0,
        "absoluteTick": 112800,
        "noteNumber": 69,
        "velocity": 80
    },
    {
        "track": 2,
        "absoluteTick": 112800,
        "noteNumber": 57,
        "velocity": 80
    },
    {
        "track": 0,
        "absoluteTick": 113040,
        "noteNumber": 69,
        "velocity": 80
    },
    {
        "track": 2,
        "absoluteTick": 113040,
        "noteNumber": 58,
        "velocity": 80
    },
    {
        "track": 3,
        "absoluteTick": 113040,
        "noteNumber": 42,
        "velocity": 80
    },
    {
        "track": 4,
        "absoluteTick": 113040,
        "noteNumber": 42,
        "velocity": 96
    },
    {
        "track": 0,
        "absoluteTick": 113160,
        "noteNumber": 69,
        "velocity": 80
    },
    {
        "track": 0,
        "absoluteTick": 113280,
        "noteNumber": 70,
        "velocity": 80
    },
    {
        "track": 2,
        "absoluteTick": 113280,
        "noteNumber": 58,
        "velocity": 80
    },
    {
        "track": 0,
        "absoluteTick": 113400,
        "noteNumber": 70,
        "velocity": 80
    },
    {
        "track": 0,
        "absoluteTick": 113520,
        "noteNumber": 69,
        "velocity": 80
    },
    {
        "track": 2,
        "absoluteTick": 113520,
        "noteNumber": 58,
        "velocity": 80
    },
    {
        "track": 3,
        "absoluteTick": 113520,
        "noteNumber": 42,
        "velocity": 80
    },
    {
        "track": 4,
        "absoluteTick": 113520,
        "noteNumber": 42,
        "velocity": 96
    },
    {
        "track": 0,
        "absoluteTick": 113640,
        "noteNumber": 69,
        "velocity": 80
    },
    {
        "track": 0,
        "absoluteTick": 113760,
        "noteNumber": 67,
        "velocity": 80
    },
    {
        "track": 2,
        "absoluteTick": 113760,
        "noteNumber": 58,
        "velocity": 80
    },
    {
        "track": 0,
        "absoluteTick": 113880,
        "noteNumber": 67,
        "velocity": 80
    },
    {
        "track": 0,
        "absoluteTick": 114000,
        "noteNumber": 69,
        "velocity": 80
    },
    {
        "track": 2,
        "absoluteTick": 114000,
        "noteNumber": 58,
        "velocity": 80
    },
    {
        "track": 0,
        "absoluteTick": 114120,
        "noteNumber": 69,
        "velocity": 80
    },
    {
        "track": 0,
        "absoluteTick": 114240,
        "noteNumber": 70,
        "velocity": 80
    },
    {
        "track": 2,
        "absoluteTick": 114240,
        "noteNumber": 58,
        "velocity": 80
    },
    {
        "track": 3,
        "absoluteTick": 114240,
        "noteNumber": 39,
        "velocity": 80
    },
    {
        "track": 4,
        "absoluteTick": 114240,
        "noteNumber": 39,
        "velocity": 96
    },
    {
        "track": 0,
        "absoluteTick": 114360,
        "noteNumber": 72,
        "velocity": 80
    },
    {
        "track": 0,
        "absoluteTick": 114480,
        "noteNumber": 70,
        "velocity": 80
    },
    {
        "track": 2,
        "absoluteTick": 114480,
        "noteNumber": 58,
        "velocity": 80
    },
    {
        "track": 3,
        "absoluteTick": 114480,
        "noteNumber": 39,
        "velocity": 80
    },
    {
        "track": 0,
        "absoluteTick": 114600,
        "noteNumber": 69,
        "velocity": 80
    },
    {
        "track": 0,
        "absoluteTick": 114720,
        "noteNumber": 70,
        "velocity": 80
    },
    {
        "track": 2,
        "absoluteTick": 114720,
        "noteNumber": 58,
        "velocity": 80
    },
    {
        "track": 0,
        "absoluteTick": 114840,
        "noteNumber": 72,
        "velocity": 80
    },
    {
        "track": 0,
        "absoluteTick": 114960,
        "noteNumber": 70,
        "velocity": 80
    },
    {
        "track": 2,
        "absoluteTick": 114960,
        "noteNumber": 57,
        "velocity": 80
    },
    {
        "track": 3,
        "absoluteTick": 114960,
        "noteNumber": 39,
        "velocity": 80
    },
    {
        "track": 4,
        "absoluteTick": 114960,
        "noteNumber": 39,
        "velocity": 96
    },
    {
        "track": 0,
        "absoluteTick": 115080,
        "noteNumber": 72,
        "velocity": 80
    },
    {
        "track": 0,
        "absoluteTick": 115200,
        "noteNumber": 74,
        "velocity": 80
    },
    {
        "track": 2,
        "absoluteTick": 115200,
        "noteNumber": 57,
        "velocity": 80
    },
    {
        "track": 0,
        "absoluteTick": 115320,
        "noteNumber": 75,
        "velocity": 80
    },
    {
        "track": 0,
        "absoluteTick": 115440,
        "noteNumber": 74,
        "velocity": 80
    },
    {
        "track": 2,
        "absoluteTick": 115440,
        "noteNumber": 57,
        "velocity": 80
    },
    {
        "track": 3,
        "absoluteTick": 115440,
        "noteNumber": 42,
        "velocity": 80
    },
    {
        "track": 4,
        "absoluteTick": 115440,
        "noteNumber": 42,
        "velocity": 96
    },
    {
        "track": 0,
        "absoluteTick": 115560,
        "noteNumber": 72,
        "velocity": 80
    },
    {
        "track": 0,
        "absoluteTick": 115680,
        "noteNumber": 70,
        "velocity": 80
    },
    {
        "track": 2,
        "absoluteTick": 115680,
        "noteNumber": 57,
        "velocity": 80
    },
    {
        "track": 0,
        "absoluteTick": 115800,
        "noteNumber": 72,
        "velocity": 80
    },
    {
        "track": 0,
        "absoluteTick": 115920,
        "noteNumber": 74,
        "velocity": 80
    },
    {
        "track": 2,
        "absoluteTick": 115920,
        "noteNumber": 57,
        "velocity": 80
    },
    {
        "track": 3,
        "absoluteTick": 115920,
        "noteNumber": 42,
        "velocity": 80
    },
    {
        "track": 4,
        "absoluteTick": 115920,
        "noteNumber": 42,
        "velocity": 96
    },
    {
        "track": 0,
        "absoluteTick": 116040,
        "noteNumber": 75,
        "velocity": 80
    },
    {
        "track": 0,
        "absoluteTick": 116160,
        "noteNumber": 77,
        "velocity": 80
    },
    {
        "track": 2,
        "absoluteTick": 116160,
        "noteNumber": 57,
        "velocity": 80
    },
    {
        "track": 0,
        "absoluteTick": 116280,
        "noteNumber": 78,
        "velocity": 80
    },
    {
        "track": 0,
        "absoluteTick": 116400,
        "noteNumber": 77,
        "velocity": 80
    },
    {
        "track": 2,
        "absoluteTick": 116400,
        "noteNumber": 57,
        "velocity": 80
    },
    {
        "track": 0,
        "absoluteTick": 116520,
        "noteNumber": 78,
        "velocity": 80
    },
    {
        "track": 0,
        "absoluteTick": 116640,
        "noteNumber": 79,
        "velocity": 80
    },
    {
        "track": 1,
        "absoluteTick": 116640,
        "noteNumber": 62,
        "velocity": 96
    },
    {
        "track": 2,
        "absoluteTick": 116640,
        "noteNumber": 55,
        "velocity": 80
    },
    {
        "track": 3,
        "absoluteTick": 116640,
        "noteNumber": 43,
        "velocity": 80
    },
    {
        "track": 4,
        "absoluteTick": 116640,
        "noteNumber": 43,
        "velocity": 96
    },
    {
        "track": 1,
        "absoluteTick": 116880,
        "noteNumber": 62,
        "velocity": 96
    },
    {
        "track": 2,
        "absoluteTick": 116880,
        "noteNumber": 55,
        "velocity": 80
    },
    {
        "track": 3,
        "absoluteTick": 116880,
        "noteNumber": 43,
        "velocity": 80
    },
    {
        "track": 1,
        "absoluteTick": 117120,
        "noteNumber": 62,
        "velocity": 96
    },
    {
        "track": 2,
        "absoluteTick": 117120,
        "noteNumber": 55,
        "velocity": 80
    },
    {
        "track": 0,
        "absoluteTick": 117360,
        "noteNumber": 79,
        "velocity": 80
    },
    {
        "track": 1,
        "absoluteTick": 117360,
        "noteNumber": 62,
        "velocity": 96
    },
    {
        "track": 2,
        "absoluteTick": 117360,
        "noteNumber": 55,
        "velocity": 80
    },
    {
        "track": 3,
        "absoluteTick": 117360,
        "noteNumber": 43,
        "velocity": 80
    },
    {
        "track": 4,
        "absoluteTick": 117360,
        "noteNumber": 43,
        "velocity": 96
    },
    {
        "track": 1,
        "absoluteTick": 117600,
        "noteNumber": 62,
        "velocity": 96
    },
    {
        "track": 2,
        "absoluteTick": 117600,
        "noteNumber": 55,
        "velocity": 80
    },
    {
        "track": 1,
        "absoluteTick": 117840,
        "noteNumber": 62,
        "velocity": 96
    },
    {
        "track": 2,
        "absoluteTick": 117840,
        "noteNumber": 55,
        "velocity": 80
    },
    {
        "track": 3,
        "absoluteTick": 117840,
        "noteNumber": 43,
        "velocity": 80
    },
    {
        "track": 4,
        "absoluteTick": 117840,
        "noteNumber": 43,
        "velocity": 96
    },
    {
        "track": 0,
        "absoluteTick": 118080,
        "noteNumber": 79,
        "velocity": 80
    },
    {
        "track": 1,
        "absoluteTick": 118080,
        "noteNumber": 62,
        "velocity": 96
    },
    {
        "track": 2,
        "absoluteTick": 118080,
        "noteNumber": 55,
        "velocity": 80
    },
    {
        "track": 1,
        "absoluteTick": 118320,
        "noteNumber": 62,
        "velocity": 96
    },
    {
        "track": 2,
        "absoluteTick": 118320,
        "noteNumber": 55,
        "velocity": 80
    },
    {
        "track": 3,
        "absoluteTick": 118320,
        "noteNumber": 43,
        "velocity": 80
    },
    {
        "track": 4,
        "absoluteTick": 118320,
        "noteNumber": 43,
        "velocity": 96
    },
    {
        "track": 0,
        "absoluteTick": 118560,
        "noteNumber": 79,
        "velocity": 80
    },
    {
        "track": 1,
        "absoluteTick": 118560,
        "noteNumber": 62,
        "velocity": 96
    },
    {
        "track": 2,
        "absoluteTick": 118560,
        "noteNumber": 55,
        "velocity": 80
    },
    {
        "track": 1,
        "absoluteTick": 118800,
        "noteNumber": 62,
        "velocity": 96
    },
    {
        "track": 2,
        "absoluteTick": 118800,
        "noteNumber": 55,
        "velocity": 80
    },
    {
        "track": 0,
        "absoluteTick": 119040,
        "noteNumber": 81,
        "velocity": 80
    },
    {
        "track": 1,
        "absoluteTick": 119040,
        "noteNumber": 62,
        "velocity": 96
    },
    {
        "track": 2,
        "absoluteTick": 119040,
        "noteNumber": 57,
        "velocity": 80
    },
    {
        "track": 3,
        "absoluteTick": 119040,
        "noteNumber": 46,
        "velocity": 80
    },
    {
        "track": 4,
        "absoluteTick": 119040,
        "noteNumber": 46,
        "velocity": 96
    },
    {
        "track": 1,
        "absoluteTick": 119280,
        "noteNumber": 62,
        "velocity": 96
    },
    {
        "track": 2,
        "absoluteTick": 119280,
        "noteNumber": 57,
        "velocity": 80
    },
    {
        "track": 3,
        "absoluteTick": 119280,
        "noteNumber": 46,
        "velocity": 80
    },
    {
        "track": 1,
        "absoluteTick": 119520,
        "noteNumber": 62,
        "velocity": 96
    },
    {
        "track": 2,
        "absoluteTick": 119520,
        "noteNumber": 57,
        "velocity": 80
    },
    {
        "track": 0,
        "absoluteTick": 119760,
        "noteNumber": 81,
        "velocity": 80
    },
    {
        "track": 1,
        "absoluteTick": 119760,
        "noteNumber": 62,
        "velocity": 96
    },
    {
        "track": 2,
        "absoluteTick": 119760,
        "noteNumber": 57,
        "velocity": 80
    },
    {
        "track": 3,
        "absoluteTick": 119760,
        "noteNumber": 46,
        "velocity": 80
    },
    {
        "track": 4,
        "absoluteTick": 119760,
        "noteNumber": 46,
        "velocity": 96
    },
    {
        "track": 1,
        "absoluteTick": 120000,
        "noteNumber": 62,
        "velocity": 96
    },
    {
        "track": 2,
        "absoluteTick": 120000,
        "noteNumber": 57,
        "velocity": 80
    },
    {
        "track": 1,
        "absoluteTick": 120240,
        "noteNumber": 62,
        "velocity": 96
    },
    {
        "track": 2,
        "absoluteTick": 120240,
        "noteNumber": 57,
        "velocity": 80
    },
    {
        "track": 3,
        "absoluteTick": 120240,
        "noteNumber": 46,
        "velocity": 80
    },
    {
        "track": 4,
        "absoluteTick": 120240,
        "noteNumber": 46,
        "velocity": 96
    },
    {
        "track": 0,
        "absoluteTick": 120480,
        "noteNumber": 81,
        "velocity": 80
    },
    {
        "track": 1,
        "absoluteTick": 120480,
        "noteNumber": 62,
        "velocity": 96
    },
    {
        "track": 2,
        "absoluteTick": 120480,
        "noteNumber": 57,
        "velocity": 80
    },
    {
        "track": 0,
        "absoluteTick": 120600,
        "noteNumber": 81,
        "velocity": 80
    },
    {
        "track": 1,
        "absoluteTick": 120720,
        "noteNumber": 62,
        "velocity": 96
    },
    {
        "track": 2,
        "absoluteTick": 120720,
        "noteNumber": 57,
        "velocity": 80
    },
    {
        "track": 3,
        "absoluteTick": 120720,
        "noteNumber": 46,
        "velocity": 80
    },
    {
        "track": 4,
        "absoluteTick": 120720,
        "noteNumber": 46,
        "velocity": 96
    },
    {
        "track": 0,
        "absoluteTick": 120960,
        "noteNumber": 81,
        "velocity": 80
    },
    {
        "track": 1,
        "absoluteTick": 120960,
        "noteNumber": 62,
        "velocity": 96
    },
    {
        "track": 2,
        "absoluteTick": 120960,
        "noteNumber": 57,
        "velocity": 80
    },
    {
        "track": 1,
        "absoluteTick": 121200,
        "noteNumber": 62,
        "velocity": 96
    },
    {
        "track": 2,
        "absoluteTick": 121200,
        "noteNumber": 57,
        "velocity": 80
    },
    {
        "track": 0,
        "absoluteTick": 121440,
        "noteNumber": 82,
        "velocity": 80
    },
    {
        "track": 1,
        "absoluteTick": 121440,
        "noteNumber": 62,
        "velocity": 96
    },
    {
        "track": 2,
        "absoluteTick": 121440,
        "noteNumber": 57,
        "velocity": 80
    },
    {
        "track": 3,
        "absoluteTick": 121440,
        "noteNumber": 42,
        "velocity": 80
    },
    {
        "track": 4,
        "absoluteTick": 121440,
        "noteNumber": 42,
        "velocity": 96
    },
    {
        "track": 1,
        "absoluteTick": 121680,
        "noteNumber": 62,
        "velocity": 96
    },
    {
        "track": 2,
        "absoluteTick": 121680,
        "noteNumber": 57,
        "velocity": 80
    },
    {
        "track": 3,
        "absoluteTick": 121680,
        "noteNumber": 42,
        "velocity": 80
    },
    {
        "track": 1,
        "absoluteTick": 121920,
        "noteNumber": 62,
        "velocity": 96
    },
    {
        "track": 2,
        "absoluteTick": 121920,
        "noteNumber": 57,
        "velocity": 80
    },
    {
        "track": 0,
        "absoluteTick": 122160,
        "noteNumber": 82,
        "velocity": 80
    },
    {
        "track": 1,
        "absoluteTick": 122160,
        "noteNumber": 62,
        "velocity": 96
    },
    {
        "track": 2,
        "absoluteTick": 122160,
        "noteNumber": 57,
        "velocity": 80
    },
    {
        "track": 3,
        "absoluteTick": 122160,
        "noteNumber": 42,
        "velocity": 80
    },
    {
        "track": 4,
        "absoluteTick": 122160,
        "noteNumber": 42,
        "velocity": 96
    },
    {
        "track": 1,
        "absoluteTick": 122400,
        "noteNumber": 62,
        "velocity": 96
    },
    {
        "track": 2,
        "absoluteTick": 122400,
        "noteNumber": 57,
        "velocity": 80
    },
    {
        "track": 1,
        "absoluteTick": 122640,
        "noteNumber": 62,
        "velocity": 96
    },
    {
        "track": 2,
        "absoluteTick": 122640,
        "noteNumber": 58,
        "velocity": 80
    },
    {
        "track": 3,
        "absoluteTick": 122640,
        "noteNumber": 42,
        "velocity": 80
    },
    {
        "track": 4,
        "absoluteTick": 122640,
        "noteNumber": 42,
        "velocity": 96
    },
    {
        "track": 0,
        "absoluteTick": 122880,
        "noteNumber": 82,
        "velocity": 80
    },
    {
        "track": 1,
        "absoluteTick": 122880,
        "noteNumber": 62,
        "velocity": 96
    },
    {
        "track": 2,
        "absoluteTick": 122880,
        "noteNumber": 58,
        "velocity": 80
    },
    {
        "track": 1,
        "absoluteTick": 123120,
        "noteNumber": 63,
        "velocity": 96
    },
    {
        "track": 2,
        "absoluteTick": 123120,
        "noteNumber": 58,
        "velocity": 80
    },
    {
        "track": 3,
        "absoluteTick": 123120,
        "noteNumber": 42,
        "velocity": 80
    },
    {
        "track": 4,
        "absoluteTick": 123120,
        "noteNumber": 42,
        "velocity": 96
    },
    {
        "track": 0,
        "absoluteTick": 123360,
        "noteNumber": 82,
        "velocity": 80
    },
    {
        "track": 1,
        "absoluteTick": 123360,
        "noteNumber": 63,
        "velocity": 96
    },
    {
        "track": 2,
        "absoluteTick": 123360,
        "noteNumber": 58,
        "velocity": 80
    },
    {
        "track": 1,
        "absoluteTick": 123600,
        "noteNumber": 63,
        "velocity": 96
    },
    {
        "track": 2,
        "absoluteTick": 123600,
        "noteNumber": 58,
        "velocity": 80
    },
    {
        "track": 0,
        "absoluteTick": 123840,
        "noteNumber": 82,
        "velocity": 80
    },
    {
        "track": 1,
        "absoluteTick": 123840,
        "noteNumber": 63,
        "velocity": 96
    },
    {
        "track": 2,
        "absoluteTick": 123840,
        "noteNumber": 58,
        "velocity": 80
    },
    {
        "track": 3,
        "absoluteTick": 123840,
        "noteNumber": 39,
        "velocity": 80
    },
    {
        "track": 4,
        "absoluteTick": 123840,
        "noteNumber": 39,
        "velocity": 96
    },
    {
        "track": 0,
        "absoluteTick": 124080,
        "noteNumber": 84,
        "velocity": 80
    },
    {
        "track": 1,
        "absoluteTick": 124080,
        "noteNumber": 63,
        "velocity": 96
    },
    {
        "track": 2,
        "absoluteTick": 124080,
        "noteNumber": 58,
        "velocity": 80
    },
    {
        "track": 3,
        "absoluteTick": 124080,
        "noteNumber": 39,
        "velocity": 80
    },
    {
        "track": 4,
        "absoluteTick": 124080,
        "noteNumber": 39,
        "velocity": 96
    },
    {
        "track": 0,
        "absoluteTick": 124320,
        "noteNumber": 82,
        "velocity": 80
    },
    {
        "track": 1,
        "absoluteTick": 124320,
        "noteNumber": 63,
        "velocity": 96
    },
    {
        "track": 2,
        "absoluteTick": 124320,
        "noteNumber": 58,
        "velocity": 80
    },
    {
        "track": 0,
        "absoluteTick": 124560,
        "noteNumber": 84,
        "velocity": 80
    },
    {
        "track": 1,
        "absoluteTick": 124560,
        "noteNumber": 63,
        "velocity": 96
    },
    {
        "track": 2,
        "absoluteTick": 124560,
        "noteNumber": 57,
        "velocity": 80
    },
    {
        "track": 3,
        "absoluteTick": 124560,
        "noteNumber": 39,
        "velocity": 80
    },
    {
        "track": 4,
        "absoluteTick": 124560,
        "noteNumber": 39,
        "velocity": 96
    },
    {
        "track": 0,
        "absoluteTick": 124800,
        "noteNumber": 86,
        "velocity": 80
    },
    {
        "track": 1,
        "absoluteTick": 124800,
        "noteNumber": 63,
        "velocity": 96
    },
    {
        "track": 2,
        "absoluteTick": 124800,
        "noteNumber": 57,
        "velocity": 80
    },
    {
        "track": 0,
        "absoluteTick": 125040,
        "noteNumber": 87,
        "velocity": 80
    },
    {
        "track": 1,
        "absoluteTick": 125040,
        "noteNumber": 62,
        "velocity": 96
    },
    {
        "track": 2,
        "absoluteTick": 125040,
        "noteNumber": 57,
        "velocity": 80
    },
    {
        "track": 3,
        "absoluteTick": 125040,
        "noteNumber": 42,
        "velocity": 80
    },
    {
        "track": 4,
        "absoluteTick": 125040,
        "noteNumber": 42,
        "velocity": 96
    },
    {
        "track": 0,
        "absoluteTick": 125280,
        "noteNumber": 86,
        "velocity": 80
    },
    {
        "track": 1,
        "absoluteTick": 125280,
        "noteNumber": 62,
        "velocity": 96
    },
    {
        "track": 2,
        "absoluteTick": 125280,
        "noteNumber": 57,
        "velocity": 80
    },
    {
        "track": 0,
        "absoluteTick": 125520,
        "noteNumber": 87,
        "velocity": 80
    },
    {
        "track": 1,
        "absoluteTick": 125520,
        "noteNumber": 62,
        "velocity": 96
    },
    {
        "track": 2,
        "absoluteTick": 125520,
        "noteNumber": 57,
        "velocity": 80
    },
    {
        "track": 3,
        "absoluteTick": 125520,
        "noteNumber": 42,
        "velocity": 80
    },
    {
        "track": 4,
        "absoluteTick": 125520,
        "noteNumber": 42,
        "velocity": 96
    },
    {
        "track": 0,
        "absoluteTick": 125760,
        "noteNumber": 89,
        "velocity": 80
    },
    {
        "track": 1,
        "absoluteTick": 125760,
        "noteNumber": 62,
        "velocity": 96
    },
    {
        "track": 2,
        "absoluteTick": 125760,
        "noteNumber": 57,
        "velocity": 80
    },
    {
        "track": 0,
        "absoluteTick": 126000,
        "noteNumber": 90,
        "velocity": 80
    },
    {
        "track": 1,
        "absoluteTick": 126000,
        "noteNumber": 62,
        "velocity": 96
    },
    {
        "track": 2,
        "absoluteTick": 126000,
        "noteNumber": 57,
        "velocity": 80
    },
    {
        "track": 0,
        "absoluteTick": 126240,
        "noteNumber": 91,
        "velocity": 80
    },
    {
        "track": 1,
        "absoluteTick": 126240,
        "noteNumber": 58,
        "velocity": 96
    },
    {
        "track": 2,
        "absoluteTick": 126240,
        "noteNumber": 70,
        "velocity": 80
    },
    {
        "track": 3,
        "absoluteTick": 126240,
        "noteNumber": 55,
        "velocity": 80
    },
    {
        "track": 4,
        "absoluteTick": 126240,
        "noteNumber": 31,
        "velocity": 96
    },
    {
        "track": 1,
        "absoluteTick": 126480,
        "noteNumber": 58,
        "velocity": 96
    },
    {
        "track": 3,
        "absoluteTick": 126480,
        "noteNumber": 55,
        "velocity": 80
    },
    {
        "track": 1,
        "absoluteTick": 126720,
        "noteNumber": 58,
        "velocity": 96
    },
    {
        "track": 3,
        "absoluteTick": 126720,
        "noteNumber": 55,
        "velocity": 80
    },
    {
        "track": 1,
        "absoluteTick": 126960,
        "noteNumber": 58,
        "velocity": 96
    },
    {
        "track": 2,
        "absoluteTick": 126960,
        "noteNumber": 74,
        "velocity": 80
    },
    {
        "track": 3,
        "absoluteTick": 126960,
        "noteNumber": 55,
        "velocity": 80
    },
    {
        "track": 4,
        "absoluteTick": 126960,
        "noteNumber": 31,
        "velocity": 96
    },
    {
        "track": 1,
        "absoluteTick": 127200,
        "noteNumber": 58,
        "velocity": 96
    },
    {
        "track": 3,
        "absoluteTick": 127200,
        "noteNumber": 55,
        "velocity": 80
    },
    {
        "track": 0,
        "absoluteTick": 127440,
        "noteNumber": 67,
        "velocity": 80
    },
    {
        "track": 1,
        "absoluteTick": 127440,
        "noteNumber": 58,
        "velocity": 96
    },
    {
        "track": 3,
        "absoluteTick": 127440,
        "noteNumber": 55,
        "velocity": 80
    },
    {
        "track": 4,
        "absoluteTick": 127440,
        "noteNumber": 31,
        "velocity": 96
    },
    {
        "track": 0,
        "absoluteTick": 127560,
        "noteNumber": 69,
        "velocity": 80
    },
    {
        "track": 0,
        "absoluteTick": 127680,
        "noteNumber": 70,
        "velocity": 80
    },
    {
        "track": 1,
        "absoluteTick": 127680,
        "noteNumber": 58,
        "velocity": 96
    },
    {
        "track": 3,
        "absoluteTick": 127680,
        "noteNumber": 55,
        "velocity": 80
    },
    {
        "track": 0,
        "absoluteTick": 127800,
        "noteNumber": 69,
        "velocity": 80
    },
    {
        "track": 0,
        "absoluteTick": 127920,
        "noteNumber": 67,
        "velocity": 80
    },
    {
        "track": 1,
        "absoluteTick": 127920,
        "noteNumber": 58,
        "velocity": 96
    },
    {
        "track": 3,
        "absoluteTick": 127920,
        "noteNumber": 55,
        "velocity": 80
    },
    {
        "track": 4,
        "absoluteTick": 127920,
        "noteNumber": 31,
        "velocity": 96
    },
    {
        "track": 0,
        "absoluteTick": 128040,
        "noteNumber": 66,
        "velocity": 80
    },
    {
        "track": 0,
        "absoluteTick": 128160,
        "noteNumber": 67,
        "velocity": 80
    },
    {
        "track": 1,
        "absoluteTick": 128160,
        "noteNumber": 58,
        "velocity": 96
    },
    {
        "track": 3,
        "absoluteTick": 128160,
        "noteNumber": 55,
        "velocity": 80
    },
    {
        "track": 1,
        "absoluteTick": 128400,
        "noteNumber": 58,
        "velocity": 96
    },
    {
        "track": 3,
        "absoluteTick": 128400,
        "noteNumber": 55,
        "velocity": 80
    },
    {
        "track": 1,
        "absoluteTick": 128640,
        "noteNumber": 57,
        "velocity": 96
    },
    {
        "track": 3,
        "absoluteTick": 128640,
        "noteNumber": 54,
        "velocity": 80
    },
    {
        "track": 4,
        "absoluteTick": 128640,
        "noteNumber": 34,
        "velocity": 96
    },
    {
        "track": 1,
        "absoluteTick": 128880,
        "noteNumber": 57,
        "velocity": 96
    },
    {
        "track": 3,
        "absoluteTick": 128880,
        "noteNumber": 54,
        "velocity": 80
    },
    {
        "track": 1,
        "absoluteTick": 129120,
        "noteNumber": 57,
        "velocity": 96
    },
    {
        "track": 3,
        "absoluteTick": 129120,
        "noteNumber": 54,
        "velocity": 80
    },
    {
        "track": 1,
        "absoluteTick": 129360,
        "noteNumber": 57,
        "velocity": 96
    },
    {
        "track": 3,
        "absoluteTick": 129360,
        "noteNumber": 54,
        "velocity": 80
    },
    {
        "track": 4,
        "absoluteTick": 129360,
        "noteNumber": 34,
        "velocity": 96
    },
    {
        "track": 1,
        "absoluteTick": 129600,
        "noteNumber": 57,
        "velocity": 96
    },
    {
        "track": 3,
        "absoluteTick": 129600,
        "noteNumber": 54,
        "velocity": 80
    },
    {
        "track": 0,
        "absoluteTick": 129840,
        "noteNumber": 66,
        "velocity": 80
    },
    {
        "track": 1,
        "absoluteTick": 129840,
        "noteNumber": 57,
        "velocity": 96
    },
    {
        "track": 3,
        "absoluteTick": 129840,
        "noteNumber": 54,
        "velocity": 80
    },
    {
        "track": 4,
        "absoluteTick": 129840,
        "noteNumber": 34,
        "velocity": 96
    },
    {
        "track": 0,
        "absoluteTick": 129960,
        "noteNumber": 67,
        "velocity": 80
    },
    {
        "track": 0,
        "absoluteTick": 130080,
        "noteNumber": 69,
        "velocity": 80
    },
    {
        "track": 1,
        "absoluteTick": 130080,
        "noteNumber": 57,
        "velocity": 96
    },
    {
        "track": 3,
        "absoluteTick": 130080,
        "noteNumber": 54,
        "velocity": 80
    },
    {
        "track": 0,
        "absoluteTick": 130200,
        "noteNumber": 67,
        "velocity": 80
    },
    {
        "track": 0,
        "absoluteTick": 130320,
        "noteNumber": 66,
        "velocity": 80
    },
    {
        "track": 1,
        "absoluteTick": 130320,
        "noteNumber": 57,
        "velocity": 96
    },
    {
        "track": 3,
        "absoluteTick": 130320,
        "noteNumber": 54,
        "velocity": 80
    },
    {
        "track": 4,
        "absoluteTick": 130320,
        "noteNumber": 34,
        "velocity": 96
    },
    {
        "track": 0,
        "absoluteTick": 130440,
        "noteNumber": 64,
        "velocity": 80
    },
    {
        "track": 0,
        "absoluteTick": 130560,
        "noteNumber": 62,
        "velocity": 80
    },
    {
        "track": 1,
        "absoluteTick": 130560,
        "noteNumber": 57,
        "velocity": 96
    },
    {
        "track": 2,
        "absoluteTick": 130560,
        "noteNumber": 72,
        "velocity": 80
    },
    {
        "track": 3,
        "absoluteTick": 130560,
        "noteNumber": 54,
        "velocity": 80
    },
    {
        "track": 1,
        "absoluteTick": 130800,
        "noteNumber": 57,
        "velocity": 96
    },
    {
        "track": 2,
        "absoluteTick": 130800,
        "noteNumber": 74,
        "velocity": 80
    },
    {
        "track": 3,
        "absoluteTick": 130800,
        "noteNumber": 54,
        "velocity": 80
    },
    {
        "track": 1,
        "absoluteTick": 131040,
        "noteNumber": 58,
        "velocity": 96
    },
    {
        "track": 2,
        "absoluteTick": 131040,
        "noteNumber": 75,
        "velocity": 80
    },
    {
        "track": 3,
        "absoluteTick": 131040,
        "noteNumber": 55,
        "velocity": 80
    },
    {
        "track": 4,
        "absoluteTick": 131040,
        "noteNumber": 39,
        "velocity": 96
    },
    {
        "track": 1,
        "absoluteTick": 131280,
        "noteNumber": 58,
        "velocity": 96
    },
    {
        "track": 3,
        "absoluteTick": 131280,
        "noteNumber": 55,
        "velocity": 80
    },
    {
        "track": 1,
        "absoluteTick": 131520,
        "noteNumber": 58,
        "velocity": 96
    },
    {
        "track": 2,
        "absoluteTick": 131520,
        "noteNumber": 72,
        "velocity": 80
    },
    {
        "track": 3,
        "absoluteTick": 131520,
        "noteNumber": 55,
        "velocity": 80
    },
    {
        "track": 1,
        "absoluteTick": 131760,
        "noteNumber": 58,
        "velocity": 96
    },
    {
        "track": 2,
        "absoluteTick": 131760,
        "noteNumber": 70,
        "velocity": 80
    },
    {
        "track": 3,
        "absoluteTick": 131760,
        "noteNumber": 55,
        "velocity": 80
    },
    {
        "track": 4,
        "absoluteTick": 131760,
        "noteNumber": 39,
        "velocity": 96
    },
    {
        "track": 1,
        "absoluteTick": 132000,
        "noteNumber": 58,
        "velocity": 96
    },
    {
        "track": 3,
        "absoluteTick": 132000,
        "noteNumber": 55,
        "velocity": 80
    },
    {
        "track": 0,
        "absoluteTick": 132240,
        "noteNumber": 67,
        "velocity": 80
    },
    {
        "track": 1,
        "absoluteTick": 132240,
        "noteNumber": 58,
        "velocity": 96
    },
    {
        "track": 2,
        "absoluteTick": 132240,
        "noteNumber": 69,
        "velocity": 80
    },
    {
        "track": 3,
        "absoluteTick": 132240,
        "noteNumber": 55,
        "velocity": 80
    },
    {
        "track": 4,
        "absoluteTick": 132240,
        "noteNumber": 39,
        "velocity": 96
    },
    {
        "track": 0,
        "absoluteTick": 132360,
        "noteNumber": 69,
        "velocity": 80
    },
    {
        "track": 0,
        "absoluteTick": 132480,
        "noteNumber": 70,
        "velocity": 80
    },
    {
        "track": 1,
        "absoluteTick": 132480,
        "noteNumber": 58,
        "velocity": 96
    },
    {
        "track": 3,
        "absoluteTick": 132480,
        "noteNumber": 55,
        "velocity": 80
    },
    {
        "track": 0,
        "absoluteTick": 132600,
        "noteNumber": 69,
        "velocity": 80
    },
    {
        "track": 0,
        "absoluteTick": 132720,
        "noteNumber": 67,
        "velocity": 80
    },
    {
        "track": 1,
        "absoluteTick": 132720,
        "noteNumber": 58,
        "velocity": 96
    },
    {
        "track": 2,
        "absoluteTick": 132720,
        "noteNumber": 74,
        "velocity": 80
    },
    {
        "track": 3,
        "absoluteTick": 132720,
        "noteNumber": 55,
        "velocity": 80
    },
    {
        "track": 4,
        "absoluteTick": 132720,
        "noteNumber": 39,
        "velocity": 96
    },
    {
        "track": 0,
        "absoluteTick": 132840,
        "noteNumber": 65,
        "velocity": 80
    },
    {
        "track": 0,
        "absoluteTick": 132960,
        "noteNumber": 67,
        "velocity": 80
    },
    {
        "track": 1,
        "absoluteTick": 132960,
        "noteNumber": 58,
        "velocity": 96
    },
    {
        "track": 3,
        "absoluteTick": 132960,
        "noteNumber": 55,
        "velocity": 80
    },
    {
        "track": 0,
        "absoluteTick": 133080,
        "noteNumber": 65,
        "velocity": 80
    },
    {
        "track": 0,
        "absoluteTick": 133200,
        "noteNumber": 63,
        "velocity": 80
    },
    {
        "track": 1,
        "absoluteTick": 133200,
        "noteNumber": 58,
        "velocity": 96
    },
    {
        "track": 3,
        "absoluteTick": 133200,
        "noteNumber": 55,
        "velocity": 80
    },
    {
        "track": 0,
        "absoluteTick": 133320,
        "noteNumber": 62,
        "velocity": 80
    },
    {
        "track": 0,
        "absoluteTick": 133440,
        "noteNumber": 60,
        "velocity": 80
    },
    {
        "track": 1,
        "absoluteTick": 133440,
        "noteNumber": 60,
        "velocity": 96
    },
    {
        "track": 2,
        "absoluteTick": 133440,
        "noteNumber": 67,
        "velocity": 80
    },
    {
        "track": 3,
        "absoluteTick": 133440,
        "noteNumber": 55,
        "velocity": 80
    },
    {
        "track": 4,
        "absoluteTick": 133440,
        "noteNumber": 38,
        "velocity": 96
    },
    {
        "track": 1,
        "absoluteTick": 133680,
        "noteNumber": 60,
        "velocity": 96
    },
    {
        "track": 3,
        "absoluteTick": 133680,
        "noteNumber": 55,
        "velocity": 80
    },
    {
        "track": 1,
        "absoluteTick": 133920,
        "noteNumber": 60,
        "velocity": 96
    },
    {
        "track": 3,
        "absoluteTick": 133920,
        "noteNumber": 55,
        "velocity": 80
    },
    {
        "track": 1,
        "absoluteTick": 134160,
        "noteNumber": 60,
        "velocity": 96
    },
    {
        "track": 3,
        "absoluteTick": 134160,
        "noteNumber": 57,
        "velocity": 80
    },
    {
        "track": 4,
        "absoluteTick": 134160,
        "noteNumber": 38,
        "velocity": 96
    },
    {
        "track": 1,
        "absoluteTick": 134400,
        "noteNumber": 60,
        "velocity": 96
    },
    {
        "track": 3,
        "absoluteTick": 134400,
        "noteNumber": 57,
        "velocity": 80
    },
    {
        "track": 1,
        "absoluteTick": 134640,
        "noteNumber": 60,
        "velocity": 96
    },
    {
        "track": 3,
        "absoluteTick": 134640,
        "noteNumber": 57,
        "velocity": 80
    },
    {
        "track": 4,
        "absoluteTick": 134640,
        "noteNumber": 38,
        "velocity": 96
    },
    {
        "track": 1,
        "absoluteTick": 134880,
        "noteNumber": 60,
        "velocity": 96
    },
    {
        "track": 3,
        "absoluteTick": 134880,
        "noteNumber": 57,
        "velocity": 80
    },
    {
        "track": 1,
        "absoluteTick": 135120,
        "noteNumber": 60,
        "velocity": 96
    },
    {
        "track": 3,
        "absoluteTick": 135120,
        "noteNumber": 57,
        "velocity": 80
    },
    {
        "track": 4,
        "absoluteTick": 135120,
        "noteNumber": 38,
        "velocity": 96
    },
    {
        "track": 0,
        "absoluteTick": 135360,
        "noteNumber": 60,
        "velocity": 80
    },
    {
        "track": 1,
        "absoluteTick": 135360,
        "noteNumber": 60,
        "velocity": 96
    },
    {
        "track": 2,
        "absoluteTick": 135360,
        "noteNumber": 69,
        "velocity": 80
    },
    {
        "track": 3,
        "absoluteTick": 135360,
        "noteNumber": 57,
        "velocity": 80
    },
    {
        "track": 0,
        "absoluteTick": 135600,
        "noteNumber": 62,
        "velocity": 80
    },
    {
        "track": 1,
        "absoluteTick": 135600,
        "noteNumber": 60,
        "velocity": 96
    },
    {
        "track": 2,
        "absoluteTick": 135600,
        "noteNumber": 70,
        "velocity": 80
    },
    {
        "track": 3,
        "absoluteTick": 135600,
        "noteNumber": 57,
        "velocity": 80
    },
    {
        "track": 0,
        "absoluteTick": 135840,
        "noteNumber": 63,
        "velocity": 80
    },
    {
        "track": 1,
        "absoluteTick": 135840,
        "noteNumber": 58,
        "velocity": 127
    },
    {
        "track": 2,
        "absoluteTick": 135840,
        "noteNumber": 72,
        "velocity": 80
    },
    {
        "track": 3,
        "absoluteTick": 135840,
        "noteNumber": 36,
        "velocity": 80
    },
    {
        "track": 4,
        "absoluteTick": 135840,
        "noteNumber": 36,
        "velocity": 96
    },
    {
        "track": 1,
        "absoluteTick": 136080,
        "noteNumber": 58,
        "velocity": 96
    },
    {
        "track": 3,
        "absoluteTick": 136080,
        "noteNumber": 36,
        "velocity": 80
    },
    {
        "track": 0,
        "absoluteTick": 136320,
        "noteNumber": 63,
        "velocity": 80
    },
    {
        "track": 1,
        "absoluteTick": 136320,
        "noteNumber": 58,
        "velocity": 96
    },
    {
        "track": 2,
        "absoluteTick": 136320,
        "noteNumber": 70,
        "velocity": 80
    },
    {
        "track": 3,
        "absoluteTick": 136320,
        "noteNumber": 36,
        "velocity": 80
    },
    {
        "track": 0,
        "absoluteTick": 136560,
        "noteNumber": 65,
        "velocity": 80
    },
    {
        "track": 1,
        "absoluteTick": 136560,
        "noteNumber": 58,
        "velocity": 96
    },
    {
        "track": 2,
        "absoluteTick": 136560,
        "noteNumber": 69,
        "velocity": 80
    },
    {
        "track": 3,
        "absoluteTick": 136560,
        "noteNumber": 36,
        "velocity": 80
    },
    {
        "track": 4,
        "absoluteTick": 136560,
        "noteNumber": 36,
        "velocity": 96
    },
    {
        "track": 0,
        "absoluteTick": 136800,
        "noteNumber": 62,
        "velocity": 80
    },
    {
        "track": 1,
        "absoluteTick": 136800,
        "noteNumber": 58,
        "velocity": 96
    },
    {
        "track": 3,
        "absoluteTick": 136800,
        "noteNumber": 36,
        "velocity": 80
    },
    {
        "track": 0,
        "absoluteTick": 137040,
        "noteNumber": 60,
        "velocity": 80
    },
    {
        "track": 1,
        "absoluteTick": 137040,
        "noteNumber": 58,
        "velocity": 96
    },
    {
        "track": 2,
        "absoluteTick": 137040,
        "noteNumber": 67,
        "velocity": 80
    },
    {
        "track": 3,
        "absoluteTick": 137040,
        "noteNumber": 36,
        "velocity": 80
    },
    {
        "track": 4,
        "absoluteTick": 137040,
        "noteNumber": 36,
        "velocity": 96
    },
    {
        "track": 0,
        "absoluteTick": 137160,
        "noteNumber": 60,
        "velocity": 80
    },
    {
        "track": 1,
        "absoluteTick": 137280,
        "noteNumber": 58,
        "velocity": 96
    },
    {
        "track": 3,
        "absoluteTick": 137280,
        "noteNumber": 36,
        "velocity": 80
    },
    {
        "track": 0,
        "absoluteTick": 137520,
        "noteNumber": 62,
        "velocity": 80
    },
    {
        "track": 1,
        "absoluteTick": 137520,
        "noteNumber": 58,
        "velocity": 96
    },
    {
        "track": 2,
        "absoluteTick": 137520,
        "noteNumber": 70,
        "velocity": 80
    },
    {
        "track": 3,
        "absoluteTick": 137520,
        "noteNumber": 36,
        "velocity": 80
    },
    {
        "track": 4,
        "absoluteTick": 137520,
        "noteNumber": 36,
        "velocity": 96
    },
    {
        "track": 1,
        "absoluteTick": 137760,
        "noteNumber": 58,
        "velocity": 96
    },
    {
        "track": 3,
        "absoluteTick": 137760,
        "noteNumber": 36,
        "velocity": 80
    },
    {
        "track": 1,
        "absoluteTick": 138000,
        "noteNumber": 58,
        "velocity": 96
    },
    {
        "track": 3,
        "absoluteTick": 138000,
        "noteNumber": 36,
        "velocity": 80
    },
    {
        "track": 0,
        "absoluteTick": 138240,
        "noteNumber": 62,
        "velocity": 80
    },
    {
        "track": 1,
        "absoluteTick": 138240,
        "noteNumber": 58,
        "velocity": 127
    },
    {
        "track": 3,
        "absoluteTick": 138240,
        "noteNumber": 50,
        "velocity": 120
    },
    {
        "track": 4,
        "absoluteTick": 138240,
        "noteNumber": 38,
        "velocity": 96
    },
    {
        "track": 1,
        "absoluteTick": 138480,
        "noteNumber": 58,
        "velocity": 96
    },
    {
        "track": 3,
        "absoluteTick": 138480,
        "noteNumber": 50,
        "velocity": 80
    },
    {
        "track": 1,
        "absoluteTick": 138720,
        "noteNumber": 58,
        "velocity": 96
    },
    {
        "track": 3,
        "absoluteTick": 138720,
        "noteNumber": 50,
        "velocity": 80
    },
    {
        "track": 1,
        "absoluteTick": 138960,
        "noteNumber": 58,
        "velocity": 96
    },
    {
        "track": 3,
        "absoluteTick": 138960,
        "noteNumber": 50,
        "velocity": 80
    },
    {
        "track": 4,
        "absoluteTick": 138960,
        "noteNumber": 38,
        "velocity": 96
    },
    {
        "track": 1,
        "absoluteTick": 139200,
        "noteNumber": 58,
        "velocity": 96
    },
    {
        "track": 3,
        "absoluteTick": 139200,
        "noteNumber": 50,
        "velocity": 80
    },
    {
        "track": 1,
        "absoluteTick": 139440,
        "noteNumber": 57,
        "velocity": 96
    },
    {
        "track": 3,
        "absoluteTick": 139440,
        "noteNumber": 48,
        "velocity": 80
    },
    {
        "track": 4,
        "absoluteTick": 139440,
        "noteNumber": 38,
        "velocity": 96
    },
    {
        "track": 0,
        "absoluteTick": 139680,
        "noteNumber": 60,
        "velocity": 80
    },
    {
        "track": 1,
        "absoluteTick": 139680,
        "noteNumber": 57,
        "velocity": 96
    },
    {
        "track": 2,
        "absoluteTick": 139680,
        "noteNumber": 69,
        "velocity": 80
    },
    {
        "track": 3,
        "absoluteTick": 139680,
        "noteNumber": 48,
        "velocity": 80
    },
    {
        "track": 1,
        "absoluteTick": 139920,
        "noteNumber": 57,
        "velocity": 96
    },
    {
        "track": 3,
        "absoluteTick": 139920,
        "noteNumber": 48,
        "velocity": 80
    },
    {
        "track": 4,
        "absoluteTick": 139920,
        "noteNumber": 38,
        "velocity": 96
    },
    {
        "track": 1,
        "absoluteTick": 140160,
        "noteNumber": 57,
        "velocity": 96
    },
    {
        "track": 3,
        "absoluteTick": 140160,
        "noteNumber": 48,
        "velocity": 80
    },
    {
        "track": 1,
        "absoluteTick": 140400,
        "noteNumber": 57,
        "velocity": 96
    },
    {
        "track": 3,
        "absoluteTick": 140400,
        "noteNumber": 48,
        "velocity": 80
    },
    {
        "track": 0,
        "absoluteTick": 140640,
        "noteNumber": 60,
        "velocity": 80
    },
    {
        "track": 1,
        "absoluteTick": 140640,
        "noteNumber": 58,
        "velocity": 127
    },
    {
        "track": 2,
        "absoluteTick": 140640,
        "noteNumber": 69,
        "velocity": 80
    },
    {
        "track": 3,
        "absoluteTick": 140640,
        "noteNumber": 39,
        "velocity": 80
    },
    {
        "track": 4,
        "absoluteTick": 140640,
        "noteNumber": 39,
        "velocity": 96
    },
    {
        "track": 1,
        "absoluteTick": 140880,
        "noteNumber": 58,
        "velocity": 96
    },
    {
        "track": 3,
        "absoluteTick": 140880,
        "noteNumber": 39,
        "velocity": 80
    },
    {
        "track": 0,
        "absoluteTick": 141120,
        "noteNumber": 62,
        "velocity": 80
    },
    {
        "track": 1,
        "absoluteTick": 141120,
        "noteNumber": 58,
        "velocity": 96
    },
    {
        "track": 2,
        "absoluteTick": 141120,
        "noteNumber": 70,
        "velocity": 80
    },
    {
        "track": 3,
        "absoluteTick": 141120,
        "noteNumber": 39,
        "velocity": 80
    },
    {
        "track": 0,
        "absoluteTick": 141360,
        "noteNumber": 60,
        "velocity": 80
    },
    {
        "track": 1,
        "absoluteTick": 141360,
        "noteNumber": 58,
        "velocity": 96
    },
    {
        "track": 2,
        "absoluteTick": 141360,
        "noteNumber": 69,
        "velocity": 80
    },
    {
        "track": 3,
        "absoluteTick": 141360,
        "noteNumber": 39,
        "velocity": 80
    },
    {
        "track": 4,
        "absoluteTick": 141360,
        "noteNumber": 39,
        "velocity": 96
    },
    {
        "track": 1,
        "absoluteTick": 141600,
        "noteNumber": 58,
        "velocity": 96
    },
    {
        "track": 3,
        "absoluteTick": 141600,
        "noteNumber": 39,
        "velocity": 80
    },
    {
        "track": 0,
        "absoluteTick": 141840,
        "noteNumber": 58,
        "velocity": 80
    },
    {
        "track": 1,
        "absoluteTick": 141840,
        "noteNumber": 58,
        "velocity": 96
    },
    {
        "track": 2,
        "absoluteTick": 141840,
        "noteNumber": 67,
        "velocity": 80
    },
    {
        "track": 3,
        "absoluteTick": 141840,
        "noteNumber": 39,
        "velocity": 80
    },
    {
        "track": 4,
        "absoluteTick": 141840,
        "noteNumber": 39,
        "velocity": 96
    },
    {
        "track": 1,
        "absoluteTick": 142080,
        "noteNumber": 58,
        "velocity": 96
    },
    {
        "track": 3,
        "absoluteTick": 142080,
        "noteNumber": 39,
        "velocity": 80
    },
    {
        "track": 0,
        "absoluteTick": 142320,
        "noteNumber": 60,
        "velocity": 80
    },
    {
        "track": 1,
        "absoluteTick": 142320,
        "noteNumber": 58,
        "velocity": 96
    },
    {
        "track": 2,
        "absoluteTick": 142320,
        "noteNumber": 69,
        "velocity": 80
    },
    {
        "track": 3,
        "absoluteTick": 142320,
        "noteNumber": 39,
        "velocity": 80
    },
    {
        "track": 4,
        "absoluteTick": 142320,
        "noteNumber": 39,
        "velocity": 96
    },
    {
        "track": 0,
        "absoluteTick": 142560,
        "noteNumber": 62,
        "velocity": 80
    },
    {
        "track": 1,
        "absoluteTick": 142560,
        "noteNumber": 58,
        "velocity": 96
    },
    {
        "track": 2,
        "absoluteTick": 142560,
        "noteNumber": 70,
        "velocity": 80
    },
    {
        "track": 3,
        "absoluteTick": 142560,
        "noteNumber": 39,
        "velocity": 80
    },
    {
        "track": 1,
        "absoluteTick": 142800,
        "noteNumber": 58,
        "velocity": 96
    },
    {
        "track": 2,
        "absoluteTick": 142800,
        "noteNumber": 69,
        "velocity": 80
    },
    {
        "track": 3,
        "absoluteTick": 142800,
        "noteNumber": 39,
        "velocity": 80
    },
    {
        "track": 0,
        "absoluteTick": 143040,
        "noteNumber": 70,
        "velocity": 80
    },
    {
        "track": 1,
        "absoluteTick": 143040,
        "noteNumber": 58,
        "velocity": 127
    },
    {
        "track": 2,
        "absoluteTick": 143040,
        "noteNumber": 67,
        "velocity": 80
    },
    {
        "track": 3,
        "absoluteTick": 143040,
        "noteNumber": 41,
        "velocity": 80
    },
    {
        "track": 4,
        "absoluteTick": 143040,
        "noteNumber": 41,
        "velocity": 96
    },
    {
        "track": 1,
        "absoluteTick": 143280,
        "noteNumber": 58,
        "velocity": 96
    },
    {
        "track": 3,
        "absoluteTick": 143280,
        "noteNumber": 41,
        "velocity": 80
    },
    {
        "track": 1,
        "absoluteTick": 143520,
        "noteNumber": 58,
        "velocity": 96
    },
    {
        "track": 3,
        "absoluteTick": 143520,
        "noteNumber": 41,
        "velocity": 80
    },
    {
        "track": 1,
        "absoluteTick": 143760,
        "noteNumber": 58,
        "velocity": 96
    },
    {
        "track": 3,
        "absoluteTick": 143760,
        "noteNumber": 41,
        "velocity": 80
    },
    {
        "track": 4,
        "absoluteTick": 143760,
        "noteNumber": 41,
        "velocity": 96
    },
    {
        "track": 0,
        "absoluteTick": 144000,
        "noteNumber": 81,
        "velocity": 80
    },
    {
        "track": 1,
        "absoluteTick": 144000,
        "noteNumber": 57,
        "velocity": 127
    },
    {
        "track": 2,
        "absoluteTick": 144000,
        "noteNumber": 66,
        "velocity": 80
    },
    {
        "track": 2,
        "absoluteTick": 144000,
        "noteNumber": 69,
        "velocity": 80
    },
    {
        "track": 3,
        "absoluteTick": 144000,
        "noteNumber": 42,
        "velocity": 80
    },
    {
        "track": 4,
        "absoluteTick": 144000,
        "noteNumber": 50,
        "velocity": 112
    },
    {
        "track": 0,
        "absoluteTick": 144059,
        "noteNumber": 82,
        "velocity": 80
    },
    {
        "track": 0,
        "absoluteTick": 144119,
        "noteNumber": 81,
        "velocity": 81
    },
    {
        "track": 4,
        "absoluteTick": 144120,
        "noteNumber": 50,
        "velocity": 112
    },
    {
        "track": 0,
        "absoluteTick": 144180,
        "noteNumber": 82,
        "velocity": 82
    },
    {
        "track": 0,
        "absoluteTick": 144239,
        "noteNumber": 81,
        "velocity": 82
    },
    {
        "track": 1,
        "absoluteTick": 144240,
        "noteNumber": 57,
        "velocity": 96
    },
    {
        "track": 3,
        "absoluteTick": 144240,
        "noteNumber": 42,
        "velocity": 80
    },
    {
        "track": 4,
        "absoluteTick": 144240,
        "noteNumber": 49,
        "velocity": 112
    },
    {
        "track": 0,
        "absoluteTick": 144299,
        "noteNumber": 82,
        "velocity": 83
    },
    {
        "track": 0,
        "absoluteTick": 144360,
        "noteNumber": 81,
        "velocity": 84
    },
    {
        "track": 4,
        "absoluteTick": 144360,
        "noteNumber": 49,
        "velocity": 112
    },
    {
        "track": 0,
        "absoluteTick": 144419,
        "noteNumber": 82,
        "velocity": 84
    },
    {
        "track": 0,
        "absoluteTick": 144479,
        "noteNumber": 81,
        "velocity": 85
    },
    {
        "track": 1,
        "absoluteTick": 144480,
        "noteNumber": 57,
        "velocity": 96
    },
    {
        "track": 3,
        "absoluteTick": 144480,
        "noteNumber": 42,
        "velocity": 80
    },
    {
        "track": 4,
        "absoluteTick": 144480,
        "noteNumber": 48,
        "velocity": 112
    },
    {
        "track": 0,
        "absoluteTick": 144540,
        "noteNumber": 82,
        "velocity": 86
    },
    {
        "track": 0,
        "absoluteTick": 144599,
        "noteNumber": 81,
        "velocity": 86
    },
    {
        "track": 4,
        "absoluteTick": 144600,
        "noteNumber": 48,
        "velocity": 112
    },
    {
        "track": 0,
        "absoluteTick": 144659,
        "noteNumber": 82,
        "velocity": 87
    },
    {
        "track": 0,
        "absoluteTick": 144720,
        "noteNumber": 81,
        "velocity": 88
    },
    {
        "track": 1,
        "absoluteTick": 144720,
        "noteNumber": 57,
        "velocity": 96
    },
    {
        "track": 3,
        "absoluteTick": 144720,
        "noteNumber": 42,
        "velocity": 80
    },
    {
        "track": 4,
        "absoluteTick": 144720,
        "noteNumber": 47,
        "velocity": 112
    },
    {
        "track": 0,
        "absoluteTick": 144779,
        "noteNumber": 82,
        "velocity": 88
    },
    {
        "track": 0,
        "absoluteTick": 144839,
        "noteNumber": 81,
        "velocity": 89
    },
    {
        "track": 4,
        "absoluteTick": 144840,
        "noteNumber": 47,
        "velocity": 112
    },
    {
        "track": 0,
        "absoluteTick": 144900,
        "noteNumber": 82,
        "velocity": 90
    },
    {
        "track": 0,
        "absoluteTick": 144959,
        "noteNumber": 81,
        "velocity": 90
    },
    {
        "track": 1,
        "absoluteTick": 144960,
        "noteNumber": 57,
        "velocity": 96
    },
    {
        "track": 3,
        "absoluteTick": 144960,
        "noteNumber": 42,
        "velocity": 80
    },
    {
        "track": 4,
        "absoluteTick": 144960,
        "noteNumber": 46,
        "velocity": 112
    },
    {
        "track": 0,
        "absoluteTick": 145019,
        "noteNumber": 82,
        "velocity": 91
    },
    {
        "track": 0,
        "absoluteTick": 145080,
        "noteNumber": 81,
        "velocity": 92
    },
    {
        "track": 4,
        "absoluteTick": 145080,
        "noteNumber": 46,
        "velocity": 112
    },
    {
        "track": 0,
        "absoluteTick": 145139,
        "noteNumber": 82,
        "velocity": 92
    },
    {
        "track": 0,
        "absoluteTick": 145199,
        "noteNumber": 81,
        "velocity": 93
    },
    {
        "track": 1,
        "absoluteTick": 145200,
        "noteNumber": 57,
        "velocity": 96
    },
    {
        "track": 3,
        "absoluteTick": 145200,
        "noteNumber": 42,
        "velocity": 80
    },
    {
        "track": 4,
        "absoluteTick": 145200,
        "noteNumber": 45,
        "velocity": 112
    },
    {
        "track": 0,
        "absoluteTick": 145260,
        "noteNumber": 82,
        "velocity": 94
    },
    {
        "track": 0,
        "absoluteTick": 145319,
        "noteNumber": 81,
        "velocity": 94
    },
    {
        "track": 4,
        "absoluteTick": 145320,
        "noteNumber": 45,
        "velocity": 112
    },
    {
        "track": 0,
        "absoluteTick": 145379,
        "noteNumber": 82,
        "velocity": 95
    },
    {
        "track": 0,
        "absoluteTick": 145440,
        "noteNumber": 82,
        "velocity": 96
    },
    {
        "track": 1,
        "absoluteTick": 145440,
        "noteNumber": 70,
        "velocity": 96
    },
    {
        "track": 2,
        "absoluteTick": 145440,
        "noteNumber": 62,
        "velocity": 80
    },
    {
        "track": 3,
        "absoluteTick": 145440,
        "noteNumber": 43,
        "velocity": 96
    },
    {
        "track": 4,
        "absoluteTick": 145440,
        "noteNumber": 38,
        "velocity": 96
    },
    {
        "track": 2,
        "absoluteTick": 145680,
        "noteNumber": 58,
        "velocity": 80
    },
    {
        "track": 2,
        "absoluteTick": 145920,
        "noteNumber": 62,
        "velocity": 80
    },
    {
        "track": 3,
        "absoluteTick": 145920,
        "noteNumber": 43,
        "velocity": 96
    },
    {
        "track": 4,
        "absoluteTick": 145920,
        "noteNumber": 38,
        "velocity": 96
    },
    {
        "track": 0,
        "absoluteTick": 146160,
        "noteNumber": 86,
        "velocity": 96
    },
    {
        "track": 1,
        "absoluteTick": 146160,
        "noteNumber": 74,
        "velocity": 96
    },
    {
        "track": 2,
        "absoluteTick": 146160,
        "noteNumber": 58,
        "velocity": 80
    },
    {
        "track": 2,
        "absoluteTick": 146400,
        "noteNumber": 62,
        "velocity": 80
    },
    {
        "track": 3,
        "absoluteTick": 146400,
        "noteNumber": 43,
        "velocity": 96
    },
    {
        "track": 4,
        "absoluteTick": 146400,
        "noteNumber": 38,
        "velocity": 96
    },
    {
        "track": 2,
        "absoluteTick": 146640,
        "noteNumber": 58,
        "velocity": 80
    },
    {
        "track": 2,
        "absoluteTick": 146880,
        "noteNumber": 62,
        "velocity": 80
    },
    {
        "track": 3,
        "absoluteTick": 146880,
        "noteNumber": 43,
        "velocity": 96
    },
    {
        "track": 4,
        "absoluteTick": 146880,
        "noteNumber": 38,
        "velocity": 96
    },
    {
        "track": 2,
        "absoluteTick": 147120,
        "noteNumber": 58,
        "velocity": 80
    },
    {
        "track": 2,
        "absoluteTick": 147360,
        "noteNumber": 62,
        "velocity": 80
    },
    {
        "track": 3,
        "absoluteTick": 147360,
        "noteNumber": 43,
        "velocity": 96
    },
    {
        "track": 4,
        "absoluteTick": 147360,
        "noteNumber": 38,
        "velocity": 96
    },
    {
        "track": 2,
        "absoluteTick": 147600,
        "noteNumber": 58,
        "velocity": 80
    },
    {
        "track": 2,
        "absoluteTick": 147840,
        "noteNumber": 62,
        "velocity": 80
    },
    {
        "track": 3,
        "absoluteTick": 147840,
        "noteNumber": 42,
        "velocity": 96
    },
    {
        "track": 4,
        "absoluteTick": 147840,
        "noteNumber": 38,
        "velocity": 96
    },
    {
        "track": 2,
        "absoluteTick": 148080,
        "noteNumber": 57,
        "velocity": 80
    },
    {
        "track": 2,
        "absoluteTick": 148320,
        "noteNumber": 62,
        "velocity": 80
    },
    {
        "track": 3,
        "absoluteTick": 148320,
        "noteNumber": 42,
        "velocity": 96
    },
    {
        "track": 4,
        "absoluteTick": 148320,
        "noteNumber": 38,
        "velocity": 96
    },
    {
        "track": 2,
        "absoluteTick": 148560,
        "noteNumber": 57,
        "velocity": 80
    },
    {
        "track": 2,
        "absoluteTick": 148800,
        "noteNumber": 62,
        "velocity": 80
    },
    {
        "track": 3,
        "absoluteTick": 148800,
        "noteNumber": 42,
        "velocity": 96
    },
    {
        "track": 4,
        "absoluteTick": 148800,
        "noteNumber": 38,
        "velocity": 96
    },
    {
        "track": 2,
        "absoluteTick": 149040,
        "noteNumber": 57,
        "velocity": 80
    },
    {
        "track": 2,
        "absoluteTick": 149280,
        "noteNumber": 62,
        "velocity": 80
    },
    {
        "track": 3,
        "absoluteTick": 149280,
        "noteNumber": 42,
        "velocity": 96
    },
    {
        "track": 4,
        "absoluteTick": 149280,
        "noteNumber": 38,
        "velocity": 96
    },
    {
        "track": 2,
        "absoluteTick": 149520,
        "noteNumber": 57,
        "velocity": 80
    },
    {
        "track": 0,
        "absoluteTick": 149760,
        "noteNumber": 84,
        "velocity": 96
    },
    {
        "track": 1,
        "absoluteTick": 149760,
        "noteNumber": 72,
        "velocity": 96
    },
    {
        "track": 2,
        "absoluteTick": 149760,
        "noteNumber": 62,
        "velocity": 80
    },
    {
        "track": 3,
        "absoluteTick": 149760,
        "noteNumber": 42,
        "velocity": 96
    },
    {
        "track": 4,
        "absoluteTick": 149760,
        "noteNumber": 38,
        "velocity": 96
    },
    {
        "track": 0,
        "absoluteTick": 150000,
        "noteNumber": 86,
        "velocity": 96
    },
    {
        "track": 1,
        "absoluteTick": 150000,
        "noteNumber": 74,
        "velocity": 96
    },
    {
        "track": 2,
        "absoluteTick": 150000,
        "noteNumber": 57,
        "velocity": 80
    },
    {
        "track": 0,
        "absoluteTick": 150240,
        "noteNumber": 87,
        "velocity": 96
    },
    {
        "track": 1,
        "absoluteTick": 150240,
        "noteNumber": 75,
        "velocity": 96
    },
    {
        "track": 2,
        "absoluteTick": 150240,
        "noteNumber": 62,
        "velocity": 80
    },
    {
        "track": 3,
        "absoluteTick": 150240,
        "noteNumber": 43,
        "velocity": 96
    },
    {
        "track": 4,
        "absoluteTick": 150240,
        "noteNumber": 38,
        "velocity": 96
    },
    {
        "track": 2,
        "absoluteTick": 150480,
        "noteNumber": 58,
        "velocity": 80
    },
    {
        "track": 0,
        "absoluteTick": 150720,
        "noteNumber": 84,
        "velocity": 96
    },
    {
        "track": 1,
        "absoluteTick": 150720,
        "noteNumber": 72,
        "velocity": 96
    },
    {
        "track": 2,
        "absoluteTick": 150720,
        "noteNumber": 62,
        "velocity": 80
    },
    {
        "track": 3,
        "absoluteTick": 150720,
        "noteNumber": 43,
        "velocity": 96
    },
    {
        "track": 4,
        "absoluteTick": 150720,
        "noteNumber": 38,
        "velocity": 96
    },
    {
        "track": 0,
        "absoluteTick": 150960,
        "noteNumber": 82,
        "velocity": 96
    },
    {
        "track": 1,
        "absoluteTick": 150960,
        "noteNumber": 70,
        "velocity": 96
    },
    {
        "track": 2,
        "absoluteTick": 150960,
        "noteNumber": 58,
        "velocity": 80
    },
    {
        "track": 2,
        "absoluteTick": 151200,
        "noteNumber": 62,
        "velocity": 80
    },
    {
        "track": 3,
        "absoluteTick": 151200,
        "noteNumber": 43,
        "velocity": 96
    },
    {
        "track": 4,
        "absoluteTick": 151200,
        "noteNumber": 38,
        "velocity": 96
    },
    {
        "track": 0,
        "absoluteTick": 151440,
        "noteNumber": 81,
        "velocity": 96
    },
    {
        "track": 1,
        "absoluteTick": 151440,
        "noteNumber": 69,
        "velocity": 96
    },
    {
        "track": 2,
        "absoluteTick": 151440,
        "noteNumber": 58,
        "velocity": 80
    },
    {
        "track": 2,
        "absoluteTick": 151680,
        "noteNumber": 62,
        "velocity": 80
    },
    {
        "track": 3,
        "absoluteTick": 151680,
        "noteNumber": 43,
        "velocity": 96
    },
    {
        "track": 4,
        "absoluteTick": 151680,
        "noteNumber": 38,
        "velocity": 96
    },
    {
        "track": 0,
        "absoluteTick": 151920,
        "noteNumber": 86,
        "velocity": 96
    },
    {
        "track": 1,
        "absoluteTick": 151920,
        "noteNumber": 74,
        "velocity": 96
    },
    {
        "track": 2,
        "absoluteTick": 151920,
        "noteNumber": 58,
        "velocity": 80
    },
    {
        "track": 2,
        "absoluteTick": 152160,
        "noteNumber": 62,
        "velocity": 80
    },
    {
        "track": 3,
        "absoluteTick": 152160,
        "noteNumber": 43,
        "velocity": 96
    },
    {
        "track": 4,
        "absoluteTick": 152160,
        "noteNumber": 38,
        "velocity": 96
    },
    {
        "track": 2,
        "absoluteTick": 152400,
        "noteNumber": 58,
        "velocity": 80
    },
    {
        "track": 0,
        "absoluteTick": 152640,
        "noteNumber": 79,
        "velocity": 96
    },
    {
        "track": 1,
        "absoluteTick": 152640,
        "noteNumber": 67,
        "velocity": 96
    },
    {
        "track": 2,
        "absoluteTick": 152640,
        "noteNumber": 50,
        "velocity": 80
    },
    {
        "track": 3,
        "absoluteTick": 152640,
        "noteNumber": 45,
        "velocity": 96
    },
    {
        "track": 4,
        "absoluteTick": 152640,
        "noteNumber": 38,
        "velocity": 96
    },
    {
        "track": 2,
        "absoluteTick": 152880,
        "noteNumber": 57,
        "velocity": 80
    },
    {
        "track": 2,
        "absoluteTick": 153120,
        "noteNumber": 50,
        "velocity": 80
    },
    {
        "track": 3,
        "absoluteTick": 153120,
        "noteNumber": 45,
        "velocity": 96
    },
    {
        "track": 4,
        "absoluteTick": 153120,
        "noteNumber": 38,
        "velocity": 96
    },
    {
        "track": 2,
        "absoluteTick": 153360,
        "noteNumber": 57,
        "velocity": 80
    },
    {
        "track": 2,
        "absoluteTick": 153600,
        "noteNumber": 50,
        "velocity": 80
    },
    {
        "track": 3,
        "absoluteTick": 153600,
        "noteNumber": 45,
        "velocity": 96
    },
    {
        "track": 4,
        "absoluteTick": 153600,
        "noteNumber": 38,
        "velocity": 96
    },
    {
        "track": 2,
        "absoluteTick": 153840,
        "noteNumber": 57,
        "velocity": 80
    },
    {
        "track": 2,
        "absoluteTick": 154080,
        "noteNumber": 50,
        "velocity": 80
    },
    {
        "track": 3,
        "absoluteTick": 154080,
        "noteNumber": 45,
        "velocity": 96
    },
    {
        "track": 4,
        "absoluteTick": 154080,
        "noteNumber": 38,
        "velocity": 96
    },
    {
        "track": 2,
        "absoluteTick": 154320,
        "noteNumber": 57,
        "velocity": 80
    },
    {
        "track": 0,
        "absoluteTick": 154560,
        "noteNumber": 81,
        "velocity": 96
    },
    {
        "track": 1,
        "absoluteTick": 154560,
        "noteNumber": 69,
        "velocity": 96
    },
    {
        "track": 2,
        "absoluteTick": 154560,
        "noteNumber": 50,
        "velocity": 80
    },
    {
        "track": 3,
        "absoluteTick": 154560,
        "noteNumber": 45,
        "velocity": 96
    },
    {
        "track": 4,
        "absoluteTick": 154560,
        "noteNumber": 38,
        "velocity": 96
    },
    {
        "track": 0,
        "absoluteTick": 154800,
        "noteNumber": 82,
        "velocity": 96
    },
    {
        "track": 1,
        "absoluteTick": 154800,
        "noteNumber": 70,
        "velocity": 96
    },
    {
        "track": 2,
        "absoluteTick": 154800,
        "noteNumber": 57,
        "velocity": 80
    },
    {
        "track": 0,
        "absoluteTick": 155040,
        "noteNumber": 84,
        "velocity": 96
    },
    {
        "track": 1,
        "absoluteTick": 155040,
        "noteNumber": 72,
        "velocity": 96
    },
    {
        "track": 2,
        "absoluteTick": 155040,
        "noteNumber": 62,
        "velocity": 120
    },
    {
        "track": 3,
        "absoluteTick": 155040,
        "noteNumber": 43,
        "velocity": 127
    },
    {
        "track": 4,
        "absoluteTick": 155040,
        "noteNumber": 31,
        "velocity": 96
    },
    {
        "track": 2,
        "absoluteTick": 155280,
        "noteNumber": 62,
        "velocity": 80
    },
    {
        "track": 3,
        "absoluteTick": 155280,
        "noteNumber": 43,
        "velocity": 96
    },
    {
        "track": 0,
        "absoluteTick": 155520,
        "noteNumber": 82,
        "velocity": 96
    },
    {
        "track": 1,
        "absoluteTick": 155520,
        "noteNumber": 70,
        "velocity": 96
    },
    {
        "track": 2,
        "absoluteTick": 155520,
        "noteNumber": 62,
        "velocity": 80
    },
    {
        "track": 3,
        "absoluteTick": 155520,
        "noteNumber": 43,
        "velocity": 96
    },
    {
        "track": 4,
        "absoluteTick": 155520,
        "noteNumber": 31,
        "velocity": 96
    },
    {
        "track": 0,
        "absoluteTick": 155760,
        "noteNumber": 81,
        "velocity": 96
    },
    {
        "track": 1,
        "absoluteTick": 155760,
        "noteNumber": 69,
        "velocity": 96
    },
    {
        "track": 2,
        "absoluteTick": 155760,
        "noteNumber": 62,
        "velocity": 80
    },
    {
        "track": 3,
        "absoluteTick": 155760,
        "noteNumber": 43,
        "velocity": 96
    },
    {
        "track": 2,
        "absoluteTick": 156000,
        "noteNumber": 62,
        "velocity": 80
    },
    {
        "track": 3,
        "absoluteTick": 156000,
        "noteNumber": 43,
        "velocity": 96
    },
    {
        "track": 4,
        "absoluteTick": 156000,
        "noteNumber": 31,
        "velocity": 96
    },
    {
        "track": 0,
        "absoluteTick": 156240,
        "noteNumber": 79,
        "velocity": 96
    },
    {
        "track": 1,
        "absoluteTick": 156240,
        "noteNumber": 67,
        "velocity": 96
    },
    {
        "track": 2,
        "absoluteTick": 156240,
        "noteNumber": 62,
        "velocity": 80
    },
    {
        "track": 3,
        "absoluteTick": 156240,
        "noteNumber": 43,
        "velocity": 96
    },
    {
        "track": 2,
        "absoluteTick": 156480,
        "noteNumber": 62,
        "velocity": 80
    },
    {
        "track": 3,
        "absoluteTick": 156480,
        "noteNumber": 43,
        "velocity": 96
    },
    {
        "track": 4,
        "absoluteTick": 156480,
        "noteNumber": 31,
        "velocity": 96
    },
    {
        "track": 0,
        "absoluteTick": 156720,
        "noteNumber": 82,
        "velocity": 96
    },
    {
        "track": 1,
        "absoluteTick": 156720,
        "noteNumber": 70,
        "velocity": 96
    },
    {
        "track": 2,
        "absoluteTick": 156720,
        "noteNumber": 62,
        "velocity": 80
    },
    {
        "track": 3,
        "absoluteTick": 156720,
        "noteNumber": 43,
        "velocity": 96
    },
    {
        "track": 2,
        "absoluteTick": 156960,
        "noteNumber": 62,
        "velocity": 80
    },
    {
        "track": 3,
        "absoluteTick": 156960,
        "noteNumber": 43,
        "velocity": 96
    },
    {
        "track": 4,
        "absoluteTick": 156960,
        "noteNumber": 31,
        "velocity": 96
    },
    {
        "track": 2,
        "absoluteTick": 157200,
        "noteNumber": 62,
        "velocity": 80
    },
    {
        "track": 3,
        "absoluteTick": 157200,
        "noteNumber": 43,
        "velocity": 96
    },
    {
        "track": 2,
        "absoluteTick": 157440,
        "noteNumber": 62,
        "velocity": 120
    },
    {
        "track": 3,
        "absoluteTick": 157440,
        "noteNumber": 45,
        "velocity": 127
    },
    {
        "track": 4,
        "absoluteTick": 157440,
        "noteNumber": 30,
        "velocity": 96
    },
    {
        "track": 2,
        "absoluteTick": 157680,
        "noteNumber": 62,
        "velocity": 80
    },
    {
        "track": 3,
        "absoluteTick": 157680,
        "noteNumber": 45,
        "velocity": 96
    },
    {
        "track": 2,
        "absoluteTick": 157920,
        "noteNumber": 62,
        "velocity": 80
    },
    {
        "track": 3,
        "absoluteTick": 157920,
        "noteNumber": 45,
        "velocity": 96
    },
    {
        "track": 4,
        "absoluteTick": 157920,
        "noteNumber": 30,
        "velocity": 96
    },
    {
        "track": 2,
        "absoluteTick": 158160,
        "noteNumber": 62,
        "velocity": 80
    },
    {
        "track": 3,
        "absoluteTick": 158160,
        "noteNumber": 45,
        "velocity": 96
    },
    {
        "track": 2,
        "absoluteTick": 158400,
        "noteNumber": 62,
        "velocity": 80
    },
    {
        "track": 3,
        "absoluteTick": 158400,
        "noteNumber": 45,
        "velocity": 96
    },
    {
        "track": 4,
        "absoluteTick": 158400,
        "noteNumber": 30,
        "velocity": 96
    },
    {
        "track": 2,
        "absoluteTick": 158640,
        "noteNumber": 62,
        "velocity": 80
    },
    {
        "track": 3,
        "absoluteTick": 158640,
        "noteNumber": 45,
        "velocity": 96
    },
    {
        "track": 0,
        "absoluteTick": 158880,
        "noteNumber": 81,
        "velocity": 96
    },
    {
        "track": 1,
        "absoluteTick": 158880,
        "noteNumber": 69,
        "velocity": 96
    },
    {
        "track": 2,
        "absoluteTick": 158880,
        "noteNumber": 62,
        "velocity": 80
    },
    {
        "track": 3,
        "absoluteTick": 158880,
        "noteNumber": 45,
        "velocity": 96
    },
    {
        "track": 4,
        "absoluteTick": 158880,
        "noteNumber": 30,
        "velocity": 96
    },
    {
        "track": 2,
        "absoluteTick": 159120,
        "noteNumber": 62,
        "velocity": 80
    },
    {
        "track": 3,
        "absoluteTick": 159120,
        "noteNumber": 45,
        "velocity": 96
    },
    {
        "track": 2,
        "absoluteTick": 159360,
        "noteNumber": 62,
        "velocity": 80
    },
    {
        "track": 3,
        "absoluteTick": 159360,
        "noteNumber": 45,
        "velocity": 96
    },
    {
        "track": 4,
        "absoluteTick": 159360,
        "noteNumber": 30,
        "velocity": 96
    },
    {
        "track": 2,
        "absoluteTick": 159600,
        "noteNumber": 62,
        "velocity": 80
    },
    {
        "track": 3,
        "absoluteTick": 159600,
        "noteNumber": 45,
        "velocity": 96
    },
    {
        "track": 0,
        "absoluteTick": 159840,
        "noteNumber": 81,
        "velocity": 96
    },
    {
        "track": 1,
        "absoluteTick": 159840,
        "noteNumber": 69,
        "velocity": 96
    },
    {
        "track": 2,
        "absoluteTick": 159840,
        "noteNumber": 62,
        "velocity": 120
    },
    {
        "track": 3,
        "absoluteTick": 159840,
        "noteNumber": 46,
        "velocity": 127
    },
    {
        "track": 4,
        "absoluteTick": 159840,
        "noteNumber": 31,
        "velocity": 96
    },
    {
        "track": 2,
        "absoluteTick": 160080,
        "noteNumber": 62,
        "velocity": 80
    },
    {
        "track": 3,
        "absoluteTick": 160080,
        "noteNumber": 46,
        "velocity": 96
    },
    {
        "track": 0,
        "absoluteTick": 160320,
        "noteNumber": 82,
        "velocity": 96
    },
    {
        "track": 1,
        "absoluteTick": 160320,
        "noteNumber": 70,
        "velocity": 96
    },
    {
        "track": 2,
        "absoluteTick": 160320,
        "noteNumber": 62,
        "velocity": 80
    },
    {
        "track": 3,
        "absoluteTick": 160320,
        "noteNumber": 46,
        "velocity": 96
    },
    {
        "track": 4,
        "absoluteTick": 160320,
        "noteNumber": 31,
        "velocity": 96
    },
    {
        "track": 0,
        "absoluteTick": 160560,
        "noteNumber": 81,
        "velocity": 96
    },
    {
        "track": 1,
        "absoluteTick": 160560,
        "noteNumber": 69,
        "velocity": 96
    },
    {
        "track": 2,
        "absoluteTick": 160560,
        "noteNumber": 62,
        "velocity": 80
    },
    {
        "track": 3,
        "absoluteTick": 160560,
        "noteNumber": 46,
        "velocity": 96
    },
    {
        "track": 2,
        "absoluteTick": 160800,
        "noteNumber": 62,
        "velocity": 80
    },
    {
        "track": 3,
        "absoluteTick": 160800,
        "noteNumber": 46,
        "velocity": 96
    },
    {
        "track": 4,
        "absoluteTick": 160800,
        "noteNumber": 31,
        "velocity": 96
    },
    {
        "track": 0,
        "absoluteTick": 161040,
        "noteNumber": 79,
        "velocity": 96
    },
    {
        "track": 1,
        "absoluteTick": 161040,
        "noteNumber": 67,
        "velocity": 96
    },
    {
        "track": 2,
        "absoluteTick": 161040,
        "noteNumber": 62,
        "velocity": 80
    },
    {
        "track": 3,
        "absoluteTick": 161040,
        "noteNumber": 46,
        "velocity": 96
    },
    {
        "track": 2,
        "absoluteTick": 161280,
        "noteNumber": 62,
        "velocity": 80
    },
    {
        "track": 3,
        "absoluteTick": 161280,
        "noteNumber": 46,
        "velocity": 96
    },
    {
        "track": 4,
        "absoluteTick": 161280,
        "noteNumber": 31,
        "velocity": 96
    },
    {
        "track": 0,
        "absoluteTick": 161520,
        "noteNumber": 81,
        "velocity": 96
    },
    {
        "track": 1,
        "absoluteTick": 161520,
        "noteNumber": 69,
        "velocity": 96
    },
    {
        "track": 2,
        "absoluteTick": 161520,
        "noteNumber": 62,
        "velocity": 80
    },
    {
        "track": 3,
        "absoluteTick": 161520,
        "noteNumber": 46,
        "velocity": 96
    },
    {
        "track": 0,
        "absoluteTick": 161760,
        "noteNumber": 82,
        "velocity": 96
    },
    {
        "track": 1,
        "absoluteTick": 161760,
        "noteNumber": 70,
        "velocity": 96
    },
    {
        "track": 2,
        "absoluteTick": 161760,
        "noteNumber": 62,
        "velocity": 80
    },
    {
        "track": 3,
        "absoluteTick": 161760,
        "noteNumber": 46,
        "velocity": 96
    },
    {
        "track": 4,
        "absoluteTick": 161760,
        "noteNumber": 31,
        "velocity": 96
    },
    {
        "track": 0,
        "absoluteTick": 162000,
        "noteNumber": 84,
        "velocity": 96
    },
    {
        "track": 1,
        "absoluteTick": 162000,
        "noteNumber": 72,
        "velocity": 96
    },
    {
        "track": 2,
        "absoluteTick": 162000,
        "noteNumber": 62,
        "velocity": 80
    },
    {
        "track": 3,
        "absoluteTick": 162000,
        "noteNumber": 46,
        "velocity": 96
    },
    {
        "track": 0,
        "absoluteTick": 162240,
        "noteNumber": 86,
        "velocity": 96
    },
    {
        "track": 1,
        "absoluteTick": 162240,
        "noteNumber": 74,
        "velocity": 96
    },
    {
        "track": 2,
        "absoluteTick": 162240,
        "noteNumber": 55,
        "velocity": 80
    },
    {
        "track": 3,
        "absoluteTick": 162240,
        "noteNumber": 50,
        "velocity": 127
    },
    {
        "track": 4,
        "absoluteTick": 162240,
        "noteNumber": 38,
        "velocity": 127
    },
    {
        "track": 2,
        "absoluteTick": 162480,
        "noteNumber": 55,
        "velocity": 80
    },
    {
        "track": 3,
        "absoluteTick": 162480,
        "noteNumber": 50,
        "velocity": 96
    },
    {
        "track": 2,
        "absoluteTick": 162720,
        "noteNumber": 55,
        "velocity": 80
    },
    {
        "track": 3,
        "absoluteTick": 162720,
        "noteNumber": 50,
        "velocity": 96
    },
    {
        "track": 4,
        "absoluteTick": 162720,
        "noteNumber": 38,
        "velocity": 96
    },
    {
        "track": 2,
        "absoluteTick": 162960,
        "noteNumber": 55,
        "velocity": 80
    },
    {
        "track": 3,
        "absoluteTick": 162960,
        "noteNumber": 50,
        "velocity": 96
    },
    {
        "track": 0,
        "absoluteTick": 163200,
        "noteNumber": 90,
        "velocity": 96
    },
    {
        "track": 1,
        "absoluteTick": 163200,
        "noteNumber": 78,
        "velocity": 96
    },
    {
        "track": 2,
        "absoluteTick": 163200,
        "noteNumber": 50,
        "velocity": 120
    },
    {
        "track": 2,
        "absoluteTick": 163200,
        "noteNumber": 62,
        "velocity": 120
    },
    {
        "track": 3,
        "absoluteTick": 163200,
        "noteNumber": 54,
        "velocity": 127
    },
    {
        "track": 4,
        "absoluteTick": 163200,
        "noteNumber": 38,
        "velocity": 127
    },
    {
        "track": 0,
        "absoluteTick": 163259,
        "noteNumber": 91,
        "velocity": 96
    },
    {
        "track": 1,
        "absoluteTick": 163259,
        "noteNumber": 79,
        "velocity": 96
    },
    {
        "track": 0,
        "absoluteTick": 163319,
        "noteNumber": 90,
        "velocity": 96
    },
    {
        "track": 1,
        "absoluteTick": 163319,
        "noteNumber": 78,
        "velocity": 96
    },
    {
        "track": 0,
        "absoluteTick": 163380,
        "noteNumber": 91,
        "velocity": 96
    },
    {
        "track": 1,
        "absoluteTick": 163380,
        "noteNumber": 79,
        "velocity": 96
    },
    {
        "track": 0,
        "absoluteTick": 163439,
        "noteNumber": 90,
        "velocity": 96
    },
    {
        "track": 1,
        "absoluteTick": 163439,
        "noteNumber": 78,
        "velocity": 96
    },
    {
        "track": 2,
        "absoluteTick": 163440,
        "noteNumber": 50,
        "velocity": 80
    },
    {
        "track": 2,
        "absoluteTick": 163440,
        "noteNumber": 62,
        "velocity": 80
    },
    {
        "track": 3,
        "absoluteTick": 163440,
        "noteNumber": 54,
        "velocity": 96
    },
    {
        "track": 0,
        "absoluteTick": 163499,
        "noteNumber": 91,
        "velocity": 96
    },
    {
        "track": 1,
        "absoluteTick": 163499,
        "noteNumber": 79,
        "velocity": 96
    },
    {
        "track": 0,
        "absoluteTick": 163560,
        "noteNumber": 90,
        "velocity": 96
    },
    {
        "track": 1,
        "absoluteTick": 163560,
        "noteNumber": 78,
        "velocity": 96
    },
    {
        "track": 0,
        "absoluteTick": 163619,
        "noteNumber": 91,
        "velocity": 96
    },
    {
        "track": 1,
        "absoluteTick": 163619,
        "noteNumber": 79,
        "velocity": 96
    },
    {
        "track": 0,
        "absoluteTick": 163679,
        "noteNumber": 90,
        "velocity": 96
    },
    {
        "track": 1,
        "absoluteTick": 163679,
        "noteNumber": 78,
        "velocity": 96
    },
    {
        "track": 2,
        "absoluteTick": 163680,
        "noteNumber": 50,
        "velocity": 80
    },
    {
        "track": 2,
        "absoluteTick": 163680,
        "noteNumber": 62,
        "velocity": 80
    },
    {
        "track": 3,
        "absoluteTick": 163680,
        "noteNumber": 54,
        "velocity": 96
    },
    {
        "track": 4,
        "absoluteTick": 163680,
        "noteNumber": 38,
        "velocity": 96
    },
    {
        "track": 0,
        "absoluteTick": 163740,
        "noteNumber": 91,
        "velocity": 96
    },
    {
        "track": 1,
        "absoluteTick": 163740,
        "noteNumber": 79,
        "velocity": 96
    },
    {
        "track": 0,
        "absoluteTick": 163799,
        "noteNumber": 90,
        "velocity": 96
    },
    {
        "track": 1,
        "absoluteTick": 163799,
        "noteNumber": 78,
        "velocity": 96
    },
    {
        "track": 0,
        "absoluteTick": 163859,
        "noteNumber": 91,
        "velocity": 96
    },
    {
        "track": 1,
        "absoluteTick": 163859,
        "noteNumber": 79,
        "velocity": 96
    },
    {
        "track": 0,
        "absoluteTick": 163920,
        "noteNumber": 90,
        "velocity": 96
    },
    {
        "track": 1,
        "absoluteTick": 163920,
        "noteNumber": 78,
        "velocity": 96
    },
    {
        "track": 2,
        "absoluteTick": 163920,
        "noteNumber": 50,
        "velocity": 80
    },
    {
        "track": 2,
        "absoluteTick": 163920,
        "noteNumber": 62,
        "velocity": 80
    },
    {
        "track": 3,
        "absoluteTick": 163920,
        "noteNumber": 54,
        "velocity": 96
    },
    {
        "track": 0,
        "absoluteTick": 163979,
        "noteNumber": 91,
        "velocity": 96
    },
    {
        "track": 1,
        "absoluteTick": 163979,
        "noteNumber": 79,
        "velocity": 96
    },
    {
        "track": 0,
        "absoluteTick": 164039,
        "noteNumber": 90,
        "velocity": 96
    },
    {
        "track": 1,
        "absoluteTick": 164039,
        "noteNumber": 78,
        "velocity": 96
    },
    {
        "track": 0,
        "absoluteTick": 164100,
        "noteNumber": 91,
        "velocity": 96
    },
    {
        "track": 1,
        "absoluteTick": 164100,
        "noteNumber": 79,
        "velocity": 96
    },
    {
        "track": 0,
        "absoluteTick": 164159,
        "noteNumber": 90,
        "velocity": 96
    },
    {
        "track": 1,
        "absoluteTick": 164159,
        "noteNumber": 78,
        "velocity": 96
    },
    {
        "track": 2,
        "absoluteTick": 164160,
        "noteNumber": 50,
        "velocity": 80
    },
    {
        "track": 2,
        "absoluteTick": 164160,
        "noteNumber": 62,
        "velocity": 80
    },
    {
        "track": 3,
        "absoluteTick": 164160,
        "noteNumber": 54,
        "velocity": 96
    },
    {
        "track": 4,
        "absoluteTick": 164160,
        "noteNumber": 38,
        "velocity": 96
    },
    {
        "track": 0,
        "absoluteTick": 164219,
        "noteNumber": 91,
        "velocity": 96
    },
    {
        "track": 1,
        "absoluteTick": 164219,
        "noteNumber": 79,
        "velocity": 96
    },
    {
        "track": 0,
        "absoluteTick": 164280,
        "noteNumber": 90,
        "velocity": 96
    },
    {
        "track": 1,
        "absoluteTick": 164280,
        "noteNumber": 78,
        "velocity": 96
    },
    {
        "track": 0,
        "absoluteTick": 164339,
        "noteNumber": 91,
        "velocity": 96
    },
    {
        "track": 1,
        "absoluteTick": 164339,
        "noteNumber": 79,
        "velocity": 96
    },
    {
        "track": 0,
        "absoluteTick": 164399,
        "noteNumber": 90,
        "velocity": 96
    },
    {
        "track": 1,
        "absoluteTick": 164399,
        "noteNumber": 78,
        "velocity": 96
    },
    {
        "track": 2,
        "absoluteTick": 164400,
        "noteNumber": 50,
        "velocity": 80
    },
    {
        "track": 2,
        "absoluteTick": 164400,
        "noteNumber": 62,
        "velocity": 80
    },
    {
        "track": 3,
        "absoluteTick": 164400,
        "noteNumber": 54,
        "velocity": 96
    },
    {
        "track": 0,
        "absoluteTick": 164460,
        "noteNumber": 91,
        "velocity": 96
    },
    {
        "track": 1,
        "absoluteTick": 164460,
        "noteNumber": 79,
        "velocity": 96
    },
    {
        "track": 0,
        "absoluteTick": 164519,
        "noteNumber": 90,
        "velocity": 96
    },
    {
        "track": 1,
        "absoluteTick": 164519,
        "noteNumber": 78,
        "velocity": 96
    },
    {
        "track": 0,
        "absoluteTick": 164579,
        "noteNumber": 91,
        "velocity": 96
    },
    {
        "track": 1,
        "absoluteTick": 164579,
        "noteNumber": 79,
        "velocity": 96
    },
    {
        "track": 0,
        "absoluteTick": 164640,
        "noteNumber": 79,
        "velocity": 127
    },
    {
        "track": 1,
        "absoluteTick": 164640,
        "noteNumber": 74,
        "velocity": 127
    },
    {
        "track": 0,
        "absoluteTick": 164880,
        "noteNumber": 79,
        "velocity": 127
    },
    {
        "track": 1,
        "absoluteTick": 164880,
        "noteNumber": 74,
        "velocity": 127
    },
    {
        "track": 1,
        "absoluteTick": 165120,
        "noteNumber": 63,
        "velocity": 96
    },
    {
        "track": 2,
        "absoluteTick": 165120,
        "noteNumber": 63,
        "velocity": 80
    },
    {
        "track": 3,
        "absoluteTick": 165120,
        "noteNumber": 43,
        "velocity": 127
    },
    {
        "track": 4,
        "absoluteTick": 165120,
        "noteNumber": 43,
        "velocity": 127
    },
    {
        "track": 1,
        "absoluteTick": 165240,
        "noteNumber": 63,
        "velocity": 96
    },
    {
        "track": 2,
        "absoluteTick": 165240,
        "noteNumber": 63,
        "velocity": 80
    },
    {
        "track": 1,
        "absoluteTick": 165360,
        "noteNumber": 62,
        "velocity": 96
    },
    {
        "track": 2,
        "absoluteTick": 165360,
        "noteNumber": 62,
        "velocity": 80
    },
    {
        "track": 3,
        "absoluteTick": 165360,
        "noteNumber": 43,
        "velocity": 127
    },
    {
        "track": 4,
        "absoluteTick": 165360,
        "noteNumber": 43,
        "velocity": 127
    },
    {
        "track": 1,
        "absoluteTick": 165600,
        "noteNumber": 58,
        "velocity": 96
    },
    {
        "track": 2,
        "absoluteTick": 165600,
        "noteNumber": 58,
        "velocity": 80
    },
    {
        "track": 1,
        "absoluteTick": 165840,
        "noteNumber": 57,
        "velocity": 96
    },
    {
        "track": 2,
        "absoluteTick": 165840,
        "noteNumber": 57,
        "velocity": 80
    },
    {
        "track": 0,
        "absoluteTick": 166080,
        "noteNumber": 79,
        "velocity": 127
    },
    {
        "track": 1,
        "absoluteTick": 166080,
        "noteNumber": 75,
        "velocity": 127
    },
    {
        "track": 0,
        "absoluteTick": 166320,
        "noteNumber": 79,
        "velocity": 127
    },
    {
        "track": 1,
        "absoluteTick": 166320,
        "noteNumber": 75,
        "velocity": 127
    },
    {
        "track": 1,
        "absoluteTick": 166560,
        "noteNumber": 65,
        "velocity": 96
    },
    {
        "track": 2,
        "absoluteTick": 166560,
        "noteNumber": 65,
        "velocity": 80
    },
    {
        "track": 3,
        "absoluteTick": 166560,
        "noteNumber": 39,
        "velocity": 127
    },
    {
        "track": 4,
        "absoluteTick": 166560,
        "noteNumber": 39,
        "velocity": 127
    },
    {
        "track": 1,
        "absoluteTick": 166680,
        "noteNumber": 65,
        "velocity": 96
    },
    {
        "track": 2,
        "absoluteTick": 166680,
        "noteNumber": 65,
        "velocity": 80
    },
    {
        "track": 1,
        "absoluteTick": 166800,
        "noteNumber": 63,
        "velocity": 96
    },
    {
        "track": 2,
        "absoluteTick": 166800,
        "noteNumber": 63,
        "velocity": 80
    },
    {
        "track": 3,
        "absoluteTick": 166800,
        "noteNumber": 39,
        "velocity": 127
    },
    {
        "track": 4,
        "absoluteTick": 166800,
        "noteNumber": 39,
        "velocity": 127
    },
    {
        "track": 1,
        "absoluteTick": 167040,
        "noteNumber": 58,
        "velocity": 96
    },
    {
        "track": 2,
        "absoluteTick": 167040,
        "noteNumber": 58,
        "velocity": 80
    },
    {
        "track": 1,
        "absoluteTick": 167280,
        "noteNumber": 57,
        "velocity": 96
    },
    {
        "track": 2,
        "absoluteTick": 167280,
        "noteNumber": 57,
        "velocity": 80
    },
    {
        "track": 0,
        "absoluteTick": 167520,
        "noteNumber": 79,
        "velocity": 127
    },
    {
        "track": 1,
        "absoluteTick": 167520,
        "noteNumber": 72,
        "velocity": 127
    },
    {
        "track": 0,
        "absoluteTick": 167760,
        "noteNumber": 79,
        "velocity": 127
    },
    {
        "track": 1,
        "absoluteTick": 167760,
        "noteNumber": 72,
        "velocity": 127
    },
    {
        "track": 1,
        "absoluteTick": 168000,
        "noteNumber": 65,
        "velocity": 96
    },
    {
        "track": 2,
        "absoluteTick": 168000,
        "noteNumber": 65,
        "velocity": 80
    },
    {
        "track": 3,
        "absoluteTick": 168000,
        "noteNumber": 36,
        "velocity": 127
    },
    {
        "track": 4,
        "absoluteTick": 168000,
        "noteNumber": 36,
        "velocity": 127
    },
    {
        "track": 1,
        "absoluteTick": 168120,
        "noteNumber": 65,
        "velocity": 96
    },
    {
        "track": 2,
        "absoluteTick": 168120,
        "noteNumber": 65,
        "velocity": 80
    },
    {
        "track": 1,
        "absoluteTick": 168240,
        "noteNumber": 63,
        "velocity": 96
    },
    {
        "track": 2,
        "absoluteTick": 168240,
        "noteNumber": 63,
        "velocity": 80
    },
    {
        "track": 3,
        "absoluteTick": 168240,
        "noteNumber": 36,
        "velocity": 127
    },
    {
        "track": 4,
        "absoluteTick": 168240,
        "noteNumber": 36,
        "velocity": 127
    },
    {
        "track": 1,
        "absoluteTick": 168480,
        "noteNumber": 60,
        "velocity": 96
    },
    {
        "track": 2,
        "absoluteTick": 168480,
        "noteNumber": 60,
        "velocity": 80
    },
    {
        "track": 1,
        "absoluteTick": 168720,
        "noteNumber": 55,
        "velocity": 96
    },
    {
        "track": 2,
        "absoluteTick": 168720,
        "noteNumber": 55,
        "velocity": 80
    },
    {
        "track": 0,
        "absoluteTick": 168960,
        "noteNumber": 79,
        "velocity": 96
    },
    {
        "track": 1,
        "absoluteTick": 168960,
        "noteNumber": 67,
        "velocity": 96
    },
    {
        "track": 2,
        "absoluteTick": 168960,
        "noteNumber": 51,
        "velocity": 80
    },
    {
        "track": 3,
        "absoluteTick": 168960,
        "noteNumber": 39,
        "velocity": 96
    },
    {
        "track": 0,
        "absoluteTick": 169080,
        "noteNumber": 79,
        "velocity": 96
    },
    {
        "track": 1,
        "absoluteTick": 169080,
        "noteNumber": 67,
        "velocity": 96
    },
    {
        "track": 2,
        "absoluteTick": 169080,
        "noteNumber": 51,
        "velocity": 81
    },
    {
        "track": 3,
        "absoluteTick": 169080,
        "noteNumber": 39,
        "velocity": 96
    },
    {
        "track": 0,
        "absoluteTick": 169200,
        "noteNumber": 79,
        "velocity": 96
    },
    {
        "track": 1,
        "absoluteTick": 169200,
        "noteNumber": 67,
        "velocity": 96
    },
    {
        "track": 2,
        "absoluteTick": 169200,
        "noteNumber": 51,
        "velocity": 82
    },
    {
        "track": 3,
        "absoluteTick": 169200,
        "noteNumber": 39,
        "velocity": 96
    },
    {
        "track": 0,
        "absoluteTick": 169320,
        "noteNumber": 79,
        "velocity": 96
    },
    {
        "track": 1,
        "absoluteTick": 169320,
        "noteNumber": 67,
        "velocity": 96
    },
    {
        "track": 2,
        "absoluteTick": 169320,
        "noteNumber": 51,
        "velocity": 84
    },
    {
        "track": 3,
        "absoluteTick": 169320,
        "noteNumber": 39,
        "velocity": 96
    },
    {
        "track": 0,
        "absoluteTick": 169440,
        "noteNumber": 78,
        "velocity": 96
    },
    {
        "track": 1,
        "absoluteTick": 169440,
        "noteNumber": 66,
        "velocity": 96
    },
    {
        "track": 2,
        "absoluteTick": 169440,
        "noteNumber": 54,
        "velocity": 85
    },
    {
        "track": 3,
        "absoluteTick": 169440,
        "noteNumber": 42,
        "velocity": 96
    },
    {
        "track": 0,
        "absoluteTick": 169560,
        "noteNumber": 78,
        "velocity": 96
    },
    {
        "track": 1,
        "absoluteTick": 169560,
        "noteNumber": 66,
        "velocity": 96
    },
    {
        "track": 2,
        "absoluteTick": 169560,
        "noteNumber": 54,
        "velocity": 86
    },
    {
        "track": 3,
        "absoluteTick": 169560,
        "noteNumber": 42,
        "velocity": 96
    },
    {
        "track": 0,
        "absoluteTick": 169680,
        "noteNumber": 79,
        "velocity": 96
    },
    {
        "track": 1,
        "absoluteTick": 169680,
        "noteNumber": 67,
        "velocity": 96
    },
    {
        "track": 2,
        "absoluteTick": 169680,
        "noteNumber": 55,
        "velocity": 88
    },
    {
        "track": 3,
        "absoluteTick": 169680,
        "noteNumber": 43,
        "velocity": 96
    },
    {
        "track": 0,
        "absoluteTick": 169800,
        "noteNumber": 79,
        "velocity": 96
    },
    {
        "track": 1,
        "absoluteTick": 169800,
        "noteNumber": 67,
        "velocity": 96
    },
    {
        "track": 2,
        "absoluteTick": 169800,
        "noteNumber": 55,
        "velocity": 89
    },
    {
        "track": 3,
        "absoluteTick": 169800,
        "noteNumber": 43,
        "velocity": 96
    },
    {
        "track": 0,
        "absoluteTick": 169920,
        "noteNumber": 81,
        "velocity": 96
    },
    {
        "track": 1,
        "absoluteTick": 169920,
        "noteNumber": 69,
        "velocity": 96
    },
    {
        "track": 2,
        "absoluteTick": 169920,
        "noteNumber": 57,
        "velocity": 90
    },
    {
        "track": 3,
        "absoluteTick": 169920,
        "noteNumber": 45,
        "velocity": 96
    },
    {
        "track": 0,
        "absoluteTick": 170040,
        "noteNumber": 81,
        "velocity": 96
    },
    {
        "track": 1,
        "absoluteTick": 170040,
        "noteNumber": 69,
        "velocity": 96
    },
    {
        "track": 2,
        "absoluteTick": 170040,
        "noteNumber": 57,
        "velocity": 92
    },
    {
        "track": 3,
        "absoluteTick": 170040,
        "noteNumber": 45,
        "velocity": 96
    },
    {
        "track": 0,
        "absoluteTick": 170160,
        "noteNumber": 86,
        "velocity": 96
    },
    {
        "track": 1,
        "absoluteTick": 170160,
        "noteNumber": 74,
        "velocity": 96
    },
    {
        "track": 2,
        "absoluteTick": 170160,
        "noteNumber": 62,
        "velocity": 93
    },
    {
        "track": 3,
        "absoluteTick": 170160,
        "noteNumber": 50,
        "velocity": 96
    },
    {
        "track": 0,
        "absoluteTick": 170280,
        "noteNumber": 86,
        "velocity": 96
    },
    {
        "track": 1,
        "absoluteTick": 170280,
        "noteNumber": 74,
        "velocity": 96
    },
    {
        "track": 2,
        "absoluteTick": 170280,
        "noteNumber": 62,
        "velocity": 94
    },
    {
        "track": 3,
        "absoluteTick": 170280,
        "noteNumber": 50,
        "velocity": 96
    },
    {
        "track": 0,
        "absoluteTick": 170400,
        "noteNumber": 79,
        "velocity": 127
    },
    {
        "track": 1,
        "absoluteTick": 170400,
        "noteNumber": 74,
        "velocity": 127
    },
    {
        "track": 0,
        "absoluteTick": 170640,
        "noteNumber": 79,
        "velocity": 127
    },
    {
        "track": 1,
        "absoluteTick": 170640,
        "noteNumber": 74,
        "velocity": 127
    },
    {
        "track": 0,
        "absoluteTick": 170880,
        "noteNumber": 75,
        "velocity": 96
    },
    {
        "track": 1,
        "absoluteTick": 170880,
        "noteNumber": 63,
        "velocity": 96
    },
    {
        "track": 2,
        "absoluteTick": 170880,
        "noteNumber": 63,
        "velocity": 96
    },
    {
        "track": 3,
        "absoluteTick": 170880,
        "noteNumber": 43,
        "velocity": 127
    },
    {
        "track": 4,
        "absoluteTick": 170880,
        "noteNumber": 43,
        "velocity": 127
    },
    {
        "track": 0,
        "absoluteTick": 171000,
        "noteNumber": 75,
        "velocity": 96
    },
    {
        "track": 1,
        "absoluteTick": 171000,
        "noteNumber": 63,
        "velocity": 96
    },
    {
        "track": 2,
        "absoluteTick": 171000,
        "noteNumber": 63,
        "velocity": 96
    },
    {
        "track": 3,
        "absoluteTick": 171000,
        "noteNumber": 43,
        "velocity": 96
    },
    {
        "track": 0,
        "absoluteTick": 171120,
        "noteNumber": 74,
        "velocity": 96
    },
    {
        "track": 1,
        "absoluteTick": 171120,
        "noteNumber": 62,
        "velocity": 96
    },
    {
        "track": 2,
        "absoluteTick": 171120,
        "noteNumber": 62,
        "velocity": 96
    },
    {
        "track": 3,
        "absoluteTick": 171120,
        "noteNumber": 43,
        "velocity": 127
    },
    {
        "track": 4,
        "absoluteTick": 171120,
        "noteNumber": 43,
        "velocity": 127
    },
    {
        "track": 0,
        "absoluteTick": 171360,
        "noteNumber": 70,
        "velocity": 96
    },
    {
        "track": 1,
        "absoluteTick": 171360,
        "noteNumber": 58,
        "velocity": 96
    },
    {
        "track": 2,
        "absoluteTick": 171360,
        "noteNumber": 58,
        "velocity": 96
    },
    {
        "track": 0,
        "absoluteTick": 171600,
        "noteNumber": 69,
        "velocity": 96
    },
    {
        "track": 1,
        "absoluteTick": 171600,
        "noteNumber": 57,
        "velocity": 96
    },
    {
        "track": 2,
        "absoluteTick": 171600,
        "noteNumber": 57,
        "velocity": 96
    },
    {
        "track": 0,
        "absoluteTick": 171840,
        "noteNumber": 79,
        "velocity": 127
    },
    {
        "track": 1,
        "absoluteTick": 171840,
        "noteNumber": 75,
        "velocity": 127
    },
    {
        "track": 0,
        "absoluteTick": 172080,
        "noteNumber": 79,
        "velocity": 127
    },
    {
        "track": 1,
        "absoluteTick": 172080,
        "noteNumber": 75,
        "velocity": 127
    },
    {
        "track": 0,
        "absoluteTick": 172320,
        "noteNumber": 77,
        "velocity": 96
    },
    {
        "track": 1,
        "absoluteTick": 172320,
        "noteNumber": 65,
        "velocity": 96
    },
    {
        "track": 2,
        "absoluteTick": 172320,
        "noteNumber": 65,
        "velocity": 96
    },
    {
        "track": 3,
        "absoluteTick": 172320,
        "noteNumber": 39,
        "velocity": 127
    },
    {
        "track": 4,
        "absoluteTick": 172320,
        "noteNumber": 39,
        "velocity": 127
    },
    {
        "track": 0,
        "absoluteTick": 172440,
        "noteNumber": 77,
        "velocity": 96
    },
    {
        "track": 1,
        "absoluteTick": 172440,
        "noteNumber": 65,
        "velocity": 96
    },
    {
        "track": 2,
        "absoluteTick": 172440,
        "noteNumber": 65,
        "velocity": 96
    },
    {
        "track": 3,
        "absoluteTick": 172440,
        "noteNumber": 39,
        "velocity": 96
    },
    {
        "track": 0,
        "absoluteTick": 172560,
        "noteNumber": 75,
        "velocity": 96
    },
    {
        "track": 1,
        "absoluteTick": 172560,
        "noteNumber": 63,
        "velocity": 96
    },
    {
        "track": 2,
        "absoluteTick": 172560,
        "noteNumber": 63,
        "velocity": 96
    },
    {
        "track": 3,
        "absoluteTick": 172560,
        "noteNumber": 39,
        "velocity": 127
    },
    {
        "track": 4,
        "absoluteTick": 172560,
        "noteNumber": 39,
        "velocity": 127
    },
    {
        "track": 0,
        "absoluteTick": 172800,
        "noteNumber": 70,
        "velocity": 96
    },
    {
        "track": 1,
        "absoluteTick": 172800,
        "noteNumber": 58,
        "velocity": 96
    },
    {
        "track": 2,
        "absoluteTick": 172800,
        "noteNumber": 58,
        "velocity": 96
    },
    {
        "track": 0,
        "absoluteTick": 173040,
        "noteNumber": 69,
        "velocity": 96
    },
    {
        "track": 1,
        "absoluteTick": 173040,
        "noteNumber": 57,
        "velocity": 96
    },
    {
        "track": 2,
        "absoluteTick": 173040,
        "noteNumber": 57,
        "velocity": 96
    },
    {
        "track": 0,
        "absoluteTick": 173280,
        "noteNumber": 79,
        "velocity": 127
    },
    {
        "track": 1,
        "absoluteTick": 173280,
        "noteNumber": 72,
        "velocity": 127
    },
    {
        "track": 0,
        "absoluteTick": 173520,
        "noteNumber": 79,
        "velocity": 127
    },
    {
        "track": 1,
        "absoluteTick": 173520,
        "noteNumber": 72,
        "velocity": 127
    },
    {
        "track": 0,
        "absoluteTick": 173760,
        "noteNumber": 77,
        "velocity": 96
    },
    {
        "track": 1,
        "absoluteTick": 173760,
        "noteNumber": 65,
        "velocity": 96
    },
    {
        "track": 2,
        "absoluteTick": 173760,
        "noteNumber": 65,
        "velocity": 96
    },
    {
        "track": 3,
        "absoluteTick": 173760,
        "noteNumber": 36,
        "velocity": 127
    },
    {
        "track": 4,
        "absoluteTick": 173760,
        "noteNumber": 36,
        "velocity": 127
    },
    {
        "track": 0,
        "absoluteTick": 173880,
        "noteNumber": 77,
        "velocity": 96
    },
    {
        "track": 1,
        "absoluteTick": 173880,
        "noteNumber": 65,
        "velocity": 96
    },
    {
        "track": 2,
        "absoluteTick": 173880,
        "noteNumber": 65,
        "velocity": 96
    },
    {
        "track": 3,
        "absoluteTick": 173880,
        "noteNumber": 36,
        "velocity": 96
    },
    {
        "track": 0,
        "absoluteTick": 174000,
        "noteNumber": 75,
        "velocity": 96
    },
    {
        "track": 1,
        "absoluteTick": 174000,
        "noteNumber": 63,
        "velocity": 96
    },
    {
        "track": 2,
        "absoluteTick": 174000,
        "noteNumber": 63,
        "velocity": 96
    },
    {
        "track": 3,
        "absoluteTick": 174000,
        "noteNumber": 36,
        "velocity": 127
    },
    {
        "track": 4,
        "absoluteTick": 174000,
        "noteNumber": 36,
        "velocity": 127
    },
    {
        "track": 0,
        "absoluteTick": 174240,
        "noteNumber": 72,
        "velocity": 96
    },
    {
        "track": 1,
        "absoluteTick": 174240,
        "noteNumber": 60,
        "velocity": 96
    },
    {
        "track": 2,
        "absoluteTick": 174240,
        "noteNumber": 60,
        "velocity": 96
    },
    {
        "track": 0,
        "absoluteTick": 174480,
        "noteNumber": 67,
        "velocity": 96
    },
    {
        "track": 1,
        "absoluteTick": 174480,
        "noteNumber": 55,
        "velocity": 96
    },
    {
        "track": 2,
        "absoluteTick": 174480,
        "noteNumber": 55,
        "velocity": 96
    },
    {
        "track": 0,
        "absoluteTick": 174720,
        "noteNumber": 67,
        "velocity": 64
    },
    {
        "track": 1,
        "absoluteTick": 174720,
        "noteNumber": 55,
        "velocity": 64
    },
    {
        "track": 2,
        "absoluteTick": 174720,
        "noteNumber": 57,
        "velocity": 64
    },
    {
        "track": 3,
        "absoluteTick": 174720,
        "noteNumber": 43,
        "velocity": 64
    },
    {
        "track": 4,
        "absoluteTick": 174720,
        "noteNumber": 31,
        "velocity": 64
    },
    {
        "track": 0,
        "absoluteTick": 174840,
        "noteNumber": 67,
        "velocity": 64
    },
    {
        "track": 1,
        "absoluteTick": 174840,
        "noteNumber": 55,
        "velocity": 64
    },
    {
        "track": 2,
        "absoluteTick": 174840,
        "noteNumber": 57,
        "velocity": 64
    },
    {
        "track": 3,
        "absoluteTick": 174840,
        "noteNumber": 43,
        "velocity": 64
    },
    {
        "track": 0,
        "absoluteTick": 174960,
        "noteNumber": 67,
        "velocity": 64
    },
    {
        "track": 1,
        "absoluteTick": 174960,
        "noteNumber": 55,
        "velocity": 64
    },
    {
        "track": 2,
        "absoluteTick": 174960,
        "noteNumber": 57,
        "velocity": 65
    },
    {
        "track": 3,
        "absoluteTick": 174960,
        "noteNumber": 43,
        "velocity": 65
    },
    {
        "track": 4,
        "absoluteTick": 174960,
        "noteNumber": 31,
        "velocity": 65
    },
    {
        "track": 0,
        "absoluteTick": 175080,
        "noteNumber": 67,
        "velocity": 64
    },
    {
        "track": 1,
        "absoluteTick": 175080,
        "noteNumber": 55,
        "velocity": 64
    },
    {
        "track": 2,
        "absoluteTick": 175080,
        "noteNumber": 57,
        "velocity": 66
    },
    {
        "track": 3,
        "absoluteTick": 175080,
        "noteNumber": 43,
        "velocity": 66
    },
    {
        "track": 0,
        "absoluteTick": 175200,
        "noteNumber": 66,
        "velocity": 64
    },
    {
        "track": 1,
        "absoluteTick": 175200,
        "noteNumber": 55,
        "velocity": 64
    },
    {
        "track": 2,
        "absoluteTick": 175200,
        "noteNumber": 57,
        "velocity": 66
    },
    {
        "track": 3,
        "absoluteTick": 175200,
        "noteNumber": 43,
        "velocity": 66
    },
    {
        "track": 4,
        "absoluteTick": 175200,
        "noteNumber": 31,
        "velocity": 66
    },
    {
        "track": 0,
        "absoluteTick": 175320,
        "noteNumber": 66,
        "velocity": 64
    },
    {
        "track": 1,
        "absoluteTick": 175320,
        "noteNumber": 55,
        "velocity": 64
    },
    {
        "track": 2,
        "absoluteTick": 175320,
        "noteNumber": 57,
        "velocity": 67
    },
    {
        "track": 3,
        "absoluteTick": 175320,
        "noteNumber": 43,
        "velocity": 67
    },
    {
        "track": 0,
        "absoluteTick": 175440,
        "noteNumber": 67,
        "velocity": 64
    },
    {
        "track": 1,
        "absoluteTick": 175440,
        "noteNumber": 55,
        "velocity": 64
    },
    {
        "track": 2,
        "absoluteTick": 175440,
        "noteNumber": 57,
        "velocity": 68
    },
    {
        "track": 3,
        "absoluteTick": 175440,
        "noteNumber": 43,
        "velocity": 68
    },
    {
        "track": 4,
        "absoluteTick": 175440,
        "noteNumber": 31,
        "velocity": 68
    },
    {
        "track": 0,
        "absoluteTick": 175560,
        "noteNumber": 67,
        "velocity": 64
    },
    {
        "track": 1,
        "absoluteTick": 175560,
        "noteNumber": 55,
        "velocity": 64
    },
    {
        "track": 2,
        "absoluteTick": 175560,
        "noteNumber": 57,
        "velocity": 68
    },
    {
        "track": 3,
        "absoluteTick": 175560,
        "noteNumber": 43,
        "velocity": 68
    },
    {
        "track": 0,
        "absoluteTick": 175680,
        "noteNumber": 69,
        "velocity": 64
    },
    {
        "track": 1,
        "absoluteTick": 175680,
        "noteNumber": 55,
        "velocity": 64
    },
    {
        "track": 2,
        "absoluteTick": 175680,
        "noteNumber": 57,
        "velocity": 69
    },
    {
        "track": 3,
        "absoluteTick": 175680,
        "noteNumber": 43,
        "velocity": 69
    },
    {
        "track": 4,
        "absoluteTick": 175680,
        "noteNumber": 31,
        "velocity": 69
    },
    {
        "track": 0,
        "absoluteTick": 175800,
        "noteNumber": 69,
        "velocity": 64
    },
    {
        "track": 1,
        "absoluteTick": 175800,
        "noteNumber": 55,
        "velocity": 64
    },
    {
        "track": 2,
        "absoluteTick": 175800,
        "noteNumber": 57,
        "velocity": 70
    },
    {
        "track": 3,
        "absoluteTick": 175800,
        "noteNumber": 43,
        "velocity": 70
    },
    {
        "track": 0,
        "absoluteTick": 175920,
        "noteNumber": 62,
        "velocity": 64
    },
    {
        "track": 1,
        "absoluteTick": 175920,
        "noteNumber": 55,
        "velocity": 64
    },
    {
        "track": 2,
        "absoluteTick": 175920,
        "noteNumber": 57,
        "velocity": 70
    },
    {
        "track": 3,
        "absoluteTick": 175920,
        "noteNumber": 43,
        "velocity": 70
    },
    {
        "track": 4,
        "absoluteTick": 175920,
        "noteNumber": 31,
        "velocity": 70
    },
    {
        "track": 0,
        "absoluteTick": 176040,
        "noteNumber": 62,
        "velocity": 64
    },
    {
        "track": 1,
        "absoluteTick": 176040,
        "noteNumber": 55,
        "velocity": 64
    },
    {
        "track": 2,
        "absoluteTick": 176040,
        "noteNumber": 57,
        "velocity": 71
    },
    {
        "track": 3,
        "absoluteTick": 176040,
        "noteNumber": 43,
        "velocity": 71
    },
    {
        "track": 0,
        "absoluteTick": 176160,
        "noteNumber": 69,
        "velocity": 64
    },
    {
        "track": 1,
        "absoluteTick": 176160,
        "noteNumber": 57,
        "velocity": 64
    },
    {
        "track": 2,
        "absoluteTick": 176160,
        "noteNumber": 50,
        "velocity": 72
    },
    {
        "track": 3,
        "absoluteTick": 176160,
        "noteNumber": 42,
        "velocity": 72
    },
    {
        "track": 4,
        "absoluteTick": 176160,
        "noteNumber": 30,
        "velocity": 72
    },
    {
        "track": 0,
        "absoluteTick": 176280,
        "noteNumber": 69,
        "velocity": 64
    },
    {
        "track": 1,
        "absoluteTick": 176280,
        "noteNumber": 57,
        "velocity": 64
    },
    {
        "track": 2,
        "absoluteTick": 176280,
        "noteNumber": 50,
        "velocity": 72
    },
    {
        "track": 3,
        "absoluteTick": 176280,
        "noteNumber": 42,
        "velocity": 72
    },
    {
        "track": 0,
        "absoluteTick": 176400,
        "noteNumber": 69,
        "velocity": 64
    },
    {
        "track": 1,
        "absoluteTick": 176400,
        "noteNumber": 57,
        "velocity": 64
    },
    {
        "track": 2,
        "absoluteTick": 176400,
        "noteNumber": 50,
        "velocity": 73
    },
    {
        "track": 3,
        "absoluteTick": 176400,
        "noteNumber": 42,
        "velocity": 73
    },
    {
        "track": 4,
        "absoluteTick": 176400,
        "noteNumber": 30,
        "velocity": 73
    },
    {
        "track": 0,
        "absoluteTick": 176520,
        "noteNumber": 69,
        "velocity": 64
    },
    {
        "track": 1,
        "absoluteTick": 176520,
        "noteNumber": 57,
        "velocity": 64
    },
    {
        "track": 2,
        "absoluteTick": 176520,
        "noteNumber": 50,
        "velocity": 74
    },
    {
        "track": 3,
        "absoluteTick": 176520,
        "noteNumber": 42,
        "velocity": 74
    },
    {
        "track": 0,
        "absoluteTick": 176640,
        "noteNumber": 67,
        "velocity": 64
    },
    {
        "track": 1,
        "absoluteTick": 176640,
        "noteNumber": 57,
        "velocity": 64
    },
    {
        "track": 2,
        "absoluteTick": 176640,
        "noteNumber": 50,
        "velocity": 74
    },
    {
        "track": 3,
        "absoluteTick": 176640,
        "noteNumber": 42,
        "velocity": 74
    },
    {
        "track": 4,
        "absoluteTick": 176640,
        "noteNumber": 30,
        "velocity": 74
    },
    {
        "track": 0,
        "absoluteTick": 176760,
        "noteNumber": 67,
        "velocity": 64
    },
    {
        "track": 1,
        "absoluteTick": 176760,
        "noteNumber": 57,
        "velocity": 64
    },
    {
        "track": 2,
        "absoluteTick": 176760,
        "noteNumber": 50,
        "velocity": 75
    },
    {
        "track": 3,
        "absoluteTick": 176760,
        "noteNumber": 42,
        "velocity": 75
    },
    {
        "track": 0,
        "absoluteTick": 176880,
        "noteNumber": 69,
        "velocity": 64
    },
    {
        "track": 1,
        "absoluteTick": 176880,
        "noteNumber": 57,
        "velocity": 64
    },
    {
        "track": 2,
        "absoluteTick": 176880,
        "noteNumber": 50,
        "velocity": 76
    },
    {
        "track": 3,
        "absoluteTick": 176880,
        "noteNumber": 42,
        "velocity": 76
    },
    {
        "track": 4,
        "absoluteTick": 176880,
        "noteNumber": 30,
        "velocity": 76
    },
    {
        "track": 0,
        "absoluteTick": 177000,
        "noteNumber": 69,
        "velocity": 64
    },
    {
        "track": 1,
        "absoluteTick": 177000,
        "noteNumber": 57,
        "velocity": 64
    },
    {
        "track": 2,
        "absoluteTick": 177000,
        "noteNumber": 50,
        "velocity": 76
    },
    {
        "track": 3,
        "absoluteTick": 177000,
        "noteNumber": 42,
        "velocity": 76
    },
    {
        "track": 0,
        "absoluteTick": 177120,
        "noteNumber": 70,
        "velocity": 64
    },
    {
        "track": 1,
        "absoluteTick": 177120,
        "noteNumber": 57,
        "velocity": 64
    },
    {
        "track": 2,
        "absoluteTick": 177120,
        "noteNumber": 50,
        "velocity": 77
    },
    {
        "track": 3,
        "absoluteTick": 177120,
        "noteNumber": 42,
        "velocity": 77
    },
    {
        "track": 4,
        "absoluteTick": 177120,
        "noteNumber": 30,
        "velocity": 77
    },
    {
        "track": 0,
        "absoluteTick": 177240,
        "noteNumber": 70,
        "velocity": 64
    },
    {
        "track": 1,
        "absoluteTick": 177240,
        "noteNumber": 57,
        "velocity": 64
    },
    {
        "track": 2,
        "absoluteTick": 177240,
        "noteNumber": 50,
        "velocity": 78
    },
    {
        "track": 3,
        "absoluteTick": 177240,
        "noteNumber": 42,
        "velocity": 78
    },
    {
        "track": 0,
        "absoluteTick": 177360,
        "noteNumber": 62,
        "velocity": 64
    },
    {
        "track": 1,
        "absoluteTick": 177360,
        "noteNumber": 57,
        "velocity": 64
    },
    {
        "track": 2,
        "absoluteTick": 177360,
        "noteNumber": 50,
        "velocity": 78
    },
    {
        "track": 3,
        "absoluteTick": 177360,
        "noteNumber": 42,
        "velocity": 78
    },
    {
        "track": 4,
        "absoluteTick": 177360,
        "noteNumber": 30,
        "velocity": 78
    },
    {
        "track": 0,
        "absoluteTick": 177480,
        "noteNumber": 62,
        "velocity": 64
    },
    {
        "track": 1,
        "absoluteTick": 177480,
        "noteNumber": 57,
        "velocity": 64
    },
    {
        "track": 2,
        "absoluteTick": 177480,
        "noteNumber": 50,
        "velocity": 79
    },
    {
        "track": 3,
        "absoluteTick": 177480,
        "noteNumber": 42,
        "velocity": 79
    },
    {
        "track": 0,
        "absoluteTick": 177600,
        "noteNumber": 69,
        "velocity": 80
    },
    {
        "track": 1,
        "absoluteTick": 177600,
        "noteNumber": 57,
        "velocity": 80
    },
    {
        "track": 2,
        "absoluteTick": 177600,
        "noteNumber": 55,
        "velocity": 80
    },
    {
        "track": 3,
        "absoluteTick": 177600,
        "noteNumber": 39,
        "velocity": 80
    },
    {
        "track": 4,
        "absoluteTick": 177600,
        "noteNumber": 39,
        "velocity": 80
    },
    {
        "track": 0,
        "absoluteTick": 177720,
        "noteNumber": 69,
        "velocity": 80
    },
    {
        "track": 1,
        "absoluteTick": 177720,
        "noteNumber": 57,
        "velocity": 80
    },
    {
        "track": 2,
        "absoluteTick": 177720,
        "noteNumber": 55,
        "velocity": 80
    },
    {
        "track": 3,
        "absoluteTick": 177720,
        "noteNumber": 39,
        "velocity": 80
    },
    {
        "track": 0,
        "absoluteTick": 177840,
        "noteNumber": 69,
        "velocity": 80
    },
    {
        "track": 1,
        "absoluteTick": 177840,
        "noteNumber": 57,
        "velocity": 80
    },
    {
        "track": 2,
        "absoluteTick": 177840,
        "noteNumber": 55,
        "velocity": 81
    },
    {
        "track": 3,
        "absoluteTick": 177840,
        "noteNumber": 39,
        "velocity": 81
    },
    {
        "track": 4,
        "absoluteTick": 177840,
        "noteNumber": 39,
        "velocity": 81
    },
    {
        "track": 0,
        "absoluteTick": 177960,
        "noteNumber": 69,
        "velocity": 80
    },
    {
        "track": 1,
        "absoluteTick": 177960,
        "noteNumber": 57,
        "velocity": 80
    },
    {
        "track": 2,
        "absoluteTick": 177960,
        "noteNumber": 55,
        "velocity": 82
    },
    {
        "track": 3,
        "absoluteTick": 177960,
        "noteNumber": 39,
        "velocity": 82
    },
    {
        "track": 0,
        "absoluteTick": 178080,
        "noteNumber": 67,
        "velocity": 80
    },
    {
        "track": 1,
        "absoluteTick": 178080,
        "noteNumber": 57,
        "velocity": 80
    },
    {
        "track": 2,
        "absoluteTick": 178080,
        "noteNumber": 55,
        "velocity": 82
    },
    {
        "track": 3,
        "absoluteTick": 178080,
        "noteNumber": 39,
        "velocity": 82
    },
    {
        "track": 4,
        "absoluteTick": 178080,
        "noteNumber": 39,
        "velocity": 82
    },
    {
        "track": 0,
        "absoluteTick": 178200,
        "noteNumber": 67,
        "velocity": 80
    },
    {
        "track": 1,
        "absoluteTick": 178200,
        "noteNumber": 57,
        "velocity": 80
    },
    {
        "track": 2,
        "absoluteTick": 178200,
        "noteNumber": 55,
        "velocity": 83
    },
    {
        "track": 3,
        "absoluteTick": 178200,
        "noteNumber": 39,
        "velocity": 83
    },
    {
        "track": 0,
        "absoluteTick": 178320,
        "noteNumber": 69,
        "velocity": 80
    },
    {
        "track": 1,
        "absoluteTick": 178320,
        "noteNumber": 57,
        "velocity": 80
    },
    {
        "track": 2,
        "absoluteTick": 178320,
        "noteNumber": 55,
        "velocity": 84
    },
    {
        "track": 3,
        "absoluteTick": 178320,
        "noteNumber": 39,
        "velocity": 84
    },
    {
        "track": 4,
        "absoluteTick": 178320,
        "noteNumber": 39,
        "velocity": 84
    },
    {
        "track": 0,
        "absoluteTick": 178440,
        "noteNumber": 69,
        "velocity": 80
    },
    {
        "track": 1,
        "absoluteTick": 178440,
        "noteNumber": 57,
        "velocity": 80
    },
    {
        "track": 2,
        "absoluteTick": 178440,
        "noteNumber": 55,
        "velocity": 84
    },
    {
        "track": 3,
        "absoluteTick": 178440,
        "noteNumber": 39,
        "velocity": 84
    },
    {
        "track": 0,
        "absoluteTick": 178560,
        "noteNumber": 70,
        "velocity": 80
    },
    {
        "track": 1,
        "absoluteTick": 178560,
        "noteNumber": 57,
        "velocity": 80
    },
    {
        "track": 2,
        "absoluteTick": 178560,
        "noteNumber": 55,
        "velocity": 85
    },
    {
        "track": 3,
        "absoluteTick": 178560,
        "noteNumber": 39,
        "velocity": 85
    },
    {
        "track": 4,
        "absoluteTick": 178560,
        "noteNumber": 39,
        "velocity": 85
    },
    {
        "track": 0,
        "absoluteTick": 178680,
        "noteNumber": 70,
        "velocity": 80
    },
    {
        "track": 1,
        "absoluteTick": 178680,
        "noteNumber": 57,
        "velocity": 80
    },
    {
        "track": 2,
        "absoluteTick": 178680,
        "noteNumber": 55,
        "velocity": 86
    },
    {
        "track": 3,
        "absoluteTick": 178680,
        "noteNumber": 39,
        "velocity": 86
    },
    {
        "track": 0,
        "absoluteTick": 178800,
        "noteNumber": 62,
        "velocity": 80
    },
    {
        "track": 1,
        "absoluteTick": 178800,
        "noteNumber": 57,
        "velocity": 80
    },
    {
        "track": 2,
        "absoluteTick": 178800,
        "noteNumber": 55,
        "velocity": 86
    },
    {
        "track": 3,
        "absoluteTick": 178800,
        "noteNumber": 39,
        "velocity": 86
    },
    {
        "track": 4,
        "absoluteTick": 178800,
        "noteNumber": 39,
        "velocity": 86
    },
    {
        "track": 0,
        "absoluteTick": 178920,
        "noteNumber": 62,
        "velocity": 80
    },
    {
        "track": 1,
        "absoluteTick": 178920,
        "noteNumber": 57,
        "velocity": 80
    },
    {
        "track": 2,
        "absoluteTick": 178920,
        "noteNumber": 55,
        "velocity": 87
    },
    {
        "track": 3,
        "absoluteTick": 178920,
        "noteNumber": 39,
        "velocity": 87
    },
    {
        "track": 0,
        "absoluteTick": 179040,
        "noteNumber": 70,
        "velocity": 80
    },
    {
        "track": 1,
        "absoluteTick": 179040,
        "noteNumber": 58,
        "velocity": 80
    },
    {
        "track": 2,
        "absoluteTick": 179040,
        "noteNumber": 57,
        "velocity": 88
    },
    {
        "track": 3,
        "absoluteTick": 179040,
        "noteNumber": 39,
        "velocity": 88
    },
    {
        "track": 4,
        "absoluteTick": 179040,
        "noteNumber": 39,
        "velocity": 88
    },
    {
        "track": 0,
        "absoluteTick": 179160,
        "noteNumber": 70,
        "velocity": 80
    },
    {
        "track": 1,
        "absoluteTick": 179160,
        "noteNumber": 58,
        "velocity": 80
    },
    {
        "track": 2,
        "absoluteTick": 179160,
        "noteNumber": 57,
        "velocity": 88
    },
    {
        "track": 3,
        "absoluteTick": 179160,
        "noteNumber": 39,
        "velocity": 88
    },
    {
        "track": 0,
        "absoluteTick": 179280,
        "noteNumber": 70,
        "velocity": 80
    },
    {
        "track": 1,
        "absoluteTick": 179280,
        "noteNumber": 58,
        "velocity": 80
    },
    {
        "track": 2,
        "absoluteTick": 179280,
        "noteNumber": 57,
        "velocity": 89
    },
    {
        "track": 3,
        "absoluteTick": 179280,
        "noteNumber": 39,
        "velocity": 89
    },
    {
        "track": 4,
        "absoluteTick": 179280,
        "noteNumber": 39,
        "velocity": 89
    },
    {
        "track": 0,
        "absoluteTick": 179400,
        "noteNumber": 70,
        "velocity": 80
    },
    {
        "track": 1,
        "absoluteTick": 179400,
        "noteNumber": 58,
        "velocity": 80
    },
    {
        "track": 2,
        "absoluteTick": 179400,
        "noteNumber": 57,
        "velocity": 90
    },
    {
        "track": 3,
        "absoluteTick": 179400,
        "noteNumber": 39,
        "velocity": 90
    },
    {
        "track": 0,
        "absoluteTick": 179520,
        "noteNumber": 69,
        "velocity": 80
    },
    {
        "track": 1,
        "absoluteTick": 179520,
        "noteNumber": 58,
        "velocity": 80
    },
    {
        "track": 2,
        "absoluteTick": 179520,
        "noteNumber": 57,
        "velocity": 90
    },
    {
        "track": 3,
        "absoluteTick": 179520,
        "noteNumber": 39,
        "velocity": 90
    },
    {
        "track": 4,
        "absoluteTick": 179520,
        "noteNumber": 39,
        "velocity": 90
    },
    {
        "track": 0,
        "absoluteTick": 179640,
        "noteNumber": 69,
        "velocity": 80
    },
    {
        "track": 1,
        "absoluteTick": 179640,
        "noteNumber": 58,
        "velocity": 80
    },
    {
        "track": 2,
        "absoluteTick": 179640,
        "noteNumber": 57,
        "velocity": 91
    },
    {
        "track": 3,
        "absoluteTick": 179640,
        "noteNumber": 39,
        "velocity": 91
    },
    {
        "track": 0,
        "absoluteTick": 179760,
        "noteNumber": 70,
        "velocity": 80
    },
    {
        "track": 1,
        "absoluteTick": 179760,
        "noteNumber": 58,
        "velocity": 80
    },
    {
        "track": 2,
        "absoluteTick": 179760,
        "noteNumber": 57,
        "velocity": 92
    },
    {
        "track": 3,
        "absoluteTick": 179760,
        "noteNumber": 39,
        "velocity": 92
    },
    {
        "track": 4,
        "absoluteTick": 179760,
        "noteNumber": 39,
        "velocity": 92
    },
    {
        "track": 0,
        "absoluteTick": 179880,
        "noteNumber": 70,
        "velocity": 80
    },
    {
        "track": 1,
        "absoluteTick": 179880,
        "noteNumber": 58,
        "velocity": 80
    },
    {
        "track": 2,
        "absoluteTick": 179880,
        "noteNumber": 57,
        "velocity": 92
    },
    {
        "track": 3,
        "absoluteTick": 179880,
        "noteNumber": 39,
        "velocity": 92
    },
    {
        "track": 0,
        "absoluteTick": 180000,
        "noteNumber": 72,
        "velocity": 80
    },
    {
        "track": 1,
        "absoluteTick": 180000,
        "noteNumber": 58,
        "velocity": 80
    },
    {
        "track": 2,
        "absoluteTick": 180000,
        "noteNumber": 57,
        "velocity": 93
    },
    {
        "track": 3,
        "absoluteTick": 180000,
        "noteNumber": 39,
        "velocity": 93
    },
    {
        "track": 4,
        "absoluteTick": 180000,
        "noteNumber": 39,
        "velocity": 93
    },
    {
        "track": 0,
        "absoluteTick": 180120,
        "noteNumber": 72,
        "velocity": 80
    },
    {
        "track": 1,
        "absoluteTick": 180120,
        "noteNumber": 58,
        "velocity": 80
    },
    {
        "track": 2,
        "absoluteTick": 180120,
        "noteNumber": 57,
        "velocity": 94
    },
    {
        "track": 3,
        "absoluteTick": 180120,
        "noteNumber": 39,
        "velocity": 94
    },
    {
        "track": 0,
        "absoluteTick": 180240,
        "noteNumber": 62,
        "velocity": 80
    },
    {
        "track": 1,
        "absoluteTick": 180240,
        "noteNumber": 58,
        "velocity": 80
    },
    {
        "track": 2,
        "absoluteTick": 180240,
        "noteNumber": 57,
        "velocity": 94
    },
    {
        "track": 3,
        "absoluteTick": 180240,
        "noteNumber": 39,
        "velocity": 94
    },
    {
        "track": 4,
        "absoluteTick": 180240,
        "noteNumber": 39,
        "velocity": 94
    },
    {
        "track": 0,
        "absoluteTick": 180360,
        "noteNumber": 62,
        "velocity": 80
    },
    {
        "track": 1,
        "absoluteTick": 180360,
        "noteNumber": 58,
        "velocity": 80
    },
    {
        "track": 2,
        "absoluteTick": 180360,
        "noteNumber": 57,
        "velocity": 95
    },
    {
        "track": 3,
        "absoluteTick": 180360,
        "noteNumber": 39,
        "velocity": 95
    },
    {
        "track": 0,
        "absoluteTick": 180480,
        "noteNumber": 72,
        "velocity": 96
    },
    {
        "track": 1,
        "absoluteTick": 180480,
        "noteNumber": 60,
        "velocity": 96
    },
    {
        "track": 2,
        "absoluteTick": 180480,
        "noteNumber": 62,
        "velocity": 96
    },
    {
        "track": 3,
        "absoluteTick": 180480,
        "noteNumber": 42,
        "velocity": 96
    },
    {
        "track": 4,
        "absoluteTick": 180480,
        "noteNumber": 30,
        "velocity": 96
    },
    {
        "track": 0,
        "absoluteTick": 180600,
        "noteNumber": 72,
        "velocity": 96
    },
    {
        "track": 1,
        "absoluteTick": 180600,
        "noteNumber": 60,
        "velocity": 96
    },
    {
        "track": 2,
        "absoluteTick": 180600,
        "noteNumber": 62,
        "velocity": 96
    },
    {
        "track": 3,
        "absoluteTick": 180600,
        "noteNumber": 42,
        "velocity": 96
    },
    {
        "track": 0,
        "absoluteTick": 180720,
        "noteNumber": 72,
        "velocity": 97
    },
    {
        "track": 1,
        "absoluteTick": 180720,
        "noteNumber": 60,
        "velocity": 97
    },
    {
        "track": 2,
        "absoluteTick": 180720,
        "noteNumber": 62,
        "velocity": 97
    },
    {
        "track": 3,
        "absoluteTick": 180720,
        "noteNumber": 42,
        "velocity": 96
    },
    {
        "track": 4,
        "absoluteTick": 180720,
        "noteNumber": 30,
        "velocity": 96
    },
    {
        "track": 0,
        "absoluteTick": 180840,
        "noteNumber": 72,
        "velocity": 98
    },
    {
        "track": 1,
        "absoluteTick": 180840,
        "noteNumber": 60,
        "velocity": 98
    },
    {
        "track": 2,
        "absoluteTick": 180840,
        "noteNumber": 62,
        "velocity": 98
    },
    {
        "track": 3,
        "absoluteTick": 180840,
        "noteNumber": 42,
        "velocity": 96
    },
    {
        "track": 0,
        "absoluteTick": 180960,
        "noteNumber": 70,
        "velocity": 98
    },
    {
        "track": 1,
        "absoluteTick": 180960,
        "noteNumber": 60,
        "velocity": 98
    },
    {
        "track": 2,
        "absoluteTick": 180960,
        "noteNumber": 62,
        "velocity": 98
    },
    {
        "track": 3,
        "absoluteTick": 180960,
        "noteNumber": 42,
        "velocity": 96
    },
    {
        "track": 4,
        "absoluteTick": 180960,
        "noteNumber": 30,
        "velocity": 96
    },
    {
        "track": 0,
        "absoluteTick": 181080,
        "noteNumber": 70,
        "velocity": 99
    },
    {
        "track": 1,
        "absoluteTick": 181080,
        "noteNumber": 60,
        "velocity": 99
    },
    {
        "track": 2,
        "absoluteTick": 181080,
        "noteNumber": 62,
        "velocity": 99
    },
    {
        "track": 3,
        "absoluteTick": 181080,
        "noteNumber": 42,
        "velocity": 96
    },
    {
        "track": 0,
        "absoluteTick": 181200,
        "noteNumber": 72,
        "velocity": 100
    },
    {
        "track": 1,
        "absoluteTick": 181200,
        "noteNumber": 60,
        "velocity": 100
    },
    {
        "track": 2,
        "absoluteTick": 181200,
        "noteNumber": 62,
        "velocity": 100
    },
    {
        "track": 3,
        "absoluteTick": 181200,
        "noteNumber": 42,
        "velocity": 96
    },
    {
        "track": 4,
        "absoluteTick": 181200,
        "noteNumber": 30,
        "velocity": 96
    },
    {
        "track": 0,
        "absoluteTick": 181320,
        "noteNumber": 72,
        "velocity": 100
    },
    {
        "track": 1,
        "absoluteTick": 181320,
        "noteNumber": 60,
        "velocity": 100
    },
    {
        "track": 2,
        "absoluteTick": 181320,
        "noteNumber": 62,
        "velocity": 100
    },
    {
        "track": 3,
        "absoluteTick": 181320,
        "noteNumber": 42,
        "velocity": 96
    },
    {
        "track": 0,
        "absoluteTick": 181440,
        "noteNumber": 74,
        "velocity": 101
    },
    {
        "track": 1,
        "absoluteTick": 181440,
        "noteNumber": 60,
        "velocity": 101
    },
    {
        "track": 2,
        "absoluteTick": 181440,
        "noteNumber": 62,
        "velocity": 101
    },
    {
        "track": 3,
        "absoluteTick": 181440,
        "noteNumber": 42,
        "velocity": 96
    },
    {
        "track": 4,
        "absoluteTick": 181440,
        "noteNumber": 30,
        "velocity": 96
    },
    {
        "track": 0,
        "absoluteTick": 181560,
        "noteNumber": 74,
        "velocity": 102
    },
    {
        "track": 1,
        "absoluteTick": 181560,
        "noteNumber": 60,
        "velocity": 102
    },
    {
        "track": 2,
        "absoluteTick": 181560,
        "noteNumber": 62,
        "velocity": 102
    },
    {
        "track": 3,
        "absoluteTick": 181560,
        "noteNumber": 42,
        "velocity": 96
    },
    {
        "track": 0,
        "absoluteTick": 181680,
        "noteNumber": 62,
        "velocity": 102
    },
    {
        "track": 1,
        "absoluteTick": 181680,
        "noteNumber": 60,
        "velocity": 102
    },
    {
        "track": 2,
        "absoluteTick": 181680,
        "noteNumber": 62,
        "velocity": 102
    },
    {
        "track": 3,
        "absoluteTick": 181680,
        "noteNumber": 42,
        "velocity": 96
    },
    {
        "track": 4,
        "absoluteTick": 181680,
        "noteNumber": 30,
        "velocity": 96
    },
    {
        "track": 0,
        "absoluteTick": 181800,
        "noteNumber": 62,
        "velocity": 103
    },
    {
        "track": 1,
        "absoluteTick": 181800,
        "noteNumber": 60,
        "velocity": 103
    },
    {
        "track": 2,
        "absoluteTick": 181800,
        "noteNumber": 62,
        "velocity": 103
    },
    {
        "track": 3,
        "absoluteTick": 181800,
        "noteNumber": 42,
        "velocity": 96
    },
    {
        "track": 0,
        "absoluteTick": 181920,
        "noteNumber": 74,
        "velocity": 104
    },
    {
        "track": 1,
        "absoluteTick": 181920,
        "noteNumber": 62,
        "velocity": 104
    },
    {
        "track": 2,
        "absoluteTick": 181920,
        "noteNumber": 62,
        "velocity": 104
    },
    {
        "track": 3,
        "absoluteTick": 181920,
        "noteNumber": 42,
        "velocity": 96
    },
    {
        "track": 4,
        "absoluteTick": 181920,
        "noteNumber": 30,
        "velocity": 96
    },
    {
        "track": 0,
        "absoluteTick": 182040,
        "noteNumber": 74,
        "velocity": 104
    },
    {
        "track": 1,
        "absoluteTick": 182040,
        "noteNumber": 62,
        "velocity": 104
    },
    {
        "track": 2,
        "absoluteTick": 182040,
        "noteNumber": 62,
        "velocity": 104
    },
    {
        "track": 3,
        "absoluteTick": 182040,
        "noteNumber": 42,
        "velocity": 96
    },
    {
        "track": 0,
        "absoluteTick": 182160,
        "noteNumber": 74,
        "velocity": 105
    },
    {
        "track": 1,
        "absoluteTick": 182160,
        "noteNumber": 62,
        "velocity": 105
    },
    {
        "track": 2,
        "absoluteTick": 182160,
        "noteNumber": 62,
        "velocity": 105
    },
    {
        "track": 3,
        "absoluteTick": 182160,
        "noteNumber": 42,
        "velocity": 96
    },
    {
        "track": 4,
        "absoluteTick": 182160,
        "noteNumber": 30,
        "velocity": 96
    },
    {
        "track": 0,
        "absoluteTick": 182280,
        "noteNumber": 74,
        "velocity": 106
    },
    {
        "track": 1,
        "absoluteTick": 182280,
        "noteNumber": 62,
        "velocity": 106
    },
    {
        "track": 2,
        "absoluteTick": 182280,
        "noteNumber": 62,
        "velocity": 106
    },
    {
        "track": 3,
        "absoluteTick": 182280,
        "noteNumber": 42,
        "velocity": 96
    },
    {
        "track": 0,
        "absoluteTick": 182400,
        "noteNumber": 72,
        "velocity": 106
    },
    {
        "track": 1,
        "absoluteTick": 182400,
        "noteNumber": 62,
        "velocity": 106
    },
    {
        "track": 2,
        "absoluteTick": 182400,
        "noteNumber": 62,
        "velocity": 106
    },
    {
        "track": 3,
        "absoluteTick": 182400,
        "noteNumber": 42,
        "velocity": 96
    },
    {
        "track": 4,
        "absoluteTick": 182400,
        "noteNumber": 30,
        "velocity": 96
    },
    {
        "track": 0,
        "absoluteTick": 182520,
        "noteNumber": 72,
        "velocity": 107
    },
    {
        "track": 1,
        "absoluteTick": 182520,
        "noteNumber": 62,
        "velocity": 107
    },
    {
        "track": 2,
        "absoluteTick": 182520,
        "noteNumber": 62,
        "velocity": 107
    },
    {
        "track": 3,
        "absoluteTick": 182520,
        "noteNumber": 42,
        "velocity": 96
    },
    {
        "track": 0,
        "absoluteTick": 182640,
        "noteNumber": 74,
        "velocity": 108
    },
    {
        "track": 1,
        "absoluteTick": 182640,
        "noteNumber": 62,
        "velocity": 108
    },
    {
        "track": 2,
        "absoluteTick": 182640,
        "noteNumber": 62,
        "velocity": 108
    },
    {
        "track": 3,
        "absoluteTick": 182640,
        "noteNumber": 42,
        "velocity": 96
    },
    {
        "track": 4,
        "absoluteTick": 182640,
        "noteNumber": 30,
        "velocity": 96
    },
    {
        "track": 0,
        "absoluteTick": 182760,
        "noteNumber": 74,
        "velocity": 108
    },
    {
        "track": 1,
        "absoluteTick": 182760,
        "noteNumber": 62,
        "velocity": 108
    },
    {
        "track": 2,
        "absoluteTick": 182760,
        "noteNumber": 62,
        "velocity": 108
    },
    {
        "track": 3,
        "absoluteTick": 182760,
        "noteNumber": 42,
        "velocity": 96
    },
    {
        "track": 0,
        "absoluteTick": 182880,
        "noteNumber": 75,
        "velocity": 109
    },
    {
        "track": 1,
        "absoluteTick": 182880,
        "noteNumber": 62,
        "velocity": 109
    },
    {
        "track": 2,
        "absoluteTick": 182880,
        "noteNumber": 62,
        "velocity": 109
    },
    {
        "track": 3,
        "absoluteTick": 182880,
        "noteNumber": 42,
        "velocity": 96
    },
    {
        "track": 4,
        "absoluteTick": 182880,
        "noteNumber": 30,
        "velocity": 96
    },
    {
        "track": 0,
        "absoluteTick": 183000,
        "noteNumber": 75,
        "velocity": 110
    },
    {
        "track": 1,
        "absoluteTick": 183000,
        "noteNumber": 62,
        "velocity": 110
    },
    {
        "track": 2,
        "absoluteTick": 183000,
        "noteNumber": 62,
        "velocity": 110
    },
    {
        "track": 3,
        "absoluteTick": 183000,
        "noteNumber": 42,
        "velocity": 96
    },
    {
        "track": 0,
        "absoluteTick": 183120,
        "noteNumber": 77,
        "velocity": 110
    },
    {
        "track": 1,
        "absoluteTick": 183120,
        "noteNumber": 62,
        "velocity": 110
    },
    {
        "track": 2,
        "absoluteTick": 183120,
        "noteNumber": 62,
        "velocity": 110
    },
    {
        "track": 3,
        "absoluteTick": 183120,
        "noteNumber": 42,
        "velocity": 96
    },
    {
        "track": 4,
        "absoluteTick": 183120,
        "noteNumber": 30,
        "velocity": 96
    },
    {
        "track": 0,
        "absoluteTick": 183240,
        "noteNumber": 77,
        "velocity": 111
    },
    {
        "track": 1,
        "absoluteTick": 183240,
        "noteNumber": 62,
        "velocity": 111
    },
    {
        "track": 2,
        "absoluteTick": 183240,
        "noteNumber": 62,
        "velocity": 111
    },
    {
        "track": 3,
        "absoluteTick": 183240,
        "noteNumber": 42,
        "velocity": 96
    },
    {
        "track": 0,
        "absoluteTick": 183360,
        "noteNumber": 79,
        "velocity": 127
    },
    {
        "track": 1,
        "absoluteTick": 183360,
        "noteNumber": 67,
        "velocity": 127
    },
    {
        "track": 2,
        "absoluteTick": 183360,
        "noteNumber": 63,
        "velocity": 127
    },
    {
        "track": 3,
        "absoluteTick": 183360,
        "noteNumber": 44,
        "velocity": 127
    },
    {
        "track": 4,
        "absoluteTick": 183360,
        "noteNumber": 32,
        "velocity": 127
    },
    {
        "track": 0,
        "absoluteTick": 183480,
        "noteNumber": 79,
        "velocity": 112
    },
    {
        "track": 1,
        "absoluteTick": 183480,
        "noteNumber": 67,
        "velocity": 112
    },
    {
        "track": 2,
        "absoluteTick": 183480,
        "noteNumber": 63,
        "velocity": 112
    },
    {
        "track": 3,
        "absoluteTick": 183480,
        "noteNumber": 44,
        "velocity": 96
    },
    {
        "track": 0,
        "absoluteTick": 183600,
        "noteNumber": 79,
        "velocity": 112
    },
    {
        "track": 1,
        "absoluteTick": 183600,
        "noteNumber": 67,
        "velocity": 112
    },
    {
        "track": 2,
        "absoluteTick": 183600,
        "noteNumber": 63,
        "velocity": 112
    },
    {
        "track": 3,
        "absoluteTick": 183600,
        "noteNumber": 44,
        "velocity": 96
    },
    {
        "track": 4,
        "absoluteTick": 183600,
        "noteNumber": 32,
        "velocity": 96
    },
    {
        "track": 0,
        "absoluteTick": 183720,
        "noteNumber": 79,
        "velocity": 112
    },
    {
        "track": 1,
        "absoluteTick": 183720,
        "noteNumber": 67,
        "velocity": 112
    },
    {
        "track": 2,
        "absoluteTick": 183720,
        "noteNumber": 63,
        "velocity": 112
    },
    {
        "track": 3,
        "absoluteTick": 183720,
        "noteNumber": 44,
        "velocity": 96
    },
    {
        "track": 0,
        "absoluteTick": 183840,
        "noteNumber": 79,
        "velocity": 112
    },
    {
        "track": 1,
        "absoluteTick": 183840,
        "noteNumber": 67,
        "velocity": 112
    },
    {
        "track": 2,
        "absoluteTick": 183840,
        "noteNumber": 63,
        "velocity": 112
    },
    {
        "track": 3,
        "absoluteTick": 183840,
        "noteNumber": 44,
        "velocity": 96
    },
    {
        "track": 4,
        "absoluteTick": 183840,
        "noteNumber": 32,
        "velocity": 96
    },
    {
        "track": 0,
        "absoluteTick": 183960,
        "noteNumber": 79,
        "velocity": 112
    },
    {
        "track": 1,
        "absoluteTick": 183960,
        "noteNumber": 67,
        "velocity": 112
    },
    {
        "track": 2,
        "absoluteTick": 183960,
        "noteNumber": 63,
        "velocity": 112
    },
    {
        "track": 3,
        "absoluteTick": 183960,
        "noteNumber": 44,
        "velocity": 96
    },
    {
        "track": 0,
        "absoluteTick": 184080,
        "noteNumber": 79,
        "velocity": 127
    },
    {
        "track": 1,
        "absoluteTick": 184080,
        "noteNumber": 67,
        "velocity": 127
    },
    {
        "track": 2,
        "absoluteTick": 184080,
        "noteNumber": 64,
        "velocity": 127
    },
    {
        "track": 3,
        "absoluteTick": 184080,
        "noteNumber": 44,
        "velocity": 127
    },
    {
        "track": 4,
        "absoluteTick": 184080,
        "noteNumber": 32,
        "velocity": 127
    },
    {
        "track": 0,
        "absoluteTick": 184200,
        "noteNumber": 79,
        "velocity": 112
    },
    {
        "track": 1,
        "absoluteTick": 184200,
        "noteNumber": 67,
        "velocity": 112
    },
    {
        "track": 2,
        "absoluteTick": 184200,
        "noteNumber": 64,
        "velocity": 112
    },
    {
        "track": 3,
        "absoluteTick": 184200,
        "noteNumber": 44,
        "velocity": 96
    },
    {
        "track": 0,
        "absoluteTick": 184320,
        "noteNumber": 79,
        "velocity": 112
    },
    {
        "track": 1,
        "absoluteTick": 184320,
        "noteNumber": 67,
        "velocity": 112
    },
    {
        "track": 2,
        "absoluteTick": 184320,
        "noteNumber": 64,
        "velocity": 112
    },
    {
        "track": 3,
        "absoluteTick": 184320,
        "noteNumber": 44,
        "velocity": 96
    },
    {
        "track": 4,
        "absoluteTick": 184320,
        "noteNumber": 32,
        "velocity": 96
    },
    {
        "track": 0,
        "absoluteTick": 184440,
        "noteNumber": 79,
        "velocity": 112
    },
    {
        "track": 1,
        "absoluteTick": 184440,
        "noteNumber": 67,
        "velocity": 112
    },
    {
        "track": 2,
        "absoluteTick": 184440,
        "noteNumber": 64,
        "velocity": 112
    },
    {
        "track": 3,
        "absoluteTick": 184440,
        "noteNumber": 44,
        "velocity": 96
    },
    {
        "track": 0,
        "absoluteTick": 184560,
        "noteNumber": 79,
        "velocity": 112
    },
    {
        "track": 1,
        "absoluteTick": 184560,
        "noteNumber": 67,
        "velocity": 112
    },
    {
        "track": 2,
        "absoluteTick": 184560,
        "noteNumber": 64,
        "velocity": 112
    },
    {
        "track": 3,
        "absoluteTick": 184560,
        "noteNumber": 44,
        "velocity": 96
    },
    {
        "track": 4,
        "absoluteTick": 184560,
        "noteNumber": 32,
        "velocity": 96
    },
    {
        "track": 0,
        "absoluteTick": 184680,
        "noteNumber": 79,
        "velocity": 112
    },
    {
        "track": 1,
        "absoluteTick": 184680,
        "noteNumber": 67,
        "velocity": 112
    },
    {
        "track": 2,
        "absoluteTick": 184680,
        "noteNumber": 64,
        "velocity": 112
    },
    {
        "track": 3,
        "absoluteTick": 184680,
        "noteNumber": 44,
        "velocity": 96
    },
    {
        "track": 0,
        "absoluteTick": 184800,
        "noteNumber": 79,
        "velocity": 127
    },
    {
        "track": 1,
        "absoluteTick": 184800,
        "noteNumber": 67,
        "velocity": 127
    },
    {
        "track": 2,
        "absoluteTick": 184800,
        "noteNumber": 65,
        "velocity": 127
    },
    {
        "track": 3,
        "absoluteTick": 184800,
        "noteNumber": 44,
        "velocity": 127
    },
    {
        "track": 4,
        "absoluteTick": 184800,
        "noteNumber": 32,
        "velocity": 127
    },
    {
        "track": 0,
        "absoluteTick": 184920,
        "noteNumber": 79,
        "velocity": 112
    },
    {
        "track": 1,
        "absoluteTick": 184920,
        "noteNumber": 67,
        "velocity": 112
    },
    {
        "track": 2,
        "absoluteTick": 184920,
        "noteNumber": 65,
        "velocity": 112
    },
    {
        "track": 3,
        "absoluteTick": 184920,
        "noteNumber": 44,
        "velocity": 96
    },
    {
        "track": 0,
        "absoluteTick": 185040,
        "noteNumber": 79,
        "velocity": 112
    },
    {
        "track": 1,
        "absoluteTick": 185040,
        "noteNumber": 67,
        "velocity": 112
    },
    {
        "track": 2,
        "absoluteTick": 185040,
        "noteNumber": 65,
        "velocity": 112
    },
    {
        "track": 3,
        "absoluteTick": 185040,
        "noteNumber": 44,
        "velocity": 96
    },
    {
        "track": 4,
        "absoluteTick": 185040,
        "noteNumber": 32,
        "velocity": 96
    },
    {
        "track": 0,
        "absoluteTick": 185160,
        "noteNumber": 79,
        "velocity": 112
    },
    {
        "track": 1,
        "absoluteTick": 185160,
        "noteNumber": 67,
        "velocity": 112
    },
    {
        "track": 2,
        "absoluteTick": 185160,
        "noteNumber": 65,
        "velocity": 112
    },
    {
        "track": 3,
        "absoluteTick": 185160,
        "noteNumber": 44,
        "velocity": 96
    },
    {
        "track": 0,
        "absoluteTick": 185280,
        "noteNumber": 79,
        "velocity": 112
    },
    {
        "track": 1,
        "absoluteTick": 185280,
        "noteNumber": 67,
        "velocity": 112
    },
    {
        "track": 2,
        "absoluteTick": 185280,
        "noteNumber": 65,
        "velocity": 112
    },
    {
        "track": 3,
        "absoluteTick": 185280,
        "noteNumber": 44,
        "velocity": 96
    },
    {
        "track": 4,
        "absoluteTick": 185280,
        "noteNumber": 32,
        "velocity": 96
    },
    {
        "track": 0,
        "absoluteTick": 185400,
        "noteNumber": 79,
        "velocity": 112
    },
    {
        "track": 1,
        "absoluteTick": 185400,
        "noteNumber": 67,
        "velocity": 112
    },
    {
        "track": 2,
        "absoluteTick": 185400,
        "noteNumber": 65,
        "velocity": 112
    },
    {
        "track": 3,
        "absoluteTick": 185400,
        "noteNumber": 44,
        "velocity": 96
    },
    {
        "track": 0,
        "absoluteTick": 185520,
        "noteNumber": 79,
        "velocity": 127
    },
    {
        "track": 1,
        "absoluteTick": 185520,
        "noteNumber": 67,
        "velocity": 127
    },
    {
        "track": 2,
        "absoluteTick": 185520,
        "noteNumber": 66,
        "velocity": 127
    },
    {
        "track": 3,
        "absoluteTick": 185520,
        "noteNumber": 44,
        "velocity": 127
    },
    {
        "track": 4,
        "absoluteTick": 185520,
        "noteNumber": 32,
        "velocity": 127
    },
    {
        "track": 0,
        "absoluteTick": 185640,
        "noteNumber": 79,
        "velocity": 112
    },
    {
        "track": 1,
        "absoluteTick": 185640,
        "noteNumber": 67,
        "velocity": 112
    },
    {
        "track": 2,
        "absoluteTick": 185640,
        "noteNumber": 66,
        "velocity": 112
    },
    {
        "track": 3,
        "absoluteTick": 185640,
        "noteNumber": 44,
        "velocity": 96
    },
    {
        "track": 0,
        "absoluteTick": 185760,
        "noteNumber": 79,
        "velocity": 112
    },
    {
        "track": 1,
        "absoluteTick": 185760,
        "noteNumber": 67,
        "velocity": 112
    },
    {
        "track": 2,
        "absoluteTick": 185760,
        "noteNumber": 66,
        "velocity": 112
    },
    {
        "track": 3,
        "absoluteTick": 185760,
        "noteNumber": 44,
        "velocity": 96
    },
    {
        "track": 4,
        "absoluteTick": 185760,
        "noteNumber": 32,
        "velocity": 96
    },
    {
        "track": 0,
        "absoluteTick": 185880,
        "noteNumber": 79,
        "velocity": 112
    },
    {
        "track": 1,
        "absoluteTick": 185880,
        "noteNumber": 67,
        "velocity": 112
    },
    {
        "track": 2,
        "absoluteTick": 185880,
        "noteNumber": 66,
        "velocity": 112
    },
    {
        "track": 3,
        "absoluteTick": 185880,
        "noteNumber": 44,
        "velocity": 96
    },
    {
        "track": 0,
        "absoluteTick": 186000,
        "noteNumber": 79,
        "velocity": 112
    },
    {
        "track": 1,
        "absoluteTick": 186000,
        "noteNumber": 67,
        "velocity": 112
    },
    {
        "track": 2,
        "absoluteTick": 186000,
        "noteNumber": 66,
        "velocity": 112
    },
    {
        "track": 3,
        "absoluteTick": 186000,
        "noteNumber": 44,
        "velocity": 96
    },
    {
        "track": 4,
        "absoluteTick": 186000,
        "noteNumber": 32,
        "velocity": 96
    },
    {
        "track": 0,
        "absoluteTick": 186120,
        "noteNumber": 79,
        "velocity": 112
    },
    {
        "track": 1,
        "absoluteTick": 186120,
        "noteNumber": 67,
        "velocity": 112
    },
    {
        "track": 2,
        "absoluteTick": 186120,
        "noteNumber": 66,
        "velocity": 112
    },
    {
        "track": 3,
        "absoluteTick": 186120,
        "noteNumber": 44,
        "velocity": 96
    },
    {
        "track": 0,
        "absoluteTick": 186240,
        "noteNumber": 67,
        "velocity": 112
    },
    {
        "track": 1,
        "absoluteTick": 186240,
        "noteNumber": 79,
        "velocity": 112
    },
    {
        "track": 2,
        "absoluteTick": 186240,
        "noteNumber": 67,
        "velocity": 112
    },
    {
        "track": 3,
        "absoluteTick": 186240,
        "noteNumber": 55,
        "velocity": 96
    },
    {
        "track": 0,
        "absoluteTick": 186360,
        "noteNumber": 68,
        "velocity": 112
    },
    {
        "track": 1,
        "absoluteTick": 186360,
        "noteNumber": 78,
        "velocity": 112
    },
    {
        "track": 2,
        "absoluteTick": 186360,
        "noteNumber": 66,
        "velocity": 112
    },
    {
        "track": 3,
        "absoluteTick": 186360,
        "noteNumber": 54,
        "velocity": 96
    },
    {
        "track": 0,
        "absoluteTick": 186480,
        "noteNumber": 69,
        "velocity": 112
    },
    {
        "track": 1,
        "absoluteTick": 186480,
        "noteNumber": 77,
        "velocity": 112
    },
    {
        "track": 2,
        "absoluteTick": 186480,
        "noteNumber": 65,
        "velocity": 112
    },
    {
        "track": 3,
        "absoluteTick": 186480,
        "noteNumber": 53,
        "velocity": 96
    },
    {
        "track": 0,
        "absoluteTick": 186600,
        "noteNumber": 70,
        "velocity": 112
    },
    {
        "track": 1,
        "absoluteTick": 186600,
        "noteNumber": 76,
        "velocity": 112
    },
    {
        "track": 2,
        "absoluteTick": 186600,
        "noteNumber": 64,
        "velocity": 112
    },
    {
        "track": 3,
        "absoluteTick": 186600,
        "noteNumber": 52,
        "velocity": 96
    },
    {
        "track": 0,
        "absoluteTick": 186720,
        "noteNumber": 71,
        "velocity": 112
    },
    {
        "track": 1,
        "absoluteTick": 186720,
        "noteNumber": 75,
        "velocity": 112
    },
    {
        "track": 2,
        "absoluteTick": 186720,
        "noteNumber": 63,
        "velocity": 112
    },
    {
        "track": 3,
        "absoluteTick": 186720,
        "noteNumber": 51,
        "velocity": 96
    },
    {
        "track": 0,
        "absoluteTick": 186840,
        "noteNumber": 72,
        "velocity": 112
    },
    {
        "track": 1,
        "absoluteTick": 186840,
        "noteNumber": 74,
        "velocity": 112
    },
    {
        "track": 2,
        "absoluteTick": 186840,
        "noteNumber": 62,
        "velocity": 112
    },
    {
        "track": 3,
        "absoluteTick": 186840,
        "noteNumber": 50,
        "velocity": 96
    },
    {
        "track": 0,
        "absoluteTick": 186960,
        "noteNumber": 73,
        "velocity": 112
    },
    {
        "track": 1,
        "absoluteTick": 186960,
        "noteNumber": 73,
        "velocity": 112
    },
    {
        "track": 2,
        "absoluteTick": 186960,
        "noteNumber": 61,
        "velocity": 112
    },
    {
        "track": 3,
        "absoluteTick": 186960,
        "noteNumber": 49,
        "velocity": 96
    },
    {
        "track": 0,
        "absoluteTick": 187080,
        "noteNumber": 74,
        "velocity": 112
    },
    {
        "track": 1,
        "absoluteTick": 187080,
        "noteNumber": 72,
        "velocity": 112
    },
    {
        "track": 2,
        "absoluteTick": 187080,
        "noteNumber": 60,
        "velocity": 112
    },
    {
        "track": 3,
        "absoluteTick": 187080,
        "noteNumber": 48,
        "velocity": 96
    },
    {
        "track": 0,
        "absoluteTick": 187200,
        "noteNumber": 75,
        "velocity": 112
    },
    {
        "track": 1,
        "absoluteTick": 187200,
        "noteNumber": 71,
        "velocity": 112
    },
    {
        "track": 2,
        "absoluteTick": 187200,
        "noteNumber": 65,
        "velocity": 112
    },
    {
        "track": 3,
        "absoluteTick": 187200,
        "noteNumber": 53,
        "velocity": 96
    },
    {
        "track": 0,
        "absoluteTick": 187320,
        "noteNumber": 76,
        "velocity": 112
    },
    {
        "track": 1,
        "absoluteTick": 187320,
        "noteNumber": 70,
        "velocity": 112
    },
    {
        "track": 2,
        "absoluteTick": 187320,
        "noteNumber": 64,
        "velocity": 112
    },
    {
        "track": 3,
        "absoluteTick": 187320,
        "noteNumber": 52,
        "velocity": 96
    },
    {
        "track": 0,
        "absoluteTick": 187440,
        "noteNumber": 77,
        "velocity": 112
    },
    {
        "track": 1,
        "absoluteTick": 187440,
        "noteNumber": 69,
        "velocity": 112
    },
    {
        "track": 2,
        "absoluteTick": 187440,
        "noteNumber": 63,
        "velocity": 112
    },
    {
        "track": 3,
        "absoluteTick": 187440,
        "noteNumber": 51,
        "velocity": 96
    },
    {
        "track": 0,
        "absoluteTick": 187560,
        "noteNumber": 78,
        "velocity": 112
    },
    {
        "track": 1,
        "absoluteTick": 187560,
        "noteNumber": 68,
        "velocity": 112
    },
    {
        "track": 2,
        "absoluteTick": 187560,
        "noteNumber": 62,
        "velocity": 112
    },
    {
        "track": 3,
        "absoluteTick": 187560,
        "noteNumber": 50,
        "velocity": 96
    },
    {
        "track": 0,
        "absoluteTick": 187680,
        "noteNumber": 79,
        "velocity": 112
    },
    {
        "track": 1,
        "absoluteTick": 187680,
        "noteNumber": 67,
        "velocity": 112
    },
    {
        "track": 2,
        "absoluteTick": 187680,
        "noteNumber": 61,
        "velocity": 112
    },
    {
        "track": 3,
        "absoluteTick": 187680,
        "noteNumber": 49,
        "velocity": 96
    },
    {
        "track": 0,
        "absoluteTick": 187800,
        "noteNumber": 80,
        "velocity": 112
    },
    {
        "track": 1,
        "absoluteTick": 187800,
        "noteNumber": 68,
        "velocity": 112
    },
    {
        "track": 2,
        "absoluteTick": 187800,
        "noteNumber": 60,
        "velocity": 112
    },
    {
        "track": 3,
        "absoluteTick": 187800,
        "noteNumber": 48,
        "velocity": 96
    },
    {
        "track": 0,
        "absoluteTick": 187920,
        "noteNumber": 81,
        "velocity": 112
    },
    {
        "track": 1,
        "absoluteTick": 187920,
        "noteNumber": 69,
        "velocity": 112
    },
    {
        "track": 2,
        "absoluteTick": 187920,
        "noteNumber": 59,
        "velocity": 112
    },
    {
        "track": 3,
        "absoluteTick": 187920,
        "noteNumber": 47,
        "velocity": 96
    },
    {
        "track": 0,
        "absoluteTick": 188040,
        "noteNumber": 82,
        "velocity": 112
    },
    {
        "track": 1,
        "absoluteTick": 188040,
        "noteNumber": 70,
        "velocity": 112
    },
    {
        "track": 2,
        "absoluteTick": 188040,
        "noteNumber": 58,
        "velocity": 112
    },
    {
        "track": 3,
        "absoluteTick": 188040,
        "noteNumber": 46,
        "velocity": 96
    },
    {
        "track": 0,
        "absoluteTick": 188160,
        "noteNumber": 83,
        "velocity": 112
    },
    {
        "track": 1,
        "absoluteTick": 188160,
        "noteNumber": 71,
        "velocity": 112
    },
    {
        "track": 2,
        "absoluteTick": 188160,
        "noteNumber": 63,
        "velocity": 112
    },
    {
        "track": 3,
        "absoluteTick": 188160,
        "noteNumber": 51,
        "velocity": 96
    },
    {
        "track": 0,
        "absoluteTick": 188280,
        "noteNumber": 84,
        "velocity": 112
    },
    {
        "track": 1,
        "absoluteTick": 188280,
        "noteNumber": 72,
        "velocity": 112
    },
    {
        "track": 2,
        "absoluteTick": 188280,
        "noteNumber": 62,
        "velocity": 112
    },
    {
        "track": 3,
        "absoluteTick": 188280,
        "noteNumber": 50,
        "velocity": 96
    },
    {
        "track": 0,
        "absoluteTick": 188400,
        "noteNumber": 85,
        "velocity": 112
    },
    {
        "track": 1,
        "absoluteTick": 188400,
        "noteNumber": 73,
        "velocity": 112
    },
    {
        "track": 2,
        "absoluteTick": 188400,
        "noteNumber": 61,
        "velocity": 112
    },
    {
        "track": 3,
        "absoluteTick": 188400,
        "noteNumber": 49,
        "velocity": 96
    },
    {
        "track": 0,
        "absoluteTick": 188520,
        "noteNumber": 86,
        "velocity": 112
    },
    {
        "track": 1,
        "absoluteTick": 188520,
        "noteNumber": 74,
        "velocity": 112
    },
    {
        "track": 2,
        "absoluteTick": 188520,
        "noteNumber": 60,
        "velocity": 112
    },
    {
        "track": 3,
        "absoluteTick": 188520,
        "noteNumber": 48,
        "velocity": 96
    },
    {
        "track": 0,
        "absoluteTick": 188640,
        "noteNumber": 87,
        "velocity": 112
    },
    {
        "track": 1,
        "absoluteTick": 188640,
        "noteNumber": 75,
        "velocity": 112
    },
    {
        "track": 2,
        "absoluteTick": 188640,
        "noteNumber": 59,
        "velocity": 112
    },
    {
        "track": 3,
        "absoluteTick": 188640,
        "noteNumber": 47,
        "velocity": 96
    },
    {
        "track": 0,
        "absoluteTick": 188760,
        "noteNumber": 88,
        "velocity": 112
    },
    {
        "track": 1,
        "absoluteTick": 188760,
        "noteNumber": 76,
        "velocity": 112
    },
    {
        "track": 2,
        "absoluteTick": 188760,
        "noteNumber": 58,
        "velocity": 112
    },
    {
        "track": 3,
        "absoluteTick": 188760,
        "noteNumber": 46,
        "velocity": 96
    },
    {
        "track": 0,
        "absoluteTick": 188880,
        "noteNumber": 89,
        "velocity": 112
    },
    {
        "track": 1,
        "absoluteTick": 188880,
        "noteNumber": 77,
        "velocity": 112
    },
    {
        "track": 2,
        "absoluteTick": 188880,
        "noteNumber": 57,
        "velocity": 112
    },
    {
        "track": 3,
        "absoluteTick": 188880,
        "noteNumber": 45,
        "velocity": 96
    },
    {
        "track": 0,
        "absoluteTick": 189000,
        "noteNumber": 90,
        "velocity": 112
    },
    {
        "track": 1,
        "absoluteTick": 189000,
        "noteNumber": 78,
        "velocity": 112
    },
    {
        "track": 2,
        "absoluteTick": 189000,
        "noteNumber": 56,
        "velocity": 112
    },
    {
        "track": 3,
        "absoluteTick": 189000,
        "noteNumber": 44,
        "velocity": 96
    },
    {
        "track": 0,
        "absoluteTick": 189120,
        "noteNumber": 91,
        "velocity": 112
    },
    {
        "track": 1,
        "absoluteTick": 189120,
        "noteNumber": 74,
        "velocity": 127
    },
    {
        "track": 2,
        "absoluteTick": 189120,
        "noteNumber": 62,
        "velocity": 112
    },
    {
        "track": 3,
        "absoluteTick": 189120,
        "noteNumber": 55,
        "velocity": 112
    },
    {
        "track": 4,
        "absoluteTick": 189120,
        "noteNumber": 43,
        "velocity": 112
    },
    {
        "track": 0,
        "absoluteTick": 189360,
        "noteNumber": 91,
        "velocity": 112
    },
    {
        "track": 1,
        "absoluteTick": 189360,
        "noteNumber": 74,
        "velocity": 112
    },
    {
        "track": 2,
        "absoluteTick": 189360,
        "noteNumber": 62,
        "velocity": 112
    },
    {
        "track": 3,
        "absoluteTick": 189360,
        "noteNumber": 55,
        "velocity": 112
    },
    {
        "track": 4,
        "absoluteTick": 189360,
        "noteNumber": 43,
        "velocity": 112
    },
    {
        "track": 0,
        "absoluteTick": 189840,
        "noteNumber": 91,
        "velocity": 112
    },
    {
        "track": 1,
        "absoluteTick": 189840,
        "noteNumber": 75,
        "velocity": 127
    },
    {
        "track": 2,
        "absoluteTick": 189840,
        "noteNumber": 63,
        "velocity": 112
    },
    {
        "track": 3,
        "absoluteTick": 189840,
        "noteNumber": 55,
        "velocity": 112
    },
    {
        "track": 4,
        "absoluteTick": 189840,
        "noteNumber": 43,
        "velocity": 112
    },
    {
        "track": 0,
        "absoluteTick": 190080,
        "noteNumber": 91,
        "velocity": 112
    },
    {
        "track": 1,
        "absoluteTick": 190080,
        "noteNumber": 75,
        "velocity": 112
    },
    {
        "track": 2,
        "absoluteTick": 190080,
        "noteNumber": 63,
        "velocity": 112
    },
    {
        "track": 3,
        "absoluteTick": 190080,
        "noteNumber": 55,
        "velocity": 112
    },
    {
        "track": 4,
        "absoluteTick": 190080,
        "noteNumber": 43,
        "velocity": 112
    },
    {
        "track": 0,
        "absoluteTick": 190560,
        "noteNumber": 91,
        "velocity": 112
    },
    {
        "track": 1,
        "absoluteTick": 190560,
        "noteNumber": 77,
        "velocity": 127
    },
    {
        "track": 2,
        "absoluteTick": 190560,
        "noteNumber": 65,
        "velocity": 112
    },
    {
        "track": 3,
        "absoluteTick": 190560,
        "noteNumber": 55,
        "velocity": 112
    },
    {
        "track": 4,
        "absoluteTick": 190560,
        "noteNumber": 43,
        "velocity": 112
    },
    {
        "track": 0,
        "absoluteTick": 190800,
        "noteNumber": 91,
        "velocity": 112
    },
    {
        "track": 1,
        "absoluteTick": 190800,
        "noteNumber": 77,
        "velocity": 112
    },
    {
        "track": 2,
        "absoluteTick": 190800,
        "noteNumber": 65,
        "velocity": 112
    },
    {
        "track": 3,
        "absoluteTick": 190800,
        "noteNumber": 55,
        "velocity": 112
    },
    {
        "track": 4,
        "absoluteTick": 190800,
        "noteNumber": 43,
        "velocity": 112
    },
    {
        "track": 0,
        "absoluteTick": 191280,
        "noteNumber": 91,
        "velocity": 112
    },
    {
        "track": 1,
        "absoluteTick": 191280,
        "noteNumber": 78,
        "velocity": 127
    },
    {
        "track": 2,
        "absoluteTick": 191280,
        "noteNumber": 66,
        "velocity": 112
    },
    {
        "track": 3,
        "absoluteTick": 191280,
        "noteNumber": 55,
        "velocity": 112
    },
    {
        "track": 4,
        "absoluteTick": 191280,
        "noteNumber": 43,
        "velocity": 112
    },
    {
        "track": 0,
        "absoluteTick": 191520,
        "noteNumber": 91,
        "velocity": 112
    },
    {
        "track": 1,
        "absoluteTick": 191520,
        "noteNumber": 78,
        "velocity": 112
    },
    {
        "track": 2,
        "absoluteTick": 191520,
        "noteNumber": 66,
        "velocity": 112
    },
    {
        "track": 3,
        "absoluteTick": 191520,
        "noteNumber": 55,
        "velocity": 112
    },
    {
        "track": 4,
        "absoluteTick": 191520,
        "noteNumber": 43,
        "velocity": 112
    },
    {
        "track": 0,
        "absoluteTick": 192000,
        "noteNumber": 82,
        "velocity": 127
    },
    {
        "track": 0,
        "absoluteTick": 192000,
        "noteNumber": 91,
        "velocity": 127
    },
    {
        "track": 1,
        "absoluteTick": 192000,
        "noteNumber": 62,
        "velocity": 127
    },
    {
        "track": 1,
        "absoluteTick": 192000,
        "noteNumber": 70,
        "velocity": 127
    },
    {
        "track": 1,
        "absoluteTick": 192000,
        "noteNumber": 79,
        "velocity": 127
    },
    {
        "track": 2,
        "absoluteTick": 192000,
        "noteNumber": 55,
        "velocity": 127
    },
    {
        "track": 2,
        "absoluteTick": 192000,
        "noteNumber": 62,
        "velocity": 127
    },
    {
        "track": 2,
        "absoluteTick": 192000,
        "noteNumber": 70,
        "velocity": 127
    },
    {
        "track": 3,
        "absoluteTick": 192000,
        "noteNumber": 43,
        "velocity": 127
    },
    {
        "track": 3,
        "absoluteTick": 192000,
        "noteNumber": 50,
        "velocity": 127
    },
    {
        "track": 3,
        "absoluteTick": 192000,
        "noteNumber": 58,
        "velocity": 127
    },
    {
        "track": 4,
        "absoluteTick": 192000,
        "noteNumber": 34,
        "velocity": 127
    },
    {
        "track": 4,
        "absoluteTick": 192000,
        "noteNumber": 38,
        "velocity": 127
    },
    {
        "track": 4,
        "absoluteTick": 192000,
        "noteNumber": 43,
        "velocity": 127
    },
    {
        "track": 0,
        "absoluteTick": 192720,
        "noteNumber": 82,
        "velocity": 127
    },
    {
        "track": 0,
        "absoluteTick": 192720,
        "noteNumber": 91,
        "velocity": 127
    },
    {
        "track": 1,
        "absoluteTick": 192720,
        "noteNumber": 62,
        "velocity": 127
    },
    {
        "track": 1,
        "absoluteTick": 192720,
        "noteNumber": 70,
        "velocity": 127
    },
    {
        "track": 1,
        "absoluteTick": 192720,
        "noteNumber": 79,
        "velocity": 127
    },
    {
        "track": 2,
        "absoluteTick": 192720,
        "noteNumber": 55,
        "velocity": 127
    },
    {
        "track": 2,
        "absoluteTick": 192720,
        "noteNumber": 62,
        "velocity": 127
    },
    {
        "track": 2,
        "absoluteTick": 192720,
        "noteNumber": 70,
        "velocity": 127
    },
    {
        "track": 3,
        "absoluteTick": 192720,
        "noteNumber": 43,
        "velocity": 127
    },
    {
        "track": 3,
        "absoluteTick": 192720,
        "noteNumber": 50,
        "velocity": 127
    },
    {
        "track": 3,
        "absoluteTick": 192720,
        "noteNumber": 58,
        "velocity": 127
    },
    {
        "track": 4,
        "absoluteTick": 192720,
        "noteNumber": 34,
        "velocity": 127
    },
    {
        "track": 4,
        "absoluteTick": 192720,
        "noteNumber": 38,
        "velocity": 127
    },
    {
        "track": 4,
        "absoluteTick": 192720,
        "noteNumber": 43,
        "velocity": 127
    },
    {
        "track": 0,
        "absoluteTick": 193440,
        "noteNumber": 82,
        "velocity": 127
    },
    {
        "track": 0,
        "absoluteTick": 193440,
        "noteNumber": 91,
        "velocity": 127
    },
    {
        "track": 1,
        "absoluteTick": 193440,
        "noteNumber": 62,
        "velocity": 127
    },
    {
        "track": 1,
        "absoluteTick": 193440,
        "noteNumber": 70,
        "velocity": 127
    },
    {
        "track": 1,
        "absoluteTick": 193440,
        "noteNumber": 79,
        "velocity": 127
    },
    {
        "track": 2,
        "absoluteTick": 193440,
        "noteNumber": 55,
        "velocity": 127
    },
    {
        "track": 2,
        "absoluteTick": 193440,
        "noteNumber": 62,
        "velocity": 127
    },
    {
        "track": 2,
        "absoluteTick": 193440,
        "noteNumber": 70,
        "velocity": 127
    },
    {
        "track": 3,
        "absoluteTick": 193440,
        "noteNumber": 43,
        "velocity": 127
    },
    {
        "track": 3,
        "absoluteTick": 193440,
        "noteNumber": 50,
        "velocity": 127
    },
    {
        "track": 3,
        "absoluteTick": 193440,
        "noteNumber": 58,
        "velocity": 127
    },
    {
        "track": 4,
        "absoluteTick": 193440,
        "noteNumber": 34,
        "velocity": 127
    },
    {
        "track": 4,
        "absoluteTick": 193440,
        "noteNumber": 38,
        "velocity": 127
    },
    {
        "track": 4,
        "absoluteTick": 193440,
        "noteNumber": 43,
        "velocity": 127
    },
    {
        "track": 0,
        "absoluteTick": 193920,
        "noteNumber": 82,
        "velocity": 127
    },
    {
        "track": 0,
        "absoluteTick": 193920,
        "noteNumber": 91,
        "velocity": 127
    },
    {
        "track": 1,
        "absoluteTick": 193920,
        "noteNumber": 62,
        "velocity": 127
    },
    {
        "track": 1,
        "absoluteTick": 193920,
        "noteNumber": 70,
        "velocity": 127
    },
    {
        "track": 1,
        "absoluteTick": 193920,
        "noteNumber": 79,
        "velocity": 127
    },
    {
        "track": 2,
        "absoluteTick": 193920,
        "noteNumber": 55,
        "velocity": 127
    },
    {
        "track": 2,
        "absoluteTick": 193920,
        "noteNumber": 62,
        "velocity": 127
    },
    {
        "track": 2,
        "absoluteTick": 193920,
        "noteNumber": 70,
        "velocity": 127
    },
    {
        "track": 3,
        "absoluteTick": 193920,
        "noteNumber": 43,
        "velocity": 127
    },
    {
        "track": 3,
        "absoluteTick": 193920,
        "noteNumber": 50,
        "velocity": 127
    },
    {
        "track": 3,
        "absoluteTick": 193920,
        "noteNumber": 58,
        "velocity": 127
    },
    {
        "track": 4,
        "absoluteTick": 193920,
        "noteNumber": 34,
        "velocity": 127
    },
    {
        "track": 4,
        "absoluteTick": 193920,
        "noteNumber": 38,
        "velocity": 127
    },
    {
        "track": 4,
        "absoluteTick": 193920,
        "noteNumber": 43,
        "velocity": 127
    },
    {
        "track": 0,
        "absoluteTick": 194400,
        "noteNumber": 82,
        "velocity": 127
    },
    {
        "track": 0,
        "absoluteTick": 194400,
        "noteNumber": 91,
        "velocity": 127
    },
    {
        "track": 1,
        "absoluteTick": 194400,
        "noteNumber": 62,
        "velocity": 127
    },
    {
        "track": 1,
        "absoluteTick": 194400,
        "noteNumber": 70,
        "velocity": 127
    },
    {
        "track": 1,
        "absoluteTick": 194400,
        "noteNumber": 79,
        "velocity": 127
    },
    {
        "track": 2,
        "absoluteTick": 194400,
        "noteNumber": 55,
        "velocity": 127
    },
    {
        "track": 2,
        "absoluteTick": 194400,
        "noteNumber": 62,
        "velocity": 127
    },
    {
        "track": 2,
        "absoluteTick": 194400,
        "noteNumber": 70,
        "velocity": 127
    },
    {
        "track": 3,
        "absoluteTick": 194400,
        "noteNumber": 43,
        "velocity": 127
    },
    {
        "track": 3,
        "absoluteTick": 194400,
        "noteNumber": 50,
        "velocity": 127
    },
    {
        "track": 3,
        "absoluteTick": 194400,
        "noteNumber": 58,
        "velocity": 127
    },
    {
        "track": 4,
        "absoluteTick": 194400,
        "noteNumber": 34,
        "velocity": 127
    },
    {
        "track": 4,
        "absoluteTick": 194400,
        "noteNumber": 38,
        "velocity": 127
    },
    {
        "track": 4,
        "absoluteTick": 194400,
        "noteNumber": 43,
        "velocity": 127
    }
]