=== REPORTE Toby Fox - Battle Against a True Hero ===
---------------------------------------------
>>> PARAMETROS <<<
---------------------------------------------
>>> RESUMEN DE NOTAS <<<
total de notas       : 1547
rango de tessitura  : 34 to 92
duracion en ticks  : 153600
polifonia  : 430 (ticks con notas sobrepuestas)
densidad ritmica  : 4.83 notas por beat
---------------------------------------------
>>> datos adicionales <<<
[
    {
        "track": 0,
        "absoluteTick": 0,
        "noteNumber": 87,
        "velocity": 80
    },
    {
        "track": 0,
        "absoluteTick": 120,
        "noteNumber": 87,
        "velocity": 80
    },
    {
        "track": 0,
        "absoluteTick": 360,
        "noteNumber": 89,
        "velocity": 80
    },
    {
        "track": 0,
        "absoluteTick": 480,
        "noteNumber": 89,
        "velocity": 80
    },
    {
        "track": 0,
        "absoluteTick": 720,
        "noteNumber": 82,
        "velocity": 80
    },
    {
        "track": 0,
        "absoluteTick": 840,
        "noteNumber": 82,
        "velocity": 80
    },
    {
        "track": 0,
        "absoluteTick": 1080,
        "noteNumber": 84,
        "velocity": 80
    },
    {
        "track": 0,
        "absoluteTick": 1200,
        "noteNumber": 84,
        "velocity": 80
    },
    {
        "track": 0,
        "absoluteTick": 1440,
        "noteNumber": 80,
        "velocity": 80
    },
    {
        "track": 0,
        "absoluteTick": 1680,
        "noteNumber": 77,
        "velocity": 80
    },
    {
        "track": 0,
        "absoluteTick": 1920,
        "noteNumber": 85,
        "velocity": 80
    },
    {
        "track": 0,
        "absoluteTick": 2040,
        "noteNumber": 85,
        "velocity": 80
    },
    {
        "track": 0,
        "absoluteTick": 2280,
        "noteNumber": 80,
        "velocity": 80
    },
    {
        "track": 0,
        "absoluteTick": 2400,
        "noteNumber": 80,
        "velocity": 80
    },
    {
        "track": 0,
        "absoluteTick": 2640,
        "noteNumber": 87,
        "velocity": 80
    },
    {
        "track": 0,
        "absoluteTick": 2760,
        "noteNumber": 87,
        "velocity": 80
    },
    {
        "track": 0,
        "absoluteTick": 3000,
        "noteNumber": 80,
        "velocity": 80
    },
    {
        "track": 0,
        "absoluteTick": 3120,
        "noteNumber": 80,
        "velocity": 80
    },
    {
        "track": 0,
        "absoluteTick": 3360,
        "noteNumber": 79,
        "velocity": 80
    },
    {
        "track": 0,
        "absoluteTick": 3600,
        "noteNumber": 75,
        "velocity": 80
    },
    {
        "track": 0,
        "absoluteTick": 3840,
        "noteNumber": 87,
        "velocity": 80
    },
    {
        "track": 0,
        "absoluteTick": 3960,
        "noteNumber": 87,
        "velocity": 80
    },
    {
        "track": 0,
        "absoluteTick": 4200,
        "noteNumber": 89,
        "velocity": 80
    },
    {
        "track": 0,
        "absoluteTick": 4320,
        "noteNumber": 89,
        "velocity": 80
    },
    {
        "track": 0,
        "absoluteTick": 4560,
        "noteNumber": 82,
        "velocity": 80
    },
    {
        "track": 0,
        "absoluteTick": 4680,
        "noteNumber": 82,
        "velocity": 80
    },
    {
        "track": 0,
        "absoluteTick": 4920,
        "noteNumber": 84,
        "velocity": 80
    },
    {
        "track": 0,
        "absoluteTick": 5040,
        "noteNumber": 84,
        "velocity": 80
    },
    {
        "track": 0,
        "absoluteTick": 5280,
        "noteNumber": 80,
        "velocity": 80
    },
    {
        "track": 0,
        "absoluteTick": 5520,
        "noteNumber": 77,
        "velocity": 80
    },
    {
        "track": 0,
        "absoluteTick": 5760,
        "noteNumber": 85,
        "velocity": 80
    },
    {
        "track": 0,
        "absoluteTick": 5880,
        "noteNumber": 85,
        "velocity": 80
    },
    {
        "track": 0,
        "absoluteTick": 6120,
        "noteNumber": 80,
        "velocity": 80
    },
    {
        "track": 0,
        "absoluteTick": 6240,
        "noteNumber": 80,
        "velocity": 80
    },
    {
        "track": 0,
        "absoluteTick": 6480,
        "noteNumber": 87,
        "velocity": 80
    },
    {
        "track": 0,
        "absoluteTick": 6600,
        "noteNumber": 87,
        "velocity": 80
    },
    {
        "track": 0,
        "absoluteTick": 6840,
        "noteNumber": 92,
        "velocity": 80
    },
    {
        "track": 0,
        "absoluteTick": 6960,
        "noteNumber": 92,
        "velocity": 80
    },
    {
        "track": 0,
        "absoluteTick": 7200,
        "noteNumber": 91,
        "velocity": 80
    },
    {
        "track": 0,
        "absoluteTick": 7320,
        "noteNumber": 91,
        "velocity": 80
    },
    {
        "track": 0,
        "absoluteTick": 7680,
        "noteNumber": 87,
        "velocity": 80
    },
    {
        "track": 1,
        "absoluteTick": 7680,
        "noteNumber": 41,
        "velocity": 80
    },
    {
        "track": 1,
        "absoluteTick": 7680,
        "noteNumber": 48,
        "velocity": 80
    },
    {
        "track": 1,
        "absoluteTick": 7680,
        "noteNumber": 53,
        "velocity": 80
    },
    {
        "track": 1,
        "absoluteTick": 7680,
        "noteNumber": 65,
        "velocity": 80
    },
    {
        "track": 0,
        "absoluteTick": 7800,
        "noteNumber": 87,
        "velocity": 80
    },
    {
        "track": 0,
        "absoluteTick": 8040,
        "noteNumber": 89,
        "velocity": 80
    },
    {
        "track": 0,
        "absoluteTick": 8160,
        "noteNumber": 89,
        "velocity": 80
    },
    {
        "track": 0,
        "absoluteTick": 8400,
        "noteNumber": 82,
        "velocity": 80
    },
    {
        "track": 0,
        "absoluteTick": 8520,
        "noteNumber": 82,
        "velocity": 80
    },
    {
        "track": 0,
        "absoluteTick": 8760,
        "noteNumber": 84,
        "velocity": 80
    },
    {
        "track": 0,
        "absoluteTick": 8880,
        "noteNumber": 84,
        "velocity": 80
    },
    {
        "track": 0,
        "absoluteTick": 9120,
        "noteNumber": 80,
        "velocity": 80
    },
    {
        "track": 0,
        "absoluteTick": 9360,
        "noteNumber": 77,
        "velocity": 80
    },
    {
        "track": 0,
        "absoluteTick": 9600,
        "noteNumber": 85,
        "velocity": 80
    },
    {
        "track": 1,
        "absoluteTick": 9600,
        "noteNumber": 41,
        "velocity": 80
    },
    {
        "track": 0,
        "absoluteTick": 9720,
        "noteNumber": 85,
        "velocity": 80
    },
    {
        "track": 0,
        "absoluteTick": 9960,
        "noteNumber": 80,
        "velocity": 80
    },
    {
        "track": 0,
        "absoluteTick": 10080,
        "noteNumber": 80,
        "velocity": 80
    },
    {
        "track": 0,
        "absoluteTick": 10320,
        "noteNumber": 87,
        "velocity": 80
    },
    {
        "track": 0,
        "absoluteTick": 10440,
        "noteNumber": 87,
        "velocity": 80
    },
    {
        "track": 0,
        "absoluteTick": 10680,
        "noteNumber": 80,
        "velocity": 80
    },
    {
        "track": 0,
        "absoluteTick": 10800,
        "noteNumber": 80,
        "velocity": 80
    },
    {
        "track": 0,
        "absoluteTick": 11040,
        "noteNumber": 79,
        "velocity": 80
    },
    {
        "track": 1,
        "absoluteTick": 11040,
        "noteNumber": 39,
        "velocity": 80
    },
    {
        "track": 0,
        "absoluteTick": 11280,
        "noteNumber": 75,
        "velocity": 80
    },
    {
        "track": 0,
        "absoluteTick": 11520,
        "noteNumber": 87,
        "velocity": 80
    },
    {
        "track": 1,
        "absoluteTick": 11520,
        "noteNumber": 41,
        "velocity": 80
    },
    {
        "track": 1,
        "absoluteTick": 11520,
        "noteNumber": 48,
        "velocity": 80
    },
    {
        "track": 1,
        "absoluteTick": 11520,
        "noteNumber": 53,
        "velocity": 80
    },
    {
        "track": 1,
        "absoluteTick": 11520,
        "noteNumber": 65,
        "velocity": 80
    },
    {
        "track": 0,
        "absoluteTick": 11640,
        "noteNumber": 87,
        "velocity": 80
    },
    {
        "track": 0,
        "absoluteTick": 11880,
        "noteNumber": 89,
        "velocity": 80
    },
    {
        "track": 0,
        "absoluteTick": 12000,
        "noteNumber": 89,
        "velocity": 80
    },
    {
        "track": 0,
        "absoluteTick": 12240,
        "noteNumber": 82,
        "velocity": 80
    },
    {
        "track": 0,
        "absoluteTick": 12360,
        "noteNumber": 82,
        "velocity": 80
    },
    {
        "track": 0,
        "absoluteTick": 12600,
        "noteNumber": 84,
        "velocity": 80
    },
    {
        "track": 0,
        "absoluteTick": 12720,
        "noteNumber": 84,
        "velocity": 80
    },
    {
        "track": 0,
        "absoluteTick": 12960,
        "noteNumber": 80,
        "velocity": 80
    },
    {
        "track": 0,
        "absoluteTick": 13200,
        "noteNumber": 77,
        "velocity": 80
    },
    {
        "track": 0,
        "absoluteTick": 13440,
        "noteNumber": 85,
        "velocity": 80
    },
    {
        "track": 1,
        "absoluteTick": 13440,
        "noteNumber": 41,
        "velocity": 80
    },
    {
        "track": 0,
        "absoluteTick": 13560,
        "noteNumber": 85,
        "velocity": 80
    },
    {
        "track": 0,
        "absoluteTick": 13800,
        "noteNumber": 80,
        "velocity": 80
    },
    {
        "track": 0,
        "absoluteTick": 13920,
        "noteNumber": 80,
        "velocity": 80
    },
    {
        "track": 0,
        "absoluteTick": 14160,
        "noteNumber": 87,
        "velocity": 80
    },
    {
        "track": 0,
        "absoluteTick": 14280,
        "noteNumber": 87,
        "velocity": 80
    },
    {
        "track": 0,
        "absoluteTick": 14520,
        "noteNumber": 92,
        "velocity": 80
    },
    {
        "track": 0,
        "absoluteTick": 14640,
        "noteNumber": 92,
        "velocity": 80
    },
    {
        "track": 0,
        "absoluteTick": 14880,
        "noteNumber": 91,
        "velocity": 80
    },
    {
        "track": 1,
        "absoluteTick": 14880,
        "noteNumber": 34,
        "velocity": 80
    },
    {
        "track": 0,
        "absoluteTick": 15000,
        "noteNumber": 91,
        "velocity": 80
    },
    {
        "track": 1,
        "absoluteTick": 15000,
        "noteNumber": 36,
        "velocity": 80
    },
    {
        "track": 1,
        "absoluteTick": 15120,
        "noteNumber": 37,
        "velocity": 80
    },
    {
        "track": 1,
        "absoluteTick": 15240,
        "noteNumber": 39,
        "velocity": 80
    },
    {
        "track": 0,
        "absoluteTick": 15360,
        "noteNumber": 87,
        "velocity": 80
    },
    {
        "track": 1,
        "absoluteTick": 15360,
        "noteNumber": 41,
        "velocity": 80
    },
    {
        "track": 1,
        "absoluteTick": 15360,
        "noteNumber": 48,
        "velocity": 80
    },
    {
        "track": 1,
        "absoluteTick": 15360,
        "noteNumber": 53,
        "velocity": 80
    },
    {
        "track": 1,
        "absoluteTick": 15360,
        "noteNumber": 65,
        "velocity": 80
    },
    {
        "track": 0,
        "absoluteTick": 15480,
        "noteNumber": 87,
        "velocity": 80
    },
    {
        "track": 0,
        "absoluteTick": 15720,
        "noteNumber": 89,
        "velocity": 80
    },
    {
        "track": 0,
        "absoluteTick": 15840,
        "noteNumber": 89,
        "velocity": 80
    },
    {
        "track": 0,
        "absoluteTick": 16080,
        "noteNumber": 82,
        "velocity": 80
    },
    {
        "track": 0,
        "absoluteTick": 16200,
        "noteNumber": 82,
        "velocity": 80
    },
    {
        "track": 0,
        "absoluteTick": 16440,
        "noteNumber": 84,
        "velocity": 80
    },
    {
        "track": 0,
        "absoluteTick": 16560,
        "noteNumber": 84,
        "velocity": 80
    },
    {
        "track": 0,
        "absoluteTick": 16800,
        "noteNumber": 80,
        "velocity": 80
    },
    {
        "track": 0,
        "absoluteTick": 17040,
        "noteNumber": 77,
        "velocity": 80
    },
    {
        "track": 0,
        "absoluteTick": 17280,
        "noteNumber": 85,
        "velocity": 80
    },
    {
        "track": 1,
        "absoluteTick": 17280,
        "noteNumber": 41,
        "velocity": 80
    },
    {
        "track": 0,
        "absoluteTick": 17400,
        "noteNumber": 85,
        "velocity": 80
    },
    {
        "track": 0,
        "absoluteTick": 17640,
        "noteNumber": 80,
        "velocity": 80
    },
    {
        "track": 0,
        "absoluteTick": 17760,
        "noteNumber": 80,
        "velocity": 80
    },
    {
        "track": 0,
        "absoluteTick": 18000,
        "noteNumber": 87,
        "velocity": 80
    },
    {
        "track": 0,
        "absoluteTick": 18120,
        "noteNumber": 87,
        "velocity": 80
    },
    {
        "track": 0,
        "absoluteTick": 18360,
        "noteNumber": 80,
        "velocity": 80
    },
    {
        "track": 0,
        "absoluteTick": 18480,
        "noteNumber": 80,
        "velocity": 80
    },
    {
        "track": 0,
        "absoluteTick": 18720,
        "noteNumber": 79,
        "velocity": 80
    },
    {
        "track": 1,
        "absoluteTick": 18720,
        "noteNumber": 39,
        "velocity": 80
    },
    {
        "track": 0,
        "absoluteTick": 18960,
        "noteNumber": 75,
        "velocity": 80
    },
    {
        "track": 0,
        "absoluteTick": 19200,
        "noteNumber": 87,
        "velocity": 80
    },
    {
        "track": 1,
        "absoluteTick": 19200,
        "noteNumber": 41,
        "velocity": 80
    },
    {
        "track": 1,
        "absoluteTick": 19200,
        "noteNumber": 48,
        "velocity": 80
    },
    {
        "track": 1,
        "absoluteTick": 19200,
        "noteNumber": 53,
        "velocity": 80
    },
    {
        "track": 1,
        "absoluteTick": 19200,
        "noteNumber": 65,
        "velocity": 80
    },
    {
        "track": 0,
        "absoluteTick": 19320,
        "noteNumber": 87,
        "velocity": 80
    },
    {
        "track": 0,
        "absoluteTick": 19560,
        "noteNumber": 89,
        "velocity": 80
    },
    {
        "track": 0,
        "absoluteTick": 19680,
        "noteNumber": 89,
        "velocity": 80
    },
    {
        "track": 0,
        "absoluteTick": 19920,
        "noteNumber": 82,
        "velocity": 80
    },
    {
        "track": 0,
        "absoluteTick": 20040,
        "noteNumber": 82,
        "velocity": 80
    },
    {
        "track": 0,
        "absoluteTick": 20280,
        "noteNumber": 84,
        "velocity": 80
    },
    {
        "track": 0,
        "absoluteTick": 20400,
        "noteNumber": 84,
        "velocity": 80
    },
    {
        "track": 0,
        "absoluteTick": 20640,
        "noteNumber": 80,
        "velocity": 80
    },
    {
        "track": 0,
        "absoluteTick": 20880,
        "noteNumber": 77,
        "velocity": 80
    },
    {
        "track": 0,
        "absoluteTick": 21120,
        "noteNumber": 85,
        "velocity": 80
    },
    {
        "track": 1,
        "absoluteTick": 21120,
        "noteNumber": 37,
        "velocity": 80
    },
    {
        "track": 0,
        "absoluteTick": 21240,
        "noteNumber": 85,
        "velocity": 80
    },
    {
        "track": 0,
        "absoluteTick": 21480,
        "noteNumber": 80,
        "velocity": 80
    },
    {
        "track": 1,
        "absoluteTick": 21480,
        "noteNumber": 39,
        "velocity": 80
    },
    {
        "track": 0,
        "absoluteTick": 21600,
        "noteNumber": 80,
        "velocity": 80
    },
    {
        "track": 0,
        "absoluteTick": 21840,
        "noteNumber": 87,
        "velocity": 80
    },
    {
        "track": 1,
        "absoluteTick": 21840,
        "noteNumber": 51,
        "velocity": 80
    },
    {
        "track": 0,
        "absoluteTick": 21960,
        "noteNumber": 87,
        "velocity": 80
    },
    {
        "track": 0,
        "absoluteTick": 22200,
        "noteNumber": 92,
        "velocity": 80
    },
    {
        "track": 0,
        "absoluteTick": 22320,
        "noteNumber": 92,
        "velocity": 80
    },
    {
        "track": 0,
        "absoluteTick": 22560,
        "noteNumber": 91,
        "velocity": 80
    },
    {
        "track": 0,
        "absoluteTick": 22680,
        "noteNumber": 91,
        "velocity": 80
    },
    {
        "track": 0,
        "absoluteTick": 23040,
        "noteNumber": 75,
        "velocity": 80
    },
    {
        "track": 1,
        "absoluteTick": 23040,
        "noteNumber": 41,
        "velocity": 80
    },
    {
        "track": 0,
        "absoluteTick": 23160,
        "noteNumber": 75,
        "velocity": 80
    },
    {
        "track": 1,
        "absoluteTick": 23160,
        "noteNumber": 41,
        "velocity": 80
    },
    {
        "track": 0,
        "absoluteTick": 23400,
        "noteNumber": 77,
        "velocity": 80
    },
    {
        "track": 1,
        "absoluteTick": 23400,
        "noteNumber": 36,
        "velocity": 80
    },
    {
        "track": 0,
        "absoluteTick": 23520,
        "noteNumber": 77,
        "velocity": 80
    },
    {
        "track": 1,
        "absoluteTick": 23520,
        "noteNumber": 36,
        "velocity": 80
    },
    {
        "track": 0,
        "absoluteTick": 23760,
        "noteNumber": 70,
        "velocity": 80
    },
    {
        "track": 1,
        "absoluteTick": 23760,
        "noteNumber": 41,
        "velocity": 80
    },
    {
        "track": 0,
        "absoluteTick": 23880,
        "noteNumber": 70,
        "velocity": 80
    },
    {
        "track": 0,
        "absoluteTick": 24120,
        "noteNumber": 72,
        "velocity": 80
    },
    {
        "track": 1,
        "absoluteTick": 24120,
        "noteNumber": 36,
        "velocity": 80
    },
    {
        "track": 0,
        "absoluteTick": 24240,
        "noteNumber": 72,
        "velocity": 80
    },
    {
        "track": 1,
        "absoluteTick": 24240,
        "noteNumber": 39,
        "velocity": 80
    },
    {
        "track": 1,
        "absoluteTick": 24360,
        "noteNumber": 41,
        "velocity": 80
    },
    {
        "track": 0,
        "absoluteTick": 24480,
        "noteNumber": 68,
        "velocity": 80
    },
    {
        "track": 1,
        "absoluteTick": 24480,
        "noteNumber": 56,
        "velocity": 80
    },
    {
        "track": 1,
        "absoluteTick": 24600,
        "noteNumber": 55,
        "velocity": 80
    },
    {
        "track": 0,
        "absoluteTick": 24720,
        "noteNumber": 65,
        "velocity": 80
    },
    {
        "track": 1,
        "absoluteTick": 24720,
        "noteNumber": 53,
        "velocity": 80
    },
    {
        "track": 1,
        "absoluteTick": 24840,
        "noteNumber": 51,
        "velocity": 80
    },
    {
        "track": 0,
        "absoluteTick": 24960,
        "noteNumber": 73,
        "velocity": 80
    },
    {
        "track": 1,
        "absoluteTick": 24960,
        "noteNumber": 37,
        "velocity": 80
    },
    {
        "track": 0,
        "absoluteTick": 25080,
        "noteNumber": 73,
        "velocity": 80
    },
    {
        "track": 1,
        "absoluteTick": 25080,
        "noteNumber": 37,
        "velocity": 80
    },
    {
        "track": 0,
        "absoluteTick": 25320,
        "noteNumber": 68,
        "velocity": 80
    },
    {
        "track": 1,
        "absoluteTick": 25320,
        "noteNumber": 44,
        "velocity": 80
    },
    {
        "track": 0,
        "absoluteTick": 25440,
        "noteNumber": 68,
        "velocity": 80
    },
    {
        "track": 1,
        "absoluteTick": 25440,
        "noteNumber": 44,
        "velocity": 80
    },
    {
        "track": 0,
        "absoluteTick": 25680,
        "noteNumber": 75,
        "velocity": 80
    },
    {
        "track": 1,
        "absoluteTick": 25680,
        "noteNumber": 39,
        "velocity": 80
    },
    {
        "track": 0,
        "absoluteTick": 25800,
        "noteNumber": 75,
        "velocity": 80
    },
    {
        "track": 0,
        "absoluteTick": 26040,
        "noteNumber": 68,
        "velocity": 80
    },
    {
        "track": 1,
        "absoluteTick": 26040,
        "noteNumber": 37,
        "velocity": 80
    },
    {
        "track": 0,
        "absoluteTick": 26160,
        "noteNumber": 68,
        "velocity": 80
    },
    {
        "track": 1,
        "absoluteTick": 26160,
        "noteNumber": 39,
        "velocity": 80
    },
    {
        "track": 1,
        "absoluteTick": 26280,
        "noteNumber": 41,
        "velocity": 80
    },
    {
        "track": 0,
        "absoluteTick": 26400,
        "noteNumber": 67,
        "velocity": 80
    },
    {
        "track": 1,
        "absoluteTick": 26400,
        "noteNumber": 56,
        "velocity": 80
    },
    {
        "track": 1,
        "absoluteTick": 26520,
        "noteNumber": 55,
        "velocity": 80
    },
    {
        "track": 0,
        "absoluteTick": 26640,
        "noteNumber": 63,
        "velocity": 80
    },
    {
        "track": 1,
        "absoluteTick": 26640,
        "noteNumber": 53,
        "velocity": 80
    },
    {
        "track": 1,
        "absoluteTick": 26760,
        "noteNumber": 51,
        "velocity": 80
    },
    {
        "track": 0,
        "absoluteTick": 26880,
        "noteNumber": 75,
        "velocity": 80
    },
    {
        "track": 1,
        "absoluteTick": 26880,
        "noteNumber": 41,
        "velocity": 80
    },
    {
        "track": 0,
        "absoluteTick": 27000,
        "noteNumber": 75,
        "velocity": 80
    },
    {
        "track": 1,
        "absoluteTick": 27000,
        "noteNumber": 41,
        "velocity": 80
    },
    {
        "track": 0,
        "absoluteTick": 27240,
        "noteNumber": 77,
        "velocity": 80
    },
    {
        "track": 1,
        "absoluteTick": 27240,
        "noteNumber": 36,
        "velocity": 80
    },
    {
        "track": 0,
        "absoluteTick": 27360,
        "noteNumber": 77,
        "velocity": 80
    },
    {
        "track": 1,
        "absoluteTick": 27360,
        "noteNumber": 36,
        "velocity": 80
    },
    {
        "track": 0,
        "absoluteTick": 27600,
        "noteNumber": 70,
        "velocity": 80
    },
    {
        "track": 1,
        "absoluteTick": 27600,
        "noteNumber": 41,
        "velocity": 80
    },
    {
        "track": 0,
        "absoluteTick": 27720,
        "noteNumber": 70,
        "velocity": 80
    },
    {
        "track": 0,
        "absoluteTick": 27960,
        "noteNumber": 72,
        "velocity": 80
    },
    {
        "track": 1,
        "absoluteTick": 27960,
        "noteNumber": 36,
        "velocity": 80
    },
    {
        "track": 0,
        "absoluteTick": 28080,
        "noteNumber": 72,
        "velocity": 80
    },
    {
        "track": 1,
        "absoluteTick": 28080,
        "noteNumber": 39,
        "velocity": 80
    },
    {
        "track": 1,
        "absoluteTick": 28200,
        "noteNumber": 41,
        "velocity": 80
    },
    {
        "track": 0,
        "absoluteTick": 28320,
        "noteNumber": 68,
        "velocity": 80
    },
    {
        "track": 1,
        "absoluteTick": 28320,
        "noteNumber": 56,
        "velocity": 80
    },
    {
        "track": 1,
        "absoluteTick": 28440,
        "noteNumber": 55,
        "velocity": 80
    },
    {
        "track": 0,
        "absoluteTick": 28560,
        "noteNumber": 65,
        "velocity": 80
    },
    {
        "track": 1,
        "absoluteTick": 28560,
        "noteNumber": 53,
        "velocity": 80
    },
    {
        "track": 1,
        "absoluteTick": 28680,
        "noteNumber": 51,
        "velocity": 80
    },
    {
        "track": 0,
        "absoluteTick": 28800,
        "noteNumber": 73,
        "velocity": 80
    },
    {
        "track": 1,
        "absoluteTick": 28800,
        "noteNumber": 37,
        "velocity": 80
    },
    {
        "track": 0,
        "absoluteTick": 28920,
        "noteNumber": 73,
        "velocity": 80
    },
    {
        "track": 1,
        "absoluteTick": 28920,
        "noteNumber": 37,
        "velocity": 80
    },
    {
        "track": 0,
        "absoluteTick": 29160,
        "noteNumber": 68,
        "velocity": 80
    },
    {
        "track": 1,
        "absoluteTick": 29160,
        "noteNumber": 44,
        "velocity": 80
    },
    {
        "track": 0,
        "absoluteTick": 29280,
        "noteNumber": 68,
        "velocity": 80
    },
    {
        "track": 1,
        "absoluteTick": 29280,
        "noteNumber": 44,
        "velocity": 80
    },
    {
        "track": 0,
        "absoluteTick": 29520,
        "noteNumber": 75,
        "velocity": 80
    },
    {
        "track": 1,
        "absoluteTick": 29520,
        "noteNumber": 39,
        "velocity": 80
    },
    {
        "track": 0,
        "absoluteTick": 29640,
        "noteNumber": 75,
        "velocity": 80
    },
    {
        "track": 0,
        "absoluteTick": 29880,
        "noteNumber": 80,
        "velocity": 80
    },
    {
        "track": 1,
        "absoluteTick": 29880,
        "noteNumber": 37,
        "velocity": 80
    },
    {
        "track": 0,
        "absoluteTick": 30000,
        "noteNumber": 80,
        "velocity": 80
    },
    {
        "track": 1,
        "absoluteTick": 30000,
        "noteNumber": 39,
        "velocity": 80
    },
    {
        "track": 1,
        "absoluteTick": 30120,
        "noteNumber": 41,
        "velocity": 80
    },
    {
        "track": 0,
        "absoluteTick": 30240,
        "noteNumber": 79,
        "velocity": 80
    },
    {
        "track": 1,
        "absoluteTick": 30240,
        "noteNumber": 56,
        "velocity": 80
    },
    {
        "track": 0,
        "absoluteTick": 30360,
        "noteNumber": 79,
        "velocity": 80
    },
    {
        "track": 1,
        "absoluteTick": 30360,
        "noteNumber": 55,
        "velocity": 80
    },
    {
        "track": 1,
        "absoluteTick": 30480,
        "noteNumber": 53,
        "velocity": 80
    },
    {
        "track": 1,
        "absoluteTick": 30600,
        "noteNumber": 51,
        "velocity": 80
    },
    {
        "track": 0,
        "absoluteTick": 30720,
        "noteNumber": 75,
        "velocity": 80
    },
    {
        "track": 1,
        "absoluteTick": 30720,
        "noteNumber": 41,
        "velocity": 80
    },
    {
        "track": 0,
        "absoluteTick": 30840,
        "noteNumber": 75,
        "velocity": 80
    },
    {
        "track": 1,
        "absoluteTick": 30840,
        "noteNumber": 41,
        "velocity": 80
    },
    {
        "track": 0,
        "absoluteTick": 31080,
        "noteNumber": 77,
        "velocity": 80
    },
    {
        "track": 1,
        "absoluteTick": 31080,
        "noteNumber": 36,
        "velocity": 80
    },
    {
        "track": 0,
        "absoluteTick": 31200,
        "noteNumber": 77,
        "velocity": 80
    },
    {
        "track": 1,
        "absoluteTick": 31200,
        "noteNumber": 36,
        "velocity": 80
    },
    {
        "track": 0,
        "absoluteTick": 31440,
        "noteNumber": 70,
        "velocity": 80
    },
    {
        "track": 1,
        "absoluteTick": 31440,
        "noteNumber": 41,
        "velocity": 80
    },
    {
        "track": 0,
        "absoluteTick": 31560,
        "noteNumber": 70,
        "velocity": 80
    },
    {
        "track": 0,
        "absoluteTick": 31800,
        "noteNumber": 72,
        "velocity": 80
    },
    {
        "track": 1,
        "absoluteTick": 31800,
        "noteNumber": 36,
        "velocity": 80
    },
    {
        "track": 0,
        "absoluteTick": 31920,
        "noteNumber": 72,
        "velocity": 80
    },
    {
        "track": 1,
        "absoluteTick": 31920,
        "noteNumber": 39,
        "velocity": 80
    },
    {
        "track": 1,
        "absoluteTick": 32040,
        "noteNumber": 41,
        "velocity": 80
    },
    {
        "track": 0,
        "absoluteTick": 32160,
        "noteNumber": 68,
        "velocity": 80
    },
    {
        "track": 1,
        "absoluteTick": 32160,
        "noteNumber": 56,
        "velocity": 80
    },
    {
        "track": 1,
        "absoluteTick": 32280,
        "noteNumber": 55,
        "velocity": 80
    },
    {
        "track": 0,
        "absoluteTick": 32400,
        "noteNumber": 65,
        "velocity": 80
    },
    {
        "track": 1,
        "absoluteTick": 32400,
        "noteNumber": 53,
        "velocity": 80
    },
    {
        "track": 1,
        "absoluteTick": 32520,
        "noteNumber": 51,
        "velocity": 80
    },
    {
        "track": 0,
        "absoluteTick": 32640,
        "noteNumber": 73,
        "velocity": 80
    },
    {
        "track": 1,
        "absoluteTick": 32640,
        "noteNumber": 37,
        "velocity": 80
    },
    {
        "track": 0,
        "absoluteTick": 32760,
        "noteNumber": 73,
        "velocity": 80
    },
    {
        "track": 1,
        "absoluteTick": 32760,
        "noteNumber": 37,
        "velocity": 80
    },
    {
        "track": 0,
        "absoluteTick": 33000,
        "noteNumber": 68,
        "velocity": 80
    },
    {
        "track": 1,
        "absoluteTick": 33000,
        "noteNumber": 44,
        "velocity": 80
    },
    {
        "track": 0,
        "absoluteTick": 33120,
        "noteNumber": 68,
        "velocity": 80
    },
    {
        "track": 1,
        "absoluteTick": 33120,
        "noteNumber": 44,
        "velocity": 80
    },
    {
        "track": 0,
        "absoluteTick": 33360,
        "noteNumber": 75,
        "velocity": 80
    },
    {
        "track": 1,
        "absoluteTick": 33360,
        "noteNumber": 39,
        "velocity": 80
    },
    {
        "track": 0,
        "absoluteTick": 33480,
        "noteNumber": 75,
        "velocity": 80
    },
    {
        "track": 0,
        "absoluteTick": 33720,
        "noteNumber": 68,
        "velocity": 80
    },
    {
        "track": 1,
        "absoluteTick": 33720,
        "noteNumber": 37,
        "velocity": 80
    },
    {
        "track": 0,
        "absoluteTick": 33840,
        "noteNumber": 68,
        "velocity": 80
    },
    {
        "track": 1,
        "absoluteTick": 33840,
        "noteNumber": 39,
        "velocity": 80
    },
    {
        "track": 1,
        "absoluteTick": 33960,
        "noteNumber": 41,
        "velocity": 80
    },
    {
        "track": 0,
        "absoluteTick": 34080,
        "noteNumber": 67,
        "velocity": 80
    },
    {
        "track": 1,
        "absoluteTick": 34080,
        "noteNumber": 56,
        "velocity": 80
    },
    {
        "track": 1,
        "absoluteTick": 34200,
        "noteNumber": 55,
        "velocity": 80
    },
    {
        "track": 0,
        "absoluteTick": 34320,
        "noteNumber": 63,
        "velocity": 80
    },
    {
        "track": 1,
        "absoluteTick": 34320,
        "noteNumber": 53,
        "velocity": 80
    },
    {
        "track": 1,
        "absoluteTick": 34440,
        "noteNumber": 51,
        "velocity": 80
    },
    {
        "track": 0,
        "absoluteTick": 34560,
        "noteNumber": 75,
        "velocity": 80
    },
    {
        "track": 1,
        "absoluteTick": 34560,
        "noteNumber": 41,
        "velocity": 80
    },
    {
        "track": 0,
        "absoluteTick": 34680,
        "noteNumber": 75,
        "velocity": 80
    },
    {
        "track": 1,
        "absoluteTick": 34680,
        "noteNumber": 41,
        "velocity": 80
    },
    {
        "track": 0,
        "absoluteTick": 34920,
        "noteNumber": 77,
        "velocity": 80
    },
    {
        "track": 1,
        "absoluteTick": 34920,
        "noteNumber": 36,
        "velocity": 80
    },
    {
        "track": 0,
        "absoluteTick": 35040,
        "noteNumber": 77,
        "velocity": 80
    },
    {
        "track": 1,
        "absoluteTick": 35040,
        "noteNumber": 36,
        "velocity": 80
    },
    {
        "track": 0,
        "absoluteTick": 35280,
        "noteNumber": 70,
        "velocity": 80
    },
    {
        "track": 1,
        "absoluteTick": 35280,
        "noteNumber": 41,
        "velocity": 80
    },
    {
        "track": 0,
        "absoluteTick": 35400,
        "noteNumber": 70,
        "velocity": 80
    },
    {
        "track": 0,
        "absoluteTick": 35640,
        "noteNumber": 72,
        "velocity": 80
    },
    {
        "track": 1,
        "absoluteTick": 35640,
        "noteNumber": 36,
        "velocity": 80
    },
    {
        "track": 0,
        "absoluteTick": 35760,
        "noteNumber": 72,
        "velocity": 80
    },
    {
        "track": 1,
        "absoluteTick": 35760,
        "noteNumber": 39,
        "velocity": 80
    },
    {
        "track": 1,
        "absoluteTick": 35880,
        "noteNumber": 41,
        "velocity": 80
    },
    {
        "track": 0,
        "absoluteTick": 36000,
        "noteNumber": 68,
        "velocity": 80
    },
    {
        "track": 1,
        "absoluteTick": 36000,
        "noteNumber": 56,
        "velocity": 80
    },
    {
        "track": 1,
        "absoluteTick": 36120,
        "noteNumber": 55,
        "velocity": 80
    },
    {
        "track": 0,
        "absoluteTick": 36240,
        "noteNumber": 65,
        "velocity": 80
    },
    {
        "track": 1,
        "absoluteTick": 36240,
        "noteNumber": 53,
        "velocity": 80
    },
    {
        "track": 1,
        "absoluteTick": 36360,
        "noteNumber": 51,
        "velocity": 80
    },
    {
        "track": 0,
        "absoluteTick": 36480,
        "noteNumber": 73,
        "velocity": 80
    },
    {
        "track": 1,
        "absoluteTick": 36480,
        "noteNumber": 37,
        "velocity": 80
    },
    {
        "track": 0,
        "absoluteTick": 36600,
        "noteNumber": 73,
        "velocity": 80
    },
    {
        "track": 1,
        "absoluteTick": 36600,
        "noteNumber": 37,
        "velocity": 80
    },
    {
        "track": 0,
        "absoluteTick": 36840,
        "noteNumber": 68,
        "velocity": 80
    },
    {
        "track": 1,
        "absoluteTick": 36840,
        "noteNumber": 44,
        "velocity": 80
    },
    {
        "track": 0,
        "absoluteTick": 36960,
        "noteNumber": 68,
        "velocity": 80
    },
    {
        "track": 1,
        "absoluteTick": 36960,
        "noteNumber": 44,
        "velocity": 80
    },
    {
        "track": 0,
        "absoluteTick": 37200,
        "noteNumber": 75,
        "velocity": 80
    },
    {
        "track": 1,
        "absoluteTick": 37200,
        "noteNumber": 39,
        "velocity": 80
    },
    {
        "track": 0,
        "absoluteTick": 37320,
        "noteNumber": 75,
        "velocity": 80
    },
    {
        "track": 0,
        "absoluteTick": 37560,
        "noteNumber": 80,
        "velocity": 80
    },
    {
        "track": 1,
        "absoluteTick": 37560,
        "noteNumber": 37,
        "velocity": 80
    },
    {
        "track": 0,
        "absoluteTick": 37680,
        "noteNumber": 80,
        "velocity": 80
    },
    {
        "track": 1,
        "absoluteTick": 37680,
        "noteNumber": 39,
        "velocity": 80
    },
    {
        "track": 1,
        "absoluteTick": 37800,
        "noteNumber": 41,
        "velocity": 80
    },
    {
        "track": 0,
        "absoluteTick": 37920,
        "noteNumber": 79,
        "velocity": 80
    },
    {
        "track": 1,
        "absoluteTick": 37920,
        "noteNumber": 56,
        "velocity": 80
    },
    {
        "track": 0,
        "absoluteTick": 38040,
        "noteNumber": 79,
        "velocity": 80
    },
    {
        "track": 1,
        "absoluteTick": 38040,
        "noteNumber": 55,
        "velocity": 80
    },
    {
        "track": 1,
        "absoluteTick": 38160,
        "noteNumber": 53,
        "velocity": 80
    },
    {
        "track": 1,
        "absoluteTick": 38280,
        "noteNumber": 51,
        "velocity": 80
    },
    {
        "track": 0,
        "absoluteTick": 38400,
        "noteNumber": 75,
        "velocity": 80
    },
    {
        "track": 0,
        "absoluteTick": 38400,
        "noteNumber": 63,
        "velocity": 80
    },
    {
        "track": 1,
        "absoluteTick": 38400,
        "noteNumber": 41,
        "velocity": 80
    },
    {
        "track": 0,
        "absoluteTick": 38520,
        "noteNumber": 75,
        "velocity": 80
    },
    {
        "track": 1,
        "absoluteTick": 38520,
        "noteNumber": 41,
        "velocity": 80
    },
    {
        "track": 0,
        "absoluteTick": 38760,
        "noteNumber": 77,
        "velocity": 80
    },
    {
        "track": 1,
        "absoluteTick": 38760,
        "noteNumber": 36,
        "velocity": 80
    },
    {
        "track": 0,
        "absoluteTick": 38880,
        "noteNumber": 77,
        "velocity": 80
    },
    {
        "track": 1,
        "absoluteTick": 38880,
        "noteNumber": 36,
        "velocity": 80
    },
    {
        "track": 0,
        "absoluteTick": 39120,
        "noteNumber": 70,
        "velocity": 80
    },
    {
        "track": 1,
        "absoluteTick": 39120,
        "noteNumber": 41,
        "velocity": 80
    },
    {
        "track": 0,
        "absoluteTick": 39240,
        "noteNumber": 70,
        "velocity": 80
    },
    {
        "track": 0,
        "absoluteTick": 39480,
        "noteNumber": 72,
        "velocity": 80
    },
    {
        "track": 1,
        "absoluteTick": 39480,
        "noteNumber": 36,
        "velocity": 80
    },
    {
        "track": 0,
        "absoluteTick": 39600,
        "noteNumber": 72,
        "velocity": 80
    },
    {
        "track": 1,
        "absoluteTick": 39600,
        "noteNumber": 39,
        "velocity": 80
    },
    {
        "track": 1,
        "absoluteTick": 39720,
        "noteNumber": 41,
        "velocity": 80
    },
    {
        "track": 0,
        "absoluteTick": 39840,
        "noteNumber": 68,
        "velocity": 80
    },
    {
        "track": 1,
        "absoluteTick": 39840,
        "noteNumber": 56,
        "velocity": 80
    },
    {
        "track": 1,
        "absoluteTick": 39960,
        "noteNumber": 55,
        "velocity": 80
    },
    {
        "track": 0,
        "absoluteTick": 40080,
        "noteNumber": 65,
        "velocity": 80
    },
    {
        "track": 1,
        "absoluteTick": 40080,
        "noteNumber": 53,
        "velocity": 80
    },
    {
        "track": 1,
        "absoluteTick": 40200,
        "noteNumber": 51,
        "velocity": 80
    },
    {
        "track": 0,
        "absoluteTick": 40320,
        "noteNumber": 73,
        "velocity": 80
    },
    {
        "track": 1,
        "absoluteTick": 40320,
        "noteNumber": 37,
        "velocity": 80
    },
    {
        "track": 0,
        "absoluteTick": 40440,
        "noteNumber": 73,
        "velocity": 80
    },
    {
        "track": 1,
        "absoluteTick": 40440,
        "noteNumber": 37,
        "velocity": 80
    },
    {
        "track": 0,
        "absoluteTick": 40680,
        "noteNumber": 68,
        "velocity": 80
    },
    {
        "track": 1,
        "absoluteTick": 40680,
        "noteNumber": 44,
        "velocity": 80
    },
    {
        "track": 0,
        "absoluteTick": 40800,
        "noteNumber": 68,
        "velocity": 80
    },
    {
        "track": 1,
        "absoluteTick": 40800,
        "noteNumber": 44,
        "velocity": 80
    },
    {
        "track": 0,
        "absoluteTick": 41040,
        "noteNumber": 75,
        "velocity": 80
    },
    {
        "track": 1,
        "absoluteTick": 41040,
        "noteNumber": 39,
        "velocity": 80
    },
    {
        "track": 0,
        "absoluteTick": 41160,
        "noteNumber": 75,
        "velocity": 80
    },
    {
        "track": 0,
        "absoluteTick": 41400,
        "noteNumber": 68,
        "velocity": 80
    },
    {
        "track": 1,
        "absoluteTick": 41400,
        "noteNumber": 37,
        "velocity": 80
    },
    {
        "track": 0,
        "absoluteTick": 41520,
        "noteNumber": 68,
        "velocity": 80
    },
    {
        "track": 1,
        "absoluteTick": 41520,
        "noteNumber": 39,
        "velocity": 80
    },
    {
        "track": 1,
        "absoluteTick": 41640,
        "noteNumber": 41,
        "velocity": 80
    },
    {
        "track": 0,
        "absoluteTick": 41760,
        "noteNumber": 67,
        "velocity": 80
    },
    {
        "track": 1,
        "absoluteTick": 41760,
        "noteNumber": 56,
        "velocity": 80
    },
    {
        "track": 1,
        "absoluteTick": 41880,
        "noteNumber": 55,
        "velocity": 80
    },
    {
        "track": 0,
        "absoluteTick": 42000,
        "noteNumber": 63,
        "velocity": 80
    },
    {
        "track": 1,
        "absoluteTick": 42000,
        "noteNumber": 53,
        "velocity": 80
    },
    {
        "track": 1,
        "absoluteTick": 42120,
        "noteNumber": 51,
        "velocity": 80
    },
    {
        "track": 0,
        "absoluteTick": 42240,
        "noteNumber": 75,
        "velocity": 80
    },
    {
        "track": 0,
        "absoluteTick": 42240,
        "noteNumber": 58,
        "velocity": 80
    },
    {
        "track": 1,
        "absoluteTick": 42240,
        "noteNumber": 41,
        "velocity": 80
    },
    {
        "track": 0,
        "absoluteTick": 42360,
        "noteNumber": 75,
        "velocity": 80
    },
    {
        "track": 1,
        "absoluteTick": 42360,
        "noteNumber": 41,
        "velocity": 80
    },
    {
        "track": 0,
        "absoluteTick": 42600,
        "noteNumber": 77,
        "velocity": 80
    },
    {
        "track": 1,
        "absoluteTick": 42600,
        "noteNumber": 36,
        "velocity": 80
    },
    {
        "track": 0,
        "absoluteTick": 42720,
        "noteNumber": 77,
        "velocity": 80
    },
    {
        "track": 1,
        "absoluteTick": 42720,
        "noteNumber": 36,
        "velocity": 80
    },
    {
        "track": 0,
        "absoluteTick": 42960,
        "noteNumber": 70,
        "velocity": 80
    },
    {
        "track": 1,
        "absoluteTick": 42960,
        "noteNumber": 41,
        "velocity": 80
    },
    {
        "track": 0,
        "absoluteTick": 43080,
        "noteNumber": 70,
        "velocity": 80
    },
    {
        "track": 0,
        "absoluteTick": 43320,
        "noteNumber": 72,
        "velocity": 80
    },
    {
        "track": 1,
        "absoluteTick": 43320,
        "noteNumber": 36,
        "velocity": 80
    },
    {
        "track": 0,
        "absoluteTick": 43440,
        "noteNumber": 72,
        "velocity": 80
    },
    {
        "track": 1,
        "absoluteTick": 43440,
        "noteNumber": 39,
        "velocity": 80
    },
    {
        "track": 1,
        "absoluteTick": 43560,
        "noteNumber": 41,
        "velocity": 80
    },
    {
        "track": 0,
        "absoluteTick": 43680,
        "noteNumber": 68,
        "velocity": 80
    },
    {
        "track": 1,
        "absoluteTick": 43680,
        "noteNumber": 56,
        "velocity": 80
    },
    {
        "track": 1,
        "absoluteTick": 43800,
        "noteNumber": 55,
        "velocity": 80
    },
    {
        "track": 0,
        "absoluteTick": 43920,
        "noteNumber": 65,
        "velocity": 80
    },
    {
        "track": 1,
        "absoluteTick": 43920,
        "noteNumber": 53,
        "velocity": 80
    },
    {
        "track": 1,
        "absoluteTick": 44040,
        "noteNumber": 51,
        "velocity": 80
    },
    {
        "track": 0,
        "absoluteTick": 44160,
        "noteNumber": 73,
        "velocity": 80
    },
    {
        "track": 1,
        "absoluteTick": 44160,
        "noteNumber": 37,
        "velocity": 80
    },
    {
        "track": 0,
        "absoluteTick": 44280,
        "noteNumber": 73,
        "velocity": 80
    },
    {
        "track": 1,
        "absoluteTick": 44280,
        "noteNumber": 37,
        "velocity": 80
    },
    {
        "track": 0,
        "absoluteTick": 44520,
        "noteNumber": 68,
        "velocity": 80
    },
    {
        "track": 1,
        "absoluteTick": 44520,
        "noteNumber": 44,
        "velocity": 80
    },
    {
        "track": 0,
        "absoluteTick": 44640,
        "noteNumber": 68,
        "velocity": 80
    },
    {
        "track": 1,
        "absoluteTick": 44640,
        "noteNumber": 44,
        "velocity": 80
    },
    {
        "track": 0,
        "absoluteTick": 44880,
        "noteNumber": 75,
        "velocity": 80
    },
    {
        "track": 1,
        "absoluteTick": 44880,
        "noteNumber": 39,
        "velocity": 80
    },
    {
        "track": 0,
        "absoluteTick": 45000,
        "noteNumber": 75,
        "velocity": 80
    },
    {
        "track": 0,
        "absoluteTick": 45240,
        "noteNumber": 80,
        "velocity": 80
    },
    {
        "track": 1,
        "absoluteTick": 45240,
        "noteNumber": 37,
        "velocity": 80
    },
    {
        "track": 0,
        "absoluteTick": 45360,
        "noteNumber": 80,
        "velocity": 80
    },
    {
        "track": 1,
        "absoluteTick": 45360,
        "noteNumber": 39,
        "velocity": 80
    },
    {
        "track": 1,
        "absoluteTick": 45480,
        "noteNumber": 41,
        "velocity": 80
    },
    {
        "track": 0,
        "absoluteTick": 45600,
        "noteNumber": 79,
        "velocity": 80
    },
    {
        "track": 1,
        "absoluteTick": 45600,
        "noteNumber": 56,
        "velocity": 80
    },
    {
        "track": 0,
        "absoluteTick": 45720,
        "noteNumber": 79,
        "velocity": 80
    },
    {
        "track": 1,
        "absoluteTick": 45720,
        "noteNumber": 55,
        "velocity": 80
    },
    {
        "track": 1,
        "absoluteTick": 45840,
        "noteNumber": 53,
        "velocity": 80
    },
    {
        "track": 1,
        "absoluteTick": 45960,
        "noteNumber": 51,
        "velocity": 80
    },
    {
        "track": 0,
        "absoluteTick": 46080,
        "noteNumber": 75,
        "velocity": 80
    },
    {
        "track": 0,
        "absoluteTick": 46080,
        "noteNumber": 63,
        "velocity": 80
    },
    {
        "track": 1,
        "absoluteTick": 46080,
        "noteNumber": 41,
        "velocity": 80
    },
    {
        "track": 0,
        "absoluteTick": 46200,
        "noteNumber": 75,
        "velocity": 80
    },
    {
        "track": 1,
        "absoluteTick": 46200,
        "noteNumber": 41,
        "velocity": 80
    },
    {
        "track": 0,
        "absoluteTick": 46440,
        "noteNumber": 77,
        "velocity": 80
    },
    {
        "track": 1,
        "absoluteTick": 46440,
        "noteNumber": 36,
        "velocity": 80
    },
    {
        "track": 0,
        "absoluteTick": 46560,
        "noteNumber": 77,
        "velocity": 80
    },
    {
        "track": 1,
        "absoluteTick": 46560,
        "noteNumber": 36,
        "velocity": 80
    },
    {
        "track": 0,
        "absoluteTick": 46800,
        "noteNumber": 70,
        "velocity": 80
    },
    {
        "track": 1,
        "absoluteTick": 46800,
        "noteNumber": 41,
        "velocity": 80
    },
    {
        "track": 0,
        "absoluteTick": 46920,
        "noteNumber": 70,
        "velocity": 80
    },
    {
        "track": 0,
        "absoluteTick": 47160,
        "noteNumber": 72,
        "velocity": 80
    },
    {
        "track": 1,
        "absoluteTick": 47160,
        "noteNumber": 36,
        "velocity": 80
    },
    {
        "track": 0,
        "absoluteTick": 47280,
        "noteNumber": 72,
        "velocity": 80
    },
    {
        "track": 1,
        "absoluteTick": 47280,
        "noteNumber": 39,
        "velocity": 80
    },
    {
        "track": 1,
        "absoluteTick": 47400,
        "noteNumber": 41,
        "velocity": 80
    },
    {
        "track": 0,
        "absoluteTick": 47520,
        "noteNumber": 68,
        "velocity": 80
    },
    {
        "track": 1,
        "absoluteTick": 47520,
        "noteNumber": 56,
        "velocity": 80
    },
    {
        "track": 1,
        "absoluteTick": 47640,
        "noteNumber": 55,
        "velocity": 80
    },
    {
        "track": 0,
        "absoluteTick": 47760,
        "noteNumber": 65,
        "velocity": 80
    },
    {
        "track": 1,
        "absoluteTick": 47760,
        "noteNumber": 53,
        "velocity": 80
    },
    {
        "track": 1,
        "absoluteTick": 47880,
        "noteNumber": 51,
        "velocity": 80
    },
    {
        "track": 0,
        "absoluteTick": 48000,
        "noteNumber": 73,
        "velocity": 80
    },
    {
        "track": 1,
        "absoluteTick": 48000,
        "noteNumber": 37,
        "velocity": 80
    },
    {
        "track": 0,
        "absoluteTick": 48120,
        "noteNumber": 73,
        "velocity": 80
    },
    {
        "track": 1,
        "absoluteTick": 48120,
        "noteNumber": 37,
        "velocity": 80
    },
    {
        "track": 0,
        "absoluteTick": 48360,
        "noteNumber": 68,
        "velocity": 80
    },
    {
        "track": 1,
        "absoluteTick": 48360,
        "noteNumber": 44,
        "velocity": 80
    },
    {
        "track": 0,
        "absoluteTick": 48480,
        "noteNumber": 68,
        "velocity": 80
    },
    {
        "track": 1,
        "absoluteTick": 48480,
        "noteNumber": 44,
        "velocity": 80
    },
    {
        "track": 0,
        "absoluteTick": 48720,
        "noteNumber": 75,
        "velocity": 80
    },
    {
        "track": 1,
        "absoluteTick": 48720,
        "noteNumber": 39,
        "velocity": 80
    },
    {
        "track": 0,
        "absoluteTick": 48840,
        "noteNumber": 75,
        "velocity": 80
    },
    {
        "track": 0,
        "absoluteTick": 49080,
        "noteNumber": 68,
        "velocity": 80
    },
    {
        "track": 1,
        "absoluteTick": 49080,
        "noteNumber": 37,
        "velocity": 80
    },
    {
        "track": 0,
        "absoluteTick": 49200,
        "noteNumber": 68,
        "velocity": 80
    },
    {
        "track": 1,
        "absoluteTick": 49200,
        "noteNumber": 39,
        "velocity": 80
    },
    {
        "track": 1,
        "absoluteTick": 49320,
        "noteNumber": 41,
        "velocity": 80
    },
    {
        "track": 0,
        "absoluteTick": 49440,
        "noteNumber": 67,
        "velocity": 80
    },
    {
        "track": 1,
        "absoluteTick": 49440,
        "noteNumber": 56,
        "velocity": 80
    },
    {
        "track": 1,
        "absoluteTick": 49560,
        "noteNumber": 55,
        "velocity": 80
    },
    {
        "track": 0,
        "absoluteTick": 49680,
        "noteNumber": 63,
        "velocity": 80
    },
    {
        "track": 1,
        "absoluteTick": 49680,
        "noteNumber": 53,
        "velocity": 80
    },
    {
        "track": 1,
        "absoluteTick": 49800,
        "noteNumber": 51,
        "velocity": 80
    },
    {
        "track": 0,
        "absoluteTick": 49920,
        "noteNumber": 75,
        "velocity": 80
    },
    {
        "track": 0,
        "absoluteTick": 49920,
        "noteNumber": 58,
        "velocity": 80
    },
    {
        "track": 1,
        "absoluteTick": 49920,
        "noteNumber": 41,
        "velocity": 80
    },
    {
        "track": 0,
        "absoluteTick": 50040,
        "noteNumber": 75,
        "velocity": 80
    },
    {
        "track": 1,
        "absoluteTick": 50040,
        "noteNumber": 41,
        "velocity": 80
    },
    {
        "track": 0,
        "absoluteTick": 50280,
        "noteNumber": 77,
        "velocity": 80
    },
    {
        "track": 1,
        "absoluteTick": 50280,
        "noteNumber": 36,
        "velocity": 80
    },
    {
        "track": 0,
        "absoluteTick": 50400,
        "noteNumber": 77,
        "velocity": 80
    },
    {
        "track": 1,
        "absoluteTick": 50400,
        "noteNumber": 36,
        "velocity": 80
    },
    {
        "track": 0,
        "absoluteTick": 50640,
        "noteNumber": 70,
        "velocity": 80
    },
    {
        "track": 1,
        "absoluteTick": 50640,
        "noteNumber": 41,
        "velocity": 80
    },
    {
        "track": 0,
        "absoluteTick": 50760,
        "noteNumber": 70,
        "velocity": 80
    },
    {
        "track": 0,
        "absoluteTick": 51000,
        "noteNumber": 72,
        "velocity": 80
    },
    {
        "track": 1,
        "absoluteTick": 51000,
        "noteNumber": 36,
        "velocity": 80
    },
    {
        "track": 0,
        "absoluteTick": 51120,
        "noteNumber": 72,
        "velocity": 80
    },
    {
        "track": 1,
        "absoluteTick": 51120,
        "noteNumber": 39,
        "velocity": 80
    },
    {
        "track": 1,
        "absoluteTick": 51240,
        "noteNumber": 41,
        "velocity": 80
    },
    {
        "track": 0,
        "absoluteTick": 51360,
        "noteNumber": 68,
        "velocity": 80
    },
    {
        "track": 1,
        "absoluteTick": 51360,
        "noteNumber": 56,
        "velocity": 80
    },
    {
        "track": 1,
        "absoluteTick": 51480,
        "noteNumber": 55,
        "velocity": 80
    },
    {
        "track": 0,
        "absoluteTick": 51600,
        "noteNumber": 65,
        "velocity": 80
    },
    {
        "track": 1,
        "absoluteTick": 51600,
        "noteNumber": 53,
        "velocity": 80
    },
    {
        "track": 1,
        "absoluteTick": 51720,
        "noteNumber": 51,
        "velocity": 80
    },
    {
        "track": 0,
        "absoluteTick": 51840,
        "noteNumber": 73,
        "velocity": 80
    },
    {
        "track": 1,
        "absoluteTick": 51840,
        "noteNumber": 37,
        "velocity": 80
    },
    {
        "track": 0,
        "absoluteTick": 51960,
        "noteNumber": 73,
        "velocity": 80
    },
    {
        "track": 1,
        "absoluteTick": 51960,
        "noteNumber": 37,
        "velocity": 80
    },
    {
        "track": 0,
        "absoluteTick": 52200,
        "noteNumber": 68,
        "velocity": 80
    },
    {
        "track": 1,
        "absoluteTick": 52200,
        "noteNumber": 44,
        "velocity": 80
    },
    {
        "track": 0,
        "absoluteTick": 52320,
        "noteNumber": 68,
        "velocity": 80
    },
    {
        "track": 1,
        "absoluteTick": 52320,
        "noteNumber": 44,
        "velocity": 80
    },
    {
        "track": 0,
        "absoluteTick": 52560,
        "noteNumber": 75,
        "velocity": 80
    },
    {
        "track": 1,
        "absoluteTick": 52560,
        "noteNumber": 39,
        "velocity": 80
    },
    {
        "track": 0,
        "absoluteTick": 52680,
        "noteNumber": 75,
        "velocity": 80
    },
    {
        "track": 0,
        "absoluteTick": 52920,
        "noteNumber": 80,
        "velocity": 80
    },
    {
        "track": 1,
        "absoluteTick": 52920,
        "noteNumber": 37,
        "velocity": 80
    },
    {
        "track": 0,
        "absoluteTick": 53040,
        "noteNumber": 80,
        "velocity": 80
    },
    {
        "track": 1,
        "absoluteTick": 53040,
        "noteNumber": 39,
        "velocity": 80
    },
    {
        "track": 1,
        "absoluteTick": 53160,
        "noteNumber": 41,
        "velocity": 80
    },
    {
        "track": 0,
        "absoluteTick": 53280,
        "noteNumber": 79,
        "velocity": 80
    },
    {
        "track": 1,
        "absoluteTick": 53280,
        "noteNumber": 56,
        "velocity": 80
    },
    {
        "track": 0,
        "absoluteTick": 53400,
        "noteNumber": 79,
        "velocity": 80
    },
    {
        "track": 1,
        "absoluteTick": 53400,
        "noteNumber": 55,
        "velocity": 80
    },
    {
        "track": 1,
        "absoluteTick": 53520,
        "noteNumber": 53,
        "velocity": 80
    },
    {
        "track": 1,
        "absoluteTick": 53640,
        "noteNumber": 51,
        "velocity": 80
    },
    {
        "track": 0,
        "absoluteTick": 53760,
        "noteNumber": 75,
        "velocity": 80
    },
    {
        "track": 0,
        "absoluteTick": 53760,
        "noteNumber": 60,
        "velocity": 80
    },
    {
        "track": 1,
        "absoluteTick": 53760,
        "noteNumber": 41,
        "velocity": 80
    },
    {
        "track": 0,
        "absoluteTick": 53880,
        "noteNumber": 75,
        "velocity": 80
    },
    {
        "track": 1,
        "absoluteTick": 53880,
        "noteNumber": 41,
        "velocity": 80
    },
    {
        "track": 0,
        "absoluteTick": 54120,
        "noteNumber": 77,
        "velocity": 80
    },
    {
        "track": 0,
        "absoluteTick": 54120,
        "noteNumber": 65,
        "velocity": 80
    },
    {
        "track": 1,
        "absoluteTick": 54120,
        "noteNumber": 36,
        "velocity": 80
    },
    {
        "track": 0,
        "absoluteTick": 54240,
        "noteNumber": 77,
        "velocity": 80
    },
    {
        "track": 1,
        "absoluteTick": 54240,
        "noteNumber": 36,
        "velocity": 80
    },
    {
        "track": 0,
        "absoluteTick": 54480,
        "noteNumber": 70,
        "velocity": 80
    },
    {
        "track": 0,
        "absoluteTick": 54480,
        "noteNumber": 68,
        "velocity": 80
    },
    {
        "track": 1,
        "absoluteTick": 54480,
        "noteNumber": 41,
        "velocity": 80
    },
    {
        "track": 0,
        "absoluteTick": 54600,
        "noteNumber": 70,
        "velocity": 80
    },
    {
        "track": 0,
        "absoluteTick": 54720,
        "noteNumber": 65,
        "velocity": 80
    },
    {
        "track": 0,
        "absoluteTick": 54840,
        "noteNumber": 72,
        "velocity": 80
    },
    {
        "track": 1,
        "absoluteTick": 54840,
        "noteNumber": 36,
        "velocity": 80
    },
    {
        "track": 0,
        "absoluteTick": 54960,
        "noteNumber": 72,
        "velocity": 80
    },
    {
        "track": 1,
        "absoluteTick": 54960,
        "noteNumber": 39,
        "velocity": 80
    },
    {
        "track": 1,
        "absoluteTick": 55080,
        "noteNumber": 41,
        "velocity": 80
    },
    {
        "track": 0,
        "absoluteTick": 55200,
        "noteNumber": 68,
        "velocity": 80
    },
    {
        "track": 1,
        "absoluteTick": 55200,
        "noteNumber": 56,
        "velocity": 80
    },
    {
        "track": 1,
        "absoluteTick": 55320,
        "noteNumber": 55,
        "velocity": 80
    },
    {
        "track": 0,
        "absoluteTick": 55440,
        "noteNumber": 65,
        "velocity": 80
    },
    {
        "track": 1,
        "absoluteTick": 55440,
        "noteNumber": 53,
        "velocity": 80
    },
    {
        "track": 1,
        "absoluteTick": 55560,
        "noteNumber": 51,
        "velocity": 80
    },
    {
        "track": 0,
        "absoluteTick": 55680,
        "noteNumber": 73,
        "velocity": 80
    },
    {
        "track": 1,
        "absoluteTick": 55680,
        "noteNumber": 37,
        "velocity": 80
    },
    {
        "track": 0,
        "absoluteTick": 55800,
        "noteNumber": 73,
        "velocity": 80
    },
    {
        "track": 1,
        "absoluteTick": 55800,
        "noteNumber": 37,
        "velocity": 80
    },
    {
        "track": 0,
        "absoluteTick": 56040,
        "noteNumber": 68,
        "velocity": 80
    },
    {
        "track": 1,
        "absoluteTick": 56040,
        "noteNumber": 44,
        "velocity": 80
    },
    {
        "track": 0,
        "absoluteTick": 56160,
        "noteNumber": 68,
        "velocity": 80
    },
    {
        "track": 1,
        "absoluteTick": 56160,
        "noteNumber": 44,
        "velocity": 80
    },
    {
        "track": 0,
        "absoluteTick": 56400,
        "noteNumber": 75,
        "velocity": 80
    },
    {
        "track": 1,
        "absoluteTick": 56400,
        "noteNumber": 39,
        "velocity": 80
    },
    {
        "track": 0,
        "absoluteTick": 56520,
        "noteNumber": 75,
        "velocity": 80
    },
    {
        "track": 0,
        "absoluteTick": 56760,
        "noteNumber": 68,
        "velocity": 80
    },
    {
        "track": 1,
        "absoluteTick": 56760,
        "noteNumber": 37,
        "velocity": 80
    },
    {
        "track": 0,
        "absoluteTick": 56880,
        "noteNumber": 68,
        "velocity": 80
    },
    {
        "track": 1,
        "absoluteTick": 56880,
        "noteNumber": 39,
        "velocity": 80
    },
    {
        "track": 1,
        "absoluteTick": 57000,
        "noteNumber": 41,
        "velocity": 80
    },
    {
        "track": 0,
        "absoluteTick": 57120,
        "noteNumber": 67,
        "velocity": 80
    },
    {
        "track": 0,
        "absoluteTick": 57120,
        "noteNumber": 67,
        "velocity": 80
    },
    {
        "track": 1,
        "absoluteTick": 57120,
        "noteNumber": 56,
        "velocity": 80
    },
    {
        "track": 1,
        "absoluteTick": 57240,
        "noteNumber": 55,
        "velocity": 80
    },
    {
        "track": 0,
        "absoluteTick": 57360,
        "noteNumber": 63,
        "velocity": 80
    },
    {
        "track": 0,
        "absoluteTick": 57360,
        "noteNumber": 68,
        "velocity": 80
    },
    {
        "track": 1,
        "absoluteTick": 57360,
        "noteNumber": 53,
        "velocity": 80
    },
    {
        "track": 1,
        "absoluteTick": 57480,
        "noteNumber": 51,
        "velocity": 80
    },
    {
        "track": 0,
        "absoluteTick": 57600,
        "noteNumber": 75,
        "velocity": 80
    },
    {
        "track": 0,
        "absoluteTick": 57600,
        "noteNumber": 70,
        "velocity": 80
    },
    {
        "track": 1,
        "absoluteTick": 57600,
        "noteNumber": 41,
        "velocity": 80
    },
    {
        "track": 0,
        "absoluteTick": 57720,
        "noteNumber": 75,
        "velocity": 80
    },
    {
        "track": 1,
        "absoluteTick": 57720,
        "noteNumber": 41,
        "velocity": 80
    },
    {
        "track": 0,
        "absoluteTick": 57960,
        "noteNumber": 77,
        "velocity": 80
    },
    {
        "track": 1,
        "absoluteTick": 57960,
        "noteNumber": 36,
        "velocity": 80
    },
    {
        "track": 0,
        "absoluteTick": 58080,
        "noteNumber": 77,
        "velocity": 80
    },
    {
        "track": 1,
        "absoluteTick": 58080,
        "noteNumber": 36,
        "velocity": 80
    },
    {
        "track": 0,
        "absoluteTick": 58320,
        "noteNumber": 70,
        "velocity": 80
    },
    {
        "track": 1,
        "absoluteTick": 58320,
        "noteNumber": 41,
        "velocity": 80
    },
    {
        "track": 0,
        "absoluteTick": 58440,
        "noteNumber": 70,
        "velocity": 80
    },
    {
        "track": 0,
        "absoluteTick": 58680,
        "noteNumber": 72,
        "velocity": 80
    },
    {
        "track": 1,
        "absoluteTick": 58680,
        "noteNumber": 36,
        "velocity": 80
    },
    {
        "track": 0,
        "absoluteTick": 58800,
        "noteNumber": 72,
        "velocity": 80
    },
    {
        "track": 1,
        "absoluteTick": 58800,
        "noteNumber": 39,
        "velocity": 80
    },
    {
        "track": 1,
        "absoluteTick": 58920,
        "noteNumber": 41,
        "velocity": 80
    },
    {
        "track": 0,
        "absoluteTick": 59040,
        "noteNumber": 68,
        "velocity": 80
    },
    {
        "track": 1,
        "absoluteTick": 59040,
        "noteNumber": 56,
        "velocity": 80
    },
    {
        "track": 1,
        "absoluteTick": 59160,
        "noteNumber": 55,
        "velocity": 80
    },
    {
        "track": 0,
        "absoluteTick": 59280,
        "noteNumber": 65,
        "velocity": 80
    },
    {
        "track": 1,
        "absoluteTick": 59280,
        "noteNumber": 53,
        "velocity": 80
    },
    {
        "track": 1,
        "absoluteTick": 59400,
        "noteNumber": 51,
        "velocity": 80
    },
    {
        "track": 0,
        "absoluteTick": 59520,
        "noteNumber": 73,
        "velocity": 80
    },
    {
        "track": 1,
        "absoluteTick": 59520,
        "noteNumber": 37,
        "velocity": 80
    },
    {
        "track": 0,
        "absoluteTick": 59640,
        "noteNumber": 73,
        "velocity": 80
    },
    {
        "track": 1,
        "absoluteTick": 59640,
        "noteNumber": 37,
        "velocity": 80
    },
    {
        "track": 0,
        "absoluteTick": 59880,
        "noteNumber": 68,
        "velocity": 80
    },
    {
        "track": 1,
        "absoluteTick": 59880,
        "noteNumber": 44,
        "velocity": 80
    },
    {
        "track": 0,
        "absoluteTick": 60000,
        "noteNumber": 68,
        "velocity": 80
    },
    {
        "track": 1,
        "absoluteTick": 60000,
        "noteNumber": 44,
        "velocity": 80
    },
    {
        "track": 0,
        "absoluteTick": 60240,
        "noteNumber": 75,
        "velocity": 80
    },
    {
        "track": 1,
        "absoluteTick": 60240,
        "noteNumber": 39,
        "velocity": 80
    },
    {
        "track": 0,
        "absoluteTick": 60360,
        "noteNumber": 75,
        "velocity": 80
    },
    {
        "track": 0,
        "absoluteTick": 60480,
        "noteNumber": 67,
        "velocity": 80
    },
    {
        "track": 0,
        "absoluteTick": 60600,
        "noteNumber": 80,
        "velocity": 80
    },
    {
        "track": 1,
        "absoluteTick": 60600,
        "noteNumber": 37,
        "velocity": 80
    },
    {
        "track": 0,
        "absoluteTick": 60720,
        "noteNumber": 80,
        "velocity": 80
    },
    {
        "track": 0,
        "absoluteTick": 60720,
        "noteNumber": 68,
        "velocity": 80
    },
    {
        "track": 1,
        "absoluteTick": 60720,
        "noteNumber": 39,
        "velocity": 80
    },
    {
        "track": 1,
        "absoluteTick": 60840,
        "noteNumber": 41,
        "velocity": 80
    },
    {
        "track": 0,
        "absoluteTick": 60960,
        "noteNumber": 79,
        "velocity": 80
    },
    {
        "track": 0,
        "absoluteTick": 60960,
        "noteNumber": 70,
        "velocity": 80
    },
    {
        "track": 1,
        "absoluteTick": 60960,
        "noteNumber": 56,
        "velocity": 80
    },
    {
        "track": 0,
        "absoluteTick": 61080,
        "noteNumber": 79,
        "velocity": 80
    },
    {
        "track": 1,
        "absoluteTick": 61080,
        "noteNumber": 55,
        "velocity": 80
    },
    {
        "track": 0,
        "absoluteTick": 61200,
        "noteNumber": 72,
        "velocity": 80
    },
    {
        "track": 1,
        "absoluteTick": 61200,
        "noteNumber": 53,
        "velocity": 80
    },
    {
        "track": 1,
        "absoluteTick": 61320,
        "noteNumber": 51,
        "velocity": 80
    },
    {
        "track": 0,
        "absoluteTick": 61440,
        "noteNumber": 75,
        "velocity": 80
    },
    {
        "track": 0,
        "absoluteTick": 61440,
        "noteNumber": 67,
        "velocity": 80
    },
    {
        "track": 1,
        "absoluteTick": 61440,
        "noteNumber": 41,
        "velocity": 80
    },
    {
        "track": 0,
        "absoluteTick": 61560,
        "noteNumber": 75,
        "velocity": 80
    },
    {
        "track": 1,
        "absoluteTick": 61560,
        "noteNumber": 41,
        "velocity": 80
    },
    {
        "track": 0,
        "absoluteTick": 61800,
        "noteNumber": 77,
        "velocity": 80
    },
    {
        "track": 1,
        "absoluteTick": 61800,
        "noteNumber": 36,
        "velocity": 80
    },
    {
        "track": 0,
        "absoluteTick": 61920,
        "noteNumber": 77,
        "velocity": 80
    },
    {
        "track": 1,
        "absoluteTick": 61920,
        "noteNumber": 36,
        "velocity": 80
    },
    {
        "track": 0,
        "absoluteTick": 62160,
        "noteNumber": 70,
        "velocity": 80
    },
    {
        "track": 1,
        "absoluteTick": 62160,
        "noteNumber": 41,
        "velocity": 80
    },
    {
        "track": 0,
        "absoluteTick": 62280,
        "noteNumber": 70,
        "velocity": 80
    },
    {
        "track": 0,
        "absoluteTick": 62520,
        "noteNumber": 72,
        "velocity": 80
    },
    {
        "track": 1,
        "absoluteTick": 62520,
        "noteNumber": 36,
        "velocity": 80
    },
    {
        "track": 0,
        "absoluteTick": 62640,
        "noteNumber": 72,
        "velocity": 80
    },
    {
        "track": 1,
        "absoluteTick": 62640,
        "noteNumber": 39,
        "velocity": 80
    },
    {
        "track": 1,
        "absoluteTick": 62760,
        "noteNumber": 41,
        "velocity": 80
    },
    {
        "track": 0,
        "absoluteTick": 62880,
        "noteNumber": 68,
        "velocity": 80
    },
    {
        "track": 1,
        "absoluteTick": 62880,
        "noteNumber": 56,
        "velocity": 80
    },
    {
        "track": 1,
        "absoluteTick": 63000,
        "noteNumber": 55,
        "velocity": 80
    },
    {
        "track": 0,
        "absoluteTick": 63120,
        "noteNumber": 65,
        "velocity": 80
    },
    {
        "track": 1,
        "absoluteTick": 63120,
        "noteNumber": 53,
        "velocity": 80
    },
    {
        "track": 1,
        "absoluteTick": 63240,
        "noteNumber": 51,
        "velocity": 80
    },
    {
        "track": 0,
        "absoluteTick": 63360,
        "noteNumber": 73,
        "velocity": 80
    },
    {
        "track": 1,
        "absoluteTick": 63360,
        "noteNumber": 37,
        "velocity": 80
    },
    {
        "track": 0,
        "absoluteTick": 63480,
        "noteNumber": 73,
        "velocity": 80
    },
    {
        "track": 1,
        "absoluteTick": 63480,
        "noteNumber": 37,
        "velocity": 80
    },
    {
        "track": 0,
        "absoluteTick": 63720,
        "noteNumber": 68,
        "velocity": 80
    },
    {
        "track": 1,
        "absoluteTick": 63720,
        "noteNumber": 44,
        "velocity": 80
    },
    {
        "track": 0,
        "absoluteTick": 63840,
        "noteNumber": 68,
        "velocity": 80
    },
    {
        "track": 1,
        "absoluteTick": 63840,
        "noteNumber": 44,
        "velocity": 80
    },
    {
        "track": 0,
        "absoluteTick": 64080,
        "noteNumber": 75,
        "velocity": 80
    },
    {
        "track": 1,
        "absoluteTick": 64080,
        "noteNumber": 39,
        "velocity": 80
    },
    {
        "track": 0,
        "absoluteTick": 64200,
        "noteNumber": 75,
        "velocity": 80
    },
    {
        "track": 0,
        "absoluteTick": 64440,
        "noteNumber": 68,
        "velocity": 80
    },
    {
        "track": 1,
        "absoluteTick": 64440,
        "noteNumber": 37,
        "velocity": 80
    },
    {
        "track": 0,
        "absoluteTick": 64560,
        "noteNumber": 68,
        "velocity": 80
    },
    {
        "track": 1,
        "absoluteTick": 64560,
        "noteNumber": 39,
        "velocity": 80
    },
    {
        "track": 1,
        "absoluteTick": 64680,
        "noteNumber": 41,
        "velocity": 80
    },
    {
        "track": 0,
        "absoluteTick": 64800,
        "noteNumber": 67,
        "velocity": 80
    },
    {
        "track": 1,
        "absoluteTick": 64800,
        "noteNumber": 56,
        "velocity": 80
    },
    {
        "track": 1,
        "absoluteTick": 64920,
        "noteNumber": 55,
        "velocity": 80
    },
    {
        "track": 0,
        "absoluteTick": 65040,
        "noteNumber": 63,
        "velocity": 80
    },
    {
        "track": 1,
        "absoluteTick": 65040,
        "noteNumber": 53,
        "velocity": 80
    },
    {
        "track": 1,
        "absoluteTick": 65160,
        "noteNumber": 51,
        "velocity": 80
    },
    {
        "track": 0,
        "absoluteTick": 65280,
        "noteNumber": 75,
        "velocity": 80
    },
    {
        "track": 0,
        "absoluteTick": 65280,
        "noteNumber": 67,
        "velocity": 80
    },
    {
        "track": 1,
        "absoluteTick": 65280,
        "noteNumber": 41,
        "velocity": 80
    },
    {
        "track": 0,
        "absoluteTick": 65400,
        "noteNumber": 75,
        "velocity": 80
    },
    {
        "track": 1,
        "absoluteTick": 65400,
        "noteNumber": 41,
        "velocity": 80
    },
    {
        "track": 0,
        "absoluteTick": 65640,
        "noteNumber": 77,
        "velocity": 80
    },
    {
        "track": 1,
        "absoluteTick": 65640,
        "noteNumber": 36,
        "velocity": 80
    },
    {
        "track": 0,
        "absoluteTick": 65760,
        "noteNumber": 77,
        "velocity": 80
    },
    {
        "track": 1,
        "absoluteTick": 65760,
        "noteNumber": 36,
        "velocity": 80
    },
    {
        "track": 0,
        "absoluteTick": 66000,
        "noteNumber": 70,
        "velocity": 80
    },
    {
        "track": 1,
        "absoluteTick": 66000,
        "noteNumber": 41,
        "velocity": 80
    },
    {
        "track": 0,
        "absoluteTick": 66120,
        "noteNumber": 70,
        "velocity": 80
    },
    {
        "track": 0,
        "absoluteTick": 66360,
        "noteNumber": 72,
        "velocity": 80
    },
    {
        "track": 1,
        "absoluteTick": 66360,
        "noteNumber": 36,
        "velocity": 80
    },
    {
        "track": 0,
        "absoluteTick": 66480,
        "noteNumber": 72,
        "velocity": 80
    },
    {
        "track": 1,
        "absoluteTick": 66480,
        "noteNumber": 39,
        "velocity": 80
    },
    {
        "track": 1,
        "absoluteTick": 66600,
        "noteNumber": 41,
        "velocity": 80
    },
    {
        "track": 0,
        "absoluteTick": 66720,
        "noteNumber": 68,
        "velocity": 80
    },
    {
        "track": 0,
        "absoluteTick": 66720,
        "noteNumber": 65,
        "velocity": 80
    },
    {
        "track": 1,
        "absoluteTick": 66720,
        "noteNumber": 56,
        "velocity": 80
    },
    {
        "track": 1,
        "absoluteTick": 66840,
        "noteNumber": 55,
        "velocity": 80
    },
    {
        "track": 0,
        "absoluteTick": 66960,
        "noteNumber": 65,
        "velocity": 80
    },
    {
        "track": 1,
        "absoluteTick": 66960,
        "noteNumber": 53,
        "velocity": 80
    },
    {
        "track": 1,
        "absoluteTick": 67080,
        "noteNumber": 51,
        "velocity": 80
    },
    {
        "track": 0,
        "absoluteTick": 67200,
        "noteNumber": 73,
        "velocity": 80
    },
    {
        "track": 0,
        "absoluteTick": 67200,
        "noteNumber": 60,
        "velocity": 80
    },
    {
        "track": 1,
        "absoluteTick": 67200,
        "noteNumber": 37,
        "velocity": 80
    },
    {
        "track": 0,
        "absoluteTick": 67320,
        "noteNumber": 73,
        "velocity": 80
    },
    {
        "track": 1,
        "absoluteTick": 67320,
        "noteNumber": 37,
        "velocity": 80
    },
    {
        "track": 0,
        "absoluteTick": 67560,
        "noteNumber": 68,
        "velocity": 80
    },
    {
        "track": 1,
        "absoluteTick": 67560,
        "noteNumber": 44,
        "velocity": 80
    },
    {
        "track": 0,
        "absoluteTick": 67680,
        "noteNumber": 68,
        "velocity": 80
    },
    {
        "track": 1,
        "absoluteTick": 67680,
        "noteNumber": 44,
        "velocity": 80
    },
    {
        "track": 0,
        "absoluteTick": 67920,
        "noteNumber": 75,
        "velocity": 80
    },
    {
        "track": 1,
        "absoluteTick": 67920,
        "noteNumber": 39,
        "velocity": 80
    },
    {
        "track": 0,
        "absoluteTick": 68040,
        "noteNumber": 75,
        "velocity": 80
    },
    {
        "track": 0,
        "absoluteTick": 68280,
        "noteNumber": 80,
        "velocity": 80
    },
    {
        "track": 1,
        "absoluteTick": 68280,
        "noteNumber": 37,
        "velocity": 80
    },
    {
        "track": 0,
        "absoluteTick": 68400,
        "noteNumber": 80,
        "velocity": 80
    },
    {
        "track": 1,
        "absoluteTick": 68400,
        "noteNumber": 39,
        "velocity": 80
    },
    {
        "track": 1,
        "absoluteTick": 68520,
        "noteNumber": 41,
        "velocity": 80
    },
    {
        "track": 0,
        "absoluteTick": 68640,
        "noteNumber": 79,
        "velocity": 80
    },
    {
        "track": 1,
        "absoluteTick": 68640,
        "noteNumber": 56,
        "velocity": 80
    },
    {
        "track": 0,
        "absoluteTick": 68760,
        "noteNumber": 79,
        "velocity": 80
    },
    {
        "track": 1,
        "absoluteTick": 68760,
        "noteNumber": 55,
        "velocity": 80
    },
    {
        "track": 1,
        "absoluteTick": 68880,
        "noteNumber": 53,
        "velocity": 80
    },
    {
        "track": 1,
        "absoluteTick": 69000,
        "noteNumber": 51,
        "velocity": 80
    },
    {
        "track": 0,
        "absoluteTick": 69120,
        "noteNumber": 75,
        "velocity": 80
    },
    {
        "track": 0,
        "absoluteTick": 69120,
        "noteNumber": 60,
        "velocity": 80
    },
    {
        "track": 1,
        "absoluteTick": 69120,
        "noteNumber": 41,
        "velocity": 80
    },
    {
        "track": 0,
        "absoluteTick": 69240,
        "noteNumber": 75,
        "velocity": 80
    },
    {
        "track": 1,
        "absoluteTick": 69240,
        "noteNumber": 41,
        "velocity": 80
    },
    {
        "track": 0,
        "absoluteTick": 69480,
        "noteNumber": 77,
        "velocity": 80
    },
    {
        "track": 0,
        "absoluteTick": 69480,
        "noteNumber": 65,
        "velocity": 80
    },
    {
        "track": 1,
        "absoluteTick": 69480,
        "noteNumber": 36,
        "velocity": 80
    },
    {
        "track": 0,
        "absoluteTick": 69600,
        "noteNumber": 77,
        "velocity": 80
    },
    {
        "track": 1,
        "absoluteTick": 69600,
        "noteNumber": 36,
        "velocity": 80
    },
    {
        "track": 0,
        "absoluteTick": 69840,
        "noteNumber": 70,
        "velocity": 80
    },
    {
        "track": 0,
        "absoluteTick": 69840,
        "noteNumber": 68,
        "velocity": 80
    },
    {
        "track": 1,
        "absoluteTick": 69840,
        "noteNumber": 41,
        "velocity": 80
    },
    {
        "track": 0,
        "absoluteTick": 69960,
        "noteNumber": 70,
        "velocity": 80
    },
    {
        "track": 0,
        "absoluteTick": 70080,
        "noteNumber": 65,
        "velocity": 80
    },
    {
        "track": 0,
        "absoluteTick": 70200,
        "noteNumber": 72,
        "velocity": 80
    },
    {
        "track": 1,
        "absoluteTick": 70200,
        "noteNumber": 36,
        "velocity": 80
    },
    {
        "track": 0,
        "absoluteTick": 70320,
        "noteNumber": 72,
        "velocity": 80
    },
    {
        "track": 1,
        "absoluteTick": 70320,
        "noteNumber": 39,
        "velocity": 80
    },
    {
        "track": 1,
        "absoluteTick": 70440,
        "noteNumber": 41,
        "velocity": 80
    },
    {
        "track": 0,
        "absoluteTick": 70560,
        "noteNumber": 68,
        "velocity": 80
    },
    {
        "track": 1,
        "absoluteTick": 70560,
        "noteNumber": 56,
        "velocity": 80
    },
    {
        "track": 1,
        "absoluteTick": 70680,
        "noteNumber": 55,
        "velocity": 80
    },
    {
        "track": 0,
        "absoluteTick": 70800,
        "noteNumber": 65,
        "velocity": 80
    },
    {
        "track": 1,
        "absoluteTick": 70800,
        "noteNumber": 53,
        "velocity": 80
    },
    {
        "track": 1,
        "absoluteTick": 70920,
        "noteNumber": 51,
        "velocity": 80
    },
    {
        "track": 0,
        "absoluteTick": 71040,
        "noteNumber": 73,
        "velocity": 80
    },
    {
        "track": 1,
        "absoluteTick": 71040,
        "noteNumber": 37,
        "velocity": 80
    },
    {
        "track": 0,
        "absoluteTick": 71160,
        "noteNumber": 73,
        "velocity": 80
    },
    {
        "track": 1,
        "absoluteTick": 71160,
        "noteNumber": 37,
        "velocity": 80
    },
    {
        "track": 0,
        "absoluteTick": 71400,
        "noteNumber": 68,
        "velocity": 80
    },
    {
        "track": 1,
        "absoluteTick": 71400,
        "noteNumber": 44,
        "velocity": 80
    },
    {
        "track": 0,
        "absoluteTick": 71520,
        "noteNumber": 68,
        "velocity": 80
    },
    {
        "track": 1,
        "absoluteTick": 71520,
        "noteNumber": 44,
        "velocity": 80
    },
    {
        "track": 0,
        "absoluteTick": 71760,
        "noteNumber": 75,
        "velocity": 80
    },
    {
        "track": 1,
        "absoluteTick": 71760,
        "noteNumber": 39,
        "velocity": 80
    },
    {
        "track": 0,
        "absoluteTick": 71880,
        "noteNumber": 75,
        "velocity": 80
    },
    {
        "track": 0,
        "absoluteTick": 72120,
        "noteNumber": 68,
        "velocity": 80
    },
    {
        "track": 1,
        "absoluteTick": 72120,
        "noteNumber": 37,
        "velocity": 80
    },
    {
        "track": 0,
        "absoluteTick": 72240,
        "noteNumber": 68,
        "velocity": 80
    },
    {
        "track": 1,
        "absoluteTick": 72240,
        "noteNumber": 39,
        "velocity": 80
    },
    {
        "track": 1,
        "absoluteTick": 72360,
        "noteNumber": 41,
        "velocity": 80
    },
    {
        "track": 0,
        "absoluteTick": 72480,
        "noteNumber": 67,
        "velocity": 80
    },
    {
        "track": 0,
        "absoluteTick": 72480,
        "noteNumber": 67,
        "velocity": 80
    },
    {
        "track": 1,
        "absoluteTick": 72480,
        "noteNumber": 56,
        "velocity": 80
    },
    {
        "track": 1,
        "absoluteTick": 72600,
        "noteNumber": 55,
        "velocity": 80
    },
    {
        "track": 0,
        "absoluteTick": 72720,
        "noteNumber": 63,
        "velocity": 80
    },
    {
        "track": 0,
        "absoluteTick": 72720,
        "noteNumber": 68,
        "velocity": 80
    },
    {
        "track": 1,
        "absoluteTick": 72720,
        "noteNumber": 53,
        "velocity": 80
    },
    {
        "track": 1,
        "absoluteTick": 72840,
        "noteNumber": 51,
        "velocity": 80
    },
    {
        "track": 0,
        "absoluteTick": 72960,
        "noteNumber": 75,
        "velocity": 80
    },
    {
        "track": 0,
        "absoluteTick": 72960,
        "noteNumber": 70,
        "velocity": 80
    },
    {
        "track": 1,
        "absoluteTick": 72960,
        "noteNumber": 41,
        "velocity": 80
    },
    {
        "track": 0,
        "absoluteTick": 73080,
        "noteNumber": 75,
        "velocity": 80
    },
    {
        "track": 1,
        "absoluteTick": 73080,
        "noteNumber": 41,
        "velocity": 80
    },
    {
        "track": 0,
        "absoluteTick": 73320,
        "noteNumber": 77,
        "velocity": 80
    },
    {
        "track": 1,
        "absoluteTick": 73320,
        "noteNumber": 36,
        "velocity": 80
    },
    {
        "track": 0,
        "absoluteTick": 73440,
        "noteNumber": 77,
        "velocity": 80
    },
    {
        "track": 1,
        "absoluteTick": 73440,
        "noteNumber": 36,
        "velocity": 80
    },
    {
        "track": 0,
        "absoluteTick": 73680,
        "noteNumber": 70,
        "velocity": 80
    },
    {
        "track": 1,
        "absoluteTick": 73680,
        "noteNumber": 41,
        "velocity": 80
    },
    {
        "track": 0,
        "absoluteTick": 73800,
        "noteNumber": 70,
        "velocity": 80
    },
    {
        "track": 0,
        "absoluteTick": 74040,
        "noteNumber": 72,
        "velocity": 80
    },
    {
        "track": 1,
        "absoluteTick": 74040,
        "noteNumber": 36,
        "velocity": 80
    },
    {
        "track": 0,
        "absoluteTick": 74160,
        "noteNumber": 72,
        "velocity": 80
    },
    {
        "track": 1,
        "absoluteTick": 74160,
        "noteNumber": 39,
        "velocity": 80
    },
    {
        "track": 1,
        "absoluteTick": 74280,
        "noteNumber": 41,
        "velocity": 80
    },
    {
        "track": 0,
        "absoluteTick": 74400,
        "noteNumber": 68,
        "velocity": 80
    },
    {
        "track": 1,
        "absoluteTick": 74400,
        "noteNumber": 56,
        "velocity": 80
    },
    {
        "track": 1,
        "absoluteTick": 74520,
        "noteNumber": 55,
        "velocity": 80
    },
    {
        "track": 0,
        "absoluteTick": 74640,
        "noteNumber": 65,
        "velocity": 80
    },
    {
        "track": 1,
        "absoluteTick": 74640,
        "noteNumber": 53,
        "velocity": 80
    },
    {
        "track": 1,
        "absoluteTick": 74760,
        "noteNumber": 51,
        "velocity": 80
    },
    {
        "track": 0,
        "absoluteTick": 74880,
        "noteNumber": 73,
        "velocity": 80
    },
    {
        "track": 1,
        "absoluteTick": 74880,
        "noteNumber": 37,
        "velocity": 80
    },
    {
        "track": 0,
        "absoluteTick": 75000,
        "noteNumber": 73,
        "velocity": 80
    },
    {
        "track": 1,
        "absoluteTick": 75000,
        "noteNumber": 37,
        "velocity": 80
    },
    {
        "track": 0,
        "absoluteTick": 75240,
        "noteNumber": 68,
        "velocity": 80
    },
    {
        "track": 1,
        "absoluteTick": 75240,
        "noteNumber": 44,
        "velocity": 80
    },
    {
        "track": 0,
        "absoluteTick": 75360,
        "noteNumber": 68,
        "velocity": 80
    },
    {
        "track": 1,
        "absoluteTick": 75360,
        "noteNumber": 44,
        "velocity": 80
    },
    {
        "track": 0,
        "absoluteTick": 75600,
        "noteNumber": 75,
        "velocity": 80
    },
    {
        "track": 1,
        "absoluteTick": 75600,
        "noteNumber": 39,
        "velocity": 80
    },
    {
        "track": 0,
        "absoluteTick": 75720,
        "noteNumber": 75,
        "velocity": 80
    },
    {
        "track": 0,
        "absoluteTick": 75840,
        "noteNumber": 67,
        "velocity": 80
    },
    {
        "track": 0,
        "absoluteTick": 75960,
        "noteNumber": 80,
        "velocity": 80
    },
    {
        "track": 1,
        "absoluteTick": 75960,
        "noteNumber": 37,
        "velocity": 80
    },
    {
        "track": 0,
        "absoluteTick": 76080,
        "noteNumber": 80,
        "velocity": 80
    },
    {
        "track": 0,
        "absoluteTick": 76080,
        "noteNumber": 68,
        "velocity": 80
    },
    {
        "track": 1,
        "absoluteTick": 76080,
        "noteNumber": 39,
        "velocity": 80
    },
    {
        "track": 1,
        "absoluteTick": 76200,
        "noteNumber": 41,
        "velocity": 80
    },
    {
        "track": 0,
        "absoluteTick": 76320,
        "noteNumber": 79,
        "velocity": 80
    },
    {
        "track": 0,
        "absoluteTick": 76320,
        "noteNumber": 70,
        "velocity": 80
    },
    {
        "track": 1,
        "absoluteTick": 76320,
        "noteNumber": 56,
        "velocity": 80
    },
    {
        "track": 0,
        "absoluteTick": 76440,
        "noteNumber": 79,
        "velocity": 80
    },
    {
        "track": 1,
        "absoluteTick": 76440,
        "noteNumber": 55,
        "velocity": 80
    },
    {
        "track": 0,
        "absoluteTick": 76560,
        "noteNumber": 72,
        "velocity": 80
    },
    {
        "track": 1,
        "absoluteTick": 76560,
        "noteNumber": 53,
        "velocity": 80
    },
    {
        "track": 1,
        "absoluteTick": 76680,
        "noteNumber": 51,
        "velocity": 80
    },
    {
        "track": 0,
        "absoluteTick": 76800,
        "noteNumber": 75,
        "velocity": 80
    },
    {
        "track": 0,
        "absoluteTick": 76800,
        "noteNumber": 75,
        "velocity": 80
    },
    {
        "track": 1,
        "absoluteTick": 76800,
        "noteNumber": 41,
        "velocity": 80
    },
    {
        "track": 0,
        "absoluteTick": 76920,
        "noteNumber": 75,
        "velocity": 80
    },
    {
        "track": 1,
        "absoluteTick": 76920,
        "noteNumber": 41,
        "velocity": 80
    },
    {
        "track": 0,
        "absoluteTick": 77160,
        "noteNumber": 77,
        "velocity": 80
    },
    {
        "track": 1,
        "absoluteTick": 77160,
        "noteNumber": 36,
        "velocity": 80
    },
    {
        "track": 0,
        "absoluteTick": 77280,
        "noteNumber": 77,
        "velocity": 80
    },
    {
        "track": 1,
        "absoluteTick": 77280,
        "noteNumber": 36,
        "velocity": 80
    },
    {
        "track": 0,
        "absoluteTick": 77520,
        "noteNumber": 70,
        "velocity": 80
    },
    {
        "track": 1,
        "absoluteTick": 77520,
        "noteNumber": 41,
        "velocity": 80
    },
    {
        "track": 0,
        "absoluteTick": 77640,
        "noteNumber": 70,
        "velocity": 80
    },
    {
        "track": 0,
        "absoluteTick": 77880,
        "noteNumber": 72,
        "velocity": 80
    },
    {
        "track": 1,
        "absoluteTick": 77880,
        "noteNumber": 36,
        "velocity": 80
    },
    {
        "track": 0,
        "absoluteTick": 78000,
        "noteNumber": 72,
        "velocity": 80
    },
    {
        "track": 1,
        "absoluteTick": 78000,
        "noteNumber": 39,
        "velocity": 80
    },
    {
        "track": 1,
        "absoluteTick": 78120,
        "noteNumber": 41,
        "velocity": 80
    },
    {
        "track": 0,
        "absoluteTick": 78240,
        "noteNumber": 68,
        "velocity": 80
    },
    {
        "track": 1,
        "absoluteTick": 78240,
        "noteNumber": 56,
        "velocity": 80
    },
    {
        "track": 1,
        "absoluteTick": 78360,
        "noteNumber": 55,
        "velocity": 80
    },
    {
        "track": 0,
        "absoluteTick": 78480,
        "noteNumber": 65,
        "velocity": 80
    },
    {
        "track": 1,
        "absoluteTick": 78480,
        "noteNumber": 53,
        "velocity": 80
    },
    {
        "track": 1,
        "absoluteTick": 78600,
        "noteNumber": 51,
        "velocity": 80
    },
    {
        "track": 0,
        "absoluteTick": 78720,
        "noteNumber": 73,
        "velocity": 80
    },
    {
        "track": 1,
        "absoluteTick": 78720,
        "noteNumber": 37,
        "velocity": 80
    },
    {
        "track": 0,
        "absoluteTick": 78840,
        "noteNumber": 73,
        "velocity": 80
    },
    {
        "track": 1,
        "absoluteTick": 78840,
        "noteNumber": 37,
        "velocity": 80
    },
    {
        "track": 0,
        "absoluteTick": 79080,
        "noteNumber": 68,
        "velocity": 80
    },
    {
        "track": 1,
        "absoluteTick": 79080,
        "noteNumber": 44,
        "velocity": 80
    },
    {
        "track": 0,
        "absoluteTick": 79200,
        "noteNumber": 68,
        "velocity": 80
    },
    {
        "track": 1,
        "absoluteTick": 79200,
        "noteNumber": 44,
        "velocity": 80
    },
    {
        "track": 0,
        "absoluteTick": 79440,
        "noteNumber": 75,
        "velocity": 80
    },
    {
        "track": 1,
        "absoluteTick": 79440,
        "noteNumber": 39,
        "velocity": 80
    },
    {
        "track": 0,
        "absoluteTick": 79560,
        "noteNumber": 75,
        "velocity": 80
    },
    {
        "track": 0,
        "absoluteTick": 79800,
        "noteNumber": 68,
        "velocity": 80
    },
    {
        "track": 1,
        "absoluteTick": 79800,
        "noteNumber": 37,
        "velocity": 80
    },
    {
        "track": 0,
        "absoluteTick": 79920,
        "noteNumber": 68,
        "velocity": 80
    },
    {
        "track": 1,
        "absoluteTick": 79920,
        "noteNumber": 39,
        "velocity": 80
    },
    {
        "track": 1,
        "absoluteTick": 80040,
        "noteNumber": 41,
        "velocity": 80
    },
    {
        "track": 0,
        "absoluteTick": 80160,
        "noteNumber": 67,
        "velocity": 80
    },
    {
        "track": 0,
        "absoluteTick": 80160,
        "noteNumber": 77,
        "velocity": 80
    },
    {
        "track": 1,
        "absoluteTick": 80160,
        "noteNumber": 56,
        "velocity": 80
    },
    {
        "track": 1,
        "absoluteTick": 80280,
        "noteNumber": 55,
        "velocity": 80
    },
    {
        "track": 0,
        "absoluteTick": 80400,
        "noteNumber": 63,
        "velocity": 80
    },
    {
        "track": 1,
        "absoluteTick": 80400,
        "noteNumber": 53,
        "velocity": 80
    },
    {
        "track": 1,
        "absoluteTick": 80520,
        "noteNumber": 51,
        "velocity": 80
    },
    {
        "track": 0,
        "absoluteTick": 80640,
        "noteNumber": 75,
        "velocity": 80
    },
    {
        "track": 0,
        "absoluteTick": 80640,
        "noteNumber": 69,
        "velocity": 80
    },
    {
        "track": 0,
        "absoluteTick": 80640,
        "noteNumber": 72,
        "velocity": 80
    },
    {
        "track": 1,
        "absoluteTick": 80640,
        "noteNumber": 41,
        "velocity": 80
    },
    {
        "track": 0,
        "absoluteTick": 80760,
        "noteNumber": 75,
        "velocity": 80
    },
    {
        "track": 1,
        "absoluteTick": 80760,
        "noteNumber": 41,
        "velocity": 80
    },
    {
        "track": 0,
        "absoluteTick": 81000,
        "noteNumber": 77,
        "velocity": 80
    },
    {
        "track": 1,
        "absoluteTick": 81000,
        "noteNumber": 36,
        "velocity": 80
    },
    {
        "track": 0,
        "absoluteTick": 81120,
        "noteNumber": 77,
        "velocity": 80
    },
    {
        "track": 1,
        "absoluteTick": 81120,
        "noteNumber": 36,
        "velocity": 80
    },
    {
        "track": 0,
        "absoluteTick": 81360,
        "noteNumber": 70,
        "velocity": 80
    },
    {
        "track": 1,
        "absoluteTick": 81360,
        "noteNumber": 41,
        "velocity": 80
    },
    {
        "track": 0,
        "absoluteTick": 81480,
        "noteNumber": 70,
        "velocity": 80
    },
    {
        "track": 0,
        "absoluteTick": 81720,
        "noteNumber": 72,
        "velocity": 80
    },
    {
        "track": 1,
        "absoluteTick": 81720,
        "noteNumber": 36,
        "velocity": 80
    },
    {
        "track": 0,
        "absoluteTick": 81840,
        "noteNumber": 72,
        "velocity": 80
    },
    {
        "track": 1,
        "absoluteTick": 81840,
        "noteNumber": 39,
        "velocity": 80
    },
    {
        "track": 1,
        "absoluteTick": 81960,
        "noteNumber": 41,
        "velocity": 80
    },
    {
        "track": 0,
        "absoluteTick": 82080,
        "noteNumber": 68,
        "velocity": 80
    },
    {
        "track": 1,
        "absoluteTick": 82080,
        "noteNumber": 56,
        "velocity": 80
    },
    {
        "track": 1,
        "absoluteTick": 82200,
        "noteNumber": 55,
        "velocity": 80
    },
    {
        "track": 0,
        "absoluteTick": 82320,
        "noteNumber": 65,
        "velocity": 80
    },
    {
        "track": 1,
        "absoluteTick": 82320,
        "noteNumber": 53,
        "velocity": 80
    },
    {
        "track": 1,
        "absoluteTick": 82440,
        "noteNumber": 51,
        "velocity": 80
    },
    {
        "track": 0,
        "absoluteTick": 82560,
        "noteNumber": 73,
        "velocity": 80
    },
    {
        "track": 1,
        "absoluteTick": 82560,
        "noteNumber": 37,
        "velocity": 80
    },
    {
        "track": 0,
        "absoluteTick": 82680,
        "noteNumber": 73,
        "velocity": 80
    },
    {
        "track": 1,
        "absoluteTick": 82680,
        "noteNumber": 37,
        "velocity": 80
    },
    {
        "track": 0,
        "absoluteTick": 82920,
        "noteNumber": 68,
        "velocity": 80
    },
    {
        "track": 1,
        "absoluteTick": 82920,
        "noteNumber": 44,
        "velocity": 80
    },
    {
        "track": 0,
        "absoluteTick": 83040,
        "noteNumber": 68,
        "velocity": 80
    },
    {
        "track": 1,
        "absoluteTick": 83040,
        "noteNumber": 44,
        "velocity": 80
    },
    {
        "track": 0,
        "absoluteTick": 83280,
        "noteNumber": 75,
        "velocity": 80
    },
    {
        "track": 1,
        "absoluteTick": 83280,
        "noteNumber": 39,
        "velocity": 80
    },
    {
        "track": 0,
        "absoluteTick": 83400,
        "noteNumber": 75,
        "velocity": 80
    },
    {
        "track": 0,
        "absoluteTick": 83640,
        "noteNumber": 80,
        "velocity": 80
    },
    {
        "track": 1,
        "absoluteTick": 83640,
        "noteNumber": 37,
        "velocity": 80
    },
    {
        "track": 0,
        "absoluteTick": 83760,
        "noteNumber": 80,
        "velocity": 80
    },
    {
        "track": 1,
        "absoluteTick": 83760,
        "noteNumber": 39,
        "velocity": 80
    },
    {
        "track": 1,
        "absoluteTick": 83880,
        "noteNumber": 41,
        "velocity": 80
    },
    {
        "track": 0,
        "absoluteTick": 84000,
        "noteNumber": 79,
        "velocity": 80
    },
    {
        "track": 1,
        "absoluteTick": 84000,
        "noteNumber": 56,
        "velocity": 80
    },
    {
        "track": 0,
        "absoluteTick": 84120,
        "noteNumber": 79,
        "velocity": 80
    },
    {
        "track": 1,
        "absoluteTick": 84120,
        "noteNumber": 55,
        "velocity": 80
    },
    {
        "track": 1,
        "absoluteTick": 84240,
        "noteNumber": 53,
        "velocity": 80
    },
    {
        "track": 1,
        "absoluteTick": 84360,
        "noteNumber": 51,
        "velocity": 80
    },
    {
        "track": 0,
        "absoluteTick": 84480,
        "noteNumber": 65,
        "velocity": 80
    },
    {
        "track": 1,
        "absoluteTick": 84480,
        "noteNumber": 49,
        "velocity": 80
    },
    {
        "track": 1,
        "absoluteTick": 84543,
        "noteNumber": 51,
        "velocity": 80
    },
    {
        "track": 1,
        "absoluteTick": 84606,
        "noteNumber": 56,
        "velocity": 80
    },
    {
        "track": 0,
        "absoluteTick": 84720,
        "noteNumber": 72,
        "velocity": 80
    },
    {
        "track": 0,
        "absoluteTick": 84960,
        "noteNumber": 70,
        "velocity": 80
    },
    {
        "track": 0,
        "absoluteTick": 85200,
        "noteNumber": 72,
        "velocity": 80
    },
    {
        "track": 0,
        "absoluteTick": 85440,
        "noteNumber": 68,
        "velocity": 80
    },
    {
        "track": 0,
        "absoluteTick": 85680,
        "noteNumber": 72,
        "velocity": 80
    },
    {
        "track": 0,
        "absoluteTick": 85920,
        "noteNumber": 67,
        "velocity": 80
    },
    {
        "track": 1,
        "absoluteTick": 85920,
        "noteNumber": 46,
        "velocity": 80
    },
    {
        "track": 1,
        "absoluteTick": 85983,
        "noteNumber": 51,
        "velocity": 80
    },
    {
        "track": 1,
        "absoluteTick": 86046,
        "noteNumber": 53,
        "velocity": 80
    },
    {
        "track": 0,
        "absoluteTick": 86400,
        "noteNumber": 67,
        "velocity": 80
    },
    {
        "track": 0,
        "absoluteTick": 86640,
        "noteNumber": 68,
        "velocity": 80
    },
    {
        "track": 0,
        "absoluteTick": 86880,
        "noteNumber": 67,
        "velocity": 80
    },
    {
        "track": 0,
        "absoluteTick": 87120,
        "noteNumber": 68,
        "velocity": 80
    },
    {
        "track": 0,
        "absoluteTick": 87360,
        "noteNumber": 67,
        "velocity": 80
    },
    {
        "track": 1,
        "absoluteTick": 87360,
        "noteNumber": 41,
        "velocity": 80
    },
    {
        "track": 1,
        "absoluteTick": 87423,
        "noteNumber": 46,
        "velocity": 80
    },
    {
        "track": 1,
        "absoluteTick": 87486,
        "noteNumber": 51,
        "velocity": 80
    },
    {
        "track": 0,
        "absoluteTick": 88080,
        "noteNumber": 70,
        "velocity": 80
    },
    {
        "track": 0,
        "absoluteTick": 88800,
        "noteNumber": 65,
        "velocity": 80
    },
    {
        "track": 1,
        "absoluteTick": 88800,
        "noteNumber": 41,
        "velocity": 80
    },
    {
        "track": 1,
        "absoluteTick": 88863,
        "noteNumber": 44,
        "velocity": 80
    },
    {
        "track": 1,
        "absoluteTick": 88927,
        "noteNumber": 51,
        "velocity": 80
    },
    {
        "track": 0,
        "absoluteTick": 89520,
        "noteNumber": 63,
        "velocity": 80
    },
    {
        "track": 1,
        "absoluteTick": 89760,
        "noteNumber": 43,
        "velocity": 80
    },
    {
        "track": 0,
        "absoluteTick": 90240,
        "noteNumber": 65,
        "velocity": 80
    },
    {
        "track": 1,
        "absoluteTick": 90240,
        "noteNumber": 49,
        "velocity": 80
    },
    {
        "track": 1,
        "absoluteTick": 90303,
        "noteNumber": 51,
        "velocity": 80
    },
    {
        "track": 1,
        "absoluteTick": 90366,
        "noteNumber": 56,
        "velocity": 80
    },
    {
        "track": 0,
        "absoluteTick": 90480,
        "noteNumber": 72,
        "velocity": 80
    },
    {
        "track": 0,
        "absoluteTick": 90720,
        "noteNumber": 70,
        "velocity": 80
    },
    {
        "track": 0,
        "absoluteTick": 90960,
        "noteNumber": 72,
        "velocity": 80
    },
    {
        "track": 0,
        "absoluteTick": 91200,
        "noteNumber": 68,
        "velocity": 80
    },
    {
        "track": 0,
        "absoluteTick": 91440,
        "noteNumber": 72,
        "velocity": 80
    },
    {
        "track": 0,
        "absoluteTick": 91680,
        "noteNumber": 67,
        "velocity": 80
    },
    {
        "track": 1,
        "absoluteTick": 91680,
        "noteNumber": 46,
        "velocity": 80
    },
    {
        "track": 1,
        "absoluteTick": 91743,
        "noteNumber": 51,
        "velocity": 80
    },
    {
        "track": 1,
        "absoluteTick": 91806,
        "noteNumber": 53,
        "velocity": 80
    },
    {
        "track": 0,
        "absoluteTick": 92160,
        "noteNumber": 67,
        "velocity": 80
    },
    {
        "track": 0,
        "absoluteTick": 92400,
        "noteNumber": 68,
        "velocity": 80
    },
    {
        "track": 0,
        "absoluteTick": 92640,
        "noteNumber": 67,
        "velocity": 80
    },
    {
        "track": 0,
        "absoluteTick": 92880,
        "noteNumber": 68,
        "velocity": 80
    },
    {
        "track": 0,
        "absoluteTick": 93120,
        "noteNumber": 67,
        "velocity": 80
    },
    {
        "track": 1,
        "absoluteTick": 93120,
        "noteNumber": 46,
        "velocity": 80
    },
    {
        "track": 1,
        "absoluteTick": 93183,
        "noteNumber": 48,
        "velocity": 80
    },
    {
        "track": 1,
        "absoluteTick": 93246,
        "noteNumber": 55,
        "velocity": 80
    },
    {
        "track": 0,
        "absoluteTick": 93600,
        "noteNumber": 70,
        "velocity": 80
    },
    {
        "track": 0,
        "absoluteTick": 94080,
        "noteNumber": 75,
        "velocity": 80
    },
    {
        "track": 0,
        "absoluteTick": 94440,
        "noteNumber": 74,
        "velocity": 80
    },
    {
        "track": 0,
        "absoluteTick": 94500,
        "noteNumber": 73,
        "velocity": 80
    },
    {
        "track": 0,
        "absoluteTick": 94560,
        "noteNumber": 72,
        "velocity": 80
    },
    {
        "track": 1,
        "absoluteTick": 94560,
        "noteNumber": 48,
        "velocity": 80
    },
    {
        "track": 1,
        "absoluteTick": 94623,
        "noteNumber": 53,
        "velocity": 80
    },
    {
        "track": 1,
        "absoluteTick": 94687,
        "noteNumber": 56,
        "velocity": 80
    },
    {
        "track": 1,
        "absoluteTick": 95040,
        "noteNumber": 55,
        "velocity": 80
    },
    {
        "track": 1,
        "absoluteTick": 95520,
        "noteNumber": 51,
        "velocity": 80
    },
    {
        "track": 0,
        "absoluteTick": 96000,
        "noteNumber": 65,
        "velocity": 80
    },
    {
        "track": 1,
        "absoluteTick": 96000,
        "noteNumber": 49,
        "velocity": 80
    },
    {
        "track": 1,
        "absoluteTick": 96063,
        "noteNumber": 51,
        "velocity": 80
    },
    {
        "track": 1,
        "absoluteTick": 96126,
        "noteNumber": 56,
        "velocity": 80
    },
    {
        "track": 0,
        "absoluteTick": 96240,
        "noteNumber": 72,
        "velocity": 80
    },
    {
        "track": 0,
        "absoluteTick": 96480,
        "noteNumber": 70,
        "velocity": 80
    },
    {
        "track": 0,
        "absoluteTick": 96720,
        "noteNumber": 72,
        "velocity": 80
    },
    {
        "track": 0,
        "absoluteTick": 96960,
        "noteNumber": 68,
        "velocity": 80
    },
    {
        "track": 0,
        "absoluteTick": 97200,
        "noteNumber": 72,
        "velocity": 80
    },
    {
        "track": 0,
        "absoluteTick": 97440,
        "noteNumber": 67,
        "velocity": 80
    },
    {
        "track": 1,
        "absoluteTick": 97440,
        "noteNumber": 46,
        "velocity": 80
    },
    {
        "track": 1,
        "absoluteTick": 97503,
        "noteNumber": 51,
        "velocity": 80
    },
    {
        "track": 1,
        "absoluteTick": 97566,
        "noteNumber": 53,
        "velocity": 80
    },
    {
        "track": 0,
        "absoluteTick": 97920,
        "noteNumber": 67,
        "velocity": 80
    },
    {
        "track": 0,
        "absoluteTick": 98160,
        "noteNumber": 68,
        "velocity": 80
    },
    {
        "track": 0,
        "absoluteTick": 98400,
        "noteNumber": 67,
        "velocity": 80
    },
    {
        "track": 0,
        "absoluteTick": 98640,
        "noteNumber": 68,
        "velocity": 80
    },
    {
        "track": 0,
        "absoluteTick": 98880,
        "noteNumber": 67,
        "velocity": 80
    },
    {
        "track": 1,
        "absoluteTick": 98880,
        "noteNumber": 41,
        "velocity": 80
    },
    {
        "track": 1,
        "absoluteTick": 98943,
        "noteNumber": 46,
        "velocity": 80
    },
    {
        "track": 1,
        "absoluteTick": 99006,
        "noteNumber": 51,
        "velocity": 80
    },
    {
        "track": 0,
        "absoluteTick": 99600,
        "noteNumber": 70,
        "velocity": 80
    },
    {
        "track": 0,
        "absoluteTick": 100320,
        "noteNumber": 65,
        "velocity": 80
    },
    {
        "track": 1,
        "absoluteTick": 100320,
        "noteNumber": 41,
        "velocity": 80
    },
    {
        "track": 1,
        "absoluteTick": 100383,
        "noteNumber": 44,
        "velocity": 80
    },
    {
        "track": 1,
        "absoluteTick": 100447,
        "noteNumber": 51,
        "velocity": 80
    },
    {
        "track": 0,
        "absoluteTick": 101040,
        "noteNumber": 63,
        "velocity": 80
    },
    {
        "track": 1,
        "absoluteTick": 101280,
        "noteNumber": 43,
        "velocity": 80
    },
    {
        "track": 0,
        "absoluteTick": 101760,
        "noteNumber": 65,
        "velocity": 80
    },
    {
        "track": 1,
        "absoluteTick": 101760,
        "noteNumber": 49,
        "velocity": 80
    },
    {
        "track": 1,
        "absoluteTick": 101823,
        "noteNumber": 51,
        "velocity": 80
    },
    {
        "track": 1,
        "absoluteTick": 101886,
        "noteNumber": 56,
        "velocity": 80
    },
    {
        "track": 0,
        "absoluteTick": 102000,
        "noteNumber": 72,
        "velocity": 80
    },
    {
        "track": 0,
        "absoluteTick": 102240,
        "noteNumber": 70,
        "velocity": 80
    },
    {
        "track": 0,
        "absoluteTick": 102480,
        "noteNumber": 72,
        "velocity": 80
    },
    {
        "track": 0,
        "absoluteTick": 102720,
        "noteNumber": 68,
        "velocity": 80
    },
    {
        "track": 0,
        "absoluteTick": 102960,
        "noteNumber": 72,
        "velocity": 80
    },
    {
        "track": 0,
        "absoluteTick": 103200,
        "noteNumber": 67,
        "velocity": 80
    },
    {
        "track": 1,
        "absoluteTick": 103200,
        "noteNumber": 46,
        "velocity": 80
    },
    {
        "track": 1,
        "absoluteTick": 103263,
        "noteNumber": 51,
        "velocity": 80
    },
    {
        "track": 1,
        "absoluteTick": 103326,
        "noteNumber": 53,
        "velocity": 80
    },
    {
        "track": 0,
        "absoluteTick": 103680,
        "noteNumber": 67,
        "velocity": 80
    },
    {
        "track": 0,
        "absoluteTick": 103920,
        "noteNumber": 68,
        "velocity": 80
    },
    {
        "track": 0,
        "absoluteTick": 104160,
        "noteNumber": 67,
        "velocity": 80
    },
    {
        "track": 0,
        "absoluteTick": 104400,
        "noteNumber": 68,
        "velocity": 80
    },
    {
        "track": 0,
        "absoluteTick": 104640,
        "noteNumber": 67,
        "velocity": 80
    },
    {
        "track": 1,
        "absoluteTick": 104640,
        "noteNumber": 46,
        "velocity": 80
    },
    {
        "track": 1,
        "absoluteTick": 104703,
        "noteNumber": 48,
        "velocity": 80
    },
    {
        "track": 1,
        "absoluteTick": 104766,
        "noteNumber": 55,
        "velocity": 80
    },
    {
        "track": 0,
        "absoluteTick": 105120,
        "noteNumber": 70,
        "velocity": 80
    },
    {
        "track": 0,
        "absoluteTick": 105600,
        "noteNumber": 75,
        "velocity": 80
    },
    {
        "track": 0,
        "absoluteTick": 105960,
        "noteNumber": 74,
        "velocity": 80
    },
    {
        "track": 0,
        "absoluteTick": 106020,
        "noteNumber": 73,
        "velocity": 80
    },
    {
        "track": 0,
        "absoluteTick": 106080,
        "noteNumber": 72,
        "velocity": 80
    },
    {
        "track": 1,
        "absoluteTick": 106080,
        "noteNumber": 48,
        "velocity": 80
    },
    {
        "track": 1,
        "absoluteTick": 106143,
        "noteNumber": 53,
        "velocity": 80
    },
    {
        "track": 1,
        "absoluteTick": 106207,
        "noteNumber": 56,
        "velocity": 80
    },
    {
        "track": 1,
        "absoluteTick": 106560,
        "noteNumber": 55,
        "velocity": 80
    },
    {
        "track": 1,
        "absoluteTick": 107040,
        "noteNumber": 51,
        "velocity": 80
    },
    {
        "track": 0,
        "absoluteTick": 107520,
        "noteNumber": 65,
        "velocity": 80
    },
    {
        "track": 0,
        "absoluteTick": 107520,
        "noteNumber": 77,
        "velocity": 80
    },
    {
        "track": 1,
        "absoluteTick": 107520,
        "noteNumber": 37,
        "velocity": 80
    },
    {
        "track": 1,
        "absoluteTick": 107520,
        "noteNumber": 53,
        "velocity": 80
    },
    {
        "track": 0,
        "absoluteTick": 107760,
        "noteNumber": 72,
        "velocity": 80
    },
    {
        "track": 0,
        "absoluteTick": 107760,
        "noteNumber": 84,
        "velocity": 80
    },
    {
        "track": 1,
        "absoluteTick": 107760,
        "noteNumber": 44,
        "velocity": 80
    },
    {
        "track": 1,
        "absoluteTick": 107880,
        "noteNumber": 48,
        "velocity": 80
    },
    {
        "track": 0,
        "absoluteTick": 108000,
        "noteNumber": 70,
        "velocity": 80
    },
    {
        "track": 0,
        "absoluteTick": 108000,
        "noteNumber": 82,
        "velocity": 80
    },
    {
        "track": 1,
        "absoluteTick": 108000,
        "noteNumber": 39,
        "velocity": 80
    },
    {
        "track": 0,
        "absoluteTick": 108240,
        "noteNumber": 72,
        "velocity": 80
    },
    {
        "track": 0,
        "absoluteTick": 108240,
        "noteNumber": 84,
        "velocity": 80
    },
    {
        "track": 1,
        "absoluteTick": 108240,
        "noteNumber": 48,
        "velocity": 80
    },
    {
        "track": 1,
        "absoluteTick": 108360,
        "noteNumber": 46,
        "velocity": 80
    },
    {
        "track": 0,
        "absoluteTick": 108480,
        "noteNumber": 68,
        "velocity": 80
    },
    {
        "track": 0,
        "absoluteTick": 108480,
        "noteNumber": 80,
        "velocity": 80
    },
    {
        "track": 1,
        "absoluteTick": 108480,
        "noteNumber": 44,
        "velocity": 80
    },
    {
        "track": 0,
        "absoluteTick": 108720,
        "noteNumber": 72,
        "velocity": 80
    },
    {
        "track": 0,
        "absoluteTick": 108720,
        "noteNumber": 84,
        "velocity": 80
    },
    {
        "track": 1,
        "absoluteTick": 108720,
        "noteNumber": 48,
        "velocity": 80
    },
    {
        "track": 1,
        "absoluteTick": 108840,
        "noteNumber": 43,
        "velocity": 80
    },
    {
        "track": 0,
        "absoluteTick": 108960,
        "noteNumber": 67,
        "velocity": 80
    },
    {
        "track": 0,
        "absoluteTick": 108960,
        "noteNumber": 79,
        "velocity": 80
    },
    {
        "track": 1,
        "absoluteTick": 108960,
        "noteNumber": 39,
        "velocity": 80
    },
    {
        "track": 1,
        "absoluteTick": 108960,
        "noteNumber": 51,
        "velocity": 80
    },
    {
        "track": 1,
        "absoluteTick": 109200,
        "noteNumber": 44,
        "velocity": 80
    },
    {
        "track": 1,
        "absoluteTick": 109320,
        "noteNumber": 48,
        "velocity": 80
    },
    {
        "track": 0,
        "absoluteTick": 109440,
        "noteNumber": 67,
        "velocity": 80
    },
    {
        "track": 0,
        "absoluteTick": 109440,
        "noteNumber": 79,
        "velocity": 80
    },
    {
        "track": 1,
        "absoluteTick": 109440,
        "noteNumber": 41,
        "velocity": 80
    },
    {
        "track": 0,
        "absoluteTick": 109680,
        "noteNumber": 68,
        "velocity": 80
    },
    {
        "track": 0,
        "absoluteTick": 109680,
        "noteNumber": 80,
        "velocity": 80
    },
    {
        "track": 1,
        "absoluteTick": 109680,
        "noteNumber": 48,
        "velocity": 80
    },
    {
        "track": 1,
        "absoluteTick": 109800,
        "noteNumber": 44,
        "velocity": 80
    },
    {
        "track": 0,
        "absoluteTick": 109920,
        "noteNumber": 67,
        "velocity": 80
    },
    {
        "track": 0,
        "absoluteTick": 109920,
        "noteNumber": 79,
        "velocity": 80
    },
    {
        "track": 1,
        "absoluteTick": 109920,
        "noteNumber": 46,
        "velocity": 80
    },
    {
        "track": 0,
        "absoluteTick": 110160,
        "noteNumber": 68,
        "velocity": 80
    },
    {
        "track": 0,
        "absoluteTick": 110160,
        "noteNumber": 80,
        "velocity": 80
    },
    {
        "track": 1,
        "absoluteTick": 110160,
        "noteNumber": 48,
        "velocity": 80
    },
    {
        "track": 1,
        "absoluteTick": 110280,
        "noteNumber": 43,
        "velocity": 80
    },
    {
        "track": 0,
        "absoluteTick": 110400,
        "noteNumber": 67,
        "velocity": 80
    },
    {
        "track": 0,
        "absoluteTick": 110400,
        "noteNumber": 79,
        "velocity": 80
    },
    {
        "track": 1,
        "absoluteTick": 110400,
        "noteNumber": 41,
        "velocity": 80
    },
    {
        "track": 1,
        "absoluteTick": 110400,
        "noteNumber": 58,
        "velocity": 80
    },
    {
        "track": 1,
        "absoluteTick": 110640,
        "noteNumber": 44,
        "velocity": 80
    },
    {
        "track": 1,
        "absoluteTick": 110760,
        "noteNumber": 48,
        "velocity": 80
    },
    {
        "track": 1,
        "absoluteTick": 110880,
        "noteNumber": 46,
        "velocity": 80
    },
    {
        "track": 0,
        "absoluteTick": 111120,
        "noteNumber": 70,
        "velocity": 80
    },
    {
        "track": 0,
        "absoluteTick": 111120,
        "noteNumber": 82,
        "velocity": 80
    },
    {
        "track": 1,
        "absoluteTick": 111120,
        "noteNumber": 48,
        "velocity": 80
    },
    {
        "track": 1,
        "absoluteTick": 111240,
        "noteNumber": 44,
        "velocity": 80
    },
    {
        "track": 1,
        "absoluteTick": 111360,
        "noteNumber": 39,
        "velocity": 80
    },
    {
        "track": 1,
        "absoluteTick": 111600,
        "noteNumber": 48,
        "velocity": 80
    },
    {
        "track": 1,
        "absoluteTick": 111720,
        "noteNumber": 43,
        "velocity": 80
    },
    {
        "track": 0,
        "absoluteTick": 111840,
        "noteNumber": 65,
        "velocity": 80
    },
    {
        "track": 0,
        "absoluteTick": 111840,
        "noteNumber": 77,
        "velocity": 80
    },
    {
        "track": 1,
        "absoluteTick": 111840,
        "noteNumber": 41,
        "velocity": 80
    },
    {
        "track": 1,
        "absoluteTick": 111840,
        "noteNumber": 53,
        "velocity": 80
    },
    {
        "track": 1,
        "absoluteTick": 112080,
        "noteNumber": 44,
        "velocity": 80
    },
    {
        "track": 1,
        "absoluteTick": 112200,
        "noteNumber": 48,
        "velocity": 80
    },
    {
        "track": 1,
        "absoluteTick": 112320,
        "noteNumber": 44,
        "velocity": 80
    },
    {
        "track": 0,
        "absoluteTick": 112560,
        "noteNumber": 63,
        "velocity": 80
    },
    {
        "track": 0,
        "absoluteTick": 112560,
        "noteNumber": 75,
        "velocity": 80
    },
    {
        "track": 1,
        "absoluteTick": 112560,
        "noteNumber": 48,
        "velocity": 80
    },
    {
        "track": 1,
        "absoluteTick": 112680,
        "noteNumber": 44,
        "velocity": 80
    },
    {
        "track": 1,
        "absoluteTick": 112800,
        "noteNumber": 39,
        "velocity": 80
    },
    {
        "track": 1,
        "absoluteTick": 113040,
        "noteNumber": 48,
        "velocity": 80
    },
    {
        "track": 1,
        "absoluteTick": 113160,
        "noteNumber": 43,
        "velocity": 80
    },
    {
        "track": 0,
        "absoluteTick": 113280,
        "noteNumber": 65,
        "velocity": 80
    },
    {
        "track": 0,
        "absoluteTick": 113280,
        "noteNumber": 77,
        "velocity": 80
    },
    {
        "track": 1,
        "absoluteTick": 113280,
        "noteNumber": 37,
        "velocity": 80
    },
    {
        "track": 1,
        "absoluteTick": 113280,
        "noteNumber": 53,
        "velocity": 80
    },
    {
        "track": 0,
        "absoluteTick": 113520,
        "noteNumber": 72,
        "velocity": 80
    },
    {
        "track": 0,
        "absoluteTick": 113520,
        "noteNumber": 84,
        "velocity": 80
    },
    {
        "track": 1,
        "absoluteTick": 113520,
        "noteNumber": 44,
        "velocity": 80
    },
    {
        "track": 1,
        "absoluteTick": 113640,
        "noteNumber": 48,
        "velocity": 80
    },
    {
        "track": 0,
        "absoluteTick": 113760,
        "noteNumber": 70,
        "velocity": 80
    },
    {
        "track": 0,
        "absoluteTick": 113760,
        "noteNumber": 82,
        "velocity": 80
    },
    {
        "track": 1,
        "absoluteTick": 113760,
        "noteNumber": 39,
        "velocity": 80
    },
    {
        "track": 0,
        "absoluteTick": 114000,
        "noteNumber": 72,
        "velocity": 80
    },
    {
        "track": 0,
        "absoluteTick": 114000,
        "noteNumber": 84,
        "velocity": 80
    },
    {
        "track": 1,
        "absoluteTick": 114000,
        "noteNumber": 48,
        "velocity": 80
    },
    {
        "track": 1,
        "absoluteTick": 114120,
        "noteNumber": 46,
        "velocity": 80
    },
    {
        "track": 0,
        "absoluteTick": 114240,
        "noteNumber": 68,
        "velocity": 80
    },
    {
        "track": 0,
        "absoluteTick": 114240,
        "noteNumber": 80,
        "velocity": 80
    },
    {
        "track": 1,
        "absoluteTick": 114240,
        "noteNumber": 44,
        "velocity": 80
    },
    {
        "track": 0,
        "absoluteTick": 114480,
        "noteNumber": 72,
        "velocity": 80
    },
    {
        "track": 0,
        "absoluteTick": 114480,
        "noteNumber": 84,
        "velocity": 80
    },
    {
        "track": 1,
        "absoluteTick": 114480,
        "noteNumber": 48,
        "velocity": 80
    },
    {
        "track": 1,
        "absoluteTick": 114600,
        "noteNumber": 43,
        "velocity": 80
    },
    {
        "track": 0,
        "absoluteTick": 114720,
        "noteNumber": 67,
        "velocity": 80
    },
    {
        "track": 0,
        "absoluteTick": 114720,
        "noteNumber": 79,
        "velocity": 80
    },
    {
        "track": 1,
        "absoluteTick": 114720,
        "noteNumber": 39,
        "velocity": 80
    },
    {
        "track": 1,
        "absoluteTick": 114720,
        "noteNumber": 51,
        "velocity": 80
    },
    {
        "track": 1,
        "absoluteTick": 114960,
        "noteNumber": 44,
        "velocity": 80
    },
    {
        "track": 1,
        "absoluteTick": 115080,
        "noteNumber": 48,
        "velocity": 80
    },
    {
        "track": 0,
        "absoluteTick": 115200,
        "noteNumber": 67,
        "velocity": 80
    },
    {
        "track": 0,
        "absoluteTick": 115200,
        "noteNumber": 79,
        "velocity": 80
    },
    {
        "track": 1,
        "absoluteTick": 115200,
        "noteNumber": 41,
        "velocity": 80
    },
    {
        "track": 0,
        "absoluteTick": 115440,
        "noteNumber": 68,
        "velocity": 80
    },
    {
        "track": 0,
        "absoluteTick": 115440,
        "noteNumber": 80,
        "velocity": 80
    },
    {
        "track": 1,
        "absoluteTick": 115440,
        "noteNumber": 48,
        "velocity": 80
    },
    {
        "track": 1,
        "absoluteTick": 115560,
        "noteNumber": 44,
        "velocity": 80
    },
    {
        "track": 0,
        "absoluteTick": 115680,
        "noteNumber": 67,
        "velocity": 80
    },
    {
        "track": 0,
        "absoluteTick": 115680,
        "noteNumber": 79,
        "velocity": 80
    },
    {
        "track": 1,
        "absoluteTick": 115680,
        "noteNumber": 46,
        "velocity": 80
    },
    {
        "track": 0,
        "absoluteTick": 115920,
        "noteNumber": 68,
        "velocity": 80
    },
    {
        "track": 0,
        "absoluteTick": 115920,
        "noteNumber": 80,
        "velocity": 80
    },
    {
        "track": 1,
        "absoluteTick": 115920,
        "noteNumber": 48,
        "velocity": 80
    },
    {
        "track": 1,
        "absoluteTick": 116040,
        "noteNumber": 43,
        "velocity": 80
    },
    {
        "track": 0,
        "absoluteTick": 116160,
        "noteNumber": 67,
        "velocity": 80
    },
    {
        "track": 0,
        "absoluteTick": 116160,
        "noteNumber": 79,
        "velocity": 80
    },
    {
        "track": 1,
        "absoluteTick": 116160,
        "noteNumber": 41,
        "velocity": 80
    },
    {
        "track": 1,
        "absoluteTick": 116160,
        "noteNumber": 58,
        "velocity": 80
    },
    {
        "track": 1,
        "absoluteTick": 116400,
        "noteNumber": 44,
        "velocity": 80
    },
    {
        "track": 1,
        "absoluteTick": 116520,
        "noteNumber": 48,
        "velocity": 80
    },
    {
        "track": 0,
        "absoluteTick": 116640,
        "noteNumber": 70,
        "velocity": 80
    },
    {
        "track": 0,
        "absoluteTick": 116640,
        "noteNumber": 82,
        "velocity": 80
    },
    {
        "track": 1,
        "absoluteTick": 116640,
        "noteNumber": 46,
        "velocity": 80
    },
    {
        "track": 1,
        "absoluteTick": 116880,
        "noteNumber": 48,
        "velocity": 80
    },
    {
        "track": 1,
        "absoluteTick": 117000,
        "noteNumber": 44,
        "velocity": 80
    },
    {
        "track": 0,
        "absoluteTick": 117120,
        "noteNumber": 75,
        "velocity": 80
    },
    {
        "track": 0,
        "absoluteTick": 117120,
        "noteNumber": 87,
        "velocity": 80
    },
    {
        "track": 1,
        "absoluteTick": 117120,
        "noteNumber": 39,
        "velocity": 80
    },
    {
        "track": 1,
        "absoluteTick": 117360,
        "noteNumber": 48,
        "velocity": 80
    },
    {
        "track": 0,
        "absoluteTick": 117480,
        "noteNumber": 74,
        "velocity": 80
    },
    {
        "track": 1,
        "absoluteTick": 117480,
        "noteNumber": 43,
        "velocity": 80
    },
    {
        "track": 0,
        "absoluteTick": 117540,
        "noteNumber": 73,
        "velocity": 80
    },
    {
        "track": 0,
        "absoluteTick": 117600,
        "noteNumber": 72,
        "velocity": 80
    },
    {
        "track": 0,
        "absoluteTick": 117600,
        "noteNumber": 84,
        "velocity": 80
    },
    {
        "track": 1,
        "absoluteTick": 117600,
        "noteNumber": 41,
        "velocity": 80
    },
    {
        "track": 1,
        "absoluteTick": 117600,
        "noteNumber": 53,
        "velocity": 80
    },
    {
        "track": 1,
        "absoluteTick": 117840,
        "noteNumber": 44,
        "velocity": 80
    },
    {
        "track": 1,
        "absoluteTick": 117960,
        "noteNumber": 48,
        "velocity": 80
    },
    {
        "track": 1,
        "absoluteTick": 118080,
        "noteNumber": 44,
        "velocity": 80
    },
    {
        "track": 1,
        "absoluteTick": 118320,
        "noteNumber": 48,
        "velocity": 80
    },
    {
        "track": 1,
        "absoluteTick": 118440,
        "noteNumber": 44,
        "velocity": 80
    },
    {
        "track": 1,
        "absoluteTick": 118560,
        "noteNumber": 39,
        "velocity": 80
    },
    {
        "track": 1,
        "absoluteTick": 118800,
        "noteNumber": 48,
        "velocity": 80
    },
    {
        "track": 1,
        "absoluteTick": 118920,
        "noteNumber": 43,
        "velocity": 80
    },
    {
        "track": 0,
        "absoluteTick": 119040,
        "noteNumber": 65,
        "velocity": 80
    },
    {
        "track": 0,
        "absoluteTick": 119040,
        "noteNumber": 77,
        "velocity": 80
    },
    {
        "track": 1,
        "absoluteTick": 119040,
        "noteNumber": 37,
        "velocity": 80
    },
    {
        "track": 1,
        "absoluteTick": 119040,
        "noteNumber": 53,
        "velocity": 80
    },
    {
        "track": 0,
        "absoluteTick": 119280,
        "noteNumber": 72,
        "velocity": 80
    },
    {
        "track": 0,
        "absoluteTick": 119280,
        "noteNumber": 84,
        "velocity": 80
    },
    {
        "track": 1,
        "absoluteTick": 119280,
        "noteNumber": 44,
        "velocity": 80
    },
    {
        "track": 1,
        "absoluteTick": 119400,
        "noteNumber": 48,
        "velocity": 80
    },
    {
        "track": 0,
        "absoluteTick": 119520,
        "noteNumber": 70,
        "velocity": 80
    },
    {
        "track": 0,
        "absoluteTick": 119520,
        "noteNumber": 82,
        "velocity": 80
    },
    {
        "track": 1,
        "absoluteTick": 119520,
        "noteNumber": 39,
        "velocity": 80
    },
    {
        "track": 0,
        "absoluteTick": 119760,
        "noteNumber": 72,
        "velocity": 80
    },
    {
        "track": 0,
        "absoluteTick": 119760,
        "noteNumber": 84,
        "velocity": 80
    },
    {
        "track": 1,
        "absoluteTick": 119760,
        "noteNumber": 48,
        "velocity": 80
    },
    {
        "track": 1,
        "absoluteTick": 119880,
        "noteNumber": 46,
        "velocity": 80
    },
    {
        "track": 0,
        "absoluteTick": 120000,
        "noteNumber": 68,
        "velocity": 80
    },
    {
        "track": 0,
        "absoluteTick": 120000,
        "noteNumber": 80,
        "velocity": 80
    },
    {
        "track": 1,
        "absoluteTick": 120000,
        "noteNumber": 44,
        "velocity": 80
    },
    {
        "track": 0,
        "absoluteTick": 120240,
        "noteNumber": 72,
        "velocity": 80
    },
    {
        "track": 0,
        "absoluteTick": 120240,
        "noteNumber": 84,
        "velocity": 80
    },
    {
        "track": 1,
        "absoluteTick": 120240,
        "noteNumber": 48,
        "velocity": 80
    },
    {
        "track": 1,
        "absoluteTick": 120360,
        "noteNumber": 43,
        "velocity": 80
    },
    {
        "track": 0,
        "absoluteTick": 120480,
        "noteNumber": 67,
        "velocity": 80
    },
    {
        "track": 0,
        "absoluteTick": 120480,
        "noteNumber": 79,
        "velocity": 80
    },
    {
        "track": 1,
        "absoluteTick": 120480,
        "noteNumber": 39,
        "velocity": 80
    },
    {
        "track": 1,
        "absoluteTick": 120480,
        "noteNumber": 51,
        "velocity": 80
    },
    {
        "track": 1,
        "absoluteTick": 120720,
        "noteNumber": 44,
        "velocity": 80
    },
    {
        "track": 1,
        "absoluteTick": 120840,
        "noteNumber": 48,
        "velocity": 80
    },
    {
        "track": 0,
        "absoluteTick": 120960,
        "noteNumber": 67,
        "velocity": 80
    },
    {
        "track": 0,
        "absoluteTick": 120960,
        "noteNumber": 79,
        "velocity": 80
    },
    {
        "track": 1,
        "absoluteTick": 120960,
        "noteNumber": 41,
        "velocity": 80
    },
    {
        "track": 0,
        "absoluteTick": 121200,
        "noteNumber": 68,
        "velocity": 80
    },
    {
        "track": 0,
        "absoluteTick": 121200,
        "noteNumber": 80,
        "velocity": 80
    },
    {
        "track": 1,
        "absoluteTick": 121200,
        "noteNumber": 48,
        "velocity": 80
    },
    {
        "track": 1,
        "absoluteTick": 121320,
        "noteNumber": 44,
        "velocity": 80
    },
    {
        "track": 0,
        "absoluteTick": 121440,
        "noteNumber": 67,
        "velocity": 80
    },
    {
        "track": 0,
        "absoluteTick": 121440,
        "noteNumber": 79,
        "velocity": 80
    },
    {
        "track": 1,
        "absoluteTick": 121440,
        "noteNumber": 46,
        "velocity": 80
    },
    {
        "track": 0,
        "absoluteTick": 121680,
        "noteNumber": 68,
        "velocity": 80
    },
    {
        "track": 0,
        "absoluteTick": 121680,
        "noteNumber": 80,
        "velocity": 80
    },
    {
        "track": 1,
        "absoluteTick": 121680,
        "noteNumber": 48,
        "velocity": 80
    },
    {
        "track": 1,
        "absoluteTick": 121800,
        "noteNumber": 43,
        "velocity": 80
    },
    {
        "track": 0,
        "absoluteTick": 121920,
        "noteNumber": 67,
        "velocity": 80
    },
    {
        "track": 0,
        "absoluteTick": 121920,
        "noteNumber": 79,
        "velocity": 80
    },
    {
        "track": 1,
        "absoluteTick": 121920,
        "noteNumber": 41,
        "velocity": 80
    },
    {
        "track": 1,
        "absoluteTick": 121920,
        "noteNumber": 58,
        "velocity": 80
    },
    {
        "track": 1,
        "absoluteTick": 122160,
        "noteNumber": 44,
        "velocity": 80
    },
    {
        "track": 1,
        "absoluteTick": 122280,
        "noteNumber": 48,
        "velocity": 80
    },
    {
        "track": 1,
        "absoluteTick": 122400,
        "noteNumber": 46,
        "velocity": 80
    },
    {
        "track": 0,
        "absoluteTick": 122640,
        "noteNumber": 70,
        "velocity": 80
    },
    {
        "track": 0,
        "absoluteTick": 122640,
        "noteNumber": 82,
        "velocity": 80
    },
    {
        "track": 1,
        "absoluteTick": 122640,
        "noteNumber": 48,
        "velocity": 80
    },
    {
        "track": 1,
        "absoluteTick": 122760,
        "noteNumber": 44,
        "velocity": 80
    },
    {
        "track": 1,
        "absoluteTick": 122880,
        "noteNumber": 39,
        "velocity": 80
    },
    {
        "track": 1,
        "absoluteTick": 123120,
        "noteNumber": 48,
        "velocity": 80
    },
    {
        "track": 1,
        "absoluteTick": 123240,
        "noteNumber": 43,
        "velocity": 80
    },
    {
        "track": 0,
        "absoluteTick": 123360,
        "noteNumber": 65,
        "velocity": 80
    },
    {
        "track": 0,
        "absoluteTick": 123360,
        "noteNumber": 77,
        "velocity": 80
    },
    {
        "track": 1,
        "absoluteTick": 123360,
        "noteNumber": 41,
        "velocity": 80
    },
    {
        "track": 1,
        "absoluteTick": 123360,
        "noteNumber": 53,
        "velocity": 80
    },
    {
        "track": 1,
        "absoluteTick": 123600,
        "noteNumber": 44,
        "velocity": 80
    },
    {
        "track": 1,
        "absoluteTick": 123720,
        "noteNumber": 48,
        "velocity": 80
    },
    {
        "track": 1,
        "absoluteTick": 123840,
        "noteNumber": 44,
        "velocity": 80
    },
    {
        "track": 0,
        "absoluteTick": 124080,
        "noteNumber": 63,
        "velocity": 80
    },
    {
        "track": 0,
        "absoluteTick": 124080,
        "noteNumber": 75,
        "velocity": 80
    },
    {
        "track": 1,
        "absoluteTick": 124080,
        "noteNumber": 48,
        "velocity": 80
    },
    {
        "track": 1,
        "absoluteTick": 124200,
        "noteNumber": 44,
        "velocity": 80
    },
    {
        "track": 1,
        "absoluteTick": 124320,
        "noteNumber": 39,
        "velocity": 80
    },
    {
        "track": 1,
        "absoluteTick": 124560,
        "noteNumber": 48,
        "velocity": 80
    },
    {
        "track": 1,
        "absoluteTick": 124680,
        "noteNumber": 43,
        "velocity": 80
    },
    {
        "track": 0,
        "absoluteTick": 124800,
        "noteNumber": 65,
        "velocity": 80
    },
    {
        "track": 0,
        "absoluteTick": 124800,
        "noteNumber": 77,
        "velocity": 80
    },
    {
        "track": 1,
        "absoluteTick": 124800,
        "noteNumber": 37,
        "velocity": 80
    },
    {
        "track": 1,
        "absoluteTick": 124800,
        "noteNumber": 53,
        "velocity": 80
    },
    {
        "track": 1,
        "absoluteTick": 125040,
        "noteNumber": 44,
        "velocity": 80
    },
    {
        "track": 1,
        "absoluteTick": 125160,
        "noteNumber": 48,
        "velocity": 80
    },
    {
        "track": 1,
        "absoluteTick": 125280,
        "noteNumber": 39,
        "velocity": 80
    },
    {
        "track": 0,
        "absoluteTick": 125520,
        "noteNumber": 60,
        "velocity": 80
    },
    {
        "track": 0,
        "absoluteTick": 125520,
        "noteNumber": 72,
        "velocity": 80
    },
    {
        "track": 1,
        "absoluteTick": 125520,
        "noteNumber": 48,
        "velocity": 80
    },
    {
        "track": 1,
        "absoluteTick": 125640,
        "noteNumber": 46,
        "velocity": 80
    },
    {
        "track": 0,
        "absoluteTick": 125760,
        "noteNumber": 63,
        "velocity": 80
    },
    {
        "track": 0,
        "absoluteTick": 125760,
        "noteNumber": 75,
        "velocity": 80
    },
    {
        "track": 1,
        "absoluteTick": 125760,
        "noteNumber": 44,
        "velocity": 80
    },
    {
        "track": 0,
        "absoluteTick": 126000,
        "noteNumber": 65,
        "velocity": 80
    },
    {
        "track": 0,
        "absoluteTick": 126000,
        "noteNumber": 77,
        "velocity": 80
    },
    {
        "track": 1,
        "absoluteTick": 126000,
        "noteNumber": 48,
        "velocity": 80
    },
    {
        "track": 1,
        "absoluteTick": 126120,
        "noteNumber": 43,
        "velocity": 80
    },
    {
        "track": 0,
        "absoluteTick": 126240,
        "noteNumber": 68,
        "velocity": 80
    },
    {
        "track": 0,
        "absoluteTick": 126240,
        "noteNumber": 80,
        "velocity": 80
    },
    {
        "track": 1,
        "absoluteTick": 126240,
        "noteNumber": 39,
        "velocity": 80
    },
    {
        "track": 1,
        "absoluteTick": 126240,
        "noteNumber": 51,
        "velocity": 80
    },
    {
        "track": 1,
        "absoluteTick": 126480,
        "noteNumber": 44,
        "velocity": 80
    },
    {
        "track": 1,
        "absoluteTick": 126600,
        "noteNumber": 48,
        "velocity": 80
    },
    {
        "track": 0,
        "absoluteTick": 126720,
        "noteNumber": 67,
        "velocity": 80
    },
    {
        "track": 0,
        "absoluteTick": 126720,
        "noteNumber": 79,
        "velocity": 80
    },
    {
        "track": 1,
        "absoluteTick": 126720,
        "noteNumber": 41,
        "velocity": 80
    },
    {
        "track": 1,
        "absoluteTick": 126960,
        "noteNumber": 48,
        "velocity": 80
    },
    {
        "track": 1,
        "absoluteTick": 127080,
        "noteNumber": 44,
        "velocity": 80
    },
    {
        "track": 0,
        "absoluteTick": 127200,
        "noteNumber": 63,
        "velocity": 80
    },
    {
        "track": 0,
        "absoluteTick": 127200,
        "noteNumber": 75,
        "velocity": 80
    },
    {
        "track": 1,
        "absoluteTick": 127200,
        "noteNumber": 46,
        "velocity": 80
    },
    {
        "track": 1,
        "absoluteTick": 127440,
        "noteNumber": 48,
        "velocity": 80
    },
    {
        "track": 1,
        "absoluteTick": 127560,
        "noteNumber": 43,
        "velocity": 80
    },
    {
        "track": 0,
        "absoluteTick": 127680,
        "noteNumber": 65,
        "velocity": 80
    },
    {
        "track": 0,
        "absoluteTick": 127680,
        "noteNumber": 77,
        "velocity": 80
    },
    {
        "track": 1,
        "absoluteTick": 127680,
        "noteNumber": 41,
        "velocity": 80
    },
    {
        "track": 1,
        "absoluteTick": 127680,
        "noteNumber": 53,
        "velocity": 80
    },
    {
        "track": 1,
        "absoluteTick": 127920,
        "noteNumber": 44,
        "velocity": 80
    },
    {
        "track": 1,
        "absoluteTick": 128040,
        "noteNumber": 48,
        "velocity": 80
    },
    {
        "track": 1,
        "absoluteTick": 128160,
        "noteNumber": 41,
        "velocity": 80
    },
    {
        "track": 1,
        "absoluteTick": 128400,
        "noteNumber": 48,
        "velocity": 80
    },
    {
        "track": 1,
        "absoluteTick": 128520,
        "noteNumber": 44,
        "velocity": 80
    },
    {
        "track": 1,
        "absoluteTick": 128640,
        "noteNumber": 41,
        "velocity": 80
    },
    {
        "track": 1,
        "absoluteTick": 128880,
        "noteNumber": 48,
        "velocity": 80
    },
    {
        "track": 1,
        "absoluteTick": 129000,
        "noteNumber": 43,
        "velocity": 80
    },
    {
        "track": 0,
        "absoluteTick": 129120,
        "noteNumber": 65,
        "velocity": 80
    },
    {
        "track": 0,
        "absoluteTick": 129120,
        "noteNumber": 69,
        "velocity": 80
    },
    {
        "track": 0,
        "absoluteTick": 129120,
        "noteNumber": 77,
        "velocity": 80
    },
    {
        "track": 1,
        "absoluteTick": 129120,
        "noteNumber": 41,
        "velocity": 80
    },
    {
        "track": 1,
        "absoluteTick": 129120,
        "noteNumber": 53,
        "velocity": 80
    },
    {
        "track": 1,
        "absoluteTick": 129360,
        "noteNumber": 45,
        "velocity": 80
    },
    {
        "track": 1,
        "absoluteTick": 129480,
        "noteNumber": 48,
        "velocity": 80
    },
    {
        "track": 1,
        "absoluteTick": 129600,
        "noteNumber": 45,
        "velocity": 80
    },
    {
        "track": 1,
        "absoluteTick": 129840,
        "noteNumber": 48,
        "velocity": 80
    },
    {
        "track": 1,
        "absoluteTick": 129960,
        "noteNumber": 45,
        "velocity": 80
    },
    {
        "track": 1,
        "absoluteTick": 130080,
        "noteNumber": 39,
        "velocity": 80
    },
    {
        "track": 1,
        "absoluteTick": 130320,
        "noteNumber": 48,
        "velocity": 80
    },
    {
        "track": 1,
        "absoluteTick": 130440,
        "noteNumber": 43,
        "velocity": 80
    },
    {
        "track": 0,
        "absoluteTick": 130560,
        "noteNumber": 65,
        "velocity": 80
    },
    {
        "track": 0,
        "absoluteTick": 130560,
        "noteNumber": 77,
        "velocity": 80
    },
    {
        "track": 1,
        "absoluteTick": 130560,
        "noteNumber": 37,
        "velocity": 80
    },
    {
        "track": 1,
        "absoluteTick": 130560,
        "noteNumber": 53,
        "velocity": 80
    },
    {
        "track": 0,
        "absoluteTick": 130800,
        "noteNumber": 72,
        "velocity": 80
    },
    {
        "track": 0,
        "absoluteTick": 130800,
        "noteNumber": 84,
        "velocity": 80
    },
    {
        "track": 1,
        "absoluteTick": 130800,
        "noteNumber": 44,
        "velocity": 80
    },
    {
        "track": 1,
        "absoluteTick": 130920,
        "noteNumber": 48,
        "velocity": 80
    },
    {
        "track": 0,
        "absoluteTick": 131040,
        "noteNumber": 70,
        "velocity": 80
    },
    {
        "track": 0,
        "absoluteTick": 131040,
        "noteNumber": 82,
        "velocity": 80
    },
    {
        "track": 1,
        "absoluteTick": 131040,
        "noteNumber": 39,
        "velocity": 80
    },
    {
        "track": 0,
        "absoluteTick": 131280,
        "noteNumber": 72,
        "velocity": 80
    },
    {
        "track": 0,
        "absoluteTick": 131280,
        "noteNumber": 84,
        "velocity": 80
    },
    {
        "track": 1,
        "absoluteTick": 131280,
        "noteNumber": 48,
        "velocity": 80
    },
    {
        "track": 1,
        "absoluteTick": 131400,
        "noteNumber": 46,
        "velocity": 80
    },
    {
        "track": 0,
        "absoluteTick": 131520,
        "noteNumber": 68,
        "velocity": 80
    },
    {
        "track": 0,
        "absoluteTick": 131520,
        "noteNumber": 80,
        "velocity": 80
    },
    {
        "track": 1,
        "absoluteTick": 131520,
        "noteNumber": 44,
        "velocity": 80
    },
    {
        "track": 0,
        "absoluteTick": 131760,
        "noteNumber": 72,
        "velocity": 80
    },
    {
        "track": 0,
        "absoluteTick": 131760,
        "noteNumber": 84,
        "velocity": 80
    },
    {
        "track": 1,
        "absoluteTick": 131760,
        "noteNumber": 48,
        "velocity": 80
    },
    {
        "track": 1,
        "absoluteTick": 131880,
        "noteNumber": 43,
        "velocity": 80
    },
    {
        "track": 0,
        "absoluteTick": 132000,
        "noteNumber": 67,
        "velocity": 80
    },
    {
        "track": 0,
        "absoluteTick": 132000,
        "noteNumber": 79,
        "velocity": 80
    },
    {
        "track": 1,
        "absoluteTick": 132000,
        "noteNumber": 39,
        "velocity": 80
    },
    {
        "track": 1,
        "absoluteTick": 132000,
        "noteNumber": 51,
        "velocity": 80
    },
    {
        "track": 1,
        "absoluteTick": 132240,
        "noteNumber": 44,
        "velocity": 80
    },
    {
        "track": 1,
        "absoluteTick": 132360,
        "noteNumber": 48,
        "velocity": 80
    },
    {
        "track": 0,
        "absoluteTick": 132480,
        "noteNumber": 67,
        "velocity": 80
    },
    {
        "track": 0,
        "absoluteTick": 132480,
        "noteNumber": 79,
        "velocity": 80
    },
    {
        "track": 1,
        "absoluteTick": 132480,
        "noteNumber": 41,
        "velocity": 80
    },
    {
        "track": 0,
        "absoluteTick": 132720,
        "noteNumber": 68,
        "velocity": 80
    },
    {
        "track": 0,
        "absoluteTick": 132720,
        "noteNumber": 80,
        "velocity": 80
    },
    {
        "track": 1,
        "absoluteTick": 132720,
        "noteNumber": 48,
        "velocity": 80
    },
    {
        "track": 1,
        "absoluteTick": 132840,
        "noteNumber": 44,
        "velocity": 80
    },
    {
        "track": 0,
        "absoluteTick": 132960,
        "noteNumber": 67,
        "velocity": 80
    },
    {
        "track": 0,
        "absoluteTick": 132960,
        "noteNumber": 79,
        "velocity": 80
    },
    {
        "track": 1,
        "absoluteTick": 132960,
        "noteNumber": 46,
        "velocity": 80
    },
    {
        "track": 0,
        "absoluteTick": 133200,
        "noteNumber": 68,
        "velocity": 80
    },
    {
        "track": 0,
        "absoluteTick": 133200,
        "noteNumber": 80,
        "velocity": 80
    },
    {
        "track": 1,
        "absoluteTick": 133200,
        "noteNumber": 48,
        "velocity": 80
    },
    {
        "track": 1,
        "absoluteTick": 133320,
        "noteNumber": 43,
        "velocity": 80
    },
    {
        "track": 0,
        "absoluteTick": 133440,
        "noteNumber": 67,
        "velocity": 80
    },
    {
        "track": 0,
        "absoluteTick": 133440,
        "noteNumber": 79,
        "velocity": 80
    },
    {
        "track": 1,
        "absoluteTick": 133440,
        "noteNumber": 41,
        "velocity": 80
    },
    {
        "track": 1,
        "absoluteTick": 133440,
        "noteNumber": 58,
        "velocity": 80
    },
    {
        "track": 1,
        "absoluteTick": 133680,
        "noteNumber": 44,
        "velocity": 80
    },
    {
        "track": 1,
        "absoluteTick": 133800,
        "noteNumber": 48,
        "velocity": 80
    },
    {
        "track": 1,
        "absoluteTick": 133920,
        "noteNumber": 46,
        "velocity": 80
    },
    {
        "track": 0,
        "absoluteTick": 134160,
        "noteNumber": 70,
        "velocity": 80
    },
    {
        "track": 0,
        "absoluteTick": 134160,
        "noteNumber": 82,
        "velocity": 80
    },
    {
        "track": 1,
        "absoluteTick": 134160,
        "noteNumber": 48,
        "velocity": 80
    },
    {
        "track": 1,
        "absoluteTick": 134280,
        "noteNumber": 44,
        "velocity": 80
    },
    {
        "track": 1,
        "absoluteTick": 134400,
        "noteNumber": 39,
        "velocity": 80
    },
    {
        "track": 1,
        "absoluteTick": 134640,
        "noteNumber": 48,
        "velocity": 80
    },
    {
        "track": 1,
        "absoluteTick": 134760,
        "noteNumber": 43,
        "velocity": 80
    },
    {
        "track": 0,
        "absoluteTick": 134880,
        "noteNumber": 65,
        "velocity": 80
    },
    {
        "track": 0,
        "absoluteTick": 134880,
        "noteNumber": 77,
        "velocity": 80
    },
    {
        "track": 1,
        "absoluteTick": 134880,
        "noteNumber": 41,
        "velocity": 80
    },
    {
        "track": 1,
        "absoluteTick": 134880,
        "noteNumber": 53,
        "velocity": 80
    },
    {
        "track": 1,
        "absoluteTick": 135120,
        "noteNumber": 44,
        "velocity": 80
    },
    {
        "track": 1,
        "absoluteTick": 135240,
        "noteNumber": 48,
        "velocity": 80
    },
    {
        "track": 1,
        "absoluteTick": 135360,
        "noteNumber": 44,
        "velocity": 80
    },
    {
        "track": 0,
        "absoluteTick": 135600,
        "noteNumber": 63,
        "velocity": 80
    },
    {
        "track": 0,
        "absoluteTick": 135600,
        "noteNumber": 75,
        "velocity": 80
    },
    {
        "track": 1,
        "absoluteTick": 135600,
        "noteNumber": 48,
        "velocity": 80
    },
    {
        "track": 1,
        "absoluteTick": 135720,
        "noteNumber": 44,
        "velocity": 80
    },
    {
        "track": 1,
        "absoluteTick": 135840,
        "noteNumber": 39,
        "velocity": 80
    },
    {
        "track": 1,
        "absoluteTick": 136080,
        "noteNumber": 48,
        "velocity": 80
    },
    {
        "track": 1,
        "absoluteTick": 136200,
        "noteNumber": 43,
        "velocity": 80
    },
    {
        "track": 0,
        "absoluteTick": 136320,
        "noteNumber": 65,
        "velocity": 80
    },
    {
        "track": 0,
        "absoluteTick": 136320,
        "noteNumber": 77,
        "velocity": 80
    },
    {
        "track": 1,
        "absoluteTick": 136320,
        "noteNumber": 37,
        "velocity": 80
    },
    {
        "track": 1,
        "absoluteTick": 136320,
        "noteNumber": 53,
        "velocity": 80
    },
    {
        "track": 0,
        "absoluteTick": 136560,
        "noteNumber": 72,
        "velocity": 80
    },
    {
        "track": 0,
        "absoluteTick": 136560,
        "noteNumber": 84,
        "velocity": 80
    },
    {
        "track": 1,
        "absoluteTick": 136560,
        "noteNumber": 44,
        "velocity": 80
    },
    {
        "track": 1,
        "absoluteTick": 136680,
        "noteNumber": 48,
        "velocity": 80
    },
    {
        "track": 0,
        "absoluteTick": 136800,
        "noteNumber": 70,
        "velocity": 80
    },
    {
        "track": 0,
        "absoluteTick": 136800,
        "noteNumber": 82,
        "velocity": 80
    },
    {
        "track": 1,
        "absoluteTick": 136800,
        "noteNumber": 39,
        "velocity": 80
    },
    {
        "track": 0,
        "absoluteTick": 137040,
        "noteNumber": 72,
        "velocity": 80
    },
    {
        "track": 0,
        "absoluteTick": 137040,
        "noteNumber": 84,
        "velocity": 80
    },
    {
        "track": 1,
        "absoluteTick": 137040,
        "noteNumber": 48,
        "velocity": 80
    },
    {
        "track": 1,
        "absoluteTick": 137160,
        "noteNumber": 46,
        "velocity": 80
    },
    {
        "track": 0,
        "absoluteTick": 137280,
        "noteNumber": 68,
        "velocity": 80
    },
    {
        "track": 0,
        "absoluteTick": 137280,
        "noteNumber": 80,
        "velocity": 80
    },
    {
        "track": 1,
        "absoluteTick": 137280,
        "noteNumber": 44,
        "velocity": 80
    },
    {
        "track": 0,
        "absoluteTick": 137520,
        "noteNumber": 72,
        "velocity": 80
    },
    {
        "track": 0,
        "absoluteTick": 137520,
        "noteNumber": 84,
        "velocity": 80
    },
    {
        "track": 1,
        "absoluteTick": 137520,
        "noteNumber": 48,
        "velocity": 80
    },
    {
        "track": 1,
        "absoluteTick": 137640,
        "noteNumber": 43,
        "velocity": 80
    },
    {
        "track": 0,
        "absoluteTick": 137760,
        "noteNumber": 67,
        "velocity": 80
    },
    {
        "track": 0,
        "absoluteTick": 137760,
        "noteNumber": 79,
        "velocity": 80
    },
    {
        "track": 1,
        "absoluteTick": 137760,
        "noteNumber": 39,
        "velocity": 80
    },
    {
        "track": 1,
        "absoluteTick": 137760,
        "noteNumber": 51,
        "velocity": 80
    },
    {
        "track": 1,
        "absoluteTick": 138000,
        "noteNumber": 44,
        "velocity": 80
    },
    {
        "track": 1,
        "absoluteTick": 138120,
        "noteNumber": 48,
        "velocity": 80
    },
    {
        "track": 0,
        "absoluteTick": 138240,
        "noteNumber": 67,
        "velocity": 80
    },
    {
        "track": 0,
        "absoluteTick": 138240,
        "noteNumber": 79,
        "velocity": 80
    },
    {
        "track": 1,
        "absoluteTick": 138240,
        "noteNumber": 41,
        "velocity": 80
    },
    {
        "track": 0,
        "absoluteTick": 138480,
        "noteNumber": 68,
        "velocity": 80
    },
    {
        "track": 0,
        "absoluteTick": 138480,
        "noteNumber": 80,
        "velocity": 80
    },
    {
        "track": 1,
        "absoluteTick": 138480,
        "noteNumber": 48,
        "velocity": 80
    },
    {
        "track": 1,
        "absoluteTick": 138600,
        "noteNumber": 44,
        "velocity": 80
    },
    {
        "track": 0,
        "absoluteTick": 138720,
        "noteNumber": 67,
        "velocity": 80
    },
    {
        "track": 0,
        "absoluteTick": 138720,
        "noteNumber": 79,
        "velocity": 80
    },
    {
        "track": 1,
        "absoluteTick": 138720,
        "noteNumber": 46,
        "velocity": 80
    },
    {
        "track": 0,
        "absoluteTick": 138960,
        "noteNumber": 68,
        "velocity": 80
    },
    {
        "track": 0,
        "absoluteTick": 138960,
        "noteNumber": 80,
        "velocity": 80
    },
    {
        "track": 1,
        "absoluteTick": 138960,
        "noteNumber": 48,
        "velocity": 80
    },
    {
        "track": 1,
        "absoluteTick": 139080,
        "noteNumber": 43,
        "velocity": 80
    },
    {
        "track": 0,
        "absoluteTick": 139200,
        "noteNumber": 67,
        "velocity": 80
    },
    {
        "track": 0,
        "absoluteTick": 139200,
        "noteNumber": 79,
        "velocity": 80
    },
    {
        "track": 1,
        "absoluteTick": 139200,
        "noteNumber": 41,
        "velocity": 80
    },
    {
        "track": 1,
        "absoluteTick": 139200,
        "noteNumber": 58,
        "velocity": 80
    },
    {
        "track": 1,
        "absoluteTick": 139440,
        "noteNumber": 44,
        "velocity": 80
    },
    {
        "track": 1,
        "absoluteTick": 139560,
        "noteNumber": 48,
        "velocity": 80
    },
    {
        "track": 0,
        "absoluteTick": 139680,
        "noteNumber": 70,
        "velocity": 80
    },
    {
        "track": 0,
        "absoluteTick": 139680,
        "noteNumber": 82,
        "velocity": 80
    },
    {
        "track": 1,
        "absoluteTick": 139680,
        "noteNumber": 46,
        "velocity": 80
    },
    {
        "track": 1,
        "absoluteTick": 139920,
        "noteNumber": 48,
        "velocity": 80
    },
    {
        "track": 1,
        "absoluteTick": 140040,
        "noteNumber": 44,
        "velocity": 80
    },
    {
        "track": 0,
        "absoluteTick": 140160,
        "noteNumber": 75,
        "velocity": 80
    },
    {
        "track": 0,
        "absoluteTick": 140160,
        "noteNumber": 87,
        "velocity": 80
    },
    {
        "track": 1,
        "absoluteTick": 140160,
        "noteNumber": 39,
        "velocity": 80
    },
    {
        "track": 1,
        "absoluteTick": 140400,
        "noteNumber": 48,
        "velocity": 80
    },
    {
        "track": 0,
        "absoluteTick": 140520,
        "noteNumber": 74,
        "velocity": 80
    },
    {
        "track": 1,
        "absoluteTick": 140520,
        "noteNumber": 43,
        "velocity": 80
    },
    {
        "track": 0,
        "absoluteTick": 140580,
        "noteNumber": 73,
        "velocity": 80
    },
    {
        "track": 0,
        "absoluteTick": 140640,
        "noteNumber": 72,
        "velocity": 80
    },
    {
        "track": 0,
        "absoluteTick": 140640,
        "noteNumber": 84,
        "velocity": 80
    },
    {
        "track": 1,
        "absoluteTick": 140640,
        "noteNumber": 41,
        "velocity": 80
    },
    {
        "track": 1,
        "absoluteTick": 140640,
        "noteNumber": 53,
        "velocity": 80
    },
    {
        "track": 1,
        "absoluteTick": 140880,
        "noteNumber": 44,
        "velocity": 80
    },
    {
        "track": 1,
        "absoluteTick": 141000,
        "noteNumber": 48,
        "velocity": 80
    },
    {
        "track": 1,
        "absoluteTick": 141120,
        "noteNumber": 44,
        "velocity": 80
    },
    {
        "track": 1,
        "absoluteTick": 141360,
        "noteNumber": 48,
        "velocity": 80
    },
    {
        "track": 1,
        "absoluteTick": 141480,
        "noteNumber": 44,
        "velocity": 80
    },
    {
        "track": 1,
        "absoluteTick": 141600,
        "noteNumber": 39,
        "velocity": 80
    },
    {
        "track": 1,
        "absoluteTick": 141840,
        "noteNumber": 48,
        "velocity": 80
    },
    {
        "track": 1,
        "absoluteTick": 141960,
        "noteNumber": 43,
        "velocity": 80
    },
    {
        "track": 0,
        "absoluteTick": 142080,
        "noteNumber": 65,
        "velocity": 80
    },
    {
        "track": 0,
        "absoluteTick": 142080,
        "noteNumber": 77,
        "velocity": 80
    },
    {
        "track": 1,
        "absoluteTick": 142080,
        "noteNumber": 37,
        "velocity": 80
    },
    {
        "track": 1,
        "absoluteTick": 142080,
        "noteNumber": 53,
        "velocity": 80
    },
    {
        "track": 0,
        "absoluteTick": 142320,
        "noteNumber": 72,
        "velocity": 80
    },
    {
        "track": 0,
        "absoluteTick": 142320,
        "noteNumber": 84,
        "velocity": 80
    },
    {
        "track": 1,
        "absoluteTick": 142320,
        "noteNumber": 44,
        "velocity": 80
    },
    {
        "track": 1,
        "absoluteTick": 142440,
        "noteNumber": 48,
        "velocity": 80
    },
    {
        "track": 0,
        "absoluteTick": 142560,
        "noteNumber": 70,
        "velocity": 80
    },
    {
        "track": 0,
        "absoluteTick": 142560,
        "noteNumber": 82,
        "velocity": 80
    },
    {
        "track": 1,
        "absoluteTick": 142560,
        "noteNumber": 39,
        "velocity": 80
    },
    {
        "track": 0,
        "absoluteTick": 142800,
        "noteNumber": 72,
        "velocity": 80
    },
    {
        "track": 0,
        "absoluteTick": 142800,
        "noteNumber": 84,
        "velocity": 80
    },
    {
        "track": 1,
        "absoluteTick": 142800,
        "noteNumber": 48,
        "velocity": 80
    },
    {
        "track": 1,
        "absoluteTick": 142920,
        "noteNumber": 46,
        "velocity": 80
    },
    {
        "track": 0,
        "absoluteTick": 143040,
        "noteNumber": 68,
        "velocity": 80
    },
    {
        "track": 0,
        "absoluteTick": 143040,
        "noteNumber": 80,
        "velocity": 80
    },
    {
        "track": 1,
        "absoluteTick": 143040,
        "noteNumber": 44,
        "velocity": 80
    },
    {
        "track": 0,
        "absoluteTick": 143280,
        "noteNumber": 72,
        "velocity": 80
    },
    {
        "track": 0,
        "absoluteTick": 143280,
        "noteNumber": 84,
        "velocity": 80
    },
    {
        "track": 1,
        "absoluteTick": 143280,
        "noteNumber": 48,
        "velocity": 80
    },
    {
        "track": 1,
        "absoluteTick": 143400,
        "noteNumber": 43,
        "velocity": 80
    },
    {
        "track": 0,
        "absoluteTick": 143520,
        "noteNumber": 67,
        "velocity": 80
    },
    {
        "track": 0,
        "absoluteTick": 143520,
        "noteNumber": 79,
        "velocity": 80
    },
    {
        "track": 1,
        "absoluteTick": 143520,
        "noteNumber": 39,
        "velocity": 80
    },
    {
        "track": 1,
        "absoluteTick": 143520,
        "noteNumber": 51,
        "velocity": 80
    },
    {
        "track": 1,
        "absoluteTick": 143760,
        "noteNumber": 44,
        "velocity": 80
    },
    {
        "track": 1,
        "absoluteTick": 143880,
        "noteNumber": 48,
        "velocity": 80
    },
    {
        "track": 0,
        "absoluteTick": 144000,
        "noteNumber": 67,
        "velocity": 80
    },
    {
        "track": 0,
        "absoluteTick": 144000,
        "noteNumber": 79,
        "velocity": 80
    },
    {
        "track": 1,
        "absoluteTick": 144000,
        "noteNumber": 41,
        "velocity": 80
    },
    {
        "track": 0,
        "absoluteTick": 144240,
        "noteNumber": 68,
        "velocity": 80
    },
    {
        "track": 0,
        "absoluteTick": 144240,
        "noteNumber": 80,
        "velocity": 80
    },
    {
        "track": 1,
        "absoluteTick": 144240,
        "noteNumber": 48,
        "velocity": 80
    },
    {
        "track": 1,
        "absoluteTick": 144360,
        "noteNumber": 44,
        "velocity": 80
    },
    {
        "track": 0,
        "absoluteTick": 144480,
        "noteNumber": 67,
        "velocity": 80
    },
    {
        "track": 0,
        "absoluteTick": 144480,
        "noteNumber": 79,
        "velocity": 80
    },
    {
        "track": 1,
        "absoluteTick": 144480,
        "noteNumber": 46,
        "velocity": 80
    },
    {
        "track": 0,
        "absoluteTick": 144720,
        "noteNumber": 68,
        "velocity": 80
    },
    {
        "track": 0,
        "absoluteTick": 144720,
        "noteNumber": 80,
        "velocity": 80
    },
    {
        "track": 1,
        "absoluteTick": 144720,
        "noteNumber": 48,
        "velocity": 80
    },
    {
        "track": 1,
        "absoluteTick": 144840,
        "noteNumber": 43,
        "velocity": 80
    },
    {
        "track": 0,
        "absoluteTick": 144960,
        "noteNumber": 67,
        "velocity": 80
    },
    {
        "track": 0,
        "absoluteTick": 144960,
        "noteNumber": 79,
        "velocity": 80
    },
    {
        "track": 1,
        "absoluteTick": 144960,
        "noteNumber": 41,
        "velocity": 80
    },
    {
        "track": 1,
        "absoluteTick": 144960,
        "noteNumber": 58,
        "velocity": 80
    },
    {
        "track": 1,
        "absoluteTick": 145200,
        "noteNumber": 44,
        "velocity": 80
    },
    {
        "track": 1,
        "absoluteTick": 145320,
        "noteNumber": 48,
        "velocity": 80
    },
    {
        "track": 1,
        "absoluteTick": 145440,
        "noteNumber": 46,
        "velocity": 80
    },
    {
        "track": 0,
        "absoluteTick": 145680,
        "noteNumber": 70,
        "velocity": 80
    },
    {
        "track": 0,
        "absoluteTick": 145680,
        "noteNumber": 82,
        "velocity": 80
    },
    {
        "track": 1,
        "absoluteTick": 145680,
        "noteNumber": 48,
        "velocity": 80
    },
    {
        "track": 1,
        "absoluteTick": 145800,
        "noteNumber": 44,
        "velocity": 80
    },
    {
        "track": 1,
        "absoluteTick": 145920,
        "noteNumber": 39,
        "velocity": 80
    },
    {
        "track": 1,
        "absoluteTick": 146160,
        "noteNumber": 48,
        "velocity": 80
    },
    {
        "track": 1,
        "absoluteTick": 146280,
        "noteNumber": 43,
        "velocity": 80
    },
    {
        "track": 0,
        "absoluteTick": 146400,
        "noteNumber": 65,
        "velocity": 80
    },
    {
        "track": 0,
        "absoluteTick": 146400,
        "noteNumber": 77,
        "velocity": 80
    },
    {
        "track": 1,
        "absoluteTick": 146400,
        "noteNumber": 41,
        "velocity": 80
    },
    {
        "track": 1,
        "absoluteTick": 146400,
        "noteNumber": 53,
        "velocity": 80
    },
    {
        "track": 1,
        "absoluteTick": 146640,
        "noteNumber": 44,
        "velocity": 80
    },
    {
        "track": 1,
        "absoluteTick": 146760,
        "noteNumber": 48,
        "velocity": 80
    },
    {
        "track": 1,
        "absoluteTick": 146880,
        "noteNumber": 44,
        "velocity": 80
    },
    {
        "track": 0,
        "absoluteTick": 147120,
        "noteNumber": 63,
        "velocity": 80
    },
    {
        "track": 0,
        "absoluteTick": 147120,
        "noteNumber": 75,
        "velocity": 80
    },
    {
        "track": 1,
        "absoluteTick": 147120,
        "noteNumber": 48,
        "velocity": 80
    },
    {
        "track": 1,
        "absoluteTick": 147240,
        "noteNumber": 44,
        "velocity": 80
    },
    {
        "track": 1,
        "absoluteTick": 147360,
        "noteNumber": 39,
        "velocity": 80
    },
    {
        "track": 1,
        "absoluteTick": 147600,
        "noteNumber": 48,
        "velocity": 80
    },
    {
        "track": 1,
        "absoluteTick": 147720,
        "noteNumber": 43,
        "velocity": 80
    },
    {
        "track": 0,
        "absoluteTick": 147840,
        "noteNumber": 65,
        "velocity": 80
    },
    {
        "track": 0,
        "absoluteTick": 147840,
        "noteNumber": 77,
        "velocity": 80
    },
    {
        "track": 1,
        "absoluteTick": 147840,
        "noteNumber": 37,
        "velocity": 80
    },
    {
        "track": 1,
        "absoluteTick": 147840,
        "noteNumber": 53,
        "velocity": 80
    },
    {
        "track": 1,
        "absoluteTick": 148080,
        "noteNumber": 44,
        "velocity": 80
    },
    {
        "track": 1,
        "absoluteTick": 148200,
        "noteNumber": 48,
        "velocity": 80
    },
    {
        "track": 1,
        "absoluteTick": 148320,
        "noteNumber": 39,
        "velocity": 80
    },
    {
        "track": 0,
        "absoluteTick": 148560,
        "noteNumber": 60,
        "velocity": 80
    },
    {
        "track": 0,
        "absoluteTick": 148560,
        "noteNumber": 72,
        "velocity": 80
    },
    {
        "track": 1,
        "absoluteTick": 148560,
        "noteNumber": 48,
        "velocity": 80
    },
    {
        "track": 1,
        "absoluteTick": 148680,
        "noteNumber": 46,
        "velocity": 80
    },
    {
        "track": 0,
        "absoluteTick": 148800,
        "noteNumber": 63,
        "velocity": 80
    },
    {
        "track": 0,
        "absoluteTick": 148800,
        "noteNumber": 75,
        "velocity": 80
    },
    {
        "track": 1,
        "absoluteTick": 148800,
        "noteNumber": 44,
        "velocity": 80
    },
    {
        "track": 0,
        "absoluteTick": 149040,
        "noteNumber": 65,
        "velocity": 80
    },
    {
        "track": 0,
        "absoluteTick": 149040,
        "noteNumber": 77,
        "velocity": 80
    },
    {
        "track": 1,
        "absoluteTick": 149040,
        "noteNumber": 48,
        "velocity": 80
    },
    {
        "track": 1,
        "absoluteTick": 149160,
        "noteNumber": 43,
        "velocity": 80
    },
    {
        "track": 0,
        "absoluteTick": 149280,
        "noteNumber": 68,
        "velocity": 80
    },
    {
        "track": 0,
        "absoluteTick": 149280,
        "noteNumber": 80,
        "velocity": 80
    },
    {
        "track": 1,
        "absoluteTick": 149280,
        "noteNumber": 39,
        "velocity": 80
    },
    {
        "track": 1,
        "absoluteTick": 149280,
        "noteNumber": 51,
        "velocity": 80
    },
    {
        "track": 1,
        "absoluteTick": 149520,
        "noteNumber": 44,
        "velocity": 80
    },
    {
        "track": 1,
        "absoluteTick": 149640,
        "noteNumber": 48,
        "velocity": 80
    },
    {
        "track": 0,
        "absoluteTick": 149760,
        "noteNumber": 67,
        "velocity": 80
    },
    {
        "track": 0,
        "absoluteTick": 149760,
        "noteNumber": 79,
        "velocity": 80
    },
    {
        "track": 1,
        "absoluteTick": 149760,
        "noteNumber": 41,
        "velocity": 80
    },
    {
        "track": 1,
        "absoluteTick": 150000,
        "noteNumber": 48,
        "velocity": 80
    },
    {
        "track": 1,
        "absoluteTick": 150120,
        "noteNumber": 44,
        "velocity": 80
    },
    {
        "track": 0,
        "absoluteTick": 150240,
        "noteNumber": 63,
        "velocity": 80
    },
    {
        "track": 0,
        "absoluteTick": 150240,
        "noteNumber": 75,
        "velocity": 80
    },
    {
        "track": 1,
        "absoluteTick": 150240,
        "noteNumber": 46,
        "velocity": 80
    },
    {
        "track": 1,
        "absoluteTick": 150480,
        "noteNumber": 48,
        "velocity": 80
    },
    {
        "track": 1,
        "absoluteTick": 150600,
        "noteNumber": 43,
        "velocity": 80
    },
    {
        "track": 0,
        "absoluteTick": 150720,
        "noteNumber": 65,
        "velocity": 80
    },
    {
        "track": 0,
        "absoluteTick": 150720,
        "noteNumber": 77,
        "velocity": 80
    },
    {
        "track": 1,
        "absoluteTick": 150720,
        "noteNumber": 41,
        "velocity": 80
    },
    {
        "track": 1,
        "absoluteTick": 150720,
        "noteNumber": 53,
        "velocity": 80
    },
    {
        "track": 1,
        "absoluteTick": 150960,
        "noteNumber": 44,
        "velocity": 80
    },
    {
        "track": 1,
        "absoluteTick": 151080,
        "noteNumber": 48,
        "velocity": 80
    },
    {
        "track": 1,
        "absoluteTick": 151200,
        "noteNumber": 41,
        "velocity": 80
    },
    {
        "track": 1,
        "absoluteTick": 151440,
        "noteNumber": 48,
        "velocity": 80
    },
    {
        "track": 1,
        "absoluteTick": 151560,
        "noteNumber": 44,
        "velocity": 80
    },
    {
        "track": 1,
        "absoluteTick": 151680,
        "noteNumber": 41,
        "velocity": 80
    },
    {
        "track": 1,
        "absoluteTick": 151920,
        "noteNumber": 48,
        "velocity": 80
    },
    {
        "track": 1,
        "absoluteTick": 152040,
        "noteNumber": 43,
        "velocity": 80
    },
    {
        "track": 0,
        "absoluteTick": 152160,
        "noteNumber": 65,
        "velocity": 80
    },
    {
        "track": 0,
        "absoluteTick": 152160,
        "noteNumber": 69,
        "velocity": 80
    },
    {
        "track": 0,
        "absoluteTick": 152160,
        "noteNumber": 77,
        "velocity": 80
    },
    {
        "track": 1,
        "absoluteTick": 152160,
        "noteNumber": 41,
        "velocity": 80
    },
    {
        "track": 1,
        "absoluteTick": 152160,
        "noteNumber": 53,
        "velocity": 80
    },
    {
        "track": 1,
        "absoluteTick": 152400,
        "noteNumber": 45,
        "velocity": 80
    },
    {
        "track": 1,
        "absoluteTick": 152520,
        "noteNumber": 48,
        "velocity": 80
    },
    {
        "track": 1,
        "absoluteTick": 152640,
        "noteNumber": 41,
        "velocity": 80
    },
    {
        "track": 1,
        "absoluteTick": 152880,
        "noteNumber": 45,
        "velocity": 80
    },
    {
        "track": 1,
        "absoluteTick": 153000,
        "noteNumber": 48,
        "velocity": 80
    },
    {
        "track": 1,
        "absoluteTick": 153120,
        "noteNumber": 41,
        "velocity": 80
    },
    {
        "track": 1,
        "absoluteTick": 153360,
        "noteNumber": 45,
        "velocity": 80
    },
    {
        "track": 1,
        "absoluteTick": 153480,
        "noteNumber": 48,
        "velocity": 80
    },
    {
        "track": 1,
        "absoluteTick": 153600,
        "noteNumber": 41,
        "velocity": 80
    }
]