{
    "run_id": "0003ca04_1000_10G_10T_30Th1781566649",
    "telemetry": {
        "training time": "1.65715 s",
        "theme": "The_Hollow_Knight_Duel",
        "bpm": "140",
        "generations": "10",
        "temperature": "0.1",
        "population": "1000",
        "threshold": "30",
        "lambda": "0.5",
        "seed": "1317635971",
        "hex_seed": "0003ca0400040a0200043a0200048a0400043a0200040a020003ca040003ea0200040a0200041a0200043a0400045a0200047a0200048a0400043a0200040a020003ca040003ca04"
    },
    "notes": [
        {
            "track": 1,
            "absoluteTick": 0,
            "noteNumber": 64,
            "velocity": 100
        },
        {
            "track": 1,
            "absoluteTick": 0,
            "noteNumber": 71,
            "velocity": 100
        },
        {
            "track": 1,
            "absoluteTick": 0,
            "noteNumber": 76,
            "velocity": 100
        },
        {
            "track": 2,
            "absoluteTick": 0,
            "noteNumber": 48,
            "velocity": 100
        },
        {
            "track": 3,
            "absoluteTick": 0,
            "noteNumber": 69,
            "velocity": 100
        },
        {
            "track": 2,
            "absoluteTick": 480,
            "noteNumber": 46,
            "velocity": 85
        },
        {
            "track": 3,
            "absoluteTick": 480,
            "noteNumber": 66,
            "velocity": 85
        },
        {
            "track": 1,
            "absoluteTick": 960,
            "noteNumber": 68,
            "velocity": 85
        },
        {
            "track": 3,
            "absoluteTick": 960,
            "noteNumber": 69,
            "velocity": 85
        },
        {
            "track": 3,
            "absoluteTick": 960,
            "noteNumber": 76,
            "velocity": 85
        },
        {
            "track": 3,
            "absoluteTick": 960,
            "noteNumber": 81,
            "velocity": 85
        },
        {
            "track": 3,
            "absoluteTick": 1080,
            "noteNumber": 67,
            "velocity": 55
        },
        {
            "track": 2,
            "absoluteTick": 1440,
            "noteNumber": 45,
            "velocity": 85
        },
        {
            "track": 3,
            "absoluteTick": 1560,
            "noteNumber": 71,
            "velocity": 55
        },
        {
            "track": 3,
            "absoluteTick": 1680,
            "noteNumber": 68,
            "velocity": 70
        },
        {
            "track": 1,
            "absoluteTick": 1920,
            "noteNumber": 72,
            "velocity": 100
        },
        {
            "track": 2,
            "absoluteTick": 1920,
            "noteNumber": 46,
            "velocity": 100
        },
        {
            "track": 3,
            "absoluteTick": 2160,
            "noteNumber": 80,
            "velocity": 70
        },
        {
            "track": 3,
            "absoluteTick": 2160,
            "noteNumber": 85,
            "velocity": 70
        },
        {
            "track": 3,
            "absoluteTick": 2160,
            "noteNumber": 73,
            "velocity": 70
        },
        {
            "track": 3,
            "absoluteTick": 2280,
            "noteNumber": 72,
            "velocity": 55
        },
        {
            "track": 1,
            "absoluteTick": 2880,
            "noteNumber": 76,
            "velocity": 85
        },
        {
            "track": 2,
            "absoluteTick": 2880,
            "noteNumber": 45,
            "velocity": 85
        },
        {
            "track": 3,
            "absoluteTick": 3240,
            "noteNumber": 77,
            "velocity": 55
        },
        {
            "track": 3,
            "absoluteTick": 3360,
            "noteNumber": 76,
            "velocity": 85
        },
        {
            "track": 1,
            "absoluteTick": 3840,
            "noteNumber": 78,
            "velocity": 100
        },
        {
            "track": 1,
            "absoluteTick": 3840,
            "noteNumber": 85,
            "velocity": 100
        },
        {
            "track": 1,
            "absoluteTick": 3840,
            "noteNumber": 90,
            "velocity": 100
        },
        {
            "track": 2,
            "absoluteTick": 3840,
            "noteNumber": 49,
            "velocity": 100
        },
        {
            "track": 1,
            "absoluteTick": 4080,
            "noteNumber": 73,
            "velocity": 70
        },
        {
            "track": 1,
            "absoluteTick": 4200,
            "noteNumber": 72,
            "velocity": 55
        },
        {
            "track": 3,
            "absoluteTick": 4320,
            "noteNumber": 88,
            "velocity": 85
        },
        {
            "track": 3,
            "absoluteTick": 4320,
            "noteNumber": 93,
            "velocity": 85
        },
        {
            "track": 3,
            "absoluteTick": 4320,
            "noteNumber": 81,
            "velocity": 85
        },
        {
            "track": 3,
            "absoluteTick": 4440,
            "noteNumber": 73,
            "velocity": 55
        },
        {
            "track": 2,
            "absoluteTick": 4800,
            "noteNumber": 37,
            "velocity": 85
        },
        {
            "track": 2,
            "absoluteTick": 5040,
            "noteNumber": 46,
            "velocity": 70
        },
        {
            "track": 1,
            "absoluteTick": 5160,
            "noteNumber": 76,
            "velocity": 55
        },
        {
            "track": 3,
            "absoluteTick": 5400,
            "noteNumber": 75,
            "velocity": 55
        },
        {
            "track": 3,
            "absoluteTick": 5520,
            "noteNumber": 75,
            "velocity": 70
        },
        {
            "track": 2,
            "absoluteTick": 6000,
            "noteNumber": 46,
            "velocity": 70
        },
        {
            "track": 1,
            "absoluteTick": 6120,
            "noteNumber": 79,
            "velocity": 55
        },
        {
            "track": 1,
            "absoluteTick": 6120,
            "noteNumber": 86,
            "velocity": 55
        },
        {
            "track": 1,
            "absoluteTick": 6120,
            "noteNumber": 91,
            "velocity": 55
        },
        {
            "track": 3,
            "absoluteTick": 6480,
            "noteNumber": 72,
            "velocity": 70
        },
        {
            "track": 3,
            "absoluteTick": 6480,
            "noteNumber": 79,
            "velocity": 70
        },
        {
            "track": 3,
            "absoluteTick": 6480,
            "noteNumber": 84,
            "velocity": 70
        },
        {
            "track": 2,
            "absoluteTick": 6960,
            "noteNumber": 43,
            "velocity": 70
        },
        {
            "track": 3,
            "absoluteTick": 6960,
            "noteNumber": 74,
            "velocity": 70
        },
        {
            "track": 1,
            "absoluteTick": 7080,
            "noteNumber": 67,
            "velocity": 55
        },
        {
            "track": 3,
            "absoluteTick": 7080,
            "noteNumber": 69,
            "velocity": 55
        },
        {
            "track": 1,
            "absoluteTick": 7200,
            "noteNumber": 76,
            "velocity": 85
        },
        {
            "track": 1,
            "absoluteTick": 7680,
            "noteNumber": 71,
            "velocity": 100
        },
        {
            "track": 1,
            "absoluteTick": 7680,
            "noteNumber": 78,
            "velocity": 100
        },
        {
            "track": 1,
            "absoluteTick": 7680,
            "noteNumber": 83,
            "velocity": 100
        },
        {
            "track": 2,
            "absoluteTick": 7680,
            "noteNumber": 55,
            "velocity": 100
        },
        {
            "track": 3,
            "absoluteTick": 7680,
            "noteNumber": 76,
            "velocity": 100
        },
        {
            "track": 2,
            "absoluteTick": 8160,
            "noteNumber": 53,
            "velocity": 85
        },
        {
            "track": 3,
            "absoluteTick": 8160,
            "noteNumber": 73,
            "velocity": 85
        },
        {
            "track": 1,
            "absoluteTick": 8640,
            "noteNumber": 75,
            "velocity": 85
        },
        {
            "track": 3,
            "absoluteTick": 8640,
            "noteNumber": 76,
            "velocity": 85
        },
        {
            "track": 3,
            "absoluteTick": 8640,
            "noteNumber": 83,
            "velocity": 85
        },
        {
            "track": 3,
            "absoluteTick": 8640,
            "noteNumber": 88,
            "velocity": 85
        },
        {
            "track": 3,
            "absoluteTick": 8760,
            "noteNumber": 74,
            "velocity": 55
        },
        {
            "track": 2,
            "absoluteTick": 9120,
            "noteNumber": 52,
            "velocity": 85
        },
        {
            "track": 3,
            "absoluteTick": 9240,
            "noteNumber": 78,
            "velocity": 55
        },
        {
            "track": 3,
            "absoluteTick": 9360,
            "noteNumber": 75,
            "velocity": 70
        },
        {
            "track": 1,
            "absoluteTick": 9600,
            "noteNumber": 79,
            "velocity": 100
        },
        {
            "track": 2,
            "absoluteTick": 9600,
            "noteNumber": 53,
            "velocity": 100
        },
        {
            "track": 3,
            "absoluteTick": 9840,
            "noteNumber": 80,
            "velocity": 70
        },
        {
            "track": 3,
            "absoluteTick": 9840,
            "noteNumber": 87,
            "velocity": 70
        },
        {
            "track": 3,
            "absoluteTick": 9840,
            "noteNumber": 92,
            "velocity": 70
        },
        {
            "track": 3,
            "absoluteTick": 9960,
            "noteNumber": 79,
            "velocity": 55
        },
        {
            "track": 1,
            "absoluteTick": 10560,
            "noteNumber": 83,
            "velocity": 85
        },
        {
            "track": 2,
            "absoluteTick": 10560,
            "noteNumber": 52,
            "velocity": 85
        },
        {
            "track": 3,
            "absoluteTick": 10920,
            "noteNumber": 84,
            "velocity": 55
        },
        {
            "track": 3,
            "absoluteTick": 11040,
            "noteNumber": 83,
            "velocity": 85
        },
        {
            "track": 1,
            "absoluteTick": 11520,
            "noteNumber": 85,
            "velocity": 100
        },
        {
            "track": 1,
            "absoluteTick": 11520,
            "noteNumber": 97,
            "velocity": 100
        },
        {
            "track": 1,
            "absoluteTick": 11520,
            "noteNumber": 92,
            "velocity": 100
        },
        {
            "track": 2,
            "absoluteTick": 11520,
            "noteNumber": 56,
            "velocity": 100
        },
        {
            "track": 1,
            "absoluteTick": 11760,
            "noteNumber": 80,
            "velocity": 70
        },
        {
            "track": 1,
            "absoluteTick": 11880,
            "noteNumber": 79,
            "velocity": 55
        },
        {
            "track": 3,
            "absoluteTick": 12000,
            "noteNumber": 88,
            "velocity": 85
        },
        {
            "track": 3,
            "absoluteTick": 12000,
            "noteNumber": 95,
            "velocity": 85
        },
        {
            "track": 3,
            "absoluteTick": 12000,
            "noteNumber": 100,
            "velocity": 85
        },
        {
            "track": 3,
            "absoluteTick": 12120,
            "noteNumber": 80,
            "velocity": 55
        },
        {
            "track": 2,
            "absoluteTick": 12480,
            "noteNumber": 44,
            "velocity": 85
        },
        {
            "track": 2,
            "absoluteTick": 12720,
            "noteNumber": 53,
            "velocity": 70
        },
        {
            "track": 1,
            "absoluteTick": 12840,
            "noteNumber": 83,
            "velocity": 55
        },
        {
            "track": 3,
            "absoluteTick": 13080,
            "noteNumber": 82,
            "velocity": 55
        },
        {
            "track": 3,
            "absoluteTick": 13200,
            "noteNumber": 82,
            "velocity": 70
        },
        {
            "track": 2,
            "absoluteTick": 13680,
            "noteNumber": 53,
            "velocity": 70
        },
        {
            "track": 1,
            "absoluteTick": 13800,
            "noteNumber": 86,
            "velocity": 55
        },
        {
            "track": 1,
            "absoluteTick": 13800,
            "noteNumber": 98,
            "velocity": 55
        },
        {
            "track": 1,
            "absoluteTick": 13800,
            "noteNumber": 93,
            "velocity": 55
        },
        {
            "track": 3,
            "absoluteTick": 14160,
            "noteNumber": 79,
            "velocity": 70
        },
        {
            "track": 3,
            "absoluteTick": 14160,
            "noteNumber": 86,
            "velocity": 70
        },
        {
            "track": 3,
            "absoluteTick": 14160,
            "noteNumber": 91,
            "velocity": 70
        },
        {
            "track": 2,
            "absoluteTick": 14640,
            "noteNumber": 50,
            "velocity": 70
        },
        {
            "track": 3,
            "absoluteTick": 14640,
            "noteNumber": 81,
            "velocity": 70
        },
        {
            "track": 1,
            "absoluteTick": 14760,
            "noteNumber": 74,
            "velocity": 55
        },
        {
            "track": 3,
            "absoluteTick": 14760,
            "noteNumber": 76,
            "velocity": 55
        },
        {
            "track": 1,
            "absoluteTick": 14880,
            "noteNumber": 83,
            "velocity": 85
        },
        {
            "track": 1,
            "absoluteTick": 15360,
            "noteNumber": 48,
            "velocity": 100
        },
        {
            "track": 2,
            "absoluteTick": 15360,
            "noteNumber": 46,
            "velocity": 100
        },
        {
            "track": 3,
            "absoluteTick": 15360,
            "noteNumber": 58,
            "velocity": 100
        },
        {
            "track": 1,
            "absoluteTick": 15480,
            "noteNumber": 48,
            "velocity": 55
        },
        {
            "track": 1,
            "absoluteTick": 15600,
            "noteNumber": 48,
            "velocity": 70
        },
        {
            "track": 2,
            "absoluteTick": 15600,
            "noteNumber": 58,
            "velocity": 70
        },
        {
            "track": 2,
            "absoluteTick": 15600,
            "noteNumber": 65,
            "velocity": 70
        },
        {
            "track": 3,
            "absoluteTick": 15600,
            "noteNumber": 56,
            "velocity": 70
        },
        {
            "track": 1,
            "absoluteTick": 15720,
            "noteNumber": 48,
            "velocity": 55
        },
        {
            "track": 2,
            "absoluteTick": 15720,
            "noteNumber": 70,
            "velocity": 55
        },
        {
            "track": 1,
            "absoluteTick": 15840,
            "noteNumber": 48,
            "velocity": 85
        },
        {
            "track": 1,
            "absoluteTick": 15960,
            "noteNumber": 55,
            "velocity": 55
        },
        {
            "track": 2,
            "absoluteTick": 15960,
            "noteNumber": 67,
            "velocity": 55
        },
        {
            "track": 2,
            "absoluteTick": 15960,
            "noteNumber": 74,
            "velocity": 55
        },
        {
            "track": 1,
            "absoluteTick": 16080,
            "noteNumber": 58,
            "velocity": 70
        },
        {
            "track": 2,
            "absoluteTick": 16080,
            "noteNumber": 67,
            "velocity": 70
        },
        {
            "track": 3,
            "absoluteTick": 16080,
            "noteNumber": 54,
            "velocity": 70
        },
        {
            "track": 1,
            "absoluteTick": 16200,
            "noteNumber": 51,
            "velocity": 55
        },
        {
            "track": 2,
            "absoluteTick": 16200,
            "noteNumber": 64,
            "velocity": 55
        },
        {
            "track": 2,
            "absoluteTick": 16200,
            "noteNumber": 71,
            "velocity": 55
        },
        {
            "track": 1,
            "absoluteTick": 16320,
            "noteNumber": 51,
            "velocity": 85
        },
        {
            "track": 1,
            "absoluteTick": 16440,
            "noteNumber": 58,
            "velocity": 55
        },
        {
            "track": 2,
            "absoluteTick": 16440,
            "noteNumber": 64,
            "velocity": 55
        },
        {
            "track": 1,
            "absoluteTick": 16560,
            "noteNumber": 58,
            "velocity": 70
        },
        {
            "track": 3,
            "absoluteTick": 16560,
            "noteNumber": 57,
            "velocity": 70
        },
        {
            "track": 1,
            "absoluteTick": 16680,
            "noteNumber": 58,
            "velocity": 55
        },
        {
            "track": 2,
            "absoluteTick": 16680,
            "noteNumber": 61,
            "velocity": 55
        },
        {
            "track": 2,
            "absoluteTick": 16680,
            "noteNumber": 68,
            "velocity": 55
        },
        {
            "track": 1,
            "absoluteTick": 16800,
            "noteNumber": 51,
            "velocity": 85
        },
        {
            "track": 2,
            "absoluteTick": 16800,
            "noteNumber": 61,
            "velocity": 85
        },
        {
            "track": 1,
            "absoluteTick": 16920,
            "noteNumber": 56,
            "velocity": 55
        },
        {
            "track": 2,
            "absoluteTick": 16920,
            "noteNumber": 68,
            "velocity": 55
        },
        {
            "track": 2,
            "absoluteTick": 16920,
            "noteNumber": 75,
            "velocity": 55
        },
        {
            "track": 1,
            "absoluteTick": 17040,
            "noteNumber": 49,
            "velocity": 70
        },
        {
            "track": 2,
            "absoluteTick": 17040,
            "noteNumber": 68,
            "velocity": 70
        },
        {
            "track": 3,
            "absoluteTick": 17040,
            "noteNumber": 58,
            "velocity": 70
        },
        {
            "track": 1,
            "absoluteTick": 17160,
            "noteNumber": 52,
            "velocity": 55
        },
        {
            "track": 2,
            "absoluteTick": 17160,
            "noteNumber": 68,
            "velocity": 55
        },
        {
            "track": 2,
            "absoluteTick": 17160,
            "noteNumber": 75,
            "velocity": 55
        },
        {
            "track": 1,
            "absoluteTick": 17280,
            "noteNumber": 59,
            "velocity": 100
        },
        {
            "track": 3,
            "absoluteTick": 17280,
            "noteNumber": 56,
            "velocity": 100
        },
        {
            "track": 1,
            "absoluteTick": 17400,
            "noteNumber": 59,
            "velocity": 55
        },
        {
            "track": 2,
            "absoluteTick": 17400,
            "noteNumber": 68,
            "velocity": 55
        },
        {
            "track": 1,
            "absoluteTick": 17520,
            "noteNumber": 52,
            "velocity": 70
        },
        {
            "track": 2,
            "absoluteTick": 17520,
            "noteNumber": 68,
            "velocity": 70
        },
        {
            "track": 2,
            "absoluteTick": 17520,
            "noteNumber": 75,
            "velocity": 70
        },
        {
            "track": 3,
            "absoluteTick": 17520,
            "noteNumber": 58,
            "velocity": 70
        },
        {
            "track": 1,
            "absoluteTick": 17640,
            "noteNumber": 57,
            "velocity": 55
        },
        {
            "track": 2,
            "absoluteTick": 17640,
            "noteNumber": 68,
            "velocity": 55
        },
        {
            "track": 1,
            "absoluteTick": 17760,
            "noteNumber": 57,
            "velocity": 85
        },
        {
            "track": 2,
            "absoluteTick": 17760,
            "noteNumber": 63,
            "velocity": 85
        },
        {
            "track": 2,
            "absoluteTick": 17760,
            "noteNumber": 70,
            "velocity": 85
        },
        {
            "track": 3,
            "absoluteTick": 17760,
            "noteNumber": 60,
            "velocity": 85
        },
        {
            "track": 1,
            "absoluteTick": 17880,
            "noteNumber": 57,
            "velocity": 55
        },
        {
            "track": 2,
            "absoluteTick": 17880,
            "noteNumber": 72,
            "velocity": 55
        },
        {
            "track": 1,
            "absoluteTick": 18000,
            "noteNumber": 57,
            "velocity": 70
        },
        {
            "track": 1,
            "absoluteTick": 18120,
            "noteNumber": 57,
            "velocity": 55
        },
        {
            "track": 2,
            "absoluteTick": 18120,
            "noteNumber": 72,
            "velocity": 55
        },
        {
            "track": 2,
            "absoluteTick": 18120,
            "noteNumber": 79,
            "velocity": 55
        },
        {
            "track": 1,
            "absoluteTick": 18240,
            "noteNumber": 57,
            "velocity": 85
        },
        {
            "track": 2,
            "absoluteTick": 18240,
            "noteNumber": 72,
            "velocity": 85
        },
        {
            "track": 3,
            "absoluteTick": 18240,
            "noteNumber": 57,
            "velocity": 85
        },
        {
            "track": 1,
            "absoluteTick": 18360,
            "noteNumber": 57,
            "velocity": 55
        },
        {
            "track": 2,
            "absoluteTick": 18360,
            "noteNumber": 67,
            "velocity": 55
        },
        {
            "track": 2,
            "absoluteTick": 18360,
            "noteNumber": 74,
            "velocity": 55
        },
        {
            "track": 1,
            "absoluteTick": 18480,
            "noteNumber": 57,
            "velocity": 70
        },
        {
            "track": 2,
            "absoluteTick": 18480,
            "noteNumber": 67,
            "velocity": 70
        },
        {
            "track": 1,
            "absoluteTick": 18600,
            "noteNumber": 57,
            "velocity": 55
        },
        {
            "track": 2,
            "absoluteTick": 18600,
            "noteNumber": 72,
            "velocity": 55
        },
        {
            "track": 2,
            "absoluteTick": 18600,
            "noteNumber": 79,
            "velocity": 55
        },
        {
            "track": 1,
            "absoluteTick": 18720,
            "noteNumber": 57,
            "velocity": 85
        },
        {
            "track": 2,
            "absoluteTick": 18720,
            "noteNumber": 67,
            "velocity": 85
        },
        {
            "track": 3,
            "absoluteTick": 18720,
            "noteNumber": 56,
            "velocity": 85
        },
        {
            "track": 1,
            "absoluteTick": 18840,
            "noteNumber": 52,
            "velocity": 55
        },
        {
            "track": 2,
            "absoluteTick": 18840,
            "noteNumber": 62,
            "velocity": 55
        },
        {
            "track": 2,
            "absoluteTick": 18840,
            "noteNumber": 69,
            "velocity": 55
        },
        {
            "track": 1,
            "absoluteTick": 18960,
            "noteNumber": 52,
            "velocity": 70
        },
        {
            "track": 1,
            "absoluteTick": 19080,
            "noteNumber": 52,
            "velocity": 55
        },
        {
            "track": 2,
            "absoluteTick": 19080,
            "noteNumber": 62,
            "velocity": 55
        },
        {
            "track": 1,
            "absoluteTick": 19200,
            "noteNumber": 59,
            "velocity": 100
        },
        {
            "track": 2,
            "absoluteTick": 19200,
            "noteNumber": 61,
            "velocity": 100
        },
        {
            "track": 2,
            "absoluteTick": 19200,
            "noteNumber": 68,
            "velocity": 100
        },
        {
            "track": 3,
            "absoluteTick": 19200,
            "noteNumber": 51,
            "velocity": 100
        },
        {
            "track": 1,
            "absoluteTick": 19680,
            "noteNumber": 59,
            "velocity": 85
        },
        {
            "track": 3,
            "absoluteTick": 19680,
            "noteNumber": 63,
            "velocity": 85
        },
        {
            "track": 1,
            "absoluteTick": 19800,
            "noteNumber": 50,
            "velocity": 55
        },
        {
            "track": 1,
            "absoluteTick": 19920,
            "noteNumber": 55,
            "velocity": 70
        },
        {
            "track": 1,
            "absoluteTick": 20040,
            "noteNumber": 55,
            "velocity": 55
        },
        {
            "track": 1,
            "absoluteTick": 20160,
            "noteNumber": 53,
            "velocity": 85
        },
        {
            "track": 2,
            "absoluteTick": 20160,
            "noteNumber": 62,
            "velocity": 85
        },
        {
            "track": 1,
            "absoluteTick": 20280,
            "noteNumber": 58,
            "velocity": 55
        },
        {
            "track": 2,
            "absoluteTick": 20280,
            "noteNumber": 60,
            "velocity": 55
        },
        {
            "track": 2,
            "absoluteTick": 20280,
            "noteNumber": 67,
            "velocity": 55
        },
        {
            "track": 2,
            "absoluteTick": 20400,
            "noteNumber": 63,
            "velocity": 70
        },
        {
            "track": 3,
            "absoluteTick": 20640,
            "noteNumber": 54,
            "velocity": 85
        },
        {
            "track": 1,
            "absoluteTick": 20760,
            "noteNumber": 58,
            "velocity": 55
        },
        {
            "track": 2,
            "absoluteTick": 20880,
            "noteNumber": 63,
            "velocity": 70
        },
        {
            "track": 2,
            "absoluteTick": 20880,
            "noteNumber": 70,
            "velocity": 70
        },
        {
            "track": 3,
            "absoluteTick": 20880,
            "noteNumber": 51,
            "velocity": 70
        },
        {
            "track": 2,
            "absoluteTick": 21000,
            "noteNumber": 70,
            "velocity": 55
        },
        {
            "track": 1,
            "absoluteTick": 21240,
            "noteNumber": 54,
            "velocity": 55
        },
        {
            "track": 1,
            "absoluteTick": 21360,
            "noteNumber": 56,
            "velocity": 70
        },
        {
            "track": 1,
            "absoluteTick": 21360,
            "noteNumber": 63,
            "velocity": 70
        },
        {
            "track": 3,
            "absoluteTick": 21360,
            "noteNumber": 51,
            "velocity": 70
        },
        {
            "track": 1,
            "absoluteTick": 21480,
            "noteNumber": 59,
            "velocity": 55
        },
        {
            "track": 2,
            "absoluteTick": 21480,
            "noteNumber": 74,
            "velocity": 55
        },
        {
            "track": 2,
            "absoluteTick": 21480,
            "noteNumber": 67,
            "velocity": 55
        },
        {
            "track": 1,
            "absoluteTick": 21600,
            "noteNumber": 59,
            "velocity": 85
        },
        {
            "track": 2,
            "absoluteTick": 21600,
            "noteNumber": 67,
            "velocity": 85
        },
        {
            "track": 3,
            "absoluteTick": 21600,
            "noteNumber": 55,
            "velocity": 85
        },
        {
            "track": 1,
            "absoluteTick": 21720,
            "noteNumber": 59,
            "velocity": 55
        },
        {
            "track": 2,
            "absoluteTick": 21720,
            "noteNumber": 72,
            "velocity": 55
        },
        {
            "track": 2,
            "absoluteTick": 21720,
            "noteNumber": 79,
            "velocity": 55
        },
        {
            "track": 1,
            "absoluteTick": 21840,
            "noteNumber": 55,
            "velocity": 70
        },
        {
            "track": 2,
            "absoluteTick": 21840,
            "noteNumber": 69,
            "velocity": 70
        },
        {
            "track": 1,
            "absoluteTick": 21960,
            "noteNumber": 56,
            "velocity": 55
        },
        {
            "track": 1,
            "absoluteTick": 21960,
            "noteNumber": 63,
            "velocity": 55
        },
        {
            "track": 2,
            "absoluteTick": 21960,
            "noteNumber": 76,
            "velocity": 55
        },
        {
            "track": 2,
            "absoluteTick": 21960,
            "noteNumber": 69,
            "velocity": 55
        },
        {
            "track": 1,
            "absoluteTick": 22080,
            "noteNumber": 59,
            "velocity": 85
        },
        {
            "track": 2,
            "absoluteTick": 22080,
            "noteNumber": 62,
            "velocity": 85
        },
        {
            "track": 3,
            "absoluteTick": 22080,
            "noteNumber": 54,
            "velocity": 85
        },
        {
            "track": 2,
            "absoluteTick": 22200,
            "noteNumber": 62,
            "velocity": 55
        },
        {
            "track": 2,
            "absoluteTick": 22200,
            "noteNumber": 69,
            "velocity": 55
        },
        {
            "track": 1,
            "absoluteTick": 22320,
            "noteNumber": 55,
            "velocity": 70
        },
        {
            "track": 2,
            "absoluteTick": 22320,
            "noteNumber": 62,
            "velocity": 70
        },
        {
            "track": 3,
            "absoluteTick": 22320,
            "noteNumber": 52,
            "velocity": 70
        },
        {
            "track": 1,
            "absoluteTick": 22440,
            "noteNumber": 59,
            "velocity": 55
        },
        {
            "track": 1,
            "absoluteTick": 22440,
            "noteNumber": 66,
            "velocity": 55
        },
        {
            "track": 2,
            "absoluteTick": 22440,
            "noteNumber": 69,
            "velocity": 55
        },
        {
            "track": 2,
            "absoluteTick": 22440,
            "noteNumber": 62,
            "velocity": 55
        },
        {
            "track": 1,
            "absoluteTick": 22560,
            "noteNumber": 62,
            "velocity": 85
        },
        {
            "track": 3,
            "absoluteTick": 22560,
            "noteNumber": 49,
            "velocity": 85
        },
        {
            "track": 2,
            "absoluteTick": 22680,
            "noteNumber": 62,
            "velocity": 55
        },
        {
            "track": 3,
            "absoluteTick": 22680,
            "noteNumber": 53,
            "velocity": 55
        },
        {
            "track": 1,
            "absoluteTick": 22800,
            "noteNumber": 50,
            "velocity": 70
        },
        {
            "track": 2,
            "absoluteTick": 22800,
            "noteNumber": 62,
            "velocity": 70
        },
        {
            "track": 2,
            "absoluteTick": 22800,
            "noteNumber": 69,
            "velocity": 70
        },
        {
            "track": 1,
            "absoluteTick": 22920,
            "noteNumber": 55,
            "velocity": 55
        },
        {
            "track": 2,
            "absoluteTick": 22920,
            "noteNumber": 62,
            "velocity": 55
        },
        {
            "track": 1,
            "absoluteTick": 23040,
            "noteNumber": 71,
            "velocity": 100
        },
        {
            "track": 1,
            "absoluteTick": 23040,
            "noteNumber": 76,
            "velocity": 100
        },
        {
            "track": 1,
            "absoluteTick": 23040,
            "noteNumber": 64,
            "velocity": 100
        },
        {
            "track": 2,
            "absoluteTick": 23040,
            "noteNumber": 48,
            "velocity": 100
        },
        {
            "track": 3,
            "absoluteTick": 23040,
            "noteNumber": 69,
            "velocity": 100
        },
        {
            "track": 2,
            "absoluteTick": 23520,
            "noteNumber": 46,
            "velocity": 85
        },
        {
            "track": 3,
            "absoluteTick": 23520,
            "noteNumber": 66,
            "velocity": 85
        },
        {
            "track": 1,
            "absoluteTick": 24000,
            "noteNumber": 68,
            "velocity": 85
        },
        {
            "track": 3,
            "absoluteTick": 24000,
            "noteNumber": 81,
            "velocity": 85
        },
        {
            "track": 3,
            "absoluteTick": 24000,
            "noteNumber": 76,
            "velocity": 85
        },
        {
            "track": 3,
            "absoluteTick": 24000,
            "noteNumber": 69,
            "velocity": 85
        },
        {
            "track": 3,
            "absoluteTick": 24120,
            "noteNumber": 67,
            "velocity": 55
        },
        {
            "track": 2,
            "absoluteTick": 24480,
            "noteNumber": 45,
            "velocity": 85
        },
        {
            "track": 3,
            "absoluteTick": 24600,
            "noteNumber": 71,
            "velocity": 55
        },
        {
            "track": 3,
            "absoluteTick": 24720,
            "noteNumber": 68,
            "velocity": 70
        },
        {
            "track": 1,
            "absoluteTick": 24960,
            "noteNumber": 72,
            "velocity": 100
        },
        {
            "track": 2,
            "absoluteTick": 24960,
            "noteNumber": 46,
            "velocity": 100
        },
        {
            "track": 3,
            "absoluteTick": 25200,
            "noteNumber": 73,
            "velocity": 70
        },
        {
            "track": 3,
            "absoluteTick": 25200,
            "noteNumber": 80,
            "velocity": 70
        },
        {
            "track": 3,
            "absoluteTick": 25200,
            "noteNumber": 85,
            "velocity": 70
        },
        {
            "track": 3,
            "absoluteTick": 25320,
            "noteNumber": 72,
            "velocity": 55
        },
        {
            "track": 1,
            "absoluteTick": 25920,
            "noteNumber": 76,
            "velocity": 85
        },
        {
            "track": 2,
            "absoluteTick": 25920,
            "noteNumber": 45,
            "velocity": 85
        },
        {
            "track": 3,
            "absoluteTick": 26280,
            "noteNumber": 77,
            "velocity": 55
        },
        {
            "track": 3,
            "absoluteTick": 26400,
            "noteNumber": 76,
            "velocity": 85
        },
        {
            "track": 1,
            "absoluteTick": 26880,
            "noteNumber": 78,
            "velocity": 100
        },
        {
            "track": 1,
            "absoluteTick": 26880,
            "noteNumber": 85,
            "velocity": 100
        },
        {
            "track": 1,
            "absoluteTick": 26880,
            "noteNumber": 90,
            "velocity": 100
        },
        {
            "track": 2,
            "absoluteTick": 26880,
            "noteNumber": 49,
            "velocity": 100
        },
        {
            "track": 1,
            "absoluteTick": 27120,
            "noteNumber": 73,
            "velocity": 70
        },
        {
            "track": 1,
            "absoluteTick": 27240,
            "noteNumber": 72,
            "velocity": 55
        },
        {
            "track": 3,
            "absoluteTick": 27360,
            "noteNumber": 93,
            "velocity": 85
        },
        {
            "track": 3,
            "absoluteTick": 27360,
            "noteNumber": 88,
            "velocity": 85
        },
        {
            "track": 3,
            "absoluteTick": 27360,
            "noteNumber": 81,
            "velocity": 85
        },
        {
            "track": 3,
            "absoluteTick": 27480,
            "noteNumber": 73,
            "velocity": 55
        },
        {
            "track": 2,
            "absoluteTick": 27840,
            "noteNumber": 37,
            "velocity": 85
        },
        {
            "track": 2,
            "absoluteTick": 28080,
            "noteNumber": 46,
            "velocity": 70
        },
        {
            "track": 1,
            "absoluteTick": 28200,
            "noteNumber": 76,
            "velocity": 55
        },
        {
            "track": 3,
            "absoluteTick": 28440,
            "noteNumber": 75,
            "velocity": 55
        },
        {
            "track": 3,
            "absoluteTick": 28560,
            "noteNumber": 75,
            "velocity": 70
        },
        {
            "track": 2,
            "absoluteTick": 29040,
            "noteNumber": 46,
            "velocity": 70
        },
        {
            "track": 1,
            "absoluteTick": 29160,
            "noteNumber": 79,
            "velocity": 55
        },
        {
            "track": 1,
            "absoluteTick": 29160,
            "noteNumber": 86,
            "velocity": 55
        },
        {
            "track": 1,
            "absoluteTick": 29160,
            "noteNumber": 91,
            "velocity": 55
        },
        {
            "track": 3,
            "absoluteTick": 29520,
            "noteNumber": 79,
            "velocity": 70
        },
        {
            "track": 3,
            "absoluteTick": 29520,
            "noteNumber": 84,
            "velocity": 70
        },
        {
            "track": 3,
            "absoluteTick": 29520,
            "noteNumber": 72,
            "velocity": 70
        },
        {
            "track": 2,
            "absoluteTick": 30000,
            "noteNumber": 43,
            "velocity": 70
        },
        {
            "track": 3,
            "absoluteTick": 30000,
            "noteNumber": 74,
            "velocity": 70
        },
        {
            "track": 1,
            "absoluteTick": 30120,
            "noteNumber": 67,
            "velocity": 55
        },
        {
            "track": 3,
            "absoluteTick": 30120,
            "noteNumber": 69,
            "velocity": 55
        },
        {
            "track": 1,
            "absoluteTick": 30240,
            "noteNumber": 76,
            "velocity": 85
        },
        {
            "track": 1,
            "absoluteTick": 30720,
            "noteNumber": 67,
            "velocity": 100
        },
        {
            "track": 1,
            "absoluteTick": 30720,
            "noteNumber": 71,
            "velocity": 100
        },
        {
            "track": 2,
            "absoluteTick": 30720,
            "noteNumber": 55,
            "velocity": 100
        },
        {
            "track": 3,
            "absoluteTick": 30720,
            "noteNumber": 79,
            "velocity": 100
        },
        {
            "track": 1,
            "absoluteTick": 31680,
            "noteNumber": 60,
            "velocity": 85
        },
        {
            "track": 1,
            "absoluteTick": 31680,
            "noteNumber": 67,
            "velocity": 85
        },
        {
            "track": 2,
            "absoluteTick": 31680,
            "noteNumber": 36,
            "velocity": 85
        },
        {
            "track": 2,
            "absoluteTick": 31680,
            "noteNumber": 48,
            "velocity": 85
        },
        {
            "track": 3,
            "absoluteTick": 31800,
            "noteNumber": 72,
            "velocity": 55
        }
    ]
}