{
    "run_id": "0003ca04_1000_100G_10T_30Th1781566464",
    "telemetry": {
        "training time": "14.3764 s",
        "theme": "The_Abyssal_Waltz",
        "bpm": "85",
        "generations": "100",
        "temperature": "0.1",
        "population": "1000",
        "threshold": "30",
        "lambda": "0.5",
        "seed": "1716187064",
        "hex_seed": "0003ca0400040a0200043a0200048a0400043a0200040a020003ca040003ea0200040a0200041a0200043a0400045a0200047a0200048a0400043a0200040a020003ca040003ca04"
    },
    "notes": [
        {
            "track": 1,
            "absoluteTick": 0,
            "noteNumber": 72,
            "velocity": 100
        },
        {
            "track": 2,
            "absoluteTick": 0,
            "noteNumber": 50,
            "velocity": 100
        },
        {
            "track": 3,
            "absoluteTick": 0,
            "noteNumber": 60,
            "velocity": 100
        },
        {
            "track": 1,
            "absoluteTick": 480,
            "noteNumber": 81,
            "velocity": 85
        },
        {
            "track": 3,
            "absoluteTick": 480,
            "noteNumber": 61,
            "velocity": 85
        },
        {
            "track": 3,
            "absoluteTick": 720,
            "noteNumber": 63,
            "velocity": 70
        },
        {
            "track": 1,
            "absoluteTick": 960,
            "noteNumber": 81,
            "velocity": 85
        },
        {
            "track": 2,
            "absoluteTick": 960,
            "noteNumber": 50,
            "velocity": 85
        },
        {
            "track": 2,
            "absoluteTick": 960,
            "noteNumber": 57,
            "velocity": 85
        },
        {
            "track": 3,
            "absoluteTick": 1200,
            "noteNumber": 61,
            "velocity": 70
        },
        {
            "track": 3,
            "absoluteTick": 1680,
            "noteNumber": 60,
            "velocity": 70
        },
        {
            "track": 1,
            "absoluteTick": 1920,
            "noteNumber": 81,
            "velocity": 100
        },
        {
            "track": 2,
            "absoluteTick": 1920,
            "noteNumber": 48,
            "velocity": 100
        },
        {
            "track": 3,
            "absoluteTick": 2160,
            "noteNumber": 61,
            "velocity": 70
        },
        {
            "track": 3,
            "absoluteTick": 2400,
            "noteNumber": 61,
            "velocity": 85
        },
        {
            "track": 3,
            "absoluteTick": 2640,
            "noteNumber": 63,
            "velocity": 70
        },
        {
            "track": 1,
            "absoluteTick": 2880,
            "noteNumber": 81,
            "velocity": 85
        },
        {
            "track": 2,
            "absoluteTick": 2880,
            "noteNumber": 48,
            "velocity": 85
        },
        {
            "track": 2,
            "absoluteTick": 2880,
            "noteNumber": 55,
            "velocity": 85
        },
        {
            "track": 3,
            "absoluteTick": 3120,
            "noteNumber": 63,
            "velocity": 70
        },
        {
            "track": 1,
            "absoluteTick": 3360,
            "noteNumber": 78,
            "velocity": 85
        },
        {
            "track": 3,
            "absoluteTick": 3360,
            "noteNumber": 61,
            "velocity": 85
        },
        {
            "track": 2,
            "absoluteTick": 3840,
            "noteNumber": 45,
            "velocity": 100
        },
        {
            "track": 3,
            "absoluteTick": 3840,
            "noteNumber": 64,
            "velocity": 100
        },
        {
            "track": 3,
            "absoluteTick": 4080,
            "noteNumber": 63,
            "velocity": 70
        },
        {
            "track": 1,
            "absoluteTick": 4320,
            "noteNumber": 78,
            "velocity": 85
        },
        {
            "track": 2,
            "absoluteTick": 4320,
            "noteNumber": 48,
            "velocity": 85
        },
        {
            "track": 2,
            "absoluteTick": 4320,
            "noteNumber": 55,
            "velocity": 85
        },
        {
            "track": 1,
            "absoluteTick": 4560,
            "noteNumber": 78,
            "velocity": 70
        },
        {
            "track": 1,
            "absoluteTick": 5040,
            "noteNumber": 78,
            "velocity": 70
        },
        {
            "track": 3,
            "absoluteTick": 5040,
            "noteNumber": 62,
            "velocity": 70
        },
        {
            "track": 2,
            "absoluteTick": 5280,
            "noteNumber": 47,
            "velocity": 85
        },
        {
            "track": 1,
            "absoluteTick": 5520,
            "noteNumber": 83,
            "velocity": 70
        },
        {
            "track": 3,
            "absoluteTick": 5520,
            "noteNumber": 57,
            "velocity": 70
        },
        {
            "track": 1,
            "absoluteTick": 5760,
            "noteNumber": 83,
            "velocity": 100
        },
        {
            "track": 3,
            "absoluteTick": 5760,
            "noteNumber": 54,
            "velocity": 100
        },
        {
            "track": 3,
            "absoluteTick": 6000,
            "noteNumber": 57,
            "velocity": 70
        },
        {
            "track": 1,
            "absoluteTick": 6240,
            "noteNumber": 83,
            "velocity": 85
        },
        {
            "track": 2,
            "absoluteTick": 6240,
            "noteNumber": 44,
            "velocity": 85
        },
        {
            "track": 2,
            "absoluteTick": 6240,
            "noteNumber": 51,
            "velocity": 85
        },
        {
            "track": 3,
            "absoluteTick": 6240,
            "noteNumber": 60,
            "velocity": 85
        },
        {
            "track": 3,
            "absoluteTick": 6480,
            "noteNumber": 57,
            "velocity": 70
        },
        {
            "track": 3,
            "absoluteTick": 6720,
            "noteNumber": 58,
            "velocity": 85
        },
        {
            "track": 1,
            "absoluteTick": 7200,
            "noteNumber": 83,
            "velocity": 85
        },
        {
            "track": 2,
            "absoluteTick": 7200,
            "noteNumber": 44,
            "velocity": 85
        },
        {
            "track": 3,
            "absoluteTick": 7200,
            "noteNumber": 61,
            "velocity": 85
        },
        {
            "track": 3,
            "absoluteTick": 7440,
            "noteNumber": 59,
            "velocity": 70
        },
        {
            "track": 1,
            "absoluteTick": 7680,
            "noteNumber": 79,
            "velocity": 100
        },
        {
            "track": 2,
            "absoluteTick": 7680,
            "noteNumber": 57,
            "velocity": 100
        },
        {
            "track": 3,
            "absoluteTick": 7680,
            "noteNumber": 67,
            "velocity": 100
        },
        {
            "track": 1,
            "absoluteTick": 8160,
            "noteNumber": 88,
            "velocity": 85
        },
        {
            "track": 3,
            "absoluteTick": 8160,
            "noteNumber": 68,
            "velocity": 85
        },
        {
            "track": 3,
            "absoluteTick": 8400,
            "noteNumber": 70,
            "velocity": 70
        },
        {
            "track": 1,
            "absoluteTick": 8640,
            "noteNumber": 88,
            "velocity": 85
        },
        {
            "track": 2,
            "absoluteTick": 8640,
            "noteNumber": 64,
            "velocity": 85
        },
        {
            "track": 2,
            "absoluteTick": 8640,
            "noteNumber": 57,
            "velocity": 85
        },
        {
            "track": 3,
            "absoluteTick": 8880,
            "noteNumber": 68,
            "velocity": 70
        },
        {
            "track": 3,
            "absoluteTick": 9360,
            "noteNumber": 67,
            "velocity": 70
        },
        {
            "track": 1,
            "absoluteTick": 9600,
            "noteNumber": 88,
            "velocity": 100
        },
        {
            "track": 2,
            "absoluteTick": 9600,
            "noteNumber": 55,
            "velocity": 100
        },
        {
            "track": 3,
            "absoluteTick": 9840,
            "noteNumber": 68,
            "velocity": 70
        },
        {
            "track": 3,
            "absoluteTick": 10080,
            "noteNumber": 68,
            "velocity": 85
        },
        {
            "track": 3,
            "absoluteTick": 10320,
            "noteNumber": 70,
            "velocity": 70
        },
        {
            "track": 1,
            "absoluteTick": 10560,
            "noteNumber": 88,
            "velocity": 85
        },
        {
            "track": 2,
            "absoluteTick": 10560,
            "noteNumber": 55,
            "velocity": 85
        },
        {
            "track": 2,
            "absoluteTick": 10560,
            "noteNumber": 62,
            "velocity": 85
        },
        {
            "track": 3,
            "absoluteTick": 10800,
            "noteNumber": 70,
            "velocity": 70
        },
        {
            "track": 1,
            "absoluteTick": 11040,
            "noteNumber": 85,
            "velocity": 85
        },
        {
            "track": 3,
            "absoluteTick": 11040,
            "noteNumber": 68,
            "velocity": 85
        },
        {
            "track": 2,
            "absoluteTick": 11520,
            "noteNumber": 52,
            "velocity": 100
        },
        {
            "track": 3,
            "absoluteTick": 11520,
            "noteNumber": 71,
            "velocity": 100
        },
        {
            "track": 3,
            "absoluteTick": 11760,
            "noteNumber": 70,
            "velocity": 70
        },
        {
            "track": 1,
            "absoluteTick": 12000,
            "noteNumber": 85,
            "velocity": 85
        },
        {
            "track": 2,
            "absoluteTick": 12000,
            "noteNumber": 55,
            "velocity": 85
        },
        {
            "track": 2,
            "absoluteTick": 12000,
            "noteNumber": 62,
            "velocity": 85
        },
        {
            "track": 1,
            "absoluteTick": 12240,
            "noteNumber": 85,
            "velocity": 70
        },
        {
            "track": 1,
            "absoluteTick": 12720,
            "noteNumber": 85,
            "velocity": 70
        },
        {
            "track": 3,
            "absoluteTick": 12720,
            "noteNumber": 69,
            "velocity": 70
        },
        {
            "track": 2,
            "absoluteTick": 12960,
            "noteNumber": 54,
            "velocity": 85
        },
        {
            "track": 1,
            "absoluteTick": 13200,
            "noteNumber": 90,
            "velocity": 70
        },
        {
            "track": 3,
            "absoluteTick": 13200,
            "noteNumber": 64,
            "velocity": 70
        },
        {
            "track": 1,
            "absoluteTick": 13440,
            "noteNumber": 90,
            "velocity": 100
        },
        {
            "track": 3,
            "absoluteTick": 13440,
            "noteNumber": 61,
            "velocity": 100
        },
        {
            "track": 3,
            "absoluteTick": 13680,
            "noteNumber": 64,
            "velocity": 70
        },
        {
            "track": 1,
            "absoluteTick": 13920,
            "noteNumber": 90,
            "velocity": 85
        },
        {
            "track": 2,
            "absoluteTick": 13920,
            "noteNumber": 51,
            "velocity": 85
        },
        {
            "track": 2,
            "absoluteTick": 13920,
            "noteNumber": 58,
            "velocity": 85
        },
        {
            "track": 3,
            "absoluteTick": 13920,
            "noteNumber": 67,
            "velocity": 85
        },
        {
            "track": 3,
            "absoluteTick": 14160,
            "noteNumber": 64,
            "velocity": 70
        },
        {
            "track": 3,
            "absoluteTick": 14400,
            "noteNumber": 65,
            "velocity": 85
        },
        {
            "track": 1,
            "absoluteTick": 14880,
            "noteNumber": 90,
            "velocity": 85
        },
        {
            "track": 2,
            "absoluteTick": 14880,
            "noteNumber": 51,
            "velocity": 85
        },
        {
            "track": 3,
            "absoluteTick": 14880,
            "noteNumber": 68,
            "velocity": 85
        },
        {
            "track": 3,
            "absoluteTick": 15120,
            "noteNumber": 66,
            "velocity": 70
        },
        {
            "track": 1,
            "absoluteTick": 15360,
            "noteNumber": 58,
            "velocity": 100
        },
        {
            "track": 2,
            "absoluteTick": 15360,
            "noteNumber": 57,
            "velocity": 100
        },
        {
            "track": 3,
            "absoluteTick": 15360,
            "noteNumber": 64,
            "velocity": 100
        },
        {
            "track": 1,
            "absoluteTick": 15600,
            "noteNumber": 58,
            "velocity": 70
        },
        {
            "track": 1,
            "absoluteTick": 15720,
            "noteNumber": 55,
            "velocity": 55
        },
        {
            "track": 1,
            "absoluteTick": 15840,
            "noteNumber": 57,
            "velocity": 85
        },
        {
            "track": 3,
            "absoluteTick": 15840,
            "noteNumber": 61,
            "velocity": 85
        },
        {
            "track": 3,
            "absoluteTick": 15840,
            "noteNumber": 68,
            "velocity": 85
        },
        {
            "track": 3,
            "absoluteTick": 15840,
            "noteNumber": 73,
            "velocity": 85
        },
        {
            "track": 1,
            "absoluteTick": 15960,
            "noteNumber": 57,
            "velocity": 55
        },
        {
            "track": 1,
            "absoluteTick": 16080,
            "noteNumber": 56,
            "velocity": 70
        },
        {
            "track": 3,
            "absoluteTick": 16080,
            "noteNumber": 58,
            "velocity": 70
        },
        {
            "track": 1,
            "absoluteTick": 16200,
            "noteNumber": 55,
            "velocity": 55
        },
        {
            "track": 3,
            "absoluteTick": 16200,
            "noteNumber": 58,
            "velocity": 55
        },
        {
            "track": 1,
            "absoluteTick": 16320,
            "noteNumber": 53,
            "velocity": 85
        },
        {
            "track": 2,
            "absoluteTick": 16320,
            "noteNumber": 59,
            "velocity": 85
        },
        {
            "track": 1,
            "absoluteTick": 16440,
            "noteNumber": 53,
            "velocity": 55
        },
        {
            "track": 3,
            "absoluteTick": 16440,
            "noteNumber": 57,
            "velocity": 55
        },
        {
            "track": 1,
            "absoluteTick": 16560,
            "noteNumber": 54,
            "velocity": 70
        },
        {
            "track": 3,
            "absoluteTick": 16560,
            "noteNumber": 57,
            "velocity": 70
        },
        {
            "track": 3,
            "absoluteTick": 16560,
            "noteNumber": 64,
            "velocity": 70
        },
        {
            "track": 3,
            "absoluteTick": 16560,
            "noteNumber": 69,
            "velocity": 70
        },
        {
            "track": 1,
            "absoluteTick": 16680,
            "noteNumber": 56,
            "velocity": 55
        },
        {
            "track": 1,
            "absoluteTick": 16800,
            "noteNumber": 59,
            "velocity": 85
        },
        {
            "track": 3,
            "absoluteTick": 16800,
            "noteNumber": 55,
            "velocity": 85
        },
        {
            "track": 1,
            "absoluteTick": 16920,
            "noteNumber": 62,
            "velocity": 55
        },
        {
            "track": 3,
            "absoluteTick": 16920,
            "noteNumber": 57,
            "velocity": 55
        },
        {
            "track": 1,
            "absoluteTick": 17040,
            "noteNumber": 64,
            "velocity": 70
        },
        {
            "track": 3,
            "absoluteTick": 17040,
            "noteNumber": 53,
            "velocity": 70
        },
        {
            "track": 1,
            "absoluteTick": 17160,
            "noteNumber": 62,
            "velocity": 55
        },
        {
            "track": 3,
            "absoluteTick": 17160,
            "noteNumber": 56,
            "velocity": 55
        },
        {
            "track": 3,
            "absoluteTick": 17160,
            "noteNumber": 63,
            "velocity": 55
        },
        {
            "track": 3,
            "absoluteTick": 17160,
            "noteNumber": 68,
            "velocity": 55
        },
        {
            "track": 1,
            "absoluteTick": 17280,
            "noteNumber": 63,
            "velocity": 100
        },
        {
            "track": 2,
            "absoluteTick": 17280,
            "noteNumber": 63,
            "velocity": 100
        },
        {
            "track": 3,
            "absoluteTick": 17280,
            "noteNumber": 52,
            "velocity": 100
        },
        {
            "track": 1,
            "absoluteTick": 17400,
            "noteNumber": 63,
            "velocity": 55
        },
        {
            "track": 3,
            "absoluteTick": 17400,
            "noteNumber": 50,
            "velocity": 55
        },
        {
            "track": 1,
            "absoluteTick": 17520,
            "noteNumber": 67,
            "velocity": 70
        },
        {
            "track": 1,
            "absoluteTick": 17640,
            "noteNumber": 67,
            "velocity": 55
        },
        {
            "track": 3,
            "absoluteTick": 17640,
            "noteNumber": 54,
            "velocity": 55
        },
        {
            "track": 1,
            "absoluteTick": 17760,
            "noteNumber": 70,
            "velocity": 85
        },
        {
            "track": 2,
            "absoluteTick": 17760,
            "noteNumber": 63,
            "velocity": 85
        },
        {
            "track": 3,
            "absoluteTick": 17760,
            "noteNumber": 58,
            "velocity": 85
        },
        {
            "track": 3,
            "absoluteTick": 17760,
            "noteNumber": 70,
            "velocity": 85
        },
        {
            "track": 3,
            "absoluteTick": 17760,
            "noteNumber": 65,
            "velocity": 85
        },
        {
            "track": 1,
            "absoluteTick": 17880,
            "noteNumber": 67,
            "velocity": 55
        },
        {
            "track": 2,
            "absoluteTick": 17880,
            "noteNumber": 63,
            "velocity": 55
        },
        {
            "track": 3,
            "absoluteTick": 17880,
            "noteNumber": 55,
            "velocity": 55
        },
        {
            "track": 1,
            "absoluteTick": 18000,
            "noteNumber": 65,
            "velocity": 70
        },
        {
            "track": 3,
            "absoluteTick": 18000,
            "noteNumber": 58,
            "velocity": 70
        },
        {
            "track": 1,
            "absoluteTick": 18120,
            "noteNumber": 62,
            "velocity": 55
        },
        {
            "track": 2,
            "absoluteTick": 18120,
            "noteNumber": 63,
            "velocity": 55
        },
        {
            "track": 3,
            "absoluteTick": 18120,
            "noteNumber": 58,
            "velocity": 55
        },
        {
            "track": 1,
            "absoluteTick": 18240,
            "noteNumber": 66,
            "velocity": 85
        },
        {
            "track": 1,
            "absoluteTick": 18360,
            "noteNumber": 69,
            "velocity": 55
        },
        {
            "track": 2,
            "absoluteTick": 18360,
            "noteNumber": 68,
            "velocity": 55
        },
        {
            "track": 3,
            "absoluteTick": 18360,
            "noteNumber": 55,
            "velocity": 55
        },
        {
            "track": 3,
            "absoluteTick": 18360,
            "noteNumber": 62,
            "velocity": 55
        },
        {
            "track": 3,
            "absoluteTick": 18360,
            "noteNumber": 67,
            "velocity": 55
        },
        {
            "track": 1,
            "absoluteTick": 18480,
            "noteNumber": 70,
            "velocity": 70
        },
        {
            "track": 2,
            "absoluteTick": 18480,
            "noteNumber": 72,
            "velocity": 70
        },
        {
            "track": 3,
            "absoluteTick": 18480,
            "noteNumber": 53,
            "velocity": 70
        },
        {
            "track": 1,
            "absoluteTick": 18600,
            "noteNumber": 69,
            "velocity": 55
        },
        {
            "track": 3,
            "absoluteTick": 18600,
            "noteNumber": 52,
            "velocity": 55
        },
        {
            "track": 1,
            "absoluteTick": 18720,
            "noteNumber": 71,
            "velocity": 85
        },
        {
            "track": 1,
            "absoluteTick": 18840,
            "noteNumber": 71,
            "velocity": 55
        },
        {
            "track": 3,
            "absoluteTick": 18840,
            "noteNumber": 53,
            "velocity": 55
        },
        {
            "track": 1,
            "absoluteTick": 18960,
            "noteNumber": 70,
            "velocity": 70
        },
        {
            "track": 2,
            "absoluteTick": 18960,
            "noteNumber": 65,
            "velocity": 70
        },
        {
            "track": 1,
            "absoluteTick": 19080,
            "noteNumber": 70,
            "velocity": 55
        },
        {
            "track": 3,
            "absoluteTick": 19080,
            "noteNumber": 57,
            "velocity": 55
        },
        {
            "track": 3,
            "absoluteTick": 19080,
            "noteNumber": 64,
            "velocity": 55
        },
        {
            "track": 3,
            "absoluteTick": 19080,
            "noteNumber": 69,
            "velocity": 55
        },
        {
            "track": 1,
            "absoluteTick": 19200,
            "noteNumber": 74,
            "velocity": 100
        },
        {
            "track": 2,
            "absoluteTick": 19200,
            "noteNumber": 65,
            "velocity": 100
        },
        {
            "track": 3,
            "absoluteTick": 19200,
            "noteNumber": 69,
            "velocity": 100
        },
        {
            "track": 1,
            "absoluteTick": 19440,
            "noteNumber": 79,
            "velocity": 70
        },
        {
            "track": 2,
            "absoluteTick": 19440,
            "noteNumber": 62,
            "velocity": 70
        },
        {
            "track": 3,
            "absoluteTick": 19440,
            "noteNumber": 65,
            "velocity": 70
        },
        {
            "track": 3,
            "absoluteTick": 19560,
            "noteNumber": 53,
            "velocity": 55
        },
        {
            "track": 3,
            "absoluteTick": 19800,
            "noteNumber": 53,
            "velocity": 55
        },
        {
            "track": 3,
            "absoluteTick": 19800,
            "noteNumber": 60,
            "velocity": 55
        },
        {
            "track": 3,
            "absoluteTick": 19800,
            "noteNumber": 65,
            "velocity": 55
        },
        {
            "track": 1,
            "absoluteTick": 19920,
            "noteNumber": 67,
            "velocity": 70
        },
        {
            "track": 2,
            "absoluteTick": 19920,
            "noteNumber": 62,
            "velocity": 70
        },
        {
            "track": 1,
            "absoluteTick": 20040,
            "noteNumber": 55,
            "velocity": 55
        },
        {
            "track": 1,
            "absoluteTick": 20160,
            "noteNumber": 53,
            "velocity": 85
        },
        {
            "track": 2,
            "absoluteTick": 20160,
            "noteNumber": 64,
            "velocity": 85
        },
        {
            "track": 3,
            "absoluteTick": 20280,
            "noteNumber": 65,
            "velocity": 55
        },
        {
            "track": 1,
            "absoluteTick": 20640,
            "noteNumber": 65,
            "velocity": 85
        },
        {
            "track": 1,
            "absoluteTick": 20760,
            "noteNumber": 53,
            "velocity": 55
        },
        {
            "track": 1,
            "absoluteTick": 20880,
            "noteNumber": 51,
            "velocity": 70
        },
        {
            "track": 1,
            "absoluteTick": 21120,
            "noteNumber": 53,
            "velocity": 100
        },
        {
            "track": 2,
            "absoluteTick": 21120,
            "noteNumber": 61,
            "velocity": 100
        },
        {
            "track": 1,
            "absoluteTick": 21240,
            "noteNumber": 55,
            "velocity": 55
        },
        {
            "track": 3,
            "absoluteTick": 21240,
            "noteNumber": 62,
            "velocity": 55
        },
        {
            "track": 1,
            "absoluteTick": 21360,
            "noteNumber": 54,
            "velocity": 70
        },
        {
            "track": 3,
            "absoluteTick": 21360,
            "noteNumber": 64,
            "velocity": 70
        },
        {
            "track": 1,
            "absoluteTick": 21480,
            "noteNumber": 52,
            "velocity": 55
        },
        {
            "track": 1,
            "absoluteTick": 21600,
            "noteNumber": 50,
            "velocity": 85
        },
        {
            "track": 2,
            "absoluteTick": 21600,
            "noteNumber": 62,
            "velocity": 85
        },
        {
            "track": 3,
            "absoluteTick": 21600,
            "noteNumber": 62,
            "velocity": 85
        },
        {
            "track": 3,
            "absoluteTick": 21600,
            "noteNumber": 69,
            "velocity": 85
        },
        {
            "track": 3,
            "absoluteTick": 21600,
            "noteNumber": 74,
            "velocity": 85
        },
        {
            "track": 3,
            "absoluteTick": 21720,
            "noteNumber": 58,
            "velocity": 55
        },
        {
            "track": 1,
            "absoluteTick": 21840,
            "noteNumber": 50,
            "velocity": 70
        },
        {
            "track": 3,
            "absoluteTick": 21840,
            "noteNumber": 55,
            "velocity": 70
        },
        {
            "track": 1,
            "absoluteTick": 21960,
            "noteNumber": 51,
            "velocity": 55
        },
        {
            "track": 3,
            "absoluteTick": 21960,
            "noteNumber": 51,
            "velocity": 55
        },
        {
            "track": 1,
            "absoluteTick": 22080,
            "noteNumber": 51,
            "velocity": 85
        },
        {
            "track": 1,
            "absoluteTick": 22200,
            "noteNumber": 50,
            "velocity": 55
        },
        {
            "track": 3,
            "absoluteTick": 22200,
            "noteNumber": 51,
            "velocity": 55
        },
        {
            "track": 3,
            "absoluteTick": 22200,
            "noteNumber": 63,
            "velocity": 55
        },
        {
            "track": 3,
            "absoluteTick": 22200,
            "noteNumber": 58,
            "velocity": 55
        },
        {
            "track": 1,
            "absoluteTick": 22320,
            "noteNumber": 59,
            "velocity": 70
        },
        {
            "track": 3,
            "absoluteTick": 22440,
            "noteNumber": 54,
            "velocity": 55
        },
        {
            "track": 1,
            "absoluteTick": 22560,
            "noteNumber": 60,
            "velocity": 85
        },
        {
            "track": 2,
            "absoluteTick": 22560,
            "noteNumber": 65,
            "velocity": 85
        },
        {
            "track": 3,
            "absoluteTick": 22560,
            "noteNumber": 53,
            "velocity": 85
        },
        {
            "track": 1,
            "absoluteTick": 22680,
            "noteNumber": 59,
            "velocity": 55
        },
        {
            "track": 1,
            "absoluteTick": 22800,
            "noteNumber": 60,
            "velocity": 70
        },
        {
            "track": 3,
            "absoluteTick": 22800,
            "noteNumber": 56,
            "velocity": 70
        },
        {
            "track": 1,
            "absoluteTick": 22920,
            "noteNumber": 63,
            "velocity": 55
        },
        {
            "track": 1,
            "absoluteTick": 23040,
            "noteNumber": 72,
            "velocity": 100
        },
        {
            "track": 2,
            "absoluteTick": 23040,
            "noteNumber": 50,
            "velocity": 100
        },
        {
            "track": 3,
            "absoluteTick": 23040,
            "noteNumber": 60,
            "velocity": 100
        },
        {
            "track": 1,
            "absoluteTick": 23520,
            "noteNumber": 81,
            "velocity": 85
        },
        {
            "track": 3,
            "absoluteTick": 23520,
            "noteNumber": 61,
            "velocity": 85
        },
        {
            "track": 3,
            "absoluteTick": 23760,
            "noteNumber": 63,
            "velocity": 70
        },
        {
            "track": 1,
            "absoluteTick": 24000,
            "noteNumber": 81,
            "velocity": 85
        },
        {
            "track": 2,
            "absoluteTick": 24000,
            "noteNumber": 50,
            "velocity": 85
        },
        {
            "track": 2,
            "absoluteTick": 24000,
            "noteNumber": 57,
            "velocity": 85
        },
        {
            "track": 3,
            "absoluteTick": 24240,
            "noteNumber": 61,
            "velocity": 70
        },
        {
            "track": 3,
            "absoluteTick": 24720,
            "noteNumber": 60,
            "velocity": 70
        },
        {
            "track": 1,
            "absoluteTick": 24960,
            "noteNumber": 81,
            "velocity": 100
        },
        {
            "track": 2,
            "absoluteTick": 24960,
            "noteNumber": 48,
            "velocity": 100
        },
        {
            "track": 3,
            "absoluteTick": 25200,
            "noteNumber": 61,
            "velocity": 70
        },
        {
            "track": 3,
            "absoluteTick": 25440,
            "noteNumber": 61,
            "velocity": 85
        },
        {
            "track": 3,
            "absoluteTick": 25680,
            "noteNumber": 63,
            "velocity": 70
        },
        {
            "track": 1,
            "absoluteTick": 25920,
            "noteNumber": 81,
            "velocity": 85
        },
        {
            "track": 2,
            "absoluteTick": 25920,
            "noteNumber": 48,
            "velocity": 85
        },
        {
            "track": 2,
            "absoluteTick": 25920,
            "noteNumber": 55,
            "velocity": 85
        },
        {
            "track": 3,
            "absoluteTick": 26160,
            "noteNumber": 63,
            "velocity": 70
        },
        {
            "track": 1,
            "absoluteTick": 26400,
            "noteNumber": 78,
            "velocity": 85
        },
        {
            "track": 3,
            "absoluteTick": 26400,
            "noteNumber": 61,
            "velocity": 85
        },
        {
            "track": 2,
            "absoluteTick": 26880,
            "noteNumber": 45,
            "velocity": 100
        },
        {
            "track": 3,
            "absoluteTick": 26880,
            "noteNumber": 64,
            "velocity": 100
        },
        {
            "track": 3,
            "absoluteTick": 27120,
            "noteNumber": 63,
            "velocity": 70
        },
        {
            "track": 1,
            "absoluteTick": 27360,
            "noteNumber": 78,
            "velocity": 85
        },
        {
            "track": 2,
            "absoluteTick": 27360,
            "noteNumber": 48,
            "velocity": 85
        },
        {
            "track": 2,
            "absoluteTick": 27360,
            "noteNumber": 55,
            "velocity": 85
        },
        {
            "track": 1,
            "absoluteTick": 27600,
            "noteNumber": 78,
            "velocity": 70
        },
        {
            "track": 1,
            "absoluteTick": 28080,
            "noteNumber": 78,
            "velocity": 70
        },
        {
            "track": 3,
            "absoluteTick": 28080,
            "noteNumber": 62,
            "velocity": 70
        },
        {
            "track": 2,
            "absoluteTick": 28320,
            "noteNumber": 47,
            "velocity": 85
        },
        {
            "track": 1,
            "absoluteTick": 28560,
            "noteNumber": 83,
            "velocity": 70
        },
        {
            "track": 3,
            "absoluteTick": 28560,
            "noteNumber": 57,
            "velocity": 70
        },
        {
            "track": 1,
            "absoluteTick": 28800,
            "noteNumber": 83,
            "velocity": 100
        },
        {
            "track": 3,
            "absoluteTick": 28800,
            "noteNumber": 54,
            "velocity": 100
        },
        {
            "track": 3,
            "absoluteTick": 29040,
            "noteNumber": 57,
            "velocity": 70
        },
        {
            "track": 1,
            "absoluteTick": 29280,
            "noteNumber": 83,
            "velocity": 85
        },
        {
            "track": 2,
            "absoluteTick": 29280,
            "noteNumber": 44,
            "velocity": 85
        },
        {
            "track": 2,
            "absoluteTick": 29280,
            "noteNumber": 51,
            "velocity": 85
        },
        {
            "track": 3,
            "absoluteTick": 29280,
            "noteNumber": 60,
            "velocity": 85
        },
        {
            "track": 3,
            "absoluteTick": 29520,
            "noteNumber": 57,
            "velocity": 70
        },
        {
            "track": 3,
            "absoluteTick": 29760,
            "noteNumber": 58,
            "velocity": 85
        },
        {
            "track": 1,
            "absoluteTick": 30240,
            "noteNumber": 83,
            "velocity": 85
        },
        {
            "track": 2,
            "absoluteTick": 30240,
            "noteNumber": 44,
            "velocity": 85
        },
        {
            "track": 3,
            "absoluteTick": 30240,
            "noteNumber": 61,
            "velocity": 85
        },
        {
            "track": 3,
            "absoluteTick": 30480,
            "noteNumber": 59,
            "velocity": 70
        },
        {
            "track": 1,
            "absoluteTick": 30720,
            "noteNumber": 67,
            "velocity": 100
        },
        {
            "track": 1,
            "absoluteTick": 30720,
            "noteNumber": 71,
            "velocity": 100
        },
        {
            "track": 2,
            "absoluteTick": 30720,
            "noteNumber": 55,
            "velocity": 100
        },
        {
            "track": 3,
            "absoluteTick": 30720,
            "noteNumber": 79,
            "velocity": 100
        },
        {
            "track": 1,
            "absoluteTick": 31680,
            "noteNumber": 60,
            "velocity": 85
        },
        {
            "track": 1,
            "absoluteTick": 31680,
            "noteNumber": 67,
            "velocity": 85
        },
        {
            "track": 2,
            "absoluteTick": 31680,
            "noteNumber": 36,
            "velocity": 85
        },
        {
            "track": 2,
            "absoluteTick": 31680,
            "noteNumber": 48,
            "velocity": 85
        },
        {
            "track": 3,
            "absoluteTick": 31800,
            "noteNumber": 72,
            "velocity": 55
        }
    ]
}